<?xml version="1.0" encoding="utf-8" standalone="no"?>
<!DOCTYPE svg PUBLIC "-//W3C//DTD SVG 1.1//EN"
  "http://www.w3.org/Graphics/SVG/1.1/DTD/svg11.dtd">
<svg xmlns:xlink="http://www.w3.org/1999/xlink" width="357.12pt" height="249.37496pt" viewBox="0 0 357.12 249.37496" xmlns="http://www.w3.org/2000/svg" version="1.1">
 <metadata>
  <rdf:RDF xmlns:dc="http://purl.org/dc/elements/1.1/" xmlns:cc="http://creativecommons.org/ns#" xmlns:rdf="http://www.w3.org/1999/02/22-rdf-syntax-ns#">
   <cc:Work>
    <dc:type rdf:resource="http://purl.org/dc/dcmitype/StillImage"/>
    <dc:date>2025-06-04T13:24:52.644151</dc:date>
    <dc:format>image/svg+xml</dc:format>
    <dc:creator>
     <cc:Agent>
      <dc:title>Matplotlib v3.10.3, https://matplotlib.org/</dc:title>
     </cc:Agent>
    </dc:creator>
   </cc:Work>
  </rdf:RDF>
 </metadata>
 <defs>
  <style type="text/css">*{stroke-linejoin: round; stroke-linecap: butt}</style>
 </defs>
 <g id="figure_1">
  <g id="patch_1">
   <path d="M 0 249.37496 
L 357.12 249.37496 
L 357.12 0 
L 0 0 
L 0 249.37496 
z
" style="fill: none"/>
  </g>
  <g id="axes_1">
   <g id="PatchCollection_1">
    <defs>
     <path id="m5dec9cdc92" d="M 16.232727 -198.001697 
L 20.608798 -200.009198 
L 21.004277 -201.479331 
L 17.745867 -206.229393 
L 17.732907 -208.918094 
L 20.187527 -212.337857 
L 19.551319 -217.883159 
L 21.864016 -222.766475 
L 21.631887 -228.346181 
L 23.427769 -230.715276 
L 29.773613 -232.442835 
L 40.554737 -232.520211 
L 42.282812 -231.428344 
L 41.878734 -229.704567 
L 45.463845 -228.47944 
L 48.50732 -223.733681 
L 57.568967 -216.989031 
L 66.157757 -214.474295 
L 68.634622 -216.036205 
L 72.227512 -224.090473 
L 76.079142 -225.423068 
L 79.939369 -230.968383 
L 83.85118 -232.859809 
L 107.373632 -229.446645 
L 108.955552 -232.421341 
L 116.744785 -238.039735 
L 118.653405 -233.977468 
L 120.372882 -234.110729 
L 119.805455 -235.245584 
L 122.926306 -233.620677 
L 123.725863 -234.682454 
L 123.725863 -232.352562 
L 126.055755 -233.543301 
L 127.672064 -231.04576 
L 133.40306 -228.434712 
L 138.599344 -226.729871 
L 143.456868 -227.297298 
L 145.408474 -230.138735 
L 154.848406 -225.986197 
L 159.912267 -227.85183 
L 161.141694 -226.527833 
L 160.281955 -225.543431 
L 164.31413 -226.158145 
L 163.119093 -223.888434 
L 170.650404 -224.387083 
L 175.439149 -227.460649 
L 179.995764 -228.010882 
L 186.733584 -223.604542 
L 190.880057 -220.208753 
L 193.381897 -219.800377 
L 198.83264 -221.115777 
L 205.263486 -226.334391 
L 207.808313 -226.802949 
L 213.731913 -223.355397 
L 218.174163 -222.498832 
L 222.234729 -223.398383 
L 223.051481 -226.355885 
L 226.008982 -227.469246 
L 233.033048 -224.59342 
L 240.49558 -223.725084 
L 243.806046 -221.438953 
L 246.291469 -219.938516 
L 251.233717 -218.970729 
L 250.708126 -221.726187 
L 256.890798 -222.697696 
L 260.183597 -219.585442 
L 263.123904 -221.425283 
L 267.637532 -215.695124 
L 271.850252 -214.848281 
L 273.148457 -212.195982 
L 270.491866 -209.586688 
L 271.385993 -207.196605 
L 276.273044 -204.076679 
L 280.224109 -202.824847 
L 287.318858 -202.955171 
L 290.721518 -203.194527 
L 296.438781 -204.303592 
L 304.950194 -208.344356 
L 306.196816 -206.749551 
L 315.206878 -207.080546 
L 319.100972 -205.710235 
L 320.734998 -202.975295 
L 316.720017 -192.241447 
L 305.070558 -179.104647 
L 304.348377 -175.962298 
L 300.213033 -174.302998 
L 301.167344 -167.025316 
L 298.321608 -163.023228 
L 300.961007 -156.91909 
L 310.160211 -153.70796 
L 314.974747 -153.995963 
L 317.820482 -151.635982 
L 319.548558 -147.092273 
L 326.22013 -143.098779 
L 328.145945 -143.898334 
L 332.344591 -138.772792 
L 337.671851 -135.4729 
L 339.227977 -136.392817 
L 340.887273 -134.157493 
L 335.341959 -129.807224 
L 319.737701 -128.964683 
L 312.094622 -132.218781 
L 309.205902 -130.563804 
L 309.455225 -127.223707 
L 327.810646 -111.400207 
L 331.610691 -101.837761 
L 329.126048 -99.325189 
L 329.47854 -94.654655 
L 325.326003 -95.51225 
L 323.572135 -92.984612 
L 318.233156 -98.648129 
L 314.433111 -96.939399 
L 310.426728 -96.96734 
L 307.495021 -92.322614 
L 305.65518 -92.322614 
L 299.619815 -92.584843 
L 297.393091 -90.66762 
L 293.979928 -90.151776 
L 289.423312 -93.577827 
L 287.531886 -93.440262 
L 282.003767 -90.199062 
L 281.556702 -88.814876 
L 285.348149 -86.583846 
L 284.935476 -84.93101 
L 286.76672 -85.277059 
L 290.231466 -82.190585 
L 295.200757 -73.692076 
L 291.280052 -72.67021 
L 288.532504 -70.629676 
L 285.855398 -75.108507 
L 283.035454 -76.853772 
L 276.062973 -76.935448 
L 274.532637 -76.400251 
L 275.555726 -74.966631 
L 261.481804 -67.398799 
L 263.484994 -66.67446 
L 259.899885 -62.990489 
L 257.889065 -58.365091 
L 259.375443 -49.686016 
L 246.401986 -49.219616 
L 242.283837 -44.192291 
L 245.593831 -36.568557 
L 243.203757 -32.785705 
L 245.103779 -28.802956 
L 251.113354 -22.668736 
L 251.37607 -16.92666 
L 248.378551 -14.602573 
L 246.702895 -13.88221 
L 247.158555 -11.797329 
L 242.60194 -11.335225 
L 236.980957 -12.598031 
L 234.391434 -14.93752 
L 224.86553 -17.06324 
L 194.447973 -32.777107 
L 191.842966 -35.784057 
L 190.561952 -40.503998 
L 188.481385 -39.799015 
L 181.397139 -41.305719 
L 177.383073 -38.929667 
L 169.327252 -42.575085 
L 174.438297 -41.495325 
L 171.337822 -43.18435 
L 178.164521 -45.148753 
L 175.310189 -51.876214 
L 172.7825 -54.066435 
L 160.544999 -60.326027 
L 156.327157 -65.973776 
L 147.153745 -73.242872 
L 145.296709 -77.393254 
L 146.861434 -84.385087 
L 145.537434 -86.534412 
L 134.911065 -88.707417 
L 128.219453 -91.902615 
L 108.379527 -106.839306 
L 99.128737 -112.180422 
L 96.300198 -117.934237 
L 83.726585 -128.513249 
L 76.423038 -132.352057 
L 74.290886 -135.829706 
L 70.396268 -136.023123 
L 67.043287 -138.039217 
L 57.801095 -148.502233 
L 55.454009 -154.679458 
L 56.957492 -160.345693 
L 54.10422 -162.55468 
L 51.353057 -162.597672 
L 53.132715 -165.800188 
L 49.539007 -174.565228 
L 46.813636 -175.682895 
L 42.067877 -174.874732 
L 40.356998 -176.190139 
L 43.57242 -180.213703 
L 42.205434 -183.154002 
L 37.270535 -184.361953 
L 35.533862 -187.594557 
L 31.983141 -188.596152 
L 30.598962 -191.433294 
L 23.686663 -189.137802 
L 17.264414 -195.164557 
z
" style="stroke: #000000; stroke-width: 0.5"/>
    </defs>
    <g clip-path="url(#p699c65740b)">
     <use xlink:href="#m5dec9cdc92" x="0" y="249.37496" style="fill: #ffeadb; stroke: #000000; stroke-width: 0.5"/>
    </g>
   </g>
  </g>
 </g>
 <defs>
  <clipPath id="p699c65740b">
   <rect x="0" y="0" width="357.12" height="249.37496"/>
  </clipPath>
 </defs>
</svg>
