<?xml version="1.0" encoding="utf-8" standalone="no"?>
<!DOCTYPE svg PUBLIC "-//W3C//DTD SVG 1.1//EN"
  "http://www.w3.org/Graphics/SVG/1.1/DTD/svg11.dtd">
<svg xmlns:xlink="http://www.w3.org/1999/xlink" width="302.92225pt" height="266.112pt" viewBox="0 0 302.92225 266.112" xmlns="http://www.w3.org/2000/svg" version="1.1">
 <metadata>
  <rdf:RDF xmlns:dc="http://purl.org/dc/elements/1.1/" xmlns:cc="http://creativecommons.org/ns#" xmlns:rdf="http://www.w3.org/1999/02/22-rdf-syntax-ns#">
   <cc:Work>
    <dc:type rdf:resource="http://purl.org/dc/dcmitype/StillImage"/>
    <dc:date>2025-06-04T13:24:42.572430</dc:date>
    <dc:format>image/svg+xml</dc:format>
    <dc:creator>
     <cc:Agent>
      <dc:title>Matplotlib v3.10.3, https://matplotlib.org/</dc:title>
     </cc:Agent>
    </dc:creator>
   </cc:Work>
  </rdf:RDF>
 </metadata>
 <defs>
  <style type="text/css">*{stroke-linejoin: round; stroke-linecap: butt}</style>
 </defs>
 <g id="figure_1">
  <g id="patch_1">
   <path d="M 0 266.112 
L 302.92225 266.112 
L 302.92225 0 
L 0 0 
L 0 266.112 
z
" style="fill: none"/>
  </g>
  <g id="axes_1">
   <g id="PatchCollection_1">
    <path d="M 227.54467 203.019497 
L 227.595394 201.599226 
L 227.777018 201.203248 
L 228.199173 201.091985 
L 229.784707 201.211433 
L 230.123412 201.064169 
L 231.337516 200.06278 
L 231.370241 199.805888 
L 230.943177 199.512996 
L 230.943177 199.265919 
L 231.730218 198.797952 
L 232.014926 198.689956 
L 231.779305 198.624508 
L 231.596044 198.550876 
L 231.474961 198.405248 
L 231.442236 198.140177 
L 232.250547 197.845647 
L 233.431926 197.174782 
L 234.36132 197.043881 
L 234.577306 196.912979 
L 235.01746 196.346837 
L 235.549244 195.998312 
L 235.506701 195.492712 
L 235.352893 194.938016 
L 235.361074 194.573133 
L 236.102299 194.294967 
L 237.201865 194.186976 
L 238.19671 193.961174 
L 238.630317 193.323029 
L 238.797216 192.351091 
L 239.258641 191.883122 
L 239.965505 191.693321 
L 240.85072 191.550966 
L 242.444435 191.00118 
L 243.550545 190.057058 
L 243.926885 188.754599 
L 243.321469 187.134703 
L 242.213723 186.375483 
L 239.355179 186.32966 
L 238.080535 185.737336 
L 237.476755 185.200644 
L 237.545478 185.050105 
L 238.031447 184.32361 
L 238.29652 184.091259 
L 238.589412 183.937458 
L 238.905209 183.839277 
L 238.648316 183.577472 
L 238.080535 182.739713 
L 239.410813 183.098055 
L 239.728247 183.264953 
L 239.862419 182.81825 
L 240.160218 182.474634 
L 240.520196 182.317559 
L 240.85072 182.441919 
L 241.094522 182.273379 
L 241.204152 182.216116 
L 241.374322 182.193199 
L 241.374322 181.892131 
L 241.045434 181.807046 
L 240.909625 181.72196 
L 240.801632 181.577968 
L 240.55292 181.319437 
L 242.627696 181.340712 
L 243.619268 181.193446 
L 244.695926 180.792566 
L 244.738469 180.948011 
L 244.756468 181.077276 
L 244.813738 181.201637 
L 244.970817 181.319437 
L 244.021788 182.877157 
L 243.570181 183.264953 
L 243.550546 182.860799 
L 243.409827 182.540089 
L 243.14639 182.314285 
L 242.773322 182.193199 
L 242.912405 182.739713 
L 243.244565 183.264953 
L 243.681446 183.520209 
L 244.146143 183.264953 
L 244.417762 183.854003 
L 244.78592 186.858173 
L 245.006815 187.475045 
L 245.5206 188.507522 
L 244.830099 188.662966 
L 244.540481 189.343648 
L 244.398128 190.225597 
L 244.146144 190.976638 
L 243.753441 191.441333 
L 243.174206 191.982934 
L 242.562245 192.436176 
L 242.074641 192.625984 
L 241.613216 192.984325 
L 240.278029 195.394531 
L 238.178711 197.007886 
L 237.80728 197.18133 
L 237.381852 197.210777 
L 234.937284 198.140177 
L 233.93262 198.343068 
L 233.317388 198.865037 
L 232.312726 200.362215 
L 231.988747 200.692739 
L 230.925178 201.559952 
L 230.519387 201.736669 
L 229.607991 201.867571 
L 228.89131 202.222637 
L 227.595394 203.382748 
z
" clip-path="url(#p17f751fccb)" style="fill: #ffeadb; stroke: #000000; stroke-width: 0.5"/>
    <path d="M 60.068749 104.74256 
L 62.207339 103.849167 
L 62.665492 102.936141 
L 64.095581 103.099761 
L 64.187211 101.97074 
L 65.358772 101.299875 
L 66.086908 103.361568 
L 64.486648 105.567245 
L 64.759901 106.315006 
L 66.73323 105.676872 
L 66.959032 104.467669 
L 67.741165 104.811292 
L 67.657715 107.088959 
L 68.323671 107.462023 
L 68.605109 105.292354 
L 69.979566 105.567245 
L 67.265014 100.125051 
L 66.68414 100.324663 
L 67.233925 102.819965 
L 65.654935 100.571743 
L 66.134358 98.676952 
L 68.246767 96.625084 
L 68.081506 95.63352 
L 69.513232 95.199911 
L 70.887688 92.874784 
L 70.254456 91.786672 
L 71.540555 89.634995 
L 71.452197 88.504341 
L 69.262884 82.217838 
L 69.729218 81.329349 
L 72.476495 81.854588 
L 73.577697 83.085054 
L 76.066445 82.280016 
L 78.378478 83.520299 
L 78.812086 84.076627 
L 78.111768 85.413449 
L 79.09025 86.547376 
L 78.422657 89.124483 
L 80.528521 90.598752 
L 82.974726 96.134207 
L 84.751704 98.560787 
L 88.449645 101.699123 
L 88.264748 104.331861 
L 87.791869 105.645775 
L 88.999429 108.337424 
L 88.824349 110.786906 
L 83.357611 113.149662 
L 83.508147 114.376856 
L 81.559364 115.749679 
L 79.433865 115.960753 
L 77.368906 117.222304 
L 77.16601 118.794744 
L 75.794827 118.244969 
L 74.659263 114.59611 
L 72.487949 113.611088 
L 72.476494 109.684062 
L 70.64225 111.159969 
L 68.776916 111.137063 
L 63.74215 108.523962 
z
" clip-path="url(#p17f751fccb)" style="fill: #ffeadb; stroke: #000000; stroke-width: 0.5"/>
    <path d="M 80.212724 125.959929 
L 80.734689 125.382322 
L 81.538092 125.621218 
L 81.461188 124.394023 
L 83.756859 123.186471 
L 84.329549 121.542032 
L 86.227608 121.265503 
L 87.705149 119.42962 
L 90.944939 117.672276 
L 92.712098 119.838683 
L 89.847009 122.204706 
L 87.624972 122.914847 
L 88.637816 123.539898 
L 87.592247 124.194403 
L 89.855192 125.321783 
L 88.174755 128.429042 
L 89.560665 128.09851 
L 92.042869 124.310577 
L 92.393027 121.551842 
L 93.6644 121.078967 
L 95.99934 124.791631 
L 96.159694 129.679139 
L 96.984368 131.047051 
L 96.159694 132.159709 
L 94.084918 132.655487 
L 93.939291 133.671603 
L 96.177692 132.405139 
L 97.324709 133.118548 
L 96.598211 136.749411 
L 95.063402 136.715052 
L 96.159695 138.3644 
L 95.338292 140.283724 
L 94.075102 140.687887 
L 91.219832 139.460695 
L 91.911969 140.233007 
L 91.21983 141.108396 
L 90.552238 140.252639 
L 89.359405 139.959743 
L 86.801934 140.036652 
L 88.174755 139.460695 
L 87.971859 138.771826 
L 90.94494 139.460695 
L 91.597806 138.217131 
L 94.925955 136.003277 
L 94.206003 135.748025 
L 90.095721 138.613104 
L 89.133601 138.508384 
L 87.350081 136.965399 
L 91.329461 135.345503 
L 91.519265 134.493005 
L 90.154628 135.296417 
L 85.97726 135.618756 
L 84.820426 132.110623 
L 85.016777 130.651076 
L 84.427725 130.466184 
L 84.57826 128.978824 
L 83.249619 127.943072 
L 83.508148 127.33275 
z
" clip-path="url(#p17f751fccb)" style="fill: #ffeadb; stroke: #000000; stroke-width: 0.5"/>
    <path d="M 79.388048 13.517905 
L 83.184168 12.096 
L 92.769367 13.069572 
L 93.692217 12.418343 
L 97.534151 14.463666 
L 104.907129 20.913795 
L 108.017656 21.776105 
L 105.820162 22.325886 
L 107.24207 24.294304 
L 111.851409 25.781663 
L 115.72934 28.142784 
L 116.393661 29.402703 
L 115.739157 30.616802 
L 115.866786 33.066283 
L 117.403232 33.908953 
L 116.825633 35.142693 
L 117.501408 36.736411 
L 117.100524 37.227284 
L 115.72934 37.750888 
L 116.004232 36.978576 
L 114.698498 37.119295 
L 111.461979 39.56059 
L 110.365686 46.655405 
L 110.424592 52.794646 
L 108.979776 54.051292 
L 107.91948 53.547325 
L 105.425823 49.793747 
L 102.485467 49.21124 
L 101.677156 48.234394 
L 103.058158 48.003682 
L 104.105363 46.589954 
L 105.671262 46.187436 
L 109.115585 43.56615 
L 107.718221 40.794329 
L 108.690158 39.616222 
L 108.822695 37.965241 
L 108.027474 36.841132 
L 109.303755 35.142693 
L 108.840694 31.436569 
L 110.205333 30.816426 
L 111.920131 27.334471 
L 111.63215 26.742147 
L 104.835134 25.118975 
L 103.000889 21.299951 
L 102.377475 21.776105 
L 100.924477 21.476667 
L 100.212705 19.06646 
L 98.381732 16.322454 
L 95.727721 14.422757 
L 93.391146 14.987269 
L 87.749327 14.064415 
L 84.691162 12.860133 
z
" clip-path="url(#p17f751fccb)" style="fill: #ffeadb; stroke: #000000; stroke-width: 0.5"/>
    <path d="M 184.340912 144.976511 
L 185.193402 142.482857 
L 190.683049 149.394414 
L 191.172289 152.115508 
L 194.737695 157.790047 
L 196.108881 164.371087 
L 200.677312 166.298593 
L 204.759777 170.061991 
L 204.18545 170.86048 
L 205.219565 173.521039 
L 204.956127 175.700532 
L 204.227993 175.273472 
L 203.935102 173.907193 
L 203.386955 174.178808 
L 201.559255 169.597285 
L 199.404303 167.134717 
L 194.302451 166.064609 
L 189.285684 163.173342 
L 190.408157 161.774339 
L 192.355303 163.423684 
L 190.98412 163.173342 
L 191.672985 164.037289 
L 194.253363 165.343013 
L 195.766903 165.377383 
L 192.905087 161.911785 
L 193.978472 158.755441 
L 193.680672 156.719934 
L 192.630195 155.158943 
L 192.055868 155.712001 
L 192.124592 154.762975 
L 190.602871 153.575045 
L 190.683048 152.691473 
L 189.396949 152.08278 
L 187.387624 146.625862 
L 185.990259 146.872932 
L 186.036076 144.356375 
L 185.193402 144.976511 
L 185.99026 144.130567 
L 185.486293 143.98331 
z
" clip-path="url(#p17f751fccb)" style="fill: #ffeadb; stroke: #000000; stroke-width: 0.5"/>
    <path d="M 126.760992 72.495193 
L 128.328527 69.96881 
L 128.683595 66.97773 
L 131.155981 67.252621 
L 130.606198 70.024442 
L 131.237794 69.268491 
L 132.414263 70.849117 
L 138.296611 74.623964 
L 139.772516 75.384825 
L 144.167505 76.026237 
L 145.680834 77.595017 
L 149.3119 81.275353 
L 153.551445 84.256615 
L 153.217648 89.428827 
L 152.096811 90.390947 
L 152.800402 93.576741 
L 152.430608 96.309294 
L 151.272137 98.253166 
L 151.821919 103.917887 
L 150.486732 103.379558 
L 148.799751 99.501629 
L 144.782737 97.084874 
L 145.541961 96.669266 
L 149.752054 97.173239 
L 151.164144 95.366806 
L 151.239411 93.884352 
L 150.025309 95.108283 
L 149.825685 93.622554 
L 150.401648 91.112538 
L 151.458655 90.09091 
L 152.4077 87.13152 
L 151.674657 84.421877 
L 147.701822 81.854588 
L 144.934766 78.170638 
L 143.365738 76.674196 
L 136.961424 74.746683 
L 134.533217 72.650637 
L 129.645715 71.670519 
z
" clip-path="url(#p17f751fccb)" style="fill: #ffeadb; stroke: #000000; stroke-width: 0.5"/>
    <path d="M 37.755099 21.227955 
L 44.272315 24.716459 
L 45.46842 26.194002 
L 49.1588 26.487804 
L 52.227432 24.911026 
L 54.814935 21.918061 
L 53.754431 20.95143 
L 52.082175 20.678173 
L 53.456632 19.032099 
L 54.003142 16.836241 
L 56.200637 19.704602 
L 58.805242 20.76761 
L 66.337932 21.864466 
L 67.711285 20.760614 
L 69.733515 21.395319 
L 71.164698 20.862851 
L 73.099039 21.107015 
L 75.654109 20.234749 
L 79.021528 20.092394 
L 81.284473 18.207426 
L 81.06685 20.599635 
L 81.816256 22.792218 
L 80.734689 23.724883 
L 79.388049 22.900213 
L 76.243161 22.95257 
L 61.347719 25.533651 
L 56.161366 26.709417 
L 53.829862 28.061086 
L 51.887161 29.12843 
L 50.291066 29.648885 
L 47.045602 28.997709 
z
" clip-path="url(#p17f751fccb)" style="fill: #ffeadb; stroke: #000000; stroke-width: 0.5"/>
    <path d="M 250.667755 249.698493 
L 252.673293 248.889401 
L 253.001499 247.254896 
L 252.090294 245.859899 
L 253.473137 246.484045 
L 256.71257 245.257465 
L 258.252035 242.978919 
L 261.519931 242.721661 
L 263.267455 241.111583 
L 265.119159 243.84162 
L 268.685292 245.062199 
L 272.472972 243.662681 
L 276.812399 237.251652 
L 277.587985 236.804951 
L 278.455202 237.14202 
L 278.715367 238.773373 
L 277.581242 244.190734 
L 275.021127 247.220013 
L 273.725184 250.748173 
L 269.875108 252.404913 
L 268.13205 252.153051 
L 266.186539 253.000633 
L 266.453249 252.483576 
L 264.995008 251.947927 
L 262.902504 253.076536 
L 259.136315 253.531102 
L 254.785093 252.643929 
L 253.554528 253.039545 
L 253.004047 254.016 
L 252.270336 253.666826 
z
" clip-path="url(#p17f751fccb)" style="fill: #ffeadb; stroke: #000000; stroke-width: 0.5"/>
    <path d="M 25.434076 61.399727 
L 25.555159 60.815582 
L 25.854595 60.044905 
L 26.396196 59.192415 
L 27.171783 58.601726 
L 27.613572 58.488823 
L 27.773925 58.925705 
L 27.888464 59.768378 
L 27.78047 60.103811 
L 27.695385 59.927094 
L 27.430311 60.044905 
L 26.934525 60.187258 
L 26.864166 59.820739 
L 27.145602 59.215322 
L 26.991794 59.015698 
L 26.448557 59.483669 
L 26.158939 59.82401 
L 25.944589 60.133264 
L 25.852958 60.661775 
L 26.276749 60.979208 
L 26.887074 61.208285 
L 27.292865 61.532264 
L 27.140693 61.744976 
L 26.041128 61.587895 
L 25.579703 61.576441 
z
" clip-path="url(#p17f751fccb)" style="fill: #ffeadb; stroke: #000000; stroke-width: 0.5"/>
    <path d="M 168.096142 103.302659 
L 169.077898 101.761307 
L 170.015472 101.699123 
L 173.333804 103.917887 
L 173.885224 107.237863 
L 175.518209 108.836486 
L 177.118468 111.965004 
L 179.376505 114.952814 
L 182.419945 116.8476 
L 183.656956 119.068001 
L 185.865905 121.114969 
L 186.841114 124.035679 
L 183.24462 123.485907 
L 179.091797 124.799822 
L 177.556987 123.317372 
L 181.845619 121.285135 
L 182.030517 118.881476 
L 179.19488 117.413746 
L 174.855524 109.240635 
L 172.487859 108.584502 
L 172.271874 106.195568 
z
" clip-path="url(#p17f751fccb)" style="fill: #ffeadb; stroke: #000000; stroke-width: 0.5"/>
    <path d="M 156.812506 146.076074 
L 158.185328 145.377399 
L 157.041582 143.184807 
L 158.710566 142.482857 
L 160.02939 143.734595 
L 162.004353 144.130567 
L 161.454571 144.677081 
L 164.085673 147.255819 
L 166.422251 148.407752 
L 167.052211 149.657855 
L 168.564113 150.655969 
L 171.938076 151.866795 
L 171.362113 152.432938 
L 168.642652 151.29083 
L 166.600603 151.146848 
L 165.838106 150.783594 
L 166.171902 149.944188 
L 163.967864 148.451932 
L 163.400081 148.820079 
L 160.500632 146.421328 
z
" clip-path="url(#p17f751fccb)" style="fill: #ffeadb; stroke: #000000; stroke-width: 0.5"/>
    <path d="M 272.270147 195.232546 
L 273.649512 191.801311 
L 274.680355 192.848519 
L 277.34091 192.625984 
L 280.403986 194.290062 
L 281.361196 194.321146 
L 280.811414 193.447389 
L 286.16525 194.848026 
L 287.659154 196.076855 
L 288.797989 196.219209 
L 289.153057 196.958796 
L 287.814598 198.689956 
L 283.064541 195.713604 
L 280.673968 195.968859 
L 279.414049 195.394531 
L 275.98118 196.518644 
L 273.350077 195.669424 
z
" clip-path="url(#p17f751fccb)" style="fill: #ffeadb; stroke: #000000; stroke-width: 0.5"/>
    <path d="M 224.57977 177.199348 
L 226.250389 176.37467 
L 229.544177 177.474237 
L 230.668287 178.325094 
L 230.943177 179.671727 
L 231.740035 179.671727 
L 232.014926 180.246052 
L 235.086183 180.792566 
L 234.786747 180.246052 
L 238.080534 181.319437 
L 235.086182 183.839277 
L 234.547854 182.602269 
L 232.764333 183.024423 
L 229.794524 182.307737 
L 228.722775 181.319437 
L 227.541397 182.405918 
L 227.197783 180.792566 
z
" clip-path="url(#p17f751fccb)" style="fill: #ffeadb; stroke: #000000; stroke-width: 0.5"/>
    <path d="M 200.867119 143.580791 
L 200.988201 142.147424 
L 202.539374 141.658185 
L 206.065511 141.12804 
L 207.479238 141.93308 
L 206.816552 143.071909 
L 205.559906 143.328802 
L 205.810254 143.886769 
L 203.635667 143.031002 
z
" clip-path="url(#p17f751fccb)" style="fill: #ffeadb; stroke: #000000; stroke-width: 0.5"/>
    <path d="M 165.399589 194.769483 
L 165.563215 194.661492 
L 165.802109 195.085281 
L 165.880649 195.338899 
L 166.034457 195.57616 
L 166.243899 196.078492 
L 166.12936 196.302657 
L 165.821743 195.954132 
L 165.538671 195.348721 
z
" clip-path="url(#p17f751fccb)" style="fill: #ffeadb; stroke: #000000; stroke-width: 0.5"/>
    <path d="M 95.500282 88.883953 
L 96.89601 87.4555 
L 99.756189 86.547376 
L 104.422797 86.272485 
L 107.485872 87.3066 
L 102.83399 89.580999 
L 100.577591 89.044306 
L 98.794069 89.990064 
L 96.159694 89.566272 
z
" clip-path="url(#p17f751fccb)" style="fill: #ffeadb; stroke: #000000; stroke-width: 0.5"/>
    <path d="M 78.952805 121.965822 
L 80.271629 122.070543 
L 83.913939 119.743784 
L 85.97726 119.617787 
L 85.586193 120.22647 
L 83.756859 120.417923 
L 82.6802 122.365061 
L 80.111275 123.652798 
L 79.126248 123.438451 
z
" clip-path="url(#p17f751fccb)" style="fill: #ffeadb; stroke: #000000; stroke-width: 0.5"/>
    <path d="M 216.290487 131.722827 
L 217.434231 129.41079 
L 217.432596 125.817575 
L 220.040791 124.066776 
L 221.557601 126.50807 
L 219.612091 130.651076 
L 219.886982 128.978824 
L 218.936316 131.447931 
z
" clip-path="url(#p17f751fccb)" style="fill: #ffeadb; stroke: #000000; stroke-width: 0.5"/>
    <path d="M 193.548137 136.65124 
L 193.803393 136.070364 
L 194.135553 136.011456 
L 194.254999 136.194715 
L 194.266454 136.633239 
L 194.068466 137.147016 
L 193.798485 137.28938 
z
" clip-path="url(#p17f751fccb)" style="fill: #ffeadb; stroke: #000000; stroke-width: 0.5"/>
    <path d="M 85.746548 116.697066 
L 89.172872 114.907001 
L 90.652049 115.669495 
L 90.334616 116.245464 
L 88.436555 115.793849 
L 87.224089 116.721615 
L 86.453411 117.204303 
z
" clip-path="url(#p17f751fccb)" style="fill: #ffeadb; stroke: #000000; stroke-width: 0.5"/>
    <path d="M 275.880065 230.113716 
L 279.286421 227.893892 
L 282.547168 230.191945 
L 281.622651 231.454553 
L 278.962858 232.328949 
L 276.812541 233.406819 
z
" clip-path="url(#p17f751fccb)" style="fill: #ffeadb; stroke: #000000; stroke-width: 0.5"/>
    <path d="M 168.371034 202.055741 
L 169.043536 202.247185 
L 168.914272 201.240886 
L 169.483689 202.134278 
L 169.779852 202.924596 
L 168.989539 203.242025 
z
" clip-path="url(#p17f751fccb)" style="fill: #ffeadb; stroke: #000000; stroke-width: 0.5"/>
    <path d="M 168.223771 200.735281 
L 168.285948 199.694618 
L 168.459391 199.766614 
L 168.567384 200.440752 
L 168.523206 200.789276 
L 168.374306 200.83673 
z
" clip-path="url(#p17f751fccb)" style="fill: #ffeadb; stroke: #000000; stroke-width: 0.5"/>
    <path d="M 82.179505 25.197519 
L 83.609594 24.829358 
L 83.331431 25.557495 
L 83.76013 25.271147 
L 84.532444 24.878447 
L 83.174349 26.755232 
z
" clip-path="url(#p17f751fccb)" style="fill: #ffeadb; stroke: #000000; stroke-width: 0.5"/>
    <path d="M 77.202008 119.864863 
L 80.608696 118.768564 
L 81.034124 119.318351 
L 80.189816 119.676696 
L 80.461433 120.717348 
L 78.265575 120.717348 
z
" clip-path="url(#p17f751fccb)" style="fill: #ffeadb; stroke: #000000; stroke-width: 0.5"/>
    <path d="M 246.093291 165.892806 
L 251.371859 165.946796 
L 252.157262 166.467123 
L 246.881967 167.100358 
z
" clip-path="url(#p17f751fccb)" style="fill: #ffeadb; stroke: #000000; stroke-width: 0.5"/>
    <path d="M 223.22822 188.507522 
L 223.584924 186.781266 
L 227.322138 183.264953 
L 225.964045 186.053141 
z
" clip-path="url(#p17f751fccb)" style="fill: #ffeadb; stroke: #000000; stroke-width: 0.5"/>
    <path d="M 172.239147 151.591902 
L 175.318585 152.138414 
L 177.455539 153.787768 
L 172.892014 152.555657 
z
" clip-path="url(#p17f751fccb)" style="fill: #ffeadb; stroke: #000000; stroke-width: 0.5"/>
    <path d="M 126.443558 107.772916 
L 127.170056 108.195068 
L 127.240415 108.980473 
L 126.567914 109.005022 
z
" clip-path="url(#p17f751fccb)" style="fill: #ffeadb; stroke: #000000; stroke-width: 0.5"/>
    <path d="M 106.906636 30.698615 
L 108.272912 30.18974 
L 108.402177 31.623103 
L 107.858939 31.811274 
z
" clip-path="url(#p17f751fccb)" style="fill: #ffeadb; stroke: #000000; stroke-width: 0.5"/>
    <path d="M 82.6802 57.893226 
L 83.581778 58.38574 
L 85.152586 61.188649 
L 82.688381 58.719535 
z
" clip-path="url(#p17f751fccb)" style="fill: #ffeadb; stroke: #000000; stroke-width: 0.5"/>
    <path d="M 82.559117 116.692161 
L 83.141625 115.908392 
L 84.60444 115.798766 
L 83.218529 117.007956 
z
" clip-path="url(#p17f751fccb)" style="fill: #ffeadb; stroke: #000000; stroke-width: 0.5"/>
    <path d="M 256.472664 185.681631 
L 258.791622 185.713525 
L 260.096513 186.649174 
z
" clip-path="url(#p17f751fccb)" style="fill: #ffeadb; stroke: #000000; stroke-width: 0.5"/>
    <path d="M 253.792703 187.188197 
L 254.087098 186.102794 
L 255.067587 186.072894 
z
" clip-path="url(#p17f751fccb)" style="fill: #ffeadb; stroke: #000000; stroke-width: 0.5"/>
    <path d="M 142.163088 125.135247 
L 143.156297 125.778299 
L 145.231073 130.899793 
z
" clip-path="url(#p17f751fccb)" style="fill: #ffeadb; stroke: #000000; stroke-width: 0.5"/>
    <path d="M 136.39528 117.970082 
L 139.689067 121.265503 
L 138.4766 121.05606 
z
" clip-path="url(#p17f751fccb)" style="fill: #ffeadb; stroke: #000000; stroke-width: 0.5"/>
    <path d="M 126.643183 67.851311 
L 127.336395 67.473194 
L 128.313194 67.725272 
z
" clip-path="url(#p17f751fccb)" style="fill: #ffeadb; stroke: #000000; stroke-width: 0.5"/>
    <path d="M 123.24014 69.269244 
L 124.973171 68.260936 
L 125.760912 68.355465 
z
" clip-path="url(#p17f751fccb)" style="fill: #ffeadb; stroke: #000000; stroke-width: 0.5"/>
    <path d="M 94.78851 35.854468 
L 96.460765 37.101293 
L 95.063401 38.624652 
z
" clip-path="url(#p17f751fccb)" style="fill: #ffeadb; stroke: #000000; stroke-width: 0.5"/>
    <path d="M 81.632995 73.192239 
L 84.444086 72.169578 
L 83.346157 73.239689 
z
" clip-path="url(#p17f751fccb)" style="fill: #ffeadb; stroke: #000000; stroke-width: 0.5"/>
    <path d="M 13.769193 146.959663 
L 15.016022 148.083773 
L 15.436539 148.604094 
z
" clip-path="url(#p17f751fccb)" style="fill: #ffeadb; stroke: #000000; stroke-width: 0.5"/>
   </g>
  </g>
 </g>
 <defs>
  <clipPath id="p17f751fccb">
   <rect x="0" y="-0" width="302.92225" height="266.112"/>
  </clipPath>
 </defs>
</svg>
