<?xml version="1.0" encoding="utf-8" standalone="no"?>
<!DOCTYPE svg PUBLIC "-//W3C//DTD SVG 1.1//EN"
  "http://www.w3.org/Graphics/SVG/1.1/DTD/svg11.dtd">
<svg xmlns:xlink="http://www.w3.org/1999/xlink" width="255.129944pt" height="266.112pt" viewBox="0 0 255.129944 266.112" xmlns="http://www.w3.org/2000/svg" version="1.1">
 <metadata>
  <rdf:RDF xmlns:dc="http://purl.org/dc/elements/1.1/" xmlns:cc="http://creativecommons.org/ns#" xmlns:rdf="http://www.w3.org/1999/02/22-rdf-syntax-ns#">
   <cc:Work>
    <dc:type rdf:resource="http://purl.org/dc/dcmitype/StillImage"/>
    <dc:date>2025-06-04T13:24:54.550267</dc:date>
    <dc:format>image/svg+xml</dc:format>
    <dc:creator>
     <cc:Agent>
      <dc:title>Matplotlib v3.10.3, https://matplotlib.org/</dc:title>
     </cc:Agent>
    </dc:creator>
   </cc:Work>
  </rdf:RDF>
 </metadata>
 <defs>
  <style type="text/css">*{stroke-linejoin: round; stroke-linecap: butt}</style>
 </defs>
 <g id="figure_1">
  <g id="patch_1">
   <path d="M 0 266.112 
L 255.129944 266.112 
L 255.129944 0 
L 0 0 
L 0 266.112 
z
" style="fill: none"/>
  </g>
  <g id="axes_1">
   <g id="PatchCollection_1">
    <path d="M 11.596816 172.742712 
L 18.315942 166.57754 
L 22.267902 161.95005 
L 23.122844 159.17933 
L 22.413007 157.953787 
L 22.932639 155.016392 
L 24.197404 153.733981 
L 24.293487 152.820215 
L 23.487567 147.923907 
L 20.363891 141.547139 
L 18.924609 134.452689 
L 18.240263 133.117337 
L 16.653914 132.325133 
L 19.334432 130.240732 
L 20.242317 131.270188 
L 22.295354 130.813308 
L 23.567962 131.136845 
L 26.385741 132.844769 
L 27.475988 131.629029 
L 27.566188 130.026998 
L 30.240823 126.442512 
L 30.70555 124.018865 
L 31.345776 123.450211 
L 30.095718 121.532474 
L 30.183957 120.008873 
L 32.072281 117.15973 
L 32.523282 114.765494 
L 34.619459 114.203702 
L 36.492095 114.977268 
L 36.378196 114.531161 
L 34.266501 111.657508 
L 34.948886 108.56913 
L 31.829132 109.404459 
L 28.132881 108.279895 
L 24.981754 106.219023 
L 25.766104 104.735618 
L 26.146514 101.152114 
L 25.42099 98.609842 
L 27.474027 96.890153 
L 36.192081 96.696027 
L 38.922601 99.377524 
L 40.819748 99.288298 
L 40.927596 97.554885 
L 41.759007 97.420573 
L 43.763023 100.88642 
L 45.670955 101.568798 
L 47.882823 101.328594 
L 46.853363 98.907888 
L 47.245538 96.387184 
L 46.57884 91.842852 
L 42.523749 87.129895 
L 36.633278 85.879831 
L 36.252868 84.70919 
L 37.660777 77.738272 
L 41.637433 75.413656 
L 44.628817 74.746474 
L 41.776655 72.599797 
L 40.845239 71.2115 
L 39.676557 71.38798 
L 37.747056 70.630101 
L 39.984415 61.723803 
L 37.615677 61.888518 
L 35.394005 62.986611 
L 32.401708 62.522857 
L 29.558438 58.743268 
L 28.964293 56.601015 
L 30.387889 45.549525 
L 30.213371 44.737715 
L 29.344703 44.741636 
L 29.399607 43.254311 
L 28.444661 42.203288 
L 29.291759 41.560114 
L 29.903552 40.821855 
L 29.060376 40.234562 
L 30.23494 38.254082 
L 33.750791 36.406937 
L 35.466557 33.515626 
L 37.766664 33.554844 
L 41.196236 31.932219 
L 43.4885 29.100714 
L 44.014015 27.788888 
L 43.513991 27.14572 
L 45.117007 26.491768 
L 45.54742 25.865269 
L 45.090535 25.30838 
L 48.594621 22.948467 
L 49.957429 23.773995 
L 51.90752 23.828899 
L 53.445827 22.290592 
L 54.432148 22.355301 
L 55.330229 23.365152 
L 56.155758 26.981006 
L 58.891179 26.580008 
L 59.230411 30.092917 
L 65.2503 30.764517 
L 68.983807 31.797899 
L 71.481963 34.348018 
L 73.307538 34.004864 
L 74.560538 32.623427 
L 74.47622 31.654755 
L 73.129099 30.071347 
L 74.489947 26.576087 
L 78.227376 26.615303 
L 81.288303 25.507409 
L 84.390409 26.697661 
L 85.607148 25.78051 
L 86.384619 23.243578 
L 85.045341 22.522956 
L 84.496296 21.133675 
L 84.821801 16.597189 
L 85.572817 14.840245 
L 86.908173 14.883385 
L 88.251373 16.70896 
L 90.567167 18.045296 
L 94.041839 18.707092 
L 95.681131 18.066865 
L 95.816432 17.180549 
L 94.426171 15.805976 
L 94.761481 13.628425 
L 97.998887 13.425472 
L 101.25198 12.096 
L 101.606898 14.708866 
L 103.206973 15.77166 
L 101.908873 16.971717 
L 102.185357 18.404136 
L 101.050009 20.155198 
L 103.744253 21.025827 
L 103.361882 22.633745 
L 104.112897 23.71713 
L 103.422669 25.591727 
L 103.985441 26.04567 
L 103.059907 27.065325 
L 103.142264 27.868304 
L 102.301048 27.668294 
L 101.832399 28.181063 
L 101.85789 30.102722 
L 102.434388 29.985069 
L 104.101132 31.472393 
L 106.967933 32.480283 
L 110.360248 32.457733 
L 112.368185 28.934039 
L 114.136895 29.544852 
L 114.580053 29.216406 
L 114.419261 27.137877 
L 115.013406 25.811345 
L 118.315521 23.973023 
L 126.368838 22.437657 
L 129.080729 23.51712 
L 130.412164 24.752472 
L 130.91807 26.369214 
L 132.296566 26.760408 
L 133.635844 28.257537 
L 136.498722 28.181063 
L 137.653678 27.404556 
L 140.653818 27.522209 
L 142.518611 28.607553 
L 143.140209 28.065371 
L 144.361123 28.507131 
L 144.467722 31.768485 
L 145.706995 31.032177 
L 145.467768 32.910696 
L 146.483502 32.868536 
L 146.226627 33.552882 
L 147.412957 34.564694 
L 146.250158 35.482384 
L 147.283539 35.74122 
L 146.766849 35.977505 
L 147.075687 36.423604 
L 148.318882 35.977505 
L 150.301327 38.132508 
L 150.41996 39.340407 
L 149.616001 39.36884 
L 150.695463 41.431684 
L 150.197401 43.418045 
L 151.313139 44.44359 
L 152.779874 43.877877 
L 155.039784 44.616148 
L 155.832958 45.868159 
L 156.557502 45.637759 
L 157.413424 47.706483 
L 156.115324 47.942766 
L 156.633976 48.978114 
L 157.13694 48.831046 
L 157.638925 49.62814 
L 158.838981 49.029094 
L 161.011631 51.726275 
L 163.935297 50.015412 
L 164.910833 51.17821 
L 165.902055 51.18017 
L 166.399137 49.349701 
L 167.505071 49.335975 
L 167.27859 51.968452 
L 167.817831 52.7528 
L 171.33172 53.029279 
L 172.771003 55.487236 
L 173.004347 53.923441 
L 174.618881 54.499733 
L 176.597652 49.379112 
L 179.381116 48.581038 
L 181.153747 46.557411 
L 184.583319 47.392739 
L 185.528461 46.582901 
L 187.059905 46.463283 
L 187.460904 45.31029 
L 190.967687 43.68839 
L 193.553346 43.620015 
L 195.597559 42.267993 
L 197.993749 41.869936 
L 199.011443 42.23466 
L 199.693828 41.600321 
L 201.795887 42.76704 
L 210.033526 42.954303 
L 211.582618 43.950425 
L 212.765026 43.406281 
L 213.351328 45.6907 
L 214.257253 45.602465 
L 216.651482 42.864097 
L 217.114249 43.144508 
L 217.211312 45.529917 
L 219.604561 46.130924 
L 221.212479 49.761483 
L 221.875255 50.309548 
L 224.585186 50.129147 
L 225.180312 50.726232 
L 228.209865 57.013778 
L 231.994355 62.008135 
L 233.767967 62.737583 
L 236.593589 59.062895 
L 237.107339 59.70803 
L 237.230874 63.415059 
L 235.615112 65.804391 
L 237.709328 67.25249 
L 237.658345 67.973114 
L 236.001405 69.320235 
L 234.089551 72.17625 
L 233.344418 75.521509 
L 237.672071 77.042168 
L 238.548582 80.207995 
L 239.32705 80.832543 
L 240.146696 84.131713 
L 239.325089 85.607275 
L 239.860408 85.760225 
L 243.533129 107.612222 
L 241.568331 109.189744 
L 239.57412 109.297598 
L 239.14861 110.402542 
L 239.987865 112.882071 
L 239.578042 114.035066 
L 236.530841 115.183159 
L 233.481679 118.181342 
L 232.74537 117.704843 
L 232.344371 121.236388 
L 230.871754 122.373697 
L 230.941365 123.261966 
L 227.019613 131.597657 
L 225.162664 143.227608 
L 225.832303 145.341432 
L 223.755735 148.245489 
L 223.057663 150.79463 
L 221.135386 151.431051 
L 221.109526 151.447125 
L 215.629866 160.673521 
L 215.576922 162.045152 
L 216.816196 164.274668 
L 216.071063 166.35712 
L 214.892577 167.388537 
L 218.284586 181.972899 
L 219.5124 183.122606 
L 220.320281 185.240352 
L 221.470334 191.569079 
L 223.94594 196.96443 
L 223.671418 202.665676 
L 226.136239 202.455861 
L 225.752887 204.827543 
L 225.957799 205.80798 
L 226.8549 206.307022 
L 229.449138 205.224619 
L 232.152206 205.919749 
L 232.936556 206.809987 
L 233.84248 212.126901 
L 235.040576 215.229008 
L 234.568005 216.368276 
L 232.785568 216.227093 
L 232.536537 218.575241 
L 233.342457 220.297871 
L 233.193431 221.761665 
L 234.02092 222.563663 
L 233.114996 223.663714 
L 230.731512 223.7305 
L 230.637328 222.672862 
L 229.377427 222.507654 
L 226.823656 222.669774 
L 226.944088 224.198331 
L 225.644043 225.025913 
L 222.41709 223.44486 
L 219.520552 223.988347 
L 217.019277 221.091809 
L 218.246755 219.819556 
L 218.763994 217.722809 
L 219.946695 217.060434 
L 219.952871 215.743405 
L 219.258073 215.392918 
L 217.59982 215.931772 
L 216.432559 215.650765 
L 214.856138 216.453643 
L 215.430505 218.096455 
L 214.07642 218.757286 
L 213.818572 219.819556 
L 215.657472 220.59773 
L 214.335811 220.832418 
L 213.301333 222.174151 
L 212.631239 222.045999 
L 213.299789 223.480372 
L 214.335811 223.7305 
L 212.955478 224.837545 
L 204.357567 223.420324 
L 197.555655 222.228191 
L 197.425959 220.338339 
L 196.13209 222.174151 
L 187.346749 220.131444 
L 186.781646 219.276069 
L 188.285499 219.430469 
L 189.39872 218.500983 
L 190.539734 219.561709 
L 190.667886 218.500983 
L 195.37862 220.100564 
L 195.119228 219.276069 
L 197.143408 219.276069 
L 197.643663 218.676999 
L 196.003938 215.493277 
L 194.257678 215.122718 
L 193.911823 215.735684 
L 196.910264 218.500983 
L 196.570585 218.991974 
L 194.577285 219.041381 
L 191.913891 217.867944 
L 191.46922 216.994042 
L 190.953525 217.488121 
L 190.410038 216.169548 
L 189.854199 217.389305 
L 186.500639 217.488121 
L 187.462548 217.969848 
L 188.572682 217.722809 
L 189.111537 218.264752 
L 187.269549 219.177253 
L 184.544395 218.022344 
L 183.875844 218.468559 
L 182.094072 217.722809 
L 180.778587 218.255487 
L 179.245398 217.722809 
L 177.709121 218.615239 
L 177.150194 218.500983 
L 177.409586 217.722809 
L 176.436868 217.534441 
L 175.57223 218.00536 
L 174.658184 217.588481 
L 173.52489 219.041381 
L 171.965454 218.00536 
L 170.773488 218.70479 
L 170.671584 218.00536 
L 169.266547 218.071752 
L 168.577925 219.041381 
L 169.257283 218.911686 
L 169.638651 219.561709 
L 166.221786 219.276069 
L 165.468315 218.00536 
L 165.701459 219.276069 
L 163.627871 220.338339 
L 162.116299 219.933812 
L 160.780741 220.59773 
L 159.74472 219.819556 
L 161.534212 219.819556 
L 160.780741 219.041381 
L 161.301068 217.488121 
L 160.198655 218.82831 
L 158.424602 219.041381 
L 159.452904 219.816468 
L 156.354103 221.632208 
L 156.173455 222.540078 
L 158.484818 222.848878 
L 158.683994 221.8916 
L 160.113735 221.369728 
L 160.780741 221.8916 
L 163.773007 221.375905 
L 165.622715 221.91476 
L 166.502793 221.632208 
L 165.187308 221.116513 
L 166.739025 220.59773 
L 167.021576 221.116513 
L 171.190367 220.338339 
L 171.371015 220.903442 
L 172.224845 219.819556 
L 175.251079 220.108284 
L 179.879981 218.757286 
L 184.561379 218.636854 
L 185.747168 219.041381 
L 184.190819 219.276069 
L 187.016333 220.59773 
L 163.309808 222.530814 
L 152.983558 224.50713 
L 149.592941 224.223035 
L 150.08702 223.7305 
L 148.766903 223.295093 
L 148.53376 221.8916 
L 149.021663 221.314145 
L 146.47098 221.450016 
L 144.649064 222.433543 
L 142.919788 221.335761 
L 140.501889 221.375905 
L 140.028979 220.924449 
L 139.308379 221.264737 
L 136.709833 220.653314 
L 136.617193 221.632208 
L 136.073706 221.375905 
L 136.597515 222.147733 
L 136.617193 222.174151 
L 136.88276 222.021295 
L 137.089656 221.959535 
L 137.626967 221.8916 
L 137.626967 222.174151 
L 137.336695 222.496846 
L 136.447353 222.935341 
L 136.073706 223.185469 
L 136.073706 222.433543 
L 135.533307 224.006875 
L 135.273916 224.50713 
L 134.001663 222.669774 
L 133.717567 222.669774 
L 133.702127 222.787118 
L 133.717567 223.185469 
L 133.203416 222.926077 
L 133.770063 224.000699 
L 135.3295 224.701674 
L 137.19156 224.905481 
L 138.687693 224.50713 
L 138.077814 224.047019 
L 137.437055 224.059371 
L 136.762329 224.165907 
L 136.073706 223.988347 
L 136.073706 223.7305 
L 136.459705 223.75366 
L 136.770049 223.704252 
L 137.049512 223.59926 
L 137.344415 223.44486 
L 137.546679 223.281197 
L 138.025318 222.78403 
L 138.16891 222.669774 
L 138.735556 222.796382 
L 139.362419 223.111357 
L 139.975386 223.2673 
L 140.501889 222.926077 
L 140.966632 223.210172 
L 141.429831 223.312076 
L 141.817374 223.156133 
L 142.055149 222.669774 
L 141.360351 222.771678 
L 141.05464 222.465966 
L 140.798336 222.064527 
L 140.242497 221.8916 
L 140.242497 221.632208 
L 140.76128 221.8916 
L 142.027357 221.710952 
L 144.327913 223.052685 
L 145.306806 222.796382 
L 145.839485 222.377959 
L 146.33974 222.294583 
L 147.650593 222.433543 
L 147.804993 222.720726 
L 148.021153 223.373836 
L 148.345392 224.073267 
L 148.817855 224.50713 
L 139.220371 224.795857 
L 137.742767 225.365592 
L 132.657527 225.63686 
L 130.101527 225.773207 
L 128.020219 225.025913 
L 126.961038 225.800999 
L 128.020219 226.060391 
L 124.99553 226.989877 
L 116.32709 228.337923 
L 95.323001 236.071664 
L 94.211324 237.20805 
L 88.810423 238.480299 
L 87.179963 239.839015 
L 76.694681 242.213679 
L 70.810509 246.88119 
L 66.437911 247.648555 
L 64.18522 248.615096 
L 63.334477 249.669643 
L 59.364862 251.545601 
L 56.372596 254.016 
L 52.503848 253.945196 
L 51.041794 252.643502 
L 51.606526 251.175781 
L 51.296707 239.886039 
L 51.028067 237.574165 
L 50.024869 236.318914 
L 50.043708 233.280829 
L 51.202585 232.365096 
L 52.167336 232.656292 
L 51.330042 230.32285 
L 51.171211 226.65405 
L 52.269302 225.681455 
L 53.445827 225.904995 
L 54.467444 224.050987 
L 54.969428 219.362534 
L 56.326354 218.378174 
L 56.759707 219.66941 
L 57.128352 219.505677 
L 58.230364 217.354597 
L 57.957803 215.483921 
L 56.714607 215.185868 
L 55.945944 213.346567 
L 57.467629 209.906977 
L 57.083252 209.538545 
L 58.083299 209.506191 
L 57.389149 208.125735 
L 57.647984 207.668851 
L 58.4441 207.799248 
L 57.159864 205.568327 
L 55.963592 201.59896 
L 56.075362 197.288955 
L 54.859619 196.760499 
L 54.259591 198.797849 
L 52.867369 197.437982 
L 52.992865 196.799714 
L 51.802613 197.520337 
L 50.737858 196.498721 
L 50.853549 195.856535 
L 47.198477 193.684865 
L 45.806255 195.209447 
L 43.170838 193.030911 
L 42.63748 192.136753 
L 43.176721 190.490598 
L 42.296287 188.741497 
L 41.58645 188.380695 
L 40.731509 188.87974 
L 40.317764 188.351283 
L 40.894261 183.950098 
L 38.323553 181.13232 
L 33.821382 179.99305 
L 28.601531 181.046041 
L 23.877781 179.552831 
L 23.587571 178.517492 
L 22.842438 178.67632 
L 21.6816 177.742947 
L 19.448162 178.541022 
L 18.997161 178.087077 
L 19.669741 177.318413 
L 19.17364 175.975213 
L 19.703076 174.886928 
L 19.203053 174.322195 
L 17.334338 172.961348 
L 16.206835 175.075173 
L 13.95771 172.963309 
z
" clip-path="url(#p7888c4befa)" style="fill: #ffeadb; stroke: #000000; stroke-width: 0.5"/>
    <path d="M 214.314195 224.907025 
L 215.916864 223.185469 
L 220.425334 225.297656 
L 220.26167 225.922975 
z
" clip-path="url(#p7888c4befa)" style="fill: #ffeadb; stroke: #000000; stroke-width: 0.5"/>
   </g>
  </g>
 </g>
 <defs>
  <clipPath id="p7888c4befa">
   <rect x="0" y="-0" width="255.129944" height="266.112"/>
  </clipPath>
 </defs>
</svg>
