<?xml version="1.0" encoding="utf-8" standalone="no"?>
<!DOCTYPE svg PUBLIC "-//W3C//DTD SVG 1.1//EN"
  "http://www.w3.org/Graphics/SVG/1.1/DTD/svg11.dtd">
<svg xmlns:xlink="http://www.w3.org/1999/xlink" width="299.610201pt" height="266.112pt" viewBox="0 0 299.610201 266.112" xmlns="http://www.w3.org/2000/svg" version="1.1">
 <metadata>
  <rdf:RDF xmlns:dc="http://purl.org/dc/elements/1.1/" xmlns:cc="http://creativecommons.org/ns#" xmlns:rdf="http://www.w3.org/1999/02/22-rdf-syntax-ns#">
   <cc:Work>
    <dc:type rdf:resource="http://purl.org/dc/dcmitype/StillImage"/>
    <dc:date>2025-06-04T13:25:01.777020</dc:date>
    <dc:format>image/svg+xml</dc:format>
    <dc:creator>
     <cc:Agent>
      <dc:title>Matplotlib v3.10.3, https://matplotlib.org/</dc:title>
     </cc:Agent>
    </dc:creator>
   </cc:Work>
  </rdf:RDF>
 </metadata>
 <defs>
  <style type="text/css">*{stroke-linejoin: round; stroke-linecap: butt}</style>
 </defs>
 <g id="figure_1">
  <g id="patch_1">
   <path d="M 0 266.112 
L 299.610201 266.112 
L 299.610201 0 
L 0 0 
L 0 266.112 
z
" style="fill: none"/>
  </g>
  <g id="axes_1">
   <g id="PatchCollection_1">
    <path d="M 172.140798 225.521428 
L 174.214328 221.316772 
L 172.831975 216.548477 
L 174.411807 215.589881 
L 176.287857 210.587079 
L 172.831975 204.687395 
L 175.596681 203.366752 
L 173.461439 202.679691 
L 176.287857 200.548562 
L 177.666096 202.679691 
L 179.558603 201.544187 
L 181.175463 202.498667 
L 180.422574 205.440282 
L 186.704875 210.208578 
L 185.943757 210.965581 
L 192.462866 216.982598 
L 200.57366 221.316772 
L 203.275685 227.717768 
L 207.477197 233.112027 
L 204.609441 236.849632 
L 202.3304 242.414104 
L 197.751356 243.533158 
L 183.878456 240.710856 
L 179.978246 237.382519 
L 178.398414 232.322111 
L 174.214328 230.351436 
z
" clip-path="url(#p7fdc85022b)" style="fill: #ffeadb; stroke: #000000; stroke-width: 0.5"/>
    <path d="M 107.626877 68.42688 
L 108.441479 66.118851 
L 113.191 64.619999 
L 116.735596 64.798201 
L 121.561489 68.18826 
L 128.238748 67.402458 
L 133.731133 69.475997 
L 142.070506 70.146597 
L 147.850881 72.738507 
L 146.711263 76.474156 
L 139.569106 76.535865 
L 127.580485 72.203673 
L 123.635019 73.709452 
L 118.340113 84.282798 
L 113.666443 73.717668 
L 109.889658 72.401149 
z
" clip-path="url(#p7fdc85022b)" style="fill: #ffeadb; stroke: #000000; stroke-width: 0.5"/>
    <path d="M 13.618646 26.388543 
L 16.601401 22.18389 
L 21.772883 21.122441 
L 25.25345 18.152017 
L 39.685873 12.096 
L 46.062799 13.527719 
L 47.445153 17.320971 
L 52.591949 20.398349 
L 51.407201 24.000202 
L 48.531287 27.005665 
L 38.344662 32.230624 
L 31.066738 39.237024 
L 19.859805 40.32727 
L 18.374598 38.196139 
L 18.325228 31.473619 
z
" clip-path="url(#p7fdc85022b)" style="fill: #ffeadb; stroke: #000000; stroke-width: 0.5"/>
    <path d="M 256.550728 129.966276 
L 256.550728 124.083051 
L 261.01869 120.388545 
L 260.812983 108.416379 
L 267.189909 112.193166 
L 269.526744 112.456475 
L 273.126622 109.691769 
L 280.198838 111.584275 
L 284.382925 116.031663 
L 284.419952 121.598103 
L 285.991556 123.836199 
L 284.654458 126.691418 
L 271.880035 134.508294 
L 265.029983 134.714001 
z
" clip-path="url(#p7fdc85022b)" style="fill: #ffeadb; stroke: #000000; stroke-width: 0.5"/>
    <path d="M 253.210042 50.612629 
L 260.121807 46.099412 
L 262.886513 49.234401 
L 261.401306 51.855106 
L 261.919688 58.684583 
L 264.277094 63.045586 
L 262.886513 71.010572 
L 259.438859 73.084097 
L 258.204615 65.402991 
L 256.674153 62.362638 
L 254.543025 63.415856 
L 254.123382 61.951223 
L 255.230087 56.454713 
L 253.366379 55.134078 
z
" clip-path="url(#p7fdc85022b)" style="fill: #ffeadb; stroke: #000000; stroke-width: 0.5"/>
    <path d="M 226.17599 216.548477 
L 226.867166 211.656757 
L 228.936581 209.525629 
L 226.867166 208.266702 
L 230.323049 201.922689 
L 233.08364 200.548562 
L 233.08364 201.922689 
L 234.457765 200.548562 
L 235.905944 202.589179 
L 239.357713 202.679691 
L 240.96223 216.807667 
L 235.210654 222.073774 
L 232.466518 221.85161 
z
" clip-path="url(#p7fdc85022b)" style="fill: #ffeadb; stroke: #000000; stroke-width: 0.5"/>
    <path d="M 40.541616 49.551179 
L 42.154361 45.618056 
L 49.45697 43.330593 
L 48.827505 41.956466 
L 52.275159 39.759509 
L 53.579344 41.183013 
L 56.356392 39.759509 
L 58.174845 42.58182 
L 62.568752 47.156746 
L 61.071203 50.785424 
L 51.271308 53.698241 
L 44.17852 51.221519 
L 41.858143 48.92584 
z
" clip-path="url(#p7fdc85022b)" style="fill: #ffeadb; stroke: #000000; stroke-width: 0.5"/>
    <path d="M 98.530501 239.727583 
L 101.735421 235.148541 
L 107.724184 231.663368 
L 112.185351 229.791912 
L 116.464063 230.075788 
L 120.687938 238.75813 
L 121.018423 244.763298 
L 120.882656 248.042273 
L 113.098692 252.798224 
L 105.76317 250.564246 
L 99.949881 245.824729 
z
" clip-path="url(#p7fdc85022b)" style="fill: #ffeadb; stroke: #000000; stroke-width: 0.5"/>
    <path d="M 74.433949 247.67609 
L 75.808073 247.67609 
L 75.39666 245.771267 
L 79.955133 244.220235 
L 82.08626 250.119905 
L 78.57278 254.016 
L 75.182724 250.49429 
L 74.433949 251.193699 
z
" clip-path="url(#p7fdc85022b)" style="fill: #ffeadb; stroke: #000000; stroke-width: 0.5"/>
    <path d="M 71.499151 54.746812 
L 72.961921 51.967543 
L 75.448632 52.845217 
L 77.789066 56.502145 
L 82.031101 56.648422 
L 81.884824 57.964911 
L 76.326295 58.84257 
z
" clip-path="url(#p7fdc85022b)" style="fill: #ffeadb; stroke: #000000; stroke-width: 0.5"/>
    <path d="M 90.368895 71.422398 
L 91.246558 69.959632 
L 93.586991 70.398462 
L 93.001882 71.861227 
z
" clip-path="url(#p7fdc85022b)" style="fill: #ffeadb; stroke: #000000; stroke-width: 0.5"/>
   </g>
  </g>
 </g>
 <defs>
  <clipPath id="p7fdc85022b">
   <rect x="0" y="-0" width="299.610201" height="266.112"/>
  </clipPath>
 </defs>
</svg>
