<?xml version="1.0" encoding="utf-8" standalone="no"?>
<!DOCTYPE svg PUBLIC "-//W3C//DTD SVG 1.1//EN"
  "http://www.w3.org/Graphics/SVG/1.1/DTD/svg11.dtd">
<svg xmlns:xlink="http://www.w3.org/1999/xlink" width="249.875795pt" height="266.112pt" viewBox="0 0 249.875795 266.112" xmlns="http://www.w3.org/2000/svg" version="1.1">
 <metadata>
  <rdf:RDF xmlns:dc="http://purl.org/dc/elements/1.1/" xmlns:cc="http://creativecommons.org/ns#" xmlns:rdf="http://www.w3.org/1999/02/22-rdf-syntax-ns#">
   <cc:Work>
    <dc:type rdf:resource="http://purl.org/dc/dcmitype/StillImage"/>
    <dc:date>2025-06-04T13:24:47.647342</dc:date>
    <dc:format>image/svg+xml</dc:format>
    <dc:creator>
     <cc:Agent>
      <dc:title>Matplotlib v3.10.3, https://matplotlib.org/</dc:title>
     </cc:Agent>
    </dc:creator>
   </cc:Work>
  </rdf:RDF>
 </metadata>
 <defs>
  <style type="text/css">*{stroke-linejoin: round; stroke-linecap: butt}</style>
 </defs>
 <g id="figure_1">
  <g id="patch_1">
   <path d="M 0 266.112 
L 249.875795 266.112 
L 249.875795 0 
L 0 0 
L 0 266.112 
z
" style="fill: none"/>
  </g>
  <g id="axes_1">
   <g id="PatchCollection_1">
    <defs>
     <path id="m661565d52e" d="M 11.357991 -94.835672 
L 19.401345 -121.813264 
L 35.333373 -132.725213 
L 42.048224 -141.497095 
L 97.120958 -221.089631 
L 104.123737 -228.493147 
L 110.2125 -227.951778 
L 116.455943 -225.216774 
L 137.773644 -206.683297 
L 140.213776 -209.418566 
L 153.283818 -216.090645 
L 152.327615 -228.071317 
L 163.703617 -242.892452 
L 167.992469 -241.563608 
L 197.561404 -254.016 
L 220.082443 -225.255748 
L 224.1349 -222.692501 
L 226.36043 -224.198334 
L 231.597623 -199.451763 
L 237.521298 -190.593939 
L 238.517805 -170.115739 
L 232.859864 -158.356961 
L 220.779997 -153.269258 
L 209.652345 -151.962712 
L 193.250599 -135.773481 
L 187.197742 -130.28872 
L 179.757163 -129.95655 
L 173.74491 -126.92827 
L 167.466922 -127.847281 
L 154.800223 -123.412822 
L 148.090415 -117.965258 
L 137.660318 -99.695966 
L 130.895149 -97.708505 
L 117.176582 -100.891782 
L 115.560028 -98.815724 
L 117.342666 -99.225393 
L 117.94057 -96.130692 
L 118.793136 -90.079691 
L 127.639896 -85.28539 
L 133.22033 -88.070076 
L 138.236077 -87.566272 
L 139.033282 -89.293564 
L 136.010547 -91.790368 
L 139.930138 -95.925868 
L 158.299066 -100.144405 
L 161.930777 -102.702112 
L 168.039916 -101.107643 
L 192.678526 -101.855081 
L 195.612682 -100.144405 
L 202.211767 -104.877802 
L 205.101634 -95.339026 
L 214.302707 -88.020249 
L 207.238857 -77.122628 
L 171.170437 -21.478745 
L 169.047104 -22.213472 
L 164.308275 -18.683964 
L 150.49958 -21.162353 
L 144.762362 -30.488854 
L 128.235103 -33.764703 
L 110.760911 -29.687328 
L 98.794313 -22.445498 
L 91.552481 -23.75324 
L 75.648577 -19.513612 
L 58.591604 -20.318643 
L 50.716991 -14.901338 
L 36.992667 -12.096 
L 13.727133 -20.21056 
L 16.321809 -30.812267 
L 16.645231 -56.981298 
z
" style="stroke: #000000; stroke-width: 0.5"/>
    </defs>
    <g clip-path="url(#p16190c5943)">
     <use xlink:href="#m661565d52e" x="0" y="266.112" style="fill: #ffeadb; stroke: #000000; stroke-width: 0.5"/>
    </g>
   </g>
  </g>
 </g>
 <defs>
  <clipPath id="p16190c5943">
   <rect x="0" y="-0" width="249.875795" height="266.112"/>
  </clipPath>
 </defs>
</svg>
