<?xml version="1.0" encoding="utf-8" standalone="no"?>
<!DOCTYPE svg PUBLIC "-//W3C//DTD SVG 1.1//EN"
  "http://www.w3.org/Graphics/SVG/1.1/DTD/svg11.dtd">
<svg xmlns:xlink="http://www.w3.org/1999/xlink" width="325.078788pt" height="266.112pt" viewBox="0 0 325.078788 266.112" xmlns="http://www.w3.org/2000/svg" version="1.1">
 <metadata>
  <rdf:RDF xmlns:dc="http://purl.org/dc/elements/1.1/" xmlns:cc="http://creativecommons.org/ns#" xmlns:rdf="http://www.w3.org/1999/02/22-rdf-syntax-ns#">
   <cc:Work>
    <dc:type rdf:resource="http://purl.org/dc/dcmitype/StillImage"/>
    <dc:date>2025-06-04T13:25:12.390858</dc:date>
    <dc:format>image/svg+xml</dc:format>
    <dc:creator>
     <cc:Agent>
      <dc:title>Matplotlib v3.10.3, https://matplotlib.org/</dc:title>
     </cc:Agent>
    </dc:creator>
   </cc:Work>
  </rdf:RDF>
 </metadata>
 <defs>
  <style type="text/css">*{stroke-linejoin: round; stroke-linecap: butt}</style>
 </defs>
 <g id="figure_1">
  <g id="patch_1">
   <path d="M 0 266.112 
L 325.078788 266.112 
L 325.078788 0 
L 0 0 
L 0 266.112 
z
" style="fill: none"/>
  </g>
  <g id="axes_1">
   <g id="PatchCollection_1">
    <defs>
     <path id="m49a1b13336" d="M 14.776309 -15.449815 
L 17.965907 -35.010956 
L 27.923637 -36.759451 
L 46.874008 -37.13661 
L 52.132459 -37.82202 
L 62.310283 -37.479315 
L 72.4872 -36.074036 
L 89.672363 -35.731331 
L 94.246309 -36.074036 
L 97.39866 -37.82202 
L 100.209212 -41.316171 
L 102.316219 -46.59366 
L 101.613581 -50.465878 
L 107.576484 -56.770575 
L 108.278215 -58.175855 
L 112.834935 -62.04807 
L 115.988193 -66.228538 
L 117.050762 -71.162415 
L 117.752494 -82.025654 
L 120.203113 -93.949643 
L 123.012758 -104.847332 
L 127.569479 -114.680634 
L 129.335593 -116.771327 
L 131.785306 -118.176597 
L 147.925125 -124.858458 
L 150.733864 -128.695313 
L 156.696766 -139.593002 
L 160.666869 -142.971082 
L 176.347962 -152.545114 
L 178.798582 -154.670253 
L 179.860245 -156.417323 
L 183.013503 -164.504462 
L 187.931061 -183.07677 
L 191.082506 -191.163903 
L 191.932903 -195.571908 
L 192.847714 -196.783194 
L 203.813398 -199.352583 
L 204.995643 -203.191251 
L 211.060995 -212.203151 
L 217.158985 -217.925797 
L 217.896982 -219.706417 
L 217.896982 -221.831556 
L 216.337579 -223.545085 
L 215.240557 -226.698344 
L 231.723083 -231.151709 
L 237.514632 -231.494413 
L 244.760416 -230.466296 
L 255.280945 -225.909575 
L 257.456856 -225.909575 
L 262.956471 -227.656649 
L 267.600228 -225.532417 
L 270.495096 -225.532417 
L 273.389964 -225.909575 
L 282.093608 -232.556982 
L 284.699261 -233.893353 
L 291.877954 -234.304965 
L 299.125551 -233.962257 
L 306.389467 -235.023921 
L 307.829194 -236.086491 
L 307.829194 -237.490864 
L 306.321469 -241.603333 
L 306.115665 -243.453765 
L 307.109331 -246.948822 
L 305.528169 -253.944378 
L 310.30248 -254.016 
L 310.30248 -240.82182 
L 310.117527 -195.718812 
L 193.35452 -195.539297 
L 193.213085 -106.627947 
L 192.743451 -106.065844 
L 189.169518 -105.16646 
L 181.474046 -101.767514 
L 172.156614 -99.955154 
L 158.267955 -91.083788 
L 154.596106 -86.365684 
L 152.995905 -81.774513 
L 155.528121 -72.749016 
L 157.676868 -40.694209 
L 158.267955 -31.974261 
L 113.342124 -31.967188 
L 19.892712 -31.954311 
L 15.731282 -16.924208 
L 16.452502 -12.096 
z
" style="stroke: #000000; stroke-width: 0.5"/>
    </defs>
    <g clip-path="url(#p8c3af2758a)">
     <use xlink:href="#m49a1b13336" x="0" y="266.112" style="fill: #ffeadb; stroke: #000000; stroke-width: 0.5"/>
    </g>
   </g>
  </g>
 </g>
 <defs>
  <clipPath id="p8c3af2758a">
   <rect x="0" y="-0" width="325.078788" height="266.112"/>
  </clipPath>
 </defs>
</svg>
