<?xml version="1.0" encoding="utf-8" standalone="no"?>
<!DOCTYPE svg PUBLIC "-//W3C//DTD SVG 1.1//EN"
  "http://www.w3.org/Graphics/SVG/1.1/DTD/svg11.dtd">
<svg xmlns:xlink="http://www.w3.org/1999/xlink" width="347.626852pt" height="266.112pt" viewBox="0 0 347.626852 266.112" xmlns="http://www.w3.org/2000/svg" version="1.1">
 <metadata>
  <rdf:RDF xmlns:dc="http://purl.org/dc/elements/1.1/" xmlns:cc="http://creativecommons.org/ns#" xmlns:rdf="http://www.w3.org/1999/02/22-rdf-syntax-ns#">
   <cc:Work>
    <dc:type rdf:resource="http://purl.org/dc/dcmitype/StillImage"/>
    <dc:date>2025-06-04T13:24:53.939896</dc:date>
    <dc:format>image/svg+xml</dc:format>
    <dc:creator>
     <cc:Agent>
      <dc:title>Matplotlib v3.10.3, https://matplotlib.org/</dc:title>
     </cc:Agent>
    </dc:creator>
   </cc:Work>
  </rdf:RDF>
 </metadata>
 <defs>
  <style type="text/css">*{stroke-linejoin: round; stroke-linecap: butt}</style>
 </defs>
 <g id="figure_1">
  <g id="patch_1">
   <path d="M -0 266.112 
L 347.626852 266.112 
L 347.626852 0 
L -0 0 
L -0 266.112 
z
" style="fill: none"/>
  </g>
  <g id="axes_1">
   <g id="PatchCollection_1">
    <defs>
     <path id="m61fb938bc5" d="M 15.801221 -107.228431 
L 16.175849 -107.793756 
L 16.672826 -108.895378 
L 18.49448 -111.169176 
L 19.490289 -111.441011 
L 19.919555 -111.947633 
L 19.59924 -113.305698 
L 20.407654 -114.321665 
L 19.481573 -115.145879 
L 19.686401 -116.205969 
L 19.429277 -116.594918 
L 19.686401 -117.500846 
L 20.294345 -117.704039 
L 20.974197 -118.579456 
L 23.634772 -118.129492 
L 24.283028 -118.499921 
L 26.147174 -118.621945 
L 26.236513 -118.966778 
L 27.657229 -118.393694 
L 29.096467 -118.686228 
L 30.68061 -116.834614 
L 31.868172 -116.748542 
L 33.391302 -117.817348 
L 35.659654 -117.999842 
L 36.483321 -118.36319 
L 39.00226 -120.706173 
L 39.3607 -121.655418 
L 38.85145 -134.380972 
L 38.590049 -139.640705 
L 38.509803 -141.255351 
L 39.170044 -144.387138 
L 41.778322 -151.688467 
L 43.497563 -153.533546 
L 43.462699 -154.519004 
L 43.970409 -155.853105 
L 42.922304 -161.443363 
L 42.992032 -163.062369 
L 45.95549 -167.601797 
L 48.860114 -169.646256 
L 49.476775 -169.677851 
L 52.926152 -166.824434 
L 53.224677 -165.481618 
L 53.935035 -166.523186 
L 54.778313 -166.512292 
L 55.264233 -167.744523 
L 57.142542 -169.464853 
L 57.188301 -170.503153 
L 56.360276 -171.231489 
L 57.848542 -176.152789 
L 57.21227 -176.990074 
L 57.068455 -178.018023 
L 59.724672 -183.796766 
L 59.75082 -184.606269 
L 59.158129 -185.898423 
L 59.19953 -188.486002 
L 60.03845 -189.894733 
L 61.314781 -190.591235 
L 62.727352 -191.125875 
L 63.363623 -191.827517 
L 63.419373 -192.417649 
L 64.873679 -193.806061 
L 65.640692 -196.384922 
L 66.88055 -197.494041 
L 67.222655 -198.934369 
L 71.188458 -205.432183 
L 72.149403 -205.822229 
L 72.604817 -207.138352 
L 72.969901 -207.335376 
L 79.897973 -208.426149 
L 81.6913 -208.102565 
L 82.286171 -210.859014 
L 81.678226 -212.995539 
L 82.425628 -213.972826 
L 82.153251 -215.073227 
L 84.190628 -222.013926 
L 87.321869 -226.428607 
L 87.666154 -228.642485 
L 88.541373 -230.753689 
L 88.925623 -231.680572 
L 88.376512 -234.838506 
L 90.363771 -241.028539 
L 90.771247 -241.020913 
L 91.191796 -241.648466 
L 95.037754 -242.473766 
L 99.230175 -241.897417 
L 100.252132 -241.040523 
L 101.618373 -241.309084 
L 102.267719 -242.097343 
L 102.411533 -243.473934 
L 102.901811 -244.344997 
L 104.233188 -244.950761 
L 106.542942 -245.116908 
L 108.575961 -243.023968 
L 108.735029 -241.834229 
L 109.892084 -240.966435 
L 110.371467 -239.680274 
L 111.238714 -239.279333 
L 111.423931 -238.188741 
L 112.023159 -237.696824 
L 119.144173 -254.016 
L 121.573772 -250.745301 
L 123.861736 -249.830659 
L 125.942693 -249.933074 
L 126.615571 -249.228886 
L 128.285132 -246.111085 
L 129.745071 -245.261817 
L 130.60796 -244.249664 
L 133.436318 -244.471379 
L 135.525991 -245.333721 
L 137.094881 -245.193176 
L 139.692264 -245.880654 
L 142.086999 -247.429385 
L 142.721092 -249.202562 
L 144.318308 -248.828317 
L 145.202988 -248.169164 
L 146.904796 -244.753014 
L 147.432118 -244.758461 
L 148.17734 -245.728126 
L 150.245223 -245.654037 
L 151.97318 -246.12198 
L 152.833891 -246.530547 
L 153.374286 -247.444099 
L 154.156551 -247.209311 
L 155.154539 -246.259801 
L 156.804052 -245.892638 
L 157.758552 -246.050431 
L 159.316454 -245.911159 
L 161.327683 -244.465932 
L 163.595541 -245.070512 
L 165.803375 -245.296679 
L 167.696937 -244.847257 
L 169.440147 -244.002347 
L 171.0558 -242.540576 
L 172.488586 -241.244262 
L 173.71537 -240.625419 
L 175.951038 -239.577315 
L 179.881977 -238.60057 
L 181.165416 -237.706636 
L 185.601886 -232.784243 
L 188.730948 -227.373757 
L 195.871573 -222.691598 
L 199.689203 -219.616466 
L 201.227587 -217.859092 
L 204.639921 -211.778561 
L 208.660199 -209.610443 
L 209.664724 -208.761172 
L 211.039682 -206.46177 
L 213.765627 -203.128969 
L 205.231575 -190.795337 
L 204.191044 -189.436049 
L 201.722223 -187.745138 
L 200.475827 -183.564699 
L 201.295136 -177.698799 
L 201.245019 -173.643655 
L 200.842949 -172.000818 
L 204.448168 -170.743389 
L 206.574884 -171.178103 
L 207.795131 -172.017567 
L 210.438274 -171.892819 
L 212.902737 -172.54979 
L 214.024929 -172.347143 
L 215.879269 -173.469335 
L 218.587064 -174.101163 
L 221.148122 -173.593539 
L 222.037159 -172.148308 
L 224.17695 -171.764257 
L 224.911277 -172.311189 
L 225.240308 -172.197336 
L 224.604036 -170.529301 
L 223.366357 -169.870151 
L 222.658178 -168.444531 
L 221.326801 -167.158369 
L 220.516208 -165.024026 
L 219.411449 -164.468922 
L 220.422511 -162.202204 
L 221.910776 -160.668179 
L 223.396863 -155.526798 
L 226.467092 -153.071595 
L 227.689519 -150.085261 
L 228.275673 -149.506185 
L 230.795701 -148.679794 
L 232.094393 -143.809703 
L 233.299387 -143.076465 
L 234.663449 -141.530454 
L 235.683227 -138.764199 
L 238.406993 -137.14192 
L 239.951913 -137.159351 
L 247.611143 -130.231728 
L 310.743682 -108.900825 
L 331.825632 -108.900825 
L 322.406041 -99.820201 
L 299.94343 -78.155674 
L 288.748727 -66.736928 
L 279.946288 -57.120331 
L 267.782265 -43.857295 
L 267.172142 -43.602347 
L 260.514507 -43.987141 
L 247.277754 -44.752868 
L 237.990802 -42.383191 
L 229.363 -38.295906 
L 225.848253 -35.341712 
L 225.050734 -32.93227 
L 224.111921 -31.559161 
L 222.416307 -30.661733 
L 212.033311 -28.893466 
L 207.934588 -28.685915 
L 204.151822 -26.127752 
L 204.025439 -25.07148 
L 203.341229 -24.160105 
L 202.306198 -23.574498 
L 199.436438 -24.575208 
L 198.237981 -23.996137 
L 197.043882 -24.306103 
L 193.73832 -23.562514 
L 188.118645 -23.431768 
L 186.159713 -24.575208 
L 184.806546 -26.467683 
L 182.525119 -27.716799 
L 181.435613 -29.172927 
L 179.701119 -30.64757 
L 178.371921 -29.774331 
L 171.667098 -27.199282 
L 171.30974 -26.640366 
L 167.123857 -25.387982 
L 167.023622 -25.04914 
L 160.403781 -21.842183 
L 158.627886 -18.014744 
L 154.638113 -14.054387 
L 153.823162 -12.096 
L 152.814279 -12.283397 
L 152.361045 -13.086905 
L 149.079451 -13.383797 
L 149.175328 -13.991199 
L 148.763444 -13.929759 
L 147.946365 -13.459519 
L 147.142309 -13.43882 
L 144.422487 -14.485185 
L 140.306746 -14.385058 
L 136.65472 -15.372149 
L 135.369103 -16.669751 
L 135.353849 -16.09013 
L 132.96783 -16.407721 
L 132.163775 -17.278237 
L 131.90883 -16.711695 
L 130.834577 -16.24212 
L 125.162607 -16.647962 
L 123.580643 -16.473639 
L 122.194791 -17.238472 
L 120.941859 -18.87273 
L 102.348342 -30.64648 
L 101.949583 -31.620499 
L 101.369965 -31.639026 
L 100.679218 -32.453429 
L 97.062057 -33.753209 
L 92.945981 -33.730914 
L 92.327062 -33.987997 
L 80.221574 -33.99523 
L 78.010948 -35.351517 
L 77.596935 -37.69777 
L 74.722817 -40.751655 
L 74.029891 -42.65284 
L 74.119231 -47.060986 
L 75.204379 -48.77369 
L 74.528885 -50.922197 
L 75.13683 -52.42844 
L 72.596101 -53.726586 
L 72.062243 -53.870401 
L 70.794057 -53.49779 
L 68.893958 -54.650488 
L 68.076828 -54.805198 
L 67.253161 -54.730567 
L 65.455476 -53.152417 
L 64.557722 -53.258099 
L 63.468216 -54.897806 
L 63.951957 -55.840774 
L 63.705728 -56.515723 
L 60.262888 -58.847267 
L 59.859771 -60.477169 
L 57.8529 -63.45479 
L 57.759202 -64.969203 
L 57.240597 -65.806489 
L 57.507322 -66.978162 
L 57.159974 -68.51827 
L 56.050856 -69.730346 
L 54.909054 -72.049906 
L 54.654109 -74.260513 
L 53.634331 -76.121935 
L 52.564436 -80.249531 
L 51.932522 -81.246975 
L 50.139194 -82.335391 
L 48.406879 -82.473212 
L 47.718311 -85.571224 
L 46.358607 -86.516917 
L 43.37336 -87.227274 
L 41.442754 -89.039124 
L 41.227032 -89.950633 
L 40.924149 -91.415337 
L 39.891297 -91.334715 
L 37.808161 -93.166175 
L 37.744969 -95.241685 
L 37.237259 -96.53275 
L 34.620265 -99.192233 
L 33.125462 -99.717375 
L 32.062104 -100.500729 
L 31.113144 -101.744947 
L 29.450557 -102.465113 
L 27.629992 -102.465113 
L 26.912007 -103.198351 
L 25.763667 -103.691894 
L 23.335157 -103.047996 
L 22.163938 -103.345432 
L 20.948049 -104.402254 
L 19.484842 -104.780316 
L 18.564209 -104.404433 
L 17.245906 -104.713854 
L 16.511579 -105.496117 
z
" style="stroke: #000000; stroke-width: 0.5"/>
    </defs>
    <g clip-path="url(#pc66214c172)">
     <use xlink:href="#m61fb938bc5" x="0" y="266.112" style="fill: #ffeadb; stroke: #000000; stroke-width: 0.5"/>
    </g>
   </g>
  </g>
 </g>
 <defs>
  <clipPath id="pc66214c172">
   <rect x="0" y="-0" width="347.626852" height="266.112"/>
  </clipPath>
 </defs>
</svg>
