<?xml version="1.0" encoding="utf-8" standalone="no"?>
<!DOCTYPE svg PUBLIC "-//W3C//DTD SVG 1.1//EN"
  "http://www.w3.org/Graphics/SVG/1.1/DTD/svg11.dtd">
<svg xmlns:xlink="http://www.w3.org/1999/xlink" width="357.12pt" height="261.960258pt" viewBox="0 0 357.12 261.960258" xmlns="http://www.w3.org/2000/svg" version="1.1">
 <metadata>
  <rdf:RDF xmlns:dc="http://purl.org/dc/elements/1.1/" xmlns:cc="http://creativecommons.org/ns#" xmlns:rdf="http://www.w3.org/1999/02/22-rdf-syntax-ns#">
   <cc:Work>
    <dc:type rdf:resource="http://purl.org/dc/dcmitype/StillImage"/>
    <dc:date>2025-06-04T13:24:43.438812</dc:date>
    <dc:format>image/svg+xml</dc:format>
    <dc:creator>
     <cc:Agent>
      <dc:title>Matplotlib v3.10.3, https://matplotlib.org/</dc:title>
     </cc:Agent>
    </dc:creator>
   </cc:Work>
  </rdf:RDF>
 </metadata>
 <defs>
  <style type="text/css">*{stroke-linejoin: round; stroke-linecap: butt}</style>
 </defs>
 <g id="figure_1">
  <g id="patch_1">
   <path d="M 0 261.960258 
L 357.12 261.960258 
L 357.12 0 
L 0 0 
L 0 261.960258 
z
" style="fill: none"/>
  </g>
  <g id="axes_1">
   <g id="PatchCollection_1">
    <path d="M 268.252305 52.350239 
L 269.295744 48.292414 
L 270.957517 46.843183 
L 271.875358 46.997778 
L 272.513014 47.809318 
L 273.411532 48.292414 
L 275.295519 47.973573 
L 275.672316 47.055726 
L 275.69164 45.722457 
L 276.512865 44.089656 
L 276.976617 42.051105 
L 276.29065 35.510255 
L 275.768931 33.548992 
L 272.870489 28.669946 
L 270.880224 24.293289 
L 272.107232 20.844144 
L 279.005525 18.815239 
L 277.237475 20.583289 
L 283.88457 29.916265 
L 292.000209 36.553701 
L 302.106112 41.297488 
L 314.830275 44.901234 
L 310.395658 48.543603 
L 302.975644 49.074967 
L 295.362401 47.519465 
L 290.357759 44.901234 
L 288.73463 46.669258 
L 297.555557 52.466154 
L 302.183405 54.35982 
L 306.714635 53.007191 
L 307.419923 57.161631 
L 308.250809 58.523894 
L 309.96089 59.654282 
L 309.960891 61.258094 
L 305.990026 62.581732 
L 301.159289 63.151765 
L 296.483134 62.572073 
L 292.869741 60.446519 
L 286.36757 53.973367 
L 282.6479 52.118328 
L 279.005525 53.007191 
L 284.097124 61.084212 
L 286.24197 63.625154 
L 287.150149 65.296605 
L 285.546343 65.354558 
L 283.29522 64.736232 
L 280.928159 63.741105 
L 280.280841 62.958536 
L 279.807429 62.089007 
L 279.005525 61.258094 
L 270.976839 55.973258 
z
" clip-path="url(#p3442ffe37c)" style="fill: #ffeadb; stroke: #000000; stroke-width: 0.5"/>
    <path d="M 149.222932 33.548992 
L 150.865381 30.26407 
L 158.594563 31.925875 
L 183.269969 26.61204 
L 195.887857 30.302749 
L 184.699869 37.684119 
L 191.182718 49.770606 
L 189.849435 39.71302 
L 213.384786 36.959476 
L 217.123777 40.03183 
L 210.785851 41.799902 
L 231.596668 44.389167 
L 220.505294 51.538662 
L 252.059671 55.277643 
L 262.841877 60.089045 
L 235.094121 62.88122 
L 272.677259 74.378382 
L 248.05982 70.987193 
L 266.049487 78.93859 
L 249.682948 84.09782 
L 251.151493 92.058883 
L 242.456166 89.1991 
L 238.185795 72.610352 
L 220.505293 60.369236 
L 213.858199 61.258094 
L 232.572477 71.286716 
L 235.094121 77.479705 
L 230.843072 82.609946 
L 202.515626 67.740931 
L 188.892948 65.885944 
L 164.352801 49.712624 
z
" clip-path="url(#p3442ffe37c)" style="fill: #ffeadb; stroke: #000000; stroke-width: 0.5"/>
    <path d="M 113.630058 59.519034 
L 124.277003 49.770606 
L 119.755433 46.263495 
L 122.779476 31.925875 
L 151.937805 37.703415 
L 169.840519 57.432148 
L 169.801873 62.88122 
L 205.433392 72.900163 
L 201.897292 79.218765 
L 192.805847 82.339455 
L 213.587679 81.875694 
L 220.447326 88.406861 
L 219.616439 92.058883 
L 205.761883 93.82693 
L 236.71725 98.551411 
L 232.833335 108.734572 
L 240.688116 110.879446 
L 239.963506 119.912928 
L 232.224664 121.294516 
L 203.153284 107.865045 
L 190.516077 97.623901 
L 178.719415 94.754437 
L 173.415266 84.291074 
L 165.376917 80.059316 
L 139.039737 76.436284 
L 138.595308 68.146723 
L 127.639196 70.987193 
L 116.315948 66.117828 
z
" clip-path="url(#p3442ffe37c)" style="fill: #ffeadb; stroke: #000000; stroke-width: 0.5"/>
    <path d="M 274.628877 13.800925 
L 277.797841 11.907284 
L 283.382173 12.757482 
L 286.802336 14.593178 
L 289.150073 17.597878 
L 290.976092 21.066345 
L 293.893858 23.674955 
L 297.294698 25.935764 
L 298.656964 28.022609 
L 298.62798 29.645739 
L 299.980588 31.162612 
L 302.511893 30.863088 
L 305.120491 29.249615 
L 307.960965 29.162661 
L 309.468157 29.684419 
L 311.284513 30.64088 
L 312.926964 33.046599 
L 311.786909 35.133466 
L 310.241075 36.756609 
L 306.019011 37.684119 
L 298.41543 36.350832 
L 291.352889 33.017592 
L 285.700927 28.322122 
L 282.184152 24.351281 
L 279.962012 18.322513 
L 276.908984 16.844283 
z
" clip-path="url(#p3442ffe37c)" style="fill: #ffeadb; stroke: #000000; stroke-width: 0.5"/>
    <path d="M 178.072097 194.779703 
L 194.197098 189.939293 
L 197.665567 191.552754 
L 191.182719 194.779703 
L 201.037421 196.257872 
L 189.559589 202.740728 
L 210.573297 201.562031 
L 236.71725 209.23327 
L 234.649692 214.315171 
L 215.346067 212.479508 
L 226.83356 218.952698 
L 236.717249 218.952698 
L 240.021475 221.851148 
L 236.71725 225.590143 
L 245.731405 230.111698 
L 220.505293 233.696089 
L 228.456687 238.565478 
L 244.832888 235.319224 
L 243.190437 238.565478 
L 251.992043 243.096739 
L 251.151492 250.052973 
L 240.465903 248.082061 
L 199.936013 224.981441 
L 201.037422 218.952698 
L 187.443728 209.648707 
z
" clip-path="url(#p3442ffe37c)" style="fill: #ffeadb; stroke: #000000; stroke-width: 0.5"/>
    <path d="M 66.713936 71.441305 
L 91.022208 75.856608 
L 101.244048 69.760218 
L 117.919751 67.740931 
L 116.315947 70.987193 
L 137.387624 80.716301 
L 160.08243 85.585701 
L 152.121374 94.145765 
L 135.097855 93.797942 
L 130.904774 95.305122 
L 139.155674 97.073179 
L 121.185332 101.942577 
L 124.277004 98.551411 
L 116.605793 90.899521 
L 113.069692 92.058883 
L 120.122569 96.522486 
L 117.18548 98.821916 
L 78.887395 90.435772 
L 101.553214 88.831957 
L 78.075829 84.09782 
L 71.65095 81.527889 
z
" clip-path="url(#p3442ffe37c)" style="fill: #ffeadb; stroke: #000000; stroke-width: 0.5"/>
    <path d="M 191.182716 128.028537 
L 219.114041 130.511534 
L 248.282035 138.433962 
L 261.180105 149.10025 
L 256.281736 153.235335 
L 257.064315 162.056254 
L 249.68295 166.925672 
L 229.335883 149.10025 
L 200.602656 144.771898 
z
" clip-path="url(#p3442ffe37c)" style="fill: #ffeadb; stroke: #000000; stroke-width: 0.5"/>
    <path d="M 315.361655 40.089792 
L 330.298295 33.47168 
L 340.887273 36.273527 
L 333.931011 39.71302 
L 334.414085 45.838397 
L 321.496692 48.253757 
z
" clip-path="url(#p3442ffe37c)" style="fill: #ffeadb; stroke: #000000; stroke-width: 0.5"/>
    <path d="M 244.968148 19.694421 
L 252.745635 19.597805 
L 267.653293 37.800051 
L 265.4698 44.611393 
L 255.51848 40.118792 
L 246.745859 30.39933 
z
" clip-path="url(#p3442ffe37c)" style="fill: #ffeadb; stroke: #000000; stroke-width: 0.5"/>
    <path d="M 219.268625 17.510931 
L 224.910927 17.887742 
L 251.170816 43.92542 
L 253.87603 49.992832 
L 242.543119 46.727247 
z
" clip-path="url(#p3442ffe37c)" style="fill: #ffeadb; stroke: #000000; stroke-width: 0.5"/>
    <path d="M 16.232727 81.218694 
L 36.280289 81.044808 
L 41.739024 83.170345 
z
" clip-path="url(#p3442ffe37c)" style="fill: #ffeadb; stroke: #000000; stroke-width: 0.5"/>
   </g>
  </g>
 </g>
 <defs>
  <clipPath id="p3442ffe37c">
   <rect x="0" y="0" width="357.12" height="261.960258"/>
  </clipPath>
 </defs>
</svg>
