<?xml version="1.0" encoding="utf-8" standalone="no"?>
<!DOCTYPE svg PUBLIC "-//W3C//DTD SVG 1.1//EN"
  "http://www.w3.org/Graphics/SVG/1.1/DTD/svg11.dtd">
<svg xmlns:xlink="http://www.w3.org/1999/xlink" width="246.72854pt" height="266.112pt" viewBox="0 0 246.72854 266.112" xmlns="http://www.w3.org/2000/svg" version="1.1">
 <metadata>
  <rdf:RDF xmlns:dc="http://purl.org/dc/elements/1.1/" xmlns:cc="http://creativecommons.org/ns#" xmlns:rdf="http://www.w3.org/1999/02/22-rdf-syntax-ns#">
   <cc:Work>
    <dc:type rdf:resource="http://purl.org/dc/dcmitype/StillImage"/>
    <dc:date>2025-06-04T13:24:54.245339</dc:date>
    <dc:format>image/svg+xml</dc:format>
    <dc:creator>
     <cc:Agent>
      <dc:title>Matplotlib v3.10.3, https://matplotlib.org/</dc:title>
     </cc:Agent>
    </dc:creator>
   </cc:Work>
  </rdf:RDF>
 </metadata>
 <defs>
  <style type="text/css">*{stroke-linejoin: round; stroke-linecap: butt}</style>
 </defs>
 <g id="figure_1">
  <g id="patch_1">
   <path d="M 0 266.112 
L 246.72854 266.112 
L 246.72854 0 
L 0 0 
L 0 266.112 
z
" style="fill: none"/>
  </g>
  <g id="axes_1">
   <g id="PatchCollection_1">
    <path d="M 11.214934 124.530795 
L 11.740198 123.719309 
L 11.683582 124.74782 
L 13.350588 125.323409 
L 13.350588 126.358209 
L 14.180946 126.333048 
L 15.483098 130.780495 
L 16.697181 131.680049 
L 16.967676 132.787192 
L 17.596735 132.975911 
L 17.804325 129.667058 
L 19.67892 129.811744 
L 18.650409 128.201352 
L 20.238782 128.421523 
L 21.320763 130.981792 
L 23.16076 132.975911 
L 22.912282 135.114709 
L 23.424965 135.661991 
L 23.68917 132.592183 
L 24.821476 130.852836 
L 24.991322 129.324223 
L 26.350089 128.512738 
L 26.425576 127.364706 
L 26.878498 127.169697 
L 27.406907 128.201352 
L 26.557678 126.040536 
L 26.878498 125.037187 
L 29.165127 122.992746 
L 34.273084 116.302705 
L 34.811897 112.358018 
L 34.795203 109.707024 
L 36.352124 105.133766 
L 35.896056 102.840847 
L 36.713833 101.233602 
L 34.530999 90.901311 
L 34.927306 89.316082 
L 36.330107 88.108289 
L 37.122721 88.271844 
L 37.616532 89.971876 
L 36.90255 94.859663 
L 37.682583 93.920792 
L 39.381042 93.81228 
L 40.790134 95.424243 
L 41.843807 98.058427 
L 42.469721 94.593886 
L 44.872725 95.3865 
L 45.659049 97.519009 
L 47.269439 95.914909 
L 48.590463 96.968583 
L 50.515383 96.647763 
L 54.371513 100.950525 
L 52.298765 97.006326 
L 54.050693 96.709096 
L 54.657735 97.256377 
L 58.111268 94.593886 
L 60.48911 95.147457 
L 62.62162 94.593886 
L 59.168087 93.511905 
L 57.095338 94.499527 
L 53.600916 94.859663 
L 50.477639 93.231973 
L 48.835796 93.076282 
L 45.646468 90.896593 
L 44.872725 89.556697 
L 42.230678 90.613516 
L 38.390274 82.970451 
L 37.314584 81.757941 
L 35.311031 81.427685 
L 34.795203 80.823789 
L 35.19151 77.65805 
L 38.519231 76.60123 
L 40.239707 76.841845 
L 43.815907 75.520822 
L 44.59594 77.837331 
L 41.4475 77.931691 
L 40.915945 78.713297 
L 42.941515 78.508852 
L 43.84736 79.00738 
L 44.080111 80.031173 
L 45.13693 78.713297 
L 45.67163 80.458934 
L 45.13693 82.144812 
L 45.50493 83.244092 
L 46.476825 83.725322 
L 46.31327 82.327239 
L 47.797849 78.713297 
L 47.137337 77.150085 
L 46.873132 70.677069 
L 44.872725 63.862791 
L 45.863493 62.654998 
L 47.81043 62.348332 
L 49.524615 60.841736 
L 52.402559 61.093359 
L 53.600916 64.414789 
L 54.069511 63.273221 
L 55.817972 63.625351 
L 58.098844 65.718483 
L 59.468966 66.113941 
L 60.539498 65.534734 
L 60.887022 63.317774 
L 61.645281 63.219571 
L 77.67169 63.12327 
L 98.882025 63.19317 
L 113.279192 63.241877 
L 113.111441 34.894635 
L 112.727947 18.153692 
L 114.038151 14.31096 
L 113.870381 12.942841 
L 125.682187 12.096 
L 129.968311 13.73176 
L 146.761287 13.755725 
L 151.358984 12.421552 
L 153.803632 13.510059 
L 157.418676 13.124587 
L 167.912289 15.411456 
L 170.1652 14.354903 
L 172.47004 15.09189 
L 174.671023 14.354903 
L 179.160867 15.121853 
L 181.174107 14.764341 
L 182.731971 13.563988 
L 183.910355 13.615914 
L 185.783787 14.354903 
L 186.966166 14.067297 
L 188.579953 15.197745 
L 188.963428 18.335443 
L 188.444139 22.822294 
L 185.576072 24.80857 
L 185.703896 26.248598 
L 183.846443 28.431604 
L 184.960915 31.179837 
L 183.383078 33.978996 
L 183.375089 38.617636 
L 182.588168 40.311318 
L 183.934322 42.422421 
L 184.637359 42.472356 
L 184.725238 44.005251 
L 186.834347 46.668599 
L 187.289722 50.159815 
L 186.606659 51.274285 
L 183.383078 53.29152 
L 184.72427 54.605356 
L 188.048682 54.473899 
L 192.147063 51.829526 
L 196.121614 52.498604 
L 198.58224 52.252944 
L 199.964345 50.707062 
L 202.401004 49.39686 
L 206.753038 48.741756 
L 208.294924 46.418944 
L 216.260004 47.246807 
L 218.141424 48.661865 
L 221.812391 48.073671 
L 224.728435 49.488386 
L 226.206367 50.854862 
L 227.161058 58.180818 
L 229.61769 59.842538 
L 231.718809 64.35635 
L 234.319244 66.563324 
L 233.14086 68.035306 
L 233.528329 70.312184 
L 229.306117 75.039702 
L 228.934626 77.84985 
L 225.187764 80.889683 
L 219.164022 81.009519 
L 217.989632 82.639284 
L 218.512915 85.035998 
L 214.11095 88.315502 
L 211.250871 94.267341 
L 212.165617 100.171247 
L 213.635602 101.006103 
L 212.864659 102.500054 
L 213.180226 103.906127 
L 211.901276 105.418126 
L 209.740941 108.703549 
L 209.704991 109.798049 
L 211.490543 111.92713 
L 212.481184 111.863218 
L 213.196204 111.052329 
L 214.953794 111.359908 
L 215.544984 111.995036 
L 216.951056 111.623546 
L 219.914993 112.550276 
L 221.57272 114.85911 
L 222.399586 119.448817 
L 223.689817 118.881595 
L 225.687079 119.313003 
L 227.540538 118.725809 
L 228.619059 119.037381 
L 231.391258 120.503372 
L 234.259326 123.219647 
L 235.513607 126.243501 
L 233.464416 131.839829 
L 233.895825 134.947568 
L 232.182174 137.476103 
L 231.379275 140.855467 
L 233.211816 147.686817 
L 234.167452 148.832533 
L 234.191419 150.386401 
L 232.705457 153.302405 
L 235.078204 156.330255 
L 233.863868 157.520622 
L 233.172816 159.933311 
L 234.127507 161.714868 
L 232.861243 161.954543 
L 232.198152 163.128933 
L 230.328715 164.163512 
L 231.335335 164.870541 
L 231.802694 166.436395 
L 233.572268 167.031579 
L 232.194158 168.102112 
L 231.862612 175.024625 
L 230.472955 176.147722 
L 225.507325 178.471898 
L 225.251676 179.861992 
L 225.954712 180.620947 
L 225.263659 184.355827 
L 224.12522 185.038891 
L 224.312963 186.393036 
L 223.797669 186.956265 
L 221.948205 187.847043 
L 222.072035 189.169228 
L 225.000021 191.645832 
L 225.287627 192.876148 
L 223.274387 193.199703 
L 221.800408 194.238282 
L 220.114264 197.634622 
L 219.707277 198.428534 
L 217.989632 197.945196 
L 215.672809 198.540379 
L 214.953794 197.346018 
L 212.728845 198.085007 
L 210.268218 197.190235 
L 210.34012 195.508541 
L 212.60102 193.063891 
L 210.96726 191.581923 
L 207.831559 184.491644 
L 206.301657 182.909813 
L 204.693861 186.684636 
L 201.442319 189.964138 
L 200.899064 191.525997 
L 199.12949 192.316913 
L 195.31472 196.203587 
L 194.543777 195.600415 
L 191.531906 195.732232 
L 184.413665 193.147777 
L 182.803872 193.726984 
L 178.54571 192.229033 
L 177.346981 193.076246 
L 176.268832 193.319537 
L 177.894603 189.844304 
L 177.199556 189.516755 
L 175.477916 186.209287 
L 173.987959 186.708602 
L 173.045252 184.599496 
L 173.524594 183.40114 
L 172.797591 183.213397 
L 172.669766 181.703463 
L 171.671135 180.596981 
L 170.025392 176.031243 
L 167.568924 174.93228 
L 163.370516 172.400221 
L 161.469123 172.452147 
L 158.924611 174.093898 
L 158.233559 175.983306 
L 157.055174 176.043226 
L 156.321768 175.26567 
L 155.429403 174.677098 
L 155.936708 180.92853 
L 156.739607 182.166829 
L 158.245542 182.849893 
L 157.103108 185.198674 
L 157.306829 187.3677 
L 156.240291 191.058637 
L 156.679689 191.909472 
L 141.336724 195.196963 
L 138.955988 194.254259 
L 136.547291 191.877518 
L 131.454273 193.619126 
L 129.500951 195.200963 
L 128.158791 194.77754 
L 125.630258 192.516639 
L 122.163012 191.901484 
L 121.855433 192.660445 
L 122.826103 195.764187 
L 122.562464 198.580328 
L 124.204213 201.823876 
L 124.411928 203.613421 
L 120.979096 210.270309 
L 120.79289 212.657024 
L 123.021834 211.446685 
L 124.891271 211.362805 
L 130.363768 218.025672 
L 130.363768 218.856531 
L 129.409077 219.443726 
L 127.58358 219.735321 
L 126.880544 221.373083 
L 126.852582 224.416905 
L 132.045463 227.656459 
L 136.778973 229.525902 
L 137.186414 230.77219 
L 135.00141 232.849347 
L 132.273151 238.988929 
L 132.548773 240.690588 
L 135.005405 241.860985 
L 135.277032 242.679872 
L 134.290385 244.365555 
L 132.776508 245.247712 
L 126.017727 244.529332 
L 122.30282 238.869088 
L 120.868786 237.770601 
L 118.931442 237.490978 
L 116.279079 240.518834 
L 113.215279 241.329721 
L 108.493752 244.757018 
L 104.686474 254.016 
L 101.102623 250.961159 
L 99.685765 245.426468 
L 98.879943 244.532699 
L 86.614708 235.273277 
L 86.189308 229.929604 
L 83.003988 227.805269 
L 79.122899 222.958247 
L 60.150973 207.967207 
L 57.859713 206.228949 
L 50.169401 196.281244 
L 51.977945 197.989139 
L 53.704711 198.517546 
L 55.450349 196.809651 
L 55.063478 198.203019 
L 55.186145 198.681103 
L 55.736571 198.152695 
L 55.843511 199.580653 
L 58.454105 200.414159 
L 59.168087 202.134641 
L 60.48911 201.584207 
L 60.753315 203.455659 
L 62.071193 202.927251 
L 62.09321 203.600347 
L 63.678439 201.84841 
L 67.330125 201.480413 
L 67.902569 200.813611 
L 64.735257 198.152695 
L 65.263667 200.813611 
L 63.31673 199.11201 
L 61.951672 198.681103 
L 61.01752 200.813611 
L 59.982718 200.266336 
L 59.904086 199.07112 
L 61.303742 198.152695 
L 58.111268 197.338064 
L 56.780809 194.979088 
L 55.736571 195.755977 
L 54.752094 195.554678 
L 52.043996 197.338064 
L 51.068955 196.337861 
L 51.855278 195.133211 
L 50.962015 194.699157 
L 50.962015 193.809041 
L 49.974392 193.749283 
L 50.169401 195.998166 
L 47.269439 193.356119 
L 48.829505 195.491774 
L 47.967695 194.913038 
L 46.055356 192.771095 
L 44.847563 186.60003 
L 38.255027 180.406945 
L 38.519231 179.872244 
L 37.682583 179.645783 
L 36.669798 177.500694 
L 33.555957 174.015707 
L 36.883678 175.861991 
L 37.695164 174.839773 
L 37.588224 176.522506 
L 37.984531 175.896593 
L 41.041757 176.160796 
L 41.485244 177.595053 
L 40.626578 178.293305 
L 42.61755 179.218023 
L 42.765378 180.406945 
L 43.976317 181.897813 
L 44.872725 181.073747 
L 44.768931 180.381783 
L 44.180761 179.070194 
L 42.230678 177.500694 
L 42.99184 176.314919 
L 41.016595 173.411809 
L 40.626578 173.782953 
L 39.833964 173.254546 
L 39.833964 174.839773 
L 37.456122 172.172564 
L 36.141389 174.839773 
L 34.795203 174.286204 
L 35.153767 173.084701 
L 34.273084 172.436767 
L 32.851411 172.789043 
L 32.656403 167.832056 
L 31.486354 162.915965 
L 23.623119 152.715773 
L 22.346129 149.432088 
L 23.730059 152.288013 
L 26.161371 153.785174 
L 29.133674 158.597472 
L 33.209975 161.198636 
L 33.813871 166.599104 
L 34.480674 165.032745 
L 35.059408 165.841089 
L 36.543987 164.655308 
L 38.519231 164.255856 
L 38.248736 165.510829 
L 39.04135 166.391512 
L 39.04135 163.991653 
L 44.608521 163.991653 
L 42.400524 162.919111 
L 41.702269 159.220244 
L 40.626578 158.691831 
L 39.689281 158.792484 
L 39.777349 160.009714 
L 37.632258 162.26489 
L 34.568742 162.824752 
L 34.059204 162.387552 
L 33.738384 160.141816 
L 32.656403 159.745504 
L 32.587207 159.138466 
L 34.464947 158.19802 
L 34.00888 156.578197 
L 35.896056 155.914541 
L 36.68238 154.055671 
L 35.946381 151.4608 
L 35.587817 151.253213 
L 35.462006 154.841994 
L 34.663101 155.238299 
L 33.738384 154.445688 
L 32.011618 156.030916 
L 30.15904 156.376898 
L 29.086494 155.782434 
L 28.643008 153.351126 
L 27.120686 153.895261 
L 24.142092 152.067845 
L 23.68917 149.432088 
L 24.440895 148.884807 
L 24.258468 147.985253 
L 22.874539 146.506963 
L 23.358914 147.670723 
L 22.755018 149.026346 
L 21.691908 144.544302 
L 17.857795 139.618771 
L 19.414715 140.839145 
L 20.496696 139.096651 
L 18.244666 139.492959 
L 17.452052 137.259799 
L 16.782104 137.511424 
z
" clip-path="url(#pa3650353b9)" style="fill: #ffeadb; stroke: #000000; stroke-width: 0.5"/>
    <path d="M 21.028251 127.4339 
L 21.556661 126.116022 
L 23.16076 124.772982 
L 22.874539 126.116022 
L 24.274195 126.41797 
L 24.585579 127.74843 
L 24.478639 130.604358 
L 23.236248 131.315193 
L 21.76425 130.359025 
L 21.868045 128.754924 
z
" clip-path="url(#pa3650353b9)" style="fill: #ffeadb; stroke: #000000; stroke-width: 0.5"/>
   </g>
  </g>
 </g>
 <defs>
  <clipPath id="pa3650353b9">
   <rect x="0" y="-0" width="246.72854" height="266.112"/>
  </clipPath>
 </defs>
</svg>
