<?xml version="1.0" encoding="utf-8" standalone="no"?>
<!DOCTYPE svg PUBLIC "-//W3C//DTD SVG 1.1//EN"
  "http://www.w3.org/Graphics/SVG/1.1/DTD/svg11.dtd">
<svg xmlns:xlink="http://www.w3.org/1999/xlink" width="357.12pt" height="135.348115pt" viewBox="0 0 357.12 135.348115" xmlns="http://www.w3.org/2000/svg" version="1.1">
 <metadata>
  <rdf:RDF xmlns:dc="http://purl.org/dc/elements/1.1/" xmlns:cc="http://creativecommons.org/ns#" xmlns:rdf="http://www.w3.org/1999/02/22-rdf-syntax-ns#">
   <cc:Work>
    <dc:type rdf:resource="http://purl.org/dc/dcmitype/StillImage"/>
    <dc:date>2025-06-04T13:25:08.190526</dc:date>
    <dc:format>image/svg+xml</dc:format>
    <dc:creator>
     <cc:Agent>
      <dc:title>Matplotlib v3.10.3, https://matplotlib.org/</dc:title>
     </cc:Agent>
    </dc:creator>
   </cc:Work>
  </rdf:RDF>
 </metadata>
 <defs>
  <style type="text/css">*{stroke-linejoin: round; stroke-linecap: butt}</style>
 </defs>
 <g id="figure_1">
  <g id="patch_1">
   <path d="M 0 135.348115 
L 357.12 135.348115 
L 357.12 0 
L 0 0 
L 0 135.348115 
z
" style="fill: none"/>
  </g>
  <g id="axes_1">
   <g id="PatchCollection_1">
    <path d="M 99.727766 18.28605 
L 100.285586 17.716575 
L 99.727766 17.436828 
L 102.60346 17.017214 
L 104.504215 17.395204 
L 105.745575 16.685854 
L 107.144291 16.877347 
L 106.737165 17.308616 
L 110.77596 17.242007 
L 113.036384 16.877347 
L 111.780038 17.436828 
L 111.780037 17.856447 
L 111.360422 17.856447 
L 112.486056 18.284386 
L 114.86554 18.134522 
L 116.275911 18.635733 
L 116.403295 18.306031 
L 117.379899 18.134522 
L 117.344929 17.93138 
L 118.371488 17.856447 
L 117.992668 18.17449 
L 118.638742 18.505851 
L 117.951874 18.845536 
L 117.799514 19.55655 
L 118.34651 19.523252 
L 119.627836 18.565793 
L 120.744311 18.297704 
L 121.457822 18.705669 
L 120.207303 19.494942 
L 120.479553 19.684769 
L 122.57513 18.985409 
L 122.155515 18.705669 
L 122.595111 18.624078 
L 124.821402 19.12528 
L 124.570798 20.002811 
L 124.883012 20.169323 
L 125.380889 19.26515 
L 127.908569 19.405025 
L 128.594605 19.684769 
L 128.314863 20.255908 
L 127.240847 20.189308 
L 126.918644 20.38246 
L 127.628826 20.675524 
L 126.638901 20.802076 
L 127.825312 20.958599 
L 130.226441 20.53399 
L 131.263822 21.018545 
L 129.875929 21.233348 
L 127.603849 22.217443 
L 127.488122 22.91014 
L 128.404779 22.916804 
L 130.159836 22.097552 
L 131.248837 22.034278 
L 131.719238 22.367307 
L 130.994903 22.973416 
L 131.372057 23.880917 
L 131.133941 24.30886 
L 132.378633 23.579528 
L 134.067915 24.585273 
L 134.38679 24.152332 
L 133.242007 22.200792 
L 135.980327 23.073327 
L 135.896238 23.889243 
L 136.510673 24.165658 
L 136.049431 24.801738 
L 138.004303 24.865013 
L 137.548888 25.907389 
L 138.318182 26.436903 
L 140.453721 26.726641 
L 140.980739 27.369379 
L 139.262315 28.385116 
L 140.427081 28.967912 
L 142.323672 28.907972 
L 143.618318 28.511667 
L 142.626727 29.920376 
L 143.178722 31.295776 
L 142.626728 31.33241 
L 143.942188 32.31151 
L 145.726383 32.880991 
L 144.686504 33.412168 
L 143.618318 33.283953 
L 142.594258 33.806806 
L 139.134932 32.880991 
L 142.908136 34.671015 
L 142.068907 34.542796 
L 142.209611 34.962412 
L 141.61599 34.972401 
L 141.230509 34.671015 
L 141.23051 35.228833 
L 138.94011 35.332076 
L 138.562957 34.962412 
L 139.134933 34.810884 
L 135.756366 33.007542 
L 134.224439 30.619731 
L 132.683354 29.374206 
L 131.531909 29.026197 
L 131.605177 27.952177 
L 130.226442 27.392691 
L 128.187479 27.685759 
L 127.310785 26.993058 
L 124.73981 26.420254 
L 124.937961 25.484446 
L 123.132951 25.004887 
L 122.986419 24.530323 
L 123.70576 24.448727 
L 123.214543 24.115701 
L 120.555317 24.260568 
L 119.164928 23.692753 
L 119.209886 23.111621 
L 117.712925 22.502185 
L 116.27591 22.337336 
L 113.316128 22.91014 
L 112.61677 22.756948 
L 112.469404 22.317354 
L 114.320206 21.921049 
L 112.477731 20.953603 
L 115.996169 20.255908 
L 110.026647 19.964508 
L 109.352265 20.23926 
L 109.951715 20.53399 
L 106.737166 20.802076 
L 107.016908 20.53399 
L 106.026985 19.964508 
L 107.436525 19.26515 
L 106.026984 19.12528 
L 107.928571 18.440912 
L 108.274922 18.007971 
L 104.629101 18.134522 
L 103.650831 17.856447 
L 101.869133 18.166163 
L 100.938321 17.808157 
z
" clip-path="url(#p45d6132bff)" style="fill: #ffeadb; stroke: #000000; stroke-width: 0.5"/>
    <path d="M 336.55708 107.808891 
L 337.10824 106.95634 
L 339.533514 106.896396 
L 340.887273 107.314343 
L 340.608361 108.013704 
L 340.887273 109.282537 
L 337.120729 108.335074 
z
" clip-path="url(#p45d6132bff)" style="fill: #ffeadb; stroke: #000000; stroke-width: 0.5"/>
    <path d="M 335.427282 94.424511 
L 336.151619 93.85836 
L 336.963373 93.8517 
L 337.67522 94.665954 
L 338.640168 94.70425 
L 337.243117 95.247087 
L 336.129139 95.040611 
z
" clip-path="url(#p45d6132bff)" style="fill: #ffeadb; stroke: #000000; stroke-width: 0.5"/>
    <path d="M 332.48082 120.024348 
L 333.039474 119.661349 
L 334.412381 119.70131 
L 335.707026 120.217504 
L 334.273343 120.851918 
L 333.038642 120.823615 
z
" clip-path="url(#p45d6132bff)" style="fill: #ffeadb; stroke: #000000; stroke-width: 0.5"/>
    <path d="M 321.216159 72.747735 
L 321.277769 72.278166 
L 322.384254 71.981771 
L 323.57233 72.611193 
L 322.10451 72.974195 
z
" clip-path="url(#p45d6132bff)" style="fill: #ffeadb; stroke: #000000; stroke-width: 0.5"/>
    <path d="M 118.601278 26.993058 
L 119.151606 26.766599 
L 120.479553 27.532567 
L 119.081669 27.685759 
L 119.487963 27.532567 
z
" clip-path="url(#p45d6132bff)" style="fill: #ffeadb; stroke: #000000; stroke-width: 0.5"/>
    <path d="M 320.288677 128.916185 
L 320.730771 128.506564 
L 322.663996 128.484917 
L 322.334299 129.172618 
z
" clip-path="url(#p45d6132bff)" style="fill: #ffeadb; stroke: #000000; stroke-width: 0.5"/>
    <path d="M 317.131575 128.373348 
L 318.692642 128.226818 
L 318.740098 128.484917 
L 319.29792 129.195928 
z
" clip-path="url(#p45d6132bff)" style="fill: #ffeadb; stroke: #000000; stroke-width: 0.5"/>
    <path d="M 312.987044 64.133975 
L 313.749678 63.732676 
L 314.662174 64.133975 
L 313.821279 64.715107 
z
" clip-path="url(#p45d6132bff)" style="fill: #ffeadb; stroke: #000000; stroke-width: 0.5"/>
    <path d="M 300.638378 72.764387 
L 301.494259 72.577892 
L 301.553371 72.806017 
L 301.17372 73.015823 
z
" clip-path="url(#p45d6132bff)" style="fill: #ffeadb; stroke: #000000; stroke-width: 0.5"/>
    <path d="M 168.551269 38.70731 
L 168.6262 38.099534 
L 169.338879 38.002956 
L 169.253957 38.657355 
z
" clip-path="url(#p45d6132bff)" style="fill: #ffeadb; stroke: #000000; stroke-width: 0.5"/>
    <path d="M 166.898619 37.405169 
L 167.323229 37.241986 
L 167.898533 37.634963 
L 166.981043 37.641621 
z
" clip-path="url(#p45d6132bff)" style="fill: #ffeadb; stroke: #000000; stroke-width: 0.5"/>
    <path d="M 23.551843 8.834727 
L 23.555173 8.241937 
L 24.210405 8.609934 
L 23.993938 8.934632 
z
" clip-path="url(#p45d6132bff)" style="fill: #ffeadb; stroke: #000000; stroke-width: 0.5"/>
    <path d="M 16.232727 6.744976 
L 16.259369 6.152187 
L 16.930421 6.493538 
L 16.917098 6.896506 
z
" clip-path="url(#p45d6132bff)" style="fill: #ffeadb; stroke: #000000; stroke-width: 0.5"/>
    <path d="M 330.930576 79.831236 
L 331.799779 79.651401 
L 332.61986 80.249183 
z
" clip-path="url(#p45d6132bff)" style="fill: #ffeadb; stroke: #000000; stroke-width: 0.5"/>
    <path d="M 170.184769 38.980392 
L 170.809196 39.123594 
L 170.374595 39.293438 
z
" clip-path="url(#p45d6132bff)" style="fill: #ffeadb; stroke: #000000; stroke-width: 0.5"/>
    <path d="M 98.609624 17.308616 
L 99.114162 16.988909 
L 99.854316 17.017214 
z
" clip-path="url(#p45d6132bff)" style="fill: #ffeadb; stroke: #000000; stroke-width: 0.5"/>
   </g>
  </g>
 </g>
 <defs>
  <clipPath id="p45d6132bff">
   <rect x="0" y="-0" width="357.12" height="135.348115"/>
  </clipPath>
 </defs>
</svg>
