<?xml version="1.0" encoding="utf-8" standalone="no"?>
<!DOCTYPE svg PUBLIC "-//W3C//DTD SVG 1.1//EN"
  "http://www.w3.org/Graphics/SVG/1.1/DTD/svg11.dtd">
<svg xmlns:xlink="http://www.w3.org/1999/xlink" width="262.248884pt" height="266.112pt" viewBox="0 0 262.248884 266.112" xmlns="http://www.w3.org/2000/svg" version="1.1">
 <metadata>
  <rdf:RDF xmlns:dc="http://purl.org/dc/elements/1.1/" xmlns:cc="http://creativecommons.org/ns#" xmlns:rdf="http://www.w3.org/1999/02/22-rdf-syntax-ns#">
   <cc:Work>
    <dc:type rdf:resource="http://purl.org/dc/dcmitype/StillImage"/>
    <dc:date>2025-06-04T13:24:54.983605</dc:date>
    <dc:format>image/svg+xml</dc:format>
    <dc:creator>
     <cc:Agent>
      <dc:title>Matplotlib v3.10.3, https://matplotlib.org/</dc:title>
     </cc:Agent>
    </dc:creator>
   </cc:Work>
  </rdf:RDF>
 </metadata>
 <defs>
  <style type="text/css">*{stroke-linejoin: round; stroke-linecap: butt}</style>
 </defs>
 <g id="figure_1">
  <g id="patch_1">
   <path d="M 0 266.112 
L 262.248884 266.112 
L 262.248884 0 
L 0 0 
L 0 266.112 
z
" style="fill: none"/>
  </g>
  <g id="axes_1">
   <g id="PatchCollection_1">
    <defs>
     <path id="m7ee4245422" d="M 11.920404 -60.358716 
L 14.182548 -61.793653 
L 16.981508 -68.485764 
L 15.154303 -77.476405 
L 17.344194 -81.355779 
L 17.37174 -86.990428 
L 20.355871 -88.289666 
L 22.134106 -91.596694 
L 14.012682 -102.23703 
L 14.38455 -104.377952 
L 20.231464 -114.148169 
L 41.91353 -150.070333 
L 86.040688 -150.596507 
L 118.414391 -151.15273 
L 118.435351 -151.178001 
L 119.226977 -152.806554 
L 117.976703 -152.36582 
L 117.745624 -153.375832 
L 119.178007 -154.529697 
L 118.417436 -155.603984 
L 119.721271 -156.121234 
L 117.607895 -157.660739 
L 117.803777 -159.592004 
L 119.226977 -160.455108 
L 117.748685 -161.801793 
L 118.417436 -162.514919 
L 119.629452 -162.07113 
L 119.226977 -163.726937 
L 120.435932 -163.506573 
L 118.610257 -164.721643 
L 120.991439 -166.092815 
L 121.340354 -167.044674 
L 120.842998 -167.806781 
L 120.036518 -167.366043 
L 120.18955 -168.204663 
L 122.46208 -168.210784 
L 121.569901 -171.286733 
L 116.77693 -171.969258 
L 115.479216 -174.179042 
L 113.397977 -173.698518 
L 112.756772 -175.492056 
L 107.463385 -175.084993 
L 108.709067 -176.523496 
L 106.569676 -177.824268 
L 107.423596 -181.530713 
L 106.618646 -181.998995 
L 105.443359 -181.224646 
L 106.223823 -182.978398 
L 105.412752 -185.108608 
L 101.409427 -190.675921 
L 97.556073 -193.060169 
L 96.950065 -194.605798 
L 95.698261 -194.162 
L 90.52577 -195.992263 
L 87.575307 -198.244901 
L 88.386379 -199.689525 
L 86.54693 -199.827256 
L 86.142925 -198.244901 
L 82.479332 -200.237379 
L 78.237276 -207.142203 
L 75.592878 -207.344205 
L 72.134348 -212.437119 
L 70.380599 -213.049243 
L 69.177765 -216.351681 
L 64.121577 -216.924028 
L 63.644116 -218.334984 
L 59.524487 -219.779606 
L 60.071398 -220.761071 
L 86.207198 -220.605983 
L 86.271472 -253.183496 
L 87.970129 -254.016 
L 194.681082 -253.914986 
L 195.259629 -224.699315 
L 195.349834 -207.833723 
L 192.747701 -169.712473 
L 190.207888 -140.920254 
L 190.668574 -139.400923 
L 193.677189 -140.551727 
L 201.798613 -140.637425 
L 207.036909 -139.330527 
L 209.282085 -140.177221 
L 212.111375 -138.186596 
L 214.159839 -138.678224 
L 218.799007 -136.969565 
L 219.023133 -135.726029 
L 226.339764 -131.882146 
L 225.732454 -128.814272 
L 227.330256 -128.814272 
L 228.161692 -129.558946 
L 227.554382 -131.241097 
L 228.932878 -131.356773 
L 230.822285 -134.511409 
L 230.383673 -137.74798 
L 230.822285 -136.938234 
L 234.46132 -137.381668 
L 227.429065 -142.811302 
L 226.701258 -143.690936 
L 227.554383 -144.659738 
L 230.822285 -143.042658 
L 236.885738 -138.090195 
L 242.99016 -135.321155 
L 250.32848 -130.209635 
L 249.105488 -127.993895 
L 244.658369 -127.185884 
L 242.53275 -123.768673 
L 235.729157 -118.073188 
L 218.348045 -104.997152 
L 205.76062 -95.546458 
L 195.483956 -91.453248 
L 193.017619 -86.99961 
L 194.171483 -85.952872 
L 194.168423 -84.391937 
L 192.98015 -82.08202 
L 190.420663 -78.258394 
L 195.527018 -70.106217 
L 194.687203 -62.431799 
L 193.990906 -61.787532 
L 189.635605 -61.940574 
L 185.053819 -56.875198 
L 183.131733 -56.163601 
L 182.769047 -52.611721 
L 181.052024 -53.826802 
L 180.681686 -53.237624 
L 180.603641 -54.382296 
L 178.65401 -52.803001 
L 174.801384 -53.051167 
L 172.12412 -50.600881 
L 171.305398 -52.336261 
L 169.208856 -50.864082 
L 170.067367 -48.919042 
L 168.748228 -47.430049 
L 171.103395 -45.939508 
L 173.121891 -41.731122 
L 166.380819 -39.882488 
L 163.329356 -38.07364 
L 159.6122 -32.460426 
L 159.884329 -30.663163 
L 159.03986 -29.780821 
L 155.555314 -31.562124 
L 152.060056 -30.532221 
L 143.598901 -24.270135 
L 138.62382 -18.768631 
L 138.189208 -15.937534 
L 139.137278 -12.096 
L 130.711815 -15.490402 
L 115.333771 -21.767521 
L 107.804468 -23.305801 
L 103.069675 -23.792434 
L 91.043285 -22.740948 
L 75.915041 -23.663004 
L 66.989492 -25.379183 
L 53.046955 -31.396556 
L 46.731474 -34.954429 
L 31.942957 -44.81521 
L 16.8873 -56.867066 
z
" style="stroke: #000000; stroke-width: 0.5"/>
    </defs>
    <g clip-path="url(#p477da41c32)">
     <use xlink:href="#m7ee4245422" x="0" y="266.112" style="fill: #ffeadb; stroke: #000000; stroke-width: 0.5"/>
    </g>
   </g>
  </g>
 </g>
 <defs>
  <clipPath id="p477da41c32">
   <rect x="0" y="-0" width="262.248884" height="266.112"/>
  </clipPath>
 </defs>
</svg>
