<?xml version="1.0" encoding="utf-8" standalone="no"?>
<!DOCTYPE svg PUBLIC "-//W3C//DTD SVG 1.1//EN"
  "http://www.w3.org/Graphics/SVG/1.1/DTD/svg11.dtd">
<svg xmlns:xlink="http://www.w3.org/1999/xlink" width="357.12pt" height="203.706918pt" viewBox="0 0 357.12 203.706918" xmlns="http://www.w3.org/2000/svg" version="1.1">
 <metadata>
  <rdf:RDF xmlns:dc="http://purl.org/dc/elements/1.1/" xmlns:cc="http://creativecommons.org/ns#" xmlns:rdf="http://www.w3.org/1999/02/22-rdf-syntax-ns#">
   <cc:Work>
    <dc:type rdf:resource="http://purl.org/dc/dcmitype/StillImage"/>
    <dc:date>2025-06-04T13:24:56.429467</dc:date>
    <dc:format>image/svg+xml</dc:format>
    <dc:creator>
     <cc:Agent>
      <dc:title>Matplotlib v3.10.3, https://matplotlib.org/</dc:title>
     </cc:Agent>
    </dc:creator>
   </cc:Work>
  </rdf:RDF>
 </metadata>
 <defs>
  <style type="text/css">*{stroke-linejoin: round; stroke-linecap: butt}</style>
 </defs>
 <g id="figure_1">
  <g id="patch_1">
   <path d="M 0 203.706918 
L 357.12 203.706918 
L 357.12 -0 
L 0 -0 
L 0 203.706918 
z
" style="fill: none"/>
  </g>
  <g id="axes_1">
   <g id="PatchCollection_1">
    <path d="M 16.232727 45.949952 
L 22.536152 43.390608 
L 36.880998 44.331261 
L 49.689091 42.860127 
L 69.787188 32.983356 
L 74.074782 34.219311 
L 83.743744 32.004422 
L 96.15261 34.870116 
L 105.602494 34.345613 
L 127.500172 34.651358 
L 154.520236 22.181684 
L 175.46763 9.685952 
L 183.676404 9.259405 
L 212.680846 9.377774 
L 268.669943 9.611809 
L 333.736725 9.877383 
L 333.064054 19.196333 
L 340.887273 32.600526 
L 337.224252 50.18717 
L 332.40779 53.950993 
L 325.240836 54.03849 
L 326.602585 51.643139 
L 321.913029 51.812664 
L 310.915131 58.003426 
L 307.888112 65.102029 
L 313.616753 66.562211 
L 321.658726 71.478721 
L 325.325604 76.4554 
L 333.033976 79.102336 
L 334.19611 80.846897 
L 333.561722 111.849928 
L 329.320613 114.086691 
L 324.477929 114.283574 
L 321.248561 108.945956 
L 318.732881 108.267809 
L 317.001983 115.475781 
L 313.050725 116.591427 
L 310.756534 115.464844 
L 303.379028 119.544617 
L 292.433085 119.451651 
L 287.852907 117.023474 
L 274.322923 116.186739 
L 269.081011 122.350155 
L 259.234185 127.645281 
L 249.84973 132.691778 
L 236.680691 132.462099 
L 229.729757 134.313297 
L 217.331829 151.540247 
L 213.634873 163.831532 
L 203.484651 183.185864 
L 196.930748 190.412609 
L 188.912609 194.447513 
L 194.036983 187.518843 
L 190.359491 190.412609 
L 186.750898 188.634148 
L 192.193931 174.845705 
L 194.695832 174.449538 
L 194.695832 172.279209 
L 199.092458 171.917491 
L 196.930748 169.394059 
L 199.178582 165.91465 
L 197.58529 162.891705 
L 195.053246 167.645747 
L 190.359491 169.394059 
L 190.488677 172.132799 
L 185.962864 173.002655 
L 185.304016 175.999767 
L 174.796896 187.518843 
L 170.460556 182.820783 
L 176.450476 178.350947 
L 177.285878 162.228549 
L 174.284459 164.157721 
L 174.439482 174.00169 
L 161.240989 171.706491 
L 159.621859 168.580192 
L 155.810875 166.905077 
L 155.754894 157.422827 
L 154.032415 155.993168 
L 155.345805 151.368321 
L 159.156789 146.928626 
L 164.259633 147.975042 
L 170.24094 142.523395 
L 170.783521 141.145401 
L 162.838588 146.928626 
L 160.874962 144.732465 
L 164.117528 138.010495 
L 161.753426 137.937289 
L 158.493635 144.138222 
L 154.032415 146.205188 
L 151.586496 150.2401 
L 145.95399 151.342489 
L 145.811886 147.966426 
L 151.20755 138.251651 
L 148.701344 137.446392 
L 149.041533 134.643047 
L 152.723332 133.85502 
L 153.38218 136.089938 
L 154.635283 133.49761 
L 157.051059 134.643047 
L 155.548197 130.961254 
L 161.650077 131.404794 
L 162.115147 127.348358 
L 166.3912 128.356001 
L 166.451487 130.242124 
L 168.475399 129.527287 
L 167.179234 126.465585 
L 163.562029 125.186645 
L 167.958656 122.951727 
L 170.072998 125.789505 
L 173.741878 125.910083 
L 169.401232 120.846003 
L 175.184454 121.504852 
L 174.400726 124.398602 
L 177.018894 126.228737 
L 178.801659 124.398602 
L 176.635642 121.173274 
L 178.573431 118.942664 
L 183.443739 120.423987 
L 183.917421 123.675165 
L 186.888697 121.595274 
L 189.63605 124.398602 
L 183.917421 125.186645 
L 185.962865 126.62492 
L 186.104969 129.243082 
L 188.029839 126.340699 
L 196.637926 125.307224 
L 198.37763 122.228289 
L 190.691068 123.688089 
L 192.590101 118.615393 
L 190.432697 118.895291 
L 189.63605 121.504852 
L 185.962864 119.399112 
L 188.262373 116.445064 
L 187.474339 114.283352 
L 185.304016 117.89194 
L 180.96337 117.168502 
L 185.304016 112.048433 
L 183.417902 113.469476 
L 180.96337 112.771871 
L 179.116011 116.544102 
L 176.635642 114.998189 
L 175.020818 117.271848 
L 174.66771 114.868995 
L 177.285878 113.559914 
L 176.635642 109.94271 
L 179.451895 110.601558 
L 175.912201 107.057559 
L 171.705047 115.342676 
L 170.137591 115.368508 
L 171.506962 112.771871 
L 170.047161 110.933136 
L 170.783521 107.772381 
L 168.613198 111.716855 
L 165.008911 112.048433 
L 169.401232 116.083346 
L 168.04478 117.848891 
L 166.451487 116.445064 
L 165.008911 120.057961 
L 163.023252 114.709819 
L 161.396012 116.445064 
L 162.838588 122.951727 
L 157.709907 117.168502 
L 159.88023 124.398602 
L 157.709907 123.675165 
L 156.340537 125.117748 
L 154.824756 122.228289 
L 152.723332 128.011514 
L 149.53244 122.861289 
L 153.903913 114.968494 
L 154.032415 113.559914 
L 148.76163 117.719696 
L 146.875516 116.445064 
L 147.530058 112.048433 
L 142.207599 115.407265 
L 140.812391 111.157061 
L 143.615725 104.163792 
L 150.139613 98.074821 
L 152.723332 93.264805 
L 154.824756 94.76767 
L 157.051059 93.264805 
L 179.12893 94.76767 
L 189.63605 87.477271 
L 192.064745 87.477271 
L 189.928872 94.8624 
L 191.802067 101.924566 
L 198.881455 104.05183 
L 201.013022 107.160905 
L 205.935005 107.281483 
L 207.046004 105.54177 
L 204.294344 106.471916 
L 199.488629 101.209744 
L 195.419273 100.550896 
L 192.193931 97.239421 
L 196.711132 86.318909 
L 199.810189 85.631478 
L 198.386242 83.433758 
L 190.716906 82.417499 
L 176.390189 90.706925 
L 166.020867 88.25239 
L 161.210845 85.035661 
L 156.353455 84.609353 
L 150.84583 87.477271 
L 146.513796 87.80885 
L 141.415856 91.927062 
L 136.368396 97.59254 
L 127.527311 101.804178 
L 120.3881 103.160441 
L 111.271881 107.772381 
L 115.388606 95.615994 
L 121.45173 96.154264 
L 114.957986 93.264805 
L 109.17907 104.91737 
L 106.018321 105.020716 
L 106.280999 99.762853 
L 104.511153 100.589652 
L 103.322642 106.334121 
L 97.6643 109.206348 
L 96.820285 107.772381 
L 101.160931 92.468162 
L 104.136513 90.711233 
L 108.447016 83.140937 
L 116.396255 80.841429 
L 117.920649 83.390694 
L 122.898612 84.587812 
L 124.405782 80.264402 
L 118.566579 81.638072 
L 116.396256 79.467759 
L 110.565665 79.674451 
L 107.727881 78.020867 
L 105.010671 80.867261 
L 100.43749 81.638072 
L 100.43749 83.804093 
L 98.994914 82.873948 
L 99.171468 86.107909 
L 95.270054 89.471049 
L 87.432776 89.583011 
L 80.138079 93.264805 
L 76.520873 90.306449 
L 70.548178 90.263384 
L 66.349636 87.80885 
L 64.179313 83.140937 
L 58.210925 80.651953 
L 55.510939 70.437662 
L 60.725744 61.963067 
L 63.391279 60.610921 
L 63.959697 62.802775 
L 65.686482 62.057797 
L 66.082652 56.7827 
L 77.614647 50.379396 
L 82.304096 45.375595 
L 86.640436 43.993308 
L 81.942375 44.665065 
L 76.878288 49.388969 
L 69.234788 51.223412 
L 60.958278 58.449208 
L 58.973121 57.631024 
L 59.838667 51.223412 
L 56.260217 60.270727 
L 51.893734 60.610921 
L 50.382259 59.164029 
L 49.331547 61.196565 
L 44.891858 62.944878 
L 40.340208 60.335316 
L 33.316801 51.791823 
L 29.428305 51.877953 
L 22.133608 45.375595 
L 17.01354 46.887061 
z
" clip-path="url(#paf84ae3ca5)" style="fill: #ffeadb; stroke: #000000; stroke-width: 0.5"/>
    <path d="M 67.073078 175.892113 
L 71.982142 172.615096 
L 73.566822 173.002655 
L 71.465398 173.726092 
L 72.188839 175.241873 
L 74.333325 173.777765 
L 76.193602 169.381143 
L 78.68689 167.223739 
L 80.86152 168.670622 
L 82.743328 164.937148 
L 87.329427 167.370149 
L 86.158142 171.318931 
L 88.147605 174.449538 
L 86.640436 174.449538 
L 87.432776 181.735618 
L 79.354351 183.905939 
L 79.354351 180.232754 
L 77.313214 182.467672 
L 77.976368 183.905939 
L 73.37735 182.777718 
z
" clip-path="url(#paf84ae3ca5)" style="fill: #ffeadb; stroke: #000000; stroke-width: 0.5"/>
    <path d="M 84.474419 137.467916 
L 90.981082 132.769848 
L 93.181549 126.749791 
L 99.714049 122.951727 
L 100.635575 125.729223 
L 101.953271 124.398602 
L 103.262355 125.755056 
L 104.114982 129.518671 
L 102.482934 134.229663 
L 104.114982 138.975089 
L 96.953777 141.812866 
L 96.096844 139.638245 
L 94.654268 141.145401 
L 93.207386 139.638245 
L 89.594487 142.523395 
z
" clip-path="url(#paf84ae3ca5)" style="fill: #ffeadb; stroke: #000000; stroke-width: 0.5"/>
    <path d="M 116.396255 165.776856 
L 118.773276 163.490265 
L 117.119697 162.228549 
L 119.354613 157.767329 
L 125.12061 154.606574 
L 129.469869 154.938152 
L 129.469869 162.228549 
L 125.792377 159.929042 
L 125.215346 163.597919 
L 122.235458 163.606527 
L 122.235458 169.394059 
L 121.45173 168.011773 
L 117.313475 168.653397 
z
" clip-path="url(#paf84ae3ca5)" style="fill: #ffeadb; stroke: #000000; stroke-width: 0.5"/>
    <path d="M 132.449757 130.987086 
L 137.169349 125.849802 
L 139.649718 125.910083 
L 143.198024 120.846003 
L 149.041533 120.057961 
L 147.530058 124.036884 
L 149.235312 127.055536 
L 143.981752 126.62492 
L 141.755448 128.795233 
L 138.861684 128.795233 
L 141.113825 130.336854 
L 139.219099 132.946415 
z
" clip-path="url(#paf84ae3ca5)" style="fill: #ffeadb; stroke: #000000; stroke-width: 0.5"/>
    <path d="M 48.211936 130.961254 
L 52.139187 129.010541 
L 60.519046 128.399066 
L 63.391279 125.186645 
L 67.073078 125.186645 
L 67.44341 128.53686 
L 64.162088 134.531085 
L 60.109957 136.115771 
L 57.676956 133.85502 
L 48.935377 135.301896 
L 49.723411 131.684692 
z
" clip-path="url(#paf84ae3ca5)" style="fill: #ffeadb; stroke: #000000; stroke-width: 0.5"/>
    <path d="M 121.318238 137.291365 
L 123.622054 137.467916 
L 125.792377 133.85502 
L 128.746428 133.131583 
L 128.746428 134.643047 
L 130.081349 137.648776 
L 127.234953 140.361683 
L 126.584717 138.975089 
L 124.578029 140.120526 
L 121.356994 139.36264 
z
" clip-path="url(#paf84ae3ca5)" style="fill: #ffeadb; stroke: #000000; stroke-width: 0.5"/>
    <path d="M 95.631775 181.882029 
L 95.661918 179.664336 
L 101.160931 177.403585 
L 99.485821 175.818908 
L 98.267167 178.127023 
L 96.820285 176.615551 
L 98.994914 165.776856 
L 102.6681 169.368219 
L 106.280999 179.177739 
L 104.472397 181.218873 
z
" clip-path="url(#paf84ae3ca5)" style="fill: #ffeadb; stroke: #000000; stroke-width: 0.5"/>
    <path d="M 87.290671 169.66104 
L 89.667692 166.810339 
L 95.313116 165.05341 
L 96.096844 170.117497 
L 96.023639 174.673454 
L 91.51505 179.703092 
L 89.887308 174.113652 
L 90.981082 172.279209 
L 88.561 172.287825 
z
" clip-path="url(#paf84ae3ca5)" style="fill: #ffeadb; stroke: #000000; stroke-width: 0.5"/>
    <path d="M 75.806045 94.76767 
L 84.861977 94.55667 
L 89.40932 91.805006 
L 94.848047 93.053805 
L 88.939945 107.057559 
L 84.474419 107.057559 
L 80.499799 102.329349 
L 76.942881 101.485333 
z
" clip-path="url(#paf84ae3ca5)" style="fill: #ffeadb; stroke: #000000; stroke-width: 0.5"/>
    <path d="M 63.391279 162.560127 
L 67.004178 155.812309 
L 71.465398 154.150126 
L 76.520873 155.597001 
L 77.313214 159.929042 
L 75.030929 161.087404 
L 75.018011 163.606527 
L 68.080728 164.18787 
z
" clip-path="url(#paf84ae3ca5)" style="fill: #ffeadb; stroke: #000000; stroke-width: 0.5"/>
    <path d="M 104.278618 160.648171 
L 108.447016 154.938152 
L 111.754175 155.997476 
L 110.513991 164.321356 
L 106.939847 165.776856 
L 104.32168 163.877824 
z
" clip-path="url(#paf84ae3ca5)" style="fill: #ffeadb; stroke: #000000; stroke-width: 0.5"/>
    <path d="M 61.350142 138.975089 
L 68.274506 133.20908 
L 75.806045 132.408129 
L 75.948149 134.470804 
L 70.677364 140.361683 
L 66.349637 139.638245 
z
" clip-path="url(#paf84ae3ca5)" style="fill: #ffeadb; stroke: #000000; stroke-width: 0.5"/>
   </g>
  </g>
 </g>
 <defs>
  <clipPath id="paf84ae3ca5">
   <rect x="0" y="0" width="357.12" height="203.706918"/>
  </clipPath>
 </defs>
</svg>
