<?xml version="1.0" encoding="utf-8" standalone="no"?>
<!DOCTYPE svg PUBLIC "-//W3C//DTD SVG 1.1//EN"
  "http://www.w3.org/Graphics/SVG/1.1/DTD/svg11.dtd">
<svg xmlns:xlink="http://www.w3.org/1999/xlink" width="357.12pt" height="258.416734pt" viewBox="0 0 357.12 258.416734" xmlns="http://www.w3.org/2000/svg" version="1.1">
 <metadata>
  <rdf:RDF xmlns:dc="http://purl.org/dc/elements/1.1/" xmlns:cc="http://creativecommons.org/ns#" xmlns:rdf="http://www.w3.org/1999/02/22-rdf-syntax-ns#">
   <cc:Work>
    <dc:type rdf:resource="http://purl.org/dc/dcmitype/StillImage"/>
    <dc:date>2025-06-04T13:24:50.413675</dc:date>
    <dc:format>image/svg+xml</dc:format>
    <dc:creator>
     <cc:Agent>
      <dc:title>Matplotlib v3.10.3, https://matplotlib.org/</dc:title>
     </cc:Agent>
    </dc:creator>
   </cc:Work>
  </rdf:RDF>
 </metadata>
 <defs>
  <style type="text/css">*{stroke-linejoin: round; stroke-linecap: butt}</style>
 </defs>
 <g id="figure_1">
  <g id="patch_1">
   <path d="M 0 258.416734 
L 357.12 258.416734 
L 357.12 0 
L 0 0 
L 0 258.416734 
z
" style="fill: none"/>
  </g>
  <g id="axes_1">
   <g id="PatchCollection_1">
    <path d="M 16.232727 200.74152 
L 24.77981 185.227906 
L 23.398558 180.37035 
L 33.201751 175.225433 
L 49.197404 173.640231 
L 68.636922 180.880226 
L 75.195556 181.158314 
L 76.590717 183.244118 
L 89.847039 185.265003 
L 94.356971 188.226825 
L 101.645171 187.707539 
L 105.62021 184.32872 
L 115.006241 182.715694 
L 119.066571 183.6798 
L 116.823194 187.114401 
L 104.466075 187.378595 
L 108.985276 189.260436 
L 111.571649 192.542065 
L 116.980787 192.894348 
L 125.870864 190.020578 
L 143.887416 191.336967 
L 153.259542 194.516614 
L 166.844955 194.572225 
L 174.701415 197.793624 
L 179.493319 197.430767 
L 187.508136 196.069375 
L 197.37158 198.335908 
L 196.782928 200.199236 
L 204.018283 198.76235 
L 213.775122 200.74152 
L 221.256138 197.293022 
L 228.208755 186.530366 
L 250.823302 187.378595 
L 252.380689 185.821215 
L 257.470005 189.784206 
L 259.472358 189.26971 
L 262.137526 171.818624 
L 250.401508 168.003956 
L 243.838241 162.112796 
L 241.071099 162.418708 
L 237.177632 160.16142 
L 229.404606 148.346599 
L 219.351052 142.093824 
L 207.105247 129.713603 
L 206.558304 126.793475 
L 218.164542 123.901205 
L 219.221337 122.227922 
L 218.544616 120.086516 
L 212.926902 117.166425 
L 208.264015 109.323885 
L 212.222373 103.098985 
L 218.44728 102.320265 
L 216.811097 99.247206 
L 211.999888 97.448811 
L 211.731051 92.860066 
L 212.22237 91.432465 
L 214.984877 93.087196 
L 217.367308 92.058213 
L 216.551535 87.168214 
L 222.336113 89.096411 
L 220.139083 84.952622 
L 213.103038 83.988558 
L 206.966193 78.236412 
L 185.617022 67.000976 
L 172.105597 64.080863 
L 168.884389 65.693874 
L 160.680302 61.740161 
L 158.381302 63.858387 
L 153.48666 64.465585 
L 138.413385 62.801584 
L 133.713417 59.172329 
L 132.540742 53.179172 
L 137.208266 45.721328 
L 144.27676 42.221847 
L 137.986959 42.221847 
L 146.61284 40.733989 
L 160.490265 34.7084 
L 166.831052 28.928458 
L 169.496222 30.907636 
L 186.803604 31.264534 
L 189.593919 32.891433 
L 192.555736 30.026975 
L 211.378787 28.219282 
L 223.003562 30.787107 
L 235.397527 35.987402 
L 240.820802 40.724715 
L 255.912619 43.422345 
L 262.137526 50.06903 
L 259.806082 50.06903 
L 261.748182 53.888349 
L 264.190865 54.166436 
L 265.252301 51.552269 
L 263.764441 51.552269 
L 263.764442 48.52094 
L 268.492219 49.596256 
L 274.870089 46.101428 
L 276.399661 47.325061 
L 275.43093 50.06903 
L 277.36376 51.162928 
L 284.121701 50.625236 
L 294.319689 54.632262 
L 297.6654 56.293935 
L 303.324831 52.321677 
L 315.185997 54.286965 
L 314.323871 56.901132 
L 309.790767 57.072651 
L 310.986617 59.158435 
L 316.789734 58.551238 
L 320.117721 60.93831 
L 321.044735 58.198959 
L 317.726019 56.877964 
L 317.503537 54.73657 
L 327.408698 54.852445 
L 328.706637 61.811616 
L 333.587954 83.425061 
L 333.511429 88.511046 
L 330.138437 95.251149 
L 325.234941 98.43577 
L 328.31072 103.880271 
L 332.069224 107.518712 
L 339.449498 110.918148 
L 340.887273 111.580411 
L 340.369258 118.373502 
L 338.35017 122.346911 
L 324.416708 136.162636 
L 315.110075 139.794652 
L 315.44561 141.769605 
L 322.98628 140.633502 
L 330.768294 151.226315 
L 331.074397 164.565253 
L 328.931693 168.612253 
L 324.280459 171.655145 
L 323.496577 172.116322 
L 317.823773 179.258063 
L 313.414749 180.691456 
L 304.849818 179.187429 
L 298.657169 181.441982 
L 310.706935 194.430648 
L 309.782749 200.588 
L 315.934192 202.545267 
L 319.548533 206.804181 
L 331.592413 212.7496 
L 332.887454 213.971058 
L 331.546418 216.166856 
L 331.478408 216.278215 
L 325.517494 226.703665 
L 327.042109 239.765909 
L 325.26729 245.182639 
L 311.969253 231.110561 
L 291.602718 222.595905 
L 240.681752 225.692159 
L 237.02004 224.051341 
L 236.102293 229.998134 
L 229.919098 228.579795 
L 213.775123 229.585619 
L 214.553818 231.917076 
L 211.378787 231.068844 
L 208.226934 233.006301 
L 198.864075 233.543966 
L 184.949836 229.028516 
L 171.563467 228.028235 
L 167.252844 225.692159 
L 152.12395 223.365357 
L 145.328924 224.032793 
L 144.874688 222.271479 
L 150.501669 221.029247 
L 142.890871 220.250555 
L 133.667067 220.320095 
L 125.926489 223.365357 
L 123.201062 220.18105 
L 120.012126 224.95053 
L 115.284349 224.375802 
L 115.353872 221.029247 
L 110.686351 225.692159 
L 112.243737 220.18105 
L 91.60837 233.474461 
L 89.624556 236.589231 
L 94.417227 241.460696 
L 95.441576 246.350678 
L 86.389271 246.670519 
L 83.34866 245.196567 
L 71.019351 229.177725 
L 59.987865 221.446416 
L 53.072328 219.397704 
L 51.060707 216.245875 
L 44.367653 213.891252 
L 32.158855 216.653735 
L 20.392528 208.534009 
z
" clip-path="url(#pe3c3534da7)" style="fill: #ffeadb; stroke: #000000; stroke-width: 0.5"/>
    <path d="M 152.12395 142.974562 
L 157.848272 139.340663 
L 162.993205 139.308186 
L 203.397182 155.438263 
L 206.70663 159.308572 
L 207.652184 167.591443 
L 205.102892 170.32151 
L 202.303303 166.761763 
L 181.603044 163.127857 
L 171.563465 156.972471 
L 161.421915 154.353663 
L 156.402126 149.584171 
L 152.842386 146.654799 
z
" clip-path="url(#pe3c3534da7)" style="fill: #ffeadb; stroke: #000000; stroke-width: 0.5"/>
    <path d="M 190.381883 14.856352 
L 202.887324 11.746215 
L 208.375257 11.894538 
L 228.292187 20.891224 
L 226.999002 23.556408 
L 203.601126 17.901599 
L 197.32523 18.365107 
z
" clip-path="url(#pe3c3534da7)" style="fill: #ffeadb; stroke: #000000; stroke-width: 0.5"/>
    <path d="M 105.254037 238.920654 
L 106.134704 237.316932 
L 114.227548 238.920654 
L 118.399119 239.476868 
L 120.02603 242.02615 
L 109.861307 242.461868 
z
" clip-path="url(#pe3c3534da7)" style="fill: #ffeadb; stroke: #000000; stroke-width: 0.5"/>
    <path d="M 95.135664 178.043555 
L 101.573788 177.107272 
L 104.42436 178.632209 
L 104.466074 181.158314 
L 98.208718 182.632261 
L 95.372052 181.093429 
z
" clip-path="url(#pe3c3534da7)" style="fill: #ffeadb; stroke: #000000; stroke-width: 0.5"/>
   </g>
  </g>
 </g>
 <defs>
  <clipPath id="pe3c3534da7">
   <rect x="0" y="0" width="357.12" height="258.416734"/>
  </clipPath>
 </defs>
</svg>
