<?xml version="1.0" encoding="utf-8" standalone="no"?>
<!DOCTYPE svg PUBLIC "-//W3C//DTD SVG 1.1//EN"
  "http://www.w3.org/Graphics/SVG/1.1/DTD/svg11.dtd">
<svg xmlns:xlink="http://www.w3.org/1999/xlink" width="357.12pt" height="148.839906pt" viewBox="0 0 357.12 148.839906" xmlns="http://www.w3.org/2000/svg" version="1.1">
 <metadata>
  <rdf:RDF xmlns:dc="http://purl.org/dc/elements/1.1/" xmlns:cc="http://creativecommons.org/ns#" xmlns:rdf="http://www.w3.org/1999/02/22-rdf-syntax-ns#">
   <cc:Work>
    <dc:type rdf:resource="http://purl.org/dc/dcmitype/StillImage"/>
    <dc:date>2025-06-04T13:24:48.569524</dc:date>
    <dc:format>image/svg+xml</dc:format>
    <dc:creator>
     <cc:Agent>
      <dc:title>Matplotlib v3.10.3, https://matplotlib.org/</dc:title>
     </cc:Agent>
    </dc:creator>
   </cc:Work>
  </rdf:RDF>
 </metadata>
 <defs>
  <style type="text/css">*{stroke-linejoin: round; stroke-linecap: butt}</style>
 </defs>
 <g id="figure_1">
  <g id="patch_1">
   <path d="M 0 148.839906 
L 357.12 148.839906 
L 357.12 0 
L 0 0 
L 0 148.839906 
z
" style="fill: none"/>
  </g>
  <g id="axes_1">
   <g id="PatchCollection_1">
    <defs>
     <path id="m5e1d26a563" d="M 16.232727 -60.413702 
L 22.450306 -64.160577 
L 24.888863 -67.187753 
L 31.620863 -66.475472 
L 35.009122 -66.911987 
L 34.108884 -67.862931 
L 32.056143 -68.133742 
L 35.335582 -69.333237 
L 33.475749 -70.891338 
L 36.117107 -73.563611 
L 35.533437 -74.144809 
L 32.486477 -73.956844 
L 32.877239 -75.458067 
L 31.487312 -75.939104 
L 31.89786 -78.617561 
L 34.380934 -80.228837 
L 32.041304 -83.502091 
L 32.501316 -85.974036 
L 33.58457 -86.69126 
L 34.796429 -85.756399 
L 41.738606 -88.304737 
L 42.403935 -88.657436 
L 42.211027 -90.585283 
L 44.150001 -91.382881 
L 44.713886 -92.730767 
L 42.868893 -94.095964 
L 41.89446 -96.749695 
L 38.42578 -97.124718 
L 31.249886 -98.631775 
L 32.748635 -100.026661 
L 33.485642 -99.609925 
L 36.280337 -100.769841 
L 37.150897 -102.539405 
L 38.906856 -103.076083 
L 44.748511 -101.897612 
L 46.036802 -100.339862 
L 49.897675 -99.308191 
L 52.42032 -101.101248 
L 53.117757 -99.847342 
L 54.933073 -99.622291 
L 63.198446 -100.888559 
L 62.011318 -101.965629 
L 61.536468 -105.32174 
L 62.253691 -105.859658 
L 59.785455 -108.296975 
L 62.827468 -109.174948 
L 63.77717 -111.13742 
L 63.13909 -111.591254 
L 64.172879 -112.721492 
L 63.688136 -113.411516 
L 66.690578 -115.100694 
L 68.436645 -115.810505 
L 72.145475 -115.188738 
L 75.762208 -114.779184 
L 82.652492 -109.226893 
L 84.794268 -108.719894 
L 86.995399 -106.681989 
L 89.221261 -106.66714 
L 94.01361 -104.008225 
L 99.109042 -102.875762 
L 101.876215 -102.996119 
L 118.741158 -103.061252 
L 133.896813 -104.926023 
L 140.609029 -104.213751 
L 144.190195 -106.335736 
L 146.451333 -106.809147 
L 143.285011 -108.653113 
L 143.017907 -113.454788 
L 145.461411 -114.512082 
L 147.578454 -116.755249 
L 152.13118 -117.441281 
L 156.219358 -117.974806 
L 165.959139 -117.739578 
L 169.342452 -119.040471 
L 175.802402 -118.948964 
L 178.364618 -120.168241 
L 179.907884 -124.601425 
L 185.136189 -125.704458 
L 188.188096 -124.263838 
L 191.516998 -124.427064 
L 192.367772 -123.737039 
L 192.001742 -122.449759 
L 195.81044 -122.146784 
L 198.624923 -120.789021 
L 205.001361 -123.322391 
L 208.206027 -124.545775 
L 209.605848 -126.645506 
L 211.346968 -126.519379 
L 214.13177 -127.80543 
L 216.204296 -126.922501 
L 217.297443 -127.303379 
L 219.88439 -129.459986 
L 223.297381 -135.383256 
L 225.46899 -137.036742 
L 226.220683 -140.018008 
L 240.693741 -142.074456 
L 256.259946 -138.248442 
L 261.552553 -139.665566 
L 263.555831 -138.922383 
L 266.429668 -141.046843 
L 271.346353 -141.702238 
L 274.927519 -140.448332 
L 276.00088 -138.773985 
L 279.344621 -138.435159 
L 280.383359 -135.914997 
L 283.45505 -132.660285 
L 287.352784 -130.814058 
L 295.504389 -132.687484 
L 302.612314 -132.825991 
L 305.243778 -134.213436 
L 306.460518 -134.090149 
L 308.552896 -134.852762 
L 311.896639 -134.149148 
L 311.174469 -131.939353 
L 313.182691 -131.549821 
L 313.632812 -128.896107 
L 315.977387 -126.474856 
L 321.927861 -126.45012 
L 325.484298 -123.319084 
L 327.863497 -119.484407 
L 334.575712 -120.405665 
L 338.656463 -118.307178 
L 340.120587 -116.198795 
L 338.72571 -113.831947 
L 340.887273 -112.291166 
L 338.898835 -110.171652 
L 335.431434 -108.846022 
L 334.867548 -106.592952 
L 332.572436 -106.090897 
L 329.406762 -103.90707 
L 325.830542 -103.220767 
L 320.631915 -104.665108 
L 319.162845 -104.433862 
L 317.832273 -102.190687 
L 311.955995 -101.619387 
L 308.834839 -99.225345 
L 306.907751 -95.450724 
L 306.264971 -94.845316 
L 303.651051 -94.306189 
L 299.263626 -91.74397 
L 298.353495 -90.572917 
L 298.961898 -85.829354 
L 298.002304 -84.502493 
L 295.009754 -83.716022 
L 292.289255 -81.215637 
L 290.266191 -75.247845 
L 287.580317 -72.016639 
L 281.382713 -67.91073 
L 283.158268 -66.663433 
L 282.065121 -64.25208 
L 279.260533 -62.619781 
L 278.948913 -59.703901 
L 276.70821 -59.085606 
L 275.095696 -57.663527 
L 273.542538 -54.682107 
L 275.204516 -53.736114 
L 275.041286 -52.79136 
L 271.297359 -50.624494 
L 269.981157 -49.098903 
L 265.430502 -48.025537 
L 264.97049 -45.287725 
L 262.759466 -41.945219 
L 264.461016 -39.050366 
L 259.583901 -37.521938 
L 257.941709 -32.701705 
L 255.775202 -32.348042 
L 252.629315 -30.193899 
L 250.987122 -31.163388 
L 245.051486 -31.296937 
L 243.354884 -32.095776 
L 240.850929 -31.727826 
L 238.551965 -30.488207 
L 238.809176 -28.324176 
L 237.162037 -28.123847 
L 236.878548 -27.187729 
L 235.880929 -26.046373 
L 231.889214 -25.326679 
L 225.592494 -27.456088 
L 224.425152 -26.152721 
L 216.723665 -26.004332 
L 214.789637 -24.295361 
L 212.187849 -25.841099 
L 209.774025 -25.65314 
L 208.661093 -26.40746 
L 206.20275 -26.076052 
L 199.777424 -26.949085 
L 197.121196 -26.444292 
L 193.139405 -25.299473 
L 189.379517 -26.717923 
L 186.313424 -27.443721 
L 180.447037 -26.607787 
L 178.641615 -25.546792 
L 179.2055 -24.320094 
L 177.024154 -22.833711 
L 174.679578 -22.005197 
L 173.442987 -20.73398 
L 169.58628 -20.181004 
L 167.9179 -18.233594 
L 166.587328 -18.055525 
L 162.392812 -18.359726 
L 159.543707 -20.024177 
L 157.688821 -18.792533 
L 157.63441 -17.372925 
L 154.43906 -16.766996 
L 154.71111 -15.475995 
L 150.585843 -15.829662 
L 146.811918 -14.603477 
L 145.970886 -14.98878 
L 144.566119 -13.514765 
L 138.828338 -14.699418 
L 134.895979 -10.349089 
L 132.828399 -9.112499 
L 130.508555 -9.139705 
L 126.803729 -6.76545 
L 125.023039 -7.549451 
L 122.653731 -7.027608 
L 117.558976 -8.850343 
L 111.301827 -8.197423 
L 102.962737 -9.17433 
L 100.657254 -8.197423 
L 98.317624 -10.240272 
L 90.923091 -12.04453 
L 90.497424 -13.945096 
L 87.880798 -16.069559 
L 84.091884 -16.917862 
L 80.011134 -17.051411 
L 79.031754 -16.425698 
L 78.215604 -17.355613 
L 76.118346 -17.001948 
L 75.762208 -18.386933 
L 75.247786 -17.783475 
L 74.265476 -18.160939 
L 73.476988 -18.713391 
L 74.75315 -19.010174 
L 72.79439 -19.697715 
L 71.48855 -22.962317 
L 69.574308 -24.700964 
L 65.152259 -25.015058 
L 62.125085 -26.466816 
L 53.815268 -34.0572 
L 52.862817 -36.579173 
L 48.552264 -38.079636 
L 47.869666 -37.39828 
L 43.284387 -41.338054 
L 40.173125 -42.237059 
L 39.376761 -41.647202 
L 36.394104 -43.133589 
L 35.701613 -45.196222 
L 29.547595 -49.576873 
L 31.000659 -50.85794 
L 31.116335 -52.013547 
L 29.259038 -52.454425 
L 29.219157 -52.466179 
L 26.065576 -56.428782 
L 26.621099 -57.290684 
L 27.515382 -59.055928 
L 25.965184 -59.660368 
L 24.750365 -60.470585 
L 20.322331 -60.207655 
L 17.965722 -60.12343 
z
" style="stroke: #000000; stroke-width: 0.5"/>
    </defs>
    <g clip-path="url(#pb9d67fa3bd)">
     <use xlink:href="#m5e1d26a563" x="0" y="148.839906" style="fill: #ffeadb; stroke: #000000; stroke-width: 0.5"/>
    </g>
   </g>
  </g>
 </g>
 <defs>
  <clipPath id="pb9d67fa3bd">
   <rect x="0" y="-0" width="357.12" height="148.839906"/>
  </clipPath>
 </defs>
</svg>
