<?xml version="1.0" encoding="utf-8" standalone="no"?>
<!DOCTYPE svg PUBLIC "-//W3C//DTD SVG 1.1//EN"
  "http://www.w3.org/Graphics/SVG/1.1/DTD/svg11.dtd">
<svg xmlns:xlink="http://www.w3.org/1999/xlink" width="245.195805pt" height="266.112pt" viewBox="0 0 245.195805 266.112" xmlns="http://www.w3.org/2000/svg" version="1.1">
 <metadata>
  <rdf:RDF xmlns:dc="http://purl.org/dc/elements/1.1/" xmlns:cc="http://creativecommons.org/ns#" xmlns:rdf="http://www.w3.org/1999/02/22-rdf-syntax-ns#">
   <cc:Work>
    <dc:type rdf:resource="http://purl.org/dc/dcmitype/StillImage"/>
    <dc:date>2025-06-04T13:24:43.557420</dc:date>
    <dc:format>image/svg+xml</dc:format>
    <dc:creator>
     <cc:Agent>
      <dc:title>Matplotlib v3.10.3, https://matplotlib.org/</dc:title>
     </cc:Agent>
    </dc:creator>
   </cc:Work>
  </rdf:RDF>
 </metadata>
 <defs>
  <style type="text/css">*{stroke-linejoin: round; stroke-linecap: butt}</style>
 </defs>
 <g id="figure_1">
  <g id="patch_1">
   <path d="M 0 266.112 
L 245.195805 266.112 
L 245.195805 0 
L 0 0 
L 0 266.112 
z
" style="fill: none"/>
  </g>
  <g id="axes_1">
   <g id="PatchCollection_1">
    <path d="M 207.646432 222.418936 
L 210.203692 222.77976 
L 219.695366 229.274905 
L 222.142805 231.628194 
L 223.319459 236.287742 
L 222.142806 252.698154 
L 224.135273 250.972397 
L 228.826199 244.696903 
L 229.594946 243.771272 
L 230.222494 243.284913 
L 230.787288 242.563236 
L 231.289327 240.994377 
L 231.838432 242.076877 
L 232.120829 243.159406 
L 232.026697 244.430195 
L 231.352082 245.983387 
L 229.814587 247.803259 
L 224.307848 252.619705 
L 222.142805 254.016 
L 220.99753 248.572022 
L 222.142806 237.542864 
L 220.824954 232.946069 
L 219.554168 231.86354 
L 215.161327 229.463165 
L 213.529701 229.008197 
L 211.803941 227.909972 
z
" clip-path="url(#pff2ba49593)" style="fill: #ffeadb; stroke: #000000; stroke-width: 0.5"/>
    <path d="M 223.460658 214.40199 
L 232.042385 224.332952 
L 234.050541 227.784466 
L 231.038308 240.460961 
L 228.92033 236.350495 
L 232.481669 228.992501 
z
" clip-path="url(#pff2ba49593)" style="fill: #ffeadb; stroke: #000000; stroke-width: 0.5"/>
    <path d="M 11.145264 15.673035 
L 15.412594 12.096 
L 13.592703 16.520218 
z
" clip-path="url(#pff2ba49593)" style="fill: #ffeadb; stroke: #000000; stroke-width: 0.5"/>
   </g>
  </g>
 </g>
 <defs>
  <clipPath id="pff2ba49593">
   <rect x="0" y="-0" width="245.195805" height="266.112"/>
  </clipPath>
 </defs>
</svg>
