<?xml version="1.0" encoding="utf-8" standalone="no"?>
<!DOCTYPE svg PUBLIC "-//W3C//DTD SVG 1.1//EN"
  "http://www.w3.org/Graphics/SVG/1.1/DTD/svg11.dtd">
<svg xmlns:xlink="http://www.w3.org/1999/xlink" width="313.133194pt" height="266.112pt" viewBox="0 0 313.133194 266.112" xmlns="http://www.w3.org/2000/svg" version="1.1">
 <metadata>
  <rdf:RDF xmlns:dc="http://purl.org/dc/elements/1.1/" xmlns:cc="http://creativecommons.org/ns#" xmlns:rdf="http://www.w3.org/1999/02/22-rdf-syntax-ns#">
   <cc:Work>
    <dc:type rdf:resource="http://purl.org/dc/dcmitype/StillImage"/>
    <dc:date>2025-06-04T13:24:51.289443</dc:date>
    <dc:format>image/svg+xml</dc:format>
    <dc:creator>
     <cc:Agent>
      <dc:title>Matplotlib v3.10.3, https://matplotlib.org/</dc:title>
     </cc:Agent>
    </dc:creator>
   </cc:Work>
  </rdf:RDF>
 </metadata>
 <defs>
  <style type="text/css">*{stroke-linejoin: round; stroke-linecap: butt}</style>
 </defs>
 <g id="figure_1">
  <g id="patch_1">
   <path d="M 0 266.112 
L 313.133194 266.112 
L 313.133194 0 
L 0 0 
L 0 266.112 
z
" style="fill: none"/>
  </g>
  <g id="axes_1">
   <g id="PatchCollection_1">
    <defs>
     <path id="md83dd395fb" d="M 14.233327 -137.49943 
L 54.94058 -157.89084 
L 69.9986 -165.435465 
L 77.997297 -167.483265 
L 84.952165 -178.871412 
L 84.605573 -189.517747 
L 86.338926 -198.400384 
L 87.985679 -200.966285 
L 89.428306 -203.052504 
L 89.464404 -207.966334 
L 85.893718 -216.240279 
L 87.069909 -224.32471 
L 89.641885 -228.381211 
L 91.082794 -229.348334 
L 102.79657 -231.454048 
L 119.08072 -244.908744 
L 118.511199 -246.305335 
L 124.449306 -247.371725 
L 128.943498 -253.445203 
L 130.570912 -254.016 
L 131.431246 -253.846792 
L 131.807266 -253.198533 
L 135.386977 -252.422427 
L 138.485382 -253.589596 
L 140.561013 -253.906204 
L 145.086789 -252.088522 
L 146.65404 -252.48259 
L 147.770219 -251.949635 
L 151.178314 -250.187364 
L 152.631255 -250.494196 
L 154.514364 -249.78277 
L 158.95892 -249.817363 
L 160.777352 -248.916415 
L 163.229003 -249.650409 
L 166.044641 -252.199823 
L 168.333983 -252.235411 
L 171.693966 -251.229692 
L 173.164956 -249.995594 
L 173.553009 -248.042548 
L 171.832341 -246.864852 
L 171.564615 -245.654068 
L 173.405609 -242.457145 
L 174.975869 -242.229279 
L 176.311491 -244.3395 
L 179.55128 -245.326176 
L 182.023988 -247.285996 
L 184.087586 -248.295234 
L 187.682337 -247.971857 
L 188.623891 -247.234857 
L 188.228318 -246.397084 
L 188.635924 -245.402134 
L 189.664715 -244.371089 
L 190.791271 -244.477879 
L 192.152463 -243.567908 
L 191.623027 -242.154075 
L 192.038153 -239.810716 
L 190.60326 -238.273545 
L 190.519032 -237.047723 
L 193.181254 -236.581455 
L 195.320056 -235.585755 
L 196.766981 -233.442442 
L 195.816402 -230.237246 
L 195.238835 -229.996592 
L 195.707915 -229.022698 
L 197.867968 -226.013791 
L 198.656105 -225.714476 
L 201.871828 -226.249929 
L 202.383216 -225.728016 
L 202.911148 -223.070307 
L 203.658675 -221.999399 
L 202.954766 -221.630901 
L 204.085834 -220.597597 
L 204.296405 -218.084279 
L 205.568857 -216.545606 
L 204.732589 -214.901647 
L 204.750638 -213.827734 
L 205.896747 -213.325371 
L 208.619132 -214.337616 
L 210.024993 -214.156627 
L 214.257928 -212.054424 
L 216.708074 -208.617599 
L 219.726763 -208.483738 
L 220.994703 -209.202688 
L 224.679699 -209.282402 
L 226.295081 -209.843425 
L 227.884893 -209.529073 
L 228.294003 -208.629633 
L 229.295721 -208.104709 
L 232.726527 -209.00114 
L 233.839547 -208.668739 
L 233.657553 -207.348156 
L 231.460092 -205.719237 
L 225.016612 -204.851382 
L 224.314207 -203.545842 
L 224.51425 -201.545415 
L 223.3531 -201.736434 
L 224.087091 -200.349672 
L 223.476435 -199.544989 
L 223.867496 -198.436482 
L 225.729547 -195.998369 
L 228.033797 -194.163391 
L 228.182943 -193.187539 
L 227.48932 -191.71174 
L 229.462673 -191.186816 
L 228.331605 -188.717116 
L 228.933237 -188.141054 
L 228.701609 -187.789099 
L 226.474066 -187.477755 
L 224.804537 -186.665551 
L 222.009957 -187.434136 
L 221.599343 -186.257946 
L 220.375022 -185.511922 
L 220.722465 -183.971748 
L 220.176483 -182.180382 
L 219.734283 -181.69607 
L 218.604743 -182.071317 
L 217.408975 -182.27213 
L 217.126209 -180.26419 
L 215.122773 -179.603893 
L 214.722689 -178.00205 
L 213.69089 -176.767204 
L 215.444648 -174.799868 
L 215.849245 -171.832317 
L 210.002886 -173.008505 
L 210.084105 -170.170303 
L 209.380197 -169.386681 
L 207.569283 -168.720368 
L 208.841736 -165.696423 
L 209.380196 -165.367026 
L 210.610534 -165.755834 
L 211.81831 -164.206629 
L 210.759438 -161.005947 
L 211.279849 -159.84705 
L 208.67027 -157.820301 
L 207.653513 -155.619838 
L 206.501387 -155.017449 
L 207.76331 -154.005205 
L 209.56971 -154.001444 
L 212.159736 -150.080306 
L 213.381049 -149.054526 
L 214.208293 -146.994684 
L 216.521565 -145.106254 
L 216.810352 -143.653374 
L 219.174766 -144.895745 
L 221.217307 -145.044649 
L 221.102997 -144.150474 
L 222.438619 -142.714823 
L 220.245671 -141.070117 
L 221.608367 -140.54444 
L 223.502028 -141.11672 
L 225.100841 -139.441195 
L 225.591171 -137.390381 
L 229.315273 -133.764044 
L 229.40251 -131.580873 
L 227.60363 -130.12718 
L 225.418203 -129.75718 
L 225.795726 -129.110423 
L 228.041318 -128.476455 
L 228.014244 -127.583783 
L 226.740288 -126.521148 
L 227.35997 -125.351729 
L 232.494899 -125.502138 
L 235.585784 -124.695199 
L 242.017253 -121.515549 
L 245.372832 -119.579818 
L 256.278917 -111.387846 
L 258.082309 -110.823818 
L 261.364211 -111.682645 
L 263.635372 -110.926094 
L 265.762142 -108.867761 
L 265.35604 -106.991422 
L 268.311557 -104.17503 
L 267.943058 -101.901613 
L 270.530229 -100.587844 
L 271.623542 -98.794184 
L 273.087012 -97.936858 
L 275.916186 -93.62015 
L 277.531569 -92.440952 
L 278.01137 -91.302364 
L 273.402868 -80.340625 
L 273.330515 -75.353814 
L 273.228395 -68.315507 
L 283.104185 -68.151561 
L 283.143291 -52.865596 
L 286.548528 -52.388803 
L 287.709678 -51.20058 
L 288.571516 -48.792547 
L 291.645856 -48.46917 
L 294.643487 -45.253447 
L 293.840309 -43.594446 
L 295.936996 -39.405583 
L 298.20349 -38.238579 
L 298.899867 -38.097646 
L 298.665374 -37.464045 
L 294.735816 -37.57181 
L 288.837928 -40.07664 
L 286.215854 -40.673535 
L 283.861436 -40.436672 
L 281.845732 -39.482114 
L 280.850907 -42.4808 
L 281.234625 -39.190768 
L 274.931014 -41.941463 
L 273.264493 -42.222725 
L 264.068548 -42.045244 
L 257.853689 -39.461234 
L 253.317383 -31.000781 
L 252.983478 -29.409467 
L 249.376693 -23.197613 
L 245.255514 -18.15744 
L 240.878357 -13.872317 
L 240.033348 -13.045074 
L 236.973945 -12.474558 
L 234.940533 -12.096 
L 187.207048 -15.878766 
L 161.202736 -33.949833 
L 130.915307 -55.402653 
L 110.307946 -70.79423 
L 62.246571 -95.262606 
L 50.746375 -97.414942 
L 25.056687 -101.014209 
L 29.295185 -104.692433 
L 28.257369 -107.549433 
L 27.658745 -107.845737 
L 22.144788 -106.554485 
L 21.633401 -107.132052 
L 20.162411 -111.399881 
L 22.460645 -112.029338 
z
" style="stroke: #000000; stroke-width: 0.5"/>
    </defs>
    <g clip-path="url(#p10b4462d5a)">
     <use xlink:href="#md83dd395fb" x="0" y="266.112" style="fill: #ffeadb; stroke: #000000; stroke-width: 0.5"/>
    </g>
   </g>
  </g>
 </g>
 <defs>
  <clipPath id="p10b4462d5a">
   <rect x="0" y="-0" width="313.133194" height="266.112"/>
  </clipPath>
 </defs>
</svg>
