<?xml version="1.0" encoding="utf-8" standalone="no"?>
<!DOCTYPE svg PUBLIC "-//W3C//DTD SVG 1.1//EN"
  "http://www.w3.org/Graphics/SVG/1.1/DTD/svg11.dtd">
<svg xmlns:xlink="http://www.w3.org/1999/xlink" width="219.146291pt" height="266.112pt" viewBox="0 0 219.146291 266.112" xmlns="http://www.w3.org/2000/svg" version="1.1">
 <metadata>
  <rdf:RDF xmlns:dc="http://purl.org/dc/elements/1.1/" xmlns:cc="http://creativecommons.org/ns#" xmlns:rdf="http://www.w3.org/1999/02/22-rdf-syntax-ns#">
   <cc:Work>
    <dc:type rdf:resource="http://purl.org/dc/dcmitype/StillImage"/>
    <dc:date>2025-06-04T13:24:56.738792</dc:date>
    <dc:format>image/svg+xml</dc:format>
    <dc:creator>
     <cc:Agent>
      <dc:title>Matplotlib v3.10.3, https://matplotlib.org/</dc:title>
     </cc:Agent>
    </dc:creator>
   </cc:Work>
  </rdf:RDF>
 </metadata>
 <defs>
  <style type="text/css">*{stroke-linejoin: round; stroke-linecap: butt}</style>
 </defs>
 <g id="figure_1">
  <g id="patch_1">
   <path d="M 0 266.112 
L 219.146291 266.112 
L 219.146291 0 
L 0 0 
L 0 266.112 
z
" style="fill: none"/>
  </g>
  <g id="axes_1">
   <g id="PatchCollection_1">
    <path d="M 9.961195 135.208154 
L 11.700547 132.501745 
L 14.81353 128.805338 
L 14.57658 126.930338 
L 15.292582 125.933601 
L 15.96988 123.262525 
L 16.418097 122.410249 
L 19.573146 120.486314 
L 20.073304 118.843896 
L 20.332933 118.31255 
L 22.35989 117.122647 
L 23.43647 115.185832 
L 24.237288 112.533004 
L 24.582589 110.923299 
L 25.337225 109.978072 
L 26.647515 110.211534 
L 26.817419 109.965515 
L 27.155563 108.731506 
L 28.363496 108.455922 
L 29.731113 107.32268 
L 32.574519 106.753483 
L 32.888736 105.741292 
L 32.146896 103.26784 
L 32.103194 102.85024 
L 33.584135 101.638444 
L 34.683894 98.771211 
L 35.958791 98.186562 
L 37.079155 95.688281 
L 37.104911 90.844957 
L 37.771978 89.684674 
L 36.664492 88.165743 
L 36.800996 85.073151 
L 35.675481 82.361744 
L 34.099244 77.974296 
L 34.318166 77.358738 
L 35.639423 76.283446 
L 35.706387 75.718113 
L 34.797218 74.595176 
L 34.511332 72.879856 
L 34.261504 72.539889 
L 33.669128 72.966139 
L 33.092205 72.71116 
L 32.04138 70.527096 
L 30.884959 66.359855 
L 29.762019 65.659302 
L 29.146463 66.215625 
L 28.651957 66.178282 
L 27.261161 64.469401 
L 26.285962 60.26317 
L 25.471154 59.39428 
L 23.776442 58.727214 
L 23.258757 55.096974 
L 22.259444 53.015289 
L 22.622596 51.886553 
L 22.192479 50.809333 
L 23.044986 50.307101 
L 23.753262 48.580835 
L 23.647665 46.052932 
L 21.090144 44.387196 
L 19.928571 45.170162 
L 19.64011 45.006617 
L 18.694883 43.165103 
L 16.490213 43.36406 
L 17.152129 42.854101 
L 16.402644 42.191542 
L 17.592548 41.575985 
L 17.798592 40.899262 
L 17.247424 40.611446 
L 15.382727 41.038984 
L 14.803228 40.829718 
L 15.42136 39.184585 
L 14.213427 37.579379 
L 14.416896 35.579462 
L 13.711195 34.77203 
L 13.402129 33.087622 
L 12.119506 32.29821 
L 22.189904 22.318601 
L 29.294326 18.70966 
L 43.734156 13.308502 
L 44.175067 14.135213 
L 47.867695 12.096 
L 48.418834 12.757366 
L 47.481899 14.686348 
L 49.962022 14.686348 
L 51.835893 15.237491 
L 50.623388 18.323866 
L 52.827838 22.32221 
L 55.063747 23.092314 
L 55.34169 21.285679 
L 56.03655 20.799281 
L 57.009353 20.868764 
L 57.078692 22.324493 
L 60.557864 22.339205 
L 61.047218 25.11243 
L 63.660134 26.715533 
L 77.968578 26.724082 
L 78.700128 27.027949 
L 83.565247 27.001597 
L 87.840659 28.537912 
L 88.657108 29.500519 
L 89.342204 29.522417 
L 89.81353 30.673688 
L 111.790693 44.590024 
L 113.271634 46.521685 
L 114.909684 47.425702 
L 116.779533 47.219655 
L 123.483688 47.699353 
L 124.753434 47.144325 
L 125.054773 46.474684 
L 126.005151 47.503615 
L 128.825377 47.879002 
L 128.843406 47.193901 
L 130.36298 48.727641 
L 134.679601 49.894363 
L 139.544325 49.776015 
L 142.7591 51.012797 
L 143.709478 50.988331 
L 144.675249 50.432517 
L 145.162088 50.359896 
L 145.048763 51.077833 
L 148.927541 51.428754 
L 149.463255 52.378484 
L 150.655734 52.599983 
L 151.61899 50.28521 
L 156.334821 45.604147 
L 158.433894 41.080191 
L 166.258413 37.289631 
L 166.376888 36.889127 
L 171.324519 35.408835 
L 171.746909 34.748207 
L 179.671875 31.704551 
L 181.24296 30.6724 
L 183.293097 32.415398 
L 184.580872 34.136513 
L 187.277472 35.612942 
L 188.876888 37.84981 
L 191.192307 39.201333 
L 197.834649 39.046794 
L 201.741758 38.167887 
L 203.153159 38.53426 
L 204.569711 37.84981 
L 207.96171 39.032629 
L 209.185096 38.340454 
L 195.671188 57.680255 
L 186.267857 67.324401 
L 186.345123 106.793868 
L 186.625858 159.153038 
L 200.16037 176.64617 
L 200.486148 179.226404 
L 200.464762 179.724579 
L 198.552365 181.681593 
L 197.53837 183.486505 
L 194.175959 186.508213 
L 193.792669 186.037717 
L 192.898325 186.183732 
L 192.588042 185.360368 
L 191.760621 187.047658 
L 189.850253 186.735346 
L 187.453167 188.34963 
L 186.619662 187.416752 
L 187.282816 184.845259 
L 186.400639 185.522607 
L 186.29924 188.453058 
L 185.767906 189.116207 
L 185.305524 188.769423 
L 184.843142 187.236261 
L 183.666906 186.382475 
L 183.541171 187.753399 
L 183.946769 187.576962 
L 184.484187 187.942002 
L 184.21852 188.79173 
L 184.745798 189.294674 
L 184.936429 192.077076 
L 185.256852 192.705754 
L 186.055881 192.748342 
L 186.613578 193.32632 
L 185.755738 195.00144 
L 185.202096 195.110951 
L 185.123004 194.829061 
L 185.938257 194.421437 
L 185.163564 194.036115 
L 184.482159 192.979532 
L 183.717606 193.058625 
L 182.014093 194.530947 
L 181.496955 194.251082 
L 182.036401 195.017664 
L 181.983673 195.814667 
L 182.859766 196.631948 
L 182.567735 197.207897 
L 179.94757 198.919522 
L 178.42252 200.732542 
L 177.558595 201.061077 
L 175.258853 200.377646 
L 174.4436 200.462822 
L 171.924835 201.255767 
L 167.994587 203.965168 
L 166.570937 206.297355 
L 166.911639 207.566876 
L 166.262682 210.574387 
L 166.78996 210.973903 
L 166.962339 211.914889 
L 167.994587 211.480905 
L 168.014867 211.760762 
L 166.293102 213.882044 
L 166.027435 215.581499 
L 165.179734 216.786127 
L 165.273022 218.874962 
L 161.939003 221.513374 
L 161.498929 221.584355 
L 162.009983 219.864618 
L 161.365082 220.217493 
L 161.342774 222.160308 
L 158.870652 227.575045 
L 156.887276 226.855109 
L 156.751401 226.331884 
L 156.625665 227.169442 
L 157.42875 227.384413 
L 157.230007 228.029311 
L 158.724637 227.992806 
L 158.897016 229.530027 
L 156.887276 235.068473 
L 155.534606 235.796524 
L 155.031664 235.42134 
L 155.03572 234.575673 
L 154.329979 235.068473 
L 155.03572 236.260935 
L 155.86314 236.352189 
L 154.942432 238.067876 
L 154.265083 238.327452 
L 153.749973 236.404917 
L 153.315983 236.771986 
L 152.385135 236.376528 
L 152.358771 236.838909 
L 153.315983 237.112688 
L 153.129408 237.556817 
L 151.259599 238.124654 
L 151.429951 239.154874 
L 151.790933 238.668161 
L 152.618354 238.611375 
L 153.979136 239.325224 
L 151.839605 244.095064 
L 150.748545 247.859016 
L 150.310499 247.552791 
L 149.900845 248.049648 
L 148.52181 251.635134 
L 148.351459 250.089805 
L 147.499703 251.44856 
L 147.043405 251.363385 
L 147.414527 252.462556 
L 147.163056 252.807315 
L 145.374367 252.697808 
L 144.778138 251.959612 
L 144.609815 252.470671 
L 143.87771 252.249621 
L 142.040349 254.016 
L 122.741628 240.122535 
L 106.662774 228.546068 
L 105.101992 225.349811 
L 104.105254 224.984082 
L 102.379636 225.007261 
L 102.606284 223.765844 
L 101.890281 223.33573 
L 102.034512 222.503825 
L 103.080185 221.440125 
L 104.143887 221.087273 
L 104.195398 220.294006 
L 104.895948 220.046753 
L 104.396067 217.00097 
L 103.520604 213.358048 
L 98.021948 210.287679 
L 43.750126 179.986745 
L 30.605513 172.650063 
L 13.999657 163.379514 
L 13.075034 163.307399 
L 12.691277 162.436862 
L 10.303743 162.436862 
L 10.069368 153.968456 
L 11.506525 140.336073 
z
" clip-path="url(#p1df99f55d0)" style="fill: #ffeadb; stroke: #000000; stroke-width: 0.5"/>
    <path d="M 186.066021 191.62889 
L 186.364135 190.278247 
L 186.704838 189.718521 
L 188.256252 189.031032 
L 188.475275 188.528092 
L 189.442627 188.240116 
L 190.70201 188.775506 
L 191.1867 189.558311 
L 191.000124 190.08559 
L 190.541798 190.170765 
L 190.205152 189.627263 
L 189.74277 190.633147 
L 189.168848 190.320835 
L 187.021205 190.876507 
L 186.785958 191.428121 
L 187.378131 191.957425 
L 186.972533 192.206868 
L 186.619662 191.513296 
z
" clip-path="url(#p1df99f55d0)" style="fill: #ffeadb; stroke: #000000; stroke-width: 0.5"/>
   </g>
  </g>
 </g>
 <defs>
  <clipPath id="p1df99f55d0">
   <rect x="0" y="-0" width="219.146291" height="266.112"/>
  </clipPath>
 </defs>
</svg>
