<?xml version="1.0" encoding="utf-8" standalone="no"?>
<!DOCTYPE svg PUBLIC "-//W3C//DTD SVG 1.1//EN"
  "http://www.w3.org/Graphics/SVG/1.1/DTD/svg11.dtd">
<svg xmlns:xlink="http://www.w3.org/1999/xlink" width="357.12pt" height="131.84346pt" viewBox="0 0 357.12 131.84346" xmlns="http://www.w3.org/2000/svg" version="1.1">
 <metadata>
  <rdf:RDF xmlns:dc="http://purl.org/dc/elements/1.1/" xmlns:cc="http://creativecommons.org/ns#" xmlns:rdf="http://www.w3.org/1999/02/22-rdf-syntax-ns#">
   <cc:Work>
    <dc:type rdf:resource="http://purl.org/dc/dcmitype/StillImage"/>
    <dc:date>2025-06-04T13:25:10.610620</dc:date>
    <dc:format>image/svg+xml</dc:format>
    <dc:creator>
     <cc:Agent>
      <dc:title>Matplotlib v3.10.3, https://matplotlib.org/</dc:title>
     </cc:Agent>
    </dc:creator>
   </cc:Work>
  </rdf:RDF>
 </metadata>
 <defs>
  <style type="text/css">*{stroke-linejoin: round; stroke-linecap: butt}</style>
 </defs>
 <g id="figure_1">
  <g id="patch_1">
   <path d="M 0 131.84346 
L 357.12 131.84346 
L 357.12 0 
L 0 0 
L 0 131.84346 
z
" style="fill: none"/>
  </g>
  <g id="axes_1">
   <g id="PatchCollection_1">
    <defs>
     <path id="mee3727d4eb" d="M 16.232727 -22.519872 
L 16.657088 -24.813545 
L 18.813867 -29.463245 
L 21.502997 -26.790848 
L 24.335099 -27.566556 
L 23.203474 -30.596388 
L 24.818777 -33.530398 
L 25.554941 -32.882452 
L 26.510129 -32.897662 
L 38.10928 -36.076553 
L 39.140519 -35.992898 
L 43.33696 -33.880228 
L 46.114307 -33.755506 
L 48.549429 -32.129557 
L 54.472205 -30.839748 
L 54.770321 -30.318045 
L 54.338356 -29.66401 
L 52.932951 -28.968914 
L 52.275881 -28.006127 
L 52.415813 -27.105692 
L 53.051592 -26.932301 
L 53.748208 -28.098901 
L 55.976474 -28.442647 
L 57.076158 -29.134707 
L 57.826012 -32.348581 
L 58.606285 -32.914393 
L 60.486242 -33.401113 
L 62.320568 -34.59814 
L 66.357304 -34.8704 
L 67.835717 -36.149561 
L 67.230359 -36.864432 
L 68.295059 -37.694898 
L 70.004664 -37.920006 
L 74.354726 -37.614285 
L 75.909188 -39.396898 
L 76.774638 -38.631835 
L 79.185424 -38.505591 
L 81.4289 -37.527588 
L 82.481432 -36.347292 
L 83.780367 -35.845361 
L 85.891515 -35.688698 
L 86.93188 -37.468269 
L 87.868816 -36.455282 
L 88.249067 -34.20116 
L 88.845299 -34.001908 
L 91.275858 -35.14418 
L 93.058471 -37.182321 
L 98.427603 -36.913104 
L 98.261262 -37.562011 
L 96.641948 -38.282004 
L 96.596318 -39.139849 
L 99.921226 -40.72169 
L 100.79428 -42.397832 
L 102.753329 -43.223736 
L 104.592006 -43.376053 
L 105.512424 -42.869342 
L 104.100935 -42.375017 
L 109.470067 -41.310316 
L 110.41613 -43.36823 
L 108.569635 -44.927256 
L 108.764323 -46.264216 
L 108.228931 -47.566192 
L 109.101985 -47.865829 
L 111.05495 -46.344828 
L 115.11298 -44.822307 
L 116.281108 -44.874021 
L 117.017273 -45.51132 
L 117.421859 -46.854364 
L 119.040203 -46.474114 
L 119.898048 -46.775271 
L 120.241794 -48.737362 
L 120.944496 -49.558703 
L 124.09601 -50.307036 
L 130.779286 -52.892735 
L 131.679719 -53.797732 
L 131.279456 -54.433141 
L 128.881078 -54.463931 
L 127.405707 -55.460186 
L 123.48761 -53.93006 
L 123.438937 -55.282229 
L 117.245423 -55.371967 
L 116.104672 -55.752217 
L 113.929642 -58.001778 
L 112.098356 -58.415489 
L 112.055769 -59.541031 
L 109.50353 -59.930407 
L 107.653993 -61.425551 
L 106.400688 -59.974515 
L 103.625383 -59.468682 
L 102.732035 -59.262688 
L 103.33435 -61.066593 
L 102.534304 -64.811296 
L 101.065018 -65.062262 
L 98.865651 -63.891093 
L 97.195593 -65.02728 
L 94.859335 -64.7246 
L 94.092751 -65.005986 
L 93.368754 -69.342357 
L 90.372383 -72.609468 
L 89.937377 -72.560796 
L 89.678808 -71.783565 
L 88.927432 -72.451283 
L 88.215605 -71.80486 
L 88.732744 -73.81562 
L 88.200394 -75.392897 
L 86.904503 -75.2697 
L 85.964523 -73.81562 
L 87.199575 -71.975208 
L 85.672492 -68.803926 
L 84.860277 -68.162061 
L 83.856416 -68.013003 
L 80.764222 -69.506625 
L 80.843315 -64.052319 
L 80.68513 -63.030205 
L 80.025016 -62.599762 
L 78.011212 -63.912387 
L 76.56626 -62.61193 
L 75.54719 -64.437132 
L 74.51291 -64.837154 
L 73.90451 -64.58619 
L 73.740241 -62.464393 
L 72.061057 -63.938243 
L 69.165071 -64.867574 
L 65.913172 -64.963397 
L 63.391353 -66.613684 
L 61.681748 -66.301878 
L 61.264995 -67.217522 
L 61.645244 -69.645037 
L 58.661042 -73.155509 
L 52.861873 -71.198422 
L 49.142618 -73.81562 
L 43.907334 -74.592851 
L 43.3689 -75.541955 
L 43.987949 -76.30398 
L 52.358014 -80.240326 
L 53.912478 -82.403953 
L 58.105877 -85.400325 
L 62.963952 -86.346386 
L 63.890241 -89.60817 
L 67.765751 -90.016561 
L 71.924166 -92.332282 
L 75.449846 -93.431206 
L 75.79285 -94.553818 
L 69.78564 -97.278578 
L 68.851745 -97.182754 
L 66.901823 -96.018428 
L 64.262886 -97.281617 
L 64.10166 -97.72347 
L 65.166209 -98.680055 
L 66.667589 -100.129693 
L 66.375557 -100.849888 
L 67.318576 -102.492565 
L 67.765751 -102.805893 
L 69.645708 -102.100911 
L 70.327116 -102.557971 
L 68.532334 -105.301092 
L 72.640557 -106.449447 
L 72.824599 -108.66859 
L 74.661968 -109.47168 
L 75.662786 -110.705211 
L 78.14506 -110.407858 
L 80.347468 -112.110615 
L 83.278438 -111.955476 
L 85.614694 -111.073295 
L 88.851381 -112.608738 
L 93.390049 -113.263535 
L 100.958546 -110.799508 
L 102.701614 -111.233756 
L 106.476739 -111.115121 
L 111.903668 -108.804719 
L 119.234892 -107.930906 
L 123.61233 -104.726154 
L 125.607885 -104.491924 
L 130.691068 -104.927688 
L 132.869141 -104.042465 
L 136.175797 -103.639403 
L 136.905877 -101.332043 
L 141.341114 -100.460509 
L 142.171581 -100.574584 
L 142.17078 -101.122469 
L 139.595005 -105.084349 
L 139.452032 -107.178771 
L 142.125951 -112.087039 
L 141.815667 -115.056032 
L 143.777757 -118.656999 
L 145.967999 -119.986357 
L 153.843742 -122.002446 
L 154.826305 -124.02613 
L 155.717613 -124.532627 
L 157.910897 -123.500631 
L 163.033628 -124.112074 
L 161.999346 -125.850576 
L 168.527481 -122.843557 
L 173.166532 -121.533973 
L 174.730122 -119.860116 
L 177.750827 -118.144422 
L 182.134353 -117.436401 
L 192.194251 -113.591312 
L 201.946908 -113.05668 
L 205.18968 -112.440673 
L 207.586777 -113.693977 
L 208.852248 -115.959503 
L 209.925358 -116.286843 
L 215.578115 -115.723754 
L 217.5037 -116.204385 
L 223.094899 -115.827178 
L 225.625844 -115.253762 
L 226.876106 -115.500923 
L 227.79175 -114.777692 
L 229.747754 -115.703974 
L 232.823219 -115.051468 
L 236.44016 -115.606637 
L 237.793848 -116.404396 
L 238.943727 -116.472087 
L 240.136189 -117.316235 
L 243.76834 -117.809804 
L 248.687257 -116.938272 
L 250.296474 -115.592944 
L 251.273992 -115.497226 
L 254.69521 -115.132845 
L 257.810218 -115.834785 
L 261.944298 -114.846896 
L 263.489636 -115.397501 
L 266.047959 -115.42792 
L 268.031341 -115.075802 
L 268.877018 -114.359412 
L 271.052048 -115.005075 
L 275.371693 -113.870416 
L 281.233626 -114.174609 
L 283.630725 -113.747973 
L 287.113814 -114.635472 
L 291.962766 -113.739606 
L 294.694483 -112.396561 
L 303.695763 -110.99952 
L 304.812178 -110.970622 
L 307.105849 -111.82999 
L 309.0071 -111.838356 
L 309.086193 -109.72797 
L 309.977498 -108.036615 
L 314.294098 -105.706442 
L 316.432625 -102.536677 
L 320.737056 -101.945767 
L 324.402668 -102.249208 
L 330.921677 -101.207323 
L 335.603317 -97.714344 
L 338.240732 -94.857906 
L 339.527498 -94.292853 
L 340.887273 -91.197616 
L 340.141983 -89.706276 
L 338.690948 -89.332108 
L 331.301927 -89.399794 
L 328.713184 -88.768578 
L 327.827961 -88.055989 
L 326.95795 -85.921267 
L 325.905416 -85.175214 
L 321.886933 -84.818539 
L 315.40747 -82.02446 
L 312.21337 -82.342352 
L 309.670256 -80.753665 
L 306.5157 -79.959702 
L 303.202962 -78.171768 
L 301.426432 -77.91776 
L 298.232331 -76.307019 
L 294.253393 -75.129765 
L 293.456389 -74.69628 
L 292.695889 -73.353237 
L 289.492661 -72.656618 
L 285.063507 -70.39337 
L 284.45815 -69.407763 
L 284.756265 -67.240335 
L 282.575151 -66.017451 
L 281.279475 -64.369249 
L 279.651787 -62.386823 
L 276.153486 -60.292405 
L 269.497587 -61.135039 
L 264.177126 -59.197283 
L 259.857485 -58.724252 
L 254.838183 -59.88934 
L 252.194684 -59.44825 
L 248.535156 -59.624686 
L 245.265005 -60.582916 
L 240.945363 -59.670315 
L 238.1741 -57.653468 
L 238.046336 -54.778778 
L 235.448467 -53.260818 
L 234.672756 -52.360386 
L 233.541132 -47.423218 
L 231.980585 -46.49845 
L 229.629118 -42.685301 
L 224.831882 -39.953584 
L 223.651586 -42.625982 
L 222.790699 -42.834359 
L 220.058982 -40.683665 
L 217.123451 -41.333131 
L 214.498204 -40.365775 
L 212.715591 -38.645524 
L 208.894837 -38.977102 
L 206.23917 -38.434104 
L 204.958488 -41.212972 
L 205.801122 -43.100534 
L 204.359213 -44.387301 
L 203.997215 -46.607961 
L 202.649609 -48.47575 
L 201.58795 -48.484877 
L 200.352898 -47.923628 
L 191.877882 -42.835881 
L 190.235202 -43.502079 
L 188.066255 -42.91193 
L 186.241054 -43.013837 
L 182.614988 -44.714316 
L 181.235491 -44.803856 
L 179.913691 -42.232042 
L 181.869698 -40.409884 
L 182.113058 -39.448611 
L 177.51051 -39.59919 
L 173.379472 -37.116918 
L 170.766393 -34.923635 
L 166.562348 -32.607151 
L 161.670809 -32.979796 
L 156.052233 -31.13178 
L 155.090962 -28.967401 
L 153.594297 -27.438794 
L 153.226215 -25.875205 
L 151.79343 -24.659919 
L 151.397971 -23.551113 
L 151.720424 -22.401238 
L 153.603423 -21.324372 
L 154.430846 -17.549244 
L 152.925057 -16.508883 
L 151.978993 -14.415981 
L 145.925411 -13.611374 
L 142.381481 -14.172627 
L 138.12572 -13.477528 
L 137.404765 -13.091192 
L 136.911962 -11.920023 
L 132.245532 -10.875097 
L 129.398217 -11.326828 
L 127.579101 -10.675842 
L 124.175101 -11.126056 
L 122.456372 -10.899432 
L 116.524468 -12.02649 
L 114.817906 -10.99069 
L 113.147848 -11.472849 
L 111.90367 -10.602839 
L 109.445731 -10.741244 
L 107.182483 -10.0933 
L 104.602028 -5.992885 
L 103.854532 -7.503032 
L 100.660432 -8.511461 
L 99.337161 -11.272076 
L 96.669326 -10.595228 
L 92.191501 -8.446058 
L 90.548819 -8.48712 
L 89.36244 -9.862109 
L 90.45756 -11.586924 
L 90.226367 -13.611374 
L 89.176878 -13.924704 
L 84.753807 -13.488172 
L 83.533963 -13.920134 
L 82.922521 -14.945288 
L 84.078482 -16.694441 
L 83.439181 -17.633578 
L 81.425856 -18.388832 
L 79.28581 -17.824546 
L 75.775342 -15.555217 
L 73.735677 -15.809216 
L 71.261009 -15.49589 
L 70.290613 -15.003092 
L 68.711812 -12.412822 
L 67.765752 -12.038662 
L 65.593763 -12.802203 
L 62.481795 -11.757274 
L 60.778274 -11.78313 
L 59.552348 -12.747447 
L 59.601018 -14.312551 
L 58.300586 -14.974163 
L 57.316477 -17.001685 
L 56.601606 -17.42148 
L 54.490456 -17.357595 
L 53.051589 -18.110489 
L 50.316831 -17.217665 
L 48.725866 -17.283072 
L 45.577393 -15.693622 
L 45.069379 -15.841161 
L 45.32795 -17.813899 
L 44.911195 -18.648928 
L 42.903474 -16.604703 
L 40.193052 -17.29828 
L 38.380018 -16.145359 
L 36.290162 -16.55907 
L 34.014747 -16.198596 
L 29.275309 -17.42148 
L 26.710902 -17.296759 
L 24.712308 -16.238145 
L 21.703766 -15.868535 
L 20.216229 -16.688357 
L 19.571324 -15.958278 
L 18.412321 -15.591714 
L 17.995569 -16.300506 
L 18.035113 -20.364615 
z
M 67.053923 -32.17975 
L 68.276807 -30.109668 
L 69.787161 -29.613823 
L 69.92101 -28.755981 
L 68.66314 -27.233452 
L 68.711813 -26.485122 
L 69.082938 -26.340629 
L 70.232814 -27.0266 
L 71.349228 -26.183965 
L 74.57375 -26.574863 
L 74.944874 -27.838814 
L 73.648981 -28.911119 
L 73.580536 -29.67162 
L 75.620198 -31.224561 
L 75.023966 -31.551576 
L 73.423873 -31.108965 
L 71.557605 -31.759953 
L 68.690519 -34.491671 
L 67.765751 -34.103815 
z
M 53.243237 -26.381695 
L 53.431841 -25.438676 
L 56.124011 -22.977692 
L 59.750077 -24.61125 
L 59.576684 -25.682036 
L 57.251073 -25.453883 
z
M 88.027 -28.088258 
L 88.948726 -27.312545 
L 90.728296 -26.996176 
L 91.558763 -29.545373 
z
" style="stroke: #000000; stroke-width: 0.5"/>
    </defs>
    <g clip-path="url(#p6d41386f38)">
     <use xlink:href="#mee3727d4eb" x="0" y="131.84346" style="fill: #ffeadb; stroke: #000000; stroke-width: 0.5"/>
    </g>
   </g>
  </g>
 </g>
 <defs>
  <clipPath id="p6d41386f38">
   <rect x="0" y="-0" width="357.12" height="131.84346"/>
  </clipPath>
 </defs>
</svg>
