<?xml version="1.0" encoding="utf-8" standalone="no"?>
<!DOCTYPE svg PUBLIC "-//W3C//DTD SVG 1.1//EN"
  "http://www.w3.org/Graphics/SVG/1.1/DTD/svg11.dtd">
<svg xmlns:xlink="http://www.w3.org/1999/xlink" width="357.12pt" height="103.177593pt" viewBox="0 0 357.12 103.177593" xmlns="http://www.w3.org/2000/svg" version="1.1">
 <metadata>
  <rdf:RDF xmlns:dc="http://purl.org/dc/elements/1.1/" xmlns:cc="http://creativecommons.org/ns#" xmlns:rdf="http://www.w3.org/1999/02/22-rdf-syntax-ns#">
   <cc:Work>
    <dc:type rdf:resource="http://purl.org/dc/dcmitype/StillImage"/>
    <dc:date>2025-06-04T13:25:05.263045</dc:date>
    <dc:format>image/svg+xml</dc:format>
    <dc:creator>
     <cc:Agent>
      <dc:title>Matplotlib v3.10.3, https://matplotlib.org/</dc:title>
     </cc:Agent>
    </dc:creator>
   </cc:Work>
  </rdf:RDF>
 </metadata>
 <defs>
  <style type="text/css">*{stroke-linejoin: round; stroke-linecap: butt}</style>
 </defs>
 <g id="figure_1">
  <g id="patch_1">
   <path d="M 0 103.177593 
L 357.12 103.177593 
L 357.12 0 
L 0 0 
L 0 103.177593 
z
" style="fill: none"/>
  </g>
  <g id="axes_1">
   <g id="PatchCollection_1">
    <path d="M 16.232727 78.092004 
L 20.539622 73.340476 
L 24.07489 74.450297 
L 29.070618 91.139119 
L 37.950209 89.805821 
L 39.810849 84.940935 
L 43.750703 86.246414 
L 41.257028 78.390165 
L 55.562447 82.314394 
L 70.110198 81.001123 
L 79.060851 84.745508 
L 79.622052 89.638271 
L 75.762329 92.444945 
L 55.046224 92.95325 
L 43.164413 98.300471 
L 27.502095 96.522354 
L 21.814789 98.487702 
L 19.806716 96.510349 
L 22.195731 84.0801 
z
" clip-path="url(#p75ccbc793f)" style="fill: #ffeadb; stroke: #000000; stroke-width: 0.5"/>
    <path d="M 308.782791 18.604597 
L 312.983289 13.808815 
L 332.769272 4.702473 
L 339.951022 4.689891 
L 340.887273 7.579028 
L 331.809868 12.132055 
z
" clip-path="url(#p75ccbc793f)" style="fill: #ffeadb; stroke: #000000; stroke-width: 0.5"/>
    <path d="M 266.632484 22.641474 
L 281.103644 13.92419 
L 292.016147 11.95204 
L 295.236827 13.757852 
L 273.392463 23.532838 
z
" clip-path="url(#p75ccbc793f)" style="fill: #ffeadb; stroke: #000000; stroke-width: 0.5"/>
   </g>
  </g>
 </g>
 <defs>
  <clipPath id="p75ccbc793f">
   <rect x="0" y="-0" width="357.12" height="103.177593"/>
  </clipPath>
 </defs>
</svg>
