<?xml version="1.0" encoding="utf-8" standalone="no"?>
<!DOCTYPE svg PUBLIC "-//W3C//DTD SVG 1.1//EN"
  "http://www.w3.org/Graphics/SVG/1.1/DTD/svg11.dtd">
<svg xmlns:xlink="http://www.w3.org/1999/xlink" width="244.318914pt" height="266.112pt" viewBox="0 0 244.318914 266.112" xmlns="http://www.w3.org/2000/svg" version="1.1">
 <metadata>
  <rdf:RDF xmlns:dc="http://purl.org/dc/elements/1.1/" xmlns:cc="http://creativecommons.org/ns#" xmlns:rdf="http://www.w3.org/1999/02/22-rdf-syntax-ns#">
   <cc:Work>
    <dc:type rdf:resource="http://purl.org/dc/dcmitype/StillImage"/>
    <dc:date>2025-06-04T13:24:45.602634</dc:date>
    <dc:format>image/svg+xml</dc:format>
    <dc:creator>
     <cc:Agent>
      <dc:title>Matplotlib v3.10.3, https://matplotlib.org/</dc:title>
     </cc:Agent>
    </dc:creator>
   </cc:Work>
  </rdf:RDF>
 </metadata>
 <defs>
  <style type="text/css">*{stroke-linejoin: round; stroke-linecap: butt}</style>
 </defs>
 <g id="figure_1">
  <g id="patch_1">
   <path d="M 0 266.112 
L 244.318914 266.112 
L 244.318914 0 
L 0 0 
L 0 266.112 
z
" style="fill: none"/>
  </g>
  <g id="axes_1">
   <g id="PatchCollection_1">
    <defs>
     <path id="mea5fc1613a" d="M 11.105405 -17.052479 
L 11.189849 -20.526801 
L 17.390572 -24.658619 
L 19.489648 -30.087262 
L 21.395701 -29.079911 
L 25.859259 -37.180689 
L 26.510695 -41.602012 
L 23.422399 -45.365877 
L 28.826916 -50.106883 
L 35.679074 -71.676699 
L 47.260185 -80.030782 
L 51.399462 -91.241738 
L 66.260447 -123.025658 
L 67.103926 -132.107573 
L 66.0433 -138.750629 
L 76.753877 -138.189816 
L 81.243508 -139.745875 
L 86.455013 -151.079711 
L 90.508402 -152.008615 
L 88.445513 -158.655669 
L 91.521748 -169.754249 
L 88.481705 -181.908378 
L 91.112919 -184.361163 
L 94.115434 -198.248602 
L 97.601834 -200.763898 
L 100.135202 -199.026732 
L 106.794341 -209.877988 
L 115.009687 -213.611652 
L 117.591311 -216.506942 
L 114.901117 -221.01273 
L 129.413697 -222.948941 
L 141.248144 -231.942387 
L 142.201173 -240.990129 
L 139.281729 -248.427577 
L 149.367047 -245.252457 
L 160.367174 -245.415871 
L 182.521361 -245.076298 
L 189.538307 -254.016 
L 198.225227 -245.367386 
L 208.995784 -245.390381 
L 207.35645 -240.028066 
L 201.39664 -240.48002 
L 200.599958 -234.190826 
L 191.162318 -228.307632 
L 192.640316 -226.007193 
L 207.999926 -225.373679 
L 210.420618 -220.957432 
L 221.589516 -214.790805 
L 220.624301 -204.518166 
L 230.01598 -196.551329 
L 227.166302 -191.07412 
L 233.213509 -181.757697 
L 216.150618 -165.235541 
L 214.189549 -160.026448 
L 201.718382 -158.724188 
L 186.520098 -144.165516 
L 183.609141 -138.274679 
L 189.860043 -133.119194 
L 198.240549 -130.978129 
L 196.739104 -125.972026 
L 178.108954 -130.235042 
L 168.303614 -126.864468 
L 164.243593 -129.951636 
L 151.220872 -124.884252 
L 142.855693 -116.622506 
L 136.099199 -108.988887 
L 135.915345 -103.634222 
L 132.682651 -101.941304 
L 132.115778 -98.773705 
L 148.141383 -92.450034 
L 148.968707 -88.026123 
L 143.637051 -84.092483 
L 133.847031 -82.100779 
L 131.809361 -72.39504 
L 124.485993 -67.783438 
L 120.784031 -65.93051 
L 117.223915 -64.148586 
L 109.563491 -54.649658 
L 99.053392 -51.688908 
L 90.458395 -44.748547 
L 85.984708 -43.921227 
L 85.019497 -39.44755 
L 76.960735 -45.514631 
L 66.680446 -16.811013 
L 46.671418 -12.096 
L 38.32038 -18.562288 
L 22.970072 -16.305414 
z
" style="stroke: #000000; stroke-width: 0.5"/>
    </defs>
    <g clip-path="url(#p3f7e4ed06e)">
     <use xlink:href="#mea5fc1613a" x="0" y="266.112" style="fill: #ffeadb; stroke: #000000; stroke-width: 0.5"/>
    </g>
   </g>
  </g>
 </g>
 <defs>
  <clipPath id="p3f7e4ed06e">
   <rect x="0" y="-0" width="244.318914" height="266.112"/>
  </clipPath>
 </defs>
</svg>
