<?xml version="1.0" encoding="utf-8" standalone="no"?>
<!DOCTYPE svg PUBLIC "-//W3C//DTD SVG 1.1//EN"
  "http://www.w3.org/Graphics/SVG/1.1/DTD/svg11.dtd">
<svg xmlns:xlink="http://www.w3.org/1999/xlink" width="152.043406pt" height="266.112pt" viewBox="0 0 152.043406 266.112" xmlns="http://www.w3.org/2000/svg" version="1.1">
 <metadata>
  <rdf:RDF xmlns:dc="http://purl.org/dc/elements/1.1/" xmlns:cc="http://creativecommons.org/ns#" xmlns:rdf="http://www.w3.org/1999/02/22-rdf-syntax-ns#">
   <cc:Work>
    <dc:type rdf:resource="http://purl.org/dc/dcmitype/StillImage"/>
    <dc:date>2025-06-04T13:25:04.156569</dc:date>
    <dc:format>image/svg+xml</dc:format>
    <dc:creator>
     <cc:Agent>
      <dc:title>Matplotlib v3.10.3, https://matplotlib.org/</dc:title>
     </cc:Agent>
    </dc:creator>
   </cc:Work>
  </rdf:RDF>
 </metadata>
 <defs>
  <style type="text/css">*{stroke-linejoin: round; stroke-linecap: butt}</style>
 </defs>
 <g id="figure_1">
  <g id="patch_1">
   <path d="M 0 266.112 
L 152.043406 266.112 
L 152.043406 0 
L 0 0 
L 0 266.112 
z
" style="fill: none"/>
  </g>
  <g id="axes_1">
   <g id="PatchCollection_1">
    <path d="M 9.27003 111.847987 
L 11.250956 109.950233 
L 14.335758 103.735262 
L 12.223778 108.00207 
L 14.335758 109.312599 
L 12.324589 112.649426 
L 11.175348 118.546854 
L 12.687506 122.032376 
L 11.447537 124.603045 
L 13.423423 126.026989 
L 16.296522 126.251288 
L 17.758274 125.225551 
L 15.258173 120.905822 
L 17.344951 116.959087 
L 16.074739 110.53997 
L 17.344951 108.213771 
L 20.233172 92.089138 
L 22.648265 89.987331 
L 24.43697 85.622145 
L 24.986388 79.593663 
L 23.494392 75.747746 
L 22.818961 67.284713 
L 31.024936 61.85103 
L 34.850695 50.504795 
L 35.369868 44.869498 
L 32.148973 42.878482 
L 31.332408 39.226627 
L 36.776176 36.824808 
L 40.254137 34.153342 
L 38.041347 31.234877 
L 31.332408 26.539628 
L 42.507252 30.388074 
L 44.911583 32.253058 
L 44.518422 34.571701 
L 45.818877 35.438676 
L 54.473458 32.497528 
L 66.127153 35.841907 
L 56.31829 30.730829 
L 54.619634 31.408767 
L 50.884605 30.637567 
L 43.908101 25.349883 
L 38.802466 23.301091 
L 40.435597 26.36572 
L 39.573666 27.298231 
L 33.872833 23.537987 
L 36.448541 26.078416 
L 33.46455 25.178692 
L 24.769645 20.543918 
L 22.456043 15.891524 
L 27.335272 12.506804 
L 35.626935 12.756316 
L 36.110825 15.332025 
L 41.82174 16.748413 
L 46.053998 21.310355 
L 49.01961 24.505778 
L 55.41086 27.746381 
L 47.860289 21.809099 
L 43.399425 16.710602 
L 37.577619 14.671709 
L 36.519108 13.066303 
L 42.09897 12.096 
L 44.190787 12.922651 
L 45.329946 15.79575 
L 53.440151 25.231612 
L 66.822357 35.311752 
L 74.156709 41.199984 
L 77.52882 45.214765 
L 74.156708 44.194072 
L 73.990371 44.990467 
L 78.466357 48.644852 
L 77.821171 46.653836 
L 79.081301 46.724416 
L 82.690317 54.484296 
L 80.084366 53.816424 
L 79.73657 54.698509 
L 82.125779 55.646129 
L 82.266914 57.062518 
L 83.57745 56.256037 
L 84.807339 59.628143 
L 87.408249 62.370188 
L 86.541279 63.443821 
L 85.69447 62.178658 
L 82.266913 60.908452 
L 85.214115 64.164762 
L 85.966659 65.651581 
L 84.716609 66.952024 
L 86.742899 67.632511 
L 88.658299 64.719088 
L 92.882259 70.777788 
L 95.735196 72.667987 
L 97.065895 75.866203 
L 99.288767 77.280062 
L 100.921897 82.12905 
L 101.279773 81.302417 
L 102.222352 81.705648 
L 104.339372 85.090371 
L 102.645756 87.628271 
L 103.921009 87.209911 
L 105.458369 91.610285 
L 103.915969 91.857267 
L 104.233522 90.859237 
L 103.134687 89.944384 
L 103.033877 94.007045 
L 99.838183 92.305882 
L 98.285702 94.367441 
L 100.533776 93.165284 
L 103.190132 96.156842 
L 107.398971 96.489512 
L 108.361711 95.884647 
L 107.726605 94.432978 
L 109.999882 93.497954 
L 111.441473 93.979319 
L 114.047424 101.222557 
L 114.10791 102.888458 
L 111.779187 100.350558 
L 112.076579 102.964061 
L 114.717814 104.403134 
L 115.796486 109.693166 
L 117.767332 117.48833 
L 116.643294 119.035774 
L 114.984961 113.536571 
L 114.531314 116.959087 
L 116.965888 119.645683 
L 118.750234 118.229293 
L 122.177791 125.457404 
L 123.059883 124.572789 
L 123.448003 126.263885 
L 124.718215 125.457404 
L 124.718215 127.992793 
L 126.870519 130.530693 
L 125.655753 132.267156 
L 126.381588 134.379142 
L 127.661881 135.840897 
L 129.405903 135.603983 
L 134.007903 142.068448 
L 134.159119 143.265582 
L 132.783056 143.678899 
L 128.790959 140.268998 
L 126.87052 142.370881 
L 130.80717 142.552344 
L 134.063349 147.061092 
L 134.063348 148.795042 
L 134.214564 147.481982 
L 136.724746 149.289005 
L 137.863905 152.174705 
L 137.863904 154.904155 
L 136.911245 156.048349 
L 138.287308 158.09733 
L 137.682446 158.810558 
L 139.129076 158.520732 
L 140.021249 161.938206 
L 140.807571 157.840263 
L 141.704784 158.518211 
L 144.537559 167.094664 
L 144.245209 181.659261 
L 145.132342 186.120122 
L 141.493082 201.886888 
L 138.287309 208.187541 
L 138.030242 211.484046 
L 134.091302 217.686943 
L 130.252712 222.605966 
L 123.911731 226.333438 
L 112.414294 235.330774 
L 102.650797 239.211974 
L 101.612448 238.045096 
L 100.916856 239.978137 
L 96.960044 241.840612 
L 83.96053 244.907771 
L 81.460429 246.823167 
L 78.163926 247.11804 
L 73.246467 250.801146 
L 72.296755 251.898979 
L 68.69782 251.898979 
L 64.645238 254.016 
L 61.469707 252.743267 
L 56.862667 252.96757 
L 55.552131 251.095015 
L 51.895927 251.533275 
L 40.677542 247.669976 
L 34.059332 241.092094 
L 30.031953 232.795384 
L 26.942111 221.975896 
L 25.833195 220.065544 
L 26.680003 219.642141 
L 26.16587 216.133935 
L 21.878712 205.191785 
L 19.567823 199.296056 
L 18.715974 189.524999 
L 19.477093 186.619137 
L 16.513265 176.160047 
L 16.921547 174.625209 
L 18.645407 179.738823 
L 19.477093 176.984178 
L 17.294546 174.322777 
L 17.390029 170.25976 
L 14.335757 150.022414 
L 15.22793 150.022414 
L 15.787429 146.51672 
L 9.270031 119.328122 
z
" clip-path="url(#p07a7702cc1)" style="fill: #ffeadb; stroke: #000000; stroke-width: 0.5"/>
    <path d="M 18.181678 20.158328 
L 19.411567 16.63751 
L 20.762427 16.350206 
L 21.488263 16.56695 
L 21.528587 20.853906 
L 23.494392 21.426002 
L 23.937958 22.925567 
L 26.680003 24.80821 
L 23.499432 24.49065 
L 21.599154 25.231612 
z
" clip-path="url(#p07a7702cc1)" style="fill: #ffeadb; stroke: #000000; stroke-width: 0.5"/>
    <path d="M 9.345638 57.929492 
L 10.343662 57.062518 
L 18.242165 58.69565 
L 22.879448 62.178658 
L 19.028486 60.908452 
L 22.456043 65.137447 
L 20.974129 64.950941 
L 15.651335 60.444709 
L 10.343662 58.793936 
z
" clip-path="url(#p07a7702cc1)" style="fill: #ffeadb; stroke: #000000; stroke-width: 0.5"/>
    <path d="M 134.900076 141.524077 
L 139.930519 150.27948 
L 140.978949 155.680398 
L 140.021249 157.673918 
L 138.756077 156.582654 
L 138.756078 150.597023 
L 135.746884 146.446159 
z
" clip-path="url(#p07a7702cc1)" style="fill: #ffeadb; stroke: #000000; stroke-width: 0.5"/>
    <path d="M 6.911064 29.080057 
L 7.999817 30.342708 
L 10.661215 31.000493 
L 11.376969 32.497528 
L 10.378946 33.435063 
L 7.364712 33.049453 
z
" clip-path="url(#p07a7702cc1)" style="fill: #ffeadb; stroke: #000000; stroke-width: 0.5"/>
   </g>
  </g>
 </g>
 <defs>
  <clipPath id="p07a7702cc1">
   <rect x="0" y="-0" width="152.043406" height="266.112"/>
  </clipPath>
 </defs>
</svg>
