<?xml version="1.0" encoding="utf-8" standalone="no"?>
<!DOCTYPE svg PUBLIC "-//W3C//DTD SVG 1.1//EN"
  "http://www.w3.org/Graphics/SVG/1.1/DTD/svg11.dtd">
<svg xmlns:xlink="http://www.w3.org/1999/xlink" width="309.177931pt" height="266.112pt" viewBox="0 0 309.177931 266.112" xmlns="http://www.w3.org/2000/svg" version="1.1">
 <metadata>
  <rdf:RDF xmlns:dc="http://purl.org/dc/elements/1.1/" xmlns:cc="http://creativecommons.org/ns#" xmlns:rdf="http://www.w3.org/1999/02/22-rdf-syntax-ns#">
   <cc:Work>
    <dc:type rdf:resource="http://purl.org/dc/dcmitype/StillImage"/>
    <dc:date>2025-06-04T13:24:53.282726</dc:date>
    <dc:format>image/svg+xml</dc:format>
    <dc:creator>
     <cc:Agent>
      <dc:title>Matplotlib v3.10.3, https://matplotlib.org/</dc:title>
     </cc:Agent>
    </dc:creator>
   </cc:Work>
  </rdf:RDF>
 </metadata>
 <defs>
  <style type="text/css">*{stroke-linejoin: round; stroke-linecap: butt}</style>
 </defs>
 <g id="figure_1">
  <g id="patch_1">
   <path d="M 0 266.112 
L 309.177931 266.112 
L 309.177931 0 
L 0 0 
L 0 266.112 
z
" style="fill: none"/>
  </g>
  <g id="axes_1">
   <g id="PatchCollection_1">
    <defs>
     <path id="m40439b792a" d="M 14.053542 -235.852284 
L 19.005785 -241.5486 
L 23.495049 -238.481354 
L 26.570564 -238.109306 
L 27.827227 -239.698733 
L 26.822723 -244.427751 
L 29.976781 -244.872131 
L 32.043663 -246.633121 
L 40.079689 -243.235157 
L 47.264166 -243.950316 
L 47.611399 -247.108489 
L 58.681607 -244.078446 
L 64.772463 -245.398851 
L 69.098682 -249.026559 
L 71.992315 -250.022803 
L 76.894952 -248.053056 
L 84.922713 -252.922623 
L 91.255632 -254.016 
L 93.00008 -253.863061 
L 93.16543 -251.758974 
L 94.777596 -251.233984 
L 104.756492 -251.291857 
L 115.443428 -245.409543 
L 118.728602 -242.288544 
L 124.867051 -241.205042 
L 132.039306 -239.299829 
L 130.906656 -234.727892 
L 132.072375 -234.130557 
L 138.893081 -235.844015 
L 139.761167 -232.979299 
L 141.968595 -231.78671 
L 148.169237 -234.054093 
L 153.228955 -234.223559 
L 153.679538 -230.416379 
L 150.384931 -228.192414 
L 150.004625 -225.96432 
L 152.575824 -225.513744 
L 155.700944 -228.622315 
L 157.536336 -228.791815 
L 159.561877 -227.12384 
L 158.131598 -224.914353 
L 162.976362 -220.330002 
L 164.592697 -223.84899 
L 166.155221 -227.065954 
L 167.936876 -227.611633 
L 186.307301 -225.092091 
L 189.081056 -223.440666 
L 191.209941 -217.122209 
L 193.573813 -215.176812 
L 199.493431 -210.510194 
L 205.983999 -209.623576 
L 209.489428 -212.717699 
L 213.408228 -213.509295 
L 216.44241 -211.566441 
L 218.410079 -206.417839 
L 223.486336 -204.795338 
L 218.823455 -199.194095 
L 223.693024 -195.618394 
L 220.361214 -192.538745 
L 219.170691 -184.196818 
L 213.999357 -177.806018 
L 215.580214 -173.860866 
L 217.715608 -170.290848 
L 219.170691 -169.530237 
L 220.753919 -170.867501 
L 223.213507 -170.846835 
L 228.670071 -165.396479 
L 232.270573 -164.4085 
L 234.274026 -159.496138 
L 237.3675 -157.52166 
L 239.938699 -157.711817 
L 243.072088 -162.203144 
L 244.688388 -162.327155 
L 247.792842 -161.878646 
L 250.206957 -159.683615 
L 251.017174 -155.9777 
L 248.123543 -153.881892 
L 248.189683 -145.988475 
L 242.832331 -144.066278 
L 246.213744 -139.936643 
L 248.710535 -142.359027 
L 252.191161 -141.110631 
L 252.844296 -138.803999 
L 250.401245 -136.08399 
L 249.452259 -132.044286 
L 250.000269 -129.916413 
L 260.29333 -127.518831 
L 264.931408 -123.786047 
L 272.091081 -123.476019 
L 275.770125 -119.718426 
L 278.853911 -119.925117 
L 280.6893 -114.594633 
L 279.101937 -104.679813 
L 280.573555 -101.455481 
L 279.647594 -99.733775 
L 276.505935 -99.396867 
L 277.886612 -96.652057 
L 282.243593 -94.485956 
L 284.827193 -94.684377 
L 285.724219 -92.109049 
L 290.759139 -88.973593 
L 295.124389 -88.973593 
L 293.173255 -86.49954 
L 287.580276 -84.662077 
L 276.803566 -84.841902 
L 270.850954 -82.299644 
L 268.62699 -87.016261 
L 261.731879 -92.840726 
L 260.830719 -89.413837 
L 256.953253 -88.963263 
L 256.242246 -85.195336 
L 252.488792 -84.192898 
L 247.916854 -88.190246 
L 243.072089 -89.159618 
L 243.518533 -93.216893 
L 241.14081 -93.896361 
L 234.581346 -88.442407 
L 229.141319 -92.906867 
L 227.264592 -86.941855 
L 220.658844 -83.717521 
L 219.278168 -85.356555 
L 221.055684 -87.636317 
L 221.146628 -95.347855 
L 219.249538 -98.190043 
L 209.078836 -95.046174 
L 200.271142 -91.530328 
L 198.64244 -89.769343 
L 200.271142 -79.546555 
L 199.287307 -75.867509 
L 203.334322 -72.845668 
L 205.835182 -69.757814 
L 199.70895 -62.292243 
L 201.155766 -55.260717 
L 183.827046 -51.408053 
L 183.669963 -42.1567 
L 178.188598 -40.114625 
L 178.188598 -37.336735 
L 170.743697 -36.104874 
L 169.691085 -33.99172 
L 169.524238 -32.479569 
L 165.828657 -31.313847 
L 162.529916 -27.78775 
L 165.514491 -25.956496 
L 167.560702 -21.537507 
L 164.908933 -20.441555 
L 165.125918 -16.800218 
L 163.08384 -15.312064 
L 146.244935 -16.871327 
L 141.993399 -14.621727 
L 140.571386 -12.096 
L 137.884442 -14.720936 
L 135.887836 -19.970812 
L 129.583853 -22.64122 
L 133.229829 -25.104942 
L 138.049792 -25.749806 
L 137.008085 -36.096608 
L 133.676275 -41.181134 
L 133.453051 -43.496035 
L 135.098288 -44.860177 
L 134.610504 -48.621898 
L 131.229089 -56.327227 
L 133.238007 -62.83796 
L 133.452681 -63.26898 
L 136.1896 -69.807414 
L 133.329039 -73.879169 
L 135.180963 -74.342151 
L 135.428989 -76.69426 
L 138.835207 -78.112141 
L 139.839711 -83.233872 
L 142.755071 -86.79152 
L 144.390979 -90.042168 
L 144.275234 -93.187957 
L 142.133946 -95.444988 
L 144.218063 -105.662143 
L 134.421302 -122.526156 
L 133.011728 -128.758837 
L 127.664366 -136.382038 
L 126.855571 -137.780889 
L 119.712435 -138.874275 
L 119.687632 -140.027586 
L 112.114586 -144.293636 
L 112.602368 -145.424213 
L 108.187514 -147.60891 
L 109.22922 -148.140093 
L 107.679061 -151.484305 
L 103.276607 -157.190961 
L 95.571279 -159.675348 
L 91.713667 -164.53214 
L 89.618665 -168.463722 
L 90.685175 -171.973286 
L 82.46726 -174.482472 
L 79.124212 -180.950576 
L 78.969153 -181.389914 
L 74.150136 -183.804101 
L 67.106209 -190.579326 
L 67.666971 -195.192768 
L 62.153966 -200.23993 
L 64.890517 -201.384991 
L 61.608312 -202.972355 
L 61.60831 -206.297954 
L 57.474551 -208.875356 
L 58.880029 -210.504695 
L 56.697404 -211.760722 
L 58.119418 -213.782134 
L 54.337027 -216.192107 
L 52.282549 -215.584449 
L 51.736892 -216.721229 
L 53.365594 -217.816677 
L 47.958635 -221.317968 
L 48.455842 -224.848553 
L 41.948148 -226.605042 
L 44.428405 -228.461107 
L 41.667053 -229.165909 
L 39.67045 -231.520101 
L 37.260465 -229.897581 
L 36.433713 -231.852851 
L 29.013618 -235.796474 
L 25.719008 -235.354146 
L 19.70439 -237.121336 
z
" style="stroke: #000000; stroke-width: 0.5"/>
    </defs>
    <g clip-path="url(#p47a6b84fe1)">
     <use xlink:href="#m40439b792a" x="0" y="266.112" style="fill: #ffeadb; stroke: #000000; stroke-width: 0.5"/>
    </g>
   </g>
  </g>
 </g>
 <defs>
  <clipPath id="p47a6b84fe1">
   <rect x="0" y="-0" width="309.177931" height="266.112"/>
  </clipPath>
 </defs>
</svg>
