<?xml version="1.0" encoding="utf-8" standalone="no"?>
<!DOCTYPE svg PUBLIC "-//W3C//DTD SVG 1.1//EN"
  "http://www.w3.org/Graphics/SVG/1.1/DTD/svg11.dtd">
<svg xmlns:xlink="http://www.w3.org/1999/xlink" width="332.471061pt" height="266.112pt" viewBox="0 0 332.471061 266.112" xmlns="http://www.w3.org/2000/svg" version="1.1">
 <metadata>
  <rdf:RDF xmlns:dc="http://purl.org/dc/elements/1.1/" xmlns:cc="http://creativecommons.org/ns#" xmlns:rdf="http://www.w3.org/1999/02/22-rdf-syntax-ns#">
   <cc:Work>
    <dc:type rdf:resource="http://purl.org/dc/dcmitype/StillImage"/>
    <dc:date>2025-06-04T13:24:48.134679</dc:date>
    <dc:format>image/svg+xml</dc:format>
    <dc:creator>
     <cc:Agent>
      <dc:title>Matplotlib v3.10.3, https://matplotlib.org/</dc:title>
     </cc:Agent>
    </dc:creator>
   </cc:Work>
  </rdf:RDF>
 </metadata>
 <defs>
  <style type="text/css">*{stroke-linejoin: round; stroke-linecap: butt}</style>
 </defs>
 <g id="figure_1">
  <g id="patch_1">
   <path d="M 0 266.112 
L 332.471061 266.112 
L 332.471061 0 
L 0 0 
L 0 266.112 
z
" style="fill: none"/>
  </g>
  <g id="axes_1">
   <g id="PatchCollection_1">
    <path d="M 15.112321 162.931043 
L 16.0369 156.769877 
L 16.693086 155.460113 
L 15.753074 152.166166 
L 15.919725 149.717842 
L 16.75558 148.542822 
L 16.894675 146.956628 
L 16.403644 140.815847 
L 17.112315 140.004604 
L 17.401349 137.679966 
L 17.02899 137.198241 
L 17.594039 135.879357 
L 17.567999 133.614606 
L 19.510516 133.772799 
L 20.572911 133.153068 
L 21.617079 133.077551 
L 22.958093 133.524776 
L 25.299008 132.654418 
L 27.197258 127.779897 
L 26.723346 123.530965 
L 29.519945 120.328159 
L 29.574628 119.086094 
L 30.918245 119.079584 
L 31.738477 118.624548 
L 31.915542 117.964459 
L 31.316643 115.926902 
L 31.595262 114.852786 
L 33.813793 113.817083 
L 36.310942 113.722038 
L 36.756211 113.309971 
L 38.490415 110.646174 
L 38.810696 108.086528 
L 39.883506 107.309912 
L 40.133741 106.616111 
L 40.128274 105.771002 
L 38.188361 103.70545 
L 37.805586 102.659329 
L 39.813201 98.877801 
L 40.839141 98.812703 
L 42.453565 99.647256 
L 43.229531 99.115408 
L 44.477644 93.969667 
L 44.117464 92.139534 
L 43.117562 91.793864 
L 41.776549 89.507631 
L 42.38326 87.002671 
L 41.318261 83.356546 
L 41.576048 81.832608 
L 41.160493 81.621306 
L 40.076196 81.056643 
L 35.186053 74.094437 
L 36.105233 70.641003 
L 38.409694 67.133536 
L 39.703837 66.371892 
L 40.188164 65.523019 
L 38.826319 63.525821 
L 38.599779 61.847598 
L 39.849656 59.800925 
L 39.104937 57.094162 
L 39.797577 52.690949 
L 39.547602 46.418132 
L 46.791679 40.563243 
L 50.81472 34.36919 
L 51.609635 28.968236 
L 51.74692 22.358008 
L 54.83776 21.824858 
L 59.980482 17.299263 
L 64.345894 16.055036 
L 70.166978 14.771518 
L 71.885558 15.804613 
L 75.898183 15.440722 
L 79.507202 15.596956 
L 81.436699 14.775423 
L 82.496491 13.071813 
L 83.196942 12.726792 
L 86.917929 12.096 
L 102.554408 18.129258 
L 104.757315 17.162551 
L 106.127297 17.453188 
L 108.262178 18.495752 
L 111.798288 21.776681 
L 115.911163 26.182501 
L 117.960371 29.867881 
L 120.077419 32.674695 
L 121.809019 34.101638 
L 123.418235 34.479857 
L 125.746483 34.396817 
L 127.623549 33.084159 
L 129.154648 31.316759 
L 132.344438 31.683261 
L 134.036979 31.439144 
L 144.056824 25.658464 
L 151.308713 26.463722 
L 154.430801 28.570936 
L 155.571746 28.951009 
L 159.563107 32.48917 
L 161.516039 32.219666 
L 162.797163 32.646054 
L 164.390756 33.987066 
L 165.546892 35.676352 
L 166.47128 36.199738 
L 173.992455 38.225273 
L 181.337001 39.066642 
L 184.071106 38.663688 
L 189.422141 39.278213 
L 190.867276 38.543855 
L 195.192405 33.538545 
L 197.218247 32.150008 
L 197.983796 30.596774 
L 202.761971 27.973335 
L 216.067297 24.967408 
L 219.177018 24.632522 
L 223.754692 25.156559 
L 236.024315 25.092759 
L 243.640751 26.981901 
L 246.424331 28.091814 
L 251.58528 31.332382 
L 253.066904 31.683261 
L 255.207318 31.114302 
L 256.764456 31.707997 
L 256.915483 32.110951 
L 257.717487 31.802383 
L 258.339822 32.288665 
L 259.876767 32.294584 
L 262.394109 32.490472 
L 262.724806 30.848703 
L 263.938228 30.105936 
L 264.097066 29.549352 
L 263.696064 29.402883 
L 264.268924 28.158217 
L 265.758361 27.1837 
L 266.005732 26.454609 
L 267.12281 27.126417 
L 267.518604 26.414243 
L 268.797124 25.838782 
L 269.718908 24.531619 
L 270.419359 24.877291 
L 270.151157 24.295963 
L 271.02607 24.029714 
L 272.057219 22.65355 
L 271.354163 21.951148 
L 272.067634 22.209579 
L 272.400935 21.777983 
L 273.799234 21.801417 
L 276.710406 20.458451 
L 277.405649 20.401819 
L 277.551468 20.906328 
L 278.439402 20.746182 
L 278.439402 21.106175 
L 278.954976 20.401819 
L 279.11121 21.106175 
L 281.074558 20.466913 
L 281.53545 19.886244 
L 281.126637 19.718294 
L 281.808861 19.302972 
L 281.858335 18.428055 
L 283.63941 16.400913 
L 290.628303 16.535014 
L 302.157114 32.309495 
L 304.990168 45.722891 
L 305.281806 50.136517 
L 312.794086 50.958047 
L 313.481518 51.317388 
L 313.481518 52.177979 
L 314.684524 53.022951 
L 314.340808 53.382288 
L 315.741712 54.320999 
L 315.905758 54.844384 
L 316.936906 54.586597 
L 317.35874 54.982391 
L 316.574963 56.339027 
L 316.197396 58.41044 
L 315.746919 58.702076 
L 316.322384 60.726617 
L 315.403203 64.931932 
L 314.174158 66.779406 
L 315.895342 68.366486 
L 316.332799 69.940551 
L 315.481321 72.155828 
L 309.799589 75.013619 
L 307.555019 77.058339 
L 306.37024 77.349328 
L 304.690718 78.658441 
L 303.610096 78.72419 
L 300.07659 77.702806 
L 297.326861 80.468159 
L 295.988452 82.917787 
L 294.624003 83.808975 
L 294.219134 86.113237 
L 288.901911 94.201179 
L 286.534957 103.672901 
L 286.685984 105.142157 
L 285.220542 106.910793 
L 281.574509 107.856733 
L 281.126637 108.715372 
L 281.53545 110.525743 
L 280.686576 113.129003 
L 281.952076 114.852786 
L 280.251723 121.391202 
L 274.885065 123.094814 
L 273.538843 124.567978 
L 271.68486 125.525561 
L 271.507794 125.983201 
L 272.343649 126.177839 
L 272.588416 126.687562 
L 272.768086 128.439986 
L 270.846401 132.612758 
L 271.000031 134.548763 
L 270.151157 140.377614 
L 269.60694 141.122334 
L 267.992516 141.327387 
L 266.771282 143.635108 
L 264.190807 144.986532 
L 262.289953 144.543871 
L 260.826556 145.134954 
L 259.425652 144.888233 
L 260.308378 147.736263 
L 258.480433 149.556394 
L 256.980581 149.468517 
L 255.853088 150.513334 
L 256.021311 155.498193 
L 254.733407 157.890862 
L 254.972966 161.237535 
L 250.611418 167.329384 
L 250.663496 170.922779 
L 247.70294 174.013478 
L 243.497536 178.807417 
L 244.596386 179.367258 
L 246.83054 182.238069 
L 247.14301 182.869514 
L 246.913866 183.441073 
L 245.317669 183.628555 
L 243.872499 184.836769 
L 243.609504 185.503372 
L 242.385666 185.651794 
L 239.091721 188.562964 
L 238.495425 189.877289 
L 239.336488 191.330268 
L 239.107344 192.684305 
L 237.781954 195.208143 
L 235.438435 196.223668 
L 234.748399 198.694777 
L 232.988156 199.617865 
L 230.034918 199.631554 
L 228.47558 199.794277 
L 227.384542 199.319716 
L 226.465362 196.174193 
L 226.348186 192.98961 
L 225.863859 191.977343 
L 225.004568 191.304231 
L 222.655842 190.875886 
L 221.851234 190.073884 
L 220.702909 186.820949 
L 215.380518 184.33812 
L 214.32333 182.144327 
L 213.646314 183.769165 
L 213.28437 186.646486 
L 212.359982 187.637275 
L 212.240203 188.598118 
L 205.056015 188.484847 
L 204.264427 187.583895 
L 203.902483 185.729911 
L 203.345247 185.246887 
L 196.585497 190.789308 
L 195.994409 191.03668 
L 194.41644 190.61159 
L 192.034346 197.173453 
L 190.795437 197.502975 
L 189.742422 197.655167 
L 188.380577 199.46944 
L 186.859681 200.098436 
L 186.708867 200.154269 
L 185.966753 200.615811 
L 185.203807 202.085068 
L 184.500751 202.508856 
L 184.102353 202.53229 
L 183.784676 202.50495 
L 183.48783 202.534893 
L 183.14151 202.724328 
L 182.797794 203.114263 
L 182.079115 204.627785 
L 181.43595 205.526134 
L 177.980561 208.303856 
L 175.65527 210.714425 
L 175.65527 210.718331 
L 175.11626 211.496249 
L 174.798583 211.835409 
L 174.394977 212.043722 
L 174.259574 212.214929 
L 174.204892 212.932305 
L 174.113755 213.261048 
L 173.668487 213.315731 
L 173.119062 213.118485 
L 172.577448 213.041671 
L 172.147803 213.453738 
L 171.809295 213.882082 
L 170.918758 214.477074 
L 170.650555 214.891747 
L 170.697426 215.402765 
L 170.968232 215.802466 
L 171.189564 216.241874 
L 171.077596 216.874625 
L 170.634932 217.415588 
L 170.189663 217.744331 
L 169.996974 218.106274 
L 170.32767 218.743581 
L 170.835433 219.234419 
L 171.397877 219.66862 
L 171.871789 220.164665 
L 172.129576 220.836474 
L 172.017608 221.444487 
L 171.634833 221.935975 
L 171.160921 222.389055 
L 170.783355 222.879241 
L 170.62712 223.42476 
L 170.663575 223.91755 
L 170.752108 224.404481 
L 170.765127 224.93633 
L 170.598477 225.500076 
L 170.056864 226.565726 
L 169.895421 227.175041 
L 169.924064 227.507691 
L 170.132377 228.116355 
L 170.158416 228.384557 
L 169.484004 231.807397 
L 169.30173 232.132235 
L 169.038735 232.252014 
L 168.741889 232.303442 
L 168.460667 232.431033 
L 168.208088 232.699887 
L 167.718553 233.447209 
L 167.562318 233.783764 
L 167.189959 234.883265 
L 166.955607 235.380612 
L 166.580644 235.904 
L 166.580644 235.907906 
L 165.591158 237.470251 
L 165.437528 237.925931 
L 164.750096 238.433043 
L 164.528763 238.819073 
L 164.609484 239.355477 
L 164.684998 239.703753 
L 164.778739 240.065047 
L 164.349093 240.482321 
L 164.325268 240.482844 
L 163.884449 240.186576 
L 163.19144 240.762717 
L 162.703463 243.163639 
L 161.171872 243.093928 
L 161.452766 242.064672 
L 160.411202 242.423475 
L 159.664885 242.144631 
L 159.984735 239.67194 
L 159.105147 240.973894 
L 158.385484 240.934944 
L 157.72938 240.3424 
L 157.91801 239.999991 
L 157.2168 239.67194 
L 157.124535 239.050694 
L 155.810278 238.179306 
L 155.203383 236.996269 
L 153.776358 236.044921 
L 155.494529 237.935317 
L 156.249047 239.723198 
L 155.838983 239.999991 
L 156.893955 241.313056 
L 157.72938 242.940155 
L 157.505895 244.254416 
L 158.262464 244.675756 
L 158.336276 245.263175 
L 156.386419 247.24686 
L 150.161639 246.94546 
L 148.835081 247.443693 
L 142.864541 247.763539 
L 142.374514 248.131577 
L 143.235649 248.303804 
L 141.876285 248.48833 
L 140.461563 247.944992 
L 138.230812 247.788146 
L 138.573216 247.443693 
L 137.748986 247.372953 
L 138.230812 246.411357 
L 137.504997 244.927942 
L 138.044232 243.11033 
L 137.603072 243.319713 
L 137.115436 245.253949 
L 137.541903 245.878268 
L 136.807888 246.594853 
L 135.819632 246.567181 
L 135.602298 247.086933 
L 135.054862 247.030551 
L 132.895872 246.403152 
L 132.022435 245.708092 
L 131.241262 245.878268 
L 130.804543 246.411357 
L 130.993173 246.913685 
L 132.557569 247.686653 
L 132.366889 248.131577 
L 131.241262 248.303804 
L 128.959252 245.613774 
L 128.668107 244.172398 
L 127.515825 244.315923 
L 125.969882 241.923198 
L 125.682837 242.866349 
L 126.628036 244.349756 
L 127.870531 244.898218 
L 128.43642 245.757299 
L 128.528685 246.589729 
L 127.876682 246.913685 
L 128.811629 247.947044 
L 127.956645 249.166987 
L 127.003245 249.147512 
L 127.003245 249.664191 
L 126.191317 249.171089 
L 126.142109 248.303804 
L 125.740246 249.024492 
L 126.142109 249.851798 
L 125.268672 250.024024 
L 124.216856 246.4134 
L 124.74789 244.675756 
L 125.268672 244.832602 
L 124.251712 242.940155 
L 123.620212 243.579854 
L 123.220399 242.610053 
L 123.048172 243.799243 
L 123.890855 245.708092 
L 122.875945 245.535866 
L 121.656003 243.799243 
L 121.707261 244.220583 
L 122.488434 245.592248 
L 122.359264 246.567181 
L 123.078927 246.056648 
L 123.73503 246.490287 
L 123.546401 248.818432 
L 124.719185 251.235763 
L 124.327574 251.586369 
L 121.719563 251.032783 
L 121.139322 251.24396 
L 120.655446 250.54993 
L 120.794868 249.664191 
L 119.974738 248.781525 
L 119.591328 247.350397 
L 120.267935 245.186289 
L 119.203817 244.652178 
L 118.371386 242.252271 
L 118.752746 240.438762 
L 118.213511 240.703255 
L 117.854705 239.999991 
L 116.99562 239.999991 
L 117.278564 241.243512 
L 118.004378 242.030838 
L 118.422644 244.318996 
L 119.763555 245.878268 
L 119.025439 246.921882 
L 120.069053 251.125043 
L 120.905585 251.933895 
L 119.490862 252.416748 
L 117.549207 252.401368 
L 116.99562 252.087668 
L 117.167847 249.937911 
L 116.823393 248.630825 
L 117.512301 245.708092 
L 117.173332 246.124164 
L 116.649115 247.3545 
L 116.478938 250.368477 
L 115.962257 247.600539 
L 115.445576 248.131577 
L 116.464586 251.976956 
L 116.036069 252.632035 
L 114.401961 252.539768 
L 113.600285 248.227939 
L 112.835515 248.303804 
L 113.538776 248.858411 
L 113.790965 249.74518 
L 113.317341 252.585902 
L 112.064594 252.88217 
L 110.600663 252.742748 
L 109.909704 252.275275 
L 109.239249 252.432129 
L 109.429929 252.904726 
L 109.017814 253.062601 
L 105.782405 253.651043 
L 105.185761 252.948808 
L 107.344751 250.024024 
L 106.454911 250.024024 
L 105.593775 251.055331 
L 105.077094 248.47603 
L 105.249321 250.696528 
L 104.047832 249.851798 
L 104.765445 251.248062 
L 104.568614 252.408543 
L 103.871504 253.107705 
L 103.875605 253.464465 
L 104.576815 253.464465 
L 104.435343 253.7023 
L 101.402916 254.016 
L 101.107669 252.948808 
L 101.62025 251.586369 
L 101.107669 251.743215 
L 101.201984 250.665775 
L 100.363402 250.445364 
L 99.982042 250.796992 
L 100.523327 253.585434 
L 98.88922 252.976488 
L 98.680087 250.540703 
L 98.339734 251.398762 
L 97.823052 251.055331 
L 98.282324 252.336789 
L 97.613919 252.578726 
L 95.629207 251.266516 
L 95.32986 250.653467 
L 95.5882 250.024024 
L 94.913644 250.540703 
L 93.484569 249.536047 
L 93.179071 249.147512 
L 93.865929 249.507337 
L 93.671149 249.189543 
L 92.66239 248.818432 
L 88.055315 244.011449 
L 87.813377 242.940155 
L 88.172183 243.11033 
L 88.170133 242.642857 
L 87.067059 241.9642 
L 85.750752 239.67194 
L 86.609837 240.186576 
L 85.588777 238.681634 
L 83.581511 233.063752 
L 83.620467 232.360492 
L 84.315526 232.270277 
L 85.750752 233.447163 
L 85.36694 232.458528 
L 85.217668 232.072421 
L 86.265383 232.243623 
L 85.131555 231.039059 
L 84.967529 231.71054 
L 82.982817 231.71054 
L 82.482538 226.830772 
L 85.217668 226.53655 
L 85.564173 227.240836 
L 86.095206 226.53655 
L 87.116267 226.094706 
L 88.332108 226.205423 
L 87.298746 224.987531 
L 87.224934 223.827049 
L 87.719062 223.310368 
L 89.242452 223.107385 
L 89.894454 222.219595 
L 88.793431 222.873649 
L 86.800517 223.26731 
L 85.98859 225.461155 
L 85.578525 225.555471 
L 84.444697 224.831707 
L 84.703037 225.863019 
L 83.245258 225.781006 
L 80.403511 224.831707 
L 78.761202 223.195549 
L 78.521314 222.120155 
L 79.169216 221.338982 
L 82.039668 221.255944 
L 83.669675 221.704965 
L 84.53081 220.154921 
L 85.640035 220.138519 
L 86.18132 221.186233 
L 86.572932 221.10217 
L 86.423258 220.27794 
L 85.48421 219.487542 
L 84.567716 219.306087 
L 83.749637 220.56396 
L 82.8803 220.872534 
L 81.98636 220.576262 
L 81.789529 219.788938 
L 82.277506 217.574589 
L 80.834078 220.271789 
L 78.29988 221.151378 
L 77.026629 220.004222 
L 76.005569 217.973378 
L 76.360274 215.845142 
L 76.669873 215.650362 
L 77.651978 216.197798 
L 77.651978 215.307958 
L 78.443402 214.614949 
L 80.510127 213.86248 
L 81.088318 212.899855 
L 76.794943 215.064995 
L 75.158785 216.515598 
L 73.848584 214.293638 
L 70.898215 210.470221 
L 69.393278 209.562954 
L 67.418817 207.136397 
L 60.999047 202.558959 
L 57.193858 201.298102 
L 51.748201 200.296522 
L 45.310188 199.76036 
L 34.560346 200.296522 
L 33.082063 199.435386 
L 34.178986 199.077605 
L 34.474232 199.967442 
L 35.359972 199.157568 
L 37.022783 199.176018 
L 37.758849 198.574251 
L 37.765 197.802302 
L 41.025013 197.355333 
L 42.095282 196.833526 
L 42.587359 195.892427 
L 44.998539 195.462883 
L 42.876455 194.954405 
L 36.694732 197.337906 
L 35.439934 196.993449 
L 35.507595 195.462883 
L 34.215892 196.581337 
L 33.520832 196.723832 
L 33.613097 197.714137 
L 32.700703 199.296986 
L 33.196881 200.053555 
L 33.071812 200.615346 
L 25.458963 201.02336 
L 21.56335 200.831655 
L 15.922239 201.354536 
L 16.125788 198.691586 
L 16.299194 197.929458 
L 16.818073 196.042696 
L 16.609761 194.464074 
L 17.804955 193.029972 
L 17.672156 191.612144 
L 16.739956 191.239133 
L 16.419675 190.486602 
L 16.75558 188.884546 
L 16.206155 185.948637 
L 17.833598 184.399312 
L 16.713917 183.021845 
L 17.390934 181.354041 
L 16.86234 175.156735 
L 17.117523 174.767451 
L 18.005456 174.827341 
L 18.151275 173.406909 
L 16.344162 170.662388 
L 16.269917 168.848834 
L 16.440506 165.09132 
z
" clip-path="url(#p9bb4c6e299)" style="fill: #ffeadb; stroke: #000000; stroke-width: 0.5"/>
    <path d="M 132.649833 249.430451 
L 132.88357 248.976307 
L 134.353651 248.47603 
L 135.991859 249.147512 
L 137.792043 248.818432 
L 138.886915 248.814329 
L 138.521957 249.448904 
L 135.04051 250.069128 
L 133.184968 249.956364 
z
" clip-path="url(#p9bb4c6e299)" style="fill: #ffeadb; stroke: #000000; stroke-width: 0.5"/>
    <path d="M 127.882833 251.321876 
L 127.882833 250.544806 
L 129.943407 247.600539 
L 131.069035 248.630825 
L 132.539116 248.630825 
L 131.67798 250.57453 
L 128.737818 251.398762 
z
" clip-path="url(#p9bb4c6e299)" style="fill: #ffeadb; stroke: #000000; stroke-width: 0.5"/>
   </g>
  </g>
 </g>
 <defs>
  <clipPath id="p9bb4c6e299">
   <rect x="0" y="-0" width="332.471061" height="266.112"/>
  </clipPath>
 </defs>
</svg>
