<?xml version="1.0" encoding="utf-8" standalone="no"?>
<!DOCTYPE svg PUBLIC "-//W3C//DTD SVG 1.1//EN"
  "http://www.w3.org/Graphics/SVG/1.1/DTD/svg11.dtd">
<svg xmlns:xlink="http://www.w3.org/1999/xlink" width="322.773201pt" height="266.112pt" viewBox="0 0 322.773201 266.112" xmlns="http://www.w3.org/2000/svg" version="1.1">
 <metadata>
  <rdf:RDF xmlns:dc="http://purl.org/dc/elements/1.1/" xmlns:cc="http://creativecommons.org/ns#" xmlns:rdf="http://www.w3.org/1999/02/22-rdf-syntax-ns#">
   <cc:Work>
    <dc:type rdf:resource="http://purl.org/dc/dcmitype/StillImage"/>
    <dc:date>2025-06-04T13:25:02.474764</dc:date>
    <dc:format>image/svg+xml</dc:format>
    <dc:creator>
     <cc:Agent>
      <dc:title>Matplotlib v3.10.3, https://matplotlib.org/</dc:title>
     </cc:Agent>
    </dc:creator>
   </cc:Work>
  </rdf:RDF>
 </metadata>
 <defs>
  <style type="text/css">*{stroke-linejoin: round; stroke-linecap: butt}</style>
 </defs>
 <g id="figure_1">
  <g id="patch_1">
   <path d="M -0 266.112 
L 322.773201 266.112 
L 322.773201 0 
L -0 0 
L -0 266.112 
z
" style="fill: none"/>
  </g>
  <g id="axes_1">
   <g id="PatchCollection_1">
    <path d="M 14.671509 142.405547 
L 42.37809 150.2518 
L 44.243973 150.560595 
L 46.508759 150.374973 
L 64.00137 148.937073 
L 71.305823 150.166648 
L 73.371957 150.94472 
L 73.866031 150.769269 
L 74.9384 149.175687 
L 75.574709 148.891687 
L 80.857449 147.620166 
L 86.667073 147.662113 
L 90.579437 148.164147 
L 111.571087 142.819148 
L 113.01214 141.917086 
L 114.194926 140.623882 
L 111.99966 138.789814 
L 113.556745 135.405212 
L 113.856185 131.917677 
L 112.825926 129.736446 
L 112.881135 128.947611 
L 114.825621 122.875538 
L 117.988451 122.146589 
L 120.035869 120.224561 
L 120.64972 118.183693 
L 121.781976 117.840275 
L 123.2118 116.713634 
L 124.432952 116.1971 
L 126.441068 116.131597 
L 126.412996 117.299411 
L 126.775131 117.457553 
L 128.612941 117.363978 
L 130.007206 117.886126 
L 132.40553 117.967536 
L 136.705295 116.926984 
L 138.681596 115.840579 
L 139.984158 115.680566 
L 140.086155 114.582933 
L 139.433002 114.400462 
L 137.927383 114.571703 
L 137.208728 114.290978 
L 136.206541 112.45504 
L 136.439542 112.135015 
L 138.186585 112.34743 
L 139.686261 111.87186 
L 141.396203 110.439437 
L 143.629835 110.17275 
L 145.087731 109.264137 
L 145.339447 108.591335 
L 146.025096 107.983537 
L 146.521298 107.035185 
L 147.125792 106.774111 
L 148.862541 107.852093 
L 150.69193 107.922275 
L 153.262431 108.59695 
L 154.200051 108.085094 
L 152.204099 107.848351 
L 151.826993 107.550783 
L 152.962991 106.95939 
L 153.795808 106.82745 
L 156.707858 107.811856 
L 157.018526 109.031138 
L 158.319217 110.528334 
L 158.800191 110.818417 
L 159.518846 110.747301 
L 161.283669 110.074496 
L 161.940564 110.113797 
L 163.078434 109.541121 
L 164.422169 108.370498 
L 166.404085 105.759759 
L 167.805513 104.685047 
L 166.89816 101.256001 
L 167.206957 98.165223 
L 166.480816 95.992884 
L 166.568776 95.243817 
L 167.457738 93.974003 
L 168.893176 93.327873 
L 170.066604 91.759559 
L 169.860741 90.483194 
L 169.291805 90.141179 
L 169.166416 89.644762 
L 170.994867 88.106395 
L 171.01002 85.30842 
L 172.26655 84.155663 
L 174.444036 84.119639 
L 176.328634 83.435607 
L 177.539494 83.94465 
L 178.304 83.897866 
L 179.6599 83.201666 
L 180.58442 83.127273 
L 181.329275 81.9997 
L 182.719798 81.909865 
L 185.79186 79.738463 
L 185.633719 78.58094 
L 183.266275 76.34029 
L 183.612502 74.067827 
L 182.860161 73.536786 
L 182.599086 72.539279 
L 180.396272 72.076281 
L 179.690779 71.884256 
L 177.582537 68.459886 
L 178.142116 67.921827 
L 178.153344 67.094159 
L 178.747867 66.75698 
L 180.511432 66.613181 
L 186.402904 68.179628 
L 189.911962 68.516028 
L 196.072931 68.043942 
L 196.473432 67.278499 
L 197.476553 67.389389 
L 198.154035 66.909818 
L 199.413553 66.647808 
L 199.701764 66.423695 
L 199.704571 65.499174 
L 200.525222 64.414177 
L 200.325908 62.653563 
L 200.856477 61.390305 
L 200.777876 60.944884 
L 199.490285 60.347878 
L 198.039874 58.915716 
L 197.789094 57.772699 
L 198.266499 57.351613 
L 199.759781 57.293592 
L 200.014305 56.488849 
L 199.838383 55.432394 
L 202.245129 53.858461 
L 203.809701 51.561197 
L 206.6302 50.425352 
L 207.070785 50.20904 
L 207.826869 49.140417 
L 207.783825 47.994125 
L 209.507474 46.796367 
L 210.119454 45.863426 
L 208.161867 43.849695 
L 208.193683 43.360298 
L 209.810656 41.871522 
L 209.313477 40.892715 
L 209.146275 39.082056 
L 207.319694 37.952606 
L 207.980332 36.916734 
L 206.372716 34.020591 
L 205.291926 33.270121 
L 204.752935 32.145351 
L 203.229536 31.705549 
L 201.644652 30.632667 
L 201.572326 30.362749 
L 202.607263 28.919826 
L 204.038023 28.232985 
L 204.34682 27.558311 
L 205.493112 27.23267 
L 207.242963 25.748572 
L 208.678401 25.253561 
L 208.476279 24.460984 
L 209.621635 22.898284 
L 210.325319 22.991857 
L 211.901119 24.02118 
L 212.73955 24.009952 
L 212.9529 23.809702 
L 212.569244 22.497782 
L 214.407054 22.153427 
L 216.259836 20.994971 
L 217.378992 20.679622 
L 217.745805 19.834642 
L 219.783865 19.354602 
L 219.454482 18.476871 
L 220.543694 18.036132 
L 224.898667 17.465327 
L 226.032795 16.693333 
L 228.07647 16.107554 
L 232.3884 16.153405 
L 233.803251 15.75852 
L 234.611738 15.951286 
L 235.553102 15.54049 
L 238.257414 15.309362 
L 239.627351 15.499319 
L 240.791422 15.217658 
L 247.673491 14.999496 
L 249.886899 15.203622 
L 251.930574 16.144984 
L 253.530704 16.421966 
L 254.599329 16.138435 
L 255.239381 14.921962 
L 257.159537 14.854118 
L 260.026671 13.190827 
L 261.166413 13.003208 
L 262.622438 13.766311 
L 262.712269 12.690201 
L 264.886949 12.096 
L 265.914401 12.784711 
L 267.243165 12.808104 
L 268.341733 13.825265 
L 268.68796 14.764757 
L 269.378543 13.760697 
L 269.954963 13.499157 
L 273.145867 13.241357 
L 274.532646 14.008202 
L 276.67551 14.372677 
L 277.843325 14.996821 
L 278.432846 17.65809 
L 278.820247 18.099763 
L 279.918815 18.140002 
L 280.197669 17.652475 
L 281.329924 17.306248 
L 282.765363 17.536443 
L 285.314342 18.735138 
L 286.839612 19.973134 
L 288.879544 23.5636 
L 288.542675 25.722371 
L 289.368005 27.018383 
L 288.565133 27.526495 
L 288.591334 28.383641 
L 287.322458 29.133175 
L 287.296257 30.040852 
L 287.700501 30.617273 
L 288.823399 31.26949 
L 290.736069 31.586709 
L 291.183357 32.244539 
L 291.608187 34.329388 
L 292.113491 34.699008 
L 293.822168 34.489401 
L 294.756045 34.63725 
L 295.42417 34.250785 
L 296.406706 34.250785 
L 296.930725 33.716472 
L 298.164042 33.517158 
L 298.834038 32.955709 
L 299.165293 33.039926 
L 299.08669 35.101381 
L 299.442275 35.694645 
L 301.360559 36.373063 
L 303.183236 37.598574 
L 308.101692 47.298396 
L 307.633818 47.734923 
L 307.852783 48.673479 
L 307.452284 49.544658 
L 305.786651 50.733996 
L 304.545848 50.324138 
L 302.825942 50.835056 
L 302.577032 52.570872 
L 300.924501 53.879981 
L 298.809708 54.256156 
L 297.041144 53.591772 
L 293.852112 55.008497 
L 291.913242 55.424903 
L 290.16339 55.030957 
L 289.530825 55.144182 
L 288.62502 56.137011 
L 286.82464 57.059657 
L 285.409789 58.208755 
L 282.07478 58.381871 
L 277.302462 57.316052 
L 275.065255 55.842045 
L 271.321157 56.003197 
L 264.931864 54.942061 
L 260.354182 53.562767 
L 258.067214 53.483224 
L 255.080303 54.896208 
L 252.207556 55.306998 
L 251.430884 55.771131 
L 251.55066 57.175688 
L 250.41279 58.043127 
L 250.001059 59.358794 
L 248.904362 60.234186 
L 248.956764 61.125955 
L 249.346036 61.475925 
L 250.234998 61.83946 
L 251.76401 61.897479 
L 252.720346 63.449416 
L 252.808306 64.211118 
L 250.959267 65.328399 
L 250.798317 65.88143 
L 251.374739 66.89999 
L 252.469565 67.322949 
L 253.706624 67.054389 
L 255.035388 67.360378 
L 257.02666 67.172763 
L 257.822047 68.091667 
L 257.228782 69.198659 
L 256.105884 69.98562 
L 253.517604 70.50964 
L 253.096517 70.838088 
L 252.361018 71.986254 
L 252.181354 72.978147 
L 252.469564 73.773066 
L 255.454603 75.565958 
L 255.748428 76.564402 
L 254.629273 79.565815 
L 254.195086 80.040238 
L 252.922467 80.62181 
L 252.682916 81.736284 
L 252.933696 82.296333 
L 255.677311 84.786359 
L 258.527601 85.617303 
L 258.98799 87.865438 
L 258.631389 88.717812 
L 258.441513 88.956051 
L 259.160168 89.735064 
L 260.835158 89.389303 
L 262.324869 90.12621 
L 264.011089 89.671432 
L 264.405974 88.735686 
L 265.055384 88.400686 
L 265.369796 88.975704 
L 264.656755 90.527177 
L 264.770917 92.020628 
L 264.291814 92.972752 
L 265.373538 95.086612 
L 266.019205 95.277502 
L 268.068495 95.022979 
L 269.314912 95.560566 
L 271.427832 95.178781 
L 273.280614 96.165997 
L 274.551361 96.427539 
L 276.402684 97.602257 
L 277.500841 98.883411 
L 276.731655 99.805591 
L 276.334898 100.925682 
L 275.52454 100.925682 
L 274.543875 101.292495 
L 274.134017 101.63498 
L 274.152732 102.049517 
L 273.505194 101.928805 
L 272.848299 102.207657 
L 271.738501 101.847395 
L 271.409117 101.907281 
L 271.545737 102.419136 
L 270.748478 102.477154 
L 270.196387 103.038602 
L 268.991143 103.09849 
L 268.702932 103.410094 
L 267.896317 103.161185 
L 267.082215 104.656513 
L 265.53823 104.522699 
L 265.023569 105.357387 
L 262.858246 106.754461 
L 262.581265 107.766003 
L 261.754063 108.851474 
L 262.951821 110.643432 
L 264.067233 113.419797 
L 262.528862 116.239209 
L 262.060988 118.553315 
L 262.611208 119.644398 
L 264.06349 119.642526 
L 264.821447 120.212397 
L 263.384137 120.956317 
L 263.105284 121.650643 
L 262.294926 122.409535 
L 260.887559 122.704296 
L 260.157676 123.665309 
L 258.671707 123.659696 
L 258.327351 124.66001 
L 257.539451 125.074547 
L 257.720986 125.562072 
L 256.352922 126.853406 
L 255.855104 127.797575 
L 254.909997 128.135381 
L 254.11274 128.781983 
L 253.933076 130.21555 
L 252.971126 130.621665 
L 251.610548 132.248931 
L 251.079042 132.193722 
L 251.191332 132.687798 
L 250.206925 133.089234 
L 250.036618 133.445754 
L 251.296136 134.336587 
L 251.928635 136.142077 
L 251.883786 136.427985 
L 248.178222 138.960121 
L 244.884387 139.610466 
L 241.48949 141.153516 
L 239.000399 148.22871 
L 233.522526 157.08183 
L 233.000379 157.535665 
L 223.096416 162.161071 
L 221.320365 164.362887 
L 220.257355 167.997335 
L 219.390851 169.647059 
L 216.461958 171.922802 
L 215.015291 173.598257 
L 214.5025 176.507504 
L 214.156274 176.954788 
L 208.721445 178.433742 
L 205.771029 178.43655 
L 202.666215 178.853426 
L 197.006808 181.16285 
L 195.518032 181.459017 
L 194.253836 181.308361 
L 193.323701 180.740361 
L 192.062313 178.682648 
L 191.925693 177.291191 
L 189.636852 175.528709 
L 188.72169 175.332669 
L 186.651814 175.845461 
L 183.882932 178.01259 
L 182.102203 179.791514 
L 180.342996 183.819913 
L 178.795268 185.156159 
L 177.707928 186.730089 
L 172.774662 190.749127 
L 172.029806 191.886999 
L 170.774031 197.641852 
L 170.914393 198.387645 
L 171.481457 198.95658 
L 174.292446 199.997131 
L 176.336121 201.493395 
L 177.120278 201.76102 
L 181.475252 201.601941 
L 182.806823 202.082916 
L 183.32242 202.669631 
L 183.205451 207.6684 
L 182.850803 209.000906 
L 181.798086 210.763855 
L 181.630587 212.62506 
L 181.967456 213.537414 
L 184.3349 216.13786 
L 185.250998 217.750156 
L 186.981197 218.181536 
L 189.101603 218.13007 
L 191.18458 217.541484 
L 191.909785 217.676231 
L 192.299992 218.163756 
L 192.311221 223.195276 
L 193.325573 224.294781 
L 193.767246 225.535584 
L 195.825893 227.419246 
L 197.033009 231.34331 
L 199.593376 235.939045 
L 199.724222 236.124517 
L 198.154036 236.901186 
L 197.749793 237.900096 
L 198.22141 238.801693 
L 198.154036 240.065421 
L 199.926343 240.581956 
L 200.066706 241.032983 
L 199.022411 241.48963 
L 198.507749 242.027217 
L 197.077925 241.93458 
L 195.687402 242.946591 
L 195.878295 243.688169 
L 194.512102 244.198623 
L 191.714214 244.117678 
L 190.739163 243.544536 
L 190.340535 241.926158 
L 190.875783 241.240721 
L 190.653075 240.805128 
L 187.999292 241.206099 
L 187.173961 241.741814 
L 185.865785 241.903701 
L 184.852369 242.497899 
L 182.446559 242.963434 
L 181.404135 244.825574 
L 180.749111 245.332752 
L 179.953725 245.492761 
L 175.291825 245.431939 
L 172.548211 243.472947 
L 167.437151 243.346624 
L 165.371019 243.900116 
L 163.578124 243.261468 
L 161.675747 243.826662 
L 160.617415 242.679435 
L 160.271189 242.806694 
L 159.432757 244.202834 
L 159.08653 243.952055 
L 158.715974 242.525503 
L 157.776483 242.487606 
L 157.389083 243.247432 
L 157.362881 249.115047 
L 152.059058 249.07949 
L 151.224371 249.201133 
L 150.647949 249.583856 
L 150.561861 249.12534 
L 150.227798 249.089783 
L 150.31108 249.552978 
L 149.931166 250.007284 
L 149.684129 250.105066 
L 149.02349 249.644678 
L 148.958923 250.375966 
L 147.997909 250.711435 
L 147.558239 251.343977 
L 147.09601 250.203006 
L 147.333262 251.38338 
L 146.839599 252.809844 
L 146.944227 254.016 
L 146.095422 253.304241 
L 146.035003 253.74854 
L 145.380716 253.49802 
L 145.220092 253.125195 
L 145.724069 252.003773 
L 146.095422 251.821043 
L 145.320298 250.985501 
L 145.3984 249.875865 
L 144.489176 249.584085 
L 145.220091 251.573477 
L 144.489176 252.675744 
L 144.138455 251.903565 
L 143.354488 251.944829 
L 143.05387 251.508635 
L 142.613258 251.449691 
L 142.432003 250.882344 
L 141.870553 251.191809 
L 141.622985 250.079225 
L 141.197109 251.933774 
L 139.148777 251.314856 
L 139.602653 251.947038 
L 139.095727 252.256497 
L 137.573478 252.043557 
L 137.913884 249.696822 
L 137.678105 250.761512 
L 137.264018 251.199175 
L 136.790986 250.572884 
L 136.540471 250.806454 
L 136.035019 250.326792 
L 135.735874 250.453521 
L 136.035019 250.820457 
L 134.801599 250.449104 
L 135.417572 250.326792 
L 135.924498 249.584085 
L 135.170004 249.831658 
L 135.305577 248.954854 
L 134.306463 248.707281 
L 134.795705 247.897527 
L 135.550198 247.66838 
L 135.788924 247.212299 
L 135.367469 247.54165 
L 134.116365 247.212299 
L 132.546961 247.201244 
L 132.317076 246.920518 
L 131.19123 243.391936 
L 131.315014 242.516608 
L 131.676051 242.276409 
L 132.700217 242.256514 
L 131.055657 241.801162 
L 131.326803 240.525747 
L 130.822825 240.895627 
L 130.606203 240.010714 
L 129.956337 239.277589 
L 130.3159 238.976234 
L 129.660139 238.574674 
L 129.4612 237.79513 
L 130.71083 237.79513 
L 129.92097 237.370725 
L 128.89091 237.335357 
L 128.979327 236.480659 
L 129.757398 235.616383 
L 130.716725 235.077772 
L 130.575257 234.692421 
L 129.166477 234.719682 
L 128.665446 233.938663 
L 127.607387 233.938663 
L 127.630965 234.466221 
L 125.504531 233.209223 
L 125.504531 233.816353 
L 124.001439 233.074389 
L 122.560239 233.282168 
L 122.146151 233.074389 
L 120.336546 233.445004 
L 119.873829 233.288799 
L 119.920985 232.935131 
L 120.784527 232.331683 
L 120.366018 231.996436 
L 120.366018 231.30236 
L 120.784527 228.487745 
L 121.391658 227.488631 
L 121.021779 226.190372 
L 117.949282 223.755952 
L 118.055383 223.397125 
L 118.518099 223.50691 
L 118.733248 223.140716 
L 117.644243 220.994388 
L 117.312678 221.171223 
L 116.953115 220.995862 
L 115.942212 219.553188 
L 115.049198 219.648973 
L 114.828155 219.047 
L 114.159132 219.365301 
L 112.703195 219.294568 
L 111.721764 219.634974 
L 109.738272 221.778354 
L 111.88681 221.479209 
L 112.714984 220.872814 
L 112.703195 220.541987 
L 114.120817 220.356311 
L 115.691696 221.666359 
L 116.289986 221.394476 
L 116.941326 221.666359 
L 116.313564 222.160021 
L 117.292047 222.876201 
L 117.053321 223.16061 
L 114.539325 221.952241 
L 112.588253 221.813721 
L 110.911273 222.283806 
L 105.464774 222.815782 
L 101.729148 224.139093 
L 98.391399 223.397125 
L 97.177136 223.736795 
L 96.844098 223.655746 
L 97.079877 223.273342 
L 95.214274 223.767741 
L 94.624826 223.487753 
L 94.126743 223.664588 
L 93.325094 224.744751 
L 92.732698 225.01516 
L 88.484252 224.454448 
L 87.405563 224.643808 
L 85.292392 224.508972 
L 84.415588 224.987898 
L 83.920452 225.757128 
L 83.920452 226.633195 
L 84.673471 227.128331 
L 83.674357 227.375899 
L 82.684084 227.241063 
L 83.179221 226.239738 
L 82.051902 225.483034 
L 81.200149 225.386512 
L 80.722696 225.928067 
L 79.767791 226.12848 
L 78.344274 225.251676 
L 76.626033 224.968741 
L 76.242892 224.643808 
L 73.524063 224.29456 
L 73.749527 223.397125 
L 73.254391 222.840097 
L 73.510801 222.557899 
L 74.545282 222.552005 
L 74.542335 222.202757 
L 74.117932 222.160021 
L 72.635471 222.221913 
L 71.388788 222.901989 
L 71.76014 222.778205 
L 72.025392 223.182714 
L 72.697362 222.83494 
L 73.254391 223.767741 
L 72.894828 224.137619 
L 70.800814 224.312244 
L 67.065187 223.399336 
L 64.072265 223.767741 
L 62.682642 225.099893 
L 62.206663 225.138944 
L 63.098203 226.377522 
L 62.768112 226.869711 
L 61.150077 226.348049 
L 59.284474 226.386363 
L 56.313657 225.651764 
L 54.209327 226.386363 
L 49.549741 225.634081 
L 44.237996 225.685592 
L 44.064928 226.328892 
L 44.459858 226.498359 
L 43.090865 226.636879 
L 41.81029 227.561575 
L 41.738082 228.117867 
L 42.609453 228.537375 
L 42.497339 228.79093 
L 40.233927 228.590744 
L 41.306312 228.019134 
L 40.984024 227.02432 
L 40.200724 226.53723 
L 38.226446 226.42173 
L 37.046503 226.806668 
L 36.665473 227.449798 
L 37.35701 228.436905 
L 33.44455 228.511323 
L 32.832997 229.690219 
L 31.158511 230.132809 
L 30.528281 229.698781 
L 31.668838 226.972864 
L 31.061706 227.241063 
L 30.059645 226.745927 
L 28.140992 226.717191 
L 28.717096 225.207136 
L 29.136311 219.270747 
L 29.68466 218.456646 
L 29.44698 216.448528 
L 29.828765 215.972233 
L 30.876804 215.830934 
L 31.151914 215.528687 
L 32.155037 209.236714 
L 32.57238 208.18774 
L 37.30259 206.56796 
L 37.839709 205.496527 
L 40.005032 205.919485 
L 40.398046 205.732336 
L 40.106093 204.726405 
L 40.991311 203.684918 
L 40.884636 203.192713 
L 42.041221 202.551726 
L 42.780462 202.507745 
L 43.175348 202.086659 
L 46.37748 201.753533 
L 47.197196 201.310923 
L 48.307929 201.33151 
L 49.242742 200.604434 
L 55.480443 200.709237 
L 56.2646 200.944109 
L 56.670715 200.58759 
L 56.861608 199.864255 
L 57.137653 196.9494 
L 58.443023 196.483396 
L 57.960177 195.226685 
L 57.894674 192.968723 
L 58.429922 192.067599 
L 59.492933 192.03672 
L 58.617072 190.477763 
L 56.912138 189.48119 
L 51.757099 190.295291 
L 50.61455 189.930349 
L 50.095209 190.083812 
L 49.039685 189.329599 
L 49.505688 189.192977 
L 49.699388 188.731654 
L 49.287658 187.857666 
L 50.349733 185.198267 
L 49.726525 179.136485 
L 48.918973 176.143966 
L 49.386847 171.590612 
L 48.984476 171.375389 
L 46.020959 171.90596 
L 44.511597 170.608075 
L 44.004422 169.718643 
L 42.166611 168.468019 
L 39.774838 168.041317 
L 38.268283 167.447114 
L 36.486617 167.246866 
L 33.655978 166.227834 
L 29.314104 162.357577 
L 27.74766 160.281624 
L 26.740795 157.811713 
L 25.964123 157.189441 
L 26.321579 156.484822 
L 25.83499 156.245271 
L 25.415775 155.417131 
L 24.695248 155.064825 
L 24.496869 154.203468 
L 23.516206 152.96734 
L 23.598551 151.166025 
L 22.544898 150.582118 
z
" clip-path="url(#pd69f6d03da)" style="fill: #ffeadb; stroke: #000000; stroke-width: 0.5"/>
    <path d="M 132.935996 247.348609 
L 133.205669 247.592489 
L 134.430246 247.348609 
L 134.925383 247.605752 
L 134.559926 247.749428 
L 134.356566 248.241621 
L 133.867324 248.348456 
z
" clip-path="url(#pd69f6d03da)" style="fill: #ffeadb; stroke: #000000; stroke-width: 0.5"/>
   </g>
  </g>
 </g>
 <defs>
  <clipPath id="pd69f6d03da">
   <rect x="-0" y="-0" width="322.773201" height="266.112"/>
  </clipPath>
 </defs>
</svg>
