<?xml version="1.0" encoding="utf-8" standalone="no"?>
<!DOCTYPE svg PUBLIC "-//W3C//DTD SVG 1.1//EN"
  "http://www.w3.org/Graphics/SVG/1.1/DTD/svg11.dtd">
<svg xmlns:xlink="http://www.w3.org/1999/xlink" width="203.231599pt" height="266.112pt" viewBox="0 0 203.231599 266.112" xmlns="http://www.w3.org/2000/svg" version="1.1">
 <metadata>
  <rdf:RDF xmlns:dc="http://purl.org/dc/elements/1.1/" xmlns:cc="http://creativecommons.org/ns#" xmlns:rdf="http://www.w3.org/1999/02/22-rdf-syntax-ns#">
   <cc:Work>
    <dc:type rdf:resource="http://purl.org/dc/dcmitype/StillImage"/>
    <dc:date>2025-06-04T13:24:56.551786</dc:date>
    <dc:format>image/svg+xml</dc:format>
    <dc:creator>
     <cc:Agent>
      <dc:title>Matplotlib v3.10.3, https://matplotlib.org/</dc:title>
     </cc:Agent>
    </dc:creator>
   </cc:Work>
  </rdf:RDF>
 </metadata>
 <defs>
  <style type="text/css">*{stroke-linejoin: round; stroke-linecap: butt}</style>
 </defs>
 <g id="figure_1">
  <g id="patch_1">
   <path d="M 0 266.112 
L 203.231599 266.112 
L 203.231599 0 
L 0 0 
L 0 266.112 
z
" style="fill: none"/>
  </g>
  <g id="axes_1">
   <g id="PatchCollection_1">
    <defs>
     <path id="m500fec22bd" d="M 9.2378 -91.828102 
L 15.90814 -98.669266 
L 25.494355 -112.388133 
L 26.06803 -113.152274 
L 26.173995 -114.037903 
L 29.345649 -116.18279 
L 32.782217 -116.356812 
L 41.487823 -117.839412 
L 42.909507 -118.591859 
L 43.696654 -119.74314 
L 44.365332 -121.763332 
L 47.312266 -124.240272 
L 54.546232 -127.667249 
L 62.332862 -129.654101 
L 73.431196 -129.012079 
L 79.013279 -128.689448 
L 79.524836 -128.903209 
L 89.723741 -140.02358 
L 97.104131 -148.0866 
L 106.490312 -157.660629 
L 125.324051 -175.825216 
L 133.221891 -183.438851 
L 150.190972 -209.153273 
L 150.190972 -211.123717 
L 150.190998 -240.935068 
L 155.502679 -241.839241 
L 156.63196 -242.637649 
L 157.201635 -242.446318 
L 158.677613 -242.626141 
L 160.490217 -243.492162 
L 160.891579 -244.251011 
L 161.464132 -244.663161 
L 163.407646 -244.916352 
L 166.315005 -244.749476 
L 167.921893 -245.64499 
L 170.22649 -245.524148 
L 171.806044 -246.490151 
L 173.6877 -246.948337 
L 175.526198 -248.355984 
L 176.669865 -248.739363 
L 178.00774 -250.164273 
L 178.304086 -251.725125 
L 178.86513 -252.580358 
L 180.27781 -253.402502 
L 180.637454 -253.281663 
L 183.04853 -254.016 
L 184.271646 -253.198824 
L 186.09288 -253.012001 
L 187.485069 -252.063191 
L 188.879048 -252.063191 
L 191.795822 -251.258166 
L 191.029707 -249.41386 
L 191.002165 -248.063595 
L 188.758208 -245.463728 
L 188.831575 -244.450253 
L 188.05906 -242.567877 
L 187.903694 -240.663925 
L 188.141059 -239.854007 
L 188.936473 -239.372792 
L 189.705342 -239.337644 
L 189.971639 -238.976011 
L 188.809996 -237.216381 
L 188.656069 -236.413657 
L 189.064624 -230.816882 
L 189.461671 -229.432973 
L 188.520843 -229.045997 
L 188.253268 -227.37725 
L 187.254897 -227.118306 
L 186.800308 -226.526333 
L 187.295177 -226.209127 
L 190.517584 -226.668032 
L 189.735 -228.802877 
L 191.792892 -227.340329 
L 193.607299 -227.321726 
L 193.993799 -226.764232 
L 193.269783 -225.353729 
L 191.44536 -225.534239 
L 190.881544 -226.377441 
L 188.214432 -226.054097 
L 185.338173 -224.649315 
L 184.884126 -222.998229 
L 185.08053 -221.980217 
L 184.56764 -220.644001 
L 184.884126 -219.060131 
L 183.674285 -214.766706 
L 183.518919 -212.685805 
L 183.19524 -212.215395 
L 183.747652 -208.905232 
L 182.526303 -206.820741 
L 181.132324 -206.035278 
L 180.381388 -204.913186 
L 180.407282 -203.128637 
L 180.145461 -202.470488 
L 176.717338 -199.199889 
L 175.560724 -195.853766 
L 174.716281 -194.832375 
L 174.309164 -192.419166 
L 173.473352 -191.853088 
L 171.879412 -189.392407 
L 170.554485 -186.346226 
L 167.696037 -184.41422 
L 165.837399 -182.331166 
L 165.466246 -180.439436 
L 165.897819 -179.66189 
L 165.751084 -178.902322 
L 164.718187 -177.618391 
L 164.421841 -176.235202 
L 162.594784 -173.054397 
L 161.636761 -171.386489 
L 157.755486 -166.276671 
L 155.639343 -162.474518 
L 152.588126 -155.485922 
L 152.780895 -153.578373 
L 152.527706 -152.032624 
L 148.617661 -145.041872 
L 145.890123 -140.850584 
L 145.022663 -138.953824 
L 143.27911 -137.098062 
L 141.509663 -134.157616 
L 139.40359 -131.876036 
L 137.168045 -128.857909 
L 134.574295 -123.625813 
L 132.679693 -120.870943 
L 130.772143 -118.825286 
L 126.129862 -113.849256 
L 124.561816 -111.6655 
L 116.616569 -103.408804 
L 112.982729 -99.223268 
L 110.61052 -97.115758 
L 109.297101 -95.536206 
L 104.450543 -91.377282 
L 103.351472 -89.743784 
L 102.416399 -89.238125 
L 99.077467 -85.480566 
L 91.264266 -80.671957 
L 85.264274 -77.211641 
L 80.584591 -75.073918 
L 72.604817 -69.64186 
L 68.763823 -66.652502 
L 66.794414 -64.631304 
L 65.672326 -64.015595 
L 65.321314 -63.145977 
L 63.462676 -61.482266 
L 62.506024 -60.973011 
L 61.690352 -59.93292 
L 59.026112 -58.373505 
L 58.183107 -57.195314 
L 56.852425 -56.31059 
L 54.419099 -53.965757 
L 48.472541 -47.672485 
L 41.143191 -39.795753 
L 37.785558 -36.82222 
L 37.263355 -35.760552 
L 36.706627 -35.553397 
L 36.007479 -34.621201 
L 35.948498 -33.84437 
L 35.76436 -34.13784 
L 34.820655 -33.402728 
L 30.470406 -27.892987 
L 29.922309 -27.556361 
L 28.791589 -27.432643 
L 28.798782 -26.447219 
L 27.816236 -24.969803 
L 27.030774 -24.408759 
L 26.692709 -26.270275 
L 26.5805 -25.204291 
L 27.026458 -23.987257 
L 25.297291 -21.292806 
L 25.280029 -20.948987 
L 25.714478 -21.166212 
L 25.501569 -20.698675 
L 25.101645 -20.651203 
L 24.506075 -21.419402 
L 24.638424 -19.767919 
L 21.377176 -14.414982 
L 20.643503 -13.918673 
L 19.308505 -12.096 
L 19.323676 -12.449385 
L 19.092583 -14.279697 
L 9.491752 -26.688612 
L 9.29261 -63.830072 
z
" style="stroke: #000000; stroke-width: 0.5"/>
    </defs>
    <g clip-path="url(#pd81d9049fa)">
     <use xlink:href="#m500fec22bd" x="0" y="266.112" style="fill: #ffeadb; stroke: #000000; stroke-width: 0.5"/>
    </g>
   </g>
  </g>
 </g>
 <defs>
  <clipPath id="pd81d9049fa">
   <rect x="0" y="-0" width="203.231599" height="266.112"/>
  </clipPath>
 </defs>
</svg>
