<?xml version="1.0" encoding="utf-8" standalone="no"?>
<!DOCTYPE svg PUBLIC "-//W3C//DTD SVG 1.1//EN"
  "http://www.w3.org/Graphics/SVG/1.1/DTD/svg11.dtd">
<svg xmlns:xlink="http://www.w3.org/1999/xlink" width="357.12pt" height="264.101916pt" viewBox="0 0 357.12 264.101916" xmlns="http://www.w3.org/2000/svg" version="1.1">
 <metadata>
  <rdf:RDF xmlns:dc="http://purl.org/dc/elements/1.1/" xmlns:cc="http://creativecommons.org/ns#" xmlns:rdf="http://www.w3.org/1999/02/22-rdf-syntax-ns#">
   <cc:Work>
    <dc:type rdf:resource="http://purl.org/dc/dcmitype/StillImage"/>
    <dc:date>2025-06-04T13:24:54.092536</dc:date>
    <dc:format>image/svg+xml</dc:format>
    <dc:creator>
     <cc:Agent>
      <dc:title>Matplotlib v3.10.3, https://matplotlib.org/</dc:title>
     </cc:Agent>
    </dc:creator>
   </cc:Work>
  </rdf:RDF>
 </metadata>
 <defs>
  <style type="text/css">*{stroke-linejoin: round; stroke-linecap: butt}</style>
 </defs>
 <g id="figure_1">
  <g id="patch_1">
   <path d="M 0 264.101916 
L 357.12 264.101916 
L 357.12 0 
L 0 0 
L 0 264.101916 
z
" style="fill: none"/>
  </g>
  <g id="axes_1">
   <g id="PatchCollection_1">
    <defs>
     <path id="mc07dd1d8ad" d="M 16.232727 -146.334659 
L 16.662131 -148.166028 
L 18.203433 -150.740311 
L 19.781704 -152.03919 
L 18.701086 -153.344459 
L 19.37505 -154.855903 
L 17.574689 -155.057416 
L 17.923325 -155.844098 
L 19.507284 -157.044156 
L 23.34632 -159.319137 
L 26.475846 -159.708018 
L 28.251756 -160.489336 
L 28.27735 -163.601795 
L 31.0443 -168.475245 
L 31.603093 -173.878332 
L 34.694229 -177.924246 
L 34.800869 -186.136231 
L 38.032769 -188.113339 
L 39.750382 -190.221962 
L 41.200685 -193.652924 
L 40.872234 -195.743066 
L 42.520176 -199.013357 
L 46.807101 -199.988757 
L 49.411958 -199.83093 
L 63.496958 -202.691723 
L 64.991338 -200.787134 
L 65.243009 -196.225078 
L 68.214707 -194.49609 
L 70.732833 -190.7946 
L 72.855676 -189.991617 
L 83.23956 -177.925668 
L 85.134907 -176.830831 
L 87.021722 -176.728463 
L 97.644479 -180.302322 
L 104.766603 -180.466545 
L 113.083095 -180.167955 
L 116.607899 -179.65537 
L 120.060188 -179.988083 
L 122.8668 -174.196769 
L 124.188436 -172.724086 
L 146.165352 -172.535287 
L 145.74998 -175.367357 
L 148.091164 -178.161675 
L 150.722718 -180.2035 
L 154.10107 -181.977988 
L 157.405485 -183.173068 
L 163.754115 -184.562941 
L 166.071756 -186.755457 
L 167.352856 -188.76668 
L 167.395512 -192.72018 
L 169.7487 -194.284943 
L 178.333923 -198.562625 
L 191.309868 -190.350641 
L 199.033441 -183.534217 
L 201.005568 -184.223821 
L 204.113367 -184.308888 
L 210.014508 -184.626921 
L 211.952511 -185.406105 
L 223.783853 -197.014925 
L 227.557484 -201.472473 
L 229.269411 -204.110744 
L 231.434912 -209.157655 
L 244.399481 -220.034215 
L 244.857322 -220.896577 
L 244.98529 -221.579784 
L 243.025959 -225.238954 
L 242.602243 -227.098042 
L 242.906522 -234.414254 
L 242.590868 -237.982425 
L 235.268261 -246.144644 
L 253.550607 -246.224978 
L 252.974752 -249.791017 
L 253.14111 -252.097283 
L 266.277725 -251.938035 
L 266.107101 -249.674423 
L 264.510346 -244.352381 
L 264.164833 -237.516052 
L 262.811217 -235.120921 
L 265.531246 -214.321872 
L 264.373847 -211.454679 
L 271.012537 -208.888924 
L 273.425443 -206.085716 
L 285.751595 -195.922221 
L 287.122273 -192.420877 
L 286.827947 -189.304145 
L 287.300006 -187.126558 
L 285.418878 -183.160264 
L 284.841601 -180.660627 
L 284.773351 -177.341283 
L 285.307973 -176.132696 
L 289.981152 -176.113502 
L 290.322295 -169.249264 
L 290.986894 -152.641719 
L 290.51911 -151.402902 
L 287.231757 -148.345181 
L 286.156827 -147.870992 
L 283.196503 -147.632827 
L 281.208735 -146.237978 
L 279.658901 -146.350307 
L 277.591509 -148.766764 
L 275.713225 -148.384991 
L 273.859112 -149.132897 
L 273.742519 -148.68287 
L 271.309707 -148.523622 
L 270.463697 -148.040192 
L 266.991502 -148.627421 
L 266.104258 -147.484954 
L 265.310857 -147.219775 
L 264.975296 -146.03749 
L 265.310857 -145.529889 
L 265.043546 -144.146414 
L 266.252132 -143.070771 
L 265.197107 -141.744877 
L 265.615136 -139.972528 
L 265.054921 -139.311359 
L 263.755336 -138.956599 
L 261.377977 -135.989169 
L 260.729396 -134.551492 
L 260.240484 -133.813711 
L 261.167541 -131.552947 
L 262.125878 -130.53205 
L 263.846335 -130.12824 
L 265.047812 -130.618787 
L 266.957377 -130.125396 
L 268.544179 -128.746186 
L 270.072684 -128.358015 
L 273.242022 -129.198337 
L 274.740669 -128.554237 
L 275.677678 -127.59732 
L 278.053615 -127.59732 
L 280.223382 -126.657465 
L 281.461827 -125.033692 
L 282.849567 -124.011373 
L 284.800367 -123.326033 
L 288.215688 -119.855263 
L 288.878277 -118.170352 
L 288.960745 -115.461698 
L 291.679352 -113.071543 
L 293.027281 -113.176758 
L 293.422559 -111.265239 
L 293.704089 -110.075671 
L 296.223634 -107.711108 
L 300.119546 -106.784053 
L 301.894034 -105.549872 
L 302.792653 -101.506797 
L 305.053419 -101.326933 
L 307.393809 -99.90649 
L 308.218491 -98.604771 
L 309.614763 -93.218033 
L 310.945629 -90.788774 
L 311.278346 -87.903812 
L 312.768461 -84.876659 
L 314.21592 -83.294834 
L 314.669229 -81.284908 
L 314.321138 -79.755811 
L 314.997946 -78.663108 
L 315.120226 -76.686715 
L 317.739303 -72.800757 
L 318.265393 -70.673645 
L 322.758488 -67.630853 
L 323.079829 -66.750008 
L 322.448521 -65.519383 
L 323.870387 -63.379476 
L 325.042004 -63.241555 
L 327.388082 -65.301126 
L 328.463012 -65.398525 
L 329.529411 -65.196619 
L 332.009145 -63.692286 
L 333.664196 -64.178564 
L 334.36091 -63.990877 
L 337.6767 -62.296725 
L 336.883299 -60.330996 
L 337.764856 -57.527077 
L 336.348678 -55.291905 
L 336.232085 -49.539033 
L 337.136392 -47.057882 
L 340.887273 -43.072396 
L 337.045828 -43.088639 
L 336.96927 -44.695947 
L 335.895173 -44.772665 
L 335.12796 -44.23562 
L 334.821075 -42.240868 
L 332.35235 -43.09116 
L 329.91836 -47.505835 
L 331.257119 -50.913582 
L 329.188129 -51.522113 
L 326.44976 -51.522113 
L 327.484255 -53.651952 
L 326.875728 -54.382184 
L 322.798602 -52.130636 
L 322.311781 -53.043428 
L 306.368389 -47.07987 
L 298.524213 -43.095144 
L 287.405225 -32.076399 
L 275.041137 -19.74259 
L 272.829681 -18.99808 
L 267.776462 -19.253918 
L 265.04639 -19.512079 
L 260.445233 -22.881901 
L 256.128449 -20.371596 
L 253.81934 -19.676311 
L 243.236395 -18.631946 
L 238.173132 -15.552896 
L 237.846998 -13.023571 
L 237.294419 -12.59826 
L 235.565431 -12.947332 
L 234.498379 -13.913342 
L 233.618179 -14.652065 
L 231.080867 -14.980596 
L 230.307372 -17.895422 
L 227.533855 -20.706756 
L 226.894895 -20.980871 
L 224.389568 -18.130033 
L 222.384134 -17.695025 
L 221.031122 -17.496587 
L 219.902161 -16.568817 
L 219.39882 -16.672615 
L 213.608984 -19.818498 
L 211.402249 -20.318279 
L 209.384622 -20.119221 
L 207.381213 -18.65043 
L 203.963049 -17.207238 
L 201.076662 -12.004633 
L 200.749633 -12.579776 
L 201.025475 -13.998797 
L 199.413079 -15.09719 
L 199.029176 -16.723808 
L 198.528679 -17.085668 
L 197.054204 -15.904812 
L 195.965055 -15.867837 
L 194.277301 -15.122782 
L 192.917998 -15.380852 
L 193.463994 -17.63593 
L 192.428876 -22.387096 
L 190.546326 -22.388517 
L 187.274614 -24.047125 
L 183.18675 -24.82346 
L 181.352544 -28.850897 
L 179.157184 -29.694063 
L 177.684131 -32.023785 
L 175.889737 -32.788753 
L 176.329093 -33.965344 
L 176.06036 -34.524138 
L 174.749401 -35.497405 
L 172.882491 -35.57276 
L 172.138856 -36.179191 
L 171.818936 -37.192269 
L 172.151801 -40.872155 
L 172.383416 -41.330605 
L 170.964395 -42.097706 
L 170.143978 -41.981112 
L 167.480824 -43.684506 
L 163.053135 -44.453731 
L 162.643638 -42.08491 
L 161.199022 -39.617258 
L 159.785688 -38.400858 
L 158.824507 -36.683948 
L 157.143862 -36.689636 
L 156.550944 -35.405692 
L 155.858496 -35.306167 
L 150.082878 -39.676982 
L 145.379347 -39.19141 
L 144.682633 -39.475072 
L 144.509165 -40.624649 
L 143.732827 -41.274445 
L 142.074932 -40.685794 
L 140.519411 -37.920262 
L 138.645392 -37.178051 
L 138.281395 -36.309292 
L 136.617812 -36.184878 
L 134.652794 -34.033598 
L 133.444208 -33.606319 
L 132.781619 -33.814627 
L 132.215717 -35.04241 
L 131.28866 -35.723485 
L 127.833527 -35.585564 
L 125.746229 -38.196816 
L 124.315832 -37.564089 
L 123.256542 -39.242594 
L 123.333323 -41.16567 
L 121.000042 -41.714511 
L 120.582013 -41.145765 
L 118.79615 -41.253118 
L 117.69847 -42.210035 
L 116.686102 -42.425443 
L 116.140105 -47.428992 
L 115.650984 -47.856263 
L 114.305899 -47.985645 
L 113.919152 -49.581695 
L 113.068876 -50.545721 
L 110.64033 -50.809478 
L 109.590993 -51.412347 
L 109.226995 -52.536332 
L 107.438289 -53.90843 
L 107.574788 -55.492388 
L 106.497014 -56.421577 
L 106.047704 -57.504327 
L 103.722954 -59.192082 
L 102.709164 -60.704236 
L 101.432329 -65.254206 
L 102.615321 -69.438756 
L 102.242792 -69.851807 
L 101.412423 -69.653457 
L 101.44086 -71.30211 
L 100.836567 -71.746444 
L 100.44982 -73.011904 
L 99.182938 -73.742743 
L 98.838846 -74.698236 
L 97.434043 -75.316748 
L 96.424519 -75.148968 
L 94.911654 -77.187212 
L 93.134322 -76.924165 
L 92.52292 -78.025401 
L 90.44984 -78.161901 
L 90.06878 -79.883069 
L 89.278223 -80.56272 
L 87.316048 -81.330527 
L 84.486536 -81.353278 
L 82.874141 -81.909938 
L 81.642805 -83.808128 
L 81.153683 -83.948893 
L 79.606694 -83.054539 
L 79.728974 -84.172836 
L 81.67693 -85.682857 
L 81.921491 -86.714422 
L 80.454126 -87.402603 
L 80.354595 -88.773283 
L 78.258765 -89.661946 
L 75.887094 -91.715123 
L 75.872875 -93.702179 
L 75.352472 -93.873512 
L 76.31081 -94.733743 
L 78.351977 -98.432958 
L 78.318484 -99.036306 
L 74.416885 -100.872645 
L 71.979807 -103.202374 
L 70.42713 -103.907619 
L 69.943696 -105.690637 
L 69.167357 -105.815762 
L 68.90289 -106.437117 
L 68.63558 -108.484603 
L 67.077215 -108.673712 
L 66.829811 -109.249567 
L 64.856261 -110.003156 
L 64.546295 -110.98993 
L 62.436246 -111.463413 
L 62.03528 -112.501375 
L 56.703285 -114.388191 
L 54.621673 -116.003429 
L 53.642008 -115.899631 
L 49.945158 -118.069398 
L 49.103414 -120.055746 
L 45.642593 -122.366277 
L 44.93166 -124.186261 
L 45.534531 -125.087728 
L 47.351675 -125.70197 
L 48.091045 -126.721454 
L 47.829422 -129.50831 
L 46.723211 -132.007942 
L 45.16769 -133.024582 
L 42.867112 -132.923627 
L 41.209216 -133.857795 
L 39.099168 -135.996278 
L 38.146518 -138.485254 
L 35.783378 -140.650759 
L 32.43915 -141.712176 
L 29.805855 -142.065514 
L 26.999093 -141.790382 
L 24.749702 -143.558466 
L 22.025407 -142.8518 
L 20.129645 -143.478598 
L 17.839435 -144.282202 
L 16.502882 -145.529889 
z
" style="stroke: #000000; stroke-width: 0.5"/>
    </defs>
    <g clip-path="url(#pafe886bc22)">
     <use xlink:href="#mc07dd1d8ad" x="0" y="264.101916" style="fill: #ffeadb; stroke: #000000; stroke-width: 0.5"/>
    </g>
   </g>
  </g>
 </g>
 <defs>
  <clipPath id="pafe886bc22">
   <rect x="0" y="0" width="357.12" height="264.101916"/>
  </clipPath>
 </defs>
</svg>
