<?xml version="1.0" encoding="utf-8" standalone="no"?>
<!DOCTYPE svg PUBLIC "-//W3C//DTD SVG 1.1//EN"
  "http://www.w3.org/Graphics/SVG/1.1/DTD/svg11.dtd">
<svg xmlns:xlink="http://www.w3.org/1999/xlink" width="357.12pt" height="188.993507pt" viewBox="0 0 357.12 188.993507" xmlns="http://www.w3.org/2000/svg" version="1.1">
 <metadata>
  <rdf:RDF xmlns:dc="http://purl.org/dc/elements/1.1/" xmlns:cc="http://creativecommons.org/ns#" xmlns:rdf="http://www.w3.org/1999/02/22-rdf-syntax-ns#">
   <cc:Work>
    <dc:type rdf:resource="http://purl.org/dc/dcmitype/StillImage"/>
    <dc:date>2025-06-04T13:24:52.252417</dc:date>
    <dc:format>image/svg+xml</dc:format>
    <dc:creator>
     <cc:Agent>
      <dc:title>Matplotlib v3.10.3, https://matplotlib.org/</dc:title>
     </cc:Agent>
    </dc:creator>
   </cc:Work>
  </rdf:RDF>
 </metadata>
 <defs>
  <style type="text/css">*{stroke-linejoin: round; stroke-linecap: butt}</style>
 </defs>
 <g id="figure_1">
  <g id="patch_1">
   <path d="M 0 188.993507 
L 357.12 188.993507 
L 357.12 -0 
L 0 -0 
L 0 188.993507 
z
" style="fill: none"/>
  </g>
  <g id="axes_1">
   <g id="PatchCollection_1">
    <path d="M 16.232727 95.631181 
L 17.216707 89.221456 
L 28.4805 76.76582 
L 47.636913 62.588193 
L 55.550325 60.256449 
L 63.439484 64.289394 
L 65.351397 62.291735 
L 64.735286 58.222654 
L 73.151083 45.514101 
L 80.059725 41.418793 
L 95.321797 37.233407 
L 90.751838 27.705443 
L 85.419638 24.330796 
L 88.406226 20.959652 
L 86.462521 16.556 
L 91.209179 13.222926 
L 93.062801 17.151898 
L 99.124241 11.604348 
L 107.846747 12.166205 
L 112.260795 8.590614 
L 112.437493 11.1822 
L 113.275953 9.848277 
L 117.163365 12.599271 
L 119.230347 12.921391 
L 145.005823 21.205633 
L 151.242312 15.215148 
L 152.985063 22.06834 
L 161.231087 24.909411 
L 163.2233 31.880436 
L 169.64622 40.128701 
L 171.396565 43.480305 
L 176.160548 41.50887 
L 181.575899 43.611957 
L 187.275354 54.848008 
L 199.661713 53.382434 
L 199.627067 61.275059 
L 205.229513 63.211847 
L 207.11396 66.730875 
L 214.750551 66.371652 
L 230.816438 69.968027 
L 233.091253 72.459541 
L 233.127406 88.265208 
L 247.055565 84.433247 
L 251.459217 85.42414 
L 252.134839 82.933029 
L 256.004926 83.72298 
L 262.982469 79.157266 
L 268.051743 76.606452 
L 266.908385 69.753226 
L 270.560311 69.545919 
L 286.466706 69.677007 
L 297.692385 86.231414 
L 306.103444 82.789937 
L 309.759992 84.454034 
L 313.141554 82.506853 
L 318.397529 83.036965 
L 324.16628 79.59303 
L 327.825017 85.680515 
L 333.333132 89.012054 
L 339.490718 93.119283 
L 332.595931 109.891949 
L 331.916848 119.676314 
L 327.915101 130.95743 
L 329.318314 134.020265 
L 335.492435 134.325143 
L 337.453463 138.888154 
L 334.823747 143.177509 
L 324.263099 147.88756 
L 321.43131 143.277053 
L 316.673464 153.425671 
L 327.700534 161.511813 
L 327.918782 163.918001 
L 324.153974 168.82863 
L 311.484573 175.829007 
L 311.009879 177.973301 
L 314.103569 180.068487 
L 287.481183 179.245946 
L 284.660384 179.448338 
L 256.174611 180.068487 
L 252.508017 179.070021 
L 255.749027 175.97633 
L 251.684124 171.742288 
L 254.434073 176.320082 
L 247.215457 176.401901 
L 245.191193 177.236729 
L 250.685629 178.235194 
L 244.121766 179.397378 
L 240.607943 174.486749 
L 242.441241 175.403395 
L 244.27454 172.740754 
L 239.462134 168.266653 
L 237.776154 167.240875 
L 238.774645 173.570102 
L 228.707874 169.827136 
L 225.461407 165.336639 
L 219.470448 164.338134 
L 202.828901 166.253286 
L 210.35852 168.108414 
L 222.324065 167.159015 
L 227.791223 172.740754 
L 219.470451 171.742288 
L 236.199298 175.768982 
L 238.774645 178.235194 
L 237.836172 179.839345 
L 229.018879 175.796255 
L 190.241345 167.633735 
L 188.240894 166.725185 
L 147.455614 146.828748 
L 131.935905 139.070283 
L 122.09284 136.789583 
L 94.978283 136.139462 
L 83.934685 133.606497 
L 74.502447 130.700814 
L 57.300721 131.756767 
L 53.398708 122.374166 
L 37.799022 113.223124 
L 18.379198 104.328575 
z
" clip-path="url(#p092e79a64d)" style="fill: #ffeadb; stroke: #000000; stroke-width: 0.5"/>
    <path d="M 336.448818 175.802218 
L 337.304341 173.414884 
L 339.158405 174.01356 
L 340.887273 179.895382 
L 336.875567 180.402893 
z
" clip-path="url(#p092e79a64d)" style="fill: #ffeadb; stroke: #000000; stroke-width: 0.5"/>
    <path d="M 329.22452 170.001892 
L 331.15368 169.14805 
L 333.083978 171.707361 
L 331.418813 173.670171 
z
" clip-path="url(#p092e79a64d)" style="fill: #ffeadb; stroke: #000000; stroke-width: 0.5"/>
   </g>
  </g>
 </g>
 <defs>
  <clipPath id="p092e79a64d">
   <rect x="0" y="0" width="357.12" height="188.993507"/>
  </clipPath>
 </defs>
</svg>
