<?xml version="1.0" encoding="utf-8" standalone="no"?>
<!DOCTYPE svg PUBLIC "-//W3C//DTD SVG 1.1//EN"
  "http://www.w3.org/Graphics/SVG/1.1/DTD/svg11.dtd">
<svg xmlns:xlink="http://www.w3.org/1999/xlink" width="259.682805pt" height="266.112pt" viewBox="0 0 259.682805 266.112" xmlns="http://www.w3.org/2000/svg" version="1.1">
 <metadata>
  <rdf:RDF xmlns:dc="http://purl.org/dc/elements/1.1/" xmlns:cc="http://creativecommons.org/ns#" xmlns:rdf="http://www.w3.org/1999/02/22-rdf-syntax-ns#">
   <cc:Work>
    <dc:type rdf:resource="http://purl.org/dc/dcmitype/StillImage"/>
    <dc:date>2025-06-04T13:24:41.177999</dc:date>
    <dc:format>image/svg+xml</dc:format>
    <dc:creator>
     <cc:Agent>
      <dc:title>Matplotlib v3.10.3, https://matplotlib.org/</dc:title>
     </cc:Agent>
    </dc:creator>
   </cc:Work>
  </rdf:RDF>
 </metadata>
 <defs>
  <style type="text/css">*{stroke-linejoin: round; stroke-linecap: butt}</style>
 </defs>
 <g id="figure_1">
  <g id="patch_1">
   <path d="M 0 266.112 
L 259.682805 266.112 
L 259.682805 0 
L 0 0 
L 0 266.112 
z
" style="fill: none"/>
  </g>
  <g id="axes_1">
   <g id="PatchCollection_1">
    <path d="M 191.87555 249.929026 
L 191.91836 249.744381 
L 192.166446 249.701055 
L 192.373786 249.785642 
L 192.284042 249.221389 
L 192.853453 249.282249 
L 192.147878 248.468362 
L 192.813739 248.319819 
L 192.852938 248.056777 
L 193.032426 247.960843 
L 192.96486 247.685936 
L 193.193863 247.360485 
L 193.566765 247.253205 
L 193.945858 247.277446 
L 193.852502 247.357906 
L 193.989182 247.493554 
L 193.945857 247.623528 
L 194.205806 247.710178 
L 193.359425 248.165603 
L 192.885947 248.770605 
L 193.070077 248.639598 
L 193.37954 248.665386 
L 193.300627 248.449795 
L 193.515188 248.382744 
L 193.596165 248.536444 
L 193.938121 248.114543 
L 194.42243 247.887087 
L 194.664327 248.004167 
L 194.158871 248.229044 
L 194.333202 248.374492 
L 194.50908 248.229044 
L 194.505469 248.467331 
L 193.97835 248.849516 
L 193.812789 249.102762 
L 194.174344 248.929978 
L 193.998466 249.273996 
L 193.608543 249.507126 
L 193.46619 250.015676 
L 193.899438 250.144619 
L 193.828261 249.690739 
L 194.137724 249.400877 
L 194.378589 249.495778 
L 194.53951 249.718592 
L 194.598824 250.143587 
L 194.827311 250.211154 
L 195.698965 249.955847 
L 196.243619 249.534978 
L 196.366373 249.750055 
L 196.241556 249.942436 
L 196.335426 250.006392 
L 196.771768 249.413254 
L 197.203985 249.141959 
L 197.25711 249.480821 
L 197.372127 249.534978 
L 197.068854 249.751602 
L 197.636202 249.838251 
L 197.156534 250.015676 
L 197.549552 250.078085 
L 197.549552 250.231269 
L 196.831599 250.317919 
L 196.002238 250.163187 
L 195.257979 250.61036 
L 195.350303 250.67999 
L 196.129117 250.310181 
L 196.460243 250.404568 
L 195.882579 250.59953 
L 196.29107 250.686179 
L 196.242072 250.805838 
L 196.853261 251.010084 
L 196.074446 251.183383 
L 198.068418 251.010084 
L 197.674884 251.244243 
L 197.156534 251.356682 
L 197.981769 251.387113 
L 198.461436 251.053408 
L 198.549117 251.269517 
L 198.923567 250.966243 
L 198.878695 250.76767 
L 199.157728 250.746525 
L 199.155664 250.630475 
L 199.524956 250.45305 
L 200.37598 250.209607 
L 200.763324 250.317919 
L 200.712262 250.452534 
L 201.035135 250.437061 
L 201.535434 249.926964 
L 201.934641 249.784611 
L 202.392645 249.799568 
L 203.113694 250.050234 
L 203.408715 250.833174 
L 203.329286 251.133868 
L 202.745433 251.702764 
L 202.083183 251.585169 
L 201.779909 251.841506 
L 202.761938 252.225756 
L 201.632914 252.225756 
L 201.348209 251.723911 
L 200.692147 251.58981 
L 199.909207 251.724428 
L 199.142254 251.606831 
L 198.679092 251.65944 
L 199.332058 251.922482 
L 199.174232 251.978187 
L 199.461001 252.182431 
L 199.161854 252.25103 
L 198.635766 251.92403 
L 198.505793 252.006039 
L 198.635767 252.316017 
L 197.852826 252.006039 
L 198.549117 252.53264 
L 198.625452 252.817347 
L 200.673579 253.35839 
L 200.219185 253.077295 
L 200.116547 252.741013 
L 200.682348 252.647142 
L 201.680881 252.803937 
L 201.858822 253.083485 
L 201.432279 253.339306 
L 200.849973 253.35839 
L 201.555032 253.587908 
L 201.353882 253.786997 
L 200.236721 253.974222 
L 199.885996 253.872098 
L 199.35372 253.889119 
L 198.890557 253.746766 
L 198.461436 253.268646 
L 198.402122 252.73998 
L 198.148363 252.603817 
L 197.852826 252.618774 
L 197.939475 252.835399 
L 197.506227 252.640436 
L 197.999304 253.129387 
L 197.9828 253.479597 
L 197.6754 253.657022 
L 196.444769 253.444524 
L 195.834097 253.030361 
L 195.248696 253.008697 
L 194.908802 252.538314 
L 194.725188 252.749265 
L 194.937685 253.0742 
L 194.634412 252.962278 
L 194.379105 252.702329 
L 194.59573 253.142283 
L 194.42243 253.398106 
L 194.193427 253.265035 
L 194.009297 252.866861 
L 193.925742 253.129387 
L 194.126893 253.526015 
L 193.889638 253.82207 
L 193.353236 254.016 
L 192.143236 253.942759 
L 191.975095 253.720463 
L 192.061744 253.197469 
L 192.471267 252.662099 
L 192.342323 252.51304 
L 192.844685 252.174694 
L 192.638377 251.774456 
L 192.241233 251.761047 
L 192.562558 251.523275 
L 192.986523 251.486141 
L 192.986523 251.269517 
L 192.428973 251.36545 
L 192.293841 251.226191 
L 192.514592 251.183383 
L 192.154584 251.015242 
L 191.974063 250.639759 
L 192.01223 250.556204 
L 192.254643 250.746525 
L 193.029847 250.361243 
L 192.544506 250.387031 
L 192.207191 250.274592 
L 192.514592 250.144619 
L 192.022546 250.144619 
L 192.077217 249.968224 
z
" clip-path="url(#p2799238b7a)" style="fill: #ffeadb; stroke: #000000; stroke-width: 0.5"/>
    <path d="M 194.685474 249.357552 
L 195.272937 248.846938 
L 195.815012 248.70871 
L 195.464804 249.05531 
L 196.074446 248.990323 
L 196.042468 249.082129 
L 195.507097 249.508157 
L 195.589621 249.719108 
L 195.367839 249.824841 
L 195.440562 249.882606 
L 194.877856 250.040433 
L 194.772123 249.991435 
z
" clip-path="url(#p2799238b7a)" style="fill: #ffeadb; stroke: #000000; stroke-width: 0.5"/>
    <path d="M 83.548082 232.827079 
L 84.051991 232.504206 
L 84.318645 232.602201 
L 84.413031 232.788911 
L 84.674011 232.816247 
L 84.889604 233.029261 
L 84.606445 233.289209 
L 83.859092 233.20256 
z
" clip-path="url(#p2799238b7a)" style="fill: #ffeadb; stroke: #000000; stroke-width: 0.5"/>
    <path d="M 247.260116 178.786613 
L 247.362755 178.608157 
L 247.617546 178.587525 
L 247.812507 178.735035 
L 247.879042 178.929482 
L 247.571126 179.100203 
L 247.368428 178.981575 
z
" clip-path="url(#p2799238b7a)" style="fill: #ffeadb; stroke: #000000; stroke-width: 0.5"/>
    <path d="M 192.073607 246.937552 
L 192.169025 246.711129 
L 192.318082 246.696171 
L 192.381522 246.861218 
L 192.254643 246.930848 
L 192.137047 247.008213 
z
" clip-path="url(#p2799238b7a)" style="fill: #ffeadb; stroke: #000000; stroke-width: 0.5"/>
    <path d="M 11.803764 80.353188 
L 11.980158 80.343388 
L 11.960043 80.545571 
L 12.078154 80.37485 
L 12.008009 80.619842 
L 11.820784 80.601274 
z
" clip-path="url(#p2799238b7a)" style="fill: #ffeadb; stroke: #000000; stroke-width: 0.5"/>
    <path d="M 198.764709 252.618774 
L 199.302143 252.59247 
L 199.907659 253.018497 
L 199.76118 253.084517 
L 199.461001 252.878723 
z
" clip-path="url(#p2799238b7a)" style="fill: #ffeadb; stroke: #000000; stroke-width: 0.5"/>
    <path d="M 196.853261 250.664517 
L 197.765144 250.404568 
L 197.422672 250.762513 
L 197.203986 250.707842 
L 197.018308 250.74962 
z
" clip-path="url(#p2799238b7a)" style="fill: #ffeadb; stroke: #000000; stroke-width: 0.5"/>
    <path d="M 194.379106 249.319386 
L 194.49928 248.850034 
L 194.902098 248.536444 
L 195.013504 248.745846 
L 194.595213 249.247176 
z
" clip-path="url(#p2799238b7a)" style="fill: #ffeadb; stroke: #000000; stroke-width: 0.5"/>
    <path d="M 191.207627 251.619725 
L 191.5109 251.442815 
L 192.145299 251.493876 
L 192.169025 251.619725 
L 192.030283 251.747637 
z
" clip-path="url(#p2799238b7a)" style="fill: #ffeadb; stroke: #000000; stroke-width: 0.5"/>
    <path d="M 74.162074 230.839295 
L 74.748506 230.706226 
L 74.940373 231.040446 
L 74.809367 231.234376 
L 74.324542 231.148242 
z
" clip-path="url(#p2799238b7a)" style="fill: #ffeadb; stroke: #000000; stroke-width: 0.5"/>
    <path d="M 247.408142 184.199634 
L 247.547401 184.221297 
L 247.651586 184.360555 
L 247.442699 184.38789 
z
" clip-path="url(#p2799238b7a)" style="fill: #ffeadb; stroke: #000000; stroke-width: 0.5"/>
    <path d="M 196.031121 248.359018 
L 196.762485 248.536444 
L 196.421044 248.70871 
L 196.182758 248.583378 
z
" clip-path="url(#p2799238b7a)" style="fill: #ffeadb; stroke: #000000; stroke-width: 0.5"/>
    <path d="M 190.996676 247.145923 
L 191.380926 247.060821 
L 191.36339 247.194406 
z
" clip-path="url(#p2799238b7a)" style="fill: #ffeadb; stroke: #000000; stroke-width: 0.5"/>
    <path d="M 55.860957 12.190386 
L 55.934713 12.096 
L 55.978038 12.218238 
z
" clip-path="url(#p2799238b7a)" style="fill: #ffeadb; stroke: #000000; stroke-width: 0.5"/>
    <path d="M 26.938044 47.035902 
L 27.156216 47.017335 
L 27.111859 47.115331 
z
" clip-path="url(#p2799238b7a)" style="fill: #ffeadb; stroke: #000000; stroke-width: 0.5"/>
   </g>
  </g>
 </g>
 <defs>
  <clipPath id="p2799238b7a">
   <rect x="0" y="-0" width="259.682805" height="266.112"/>
  </clipPath>
 </defs>
</svg>
