<?xml version="1.0" encoding="utf-8" standalone="no"?>
<!DOCTYPE svg PUBLIC "-//W3C//DTD SVG 1.1//EN"
  "http://www.w3.org/Graphics/SVG/1.1/DTD/svg11.dtd">
<svg xmlns:xlink="http://www.w3.org/1999/xlink" width="149.07897pt" height="266.112pt" viewBox="0 0 149.07897 266.112" xmlns="http://www.w3.org/2000/svg" version="1.1">
 <metadata>
  <rdf:RDF xmlns:dc="http://purl.org/dc/elements/1.1/" xmlns:cc="http://creativecommons.org/ns#" xmlns:rdf="http://www.w3.org/1999/02/22-rdf-syntax-ns#">
   <cc:Work>
    <dc:type rdf:resource="http://purl.org/dc/dcmitype/StillImage"/>
    <dc:date>2025-06-04T13:24:48.701531</dc:date>
    <dc:format>image/svg+xml</dc:format>
    <dc:creator>
     <cc:Agent>
      <dc:title>Matplotlib v3.10.3, https://matplotlib.org/</dc:title>
     </cc:Agent>
    </dc:creator>
   </cc:Work>
  </rdf:RDF>
 </metadata>
 <defs>
  <style type="text/css">*{stroke-linejoin: round; stroke-linecap: butt}</style>
 </defs>
 <g id="figure_1">
  <g id="patch_1">
   <path d="M 0 266.112 
L 149.07897 266.112 
L 149.07897 0 
L 0 0 
L 0 266.112 
z
" style="fill: none"/>
  </g>
  <g id="axes_1">
   <g id="PatchCollection_1">
    <path d="M 6.776317 43.020983 
L 7.12736 43.062658 
L 8.018447 44.027683 
L 9.358462 43.998994 
L 11.128834 42.988497 
L 13.167548 42.725642 
L 13.314376 42.509618 
L 13.444327 41.851423 
L 12.850264 38.109003 
L 11.780277 36.904846 
L 12.522855 36.273655 
L 12.922835 35.086374 
L 14.278039 33.859431 
L 14.306729 32.287784 
L 13.515209 31.341843 
L 14.07383 31.096709 
L 14.202094 30.775203 
L 13.564152 29.2006 
L 14.789405 27.86396 
L 14.752276 26.623944 
L 15.230338 26.376211 
L 17.503189 25.255659 
L 17.442433 23.870917 
L 17.768154 22.579846 
L 18.11244 22.503901 
L 18.557987 22.999234 
L 19.185803 23.001765 
L 20.849851 23.971337 
L 20.946049 24.637124 
L 21.246455 24.837958 
L 22.385637 24.424898 
L 24.545863 24.461608 
L 25.169598 24.169488 
L 26.064772 24.655687 
L 27.138134 24.113102 
L 27.553303 23.648988 
L 29.602143 23.224538 
L 30.559055 22.52162 
L 31.79781 23.519036 
L 32.052648 23.467566 
L 33.269463 22.823296 
L 33.711635 22.285347 
L 33.971537 18.693128 
L 34.896384 17.709634 
L 36.599249 17.373786 
L 38.524888 18.342091 
L 40.904512 17.703305 
L 42.003979 16.867443 
L 42.283344 16.159081 
L 41.636964 15.35406 
L 41.31293 14.101803 
L 40.565289 13.230119 
L 40.880885 13.122107 
L 41.90868 13.725451 
L 44.34231 14.352424 
L 46.550634 13.907298 
L 47.375908 12.555892 
L 48.999453 12.096 
L 49.796036 13.042787 
L 50.616247 13.269779 
L 51.647418 14.173108 
L 51.70733 15.058294 
L 52.516571 15.45743 
L 52.76466 15.221155 
L 52.754534 14.584479 
L 53.441418 14.251585 
L 53.951096 13.274842 
L 55.031209 12.836046 
L 55.648899 12.994688 
L 57.554286 16.248528 
L 58.668152 16.917692 
L 58.949994 16.620661 
L 58.89852 18.275428 
L 57.92895 21.310714 
L 57.185528 21.857522 
L 56.682764 22.722258 
L 56.288529 23.218631 
L 56.395199 23.863186 
L 57.569475 26.921397 
L 58.995562 27.616295 
L 59.411373 27.390956 
L 59.938129 26.858952 
L 60.366798 26.838701 
L 62.321972 27.814177 
L 64.392751 25.672517 
L 66.396867 25.721034 
L 68.390857 26.464033 
L 69.751124 26.064899 
L 70.454886 26.542509 
L 70.465856 27.617983 
L 70.245614 27.979568 
L 69.504724 28.298115 
L 69.16972 29.545732 
L 69.269293 30.03178 
L 69.80513 30.362568 
L 70.204266 33.599953 
L 71.545969 34.873303 
L 71.685202 35.3564 
L 70.991566 35.994347 
L 70.027904 37.736869 
L 70.08866 39.029207 
L 69.716527 40.099616 
L 70.189077 40.762451 
L 70.188233 41.269175 
L 68.982388 42.226934 
L 68.892097 42.930271 
L 67.627184 43.68635 
L 66.936924 44.708238 
L 66.959707 45.318759 
L 67.565081 45.952995 
L 68.892941 46.74864 
L 68.480304 47.266757 
L 68.451613 48.008493 
L 69.01361 48.832077 
L 68.667636 49.996995 
L 69.052427 51.148834 
L 68.18918 51.836564 
L 67.435632 53.098946 
L 66.369021 53.90228 
L 66.359738 54.789155 
L 65.786772 55.325837 
L 65.95554 55.61696 
L 65.678761 55.872644 
L 65.634782 56.796956 
L 64.488105 58.620178 
L 64.494012 58.981341 
L 65.338579 59.279745 
L 66.053425 59.408326 
L 67.160541 60.255539 
L 68.515745 60.811629 
L 69.077741 60.012514 
L 69.656615 59.80746 
L 70.389066 58.680936 
L 72.189817 57.262445 
L 72.621862 57.166248 
L 72.952647 56.665849 
L 72.691057 56.44139 
L 73.410007 56.371351 
L 73.7602 56.086978 
L 74.002382 56.587371 
L 74.564378 55.852388 
L 75.438594 55.415284 
L 75.075744 55.130911 
L 75.26296 55.063771 
L 75.671494 54.815313 
L 75.786256 54.17484 
L 76.159232 54.399303 
L 76.744013 53.738575 
L 78.26039 53.455046 
L 78.859515 51.36275 
L 79.262026 50.819741 
L 80.786841 51.517596 
L 81.121846 51.415065 
L 83.591249 48.880316 
L 83.966424 48.529985 
L 84.438055 48.553209 
L 85.492084 48.750647 
L 85.812743 49.537948 
L 86.874291 50.48558 
L 87.692814 51.180903 
L 88.667448 51.387642 
L 89.415932 52.115874 
L 92.47569 52.752971 
L 92.683274 53.404418 
L 92.404807 54.620387 
L 93.835957 55.122468 
L 93.67394 54.219566 
L 94.725363 53.810302 
L 96.60881 52.47788 
L 98.277922 51.823063 
L 99.347909 52.278735 
L 99.633126 52.173256 
L 100.206936 51.441228 
L 100.097237 50.188128 
L 100.445921 49.756833 
L 101.276923 49.298718 
L 101.760442 47.942673 
L 103.689457 47.443541 
L 103.852178 47.20129 
L 102.935909 46.53473 
L 102.999197 45.814932 
L 103.627856 45.235219 
L 105.327347 44.812456 
L 107.975311 45.237751 
L 110.371813 46.253306 
L 111.825746 46.40562 
L 113.284742 47.396289 
L 114.188493 46.67185 
L 114.94204 46.621645 
L 115.647489 47.136808 
L 117.341072 50.465329 
L 118.663281 51.716726 
L 119.947622 54.282963 
L 121.101216 54.971424 
L 122.23871 56.923221 
L 123.200685 57.892794 
L 126.816533 59.739951 
L 128.287343 61.435225 
L 128.72192 62.454582 
L 128.642599 65.181867 
L 127.513543 67.945436 
L 127.530261 69.272518 
L 127.857829 70.503111 
L 127.719185 71.307749 
L 128.063726 73.169639 
L 127.639275 74.640449 
L 127.663746 76.04291 
L 129.312607 77.264786 
L 130.17079 78.909429 
L 131.476847 79.879491 
L 132.10318 80.472216 
L 132.365613 82.370009 
L 133.419225 83.114486 
L 138.583403 84.597392 
L 137.591504 85.417953 
L 137.561126 85.995983 
L 138.400745 87.949468 
L 138.987213 88.519058 
L 140.955887 88.77221 
L 142.138105 89.872576 
L 142.302653 90.646375 
L 141.343239 94.027449 
L 139.612497 94.887085 
L 139.564398 95.546544 
L 140.841125 95.768896 
L 140.88163 96.558728 
L 139.234457 97.91562 
L 138.918862 98.824012 
L 139.052188 99.461532 
L 140.177868 99.929018 
L 140.711174 100.921794 
L 141.356711 101.159333 
L 140.394735 102.086289 
L 140.663919 102.604407 
L 140.539875 102.966836 
L 140.127238 103.006494 
L 140.235249 103.666801 
L 139.862273 103.828393 
L 139.659752 104.497981 
L 139.920498 105.313973 
L 139.960158 108.127751 
L 138.464877 110.346624 
L 137.675888 110.568973 
L 137.14427 111.039838 
L 136.485232 110.821704 
L 136.05825 111.388344 
L 134.68195 111.692546 
L 134.203493 111.941901 
L 133.328433 113.573882 
L 132.444935 113.842644 
L 131.798554 113.356596 
L 131.279594 112.421199 
L 131.244996 111.122535 
L 130.294489 110.917292 
L 127.943901 110.155496 
L 126.983613 110.694708 
L 126.657047 110.251693 
L 126.257068 110.649138 
L 125.311125 110.496829 
L 124.207385 111.453316 
L 123.387174 111.230967 
L 122.830174 111.507996 
L 119.384005 110.788796 
L 118.629614 111.16599 
L 118.233854 110.737741 
L 117.644011 111.36176 
L 117.14277 111.12591 
L 116.089711 111.504027 
L 116.078931 111.509207 
L 115.365647 111.703515 
L 114.918413 111.340665 
L 114.03407 111.384969 
L 113.467855 111.779461 
L 112.469594 111.32843 
L 110.154102 111.071059 
L 109.978583 110.323842 
L 109.58198 110.088409 
L 108.748268 110.735632 
L 107.723847 110.495141 
L 106.35683 111.270625 
L 105.912971 111.054183 
L 104.939181 111.566394 
L 102.986347 111.754746 
L 100.941075 112.22332 
L 99.29025 113.437619 
L 97.937011 114.05656 
L 97.608335 114.644781 
L 96.887277 117.001553 
L 95.304236 118.382073 
L 94.092484 121.227919 
L 91.540717 122.731637 
L 91.519621 123.076345 
L 92.445312 123.780949 
L 91.064792 124.406237 
L 88.10967 124.448005 
L 87.802513 124.833219 
L 88.06549 125.754295 
L 88.059897 129.215707 
L 88.92313 131.436674 
L 90.687455 133.746087 
L 90.313776 134.166068 
L 90.504484 134.424704 
L 90.27496 134.850842 
L 90.957624 137.137226 
L 90.770724 137.814647 
L 90.468198 138.59158 
L 90.781844 139.314938 
L 92.295108 140.038762 
L 94.062106 141.618427 
L 94.193744 142.153421 
L 95.156026 143.052562 
L 94.442677 144.098467 
L 93.987848 147.08228 
L 94.114424 147.731193 
L 95.176626 149.269078 
L 96.450168 152.184127 
L 97.606226 153.825393 
L 97.85094 155.406745 
L 97.602705 155.778952 
L 97.271814 153.757726 
L 95.372845 151.588331 
L 95.208065 149.80431 
L 93.002125 147.513986 
L 92.974219 147.361829 
L 93.356936 147.39771 
L 92.555622 146.666825 
L 92.575555 146.383775 
L 91.859289 146.696725 
L 91.784872 146.996388 
L 92.194167 149.19236 
L 91.729059 149.069439 
L 91.375577 148.141882 
L 90.418784 147.563819 
L 88.405532 146.801044 
L 87.982948 147.052201 
L 87.426148 146.82895 
L 86.982302 145.268844 
L 87.831456 145.240937 
L 88.430781 144.711379 
L 88.490045 144.145999 
L 88.433438 143.999766 
L 88.191582 143.854917 
L 87.982948 144.031658 
L 88.114507 144.087471 
L 88.210187 144.164545 
L 88.276631 144.260224 
L 88.319155 144.366537 
L 88.085272 144.643606 
L 87.750394 144.832973 
L 87.44741 144.803072 
L 87.314522 144.42235 
L 87.357046 143.698774 
L 87.456712 143.352602 
L 87.6494 143.017724 
L 87.548405 143.017724 
L 87.444752 143.145295 
L 87.202896 143.586484 
L 87.093928 143.586484 
L 87.026155 143.387151 
L 86.987618 143.182505 
L 87.002235 142.984502 
L 87.093928 142.805768 
L 86.905227 142.944635 
L 86.643438 143.036329 
L 86.412213 143.012408 
L 86.312547 142.805768 
L 86.044114 142.880848 
L 85.967039 142.917394 
L 86.123846 143.013073 
L 86.184975 143.14463 
L 86.169028 143.302105 
L 86.089295 143.474858 
L 86.188961 143.474858 
L 86.535799 143.240974 
L 86.644767 143.41971 
L 86.719184 143.579174 
L 86.731144 143.739305 
L 86.647425 143.920033 
L 86.979645 144.167204 
L 87.149741 144.67085 
L 87.00888 144.996425 
L 86.412213 144.711379 
L 85.408909 143.698109 
L 84.919882 143.436321 
L 84.715234 143.292801 
L 84.741812 143.13998 
L 84.478694 142.797129 
L 84.107937 142.407767 
L 83.859436 142.019735 
L 83.960431 141.68087 
L 84.02023 141.81376 
L 84.088003 141.858942 
L 84.178367 141.870902 
L 84.295308 141.904124 
L 84.08003 141.761268 
L 84.188998 141.625058 
L 84.409592 141.458284 
L 84.51856 141.223735 
L 84.394975 141.223735 
L 84.308597 141.384531 
L 84.202287 141.450312 
L 84.08003 141.434364 
L 83.960431 141.346659 
L 84.125212 141.199815 
L 84.207602 141.1553 
L 84.295308 141.123408 
L 83.466088 141.141348 
L 83.391671 141.007127 
L 83.737179 140.676901 
L 83.047491 140.712782 
L 82.836199 140.778563 
L 82.836199 140.900152 
L 83.051478 141.052309 
L 83.198983 141.274898 
L 83.390342 141.448316 
L 83.73718 141.457617 
L 83.657446 141.660938 
L 83.622896 141.877544 
L 83.614922 142.349298 
L 83.051478 141.513432 
L 82.830883 141.275565 
L 82.557134 141.182542 
L 82.251492 141.1553 
L 82.044187 141.223735 
L 82.044187 140.515443 
L 82.012294 140.342025 
L 81.939206 140.177908 
L 81.866118 140.095516 
L 81.831567 140.170599 
L 81.802331 140.269602 
L 81.656154 140.375914 
L 81.610972 140.464949 
L 81.823593 141.16726 
L 81.831566 141.346659 
L 81.28141 140.932049 
L 81.04487 140.693512 
L 80.930586 140.464949 
L 81.265464 140.565276 
L 81.205664 140.293522 
L 81.094039 140.233721 
L 80.958493 140.256312 
L 80.818961 140.231062 
L 80.686073 140.108806 
L 80.619629 139.98655 
L 80.569132 139.847015 
L 80.484083 139.674264 
L 80.21565 139.30882 
L 79.912665 139.010487 
L 79.555197 138.763316 
L 79.240501 138.601475 
L 77.858218 138.437078 
L 76.844283 139.36065 
L 75.843637 139.339388 
L 75.604439 139.688216 
L 73.949984 139.671605 
L 73.183221 140.270264 
L 71.637734 139.51081 
L 67.787971 138.882918 
L 65.996642 139.552671 
L 65.938171 140.231062 
L 65.148817 139.886884 
L 65.388015 139.605162 
L 65.010614 139.177263 
L 64.035216 139.339388 
L 64.144184 138.548037 
L 63.700338 138.437078 
L 64.198669 137.404536 
L 64.593345 137.5454 
L 65.047822 136.754715 
L 64.144184 134.980663 
L 64.593346 134.515554 
L 64.715602 133.957426 
L 65.186025 133.789988 
L 65.263101 133.235844 
L 64.367436 132.06178 
L 65.459775 130.386725 
L 64.925565 128.869145 
L 65.251141 128.146238 
L 66.049797 127.804714 
L 66.039643 126.108319 
L 66.286338 125.565551 
L 65.550138 126.021359 
L 63.758453 125.858949 
L 60.634614 125.172207 
L 59.693768 124.612745 
L 59.788118 123.669907 
L 59.429321 125.182838 
L 57.651404 125.57365 
L 56.570441 125.655748 
L 55.531718 125.79877 
L 54.517784 125.230674 
L 53.898526 125.872523 
L 51.478637 126.711712 
L 50.660047 127.091108 
L 50.379654 127.681128 
L 50.047434 127.592756 
L 50.281316 127.693089 
L 50.127166 128.232614 
L 49.417545 128.607359 
L 49.386981 128.906355 
L 50.002252 130.106332 
L 51.234123 131.172759 
L 51.729795 132.731533 
L 50.891272 134.220542 
L 50.416862 136.164696 
L 49.824182 137.088929 
L 49.385652 139.608483 
L 49.712556 142.572549 
L 50.225504 143.975846 
L 49.744449 145.580467 
L 50.177664 146.059528 
L 50.353076 146.850211 
L 49.296617 148.812966 
L 47.270076 151.226211 
L 47.139846 151.978355 
L 47.363098 152.553095 
L 46.920581 152.860732 
L 47.038851 154.218846 
L 46.440856 154.287284 
L 45.97309 154.734452 
L 44.177774 157.781572 
L 43.914656 159.133041 
L 42.993743 160.872545 
L 43.268821 163.139612 
L 42.993743 163.400738 
L 42.874144 163.07782 
L 42.327974 163.275158 
L 41.801738 164.156205 
L 42.111367 165.685745 
L 41.917333 166.374149 
L 41.765858 166.857153 
L 42.050239 168.508284 
L 41.765859 168.316261 
L 40.93398 168.443169 
L 40.801092 169.562086 
L 39.820379 171.029168 
L 39.809748 171.528827 
L 39.038998 171.824503 
L 38.635019 172.350738 
L 38.239013 173.738753 
L 37.691515 173.916823 
L 37.659622 174.254358 
L 38.078219 174.356682 
L 37.622413 175.193211 
L 38.411767 175.927417 
L 38.350639 176.703483 
L 37.520089 177.043011 
L 36.963289 176.474915 
L 36.172606 176.819759 
L 36.455657 177.956616 
L 37.364611 178.860918 
L 37.854967 178.827032 
L 37.643675 179.152607 
L 36.984551 179.215729 
L 36.172606 180.965863 
L 36.617781 182.242251 
L 36.284232 182.809681 
L 36.507483 185.100671 
L 36.063626 186.064325 
L 36.519444 188.121876 
L 37.340691 190.123835 
L 38.980528 192.590898 
L 38.444989 192.614819 
L 37.54268 193.492544 
L 37.52009 194.440697 
L 37.861611 195.188194 
L 39.424373 195.405465 
L 39.872206 195.834025 
L 40.944611 195.784193 
L 41.889444 195.387524 
L 42.446245 194.384884 
L 43.38842 194.496509 
L 44.955168 193.826758 
L 46.299995 193.885224 
L 46.815599 193.715795 
L 47.634189 194.172926 
L 47.733855 194.775577 
L 48.030195 195.28653 
L 48.164412 195.174905 
L 48.172385 196.406109 
L 48.658755 197.319052 
L 48.933833 198.975496 
L 48.710581 199.310377 
L 48.822207 201.215988 
L 49.489304 205.423885 
L 50.69194 206.405259 
L 51.634115 208.350078 
L 52.380946 208.964684 
L 53.067976 208.827809 
L 52.717152 207.126845 
L 52.166996 206.911566 
L 52.485927 206.774691 
L 52.978941 207.129499 
L 53.626106 207.986626 
L 54.459313 210.136088 
L 55.618095 216.313387 
L 57.214079 223.85411 
L 59.398757 228.45934 
L 58.97671 228.425422 
L 57.740315 227.41617 
L 56.974881 227.273981 
L 57.194146 226.840103 
L 56.69033 225.459373 
L 56.65595 223.026881 
L 56.386377 222.397787 
L 55.342219 222.262271 
L 54.754324 223.181031 
L 54.430077 222.86609 
L 54.525757 222.221583 
L 55.308467 221.577738 
L 55.038704 219.267485 
L 54.430077 218.65487 
L 53.305846 219.031607 
L 52.390248 219.895381 
L 52.359684 220.212317 
L 53.053358 223.246148 
L 53.701852 223.813578 
L 54.578912 225.728495 
L 54.973589 226.047425 
L 56.069914 226.210212 
L 56.210775 226.584292 
L 56.31177 227.294578 
L 56.996512 227.637392 
L 56.432698 228.00885 
L 57.154701 229.028222 
L 58.105757 229.412146 
L 59.102938 229.280353 
L 59.637955 228.710499 
L 59.585472 227.978788 
L 62.835238 232.180202 
L 63.535967 232.43183 
L 63.904986 232.262594 
L 66.315636 233.983495 
L 67.466382 233.966217 
L 69.480963 233.898444 
L 70.135905 233.597342 
L 70.343961 233.242902 
L 72.092211 233.669211 
L 71.716138 232.984175 
L 70.642404 232.544981 
L 71.119022 232.384913 
L 72.645458 233.19079 
L 74.324728 233.630009 
L 75.601781 234.382821 
L 78.169175 238.59271 
L 79.555196 240.386697 
L 81.193704 241.409268 
L 83.87804 243.767365 
L 83.66433 246.424409 
L 81.618866 248.270727 
L 81.262766 250.26978 
L 79.426574 252.219469 
L 78.81226 252.062092 
L 78.223261 251.45917 
L 77.746019 251.774836 
L 77.229219 251.800081 
L 76.975224 251.521614 
L 76.709415 250.330536 
L 76.236866 250.158816 
L 75.814946 249.501887 
L 74.523189 249.72461 
L 70.421132 251.450732 
L 69.822007 253.173006 
L 68.350353 254.016 
L 67.33184 252.714802 
L 66.332736 252.388658 
L 65.905013 251.681525 
L 65.82812 251.170999 
L 66.605295 249.63226 
L 67.516641 249.281224 
L 67.641529 248.982083 
L 67.89468 246.57208 
L 67.212859 245.775075 
L 67.228048 245.398724 
L 67.81114 244.888623 
L 67.796795 244.159125 
L 67.481199 243.876018 
L 66.460999 243.949431 
L 65.935288 243.520761 
L 64.887241 244.121996 
L 63.989397 243.924116 
L 63.628234 244.107651 
L 63.476942 243.096387 
L 63.181 241.198939 
L 63.029109 240.886298 
L 62.009752 240.520072 
L 61.94562 239.918838 
L 60.324607 240.709515 
L 57.655546 239.591851 
L 56.192893 239.370862 
L 55.401654 238.864461 
L 54.499591 236.602975 
L 53.493736 236.718582 
L 53.278792 236.551462 
L 53.088694 236.411845 
L 52.750314 236.621539 
L 52.574796 237.838777 
L 52.756221 238.72776 
L 52.405185 239.162335 
L 52.104539 240.750144 
L 51.497241 240.05514 
L 51.716506 239.265785 
L 51.341762 239.206652 
L 51.06004 239.700329 
L 50.047434 238.706329 
L 49.882653 238.209993 
L 49.440136 238.277101 
L 49.60093 237.80402 
L 49.38831 237.18609 
L 49.002935 237.117654 
L 47.862756 235.519676 
L 47.604954 235.293766 
L 47.166424 235.405392 
L 46.714605 234.554909 
L 44.895369 233.645955 
L 44.971115 232.696473 
L 45.353832 232.586839 
L 44.815636 232.073892 
L 44.78773 231.206134 
L 45.871976 229.525793 
L 44.761152 229.630084 
L 44.676104 228.855346 
L 43.724626 229.411484 
L 42.806371 228.418811 
L 42.603052 227.294578 
L 43.252874 226.63479 
L 43.551872 225.500591 
L 42.670825 226.714523 
L 42.264188 226.559042 
L 42.276148 225.600921 
L 41.994426 225.357073 
L 41.670179 226.97764 
L 41.383141 227.071328 
L 39.872206 226.402235 
L 39.193148 225.379 
L 39.369889 224.727848 
L 39.082851 223.42289 
L 38.523393 223.361759 
L 38.740001 223.01625 
L 38.476883 221.507973 
L 37.775234 221.39236 
L 37.889645 220.946388 
L 35.94271 219.488744 
L 35.828426 219.114661 
L 35.5281 220.122615 
L 35.190564 220.345871 
L 34.611173 220.230257 
L 34.239087 219.840231 
L 33.932116 218.334608 
L 34.713496 217.610373 
L 34.833096 216.540621 
L 34.155367 216.885466 
L 33.700891 216.251594 
L 33.170668 216.029006 
L 33.051069 215.203104 
L 32.425167 214.521392 
L 31.142798 215.266894 
L 30.435834 214.457607 
L 29.945478 214.927362 
L 29.572063 214.199138 
L 29.518908 211.804497 
L 29.239843 211.168629 
L 28.904966 211.625099 
L 28.849153 210.439076 
L 28.737527 210.276289 
L 27.557482 210.72279 
L 27.593362 209.662345 
L 27.968707 209.292859 
L 28.07043 209.114844 
L 27.222605 208.827809 
L 27.146858 209.191923 
L 25.957511 209.821811 
L 25.428618 209.709518 
L 25.314334 210.008519 
L 24.982114 209.831112 
L 24.982114 210.043732 
L 24.360199 210.138084 
L 24.261862 210.311502 
L 24.766836 210.512829 
L 24.926301 211.784565 
L 24.307044 212.890192 
L 23.989441 212.62774 
L 23.756888 213.08421 
L 23.196101 212.292859 
L 21.962901 211.625099 
L 20.600799 206.233838 
L 20.792158 205.818562 
L 21.4061 206.911566 
L 21.500451 206.583333 
L 20.959597 206.019889 
L 21.294474 204.682372 
L 20.959597 203.455151 
L 21.461913 202.904329 
L 21.638654 201.423295 
L 22.147615 200.219328 
L 22.672522 199.38878 
L 23.311713 199.410042 
L 23.214705 199.049916 
L 23.756887 198.408068 
L 22.95956 198.687132 
L 22.800094 198.558896 
L 22.753584 198.134318 
L 23.605395 197.810073 
L 22.729664 196.300463 
L 22.629998 195.565593 
L 22.914378 195.7224 
L 23.42201 195.28653 
L 23.11371 194.879893 
L 23.729595 193.35224 
L 24.83328 190.027492 
L 25.316992 190.361705 
L 26.039902 189.740452 
L 24.934275 189.114548 
L 25.763495 188.293302 
L 25.428618 187.787 
L 25.747548 187.637503 
L 25.428618 187.330531 
L 26.249865 187.448136 
L 26.606005 186.858113 
L 25.875121 186.662104 
L 25.6625 186.894656 
L 25.6625 186.33653 
L 26.437237 185.953146 
L 26.887727 185.221598 
L 26.332256 185.76976 
L 25.739575 185.319271 
L 26.332255 184.553838 
L 26.776101 184.654165 
L 26.999353 184.199026 
L 26.701684 184.035571 
L 27.033904 183.591062 
L 27.669108 183.427613 
L 27.158818 183.082101 
L 27.222605 182.759848 
L 28.182055 181.262867 
L 29.008618 179.299448 
L 29.572063 176.931385 
L 30.289027 174.157254 
L 30.059503 173.131568 
L 29.580202 172.480125 
L 29.725343 171.778895 
L 30.609685 170.463352 
L 31.544658 170.083624 
L 31.724016 169.784531 
L 32.152222 169.356658 
L 32.619708 169.465934 
L 33.27959 169.19675 
L 33.571558 167.175757 
L 33.78758 166.998552 
L 34.595977 167.220059 
L 34.952077 166.382972 
L 35.998278 165.682501 
L 36.55537 164.898238 
L 37.174747 164.558171 
L 37.669236 163.09833 
L 39.645506 160.174431 
L 39.863216 159.214565 
L 40.838693 157.888895 
L 41.041214 156.303746 
L 42.556748 155.867481 
L 43.606483 154.47599 
L 43.984522 153.005182 
L 42.863905 152.071895 
L 43.069802 150.383374 
L 42.161831 149.573291 
L 42.541559 147.69997 
L 41.081718 147.883926 
L 41.432755 146.938829 
L 40.016795 142.388851 
L 40.305954 140.739043 
L 40.126493 140.366171 
L 38.217731 139.128259 
L 38.052339 138.519853 
L 37.362079 138.281046 
L 37.137618 137.059593 
L 36.558745 136.387476 
L 36.197582 135.079102 
L 36.38829 134.06734 
L 35.21873 133.041655 
L 35.36387 130.869613 
L 35.559641 130.596211 
L 36.741808 130.212905 
L 36.518241 128.753688 
L 36.749453 128.292954 
L 36.764642 126.692614 
L 36.179018 124.164476 
L 36.09353 121.850435 
L 35.348681 120.949876 
L 35.166412 119.459236 
L 33.812895 118.160568 
L 32.928553 116.880464 
L 32.63996 115.943802 
L 31.612165 115.501631 
L 29.674712 114.070483 
L 28.911883 112.929613 
L 28.314445 112.963364 
L 27.188765 112.21657 
L 26.311173 111.171053 
L 24.196514 107.417238 
L 22.225308 105.560797 
L 21.340966 104.191243 
L 20.490005 101.119847 
L 20.616952 100.169934 
L 19.987449 99.27209 
L 20.481938 98.083122 
L 20.260852 97.406785 
L 20.758935 97.429334 
L 21.17051 97.305525 
L 22.186491 96.230897 
L 23.772907 96.79205 
L 23.53157 96.168031 
L 23.884294 95.75455 
L 23.955176 95.128844 
L 25.116298 94.747007 
L 25.784618 95.073995 
L 26.079961 95.686199 
L 26.510319 95.206899 
L 26.628456 93.619217 
L 26.25149 89.985111 
L 26.900172 85.055947 
L 26.299359 83.904107 
L 27.477357 83.846726 
L 28.123738 82.780958 
L 28.464648 82.619786 
L 29.752346 82.733703 
L 30.154013 83.007107 
L 30.548929 82.874624 
L 31.009664 82.319379 
L 31.134553 81.271332 
L 31.797809 80.454497 
L 32.104967 78.447848 
L 31.139616 77.521315 
L 31.077172 76.965224 
L 30.736261 77.239472 
L 30.245147 78.563455 
L 28.510216 80.214002 
L 28.197995 79.998824 
L 27.646125 78.104405 
L 27.681566 77.117117 
L 26.581201 75.666557 
L 26.537321 74.853942 
L 24.82433 72.870077 
L 25.116298 71.99755 
L 25.818371 71.567192 
L 25.36945 70.910684 
L 25.541592 70.600153 
L 25.933133 70.792548 
L 25.686733 70.103132 
L 25.278315 69.887108 
L 25.116298 69.15972 
L 24.191451 67.876243 
L 22.260749 67.293151 
L 22.174678 66.593608 
L 21.749383 66.591076 
L 21.923214 66.120214 
L 18.880333 63.252008 
L 18.816201 62.263031 
L 17.947048 61.736474 
L 17.231473 60.255539 
L 15.865079 59.289885 
L 13.59453 57.259914 
L 13.278934 56.269247 
L 12.078996 54.791687 
L 12.453661 54.742742 
L 12.232575 53.968945 
L 12.796258 52.948746 
L 13.351504 52.526825 
L 12.796259 51.154741 
L 12.37434 51.016776 
L 12.212323 49.635411 
L 11.128835 48.074731 
L 11.542315 47.562947 
L 11.449493 47.01909 
L 10.408197 46.581982 
L 9.665619 47.688677 
L 8.98211 47.250725 
L 8.428552 46.573544 
L 8.273286 45.434785 
z
" clip-path="url(#p4a9f3c4e82)" style="fill: #ffeadb; stroke: #000000; stroke-width: 0.5"/>
    <path d="M 21.517726 216.484809 
L 21.962901 215.263572 
L 21.962901 212.181901 
L 22.75757 212.530067 
L 22.976836 213.530711 
L 23.247927 213.373242 
L 23.989441 213.966586 
L 24.268506 213.692169 
L 24.538268 213.966586 
L 24.203391 215.425692 
L 23.868513 215.760573 
L 24.203391 216.885466 
L 24.416012 216.662215 
L 24.5489 217.165196 
L 23.893762 217.525322 
L 23.868514 218.334608 
L 22.98348 218.042255 
L 22.643287 219.054198 
L 22.132997 218.947223 
L 21.739649 217.108721 
L 22.026687 216.885466 
z
" clip-path="url(#p4a9f3c4e82)" style="fill: #ffeadb; stroke: #000000; stroke-width: 0.5"/>
    <path d="M 86.759051 147.49804 
L 87.761026 147.609665 
L 88.281946 147.97843 
L 89.210833 149.292027 
L 89.888561 150.528548 
L 89.665309 150.627551 
L 88.875955 149.950486 
L 88.826787 150.47207 
L 87.761026 150.305297 
L 87.883282 150.630872 
L 87.426148 150.407621 
L 87.488605 149.069439 
z
" clip-path="url(#p4a9f3c4e82)" style="fill: #ffeadb; stroke: #000000; stroke-width: 0.5"/>
    <path d="M 91.339697 155.220822 
L 91.750321 153.918519 
L 92.005466 154.359707 
L 91.896498 154.76568 
L 92.312437 154.731793 
L 92.579542 155.148397 
L 92.454627 157.126435 
L 91.339697 156.448041 
L 91.570922 156.103197 
z
" clip-path="url(#p4a9f3c4e82)" style="fill: #ffeadb; stroke: #000000; stroke-width: 0.5"/>
    <path d="M 48.822207 189.742443 
L 49.36439 189.501253 
L 50.73978 189.772344 
L 51.171665 189.408897 
L 51.506543 189.824835 
L 51.020173 191.410852 
L 50.341116 192.032767 
L 49.154427 192.15569 
z
" clip-path="url(#p4a9f3c4e82)" style="fill: #ffeadb; stroke: #000000; stroke-width: 0.5"/>
    <path d="M 34.034439 221.243529 
L 34.266993 221.122598 
L 34.935419 221.699332 
L 35.102858 222.882034 
L 35.614477 223.818229 
L 35.328768 224.013576 
L 34.629777 223.412256 
L 34.207194 222.467424 
z
" clip-path="url(#p4a9f3c4e82)" style="fill: #ffeadb; stroke: #000000; stroke-width: 0.5"/>
    <path d="M 25.997378 213.297492 
L 26.194052 213.600476 
L 27.204 214.277542 
L 27.222605 216.885466 
L 26.794706 216.626334 
L 26.564809 215.537318 
L 26.875767 215.062908 
L 26.366806 214.619065 
z
" clip-path="url(#p4a9f3c4e82)" style="fill: #ffeadb; stroke: #000000; stroke-width: 0.5"/>
    <path d="M 43.498717 238.445204 
L 44.424946 236.152888 
L 45.199682 238.855827 
L 45.122607 239.264458 
L 44.676104 239.537542 
L 44.452852 239.932884 
L 44.051904 238.957727 
z
" clip-path="url(#p4a9f3c4e82)" style="fill: #ffeadb; stroke: #000000; stroke-width: 0.5"/>
    <path d="M 21.294475 198.184813 
L 21.420718 196.533682 
L 21.830013 196.372225 
L 22.195455 196.614078 
L 22.641958 197.739641 
L 22.418706 198.184813 
L 21.519055 198.383481 
z
" clip-path="url(#p4a9f3c4e82)" style="fill: #ffeadb; stroke: #000000; stroke-width: 0.5"/>
    <path d="M 49.545117 186.499317 
L 49.824182 185.891354 
L 50.604234 185.99301 
L 51.123826 186.319252 
L 51.497241 188.121214 
L 49.824182 187.228869 
z
" clip-path="url(#p4a9f3c4e82)" style="fill: #ffeadb; stroke: #000000; stroke-width: 0.5"/>
    <path d="M 26.676435 213.372574 
L 27.110979 213.185867 
L 27.039219 212.916772 
L 27.557482 212.181901 
L 27.778076 212.516777 
L 27.505656 213.844326 
z
" clip-path="url(#p4a9f3c4e82)" style="fill: #ffeadb; stroke: #000000; stroke-width: 0.5"/>
    <path d="M 21.485833 199.033305 
L 21.628023 198.773507 
L 22.077184 198.911712 
L 22.443955 199.34094 
L 21.784831 200.990079 
L 21.500451 200.652544 
z
" clip-path="url(#p4a9f3c4e82)" style="fill: #ffeadb; stroke: #000000; stroke-width: 0.5"/>
    <path d="M 14.911868 191.764997 
L 15.274652 191.260025 
L 15.737102 191.586266 
L 15.649395 191.820815 
L 15.242759 191.787588 
L 15.244087 192.040744 
z
" clip-path="url(#p4a9f3c4e82)" style="fill: #ffeadb; stroke: #000000; stroke-width: 0.5"/>
    <path d="M 39.955925 228.473959 
L 39.991805 227.143086 
L 40.31738 227.294578 
L 41.108063 227.740417 
L 40.510068 227.800216 
z
" clip-path="url(#p4a9f3c4e82)" style="fill: #ffeadb; stroke: #000000; stroke-width: 0.5"/>
    <path d="M 36.284232 238.919614 
L 37.743341 238.5854 
L 37.902807 238.812639 
L 37.245012 239.204657 
L 36.538048 239.170771 
z
" clip-path="url(#p4a9f3c4e82)" style="fill: #ffeadb; stroke: #000000; stroke-width: 0.5"/>
    <path d="M 34.42513 220.810312 
L 34.7919 220.617625 
L 35.726103 220.908648 
L 35.722116 221.733883 
L 35.472287 221.940523 
z
" clip-path="url(#p4a9f3c4e82)" style="fill: #ffeadb; stroke: #000000; stroke-width: 0.5"/>
    <path d="M 23.653235 187.097974 
L 24.089107 186.438854 
L 24.171498 187.007611 
L 23.868514 187.45212 
z
" clip-path="url(#p4a9f3c4e82)" style="fill: #ffeadb; stroke: #000000; stroke-width: 0.5"/>
    <path d="M 14.677985 192.256023 
L 14.931801 191.989582 
L 15.218839 192.11981 
L 15.274652 192.786245 
z
" clip-path="url(#p4a9f3c4e82)" style="fill: #ffeadb; stroke: #000000; stroke-width: 0.5"/>
    <path d="M 44.607002 190.506552 
L 45.106661 190.130478 
L 45.183736 190.472001 
z
" clip-path="url(#p4a9f3c4e82)" style="fill: #ffeadb; stroke: #000000; stroke-width: 0.5"/>
   </g>
  </g>
 </g>
 <defs>
  <clipPath id="p4a9f3c4e82">
   <rect x="0" y="-0" width="149.07897" height="266.112"/>
  </clipPath>
 </defs>
</svg>
