<?xml version="1.0" encoding="utf-8" standalone="no"?>
<!DOCTYPE svg PUBLIC "-//W3C//DTD SVG 1.1//EN"
  "http://www.w3.org/Graphics/SVG/1.1/DTD/svg11.dtd">
<svg xmlns:xlink="http://www.w3.org/1999/xlink" width="254.899915pt" height="266.112pt" viewBox="0 0 254.899915 266.112" xmlns="http://www.w3.org/2000/svg" version="1.1">
 <metadata>
  <rdf:RDF xmlns:dc="http://purl.org/dc/elements/1.1/" xmlns:cc="http://creativecommons.org/ns#" xmlns:rdf="http://www.w3.org/1999/02/22-rdf-syntax-ns#">
   <cc:Work>
    <dc:type rdf:resource="http://purl.org/dc/dcmitype/StillImage"/>
    <dc:date>2025-06-04T13:24:51.822659</dc:date>
    <dc:format>image/svg+xml</dc:format>
    <dc:creator>
     <cc:Agent>
      <dc:title>Matplotlib v3.10.3, https://matplotlib.org/</dc:title>
     </cc:Agent>
    </dc:creator>
   </cc:Work>
  </rdf:RDF>
 </metadata>
 <defs>
  <style type="text/css">*{stroke-linejoin: round; stroke-linecap: butt}</style>
 </defs>
 <g id="figure_1">
  <g id="patch_1">
   <path d="M 0 266.112 
L 254.899915 266.112 
L 254.899915 0 
L 0 0 
L 0 266.112 
z
" style="fill: none"/>
  </g>
  <g id="axes_1">
   <g id="PatchCollection_1">
    <defs>
     <path id="mec3bf2b99e" d="M 11.58636 -32.694641 
L 11.776955 -35.70341 
L 14.10389 -38.061079 
L 13.774607 -44.054031 
L 14.94466 -48.339105 
L 14.446345 -49.300611 
L 15.899581 -50.736286 
L 14.89417 -55.969695 
L 15.509001 -59.55535 
L 17.097919 -68.90505 
L 18.503114 -74.444679 
L 18.024556 -77.842882 
L 20.496375 -82.075269 
L 22.019859 -81.763547 
L 23.527976 -89.078026 
L 26.555979 -93.378972 
L 28.109404 -95.931508 
L 27.218144 -101.020031 
L 27.591331 -108.110596 
L 28.399173 -109.792135 
L 29.881552 -110.829294 
L 32.267153 -112.099314 
L 36.802481 -113.128872 
L 38.432313 -115.314552 
L 40.025066 -117.969337 
L 39.783592 -120.517989 
L 40.784613 -123.02054 
L 42.446395 -124.533048 
L 44.393557 -123.863507 
L 46.140953 -125.826034 
L 49.565499 -126.282638 
L 54.159388 -131.50078 
L 59.597661 -138.497949 
L 74.215641 -150.302751 
L 76.327 -152.953944 
L 83.433377 -161.896819 
L 85.016581 -166.156434 
L 81.194251 -169.133361 
L 80.660812 -172.590836 
L 77.901418 -171.706162 
L 75.464722 -172.053006 
L 74.626148 -172.762066 
L 74.872013 -173.793823 
L 71.759188 -176.94616 
L 70.183019 -176.952745 
L 68.894424 -174.419456 
L 67.671686 -173.828944 
L 65.463293 -175.694881 
L 64.831069 -178.175482 
L 60.822595 -178.632086 
L 61.946548 -181.793204 
L 61.871911 -184.917005 
L 63.380761 -188.433275 
L 64.690575 -192.393936 
L 65.840871 -193.11616 
L 66.951653 -197.666854 
L 65.511588 -201.062866 
L 62.289003 -203.745422 
L 63.067953 -207.446947 
L 65.562078 -214.157357 
L 66.4248 -214.469073 
L 69.079619 -218.602151 
L 69.563967 -219.82432 
L 68.716611 -224.291601 
L 66.301868 -223.027151 
L 70.758167 -231.059467 
L 76.03548 -233.287613 
L 79.128547 -235.555284 
L 82.243566 -235.86261 
L 85.65055 -235.090996 
L 94.589492 -230.234061 
L 95.366601 -230.073806 
L 97.109607 -231.506193 
L 99.198525 -231.812562 
L 102.29472 -232.484171 
L 106.1627 -236.885587 
L 107.149193 -236.462381 
L 111.431232 -232.121955 
L 112.625432 -227.621748 
L 116.542794 -227.114528 
L 117.901737 -225.974012 
L 119.549161 -224.482587 
L 122.21855 -223.943653 
L 123.071678 -224.600292 
L 123.575197 -228.505323 
L 131.392381 -233.259077 
L 147.731415 -234.871474 
L 151.296455 -235.944926 
L 157.961147 -239.820591 
L 165.064884 -234.617916 
L 169.27985 -234.219341 
L 177.081527 -233.824352 
L 180.495798 -234.973802 
L 199.584743 -254.016 
L 201.771183 -252.670319 
L 202.298036 -249.798972 
L 203.501018 -248.422572 
L 203.154173 -245.013389 
L 205.213291 -242.277053 
L 204.159584 -239.472656 
L 205.147434 -239.115928 
L 208.326115 -239.844737 
L 209.26567 -239.354109 
L 208.914434 -238.200524 
L 206.88605 -237.151206 
L 208.163668 -236.021767 
L 207.035325 -235.152459 
L 210.793544 -235.491614 
L 212.404836 -232.352453 
L 212.896566 -232.073663 
L 214.876656 -233.408356 
L 219.236366 -230.568838 
L 219.416374 -226.259616 
L 218.209002 -223.316916 
L 216.755765 -222.460779 
L 217.48897 -220.624482 
L 216.869917 -218.700369 
L 218.573409 -215.151798 
L 219.455888 -208.963462 
L 222.3448 -207.826341 
L 223.733773 -206.345177 
L 225.396157 -199.174972 
L 227.766997 -196.261906 
L 228.609962 -196.198248 
L 229.659278 -197.146591 
L 231.573511 -195.952385 
L 233.54482 -188.848645 
L 235.336121 -185.125552 
L 236.31958 -184.690898 
L 237.329382 -185.417512 
L 237.755255 -184.837982 
L 238.242594 -181.913941 
L 239.79242 -179.999712 
L 239.678269 -179.036009 
L 237.425971 -177.202999 
L 237.052784 -176.153681 
L 239.739735 -168.674562 
L 241.658359 -164.052527 
L 241.425665 -158.780701 
L 243.313556 -156.191437 
L 242.176431 -154.213544 
L 242.132526 -145.957312 
L 240.222684 -141.698584 
L 238.049414 -140.701955 
L 236.174695 -135.814289 
L 233.65019 -133.748587 
L 233.724688 -133.036719 
L 234.989276 -128.820318 
L 234.453641 -127.094874 
L 229.606592 -126.124586 
L 227.275267 -124.19279 
L 225.216149 -123.723011 
L 224.639728 -121.619443 
L 224.350099 -121.200063 
L 222.116496 -121.598038 
L 220.830097 -119.986745 
L 220.241474 -117.242739 
L 218.876349 -112.720563 
L 217.041144 -109.418947 
L 213.585866 -107.390564 
L 213.143287 -106.484798 
L 212.290685 -103.685029 
L 206.912392 -100.405368 
L 206.148333 -98.952526 
L 204.993769 -94.399243 
L 203.773225 -92.700141 
L 204.177146 -89.503899 
L 198.87056 -83.202772 
L 195.905551 -78.589257 
L 198.539817 -69.847885 
L 196.08995 -46.609271 
L 196.48948 -32.173495 
L 184.916307 -32.173495 
L 176.192497 -32.173495 
L 151.588454 -32.173495 
L 146.280236 -32.173495 
L 115.011672 -32.173495 
L 85.033446 -32.173495 
L 65.8277 -32.173495 
L 63.65004 -32.884746 
L 59.825964 -31.220767 
L 57.766846 -29.16604 
L 50.679475 -29.443582 
L 50.214011 -29.588397 
L 44.973095 -29.468982 
L 44.121349 -26.461527 
L 42.99753 -25.799455 
L 41.541964 -23.054544 
L 39.651878 -21.258853 
L 37.671789 -20.494913 
L 36.89029 -17.623567 
L 33.440975 -15.845338 
L 32.280324 -14.229751 
L 27.130335 -12.096 
L 25.571727 -13.0136 
L 24.869257 -16.552298 
L 23.204953 -18.524308 
L 22.065959 -18.225054 
L 21.075914 -16.723522 
L 19.372422 -17.491849 
L 15.306872 -15.757624 
L 12.707729 -15.783971 
L 13.098479 -19.089971 
L 12.435522 -20.42028 
L 12.857004 -22.308168 
L 11.82086 -24.560466 
L 12.374056 -28.972859 
z
" style="stroke: #000000; stroke-width: 0.5"/>
    </defs>
    <g clip-path="url(#p03cdeb5297)">
     <use xlink:href="#mec3bf2b99e" x="0" y="266.112" style="fill: #ffeadb; stroke: #000000; stroke-width: 0.5"/>
    </g>
   </g>
  </g>
 </g>
 <defs>
  <clipPath id="p03cdeb5297">
   <rect x="0" y="-0" width="254.899915" height="266.112"/>
  </clipPath>
 </defs>
</svg>
