<?xml version="1.0" encoding="utf-8" standalone="no"?>
<!DOCTYPE svg PUBLIC "-//W3C//DTD SVG 1.1//EN"
  "http://www.w3.org/Graphics/SVG/1.1/DTD/svg11.dtd">
<svg xmlns:xlink="http://www.w3.org/1999/xlink" width="182.275795pt" height="266.112pt" viewBox="0 0 182.275795 266.112" xmlns="http://www.w3.org/2000/svg" version="1.1">
 <metadata>
  <rdf:RDF xmlns:dc="http://purl.org/dc/elements/1.1/" xmlns:cc="http://creativecommons.org/ns#" xmlns:rdf="http://www.w3.org/1999/02/22-rdf-syntax-ns#">
   <cc:Work>
    <dc:type rdf:resource="http://purl.org/dc/dcmitype/StillImage"/>
    <dc:date>2025-06-04T13:25:04.857872</dc:date>
    <dc:format>image/svg+xml</dc:format>
    <dc:creator>
     <cc:Agent>
      <dc:title>Matplotlib v3.10.3, https://matplotlib.org/</dc:title>
     </cc:Agent>
    </dc:creator>
   </cc:Work>
  </rdf:RDF>
 </metadata>
 <defs>
  <style type="text/css">*{stroke-linejoin: round; stroke-linecap: butt}</style>
 </defs>
 <g id="figure_1">
  <g id="patch_1">
   <path d="M -0 266.112 
L 182.275795 266.112 
L 182.275795 0 
L -0 0 
L -0 266.112 
z
" style="fill: none"/>
  </g>
  <g id="axes_1">
   <g id="PatchCollection_1">
    <path d="M 8.285263 23.418293 
L 27.138334 16.143364 
L 47.975781 19.123306 
L 39.723465 12.096 
L 72.391996 28.068296 
L 77.514835 35.850142 
L 66.667993 36.835265 
L 64.19247 40.335237 
L 46.320969 28.267386 
L 13.848166 28.481862 
z
" clip-path="url(#p4ff2c5030a)" style="fill: #ffeadb; stroke: #000000; stroke-width: 0.5"/>
    <path d="M 58.578695 254.016 
L 65.012213 222.016148 
L 77.991157 225.806402 
L 101.039955 216.25399 
L 129.179635 232.701454 
L 149.389289 223.918245 
L 173.990532 230.351816 
L 135.794975 242.169915 
z
" clip-path="url(#p4ff2c5030a)" style="fill: #ffeadb; stroke: #000000; stroke-width: 0.5"/>
    <path d="M 90.849233 32.150461 
L 109.523304 16.567359 
L 139.277301 29.239084 
L 125.321236 27.089887 
L 124.286107 40.723813 
z
" clip-path="url(#p4ff2c5030a)" style="fill: #ffeadb; stroke: #000000; stroke-width: 0.5"/>
   </g>
  </g>
 </g>
 <defs>
  <clipPath id="p4ff2c5030a">
   <rect x="-0" y="-0" width="182.275795" height="266.112"/>
  </clipPath>
 </defs>
</svg>
