<?xml version="1.0" encoding="utf-8" standalone="no"?>
<!DOCTYPE svg PUBLIC "-//W3C//DTD SVG 1.1//EN"
  "http://www.w3.org/Graphics/SVG/1.1/DTD/svg11.dtd">
<svg xmlns:xlink="http://www.w3.org/1999/xlink" width="125.070742pt" height="266.112pt" viewBox="0 0 125.070742 266.112" xmlns="http://www.w3.org/2000/svg" version="1.1">
 <metadata>
  <rdf:RDF xmlns:dc="http://purl.org/dc/elements/1.1/" xmlns:cc="http://creativecommons.org/ns#" xmlns:rdf="http://www.w3.org/1999/02/22-rdf-syntax-ns#">
   <cc:Work>
    <dc:type rdf:resource="http://purl.org/dc/dcmitype/StillImage"/>
    <dc:date>2025-06-04T13:24:44.430788</dc:date>
    <dc:format>image/svg+xml</dc:format>
    <dc:creator>
     <cc:Agent>
      <dc:title>Matplotlib v3.10.3, https://matplotlib.org/</dc:title>
     </cc:Agent>
    </dc:creator>
   </cc:Work>
  </rdf:RDF>
 </metadata>
 <defs>
  <style type="text/css">*{stroke-linejoin: round; stroke-linecap: butt}</style>
 </defs>
 <g id="figure_1">
  <g id="patch_1">
   <path d="M 0 266.112 
L 125.070742 266.112 
L 125.070742 0 
L 0 0 
L 0 266.112 
z
" style="fill: none"/>
  </g>
  <g id="axes_1">
   <g id="PatchCollection_1">
    <path d="M 26.785144 113.66904 
L 27.828647 110.571399 
L 27.886163 107.643569 
L 29.436353 106.413824 
L 33.133802 107.813377 
L 33.08998 108.996562 
L 35.105775 111.483438 
L 34.514183 112.658404 
L 35.297494 113.055538 
L 35.204374 113.808723 
L 37.639212 115.419166 
L 37.663862 114.337321 
L 38.460867 115.419166 
L 38.211633 116.355855 
L 39.151059 116.815982 
L 39.816599 116.355855 
L 40.506789 117.755407 
L 42.117234 118.426425 
L 43.787934 119.954707 
L 45.124493 119.804069 
L 44.899907 120.538079 
L 45.502454 121.184447 
L 46.959523 122.334765 
L 47.819522 122.186867 
L 48.567229 124.608012 
L 47.868823 126.344447 
L 48.383726 126.71693 
L 48.559012 125.640558 
L 49.512133 124.980499 
L 50.224234 126.281451 
L 48.73156 127.267436 
L 47.803089 129.066862 
L 46.874619 129.269536 
L 46.27481 128.305462 
L 42.752648 127.511196 
L 40.942267 128.579347 
L 41.679019 129.039477 
L 41.350356 129.46126 
L 39.356472 130.41438 
L 38.748447 130.208965 
L 38.460868 130.644444 
L 37.261251 129.992596 
L 35.993162 128.384889 
L 35.913736 127.637183 
L 37.061314 128.305462 
L 36.973671 127.768646 
L 35.502909 125.013365 
L 35.453609 123.709668 
L 34.763419 123.271455 
L 34.437495 117.371969 
L 32.673675 114.748147 
L 29.666416 116.585918 
L 28.866672 115.887511 
L 28.058711 115.895728 
z
" clip-path="url(#p349c44fc08)" style="fill: #ffeadb; stroke: #000000; stroke-width: 0.5"/>
    <path d="M 5.756243 71.572892 
L 5.915098 68.373921 
L 6.884651 65.306404 
L 7.944586 64.985959 
L 8.306114 64.610733 
L 8.692294 64.928448 
L 11.261336 69.817294 
L 13.309996 71.151115 
L 12.981333 71.485251 
L 15.533943 82.621423 
L 19.121838 82.470786 
L 20.584385 80.728876 
L 20.628207 75.585317 
L 22.079799 74.599331 
L 24.610498 74.829395 
L 23.712153 75.462065 
L 23.210944 78.066713 
L 23.996994 78.529579 
L 24.821388 81.975053 
L 25.634827 81.402634 
L 26.67559 81.534098 
L 27.119284 84.856325 
L 26.560559 85.628681 
L 28.27508 87.507533 
L 28.050494 88.698933 
L 27.36852 88.427788 
L 27.601322 89.553455 
L 28.987181 92.823644 
L 30.079983 93.648038 
L 29.677371 94.844916 
L 27.119284 94.820267 
L 24.706356 97.096251 
L 21.45534 96.595042 
L 18.724705 96.95657 
L 17.900311 97.685104 
L 18.228973 98.013767 
L 17.237509 97.915168 
L 15.616109 99.377715 
L 13.540059 98.347907 
L 13.961843 97.712494 
L 13.616747 96.151348 
L 11.967959 95.154406 
L 8.900445 90.180652 
L 10.015158 84.571484 
L 8.829235 81.996964 
L 8.347197 79.31289 
L 8.692293 78.296776 
L 7.755605 77.606586 
z
" clip-path="url(#p349c44fc08)" style="fill: #ffeadb; stroke: #000000; stroke-width: 0.5"/>
    <path d="M 60.563398 168.70352 
L 61.500085 166.616515 
L 64.449827 163.329889 
L 66.347853 162.458944 
L 66.80798 163.231297 
L 69.716639 162.513714 
L 70.735491 162.919061 
L 73.972814 167.788744 
L 75.123132 167.558681 
L 73.907083 170.938426 
L 71.770779 172.154476 
L 71.192881 171.694349 
L 68.547149 172.253068 
L 67.604984 171.245171 
L 67.243457 171.694349 
L 67.038043 170.796004 
L 65.887726 171.256132 
L 66.098617 170.083902 
L 63.800721 171.004158 
L 65.731609 169.842878 
L 65.887725 169.141737 
L 65.378299 169.32798 
L 65.123586 168.457026 
L 63.948618 167.942117 
L 62.650403 168.226962 
L 61.730149 169.393711 
z
" clip-path="url(#p349c44fc08)" style="fill: #ffeadb; stroke: #000000; stroke-width: 0.5"/>
    <path d="M 88.535286 203.853937 
L 88.754394 201.430052 
L 89.406241 200.063367 
L 91.750698 198.995215 
L 94.259486 199.603242 
L 94.925026 202.637884 
L 97.343434 202.840566 
L 98.16235 204.100439 
L 95.63439 204.675595 
L 96.551904 205.951897 
L 99.896043 207.871835 
L 100.460246 209.649351 
L 98.389674 211.818519 
L 94.736045 209.797242 
L 92.591524 209.5617 
L 88.705096 207.688333 
L 89.206306 205.16859 
z
" clip-path="url(#p349c44fc08)" style="fill: #ffeadb; stroke: #000000; stroke-width: 0.5"/>
    <path d="M 59.528112 134.744501 
L 59.889641 132.276797 
L 60.494927 131.641384 
L 60.330596 130.162404 
L 61.869829 130.406159 
L 63.800721 134.111829 
L 65.509763 133.832463 
L 67.939125 136.691825 
L 70.324664 136.806857 
L 71.655746 137.809277 
L 71.212052 138.000996 
L 71.425682 139.419719 
L 66.692947 137.354628 
L 63.315944 138.573417 
L 61.941041 138.269406 
L 60.522315 137.080743 
L 60.330595 135.492206 
z
" clip-path="url(#p349c44fc08)" style="fill: #ffeadb; stroke: #000000; stroke-width: 0.5"/>
    <path d="M 52.544041 118.722221 
L 55.291109 117.350058 
L 57.81633 116.928275 
L 59.70066 115.22197 
L 60.221042 113.899105 
L 61.253588 113.578658 
L 62.453205 115.402733 
L 63.241995 118.541458 
L 66.290337 120.398401 
L 66.577915 121.184447 
L 65.178363 122.455278 
L 61.615116 122.584 
L 60.188176 123.057825 
L 57.161745 121.729483 
L 56.216841 121.869161 
L 52.815187 119.590437 
z
" clip-path="url(#p349c44fc08)" style="fill: #ffeadb; stroke: #000000; stroke-width: 0.5"/>
    <path d="M 96.346491 227.988696 
L 97.562539 223.119014 
L 100.460247 222.43157 
L 101.008014 222.883473 
L 101.169608 227.164302 
L 101.465403 227.649074 
L 103.697567 228.429647 
L 106.017375 229.596401 
L 104.617821 231.436907 
L 103.8126 233.964873 
L 101.169609 233.252771 
L 99.435914 231.436907 
L 98.499228 231.305446 
z
" clip-path="url(#p349c44fc08)" style="fill: #ffeadb; stroke: #000000; stroke-width: 0.5"/>
    <path d="M 34.97431 36.080124 
L 35.697366 34.801077 
L 38.277365 33.746623 
L 40.736853 36.770313 
L 40.284942 37.939799 
L 41.679019 38.74229 
L 38.211633 39.777574 
L 38.60055 41.026491 
L 38.140422 41.620819 
L 37.433798 41.68107 
L 37.061314 40.829288 
L 36.913416 39.698143 
L 35.116731 37.676875 
z
" clip-path="url(#p349c44fc08)" style="fill: #ffeadb; stroke: #000000; stroke-width: 0.5"/>
    <path d="M 59.503462 99.528351 
L 60.67843 92.815428 
L 61.41792 92.757911 
L 61.730149 94.650457 
L 62.335435 95.209183 
L 62.190276 98.347907 
L 64.575815 107.991401 
L 64.055433 110.061974 
L 62.351868 110.623438 
L 61.787665 109.90586 
z
" clip-path="url(#p349c44fc08)" style="fill: #ffeadb; stroke: #000000; stroke-width: 0.5"/>
    <path d="M 58.522954 75.322383 
L 59.202189 74.388437 
L 60.234736 75.881112 
L 61.253589 83.037728 
L 61.94104 84.166134 
L 61.500085 90.520269 
L 59.88964 90.520269 
L 59.856774 82.528301 
L 58.72289 76.563083 
z
" clip-path="url(#p349c44fc08)" style="fill: #ffeadb; stroke: #000000; stroke-width: 0.5"/>
    <path d="M 44.664366 92.73874 
L 44.787614 91.780142 
L 48.895891 87.99231 
L 51.829201 87.047406 
L 55.559517 86.707789 
L 53.439646 90.410716 
L 53.050729 91.478867 
L 50.04347 93.538483 
L 46.529524 93.52205 
z
" clip-path="url(#p349c44fc08)" style="fill: #ffeadb; stroke: #000000; stroke-width: 0.5"/>
    <path d="M 35.324882 53.836091 
L 35.535774 50.127688 
L 36.896983 48.999282 
L 39.151059 48.298142 
L 42.117235 49.930495 
L 41.794049 51.995585 
L 40.736852 53.627938 
L 39.52902 54.334569 
L 36.324564 54.285268 
z
" clip-path="url(#p349c44fc08)" style="fill: #ffeadb; stroke: #000000; stroke-width: 0.5"/>
    <path d="M 31.805459 26.891274 
L 33.089981 26.187395 
L 33.648706 26.940574 
L 32.903738 27.093946 
L 33.498069 27.682804 
L 34.30329 27.324009 
L 33.826731 28.537325 
L 32.443612 28.474334 
L 32.093038 27.975858 
z
" clip-path="url(#p349c44fc08)" style="fill: #ffeadb; stroke: #000000; stroke-width: 0.5"/>
    <path d="M 25.50884 96.994914 
L 27.119284 95.362559 
L 28.223042 95.116063 
L 27.828647 95.592622 
L 28.872149 97.293449 
L 28.379156 97.668672 
L 26.275718 97.490647 
z
" clip-path="url(#p349c44fc08)" style="fill: #ffeadb; stroke: #000000; stroke-width: 0.5"/>
    <path d="M 24.254446 99.980262 
L 25.018585 98.4109 
L 26.094954 98.139754 
L 29.682849 98.813511 
L 29.688327 102.174082 
L 28.746162 102.505484 
L 24.821388 100.900516 
z
" clip-path="url(#p349c44fc08)" style="fill: #ffeadb; stroke: #000000; stroke-width: 0.5"/>
    <path d="M 113.96826 252.528803 
L 114.559852 250.337723 
L 117.413735 250.236385 
L 119.385708 251.970078 
L 118.465454 253.555873 
L 117.06864 254.016 
z
" clip-path="url(#p349c44fc08)" style="fill: #ffeadb; stroke: #000000; stroke-width: 0.5"/>
    <path d="M 5.685034 12.096 
L 7.059937 12.561606 
L 7.525542 15.108737 
L 6.829874 16.253581 
L 5.991786 15.629123 
L 6.14516 13.131282 
z
" clip-path="url(#p349c44fc08)" style="fill: #ffeadb; stroke: #000000; stroke-width: 0.5"/>
    <path d="M 73.405872 142.443413 
L 73.446954 140.980864 
L 74.942367 140.389273 
L 75.569564 141.005515 
L 74.298737 142.635132 
z
" clip-path="url(#p349c44fc08)" style="fill: #ffeadb; stroke: #000000; stroke-width: 0.5"/>
    <path d="M 66.339636 147.543156 
L 68.547149 145.919015 
L 69.78511 146.102519 
L 68.64027 146.792707 
L 68.147278 147.406213 
z
" clip-path="url(#p349c44fc08)" style="fill: #ffeadb; stroke: #000000; stroke-width: 0.5"/>
    <path d="M 62.549065 127.861768 
L 62.650403 126.968905 
L 62.970849 125.706294 
L 64.260848 125.342027 
L 63.68295 127.522151 
z
" clip-path="url(#p349c44fc08)" style="fill: #ffeadb; stroke: #000000; stroke-width: 0.5"/>
    <path d="M 62.390211 164.091292 
L 62.472376 163.056004 
L 63.518618 162.097407 
L 64.75384 161.675625 
L 65.419382 162.25079 
z
" clip-path="url(#p349c44fc08)" style="fill: #ffeadb; stroke: #000000; stroke-width: 0.5"/>
    <path d="M 66.339636 159.588623 
L 66.870973 158.482128 
L 67.99938 160.656777 
L 66.723074 160.350021 
z
" clip-path="url(#p349c44fc08)" style="fill: #ffeadb; stroke: #000000; stroke-width: 0.5"/>
    <path d="M 65.419382 127.637183 
L 66.827151 127.431769 
L 67.637851 128.69438 
L 66.569699 129.039477 
z
" clip-path="url(#p349c44fc08)" style="fill: #ffeadb; stroke: #000000; stroke-width: 0.5"/>
    <path d="M 43.193603 33.253626 
L 44.36857 31.333691 
L 45.469587 30.772224 
L 45.814684 32.401845 
z
" clip-path="url(#p349c44fc08)" style="fill: #ffeadb; stroke: #000000; stroke-width: 0.5"/>
    <path d="M 10.327388 23.894976 
L 10.84503 23.632042 
L 11.346239 24.163379 
L 10.806686 25.226052 
z
" clip-path="url(#p349c44fc08)" style="fill: #ffeadb; stroke: #000000; stroke-width: 0.5"/>
    <path d="M 7.525542 17.86402 
L 8.749809 17.157402 
L 9.84261 17.655868 
L 8.799108 18.940394 
z
" clip-path="url(#p349c44fc08)" style="fill: #ffeadb; stroke: #000000; stroke-width: 0.5"/>
    <path d="M 25.067886 74.829395 
L 27.119283 75.74964 
L 25.968968 75.998884 
z
" clip-path="url(#p349c44fc08)" style="fill: #ffeadb; stroke: #000000; stroke-width: 0.5"/>
   </g>
  </g>
 </g>
 <defs>
  <clipPath id="p349c44fc08">
   <rect x="0" y="-0" width="125.070742" height="266.112"/>
  </clipPath>
 </defs>
</svg>
