<?xml version="1.0" encoding="utf-8" standalone="no"?>
<!DOCTYPE svg PUBLIC "-//W3C//DTD SVG 1.1//EN"
  "http://www.w3.org/Graphics/SVG/1.1/DTD/svg11.dtd">
<svg xmlns:xlink="http://www.w3.org/1999/xlink" width="327.982353pt" height="266.112pt" viewBox="0 0 327.982353 266.112" xmlns="http://www.w3.org/2000/svg" version="1.1">
 <metadata>
  <rdf:RDF xmlns:dc="http://purl.org/dc/elements/1.1/" xmlns:cc="http://creativecommons.org/ns#" xmlns:rdf="http://www.w3.org/1999/02/22-rdf-syntax-ns#">
   <cc:Work>
    <dc:type rdf:resource="http://purl.org/dc/dcmitype/StillImage"/>
    <dc:date>2025-06-04T13:24:51.572391</dc:date>
    <dc:format>image/svg+xml</dc:format>
    <dc:creator>
     <cc:Agent>
      <dc:title>Matplotlib v3.10.3, https://matplotlib.org/</dc:title>
     </cc:Agent>
    </dc:creator>
   </cc:Work>
  </rdf:RDF>
 </metadata>
 <defs>
  <style type="text/css">*{stroke-linejoin: round; stroke-linecap: butt}</style>
 </defs>
 <g id="figure_1">
  <g id="patch_1">
   <path d="M 0 266.112 
L 327.982353 266.112 
L 327.982353 0 
L 0 0 
L 0 266.112 
z
" style="fill: none"/>
  </g>
  <g id="axes_1">
   <g id="PatchCollection_1">
    <defs>
     <path id="m73361e2bd1" d="M 14.908289 -165.630371 
L 19.882135 -169.158031 
L 23.414199 -170.792136 
L 41.696621 -165.511261 
L 45.967224 -169.058328 
L 47.537821 -175.79514 
L 64.878575 -179.450322 
L 69.349659 -180.012757 
L 91.708564 -184.80838 
L 94.793343 -190.262324 
L 87.385019 -196.164296 
L 88.832083 -200.942258 
L 91.726213 -203.734932 
L 100.955659 -205.23495 
L 106.408621 -211.098214 
L 112.214524 -210.687918 
L 115.779241 -213.255558 
L 120.314553 -218.39971 
L 124.638097 -228.22473 
L 117.279247 -230.602681 
L 113.52041 -243.277726 
L 124.267507 -245.276261 
L 141.773452 -254.016 
L 148.638319 -253.804478 
L 158.026452 -246.586566 
L 153.808787 -245.690947 
L 153.561726 -238.583562 
L 166.187098 -233.177469 
L 180.006821 -227.259931 
L 199.656009 -223.402619 
L 206.379567 -208.217312 
L 216.950194 -208.773201 
L 220.814908 -194.262808 
L 225.614929 -190.10694 
L 250.864428 -182.455227 
L 247.232652 -167.637728 
L 247.497359 -164.920073 
L 263.003617 -163.759714 
L 277.638643 -161.699468 
L 288.597508 -153.506803 
L 298.497545 -156.003887 
L 308.206323 -154.739923 
L 313.074065 -149.289129 
L 306.579927 -145.318552 
L 303.668153 -132.837633 
L 286.815149 -115.437555 
L 286.550443 -104.747818 
L 269.238615 -97.115425 
L 269.044497 -92.999234 
L 277.440551 -80.783652 
L 263.344475 -81.03889 
L 261.716088 -79.561287 
L 252.826792 -79.719778 
L 254.520915 -75.58594 
L 242.699881 -76.31436 
L 231.49142 -64.168241 
L 232.488278 -55.536453 
L 223.085465 -55.150862 
L 220.280198 -56.457926 
L 209.203105 -67.252083 
L 197.94424 -72.188855 
L 188.118754 -66.044949 
L 176.884533 -61.72303 
L 164.765857 -58.65126 
L 144.402872 -52.73732 
L 137.255789 -37.618161 
L 138.687547 -28.543575 
L 138.62153 -23.400674 
L 132.362943 -14.683263 
L 126.738102 -12.096 
L 120.243962 -17.156318 
L 113.238055 -13.097482 
L 107.220385 -17.076898 
L 106.426267 -21.673991 
L 112.70864 -31.997539 
L 104.661554 -51.329975 
L 102.34978 -64.362366 
L 91.25856 -79.218539 
L 67.302594 -93.00805 
L 50.979007 -93.356584 
L 43.302509 -105.95222 
L 45.331929 -110.461075 
L 36.455427 -122.977292 
L 21.47302 -132.087624 
L 28.125983 -150.246493 
L 16.700754 -159.510313 
z
" style="stroke: #000000; stroke-width: 0.5"/>
    </defs>
    <g clip-path="url(#p8ee351a47c)">
     <use xlink:href="#m73361e2bd1" x="0" y="266.112" style="fill: #ffeadb; stroke: #000000; stroke-width: 0.5"/>
    </g>
   </g>
  </g>
 </g>
 <defs>
  <clipPath id="p8ee351a47c">
   <rect x="0" y="-0" width="327.982353" height="266.112"/>
  </clipPath>
 </defs>
</svg>
