<?xml version="1.0" encoding="utf-8" standalone="no"?>
<!DOCTYPE svg PUBLIC "-//W3C//DTD SVG 1.1//EN"
  "http://www.w3.org/Graphics/SVG/1.1/DTD/svg11.dtd">
<svg xmlns:xlink="http://www.w3.org/1999/xlink" width="131.449694pt" height="266.112pt" viewBox="0 0 131.449694 266.112" xmlns="http://www.w3.org/2000/svg" version="1.1">
 <metadata>
  <rdf:RDF xmlns:dc="http://purl.org/dc/elements/1.1/" xmlns:cc="http://creativecommons.org/ns#" xmlns:rdf="http://www.w3.org/1999/02/22-rdf-syntax-ns#">
   <cc:Work>
    <dc:type rdf:resource="http://purl.org/dc/dcmitype/StillImage"/>
    <dc:date>2025-06-04T13:25:08.646133</dc:date>
    <dc:format>image/svg+xml</dc:format>
    <dc:creator>
     <cc:Agent>
      <dc:title>Matplotlib v3.10.3, https://matplotlib.org/</dc:title>
     </cc:Agent>
    </dc:creator>
   </cc:Work>
  </rdf:RDF>
 </metadata>
 <defs>
  <style type="text/css">*{stroke-linejoin: round; stroke-linecap: butt}</style>
 </defs>
 <g id="figure_1">
  <g id="patch_1">
   <path d="M 0 266.112 
L 131.449694 266.112 
L 131.449694 0 
L 0 0 
L 0 266.112 
z
" style="fill: none"/>
  </g>
  <g id="axes_1">
   <g id="PatchCollection_1">
    <path d="M 24.493535 249.993561 
L 27.594767 248.180819 
L 32.482098 247.795763 
L 34.158605 245.704556 
L 36.854043 245.112155 
L 43.711118 245.562382 
L 42.478918 246.960457 
L 37.01103 247.505467 
L 34.583889 249.657864 
L 30.506431 254.016 
z
" clip-path="url(#pac710dff46)" style="fill: #ffeadb; stroke: #000000; stroke-width: 0.5"/>
    <path d="M 118.294772 243.974743 
L 124.032203 242.991359 
L 125.474707 243.530442 
L 125.249592 245.349133 
L 121.775146 245.4676 
L 121.090917 246.439153 
L 119.740238 246.462838 
z
" clip-path="url(#pac710dff46)" style="fill: #ffeadb; stroke: #000000; stroke-width: 0.5"/>
    <path d="M 108.573425 239.472467 
L 111.52952 239.626494 
L 109.743419 240.509191 
z
" clip-path="url(#pac710dff46)" style="fill: #ffeadb; stroke: #000000; stroke-width: 0.5"/>
    <path d="M 5.974986 12.096 
L 6.908023 12.178934 
L 6.27415 13.168252 
z
" clip-path="url(#pac710dff46)" style="fill: #ffeadb; stroke: #000000; stroke-width: 0.5"/>
   </g>
  </g>
 </g>
 <defs>
  <clipPath id="pac710dff46">
   <rect x="0" y="-0" width="131.449694" height="266.112"/>
  </clipPath>
 </defs>
</svg>
