<?xml version="1.0" encoding="utf-8" standalone="no"?>
<!DOCTYPE svg PUBLIC "-//W3C//DTD SVG 1.1//EN"
  "http://www.w3.org/Graphics/SVG/1.1/DTD/svg11.dtd">
<svg xmlns:xlink="http://www.w3.org/1999/xlink" width="209.078971pt" height="266.112pt" viewBox="0 0 209.078971 266.112" xmlns="http://www.w3.org/2000/svg" version="1.1">
 <metadata>
  <rdf:RDF xmlns:dc="http://purl.org/dc/elements/1.1/" xmlns:cc="http://creativecommons.org/ns#" xmlns:rdf="http://www.w3.org/1999/02/22-rdf-syntax-ns#">
   <cc:Work>
    <dc:type rdf:resource="http://purl.org/dc/dcmitype/StillImage"/>
    <dc:date>2025-06-04T13:25:03.088474</dc:date>
    <dc:format>image/svg+xml</dc:format>
    <dc:creator>
     <cc:Agent>
      <dc:title>Matplotlib v3.10.3, https://matplotlib.org/</dc:title>
     </cc:Agent>
    </dc:creator>
   </cc:Work>
  </rdf:RDF>
 </metadata>
 <defs>
  <style type="text/css">*{stroke-linejoin: round; stroke-linecap: butt}</style>
 </defs>
 <g id="figure_1">
  <g id="patch_1">
   <path d="M 0 266.112 
L 209.078971 266.112 
L 209.078971 0 
L 0 0 
L 0 266.112 
z
" style="fill: none"/>
  </g>
  <g id="axes_1">
   <g id="PatchCollection_1">
    <path d="M 9.50359 93.256329 
L 9.724732 92.016656 
L 10.796421 88.755872 
L 11.774553 88.500697 
L 12.2381 87.062217 
L 13.041867 86.858087 
L 14.406997 85.068743 
L 13.335306 82.113095 
L 16.937376 80.924454 
L 18.187681 82.036546 
L 18.595944 83.586667 
L 21.887564 83.830136 
L 24.064966 80.911696 
L 26.127545 76.572834 
L 26.765456 70.866722 
L 28.168859 70.64558 
L 31.62421 71.647099 
L 33.259388 70.726381 
L 34.705319 70.76253 
L 40.876043 72.05111 
L 42.228413 70.575409 
L 46.634251 71.766176 
L 46.036741 70.890112 
L 46.787349 70.743393 
L 46.836256 69.23367 
L 49.028542 67.362466 
L 48.739356 66.220605 
L 45.758186 66.188709 
L 43.253323 64.978805 
L 41.509701 62.395266 
L 42.139106 59.803222 
L 40.386978 58.019199 
L 39.136672 57.574787 
L 39.162189 58.297753 
L 37.665225 58.442346 
L 36.025794 59.626733 
L 33.031866 58.302006 
L 30.427064 58.091496 
L 28.16886 55.524967 
L 26.044617 54.304431 
L 25.866002 51.771925 
L 19.3019 46.207216 
L 17.96654 45.579939 
L 13.862647 46.787715 
L 12.210458 44.480604 
L 11.668234 41.305934 
L 13.786098 36.97452 
L 14.82164 36.236671 
L 14.36447 34.014615 
L 15.346853 31.74578 
L 17.613563 30.112726 
L 22.032158 28.641281 
L 22.457431 25.930161 
L 26.369951 22.621529 
L 29.083199 23.012778 
L 27.581981 18.849352 
L 23.15488 17.586289 
L 22.41703 19.083252 
L 21.572863 18.390051 
L 23.935258 12.359669 
L 24.834713 12.096 
L 25.519404 15.096306 
L 35.611152 20.444126 
L 35.445295 21.415877 
L 37.91401 24.018553 
L 35.181625 26.168314 
L 35.904591 26.644622 
L 39.383331 25.490003 
L 40.867538 26.006706 
L 42.547368 28.20325 
L 44.643969 26.113027 
L 48.739356 28.294683 
L 50.555276 27.877912 
L 51.388812 27.354827 
L 51.16767 26.589334 
L 49.934375 26.181073 
L 50.083221 25.298631 
L 49.003025 25.517646 
L 48.35661 24.010047 
L 46.151564 23.168007 
L 45.279754 21.651904 
L 47.327447 19.444732 
L 51.55467 21.845402 
L 52.026724 23.246679 
L 53.989362 24.056829 
L 53.655522 24.790427 
L 52.588084 24.594802 
L 52.611474 25.700513 
L 54.659168 31.492741 
L 58.503644 33.453253 
L 59.532807 35.135212 
L 63.551645 37.58479 
L 65.860882 36.889466 
L 66.677408 37.805932 
L 69.737253 37.578411 
L 71.076866 39.086005 
L 72.044364 39.183818 
L 72.763076 36.610913 
L 74.91071 34.554712 
L 73.086285 33.942319 
L 74.617271 32.558051 
L 72.911922 31.6586 
L 73.898558 30.563517 
L 75.036165 30.769777 
L 74.991512 28.498814 
L 76.624563 28.362725 
L 76.822926 29.824107 
L 76.8372 30.973908 
L 79.318673 31.537396 
L 80.609379 34.074155 
L 80.624264 35.81565 
L 82.238178 38.020695 
L 83.254583 37.684729 
L 83.852092 38.373673 
L 82.344496 39.619726 
L 84.08812 40.334185 
L 81.978761 45.161042 
L 84.088119 52.55443 
L 83.025512 60.588943 
L 82.641443 62.095539 
L 83.456588 66.947823 
L 87.122449 66.456632 
L 96.255205 69.967267 
L 105.906795 72.5019 
L 116.555652 71.619457 
L 120.021634 72.37857 
L 121.926861 71.778934 
L 124.725163 72.818729 
L 129.368316 72.239817 
L 141.748876 70.364898 
L 149.820574 72.997344 
L 151.832119 73.107915 
L 155.344881 72.09151 
L 156.582428 73.369459 
L 158.330304 73.569337 
L 159.291423 73.439629 
L 159.925081 72.393455 
L 161.294463 72.720916 
L 162.093978 71.783187 
L 174.597029 71.198435 
L 177.02109 71.895884 
L 177.977956 72.935679 
L 180.304204 73.244003 
L 182.81332 75.177936 
L 185.688171 75.617031 
L 188.877725 77.709378 
L 189.037323 78.477266 
L 193.104946 81.62722 
L 193.423902 83.458022 
L 192.854035 84.273483 
L 188.864967 85.393013 
L 185.148073 83.14651 
L 183.574559 82.665951 
L 182.375287 83.14332 
L 182.817573 87.827706 
L 179.369362 97.511817 
L 177.761067 98.659432 
L 177.624978 103.116307 
L 176.829718 104.117818 
L 174.571513 104.644096 
L 171.139552 104.375116 
L 172.053892 106.816182 
L 169.982808 105.645618 
L 169.076973 105.91142 
L 169.327885 109.096719 
L 168.141372 113.318621 
L 166.789002 113.430252 
L 165.534442 112.286273 
L 165.258016 110.722323 
L 162.208802 110.181164 
L 162.196044 113.060262 
L 161.723989 113.690737 
L 160.20151 113.835326 
L 157.934799 110.961545 
L 156.595187 115.501335 
L 153.346095 116.315734 
L 146.98825 115.712915 
L 146.001615 120.017745 
L 144.741579 120.129994 
L 142.786545 120.756657 
L 140.94936 123.591117 
L 141.438425 126.200171 
L 140.073296 129.8958 
L 137.883136 130.524141 
L 137.496136 131.316217 
L 139.261024 133.387297 
L 138.899542 134.054972 
L 137.798083 134.076235 
L 137.844861 135.782656 
L 140.07755 140.593561 
L 141.404405 141.680131 
L 142.671721 145.594776 
L 143.870992 146.339016 
L 142.986423 147.417077 
L 144.951188 156.811383 
L 145.93357 158.044679 
L 147.311459 158.385953 
L 146.686306 151.746364 
L 147.362492 150.193051 
L 148.27683 150.161157 
L 151.126164 153.393244 
L 153.597005 161.166187 
L 155.782914 162.252757 
L 156.16566 163.254277 
L 157.424471 161.872136 
L 161.141363 161.159808 
L 163.157163 158.436983 
L 164.785961 157.286624 
L 162.651087 149.763523 
L 165.696047 144.472061 
L 169.293864 142.591284 
L 170.761059 140.593561 
L 169.740401 134.216581 
L 170.01683 131.220522 
L 173.980383 134.63228 
L 175.651709 133.832764 
L 177.659001 131.415089 
L 179.402624 130.863295 
L 181.193027 134.299506 
L 182.337014 131.845672 
L 183.021705 131.472498 
L 183.885607 132.057101 
L 183.600077 135.897474 
L 185.603116 143.201559 
L 187.542365 146.398551 
L 187.908101 149.49135 
L 186.67906 153.915262 
L 188.005913 163.988942 
L 190.740426 166.274781 
L 191.38684 170.724219 
L 193.602519 173.493805 
L 193.806649 179.052141 
L 196.940918 195.176397 
L 196.881379 196.220447 
L 195.307866 196.824334 
L 196.894138 203.03971 
L 197.600092 206.769365 
L 196.88138 213.063415 
L 197.587334 223.918532 
L 199.575382 230.567085 
L 198.476156 232.436766 
L 196.677248 233.089561 
L 194.780527 228.405168 
L 189.230703 227.771512 
L 187.793277 224.673394 
L 186.474928 224.258748 
L 184.905668 226.021509 
L 182.919639 226.102311 
L 180.533853 230.931295 
L 180.397764 236.038838 
L 182.426321 239.430397 
L 184.108245 240.750468 
L 183.957557 245.72316 
L 186.911034 252.82222 
L 186.592916 254.016 
L 181.82784 246.111599 
L 180.863439 243.024179 
L 178.716978 241.309689 
L 175.358319 236.896214 
L 175.060292 230.939034 
L 171.262965 225.083985 
L 171.129021 224.402539 
L 171.691588 224.660384 
L 172.495255 223.150158 
L 173.935158 222.974357 
L 172.786584 220.139757 
L 174.671854 216.911691 
L 174.403965 214.259589 
L 173.228601 216.526601 
L 172.535438 216.513207 
L 172.535438 214.239501 
L 171.66145 214.89248 
L 171.129021 213.80418 
L 171.262965 212.883312 
L 172.786584 211.992581 
L 171.564341 211.835193 
L 172.786584 210.559372 
L 169.052881 210.778705 
L 170.134482 207.759935 
L 171.129021 206.882598 
L 169.7293 207.776679 
L 167.17096 196.20722 
L 167.733528 196.463385 
L 167.160914 195.996255 
L 166.608393 197.307237 
L 165.503351 194.696992 
L 165.664084 193.052825 
L 166.608393 191.967875 
L 165.332572 189.511666 
L 168.014811 188.291094 
L 169.414531 184.639434 
L 168.577378 184.639434 
L 168.155453 187.165962 
L 164.612619 189.694168 
L 166.03578 191.892531 
L 164.438492 192.326173 
L 162.650333 185.201998 
L 159.867634 180.118813 
L 154.603616 173.299354 
L 151.077526 170.766126 
L 150.910094 169.319535 
L 152.232797 164.897685 
L 151.077525 167.822704 
L 149.198953 169.198982 
L 149.115239 171.102663 
L 146.305752 170.233703 
L 147.169694 170.776176 
L 146.86832 171.527934 
L 144.015302 171.7322 
L 145.743186 172.482289 
L 145.110298 173.428276 
L 142.123335 173.379718 
L 142.066409 172.482289 
L 139.534857 172.224447 
L 140.248111 173.362981 
L 139.002427 173.935591 
L 142.478287 174.930134 
L 142.933699 175.748867 
L 141.990284 178.440704 
L 140.392692 179.764673 
L 137.290168 180.431009 
L 135.720673 179.714867 
L 132.804143 174.009267 
L 132.204742 174.191764 
L 133.376757 175.911276 
L 133.611161 177.896996 
L 131.437911 178.483006 
L 129.653099 178.009179 
L 126.967511 174.020986 
L 125.299903 173.935591 
L 124.623483 172.224447 
L 123.6122 171.611661 
L 120.424322 163.412571 
L 116.801122 158.319335 
L 117.24314 153.197629 
L 118.361576 149.956171 
L 117.685157 148.615049 
L 118.107082 147.709252 
L 116.760939 147.73939 
L 116.057731 146.877119 
L 115.602319 142.455278 
L 116.961856 140.940031 
L 120.323863 140.462857 
L 119.801377 138.138909 
L 118.696437 138.299653 
L 119.794783 139.227212 
L 119.513499 140.071068 
L 118.338136 139.64579 
L 115.910392 140.76088 
L 115.264109 137.824147 
L 116.70736 136.138126 
L 113.894525 136.675578 
L 114.128929 137.251538 
L 113.419023 137.77057 
L 110.502381 136.981971 
L 111.409856 138.038455 
L 114.637919 138.770127 
L 114.724982 142.458628 
L 113.613242 145.12915 
L 104.170154 143.14007 
L 101.203283 141.755416 
L 101.551539 142.676286 
L 106.889227 145.646511 
L 108.533397 147.550191 
L 114.319801 148.831037 
L 115.863511 150.796672 
L 116.188326 152.926396 
L 115.324385 151.921805 
L 115.555439 156.134359 
L 114.437002 157.606079 
L 113.686911 157.736683 
L 113.894525 156.415654 
L 112.41444 157.671375 
L 109.568118 157.992846 
L 109.424128 158.938826 
L 111.905449 164.335123 
L 113.124344 165.225855 
L 112.300586 165.89892 
L 110.50238 165.738191 
L 108.844818 169.173863 
L 107.689545 169.418318 
L 108.181793 170.504933 
L 107.126979 170.233703 
L 106.232899 170.786226 
L 108.811332 171.943167 
L 109.196421 171.188059 
L 109.899631 171.30358 
L 111.0616 172.482289 
L 111.999211 176.956043 
L 111.483524 177.742969 
L 109.799172 178.280421 
L 109.092615 181.804832 
L 110.344996 178.43278 
L 111.68779 177.99411 
L 113.93471 178.978601 
L 115.86351 182.951736 
L 115.023008 182.645338 
L 116.349059 186.618467 
L 116.144794 189.160061 
L 113.86104 193.749338 
L 111.523708 194.846006 
L 108.951973 198.989915 
L 106.845696 197.894917 
L 108.252113 193.933509 
L 107.810096 190.420814 
L 107.126979 190.256731 
L 106.986337 193.52498 
L 107.890463 194.790755 
L 107.056658 196.232332 
L 106.540972 196.20722 
L 106.122395 198.420653 
L 103.60089 202.773847 
L 102.542727 207.433445 
L 99.287876 210.157539 
L 94.727065 209.10105 
L 94.827523 207.900573 
L 95.530732 208.031168 
L 96.096648 204.916958 
L 94.954771 207.111974 
L 93.655508 208.148375 
L 91.907532 207.776679 
L 92.751383 203.510541 
L 94.077434 202.61144 
L 95.249448 199.883998 
L 97.653753 197.457926 
L 98.929574 197.61029 
L 99.796865 197.046047 
L 100.617275 193.933509 
L 99.371591 196.645887 
L 97.004122 197.558383 
L 94.559634 200.011243 
L 93.059455 202.569583 
L 90.752261 202.107473 
L 91.344966 200.421446 
L 92.359595 199.65629 
L 92.660971 196.716206 
L 94.127663 195.366718 
L 93.066152 195.719996 
L 91.907533 198.454135 
L 90.193042 200.280808 
L 90.193043 202.67004 
L 89.576898 203.163963 
L 88.203967 202.21128 
L 86.824338 193.806264 
L 85.772874 191.254617 
L 86.7942 188.376489 
L 91.318176 181.945477 
L 90.059098 182.774258 
L 87.628005 185.993946 
L 85.672415 184.892257 
L 85.980487 188.034929 
L 84.265997 191.098909 
L 85.196912 193.434566 
L 85.608792 198.336934 
L 84.57407 199.210923 
L 82.558205 198.989915 
L 84.644391 200.722824 
L 84.57407 203.256051 
L 86.261771 206.227943 
L 85.980487 206.882598 
L 84.76829 207.157181 
L 82.112839 209.156307 
L 81.268989 208.422958 
L 78.935005 209.109425 
L 76.966021 208.315801 
L 76.376666 205.198241 
L 75.224742 207.471952 
L 78.586749 210.969581 
L 77.250653 212.367627 
L 74.256993 211.992581 
L 74.688964 213.676935 
L 73.905389 214.427021 
L 71.856037 212.247077 
L 71.454204 209.81933 
L 72.981171 206.882598 
L 73.262455 200.83165 
L 74.688964 197.457926 
L 73.095024 193.771101 
L 74.688965 191.545945 
L 75.532815 188.291094 
L 73.654243 190.708792 
L 73.875252 192.018101 
L 72.351632 193.670644 
L 73.593968 197.457926 
L 72.445393 202.361969 
L 71.68191 202.74706 
L 71.29347 200.280808 
L 71.856038 198.454135 
L 70.000906 194.365482 
L 70.041089 190.862831 
L 69.331184 189.975446 
L 69.331183 197.894917 
L 70.08797 196.485154 
L 71.082508 198.783976 
L 69.933934 201.129678 
L 71.226498 203.66793 
L 70.844756 205.856246 
L 68.872423 207.910624 
L 68.527517 211.893793 
L 66.478165 213.747254 
L 64.964591 212.679048 
L 64.810555 209.156307 
L 65.677846 206.182736 
L 64.247988 203.256051 
L 64.402025 206.539364 
L 62.151756 209.959975 
L 61.438502 209.43759 
L 61.880519 212.082994 
L 61.016577 214.51074 
L 61.997721 215.361282 
L 59.988553 216.687333 
L 58.414705 216.349125 
L 58.83663 214.073744 
L 57.477093 209.872906 
L 56.114208 210.887537 
L 54.061508 209.693754 
L 53.043529 206.33845 
L 53.519032 202.107473 
L 52.115963 199.438631 
L 52.239862 196.773132 
L 52.890029 194.914855 
L 50.130001 190.364426 
L 50.723259 189.985929 
L 49.326234 186.19674 
L 49.687716 183.549414 
L 48.560742 180.393874 
L 46.791601 179.562472 
L 47.961106 178.046363 
L 45.975077 171.635358 
L 47.157338 169.925758 
L 47.472041 167.223143 
L 45.371186 165.921814 
L 43.121488 161.96464 
L 43.636069 157.877756 
L 48.107825 152.628808 
L 42.458061 151.177567 
L 40.525191 151.8495 
L 37.26972 150.585369 
L 36.831687 148.900227 
L 40.29767 140.855104 
L 39.749068 140.44471 
L 38.209576 141.707773 
L 33.676156 136.741641 
L 32.119653 136.595991 
L 31.91127 135.097959 
L 30.890611 134.685449 
L 31.698632 130.478426 
L 31.349908 129.080334 
L 32.370566 127.288867 
L 32.374819 125.781268 
L 35.481445 125.179504 
L 37.992685 122.901111 
L 37.475979 120.015619 
L 38.439224 118.242225 
L 37.448335 118.025342 
L 36.344749 116.420999 
L 36.508481 113.472778 
L 38.70476 112.012771 
L 39.459881 110.635144 
L 38.953804 108.00802 
L 36.661578 106.082589 
L 35.770631 105.902903 
L 34.715951 107.718829 
L 28.16886 106.840635 
L 25.119646 104.620706 
L 13.131175 99.206975 
L 12.146666 97.73659 
L 11.97443 95.138167 
L 10.96228 93.72944 
z
" clip-path="url(#p42918822aa)" style="fill: #ffeadb; stroke: #000000; stroke-width: 0.5"/>
    <path d="M 113.696958 175.790723 
L 114.99287 170.513314 
L 117.671762 169.716336 
L 119.051499 173.545057 
L 121.639006 177.555564 
L 122.460382 180.821689 
L 126.084835 184.231454 
L 124.96839 195.845566 
L 122.781745 198.993265 
L 122.065142 199.57927 
L 121.763767 198.989915 
L 119.362811 201.827865 
L 117.966439 202.410526 
L 117.213002 201.454493 
L 118.957629 197.894917 
L 116.660481 200.999083 
L 116.004152 201.124659 
L 115.736263 200.30592 
L 116.961856 197.051066 
L 116.901581 194.623323 
L 118.820336 190.481089 
L 118.957629 183.795585 
L 117.544514 179.556241 
L 113.894526 177.307649 
z
" clip-path="url(#p42918822aa)" style="fill: #ffeadb; stroke: #000000; stroke-width: 0.5"/>
    <path d="M 167.17096 213.398996 
L 167.94449 212.205214 
L 168.999303 212.679048 
L 168.577378 215.079999 
L 169.474806 213.358815 
L 169.133248 211.403222 
L 170.546363 211.121939 
L 170.546362 211.992581 
L 172.445026 219.066527 
L 171.597827 222.436905 
L 168.858661 222.411792 
L 168.577378 223.50846 
L 167.241281 221.889409 
L 168.01481 219.322697 
z
" clip-path="url(#p42918822aa)" style="fill: #ffeadb; stroke: #000000; stroke-width: 0.5"/>
    <path d="M 115.6492 184.456932 
L 115.655897 183.670009 
L 116.955159 184.356474 
L 118.006623 186.49959 
L 118.107082 187.472359 
L 117.544514 186.325463 
L 117.253185 187.05546 
L 117.243139 189.412883 
L 116.399289 184.639434 
z
" clip-path="url(#p42918822aa)" style="fill: #ffeadb; stroke: #000000; stroke-width: 0.5"/>
    <path d="M 111.80834 161.965975 
L 112.628751 160.654987 
L 115.023008 159.533209 
L 118.361575 162.901915 
L 116.961855 162.901915 
L 118.361575 164.335123 
L 116.707362 164.053829 
L 115.126815 162.530219 
L 112.468016 162.901915 
z
" clip-path="url(#p42918822aa)" style="fill: #ffeadb; stroke: #000000; stroke-width: 0.5"/>
    <path d="M 111.624166 207.776679 
L 112.772741 207.190669 
L 111.90545 206.320031 
L 112.380953 204.635675 
L 115.324384 202.67004 
L 115.863511 204.635675 
L 114.802001 205.717277 
L 114.175809 205.504644 
L 113.154483 207.222481 
z
" clip-path="url(#p42918822aa)" style="fill: #ffeadb; stroke: #000000; stroke-width: 0.5"/>
    <path d="M 110.803756 200.677617 
L 111.604075 198.152763 
L 116.144794 195.366718 
L 115.324384 197.894917 
L 115.023009 196.744669 
L 113.934709 201.139728 
L 112.280494 202.335181 
L 111.624166 201.124659 
L 113.30517 199.57927 
z
" clip-path="url(#p42918822aa)" style="fill: #ffeadb; stroke: #000000; stroke-width: 0.5"/>
    <path d="M 109.655181 170.540102 
L 110.38183 166.51842 
L 115.274154 165.828606 
L 117.453247 167.170593 
L 118.81029 168.855744 
L 115.21901 168.626012 
L 112.774959 170.464584 
L 112.340199 172.829396 
L 111.182151 171.122751 
z
" clip-path="url(#p42918822aa)" style="fill: #ffeadb; stroke: #000000; stroke-width: 0.5"/>
    <path d="M 132.26058 197.309987 
L 134.481799 194.214793 
L 135.128149 186.127348 
L 138.174996 187.424853 
L 139.736039 192.745241 
L 137.871346 196.101088 
L 134.654661 198.419924 
L 133.637949 198.367072 
z
" clip-path="url(#p42918822aa)" style="fill: #ffeadb; stroke: #000000; stroke-width: 0.5"/>
    <path d="M 128.769065 195.5308 
L 129.398605 193.374291 
L 129.6531 193.680688 
L 130.041538 193.374291 
L 130.269244 193.933509 
L 130.269244 196.156988 
L 129.951126 197.111341 
L 129.14411 197.307237 
z
" clip-path="url(#p42918822aa)" style="fill: #ffeadb; stroke: #000000; stroke-width: 0.5"/>
    <path d="M 51.633763 205.529756 
L 52.537888 206.052142 
L 53.57261 210.617973 
L 54.516919 211.121939 
L 55.474622 211.711298 
L 55.206733 213.571453 
L 51.874863 210.626348 
L 52.380504 208.640616 
z
" clip-path="url(#p42918822aa)" style="fill: #ffeadb; stroke: #000000; stroke-width: 0.5"/>
    <path d="M 149.488129 180.501953 
L 150.43363 178.403334 
L 151.289175 177.991626 
L 154.943262 182.439669 
L 154.894643 185.574266 
L 152.933547 185.789656 
L 150.423454 183.467035 
z
" clip-path="url(#p42918822aa)" style="fill: #ffeadb; stroke: #000000; stroke-width: 0.5"/>
    <path d="M 136.729167 183.130759 
L 137.134575 181.989702 
L 138.57707 181.402216 
L 140.279326 180.938428 
L 140.321677 182.687139 
L 137.570788 183.621835 
z
" clip-path="url(#p42918822aa)" style="fill: #ffeadb; stroke: #000000; stroke-width: 0.5"/>
    <path d="M 108.583625 145.120781 
L 113.097556 146.567378 
L 115.023009 148.553103 
L 112.692374 147.2438 
L 112.468017 147.709252 
L 110.944398 147.841525 
z
" clip-path="url(#p42918822aa)" style="fill: #ffeadb; stroke: #000000; stroke-width: 0.5"/>
    <path d="M 107.126979 204.635675 
L 108.000967 200.540322 
L 108.811332 200.421446 
L 110.907563 203.071875 
L 110.502381 204.37951 
L 108.000967 206.209524 
z
" clip-path="url(#p42918822aa)" style="fill: #ffeadb; stroke: #000000; stroke-width: 0.5"/>
    <path d="M 104.190246 208.540159 
L 104.571988 204.635675 
L 106.186019 202.331831 
L 107.126979 202.107473 
L 104.957077 207.865417 
z
" clip-path="url(#p42918822aa)" style="fill: #ffeadb; stroke: #000000; stroke-width: 0.5"/>
    <path d="M 166.307018 207.190669 
L 167.733528 204.916958 
L 168.577378 207.624315 
L 166.307018 213.398996 
z
" clip-path="url(#p42918822aa)" style="fill: #ffeadb; stroke: #000000; stroke-width: 0.5"/>
    <path d="M 129.465577 192.540488 
L 131.079609 187.165962 
L 131.819652 189.687468 
L 130.111859 192.786609 
z
" clip-path="url(#p42918822aa)" style="fill: #ffeadb; stroke: #000000; stroke-width: 0.5"/>
    <path d="M 109.655182 158.384631 
L 111.905449 158.128468 
L 112.119761 158.831673 
L 110.221099 160.654987 
z
" clip-path="url(#p42918822aa)" style="fill: #ffeadb; stroke: #000000; stroke-width: 0.5"/>
    <path d="M 131.079609 194.472633 
L 131.347497 191.452188 
L 131.960294 192.443374 
z
" clip-path="url(#p42918822aa)" style="fill: #ffeadb; stroke: #000000; stroke-width: 0.5"/>
    <path d="M 117.544514 184.639434 
L 117.792311 182.223413 
L 118.361576 184.051751 
z
" clip-path="url(#p42918822aa)" style="fill: #ffeadb; stroke: #000000; stroke-width: 0.5"/>
    <path d="M 104.876711 203.256051 
L 105.660286 201.183259 
L 106.845696 200.140163 
z
" clip-path="url(#p42918822aa)" style="fill: #ffeadb; stroke: #000000; stroke-width: 0.5"/>
   </g>
  </g>
 </g>
 <defs>
  <clipPath id="p42918822aa">
   <rect x="0" y="-0" width="209.078971" height="266.112"/>
  </clipPath>
 </defs>
</svg>
