<?xml version="1.0" encoding="utf-8" standalone="no"?>
<!DOCTYPE svg PUBLIC "-//W3C//DTD SVG 1.1//EN"
  "http://www.w3.org/Graphics/SVG/1.1/DTD/svg11.dtd">
<svg xmlns:xlink="http://www.w3.org/1999/xlink" width="164.432475pt" height="266.112pt" viewBox="0 0 164.432475 266.112" xmlns="http://www.w3.org/2000/svg" version="1.1">
 <metadata>
  <rdf:RDF xmlns:dc="http://purl.org/dc/elements/1.1/" xmlns:cc="http://creativecommons.org/ns#" xmlns:rdf="http://www.w3.org/1999/02/22-rdf-syntax-ns#">
   <cc:Work>
    <dc:type rdf:resource="http://purl.org/dc/dcmitype/StillImage"/>
    <dc:date>2025-06-04T13:24:44.554729</dc:date>
    <dc:format>image/svg+xml</dc:format>
    <dc:creator>
     <cc:Agent>
      <dc:title>Matplotlib v3.10.3, https://matplotlib.org/</dc:title>
     </cc:Agent>
    </dc:creator>
   </cc:Work>
  </rdf:RDF>
 </metadata>
 <defs>
  <style type="text/css">*{stroke-linejoin: round; stroke-linecap: butt}</style>
 </defs>
 <g id="figure_1">
  <g id="patch_1">
   <path d="M 0 266.112 
L 164.432475 266.112 
L 164.432475 0 
L 0 0 
L 0 266.112 
z
" style="fill: none"/>
  </g>
  <g id="axes_1">
   <g id="PatchCollection_1">
    <path d="M 30.340867 49.526676 
L 36.824084 29.381415 
L 48.927948 27.628426 
L 63.118684 32.511713 
L 79.479766 28.797094 
L 82.985715 42.793037 
L 65.23338 43.961705 
L 79.980616 55.564714 
L 88.583495 46.961976 
L 97.391743 60.541358 
L 87.349564 77.574638 
L 82.985713 160.103132 
L 69.907976 182.335288 
L 58.332787 149.613117 
L 36.573658 124.876726 
L 34.069412 115.402308 
L 44.475952 93.963168 
z
" clip-path="url(#p1170d1b20d)" style="fill: #ffeadb; stroke: #000000; stroke-width: 0.5"/>
    <path d="M 128.829209 248.606569 
L 130.127474 221.775767 
L 141.3791 205.547459 
L 150.466951 202.301801 
L 144.408384 213.986172 
L 148.735933 218.097342 
L 137.267929 223.939537 
L 142.028232 233.892897 
L 135.320532 254.016 
z
" clip-path="url(#p1170d1b20d)" style="fill: #ffeadb; stroke: #000000; stroke-width: 0.5"/>
    <path d="M 82.344317 15.032088 
L 92.987618 12.096 
L 100.694838 15.766085 
L 101.061845 26.042397 
L 110.604113 34.483643 
L 106.934011 41.08982 
L 98.125763 28.611463 
L 86.014422 27.87744 
z
" clip-path="url(#p1170d1b20d)" style="fill: #ffeadb; stroke: #000000; stroke-width: 0.5"/>
    <path d="M 141.811854 194.94497 
L 144.408383 193.863084 
L 146.788535 194.079456 
L 147.22129 196.243229 
L 143.542872 197.541512 
z
" clip-path="url(#p1170d1b20d)" style="fill: #ffeadb; stroke: #000000; stroke-width: 0.5"/>
    <path d="M 7.474203 55.770248 
L 12.61235 50.632089 
L 19.952556 53.56818 
L 21.4206 69.349606 
L 8.575237 68.248585 
z
" clip-path="url(#p1170d1b20d)" style="fill: #ffeadb; stroke: #000000; stroke-width: 0.5"/>
    <path d="M 147.004912 236.705807 
L 147.870421 229.348987 
L 155.876387 231.9455 
L 154.145366 236.273063 
z
" clip-path="url(#p1170d1b20d)" style="fill: #ffeadb; stroke: #000000; stroke-width: 0.5"/>
    <path d="M 151.765216 220.04474 
L 156.958271 220.261138 
L 153.063478 225.237819 
z
" clip-path="url(#p1170d1b20d)" style="fill: #ffeadb; stroke: #000000; stroke-width: 0.5"/>
   </g>
  </g>
 </g>
 <defs>
  <clipPath id="p1170d1b20d">
   <rect x="0" y="-0" width="164.432475" height="266.112"/>
  </clipPath>
 </defs>
</svg>
