<?xml version="1.0" encoding="utf-8" standalone="no"?>
<!DOCTYPE svg PUBLIC "-//W3C//DTD SVG 1.1//EN"
  "http://www.w3.org/Graphics/SVG/1.1/DTD/svg11.dtd">
<svg xmlns:xlink="http://www.w3.org/1999/xlink" width="229.539002pt" height="266.112pt" viewBox="0 0 229.539002 266.112" xmlns="http://www.w3.org/2000/svg" version="1.1">
 <metadata>
  <rdf:RDF xmlns:dc="http://purl.org/dc/elements/1.1/" xmlns:cc="http://creativecommons.org/ns#" xmlns:rdf="http://www.w3.org/1999/02/22-rdf-syntax-ns#">
   <cc:Work>
    <dc:type rdf:resource="http://purl.org/dc/dcmitype/StillImage"/>
    <dc:date>2025-06-04T13:24:58.111639</dc:date>
    <dc:format>image/svg+xml</dc:format>
    <dc:creator>
     <cc:Agent>
      <dc:title>Matplotlib v3.10.3, https://matplotlib.org/</dc:title>
     </cc:Agent>
    </dc:creator>
   </cc:Work>
  </rdf:RDF>
 </metadata>
 <defs>
  <style type="text/css">*{stroke-linejoin: round; stroke-linecap: butt}</style>
 </defs>
 <g id="figure_1">
  <g id="patch_1">
   <path d="M -0 266.112 
L 229.539002 266.112 
L 229.539002 0 
L -0 0 
L -0 266.112 
z
" style="fill: none"/>
  </g>
  <g id="axes_1">
   <g id="PatchCollection_1">
    <defs>
     <path id="md2995b58ed" d="M 10.433591 -42.108333 
L 13.164039 -48.748553 
L 16.550153 -51.206491 
L 18.747404 -51.788031 
L 20.649586 -53.959504 
L 22.038982 -53.758968 
L 23.067421 -52.971171 
L 25.731623 -48.911841 
L 30.578786 -48.396644 
L 31.664486 -49.029297 
L 32.372075 -50.23821 
L 32.177273 -50.825487 
L 30.415462 -51.664855 
L 30.217795 -52.885226 
L 32.174408 -57.28832 
L 33.741417 -58.777985 
L 33.449214 -59.671779 
L 30.054505 -61.012479 
L 26.330352 -63.335774 
L 26.350405 -65.518697 
L 26.854598 -66.693243 
L 28.163782 -66.902365 
L 28.848453 -67.323481 
L 28.848453 -67.919344 
L 24.923768 -72.69772 
L 23.583073 -72.637564 
L 21.984552 -71.769551 
L 22.118093 -73.48122 
L 24.58 -78.255308 
L 24.431034 -79.538708 
L 23.253629 -81.864868 
L 23.442701 -83.884506 
L 22.746571 -86.110402 
L 22.967156 -86.654702 
L 25.453744 -86.213534 
L 27.26712 -84.592095 
L 28.22967 -84.288431 
L 29.630525 -85.422869 
L 33.28306 -86.67189 
L 35.010494 -84.967374 
L 36.717875 -84.291299 
L 47.721315 -86.648973 
L 47.406194 -87.259163 
L 48.171078 -89.906174 
L 48.024977 -91.461724 
L 48.844291 -93.146188 
L 47.764286 -93.636058 
L 47.188475 -94.524123 
L 46.824654 -99.007432 
L 47.464626 -98.585329 
L 47.9906 -98.027693 
L 48.835696 -98.070665 
L 49.331295 -99.425683 
L 51.15613 -100.60309 
L 52.519743 -100.640329 
L 55.530696 -98.824425 
L 57.292389 -98.036287 
L 58.472659 -94.761898 
L 59.188842 -93.968368 
L 59.280514 -92.885496 
L 59.801895 -92.750853 
L 59.458127 -91.891434 
L 60.134204 -90.378857 
L 61.20275 -90.736948 
L 62.43745 -88.364947 
L 62.935913 -88.13004 
L 61.769967 -85.637724 
L 62.543178 -85.812204 
L 63.402865 -86.419796 
L 66.45667 -85.345517 
L 67.611158 -85.760904 
L 72.716112 -83.907423 
L 74.876121 -84.001958 
L 75.429015 -83.569383 
L 78.164835 -86.356771 
L 79.433912 -86.923988 
L 79.823515 -88.044099 
L 82.155408 -90.396044 
L 83.308463 -93.103215 
L 84.405656 -91.968781 
L 86.654472 -86.88388 
L 87.826148 -85.821064 
L 86.204709 -84.067847 
L 86.153143 -82.861794 
L 87.917819 -82.220094 
L 89.513475 -82.750072 
L 90.029127 -81.893517 
L 91.690673 -82.320363 
L 92.922508 -81.973729 
L 93.214385 -82.543095 
L 94.423628 -84.978832 
L 95.480715 -85.723665 
L 96.92454 -85.955707 
L 96.718279 -86.838047 
L 94.61843 -88.614181 
L 94.529623 -89.562406 
L 95.855995 -90.201241 
L 96.225545 -90.60517 
L 96.090903 -91.576315 
L 96.907352 -92.066185 
L 97.402951 -94.744711 
L 96.898758 -95.289007 
L 97.082101 -96.285934 
L 100.643277 -97.952752 
L 101.639891 -98.758198 
L 101.877664 -103.722784 
L 102.865997 -104.490533 
L 101.59692 -104.917378 
L 101.261746 -106.040354 
L 100.539834 -106.547411 
L 101.880529 -107.289374 
L 102.356074 -108.131606 
L 103.264195 -108.303492 
L 102.579524 -109.581163 
L 103.075122 -111.31146 
L 103.946001 -112.16515 
L 102.24435 -114.336618 
L 103.310031 -116.427875 
L 103.292842 -117.542255 
L 102.607493 -118.363923 
L 101.293258 -123.263129 
L 101.86907 -125.686692 
L 103.09804 -127.500069 
L 102.788649 -129.728831 
L 104.258257 -133.742322 
L 103.358731 -135.910925 
L 101.301853 -137.858943 
L 99.313728 -138.910301 
L 98.54025 -139.133749 
L 97.211014 -138.712634 
L 95.778647 -139.022025 
L 94.853338 -138.615233 
L 94.260338 -141.906812 
L 93.071474 -143.562627 
L 90.945842 -144.227245 
L 89.937456 -143.960825 
L 89.513475 -144.416318 
L 88.252993 -144.636902 
L 87.740206 -144.055361 
L 87.029752 -144.009526 
L 85.749216 -145.536428 
L 85.774999 -146.321366 
L 87.324315 -148.677557 
L 88.241534 -149.76191 
L 88.01522 -150.770296 
L 88.568113 -151.841706 
L 87.513892 -152.440436 
L 86.857868 -156.674511 
L 88.909017 -160.942964 
L 92.065953 -163.294909 
L 91.690673 -165.01375 
L 92.532904 -166.18256 
L 96.852922 -166.268503 
L 99.540042 -168.448565 
L 99.806462 -170.463905 
L 102.834485 -173.854317 
L 102.556606 -175.487214 
L 103.401702 -176.542868 
L 101.536761 -178.125634 
L 100.029911 -181.362783 
L 98.2681 -182.55451 
L 97.583429 -187.808431 
L 96.523508 -188.78842 
L 94.432222 -189.803004 
L 91.799533 -189.381172 
L 90.450243 -190.396002 
L 84.737965 -190.989716 
L 83.632178 -189.323877 
L 80.511051 -188.854059 
L 78.763564 -187.914428 
L 77.772366 -186.805775 
L 76.007691 -186.629596 
L 73.157281 -187.109435 
L 70.218065 -185.212984 
L 67.833913 -185.118707 
L 66.872057 -186.060945 
L 69.183896 -187.507635 
L 69.673766 -188.306894 
L 69.347186 -190.810673 
L 67.834607 -192.720733 
L 67.771583 -193.820072 
L 67.26739 -193.855884 
L 66.301975 -195.369893 
L 66.866327 -196.584543 
L 66.872057 -199.911214 
L 68.003626 -201.918674 
L 67.204366 -203.889611 
L 68.536467 -205.455187 
L 68.444795 -206.487925 
L 70.501674 -207.912412 
L 70.874089 -211.130226 
L 81.065947 -211.038847 
L 97.826931 -210.891018 
L 99.305133 -211.396643 
L 101.061215 -211.158871 
L 102.427693 -210.328098 
L 105.590358 -211.282056 
L 106.008609 -212.453729 
L 108.300396 -210.93972 
L 108.065488 -210.499984 
L 109.053821 -210.38969 
L 110.39738 -209.426426 
L 110.408839 -210.202769 
L 111.156535 -209.803853 
L 110.586453 -209.426426 
L 111.531815 -209.426426 
L 111.626351 -208.480346 
L 113.743389 -208.770399 
L 114.181693 -209.879769 
L 115.576818 -208.298437 
L 115.164296 -206.843151 
L 116.865948 -206.827396 
L 117.610779 -207.583683 
L 120.220551 -206.094022 
L 121.409415 -207.137502 
L 121.985226 -206.984956 
L 122.349047 -207.802123 
L 123.23425 -207.479122 
L 124.03924 -207.764163 
L 126.333891 -206.154182 
L 126.505775 -205.102108 
L 127.496973 -204.489058 
L 130.318735 -205.829753 
L 131.530517 -205.996623 
L 137.735529 -204.780544 
L 139.33978 -204.13598 
L 140.399731 -202.784543 
L 142.416503 -201.781167 
L 142.811837 -200.93607 
L 143.808764 -201.254058 
L 144.304363 -200.613074 
L 146.246652 -200.327317 
L 146.472966 -198.982325 
L 147.799337 -197.090884 
L 149.045496 -198.879192 
L 149.884863 -198.747414 
L 150.271602 -199.315347 
L 148.673081 -204.803461 
L 147.66183 -206.082564 
L 147.98841 -209.047563 
L 148.426714 -209.629102 
L 148.240506 -210.80078 
L 148.756158 -212.031181 
L 149.761679 -212.2045 
L 150.277331 -211.713198 
L 151.620891 -212.849064 
L 151.314365 -213.220046 
L 157.712443 -226.802936 
L 159.272594 -230.514446 
L 158.28999 -231.985483 
L 158.212642 -233.210159 
L 159.467395 -236.26396 
L 158.765536 -238.721906 
L 160.040342 -240.682809 
L 161.154723 -246.019093 
L 162.452447 -248.289394 
L 164.887471 -249.413086 
L 168.952527 -248.876663 
L 169.917942 -249.948793 
L 171.98055 -249.714598 
L 172.711057 -249.171013 
L 173.836897 -249.299927 
L 175.283587 -250.076274 
L 179.047847 -250.508132 
L 180.772416 -251.7328 
L 182.849348 -251.527976 
L 185.07 -253.326889 
L 186.301351 -254.016 
L 186.937322 -253.918596 
L 187.301143 -253.321301 
L 189.845026 -251.908272 
L 193.904353 -251.907555 
L 194.534595 -251.416965 
L 195.565899 -251.500046 
L 197.319115 -249.277011 
L 199.060873 -250.061235 
L 200.453133 -249.28274 
L 203.572828 -250.001787 
L 204.526784 -249.68452 
L 205.366151 -248.101756 
L 206.331566 -247.616179 
L 207.397247 -248.352422 
L 208.187913 -250.319063 
L 211.828989 -250.304732 
L 212.172757 -250.899886 
L 213.20979 -251.020914 
L 214.384331 -251.903259 
L 215.530224 -250.799618 
L 217.105827 -247.954939 
L 218.661378 -247.601856 
L 219.105411 -243.359903 
L 218.291827 -237.936965 
L 215.945611 -236.179455 
L 212.19854 -226.447955 
L 209.99556 -222.630698 
L 207.758203 -220.596736 
L 206.818571 -217.451257 
L 205.838832 -215.564834 
L 204.380683 -214.01931 
L 203.306408 -211.101576 
L 203.27776 -194.233311 
L 201.639133 -190.643799 
L 200.086448 -183.706133 
L 197.602724 -179.409033 
L 197.91498 -175.286682 
L 198.740023 -171.754466 
L 198.33896 -168.073285 
L 199.911699 -164.853325 
L 199.788515 -161.687794 
L 197.253226 -157.912076 
L 194.566107 -150.967963 
L 193.437402 -145.802849 
L 194.356981 -136.721645 
L 188.711436 -130.261646 
L 184.986439 -125.775499 
L 182.118841 -123.096974 
L 173.745226 -120.553091 
L 168.958257 -116.055461 
L 164.045414 -107.150414 
L 163.154307 -105.390056 
L 162.970964 -103.313126 
L 160.414342 -99.715213 
L 160.109096 -98.915762 
L 152.27405 -92.218015 
L 151.056539 -90.123894 
L 150.709906 -87.393802 
L 152.11649 -78.18655 
L 150.801578 -71.732304 
L 150.96281 -69.726726 
L 151.222693 -61.467969 
L 152.168055 -60.041333 
L 152.11649 -59.3939 
L 149.065549 -52.991223 
L 147.34098 -50.891372 
L 144.694783 -45.483249 
L 142.759336 -42.006699 
L 141.545625 -41.311709 
L 133.363947 -39.077215 
L 130.865899 -34.430616 
L 123.798602 -30.961428 
L 122.321715 -28.573788 
L 120.254927 -25.94241 
L 118.776725 -25.194717 
L 116.232842 -22.42738 
L 113.46551 -17.766466 
L 109.890323 -15.70099 
L 108.013922 -15.311384 
L 104.836933 -17.038817 
L 101.533896 -15.792664 
L 101.817505 -20.926265 
L 100.565616 -22.971681 
L 100.15023 -24.862411 
L 102.195649 -26.435149 
L 103.447538 -28.457648 
L 101.313311 -30.580416 
L 101.155751 -32.677402 
L 98.187888 -31.689069 
L 95.546604 -29.895743 
L 91.011731 -28.84439 
L 88.888964 -26.552596 
L 87.806117 -26.774591 
L 86.743278 -26.796101 
L 85.173405 -28.532127 
L 82.526391 -27.801621 
L 82.715464 -24.807976 
L 82.086655 -22.544836 
L 82.457638 -21.35311 
L 81.611109 -21.083824 
L 81.427766 -20.075439 
L 80.281873 -20.244457 
L 79.703197 -19.869174 
L 78.781807 -18.654057 
L 76.975971 -19.405089 
L 76.076444 -18.88084 
L 76.3887 -18.193311 
L 73.592721 -15.818445 
L 72.653088 -18.327954 
L 70.304007 -19.407954 
L 67.757259 -21.341652 
L 65.823564 -24.366808 
L 65.147487 -24.295194 
L 64.691995 -23.682135 
L 64.752154 -22.748237 
L 63.463024 -23.389933 
L 60.546726 -26.435149 
L 59.1029 -28.93892 
L 56.684913 -29.268961 
L 56.103524 -29.514731 
L 55.444636 -29.133727 
L 54.906066 -27.833131 
L 52.28197 -24.856682 
L 46.884813 -23.518846 
L 45.718867 -23.576146 
L 45.360775 -21.42186 
L 43.914085 -18.789174 
L 41.510574 -18.072991 
L 40.90898 -19.038408 
L 40.318844 -19.195968 
L 38.617193 -15.053565 
L 35.25758 -12.096 
L 31.838106 -16.652625 
L 30.007864 -18.605034 
L 30.114822 -18.949856 
L 30.789902 -18.570568 
L 30.602664 -19.804013 
L 28.807558 -21.845874 
L 30.006553 -22.69396 
L 29.625313 -24.36157 
L 26.481363 -27.511068 
L 18.399381 -34.222286 
L 17.38361 -35.846336 
L 17.203154 -37.256143 
z
" style="stroke: #000000; stroke-width: 0.5"/>
    </defs>
    <g clip-path="url(#p389392f2f3)">
     <use xlink:href="#md2995b58ed" x="0" y="266.112" style="fill: #ffeadb; stroke: #000000; stroke-width: 0.5"/>
    </g>
   </g>
  </g>
 </g>
 <defs>
  <clipPath id="p389392f2f3">
   <rect x="-0" y="-0" width="229.539002" height="266.112"/>
  </clipPath>
 </defs>
</svg>
