<?xml version="1.0" encoding="utf-8" standalone="no"?>
<!DOCTYPE svg PUBLIC "-//W3C//DTD SVG 1.1//EN"
  "http://www.w3.org/Graphics/SVG/1.1/DTD/svg11.dtd">
<svg xmlns:xlink="http://www.w3.org/1999/xlink" width="357.12pt" height="112.249476pt" viewBox="0 0 357.12 112.249476" xmlns="http://www.w3.org/2000/svg" version="1.1">
 <metadata>
  <rdf:RDF xmlns:dc="http://purl.org/dc/elements/1.1/" xmlns:cc="http://creativecommons.org/ns#" xmlns:rdf="http://www.w3.org/1999/02/22-rdf-syntax-ns#">
   <cc:Work>
    <dc:type rdf:resource="http://purl.org/dc/dcmitype/StillImage"/>
    <dc:date>2025-06-04T13:24:57.990119</dc:date>
    <dc:format>image/svg+xml</dc:format>
    <dc:creator>
     <cc:Agent>
      <dc:title>Matplotlib v3.10.3, https://matplotlib.org/</dc:title>
     </cc:Agent>
    </dc:creator>
   </cc:Work>
  </rdf:RDF>
 </metadata>
 <defs>
  <style type="text/css">*{stroke-linejoin: round; stroke-linecap: butt}</style>
 </defs>
 <g id="figure_1">
  <g id="patch_1">
   <path d="M 0 112.249476 
L 357.12 112.249476 
L 357.12 0 
L 0 0 
L 0 112.249476 
z
" style="fill: none"/>
  </g>
  <g id="axes_1">
   <g id="PatchCollection_1">
    <path d="M 16.232727 27.590738 
L 18.878543 23.267793 
L 30.734108 32.014888 
L 41.476407 32.882368 
L 53.172935 25.790716 
L 65.346577 9.265214 
L 68.599517 9.843473 
L 74.888862 8.795329 
L 79.207036 11.198322 
L 81.781304 7.292111 
L 94.340815 8.259491 
L 97.917577 15.090996 
L 109.154918 18.001321 
L 119.841409 26.46605 
L 123.715721 22.72027 
L 136.183295 22.297951 
L 151.148055 13.980115 
L 162.642459 10.372048 
L 166.957452 12.042958 
L 173.595195 7.608617 
L 201.624283 11.767534 
L 212.1547 9.554952 
L 219.08623 5.102249 
L 230.323571 23.684257 
L 228.505766 39.622186 
L 233.353247 30.468894 
L 240.697914 30.468894 
L 241.671083 27.549389 
L 248.474081 34.223855 
L 254.707867 32.277519 
L 258.875966 35.050131 
L 266.323891 34.505725 
L 272.720666 41.008482 
L 270.498899 42.670249 
L 270.245456 45.345146 
L 261.816433 50.347653 
L 257.999522 66.73578 
L 253.213923 72.193666 
L 242.298123 73.393716 
L 236.789626 78.641947 
L 223.546087 82.675767 
L 219.382184 83.442017 
L 216.707452 80.788976 
L 216.533959 85.77697 
L 194.037295 92.52167 
L 160.971835 94.748187 
L 148.393198 105.476296 
L 138.955906 107.147227 
L 137.45025 103.96147 
L 143.803389 103.401426 
L 143.399431 98.553959 
L 137.569601 97.856216 
L 134.255323 101.33573 
L 130.277543 100.882874 
L 121.740365 97.604016 
L 120.688012 93.723458 
L 115.820874 93.65771 
L 109.835615 98.985241 
L 104.179218 98.064407 
L 103.096433 102.136224 
L 93.626436 103.524213 
L 81.961111 100.775201 
L 66.850209 93.938541 
L 52.493405 91.480697 
L 41.38966 84.323956 
L 35.317293 67.343054 
L 25.413561 58.57425 
L 26.830448 53.991043 
z
" clip-path="url(#pbd8fbf6580)" style="fill: #ffeadb; stroke: #000000; stroke-width: 0.5"/>
    <path d="M 287.566074 33.682186 
L 288.520881 31.726669 
L 290.191793 30.615788 
L 292.560448 29.642619 
L 293.937573 30.468894 
L 295.057635 31.451243 
L 297.53646 31.038106 
L 299.758222 29.780331 
L 301.006816 28.531738 
L 301.979984 27.549389 
L 305.174914 29.642619 
L 306.665275 28.251002 
L 325.45879 29.194314 
L 340.887273 46.718696 
L 325.33046 42.728262 
L 304.846574 47.281459 
L 304.059943 47.965212 
L 294.506788 46.976013 
L 298.234202 45.029709 
L 298.234201 41.981676 
L 292.964405 40.31993 
L 293.111298 36.436437 
L 291.715811 35.187843 
z
" clip-path="url(#pbd8fbf6580)" style="fill: #ffeadb; stroke: #000000; stroke-width: 0.5"/>
   </g>
  </g>
 </g>
 <defs>
  <clipPath id="pbd8fbf6580">
   <rect x="0" y="0" width="357.12" height="112.249476"/>
  </clipPath>
 </defs>
</svg>
