<?xml version="1.0" encoding="utf-8" standalone="no"?>
<!DOCTYPE svg PUBLIC "-//W3C//DTD SVG 1.1//EN"
  "http://www.w3.org/Graphics/SVG/1.1/DTD/svg11.dtd">
<svg xmlns:xlink="http://www.w3.org/1999/xlink" width="357.12pt" height="9.167046pt" viewBox="0 0 357.12 9.167046" xmlns="http://www.w3.org/2000/svg" version="1.1">
 <metadata>
  <rdf:RDF xmlns:dc="http://purl.org/dc/elements/1.1/" xmlns:cc="http://creativecommons.org/ns#" xmlns:rdf="http://www.w3.org/1999/02/22-rdf-syntax-ns#">
   <cc:Work>
    <dc:type rdf:resource="http://purl.org/dc/dcmitype/StillImage"/>
    <dc:date>2025-06-04T13:24:43.683778</dc:date>
    <dc:format>image/svg+xml</dc:format>
    <dc:creator>
     <cc:Agent>
      <dc:title>Matplotlib v3.10.3, https://matplotlib.org/</dc:title>
     </cc:Agent>
    </dc:creator>
   </cc:Work>
  </rdf:RDF>
 </metadata>
 <defs>
  <style type="text/css">*{stroke-linejoin: round; stroke-linecap: butt}</style>
 </defs>
 <g id="figure_1">
  <g id="patch_1">
   <path d="M 0 9.167046 
L 357.12 9.167046 
L 357.12 -0 
L 0 -0 
L 0 9.167046 
z
" style="fill: none"/>
  </g>
  <g id="axes_1">
   <g id="PatchCollection_1">
    <path d="M 339.60509 4.288184 
L 339.623374 4.288331 
L 339.629909 4.256168 
L 339.66031 4.232376 
L 339.66031 4.250881 
L 339.685423 4.232376 
L 339.701284 4.197276 
L 339.704001 4.183177 
L 339.671618 4.191695 
L 339.654656 4.164673 
L 339.697833 4.151749 
L 339.721845 4.176422 
L 339.796451 4.201535 
L 339.884201 4.135741 
L 339.895583 4.170841 
L 339.938613 4.090067 
L 339.944781 4.108718 
L 339.957118 4.084046 
L 339.972538 4.095501 
L 340.012852 4.059667 
L 340.000295 4.021776 
L 340.018653 4.028532 
L 340.023499 4.012524 
L 340.043693 4.021776 
L 340.235421 3.984914 
L 340.275808 3.957157 
L 340.344393 3.966262 
L 340.358712 3.954073 
L 340.372296 3.965234 
L 340.398878 3.947317 
L 340.410921 3.962444 
L 340.439339 3.965234 
L 340.414593 3.922644 
L 340.452189 3.916476 
L 340.4751 3.877044 
L 340.488611 3.885782 
L 340.50036 3.844367 
L 340.558517 3.83394 
L 340.544639 3.818005 
L 340.564685 3.823366 
L 340.575406 3.843119 
L 340.587743 3.799501 
L 340.619098 3.824614 
L 340.633637 3.816023 
L 340.643771 3.830782 
L 340.667489 3.793333 
L 340.708463 3.798399 
L 340.764932 3.760803 
L 340.779838 3.805669 
L 340.823016 3.78151 
L 340.834324 3.789734 
L 340.823016 3.799501 
L 340.847541 3.805669 
L 340.887254 3.768436 
L 340.887269 3.809567 
L 340.849598 3.852151 
L 340.741507 4.011496 
L 340.609185 4.089186 
L 340.590827 4.161589 
L 340.507116 4.226208 
L 340.519305 4.251321 
L 340.507116 4.281722 
L 340.544639 4.273498 
L 340.569752 4.288331 
L 340.636501 4.244859 
L 340.705379 4.183177 
L 340.727262 4.142497 
L 340.887256 4.030919 
L 340.887273 4.085087 
L 340.887259 4.151708 
L 340.878382 4.170841 
L 340.859878 4.170841 
L 340.840933 4.19478 
L 340.879998 4.207042 
L 340.887257 4.232559 
L 340.887272 4.264263 
L 340.883963 4.263217 
L 340.88727 4.269644 
L 340.88726 4.288081 
L 340.854444 4.287229 
L 340.853122 4.263217 
L 340.820813 4.262189 
L 340.798857 4.244713 
L 340.730566 4.244713 
L 340.667783 4.281722 
L 340.656107 4.269973 
L 340.600593 4.32534 
L 340.566888 4.310654 
L 340.47062 4.331508 
L 340.439559 4.321081 
L 340.343071 4.325119 
L 340.39528 4.281501 
L 340.39227 4.257049 
L 340.315534 4.219599 
L 340.213098 4.259839 
L 340.186075 4.281722 
L 340.17462 4.318951 
L 340.134233 4.317997 
L 340.093112 4.404865 
L 340.143045 4.392529 
L 340.099427 4.430052 
L 340.034073 4.408317 
L 339.99398 4.362349 
L 339.99398 4.380193 
L 339.961524 4.374098 
L 339.91394 4.411548 
L 339.883687 4.470439 
L 339.895583 4.479324 
L 339.86107 4.503997 
L 339.823327 4.504438 
L 339.797185 4.486594 
L 339.777799 4.408317 
L 339.739028 4.35295 
L 339.747105 4.32534 
L 339.716338 4.300667 
L 339.634462 4.331802 
L 339.611038 4.313003 
z
" clip-path="url(#p62efe4f74f)" style="fill: #ffeadb; stroke: #000000; stroke-width: 0.5"/>
    <path d="M 338.497604 5.35866 
L 338.516109 5.326791 
L 338.510234 5.275022 
L 338.596736 5.252773 
L 338.604667 5.17589 
L 338.645935 5.185069 
L 338.662457 5.176331 
L 338.650047 5.111492 
L 338.627577 5.097686 
L 338.621482 5.077419 
L 338.690214 5.029983 
L 338.702036 4.992386 
L 338.721275 5.000905 
L 338.735374 4.955157 
L 338.757403 4.961545 
L 338.847062 4.893842 
L 338.862703 4.898982 
L 338.868871 4.949209 
L 338.868871 4.90001 
L 338.911314 4.876512 
L 338.946194 4.887674 
L 338.961247 4.857347 
L 339.019405 4.827901 
L 339.010593 4.875852 
L 339.025132 4.879597 
L 339.060967 4.850738 
L 339.080205 4.863001 
L 339.133369 4.862634 
L 339.210986 4.821439 
L 339.309163 4.812407 
L 339.34441 4.770625 
L 339.40991 4.802274 
L 339.431352 4.845671 
L 339.39427 4.924683 
L 339.44692 4.887674 
L 339.48716 4.896559 
L 339.511906 4.924683 
L 339.511906 4.949209 
L 339.57734 4.99594 
L 339.60487 4.998555 
L 339.651351 5.048341 
L 339.689903 5.057006 
L 339.716338 5.085937 
L 339.68513 5.180663 
L 339.716338 5.209155 
L 339.713254 5.238821 
L 339.738808 5.245503 
L 339.728601 5.258353 
L 339.746738 5.278767 
L 339.740937 5.289782 
L 339.728601 5.283614 
L 339.734769 5.302706 
L 339.706204 5.309314 
L 339.709655 5.335015 
L 339.783747 5.412044 
L 339.814809 5.394494 
L 339.790576 5.465282 
L 339.704001 5.524467 
L 339.704001 5.505962 
L 339.666992 5.518226 
L 339.678668 5.499794 
L 339.648488 5.482979 
L 339.611038 5.499794 
L 339.597159 5.529754 
L 339.56786 5.534013 
L 339.568227 5.512718 
L 339.524683 5.493626 
L 339.514329 5.516536 
L 339.493401 5.505962 
L 339.422834 5.53372 
L 339.400438 5.567571 
L 339.295138 5.635862 
L 339.274871 5.617798 
L 339.207975 5.640782 
L 339.153343 5.629767 
L 339.077268 5.648198 
L 339.069778 5.628813 
L 339.045987 5.641589 
L 339.016908 5.613319 
L 338.977402 5.603112 
L 338.804399 5.552151 
L 338.690214 5.542898 
L 338.665027 5.524467 
L 338.573679 5.497004 
L 338.553559 5.468439 
L 338.54739 5.475121 
L 338.528445 5.409841 
L 338.507811 5.396183 
z
" clip-path="url(#p62efe4f74f)" style="fill: #ffeadb; stroke: #000000; stroke-width: 0.5"/>
    <path d="M 339.128817 6.421059 
L 339.156133 6.395431 
L 339.190352 6.396386 
L 339.219577 6.355265 
L 339.28897 6.36628 
L 339.298663 6.341901 
L 339.328182 6.335952 
L 339.344924 6.283523 
L 339.412774 6.269865 
L 339.437888 6.279337 
L 339.445304 6.253563 
L 339.484149 6.236307 
L 339.518074 6.236307 
L 339.52461 6.248276 
L 339.611038 6.272582 
L 339.620951 6.316053 
L 339.588788 6.333529 
L 339.555524 6.322514 
L 339.548842 6.347187 
L 339.480992 6.347187 
L 339.48716 6.322514 
L 339.462046 6.322514 
L 339.474236 6.310178 
L 339.450151 6.301513 
L 339.426873 6.310766 
L 339.388101 6.341019 
L 339.348889 6.346894 
L 339.343162 6.379497 
L 339.338756 6.36628 
L 339.330164 6.372521 
L 339.329063 6.392274 
L 339.352855 6.40696 
L 339.33435 6.446172 
L 339.318709 6.439931 
L 339.319811 6.408722 
L 339.255559 6.445732 
L 339.20636 6.432881 
L 339.17618 6.446172 
L 339.171847 6.432881 
z
" clip-path="url(#p62efe4f74f)" style="fill: #ffeadb; stroke: #000000; stroke-width: 0.5"/>
    <path d="M 17.405444 6.437361 
L 17.408344 6.420031 
L 17.422296 6.404684 
L 17.44741 6.402554 
L 17.442123 6.411293 
L 17.436101 6.413128 
L 17.427914 6.412835 
L 17.416055 6.414891 
L 17.422002 6.427962 
L 17.436101 6.440371 
L 17.452623 6.447788 
L 17.465914 6.445732 
L 17.46261 6.463943 
L 17.445574 6.46196 
L 17.413264 6.445732 
z
" clip-path="url(#p62efe4f74f)" style="fill: #ffeadb; stroke: #000000; stroke-width: 0.5"/>
    <path d="M 16.258048 6.298429 
L 16.266052 6.273242 
L 16.278132 6.234985 
L 16.311506 6.238509 
L 16.334527 6.26377 
L 16.315545 6.29182 
L 16.307835 6.26098 
L 16.28889 6.257895 
L 16.273139 6.270819 
L 16.282942 6.305993 
L 16.270385 6.309444 
z
" clip-path="url(#p62efe4f74f)" style="fill: #ffeadb; stroke: #000000; stroke-width: 0.5"/>
    <path d="M 338.665027 4.355079 
L 338.665027 4.313003 
L 338.682503 4.324018 
L 338.699466 4.315941 
L 338.774586 4.24809 
L 338.787143 4.228264 
L 338.776495 4.20785 
L 338.803958 4.216295 
L 338.794192 4.254405 
L 338.695868 4.350013 
z
" clip-path="url(#p62efe4f74f)" style="fill: #ffeadb; stroke: #000000; stroke-width: 0.5"/>
    <path d="M 17.287514 7.799798 
L 17.288175 7.792969 
L 17.292984 7.785993 
L 17.293645 7.793777 
L 17.296729 7.801267 
L 17.301723 7.807509 
L 17.308184 7.812135 
L 17.305578 7.812575 
L 17.298308 7.811841 
L 17.290928 7.806187 
z
" clip-path="url(#p62efe4f74f)" style="fill: #ffeadb; stroke: #000000; stroke-width: 0.5"/>
    <path d="M 340.824711 5.93349 
L 340.887266 5.915207 
L 340.887265 5.947802 
L 340.879902 5.951845 
L 340.887266 5.952379 
L 340.887273 5.978905 
L 340.887271 5.983342 
L 340.871711 5.99956 
L 340.861616 5.969152 
z
" clip-path="url(#p62efe4f74f)" style="fill: #ffeadb; stroke: #000000; stroke-width: 0.5"/>
    <path d="M 338.429314 4.64682 
L 338.467498 4.566046 
L 338.494814 4.547689 
L 338.516109 4.572361 
L 338.528445 4.54152 
L 338.530281 4.576327 
L 338.485341 4.63397 
L 338.472932 4.621634 
L 338.454427 4.652475 
z
" clip-path="url(#p62efe4f74f)" style="fill: #ffeadb; stroke: #000000; stroke-width: 0.5"/>
    <path d="M 17.026797 4.63397 
L 17.076657 4.659083 
L 17.125378 4.693009 
L 17.110251 4.727448 
L 17.075555 4.747641 
L 17.057601 4.782374 
L 17.046917 4.754911 
L 17.082421 4.690145 
L 17.032965 4.665325 
z
" clip-path="url(#p62efe4f74f)" style="fill: #ffeadb; stroke: #000000; stroke-width: 0.5"/>
    <path d="M 340.285207 5.351904 
L 340.343511 5.345736 
L 340.386909 5.400663 
L 340.400788 5.425188 
L 340.391242 5.508973 
L 340.355701 5.482758 
L 340.316048 5.400663 
L 340.304446 5.437084 
z
" clip-path="url(#p62efe4f74f)" style="fill: #ffeadb; stroke: #000000; stroke-width: 0.5"/>
    <path d="M 16.232727 4.355633 
L 16.232727 4.265451 
L 16.232744 4.217606 
L 16.253349 4.208731 
L 16.308826 4.293911 
L 16.271854 4.331508 
L 16.258379 4.376595 
L 16.232742 4.390149 
z
" clip-path="url(#p62efe4f74f)" style="fill: #ffeadb; stroke: #000000; stroke-width: 0.5"/>
    <path d="M 339.84 5.106991 
L 339.873407 5.066845 
L 339.892814 5.057612 
L 339.909842 5.066947 
L 339.926793 5.124883 
L 339.915393 5.15734 
L 339.865917 5.173614 
z
" clip-path="url(#p62efe4f74f)" style="fill: #ffeadb; stroke: #000000; stroke-width: 0.5"/>
    <path d="M 338.607163 4.411841 
L 338.634039 4.392529 
L 338.627651 4.378651 
L 338.670901 4.380193 
L 338.634773 4.411548 
L 338.646375 4.417716 
L 338.627283 4.442389 
z
" clip-path="url(#p62efe4f74f)" style="fill: #ffeadb; stroke: #000000; stroke-width: 0.5"/>
    <path d="M 17.739114 7.057705 
L 17.740546 7.052125 
L 17.745356 7.045956 
L 17.752111 7.039641 
L 17.750789 7.045663 
L 17.748587 7.051096 
L 17.742492 7.062038 
z
" clip-path="url(#p62efe4f74f)" style="fill: #ffeadb; stroke: #000000; stroke-width: 0.5"/>
    <path d="M 17.624305 5.324441 
L 17.642259 5.298887 
L 17.682609 5.29595 
L 17.724795 5.327378 
L 17.722776 5.358954 
L 17.677983 5.368647 
L 17.629261 5.352786 
z
" clip-path="url(#p62efe4f74f)" style="fill: #ffeadb; stroke: #000000; stroke-width: 0.5"/>
    <path d="M 17.184306 5.597898 
L 17.202811 5.572418 
L 17.234496 5.55707 
L 17.255314 5.574327 
L 17.274296 5.601717 
L 17.258398 5.623599 
L 17.219333 5.62169 
z
" clip-path="url(#p62efe4f74f)" style="fill: #ffeadb; stroke: #000000; stroke-width: 0.5"/>
    <path d="M 340.748263 6.475618 
L 340.754578 6.4519 
L 340.77367 6.458068 
L 340.757882 6.419297 
L 340.776754 6.414891 
L 340.798857 6.470331 
z
" clip-path="url(#p62efe4f74f)" style="fill: #ffeadb; stroke: #000000; stroke-width: 0.5"/>
    <path d="M 339.81639 5.140962 
L 339.827735 5.153352 
L 339.84231 5.175796 
L 339.87627 5.19065 
L 339.870102 5.203574 
L 339.835787 5.192022 
z
" clip-path="url(#p62efe4f74f)" style="fill: #ffeadb; stroke: #000000; stroke-width: 0.5"/>
    <path d="M 339.598701 6.220299 
L 339.62029 6.180426 
L 339.652526 6.178149 
L 339.647974 6.192689 
L 339.654656 6.223383 
L 339.631525 6.237702 
z
" clip-path="url(#p62efe4f74f)" style="fill: #ffeadb; stroke: #000000; stroke-width: 0.5"/>
    <path d="M 339.270979 5.765835 
L 339.283242 5.734993 
L 339.288015 5.719059 
L 339.308282 5.72464 
L 339.310558 5.760327 
L 339.287428 5.776629 
z
" clip-path="url(#p62efe4f74f)" style="fill: #ffeadb; stroke: #000000; stroke-width: 0.5"/>
    <path d="M 338.275843 0.429534 
L 338.324454 0.416684 
L 338.383125 0.42645 
L 338.387017 0.440475 
L 338.352725 0.453767 
L 338.28091 0.447525 
z
" clip-path="url(#p62efe4f74f)" style="fill: #ffeadb; stroke: #000000; stroke-width: 0.5"/>
    <path d="M 16.888894 4.91264 
L 16.895025 4.883415 
L 16.913456 4.88224 
L 16.926784 4.908822 
L 16.92113 4.922554 
L 16.903507 4.924756 
z
" clip-path="url(#p62efe4f74f)" style="fill: #ffeadb; stroke: #000000; stroke-width: 0.5"/>
    <path d="M 340.41026 4.733909 
L 340.470253 4.717608 
L 340.482957 4.761373 
L 340.465774 4.822761 
L 340.427884 4.85698 
z
" clip-path="url(#p62efe4f74f)" style="fill: #ffeadb; stroke: #000000; stroke-width: 0.5"/>
    <path d="M 338.829072 5.863645 
L 338.843611 5.840294 
L 338.855947 5.846462 
L 338.868871 5.932743 
L 338.844859 5.909539 
z
" clip-path="url(#p62efe4f74f)" style="fill: #ffeadb; stroke: #000000; stroke-width: 0.5"/>
    <path d="M 338.355295 4.720765 
L 338.37894 4.729944 
L 338.405155 4.720765 
L 338.417491 4.73927 
L 338.37145 4.779437 
z
" clip-path="url(#p62efe4f74f)" style="fill: #ffeadb; stroke: #000000; stroke-width: 0.5"/>
    <path d="M 17.069938 6.272582 
L 17.072728 6.252315 
L 17.095712 6.237628 
L 17.107094 6.278236 
L 17.07952 6.292114 
z
" clip-path="url(#p62efe4f74f)" style="fill: #ffeadb; stroke: #000000; stroke-width: 0.5"/>
    <path d="M 16.973799 5.371652 
L 16.999434 5.362006 
L 17.016094 5.371369 
L 17.019671 5.404471 
L 16.982252 5.392114 
z
" clip-path="url(#p62efe4f74f)" style="fill: #ffeadb; stroke: #000000; stroke-width: 0.5"/>
    <path d="M 16.743243 5.167152 
L 16.775847 5.152025 
L 16.791488 5.185363 
L 16.777315 5.197993 
L 16.753744 5.194395 
z
" clip-path="url(#p62efe4f74f)" style="fill: #ffeadb; stroke: #000000; stroke-width: 0.5"/>
    <path d="M 340.428691 5.215029 
L 340.433171 5.203574 
L 340.463938 5.21591 
L 340.456522 5.266871 
z
" clip-path="url(#p62efe4f74f)" style="fill: #ffeadb; stroke: #000000; stroke-width: 0.5"/>
    <path d="M 339.681458 4.130307 
L 339.703634 4.114152 
L 339.734622 4.114152 
L 339.719789 4.131042 
z
" clip-path="url(#p62efe4f74f)" style="fill: #ffeadb; stroke: #000000; stroke-width: 0.5"/>
    <path d="M 339.425551 4.306982 
L 339.474236 4.313003 
L 339.473942 4.345019 
L 339.43473 4.350013 
z
" clip-path="url(#p62efe4f74f)" style="fill: #ffeadb; stroke: #000000; stroke-width: 0.5"/>
    <path d="M 336.094944 8.723707 
L 336.117707 8.711664 
L 336.133128 8.730976 
L 336.119323 8.750362 
z
" clip-path="url(#p62efe4f74f)" style="fill: #ffeadb; stroke: #000000; stroke-width: 0.5"/>
    <path d="M 17.56835 6.455131 
L 17.592582 6.41915 
L 17.593464 6.453662 
L 17.569232 6.465264 
z
" clip-path="url(#p62efe4f74f)" style="fill: #ffeadb; stroke: #000000; stroke-width: 0.5"/>
    <path d="M 17.481261 5.988257 
L 17.496682 5.973571 
L 17.508541 5.989872 
L 17.489522 6.001989 
z
" clip-path="url(#p62efe4f74f)" style="fill: #ffeadb; stroke: #000000; stroke-width: 0.5"/>
    <path d="M 16.902882 4.745512 
L 16.903433 4.728696 
L 16.923553 4.726934 
L 16.926784 4.749403 
z
" clip-path="url(#p62efe4f74f)" style="fill: #ffeadb; stroke: #000000; stroke-width: 0.5"/>
    <path d="M 340.878382 4.457809 
L 340.887272 4.446794 
L 340.887261 4.468921 
z
" clip-path="url(#p62efe4f74f)" style="fill: #ffeadb; stroke: #000000; stroke-width: 0.5"/>
    <path d="M 340.872214 4.188611 
L 340.887271 4.178106 
L 340.887264 4.188611 
z
" clip-path="url(#p62efe4f74f)" style="fill: #ffeadb; stroke: #000000; stroke-width: 0.5"/>
    <path d="M 340.371268 3.898118 
L 340.402109 3.891803 
L 340.426782 3.898118 
z
" clip-path="url(#p62efe4f74f)" style="fill: #ffeadb; stroke: #000000; stroke-width: 0.5"/>
    <path d="M 340.080041 5.06009 
L 340.081363 5.034683 
L 340.111984 5.091518 
z
" clip-path="url(#p62efe4f74f)" style="fill: #ffeadb; stroke: #000000; stroke-width: 0.5"/>
    <path d="M 17.107424 6.197682 
L 17.153208 6.172569 
L 17.135365 6.193203 
z
" clip-path="url(#p62efe4f74f)" style="fill: #ffeadb; stroke: #000000; stroke-width: 0.5"/>
    <path d="M 16.232733 3.986689 
L 16.232734 3.985501 
L 16.234844 3.984914 
z
" clip-path="url(#p62efe4f74f)" style="fill: #ffeadb; stroke: #000000; stroke-width: 0.5"/>
   </g>
  </g>
 </g>
 <defs>
  <clipPath id="p62efe4f74f">
   <rect x="0" y="-0" width="357.12" height="9.167046"/>
  </clipPath>
 </defs>
</svg>
