<?xml version="1.0" encoding="utf-8" standalone="no"?>
<!DOCTYPE svg PUBLIC "-//W3C//DTD SVG 1.1//EN"
  "http://www.w3.org/Graphics/SVG/1.1/DTD/svg11.dtd">
<svg xmlns:xlink="http://www.w3.org/1999/xlink" width="357.12pt" height="264.008426pt" viewBox="0 0 357.12 264.008426" xmlns="http://www.w3.org/2000/svg" version="1.1">
 <metadata>
  <rdf:RDF xmlns:dc="http://purl.org/dc/elements/1.1/" xmlns:cc="http://creativecommons.org/ns#" xmlns:rdf="http://www.w3.org/1999/02/22-rdf-syntax-ns#">
   <cc:Work>
    <dc:type rdf:resource="http://purl.org/dc/dcmitype/StillImage"/>
    <dc:date>2025-06-04T13:24:47.293897</dc:date>
    <dc:format>image/svg+xml</dc:format>
    <dc:creator>
     <cc:Agent>
      <dc:title>Matplotlib v3.10.3, https://matplotlib.org/</dc:title>
     </cc:Agent>
    </dc:creator>
   </cc:Work>
  </rdf:RDF>
 </metadata>
 <defs>
  <style type="text/css">*{stroke-linejoin: round; stroke-linecap: butt}</style>
 </defs>
 <g id="figure_1">
  <g id="patch_1">
   <path d="M 0 264.008426 
L 357.12 264.008426 
L 357.12 -0 
L 0 -0 
L 0 264.008426 
z
" style="fill: none"/>
  </g>
  <g id="axes_1">
   <g id="PatchCollection_1">
    <defs>
     <path id="m73ab236c94" d="M 16.232727 -172.57666 
L 16.457142 -174.247305 
L 18.492908 -175.6686 
L 18.792128 -177.337463 
L 21.502866 -180.326493 
L 25.701066 -188.331575 
L 27.230152 -193.415333 
L 32.358018 -200.540514 
L 35.232971 -201.306182 
L 40.679773 -201.211186 
L 44.561247 -203.298451 
L 48.63396 -205.48855 
L 50.80205 -208.03778 
L 56.398142 -207.691701 
L 58.292535 -206.687391 
L 62.81985 -206.64894 
L 65.871236 -208.336361 
L 66.820129 -207.870399 
L 68.454396 -208.331838 
L 69.170307 -211.313103 
L 70.210809 -211.032617 
L 71.546497 -208.824942 
L 73.549464 -208.906375 
L 75.303615 -209.831514 
L 75.566002 -222.654576 
L 75.085335 -223.376138 
L 71.897101 -224.470929 
L 70.380456 -226.529317 
L 67.054242 -228.562818 
L 64.684837 -229.166759 
L 65.936833 -232.102789 
L 70.485637 -234.663329 
L 72.425269 -234.733446 
L 71.86204 -233.742713 
L 74.826341 -233.778902 
L 76.818462 -235.335645 
L 78.333512 -242.609599 
L 75.097776 -248.153663 
L 75.375997 -252.008043 
L 91.50485 -250.972796 
L 92.432316 -250.512895 
L 94.816423 -251.130401 
L 97.55679 -250.913252 
L 98.416335 -250.257295 
L 100.893182 -250.718735 
L 103.907246 -250.368125 
L 104.657086 -248.947617 
L 103.633548 -245.10454 
L 104.332495 -243.54831 
L 108.083957 -242.973773 
L 109.464884 -245.991236 
L 111.056174 -246.009331 
L 113.85422 -244.199756 
L 114.317922 -242.946631 
L 116.731435 -242.365308 
L 117.178172 -241.575884 
L 121.807276 -241.514808 
L 125.719887 -238.357454 
L 128.180352 -239.467735 
L 130.594996 -239.361423 
L 133.27542 -238.135439 
L 135.227492 -235.909669 
L 142.619582 -237.798407 
L 146.473964 -240.363472 
L 151.131342 -239.445117 
L 154.354637 -240.863362 
L 158.046158 -239.458688 
L 161.626842 -239.311656 
L 166.648396 -240.813602 
L 172.237703 -241.42659 
L 177.795342 -240.211916 
L 177.786294 -239.361423 
L 175.22123 -238.927125 
L 175.33659 -235.203939 
L 172.570211 -230.919781 
L 174.189775 -228.42484 
L 176.870199 -227.255403 
L 179.41943 -224.301285 
L 182.760347 -222.369566 
L 186.715874 -223.455138 
L 187.820354 -225.925369 
L 191.611401 -229.076286 
L 192.507138 -231.397053 
L 196.893081 -232.138978 
L 198.745627 -231.293009 
L 200.503171 -228.592222 
L 203.335146 -226.732894 
L 203.210738 -223.532218 
L 207.431558 -217.734812 
L 209.894834 -218.110295 
L 211.702141 -221.118703 
L 214.079462 -222.322068 
L 213.771835 -223.287927 
L 216.022487 -224.84868 
L 216.174038 -227.701009 
L 219.060301 -227.816369 
L 221.874181 -230.417629 
L 223.100164 -229.820467 
L 224.405315 -231.374434 
L 224.954972 -230.894901 
L 226.884425 -232.066593 
L 227.721351 -231.333721 
L 235.934532 -228.99033 
L 243.437457 -225.18345 
L 245.848708 -224.945945 
L 248.257697 -223.699599 
L 250.693829 -223.645315 
L 252.299822 -225.515959 
L 252.788405 -228.397698 
L 254.844528 -229.98107 
L 259.77108 -231.596107 
L 263.130092 -233.683899 
L 266.575059 -233.328772 
L 267.597466 -234.344392 
L 268.807615 -238.191985 
L 267.494547 -238.755213 
L 267.145073 -239.8862 
L 264.514413 -242.016967 
L 264.912518 -243.247474 
L 268.013667 -244.310592 
L 269.468108 -243.708913 
L 270.703139 -244.208804 
L 275.892078 -242.90818 
L 281.125088 -240.249387 
L 282.610103 -239.494877 
L 283.883587 -237.689833 
L 282.590876 -232.374221 
L 283.485482 -230.743352 
L 285.534819 -230.734304 
L 286.453175 -228.999377 
L 285.749705 -224.518434 
L 290.228388 -223.086611 
L 291.189722 -219.254845 
L 289.027287 -207.560509 
L 292.092244 -206.596911 
L 294.311228 -207.189549 
L 297.364876 -200.490748 
L 300.934251 -199.346198 
L 302.056184 -200.214792 
L 302.500544 -198.734669 
L 303.019779 -197.293465 
L 307.389888 -196.273322 
L 309.683517 -194.85394 
L 307.462271 -193.664147 
L 307.817399 -193.009308 
L 309.87126 -192.79216 
L 309.622444 -191.658919 
L 308.310507 -190.810688 
L 304.551127 -190.920393 
L 304.279692 -188.981889 
L 301.958919 -187.985495 
L 300.805319 -184.97935 
L 298.771816 -184.10284 
L 298.374842 -181.881594 
L 295.607332 -178.588177 
L 295.636738 -177.130345 
L 296.306278 -176.673426 
L 301.619625 -177.518271 
L 303.974327 -181.071811 
L 308.145383 -180.595667 
L 309.945905 -181.135146 
L 311.816547 -179.805113 
L 312.757522 -177.808932 
L 312.820857 -173.285009 
L 311.144744 -168.398043 
L 312.298344 -167.953565 
L 312.492873 -167.174319 
L 313.175985 -158.514402 
L 316.093915 -153.523384 
L 317.837887 -153.094743 
L 320.183541 -153.694163 
L 321.056658 -150.758137 
L 326.275003 -149.357982 
L 327.749802 -145.199366 
L 326.564534 -142.080122 
L 324.585318 -138.74486 
L 320.529621 -136.614093 
L 319.174707 -134.329517 
L 320.14735 -133.652048 
L 319.441618 -132.800432 
L 318.464451 -132.058501 
L 319.566026 -130.846097 
L 319.502691 -129.130398 
L 320.50474 -129.134922 
L 320.706054 -128.198461 
L 319.06387 -115.450054 
L 319.749245 -112.978865 
L 323.029089 -108.618935 
L 326.480841 -108.083973 
L 329.043644 -109.350674 
L 331.776093 -109.540681 
L 329.195195 -99.266852 
L 331.420965 -98.392604 
L 332.769094 -98.596181 
L 333.843525 -96.994717 
L 337.133627 -94.518425 
L 333.682926 -93.7488 
L 329.095669 -91.067247 
L 327.47158 -83.025969 
L 327.910401 -81.67558 
L 334.705333 -80.233574 
L 339.383068 -74.796959 
L 340.152135 -69.554861 
L 339.699743 -66.647112 
L 340.887273 -63.854716 
L 338.33578 -63.577629 
L 336.134892 -64.364784 
L 333.823168 -68.3628 
L 332.864096 -68.207864 
L 332.739688 -66.208291 
L 330.551241 -66.105365 
L 327.40146 -69.198597 
L 317.34478 -68.974663 
L 314.976506 -66.990923 
L 315.813432 -64.058294 
L 315.374612 -59.924556 
L 314.469827 -58.213379 
L 318.104799 -55.836067 
L 322.368596 -54.538831 
L 325.967376 -55.502422 
L 325.180214 -51.939834 
L 327.616151 -48.624942 
L 327.74754 -48.110337 
L 325.587367 -49.002681 
L 323.16933 -48.354628 
L 322.649079 -45.592766 
L 320.47081 -42.306147 
L 320.369022 -40.548602 
L 321.811022 -38.336404 
L 321.072492 -37.680435 
L 320.536407 -34.884645 
L 317.451092 -30.749775 
L 317.347042 -28.901757 
L 316.089391 -27.499345 
L 312.838953 -29.469515 
L 311.37094 -29.84273 
L 309.002667 -29.315698 
L 307.955379 -30.503223 
L 304.863278 -28.098769 
L 301.31426 -30.9624 
L 301.275807 -33.798902 
L 296.059724 -34.068073 
L 294.264858 -30.901331 
L 294.175511 -25.940854 
L 291.515444 -23.407456 
L 291.128649 -21.717773 
L 288.441439 -19.329138 
L 288.563585 -15.62631 
L 285.604939 -14.556399 
L 284.213833 -16.214418 
L 283.171069 -14.642355 
L 277.696902 -12.559206 
L 276.851149 -12.000383 
L 277.104489 -14.090437 
L 275.639869 -15.732622 
L 274.396921 -15.741669 
L 273.31118 -16.734671 
L 272.082935 -20.365114 
L 269.230602 -20.159281 
L 268.359747 -21.706463 
L 267.054595 -22.127183 
L 265.91909 -22.027656 
L 264.509889 -20.222613 
L 263.164022 -22.127183 
L 261.019326 -20.010415 
L 266.866852 -30.919425 
L 265.939448 -31.991597 
L 266.780898 -36.149086 
L 266.243264 -36.833643 
L 263.13914 -41.591357 
L 262.711629 -43.412246 
L 263.774751 -48.592133 
L 262.575912 -49.711803 
L 261.582911 -48.707486 
L 262.213998 -50.457114 
L 261.268498 -54.655315 
L 259.135469 -55.565753 
L 260.053825 -59.071795 
L 258.730578 -61.216138 
L 260.492645 -62.480578 
L 256.070511 -65.431301 
L 255.222276 -64.636217 
L 252.695665 -64.584195 
L 254.102605 -66.855213 
L 253.865099 -67.791662 
L 251.557898 -68.774478 
L 250.732283 -66.514782 
L 248.479369 -72.090513 
L 247.735184 -72.19457 
L 247.024928 -69.605752 
L 244.756181 -68.765431 
L 244.136404 -69.347891 
L 241.012635 -68.821977 
L 235.868935 -65.925537 
L 235.095344 -66.703658 
L 235.536427 -68.757515 
L 234.581879 -69.774271 
L 231.351798 -70.411015 
L 228.395415 -68.327741 
L 228.051597 -69.058364 
L 226.214884 -68.659125 
L 223.498269 -69.291345 
L 221.507743 -68.854786 
L 218.42469 -64.611337 
L 214.303396 -61.096248 
L 213.502662 -60.778448 
L 209.688995 -62.033841 
L 207.583109 -60.715117 
L 207.264173 -59.247099 
L 206.38427 -60.021827 
L 209.281842 -64.914448 
L 210.910454 -70.733338 
L 213.819337 -74.268783 
L 216.538214 -75.09101 
L 217.476928 -76.881351 
L 212.319656 -83.136799 
L 211.785834 -88.816586 
L 212.648166 -93.041322 
L 212.607829 -93.302168 
L 211.021291 -94.297319 
L 205.90021 -94.886564 
L 206.065333 -98.365462 
L 208.57611 -101.044752 
L 209.017193 -104.632218 
L 205.063285 -108.07945 
L 202.161188 -108.382561 
L 203.050139 -109.08829 
L 201.150092 -111.145538 
L 201.249618 -113.632572 
L 200.150305 -114.533962 
L 199.772557 -116.098106 
L 198.225376 -117.301463 
L 197.417856 -119.218478 
L 196.176039 -119.855221 
L 192.830598 -125.671858 
L 187.7819 -129.419925 
L 186.544608 -133.790033 
L 182.862135 -134.814705 
L 175.13616 -134.772427 
L 169.080529 -134.739289 
L 154.960842 -134.662018 
L 154.449639 -131.584622 
L 146.21913 -129.810287 
L 143.372815 -129.701535 
L 138.912227 -131.893375 
L 130.350704 -129.792021 
L 128.51286 -128.481215 
L 128.156602 -123.366914 
L 124.69467 -119.744392 
L 124.641514 -117.890708 
L 123.280944 -117.387425 
L 122.577474 -115.384461 
L 121.758644 -114.958081 
L 119.381323 -108.380299 
L 117.769675 -107.975406 
L 117.577409 -106.436142 
L 116.215708 -105.885348 
L 114.440068 -103.560047 
L 110.863908 -102.905209 
L 110.011148 -103.783994 
L 109.096185 -103.142727 
L 108.201579 -100.534684 
L 109.041898 -99.002205 
L 107.947109 -98.760177 
L 105.990512 -95.41925 
L 102.180238 -93.14146 
L 98.169781 -94.575536 
L 94.074473 -93.033984 
L 93.176813 -93.696554 
L 93.151878 -94.854241 
L 94.094065 -94.921924 
L 96.614282 -98.647927 
L 100.35097 -99.337205 
L 95.894729 -99.812754 
L 97.063112 -102.922501 
L 94.970352 -98.441325 
L 93.452879 -99.187596 
L 93.775253 -102.174455 
L 93.151878 -102.651779 
L 93.012954 -104.83181 
L 93.30505 -105.640413 
L 94.074473 -105.043751 
L 94.074473 -106.8373 
L 91.80895 -106.046503 
L 90.861419 -103.157599 
L 89.404503 -103.780982 
L 88.344765 -107.46067 
L 89.892516 -110.449317 
L 86.882505 -109.521376 
L 84.755905 -110.898144 
L 84.460247 -112.889379 
L 85.951004 -116.127365 
L 84.684662 -114.175318 
L 83.290083 -113.112011 
L 81.496544 -116.127365 
L 79.0971 -114.965918 
L 75.633255 -113.3578 
L 77.781228 -116.333967 
L 79.86152 -119.550585 
L 79.975508 -123.055742 
L 82.693424 -125.720224 
L 80.810831 -125.367564 
L 78.750131 -128.110421 
L 78.155253 -127.83791 
L 78.778628 -125.228646 
L 78.308425 -124.245488 
L 75.348284 -123.787758 
L 74.432813 -126.229608 
L 77.401859 -131.202361 
L 77.035656 -132.834359 
L 76.525572 -131.123986 
L 74.436375 -129.013428 
L 72.908215 -128.434572 
L 71.023841 -128.658992 
L 66.649529 -132.185505 
L 65.872981 -133.542692 
L 60.928726 -136.096745 
L 61.463047 -138.469133 
L 62.592247 -139.122786 
L 63.755287 -138.323085 
L 62.2485 -140.09347 
L 61.660746 -139.423787 
L 60.490582 -140.15937 
L 63.486345 -143.730419 
L 59.571549 -141.041001 
L 59.443312 -137.991806 
L 57.779791 -137.129767 
L 55.612226 -138.941117 
L 55.656753 -139.817404 
L 58.070105 -142.106082 
L 57.452073 -142.832759 
L 56.778828 -141.831797 
L 55.387811 -141.639441 
L 55.494675 -140.659851 
L 53.747444 -139.633954 
L 52.513161 -141.140741 
L 52.807038 -142.969902 
L 51.658247 -141.981407 
L 46.993619 -145.251454 
L 44.574924 -145.251454 
L 43.673701 -144.382291 
L 43.214185 -149.435192 
L 39.495307 -153.618931 
L 40.038534 -157.202447 
L 37.375831 -155.823897 
L 35.281291 -156.338627 
L 34.978509 -155.784714 
L 34.426376 -158.153539 
L 35.010568 -159.950641 
L 37.375831 -161.416463 
L 35.965222 -162.007779 
L 36.552976 -165.24933 
L 36.900285 -165.86558 
L 37.646554 -165.601981 
L 38.597647 -166.987656 
L 41.586285 -173.994391 
L 40.724246 -173.745041 
L 40.661909 -172.231133 
L 38.380356 -170.5498 
L 35.918915 -165.911888 
L 32.850128 -163.140542 
L 32.679145 -164.35345 
L 33.790534 -165.327695 
L 32.591872 -165.032037 
L 31.995213 -165.601981 
L 32.882187 -168.091921 
L 34.971384 -170.442935 
L 34.387193 -170.73503 
L 31.829574 -168.480195 
L 30.201674 -165.601981 
L 28.680639 -168.617335 
L 30.472397 -170.136589 
L 31.070837 -173.153728 
L 29.665571 -171.604192 
L 28.083979 -171.034252 
L 28.680639 -174.322109 
L 27.601309 -174.909862 
L 28.083979 -176.117431 
L 31.451986 -177.292936 
L 32.128794 -178.803288 
L 34.387193 -180.327884 
L 33.491314 -181.547919 
L 33.062075 -180.445433 
L 31.669277 -179.891522 
L 31.024529 -178.283212 
L 28.409916 -177.909189 
L 28.662828 -178.748073 
L 27.998488 -179.394601 
L 26.561163 -177.337463 
L 25.198643 -177.592158 
L 24.331261 -180.085658 
L 23.275085 -180.028665 
L 24.140686 -178.464882 
L 23.601022 -177.011526 
L 21.479765 -177.909189 
L 23.601022 -175.51899 
L 22.345366 -173.90712 
L 20.583886 -173.289089 
L 20.883106 -170.884642 
L 22.078205 -169.691321 
L 21.479765 -168.617335 
L 18.329049 -169.691321 
z
" style="stroke: #000000; stroke-width: 0.5"/>
    </defs>
    <g clip-path="url(#pfb5dffff6b)">
     <use xlink:href="#m73ab236c94" x="0" y="264.008426" style="fill: #ffeadb; stroke: #000000; stroke-width: 0.5"/>
    </g>
   </g>
  </g>
 </g>
 <defs>
  <clipPath id="pfb5dffff6b">
   <rect x="0" y="-0" width="357.12" height="264.008426"/>
  </clipPath>
 </defs>
</svg>
