<?xml version="1.0" encoding="utf-8" standalone="no"?>
<!DOCTYPE svg PUBLIC "-//W3C//DTD SVG 1.1//EN"
  "http://www.w3.org/Graphics/SVG/1.1/DTD/svg11.dtd">
<svg xmlns:xlink="http://www.w3.org/1999/xlink" width="357.12pt" height="254.399628pt" viewBox="0 0 357.12 254.399628" xmlns="http://www.w3.org/2000/svg" version="1.1">
 <metadata>
  <rdf:RDF xmlns:dc="http://purl.org/dc/elements/1.1/" xmlns:cc="http://creativecommons.org/ns#" xmlns:rdf="http://www.w3.org/1999/02/22-rdf-syntax-ns#">
   <cc:Work>
    <dc:type rdf:resource="http://purl.org/dc/dcmitype/StillImage"/>
    <dc:date>2025-06-04T13:24:42.060901</dc:date>
    <dc:format>image/svg+xml</dc:format>
    <dc:creator>
     <cc:Agent>
      <dc:title>Matplotlib v3.10.3, https://matplotlib.org/</dc:title>
     </cc:Agent>
    </dc:creator>
   </cc:Work>
  </rdf:RDF>
 </metadata>
 <defs>
  <style type="text/css">*{stroke-linejoin: round; stroke-linecap: butt}</style>
 </defs>
 <g id="figure_1">
  <g id="patch_1">
   <path d="M 0 254.399628 
L 357.12 254.399628 
L 357.12 0 
L 0 0 
L 0 254.399628 
z
" style="fill: none"/>
  </g>
  <g id="axes_1">
   <g id="PatchCollection_1">
    <path d="M 16.232727 168.033651 
L 16.55178 164.909089 
L 18.242624 164.283103 
L 22.273187 159.827129 
L 26.104512 159.961759 
L 26.717039 159.395003 
L 27.455819 152.643875 
L 22.963796 145.472466 
L 25.215358 142.108851 
L 26.260672 140.076835 
L 26.263364 138.703692 
L 25.248319 137.782884 
L 27.417937 133.865053 
L 36.458241 130.264287 
L 47.531304 121.950582 
L 62.821338 110.447692 
L 68.806407 105.437416 
L 70.676298 102.431322 
L 74.588394 101.720521 
L 75.664252 99.771351 
L 79.607491 101.914691 
L 85.284909 97.411767 
L 85.007186 96.591317 
L 87.578772 96.69944 
L 90.618883 94.91862 
L 91.106488 93.69961 
L 89.728474 92.397917 
L 99.675614 90.71038 
L 101.328435 89.592347 
L 106.658964 91.329424 
L 106.124719 90.504737 
L 108.469463 88.838399 
L 107.114769 90.969021 
L 114.299522 96.625237 
L 121.297712 93.275605 
L 131.372054 96.061315 
L 143.608818 97.960854 
L 149.716599 96.69944 
L 151.226054 95.556749 
L 154.955172 96.489558 
L 165.129155 95.633068 
L 168.565048 96.374662 
L 170.58821 97.335447 
L 172.884193 97.252765 
L 182.386129 91.337904 
L 192.829354 90.210056 
L 196.422791 86.338897 
L 195.589622 85.283126 
L 190.713573 84.437237 
L 190.965856 83.858472 
L 206.842696 86.703538 
L 207.686464 88.838399 
L 209.290174 88.146686 
L 211.77838 90.319145 
L 218.024652 92.273238 
L 230.233501 91.516805 
L 239.532078 86.193978 
L 243.483025 86.105692 
L 260.332538 91.927466 
L 261.076286 92.477969 
L 260.096613 96.196482 
L 261.192103 97.226671 
L 263.502325 96.964897 
L 263.830781 95.429737 
L 265.598275 96.736842 
L 270.706768 97.004616 
L 271.989791 96.124529 
L 265.468574 94.721292 
L 262.141614 92.620207 
L 280.230854 95.324124 
L 301.095877 112.300373 
L 309.651013 116.657321 
L 308.565562 117.426888 
L 302.731263 114.191737 
L 300.46072 114.030614 
L 299.850154 113.449728 
L 300.562481 113.123245 
L 298.39794 110.60254 
L 297.47149 110.876023 
L 295.372669 109.570089 
L 292.703562 110.958704 
L 290.926984 110.246377 
L 291.995475 109.018885 
L 290.182857 108.859883 
L 291.635071 112.027194 
L 290.926984 112.415158 
L 288.790003 108.859883 
L 284.490599 108.859883 
L 286.182376 110.774262 
L 285.915254 112.415158 
L 287.946234 109.699411 
L 288.923564 109.828733 
L 290.780703 114.085735 
L 289.112246 115.162705 
L 290.396979 117.906015 
L 293.738133 119.767392 
L 293.738133 117.751253 
L 295.056786 118.991464 
L 295.586791 121.48885 
L 299.137827 121.340448 
L 297.719533 122.050656 
L 298.792264 124.073156 
L 300.740563 124.897845 
L 304.861885 123.47531 
L 301.226048 120.729883 
L 295.550751 118.817624 
L 293.738133 116.682761 
L 295.875114 115.61639 
L 300.524321 117.596491 
L 302.286059 119.716513 
L 305.268929 120.818922 
L 306.254739 122.050656 
L 305.186248 123.087346 
L 307.32959 122.693022 
L 308.094918 127.049666 
L 308.743644 125.966335 
L 309.595893 126.979705 
L 311.720154 124.766403 
L 314.662744 124.219438 
L 315.205469 122.152417 
L 320.19176 122.762982 
L 319.920397 126.572661 
L 318.720465 126.674423 
L 318.25618 125.523251 
L 316.812446 125.220088 
L 315.30511 128.40012 
L 316.2464 128.099077 
L 316.634364 126.674423 
L 317.753735 129.218448 
L 322.581024 126.347939 
L 320.089999 121.895894 
L 319.123269 122.375019 
L 316.806086 121.310769 
L 315.890236 121.694492 
L 315.890236 120.628122 
L 309.892696 117.995054 
L 311.056587 116.634 
L 319.413712 121.128446 
L 326.424623 123.697912 
L 329.11917 125.610172 
L 332.871608 134.018176 
L 340.887273 137.734768 
L 333.816629 138.491002 
L 332.800237 137.990206 
L 333.461228 137.420758 
L 329.481821 137.745193 
L 327.348072 135.965501 
L 326.03686 137.738462 
L 323.759067 138.491002 
L 322.369775 137.033049 
L 321.159529 136.977854 
L 320.233334 140.269349 
L 319.165787 139.912606 
L 319.523879 140.6234 
L 316.200078 142.310209 
L 315.609089 144.2124 
L 313.819973 143.38853 
L 311.631029 143.467953 
L 310.45713 144.496451 
L 310.95119 145.992092 
L 308.786479 145.279953 
L 308.892831 146.08903 
L 307.810474 146.499619 
L 304.905346 146.671941 
L 305.939238 147.802762 
L 302.382542 149.192057 
L 299.504337 147.802762 
L 299.504337 149.904197 
L 293.458492 150.065749 
L 289.759097 148.342595 
L 289.188302 148.805683 
L 290.609904 151.328492 
L 286.818967 152.429698 
L 281.941635 150.159979 
L 281.656236 154.36958 
L 280.587343 154.91749 
L 277.951457 154.52844 
L 276.672555 152.396044 
L 274.301873 155.845044 
L 270.432854 157.405298 
L 267.748504 156.662182 
L 268.102559 155.272903 
L 264.298159 155.162503 
L 260.108742 153.967068 
L 259.1462 154.52844 
L 256.751285 151.172324 
L 256.659744 149.850351 
L 255.623158 149.723798 
L 256.220878 148.964544 
L 255.454881 147.7314 
L 252.957655 146.50635 
L 248.470725 147.114837 
L 243.483046 151.020476 
L 241.758505 154.794991 
L 240.670764 155.134235 
L 242.427572 156.662182 
L 240.970971 158.1188 
L 242.247775 158.287364 
L 238.979921 161.309323 
L 237.263497 159.775976 
L 236.314416 159.540386 
L 235.90113 160.282156 
L 235.569961 164.361179 
L 234.180669 165.942987 
L 234.180669 167.399588 
L 232.756375 168.467139 
L 235.194367 170.868777 
L 234.642419 172.916364 
L 226.737454 175.023197 
L 223.472886 177.882552 
L 220.986429 182.759879 
L 216.875094 184.794019 
L 215.973131 187.028734 
L 214.139523 187.491821 
L 209.725352 189.717112 
L 209.536884 190.619087 
L 205.331312 191.788944 
L 204.537045 195.501796 
L 205.810564 196.796858 
L 204.762859 198.852802 
L 203.971635 198.054213 
L 200.540138 197.616703 
L 198.589474 194.660412 
L 195.05701 194.260594 
L 189.898319 189.885395 
L 190.326415 186.806605 
L 185.038488 188.263205 
L 176.576189 197.719009 
L 175.041506 201.320131 
L 173.657599 202.359411 
L 170.012051 202.756537 
L 168.025041 201.509952 
L 165.80648 202.211321 
L 163.157132 201.032042 
L 153.488627 201.754964 
L 151.458536 202.953089 
L 151.199606 204.90012 
L 151.566299 208.576154 
L 153.642095 218.888219 
L 152.812827 221.883545 
L 154.390589 223.604001 
L 154.810608 225.411971 
L 153.203035 227.794679 
L 152.33896 228.169015 
L 147.955689 226.498366 
L 143.925125 229.299832 
L 142.667762 232.11612 
L 143.292405 237.28154 
L 137.451183 242.836009 
L 134.866454 241.994627 
L 122.915288 242.74347 
L 125.253672 240.248204 
L 122.777488 240.000171 
L 120.894908 238.0031 
L 120.986069 237.176291 
L 123.441054 236.659015 
L 117.428674 235.98061 
L 116.572185 231.914403 
L 114.032399 227.710405 
L 113.12503 227.735841 
L 112.588665 226.845434 
L 116.330502 223.076034 
L 119.529614 222.399741 
L 119.529615 221.299463 
L 115.972218 219.874796 
L 114.808327 220.786412 
L 114.16172 223.076034 
L 110.746366 223.285921 
L 110.248161 222.719871 
L 110.994408 222.399741 
L 108.988869 221.833706 
L 107.049048 222.399741 
L 107.725336 220.587137 
L 107.013008 220.315766 
L 106.764965 217.489771 
L 104.882387 218.808437 
L 105.359391 220.288201 
L 103.182129 222.688065 
L 100.780145 222.902194 
L 96.701224 220.599847 
L 100.804558 218.769759 
L 101.826333 217.103133 
L 101.064377 215.330177 
L 98.665425 215.211717 
L 98.120207 214.021654 
L 99.675084 209.638382 
L 99.938942 205.836672 
L 102.617908 199.319661 
L 100.225381 197.723799 
L 98.085205 196.429331 
L 96.663605 194.064042 
L 94.42216 195.402181 
L 92.379953 195.196207 
L 91.066049 195.952783 
L 89.645299 195.306199 
L 86.377186 196.643383 
L 82.015454 190.211176 
L 75.835033 190.160242 
L 74.416079 190.240791 
L 74.86033 192.903609 
L 72.890666 193.894726 
L 70.179545 195.668732 
L 68.675825 195.361797 
L 68.413312 196.329717 
L 66.702276 195.944706 
L 61.290496 197.433613 
L 61.276449 191.292329 
L 60.392571 190.324252 
L 54.150179 188.926882 
L 51.182985 189.066458 
L 50.450785 187.699142 
L 48.273957 186.946604 
L 48.287419 183.879928 
L 43.474705 184.449376 
L 41.260185 180.083614 
L 39.156053 179.266461 
L 37.305009 180.032461 
L 36.624914 178.730197 
L 34.129292 175.525338 
L 33.355218 172.81675 
L 30.15123 171.712853 
L 29.474085 169.050049 
L 27.0509 171.377649 
L 17.035852 168.158811 
z
" clip-path="url(#p7ea1b621ea)" style="fill: #ffeadb; stroke: #000000; stroke-width: 0.5"/>
    <path d="M 159.776858 70.626953 
L 161.657489 68.15675 
L 168.43364 64.816779 
L 174.074422 63.102492 
L 181.909187 63.166207 
L 179.714707 64.006297 
L 175.116576 63.985392 
L 165.795664 68.518988 
L 162.81905 69.177301 
L 160.09145 71.438695 
z
" clip-path="url(#p7ea1b621ea)" style="fill: #ffeadb; stroke: #000000; stroke-width: 0.5"/>
    <path d="M 298.648102 11.563619 
L 299.042426 11.603902 
L 299.43039 11.684459 
L 299.805634 11.803186 
L 300.149077 11.955825 
L 299.648752 12.061826 
L 299.212028 12.044866 
L 298.870704 11.881622 
z
" clip-path="url(#p7ea1b621ea)" style="fill: #ffeadb; stroke: #000000; stroke-width: 0.5"/>
    <path d="M 104.941747 224.500684 
L 105.751596 222.622355 
L 106.854006 222.562984 
L 109.537953 222.399741 
L 108.634825 223.131163 
L 109.251751 225.185461 
L 108.469463 225.923221 
z
" clip-path="url(#p7ea1b621ea)" style="fill: #ffeadb; stroke: #000000; stroke-width: 0.5"/>
    <path d="M 194.13654 64.4706 
L 195.991125 61.404242 
L 197.414961 59.278942 
L 199.135016 58.529553 
L 200.915913 59.514729 
z
" clip-path="url(#p7ea1b621ea)" style="fill: #ffeadb; stroke: #000000; stroke-width: 0.5"/>
    <path d="M 139.41228 81.103026 
L 142.181665 79.407166 
L 145.595277 78.846739 
L 145.595277 80.623316 
L 141.167282 82.018523 
z
" clip-path="url(#p7ea1b621ea)" style="fill: #ffeadb; stroke: #000000; stroke-width: 0.5"/>
    <path d="M 104.170059 226.991709 
L 107.22713 226.667353 
L 106.748006 228.605053 
L 104.521982 228.443924 
z
" clip-path="url(#p7ea1b621ea)" style="fill: #ffeadb; stroke: #000000; stroke-width: 0.5"/>
   </g>
  </g>
 </g>
 <defs>
  <clipPath id="p7ea1b621ea">
   <rect x="0" y="0" width="357.12" height="254.399628"/>
  </clipPath>
 </defs>
</svg>
