<?xml version="1.0" encoding="utf-8" standalone="no"?>
<!DOCTYPE svg PUBLIC "-//W3C//DTD SVG 1.1//EN"
  "http://www.w3.org/Graphics/SVG/1.1/DTD/svg11.dtd">
<svg xmlns:xlink="http://www.w3.org/1999/xlink" width="349.183526pt" height="266.112pt" viewBox="0 0 349.183526 266.112" xmlns="http://www.w3.org/2000/svg" version="1.1">
 <metadata>
  <rdf:RDF xmlns:dc="http://purl.org/dc/elements/1.1/" xmlns:cc="http://creativecommons.org/ns#" xmlns:rdf="http://www.w3.org/1999/02/22-rdf-syntax-ns#">
   <cc:Work>
    <dc:type rdf:resource="http://purl.org/dc/dcmitype/StillImage"/>
    <dc:date>2025-06-04T13:24:53.546130</dc:date>
    <dc:format>image/svg+xml</dc:format>
    <dc:creator>
     <cc:Agent>
      <dc:title>Matplotlib v3.10.3, https://matplotlib.org/</dc:title>
     </cc:Agent>
    </dc:creator>
   </cc:Work>
  </rdf:RDF>
 </metadata>
 <defs>
  <style type="text/css">*{stroke-linejoin: round; stroke-linecap: butt}</style>
 </defs>
 <g id="figure_1">
  <g id="patch_1">
   <path d="M 0 266.112 
L 349.183526 266.112 
L 349.183526 0 
L 0 0 
L 0 266.112 
z
" style="fill: none"/>
  </g>
  <g id="axes_1">
   <g id="PatchCollection_1">
    <path d="M 15.871978 18.631396 
L 16.63675 18.200576 
L 18.529984 18.01533 
L 20.477601 18.514132 
L 22.007143 17.966896 
L 22.284161 17.639742 
L 22.435415 15.559566 
L 23.162849 14.217337 
L 23.183191 13.297545 
L 25.336448 12.096 
L 26.258422 12.950848 
L 28.897429 14.260392 
L 29.176316 14.414333 
L 29.970962 14.504182 
L 30.203792 14.818588 
L 31.364545 17.638043 
L 32.91368 18.417481 
L 33.951478 19.695857 
L 34.582533 21.271558 
L 35.013354 21.167889 
L 36.726442 21.608057 
L 37.187004 21.485268 
L 37.187004 21.8838 
L 37.797122 22.087313 
L 37.748686 22.506237 
L 38.589085 23.576917 
L 39.216197 23.914692 
L 39.093834 24.53798 
L 40.202989 25.08003 
L 40.877765 25.301422 
L 44.701052 25.783593 
L 50.748948 27.023915 
L 51.844271 26.91132 
L 53.304983 26.197962 
L 54.734256 26.020787 
L 56.967389 26.720128 
L 58.140038 26.300353 
L 59.238759 24.898697 
L 60.762354 24.120756 
L 61.238212 23.378927 
L 62.761328 22.062166 
L 64.197876 22.140849 
L 65.182423 21.708439 
L 66.639197 19.711423 
L 69.255362 18.758012 
L 71.649298 16.942103 
L 73.856938 16.311591 
L 75.235248 15.386632 
L 77.213434 14.525426 
L 77.919366 13.968536 
L 78.884034 13.514228 
L 80.3371 13.493832 
L 80.706489 13.152842 
L 82.257526 14.092903 
L 86.147662 17.464696 
L 86.802081 18.594464 
L 83.926427 19.536375 
L 83.148059 20.356382 
L 83.117468 20.921038 
L 83.739482 21.803074 
L 85.862997 23.001641 
L 86.446773 24.036204 
L 86.361145 24.487578 
L 85.400736 25.212252 
L 82.364593 25.631605 
L 82.264323 25.968104 
L 81.249727 26.571424 
L 81.615117 27.716882 
L 85.112167 29.498802 
L 85.15176 30.337499 
L 86.504556 31.357615 
L 88.230389 31.062331 
L 88.533749 31.853868 
L 90.209781 33.511683 
L 91.481214 34.720414 
L 92.636322 34.681395 
L 94.190507 33.911952 
L 95.778187 34.088623 
L 95.787555 37.234688 
L 97.007976 41.77113 
L 96.933039 42.814909 
L 97.639598 43.816543 
L 97.741301 44.897121 
L 98.917562 46.506959 
L 101.225928 48.104744 
L 105.109334 49.532586 
L 111.430908 50.211714 
L 113.199985 49.86847 
L 113.787447 50.110681 
L 113.22541 50.211714 
L 117.506256 51.26754 
L 118.026809 51.660966 
L 118.319871 53.077433 
L 119.588468 55.149609 
L 122.163131 57.094657 
L 123.76558 57.847953 
L 132.190132 61.994412 
L 145.68035 64.531606 
L 148.723377 64.205757 
L 151.427844 63.409539 
L 159.990874 61.938876 
L 165.52292 60.592665 
L 170.980028 59.611778 
L 178.187479 59.218351 
L 179.369094 58.991531 
L 180.170666 58.448898 
L 180.133197 59.073827 
L 179.201822 59.334774 
L 177.074111 59.721509 
L 173.636321 59.694076 
L 174.535579 59.918891 
L 174.077921 60.021261 
L 175.218839 60.690793 
L 178.241007 61.063704 
L 180.299131 60.611399 
L 180.606913 60.205931 
L 180.614942 58.506439 
L 179.971276 58.01265 
L 180.392804 57.213755 
L 178.875305 53.66088 
L 178.645137 52.033651 
L 183.458012 52.332318 
L 184.363841 51.835217 
L 186.051436 51.706057 
L 188.833504 50.421241 
L 190.816811 50.452681 
L 193.02615 49.042952 
L 193.372847 47.748789 
L 193.009155 46.950877 
L 193.442526 45.853007 
L 194.149515 45.154089 
L 196.618875 43.806396 
L 198.649768 42.010457 
L 200.119829 41.719843 
L 200.269384 41.459821 
L 201.562698 41.081681 
L 203.464429 39.978287 
L 208.160125 39.275123 
L 212.342574 40.132516 
L 215.692423 39.897747 
L 216.470639 40.094278 
L 218.13784 39.755231 
L 218.360474 39.190999 
L 217.939 38.275821 
L 220.127945 37.031795 
L 221.635394 36.993557 
L 222.573514 37.369142 
L 224.944306 36.769221 
L 226.308997 37.461342 
L 230.025785 38.146662 
L 231.084569 37.57563 
L 231.662 36.912052 
L 232.270814 36.662157 
L 232.984601 36.867366 
L 235.056281 39.893314 
L 234.772467 41.323009 
L 235.188842 41.760203 
L 237.554534 42.503733 
L 240.759775 42.5373 
L 241.477389 42.89904 
L 241.940923 42.880594 
L 242.549341 43.402763 
L 243.932726 43.440581 
L 246.510855 44.421187 
L 248.691303 44.817167 
L 249.23854 46.50901 
L 251.721497 47.255937 
L 253.725198 47.078342 
L 254.549452 46.152966 
L 257.047705 47.101282 
L 258.660522 46.822991 
L 259.010617 46.247291 
L 262.84977 47.400392 
L 265.762698 49.179762 
L 267.416304 48.949056 
L 268.140287 49.766511 
L 268.009426 50.939586 
L 268.371418 52.417292 
L 269.999531 53.711882 
L 269.873769 54.256144 
L 270.522975 54.542083 
L 271.423705 54.417595 
L 272.229264 55.632733 
L 273.022927 55.20871 
L 275.390319 55.824773 
L 277.072816 56.838522 
L 279.040827 57.24555 
L 280.90517 59.751449 
L 282.647149 61.456041 
L 283.809602 63.392611 
L 284.353439 63.636488 
L 296.409633 63.461442 
L 297.894989 63.650085 
L 298.253582 64.821034 
L 297.580583 68.238712 
L 297.692749 68.934655 
L 298.217892 69.443652 
L 298.863699 72.079563 
L 298.42693 73.113704 
L 298.029249 73.323591 
L 298.029249 74.006788 
L 297.303566 74.598211 
L 298.265478 74.876927 
L 299.132219 75.858384 
L 299.383744 77.903721 
L 298.979265 79.508892 
L 299.602978 80.38668 
L 299.937778 81.544883 
L 298.375945 84.142556 
L 298.245084 85.617715 
L 297.186301 85.826753 
L 296.853201 86.3366 
L 297.016352 87.234781 
L 296.752931 87.380088 
L 297.468417 88.260425 
L 297.59078 88.87819 
L 297.074135 89.572432 
L 296.397737 91.656857 
L 296.244782 93.603629 
L 295.740034 93.742984 
L 295.327057 94.487363 
L 294.509601 95.108529 
L 294.305663 96.509756 
L 293.449119 96.668658 
L 292.512699 97.612726 
L 290.881186 97.989168 
L 290.230281 98.509209 
L 291.540589 99.517433 
L 293.367544 101.756511 
L 289.309157 101.958327 
L 289.423022 102.308425 
L 288.384633 102.885401 
L 287.290161 103.939934 
L 286.827899 104.714477 
L 286.757001 105.669869 
L 287.407425 109.607741 
L 286.731028 111.746549 
L 287.140606 112.946816 
L 288.177295 113.77872 
L 289.504599 114.23758 
L 292.636762 114.305136 
L 293.44402 114.546041 
L 293.849574 115.015693 
L 292.409029 115.477361 
L 292.358045 116.599024 
L 291.173499 117.420307 
L 288.058331 120.956521 
L 287.981854 122.486065 
L 292.378439 135.79521 
L 292.123515 138.443018 
L 291.467511 139.44062 
L 291.758124 139.702341 
L 291.967162 144.262078 
L 291.758124 145.477214 
L 292.237381 148.197249 
L 297.226434 148.95005 
L 305.137608 149.939063 
L 306.463826 150.195004 
L 307.48862 151.359156 
L 307.381552 152.392446 
L 307.981473 153.353508 
L 308.756441 155.762538 
L 308.32647 156.965778 
L 308.360459 158.846266 
L 292.60957 175.107003 
L 299.759332 182.532082 
L 300.716146 183.062323 
L 300.641368 184.698083 
L 301.531901 185.820601 
L 301.712047 186.602793 
L 302.366352 186.922719 
L 302.747038 187.674746 
L 303.188906 187.892281 
L 302.864303 188.53214 
L 303.569592 189.09722 
L 304.483918 191.340126 
L 305.906394 193.225283 
L 309.849214 196.739832 
L 312.419695 197.665207 
L 314.037612 197.847051 
L 315.405703 198.386641 
L 317.577653 198.774127 
L 319.246554 199.909808 
L 319.707116 200.717495 
L 321.077756 201.896093 
L 323.768902 201.414286 
L 324.134292 201.609728 
L 323.709419 205.744593 
L 324.44275 208.462076 
L 325.008681 213.966732 
L 324.044219 216.381711 
L 324.418107 217.175373 
L 324.24221 217.594296 
L 323.819036 217.718361 
L 324.77755 218.403256 
L 325.249159 218.263898 
L 326.286698 218.595299 
L 330.967948 217.85602 
L 332.516185 218.760999 
L 333.311548 220.176676 
L 332.346236 220.204718 
L 331.860182 221.023021 
L 331.919664 223.073458 
L 332.358133 224.214667 
L 331.172737 224.637842 
L 330.922062 227.284798 
L 330.748714 227.941653 
L 330.379925 228.265406 
L 329.667837 228.05212 
L 324.003431 227.956949 
L 323.154535 228.617201 
L 322.145887 228.598506 
L 321.401509 229.000437 
L 318.493679 229.302946 
L 318.135086 229.685331 
L 317.463787 229.72527 
L 316.413501 230.307345 
L 316.510372 230.754312 
L 315.706513 231.700078 
L 315.971633 232.613556 
L 315.61474 232.783505 
L 313.648428 232.39942 
L 313.160674 233.37238 
L 308.865208 234.843289 
L 308.486222 235.795854 
L 307.575294 241.509545 
L 307.325469 241.784013 
L 306.373753 241.912325 
L 306.027057 242.344845 
L 306.242893 244.168401 
L 305.744942 244.907679 
L 305.364255 250.298467 
L 304.8411 251.669736 
L 304.701929 251.153867 
L 304.125172 250.910318 
L 304.003397 251.369314 
L 304.349987 251.695831 
L 303.460095 251.559336 
L 303.104139 251.808238 
L 303.78795 252.14546 
L 303.217884 253.042711 
L 302.084444 253.400006 
L 302.32264 253.550552 
L 301.938638 254.016 
L 298.211728 252.966225 
L 297.968369 252.288898 
L 295.671873 251.543278 
L 289.141543 250.471394 
L 288.869891 250.336237 
L 289.122808 250.124135 
L 288.725368 249.606259 
L 288.616975 248.317589 
L 287.763215 247.643814 
L 286.053017 247.952265 
L 285.224682 248.779262 
L 285.335751 249.32524 
L 285.921875 249.50188 
L 286.408153 250.219706 
L 284.686733 249.557415 
L 283.974132 249.568943 
L 283.498427 249.216178 
L 283.723242 248.889662 
L 283.185292 248.75116 
L 282.03847 248.889662 
L 282.165111 249.736057 
L 280.644084 249.404862 
L 280.073958 248.975356 
L 277.751871 249.156868 
L 277.14318 249.568747 
L 275.023061 248.582046 
L 272.377682 248.682219 
L 271.127851 248.41956 
L 269.745142 247.402401 
L 266.409836 247.910113 
L 264.208526 248.510956 
L 263.828482 248.310229 
L 262.678984 248.362418 
L 262.187871 248.092775 
L 261.023652 246.551188 
L 259.656029 246.230024 
L 259.407128 245.778387 
L 254.822514 245.231071 
L 252.916942 245.324744 
L 252.60916 245.192264 
L 252.726921 244.929311 
L 251.717931 245.051755 
L 250.125494 245.690067 
L 249.920752 245.556249 
L 249.246308 245.960381 
L 248.104838 245.952352 
L 246.598045 245.538853 
L 245.233099 243.594473 
L 243.931047 243.6199 
L 242.084355 244.541907 
L 242.270362 243.486081 
L 241.819395 242.77952 
L 237.956062 242.766139 
L 236.957778 242.347288 
L 234.516933 242.099055 
L 233.564147 239.22397 
L 233.007463 238.631155 
L 232.659536 238.631155 
L 232.136307 237.184579 
L 232.204554 236.647968 
L 232.895056 235.815619 
L 231.582299 234.212477 
L 231.337412 232.558482 
L 230.715157 231.719442 
L 230.874401 228.373985 
L 229.803854 224.556152 
L 228.169934 222.843278 
L 228.955447 222.618463 
L 228.955447 222.056427 
L 228.282341 222.281241 
L 227.599868 221.82559 
L 227.182355 221.910566 
L 226.830413 221.444209 
L 227.496828 220.821953 
L 226.621657 220.524876 
L 226.25098 219.810957 
L 225.40391 220.046476 
L 224.725452 219.587481 
L 222.534847 219.587481 
L 218.75582 218.790592 
L 214.984822 219.464366 
L 214.488356 220.041123 
L 211.9525 221.667015 
L 209.064702 222.168834 
L 207.456207 222.180877 
L 205.624235 223.751905 
L 206.083231 223.52709 
L 206.051115 224.422334 
L 205.086286 225.648108 
L 203.778881 226.053577 
L 200.960669 225.516966 
L 200.337076 225.781928 
L 199.892799 226.604909 
L 198.205351 227.017069 
L 195.367066 229.132736 
L 193.070745 230.39598 
L 192.390948 230.180532 
L 190.257885 230.191907 
L 189.293056 228.935354 
L 187.062306 228.858408 
L 186.466814 228.5988 
L 185.617069 227.146873 
L 185.12997 226.792255 
L 182.536572 226.903994 
L 180.323218 226.225535 
L 177.478242 227.004357 
L 175.394692 226.897971 
L 171.702647 224.501285 
L 170.922487 222.506056 
L 164.091065 220.394405 
L 163.491559 219.689181 
L 162.512009 219.469052 
L 162.217609 218.949167 
L 161.125653 218.565778 
L 159.800852 217.505938 
L 158.338218 216.804729 
L 157.064268 216.302243 
L 156.698945 215.647202 
L 157.128501 215.330052 
L 158.136153 215.275856 
L 158.340895 215.112598 
L 158.195033 214.728539 
L 157.016094 214.116989 
L 156.510261 213.214385 
L 154.734493 211.702909 
L 151.20303 210.901336 
L 148.643086 209.026545 
L 147.361108 208.412985 
L 145.438139 208.443096 
L 144.868074 208.196199 
L 141.970929 208.447982 
L 140.354384 208.139999 
L 140.110834 207.674312 
L 138.895665 207.420915 
L 137.773097 206.301007 
L 137.645646 206.760542 
L 137.308064 206.785005 
L 136.409359 204.796063 
L 135.168487 203.352564 
L 135.424519 201.700665 
L 133.065304 199.071804 
L 132.060329 196.882536 
L 131.700358 193.561169 
L 130.382248 192.233691 
L 128.696138 191.980776 
L 127.52389 190.310725 
L 127.486421 189.451611 
L 127.82632 189.27363 
L 128.902218 190.182258 
L 129.076182 190.049776 
L 129.00392 189.610856 
L 129.564619 189.05952 
L 129.580677 188.320175 
L 129.420094 188.083321 
L 129.116327 188.151566 
L 128.666698 187.356019 
L 128.279963 187.484482 
L 128.107337 186.906388 
L 126.429257 186.915087 
L 125.695933 187.188744 
L 124.875627 186.859551 
L 124.743147 185.803056 
L 125.265038 184.9881 
L 125.51394 185.221615 
L 125.626347 184.436103 
L 125.166013 183.976436 
L 125.064311 181.833337 
L 124.277459 181.005002 
L 124.26943 181.496117 
L 121.78844 178.791647 
L 120.816919 178.45242 
L 118.29846 174.964447 
L 116.67123 173.793538 
L 116.491914 173.045492 
L 116.810401 172.922378 
L 116.491914 172.708271 
L 116.669892 172.151587 
L 116.388874 170.790655 
L 115.120878 169.365243 
L 114.096567 169.158742 
L 112.884174 169.421695 
L 107.724142 172.280052 
L 107.127313 172.498176 
L 106.597392 172.397813 
L 106.134381 171.81035 
L 106.087545 170.800692 
L 105.735603 170.208546 
L 103.599863 169.892735 
L 101.876284 170.201855 
L 101.743804 169.381549 
L 101.397215 169.095178 
L 101.482859 168.424749 
L 101.284808 168.311003 
L 101.017171 168.86568 
L 100.499295 169.095178 
L 99.885069 168.558567 
L 98.130712 167.870072 
L 97.508457 166.82629 
L 96.54898 166.513824 
L 96.999947 166.179947 
L 98.865374 166.064195 
L 100.746858 166.645635 
L 101.181768 167.075192 
L 102.184066 165.381053 
L 101.599281 165.302769 
L 101.318262 164.449009 
L 100.611702 164.931423 
L 100.587615 164.408863 
L 100.049665 164.59487 
L 99.65624 164.257649 
L 97.540573 164.296456 
L 96.951773 164.886594 
L 97.917941 165.144863 
L 98.458566 165.66274 
L 98.130712 165.951787 
L 96.773795 165.8909 
L 95.581474 167.091919 
L 95.659089 167.928283 
L 96.54898 168.656924 
L 96.793867 169.319993 
L 96.773795 171.463761 
L 96.452631 172.081332 
L 95.818332 172.372387 
L 94.414579 172.372387 
L 92.945254 172.249943 
L 91.980425 171.863878 
L 92.281516 172.882234 
L 92.112905 173.186001 
L 91.44649 173.481738 
L 90.133733 173.410819 
L 88.853253 172.751508 
L 87.668707 170.384965 
L 88.122472 169.447696 
L 86.428928 167.630939 
L 84.692047 167.448244 
L 84.205143 166.0878 
L 83.549139 165.416501 
L 81.625315 165.147132 
L 81.603221 156.511165 
L 76.02379 156.418542 
L 76.081483 152.442176 
L 76.12236 149.624825 
L 78.725982 143.431875 
L 78.454913 142.788618 
L 77.542286 142.122417 
L 75.943914 139.683647 
L 75.117111 139.199292 
L 74.499432 138.185945 
L 73.037783 137.443717 
L 73.24597 136.159326 
L 71.57622 134.568176 
L 71.805651 133.508119 
L 70.60411 132.345242 
L 69.320994 131.91782 
L 67.466849 132.403024 
L 66.448003 132.08437 
L 60.286496 127.456229 
L 58.390726 126.362618 
L 54.7572 124.566241 
L 53.010972 124.110352 
L 50.109939 124.195327 
L 49.759844 123.534652 
L 50.479579 122.934305 
L 50.494874 122.429981 
L 49.226204 122.071813 
L 49.012918 121.706421 
L 50.247598 121.497386 
L 51.263894 120.676107 
L 51.214609 119.442701 
L 49.110638 117.393964 
L 48.833621 116.235335 
L 47.930355 115.288729 
L 46.860511 115.612045 
L 46.090641 115.315058 
L 47.32957 114.385864 
L 46.574997 113.574778 
L 46.639577 113.069604 
L 45.485622 113.15373 
L 44.149822 113.85562 
L 43.986669 113.0348 
L 42.679761 111.967912 
L 42.212401 110.804182 
L 41.522407 110.224657 
L 40.059145 108.009369 
L 39.0386 108.007244 
L 38.325663 107.435366 
L 38.976569 107.09504 
L 39.550997 105.851865 
L 41.025306 104.706832 
L 40.731294 104.052101 
L 41.329515 102.243842 
L 40.647169 101.368603 
L 39.952077 101.588264 
L 39.647868 101.402168 
L 38.928982 99.693758 
L 39.952077 99.317317 
L 40.349758 98.874602 
L 40.303872 97.271129 
L 43.606834 97.935629 
L 43.378253 96.25908 
L 42.387449 95.147613 
L 42.970374 94.449974 
L 43.196407 93.544996 
L 44.328269 93.171954 
L 44.48802 92.037547 
L 45.163582 92.150998 
L 45.801728 92.362998 
L 46.051553 92.089381 
L 46.360011 91.07733 
L 46.163719 90.207193 
L 46.855413 89.785719 
L 47.087393 89.121217 
L 48.666221 89.555437 
L 49.609439 89.096575 
L 50.867913 88.920677 
L 50.998773 88.721837 
L 50.658875 88.396384 
L 51.297884 87.001101 
L 50.183017 86.70454 
L 50.574887 85.870772 
L 50.490625 85.319454 
L 49.188815 84.282764 
L 48.136829 82.905326 
L 47.915895 82.279064 
L 48.260892 81.824449 
L 47.846216 81.040984 
L 48.50222 81.148902 
L 48.389204 80.018739 
L 48.786035 79.281161 
L 52.426346 78.790857 
L 53.667825 77.870582 
L 53.770645 77.124504 
L 53.141833 76.936711 
L 51.203562 77.443159 
L 50.637631 77.146598 
L 50.406501 76.63845 
L 49.508319 76.460854 
L 48.595692 76.777809 
L 46.513815 76.822845 
L 45.797479 77.229023 
L 44.092039 77.153397 
L 42.707803 75.211727 
L 40.316362 74.024064 
L 39.522105 73.921813 
L 37.984066 74.493692 
L 37.336559 74.209876 
L 37.326362 73.603158 
L 37.798821 72.674386 
L 37.079936 71.805096 
L 36.960971 70.385171 
L 36.321963 69.801395 
L 36.719644 69.593208 
L 36.29732 68.988187 
L 35.999059 67.486686 
L 35.710145 67.191826 
L 33.893389 67.494336 
L 33.448122 67.325235 
L 32.227778 65.625321 
L 31.962766 65.075109 
L 32.289069 64.93915 
L 32.826108 63.12834 
L 32.008652 61.917453 
L 30.800314 61.354922 
L 29.296264 61.091499 
L 29.343849 60.398958 
L 30.154507 59.530517 
L 29.919977 58.206611 
L 30.219088 57.407851 
L 29.450068 56.893754 
L 28.813608 56.954086 
L 28.232382 56.371586 
L 28.002101 55.809479 
L 28.225584 55.33617 
L 28.018246 54.129106 
L 28.757525 53.389403 
L 28.80851 52.857037 
L 27.489704 52.025135 
L 27.105619 51.420541 
L 26.507398 51.49277 
L 26.121613 50.885202 
L 25.035638 50.58609 
L 24.933668 50.316722 
L 25.287162 48.066597 
L 24.521541 47.26571 
L 24.593769 46.767336 
L 25.299059 46.258338 
L 25.42992 45.88997 
L 23.955611 44.854554 
L 22.804205 45.044475 
L 22.748122 44.414386 
L 22.277363 44.354905 
L 21.664696 43.524703 
L 20.876982 43.251084 
L 19.238671 43.276578 
L 18.998609 42.792214 
L 19.335543 42.388591 
L 19.369532 41.538849 
L 20.492896 39.926878 
L 21.11661 39.567438 
L 21.006143 39.114947 
L 21.556778 38.795017 
L 21.75137 37.123566 
L 22.809304 36.3435 
L 23.171295 35.662855 
L 22.353839 34.948219 
L 21.602665 35.230757 
L 20.388377 34.940571 
L 20.51159 30.993077 
L 19.64485 30.390604 
L 19.91082 30.057081 
L 19.716228 29.356892 
L 20.149599 27.354888 
L 19.01094 26.827196 
L 18.126354 25.36436 
L 17.916467 24.882126 
L 18.57332 24.208281 
L 18.421216 23.559921 
L 18.830793 22.800676 
L 18.696534 22.396194 
L 16.905269 21.492916 
L 16.986845 20.90744 
L 16.406922 19.232739 
z
" clip-path="url(#p656f7ae0ba)" style="fill: #ffeadb; stroke: #000000; stroke-width: 0.5"/>
    <path d="M 201.008843 227.864139 
L 201.18816 227.69285 
L 202.293499 227.902947 
L 206.709501 226.281069 
L 209.237328 225.444704 
L 209.349735 223.920515 
L 208.553516 223.07746 
L 208.971029 222.861343 
L 211.268689 223.638159 
L 211.890943 223.507017 
L 213.625228 222.506056 
L 216.44344 222.056427 
L 217.18747 222.291278 
L 217.677245 222.843278 
L 216.132982 223.346435 
L 214.279599 225.635396 
L 212.079627 227.100037 
L 210.9221 226.333257 
L 209.21324 227.22984 
L 207.780047 227.195047 
L 204.777165 228.767412 
L 202.583884 229.273244 
L 202.091433 229.192954 
L 201.766255 229.533522 
L 201.284509 229.530177 
z
" clip-path="url(#p656f7ae0ba)" style="fill: #ffeadb; stroke: #000000; stroke-width: 0.5"/>
    <path d="M 220.096679 221.204003 
L 220.134148 220.789838 
L 220.728301 220.362287 
L 221.311748 220.882841 
L 221.094963 221.245488 
L 220.615893 221.383321 
z
" clip-path="url(#p656f7ae0ba)" style="fill: #ffeadb; stroke: #000000; stroke-width: 0.5"/>
    <path d="M 188.09003 233.647764 
L 188.397812 233.26705 
L 188.718975 233.457742 
L 189.064227 233.773552 
L 188.630655 234.422572 
L 188.156939 234.182367 
z
" clip-path="url(#p656f7ae0ba)" style="fill: #ffeadb; stroke: #000000; stroke-width: 0.5"/>
    <path d="M 178.465821 229.732241 
L 179.167029 229.257187 
L 180.372731 229.413754 
L 180.893284 230.035341 
L 180.669808 230.517753 
L 179.330287 230.449508 
z
" clip-path="url(#p656f7ae0ba)" style="fill: #ffeadb; stroke: #000000; stroke-width: 0.5"/>
    <path d="M 166.076928 224.607001 
L 166.547968 224.459133 
L 169.168129 224.922813 
L 169.901453 225.343002 
L 168.834922 225.394523 
L 167.283968 225.401882 
z
" clip-path="url(#p656f7ae0ba)" style="fill: #ffeadb; stroke: #000000; stroke-width: 0.5"/>
    <path d="M 218.249987 224.828472 
L 218.560445 224.089795 
L 219.596198 223.86431 
L 219.679166 224.370813 
L 219.185376 224.758216 
z
" clip-path="url(#p656f7ae0ba)" style="fill: #ffeadb; stroke: #000000; stroke-width: 0.5"/>
    <path d="M 210.536703 228.337186 
L 210.574172 227.957811 
L 211.212485 227.37704 
L 211.371729 227.939077 
L 210.801663 228.468996 
z
" clip-path="url(#p656f7ae0ba)" style="fill: #ffeadb; stroke: #000000; stroke-width: 0.5"/>
    <path d="M 118.947017 184.796211 
L 119.317827 184.757796 
L 119.791947 184.965225 
L 119.656715 185.782982 
L 119.331183 185.675838 
z
" clip-path="url(#p656f7ae0ba)" style="fill: #ffeadb; stroke: #000000; stroke-width: 0.5"/>
    <path d="M 196.705249 240.495913 
L 197.307431 240.427666 
L 197.401103 240.775593 
L 196.809627 240.857891 
z
" clip-path="url(#p656f7ae0ba)" style="fill: #ffeadb; stroke: #000000; stroke-width: 0.5"/>
    <path d="M 188.445986 239.96733 
L 189.050845 239.757904 
L 189.160576 240.196159 
L 188.510219 240.149992 
z
" clip-path="url(#p656f7ae0ba)" style="fill: #ffeadb; stroke: #000000; stroke-width: 0.5"/>
    <path d="M 173.506517 227.374364 
L 174.134125 227.223149 
L 174.459303 227.551004 
L 174.246532 227.743033 
z
" clip-path="url(#p656f7ae0ba)" style="fill: #ffeadb; stroke: #000000; stroke-width: 0.5"/>
   </g>
  </g>
 </g>
 <defs>
  <clipPath id="p656f7ae0ba">
   <rect x="0" y="-0" width="349.183526" height="266.112"/>
  </clipPath>
 </defs>
</svg>
