<?xml version="1.0" encoding="utf-8" standalone="no"?>
<!DOCTYPE svg PUBLIC "-//W3C//DTD SVG 1.1//EN"
  "http://www.w3.org/Graphics/SVG/1.1/DTD/svg11.dtd">
<svg xmlns:xlink="http://www.w3.org/1999/xlink" width="357.12pt" height="16.447912pt" viewBox="0 0 357.12 16.447912" xmlns="http://www.w3.org/2000/svg" version="1.1">
 <metadata>
  <rdf:RDF xmlns:dc="http://purl.org/dc/elements/1.1/" xmlns:cc="http://creativecommons.org/ns#" xmlns:rdf="http://www.w3.org/1999/02/22-rdf-syntax-ns#">
   <cc:Work>
    <dc:type rdf:resource="http://purl.org/dc/dcmitype/StillImage"/>
    <dc:date>2025-06-04T13:24:41.424488</dc:date>
    <dc:format>image/svg+xml</dc:format>
    <dc:creator>
     <cc:Agent>
      <dc:title>Matplotlib v3.10.3, https://matplotlib.org/</dc:title>
     </cc:Agent>
    </dc:creator>
   </cc:Work>
  </rdf:RDF>
 </metadata>
 <defs>
  <style type="text/css">*{stroke-linejoin: round; stroke-linecap: butt}</style>
 </defs>
 <g id="figure_1">
  <g id="patch_1">
   <path d="M 0 16.447912 
L 357.12 16.447912 
L 357.12 -0 
L 0 -0 
L 0 16.447912 
z
" style="fill: none"/>
  </g>
  <g id="axes_1">
   <g id="PatchCollection_1">
    <path d="M 337.565791 3.276751 
L 337.566091 3.272766 
L 337.568197 3.270135 
L 337.570978 3.269759 
L 337.572407 3.271451 
L 337.573234 3.274157 
L 337.572858 3.278669 
L 337.573234 3.283819 
L 337.580377 3.286751 
L 337.596693 3.291187 
L 337.600753 3.292015 
L 337.607971 3.292428 
L 337.610903 3.291639 
L 337.612031 3.291338 
L 337.613835 3.28818 
L 337.612858 3.285248 
L 337.612031 3.281338 
L 337.607294 3.276751 
L 337.604136 3.272842 
L 337.604362 3.271413 
L 337.603535 3.269308 
L 337.603008 3.266263 
L 337.600753 3.258481 
L 337.598723 3.249534 
L 337.599023 3.245511 
L 337.598723 3.238857 
L 337.597069 3.23224 
L 337.594663 3.22788 
L 337.592407 3.226301 
L 337.58955 3.224872 
L 337.585339 3.222504 
L 337.579324 3.221413 
L 337.575264 3.222992 
L 337.573911 3.229534 
L 337.576016 3.244646 
L 337.57752 3.252955 
L 337.575866 3.259534 
L 337.572106 3.265849 
L 337.567595 3.266263 
L 337.567821 3.265699 
L 337.568948 3.262691 
L 337.569851 3.256827 
L 337.570076 3.251639 
L 337.569625 3.24615 
L 337.567294 3.237203 
L 337.567821 3.23209 
L 337.569249 3.223406 
L 337.571505 3.217429 
L 337.573911 3.212541 
L 337.57752 3.208707 
L 337.582181 3.208481 
L 337.586242 3.209308 
L 337.590753 3.211451 
L 337.596467 3.216977 
L 337.600527 3.223368 
L 337.600753 3.224421 
L 337.602783 3.232428 
L 337.605038 3.250586 
L 337.61158 3.269684 
L 337.615264 3.277992 
L 337.618121 3.28006 
L 337.621053 3.282015 
L 337.623535 3.284759 
L 337.623234 3.287503 
L 337.623083 3.290511 
L 337.621279 3.293293 
L 337.618572 3.29536 
L 337.616467 3.296601 
L 337.614738 3.297578 
L 337.610677 3.299007 
L 337.604136 3.299007 
L 337.592557 3.296977 
L 337.578121 3.29333 
L 337.569851 3.290172 
L 337.567294 3.286977 
z
" clip-path="url(#p8746e7b13c)" style="fill: #ffeadb; stroke: #000000; stroke-width: 0.5"/>
    <path d="M 18.834026 7.678302 
L 18.834252 7.672287 
L 18.838725 7.666648 
L 18.845831 7.660407 
L 18.877973 7.675896 
L 18.906093 7.695745 
L 18.924777 7.723414 
L 18.928424 7.741835 
L 18.929552 7.750106 
L 18.928386 7.76191 
L 18.915793 7.755595 
L 18.907409 7.744241 
L 18.89662 7.73567 
L 18.88365 7.729805 
L 18.880266 7.728903 
L 18.852485 7.721459 
L 18.848575 7.719504 
L 18.848011 7.718753 
L 18.866056 7.724392 
L 18.893011 7.730933 
L 18.898499 7.733865 
L 18.903349 7.738151 
L 18.904477 7.739429 
L 18.921432 7.755595 
L 18.921544 7.755595 
L 18.923687 7.752361 
L 18.924665 7.751459 
L 18.92583 7.750933 
L 18.927259 7.74973 
L 18.92692 7.746196 
L 18.902372 7.703715 
L 18.89053 7.691911 
L 18.879439 7.684317 
L 18.862109 7.675445 
L 18.846282 7.673189 
L 18.839515 7.685595 
z
" clip-path="url(#p8746e7b13c)" style="fill: #ffeadb; stroke: #000000; stroke-width: 0.5"/>
    <path d="M 31.904204 3.374082 
L 31.906911 3.348555 
L 31.951347 3.327653 
L 31.962963 3.334044 
L 31.933452 3.370247 
L 31.94473 3.386976 
L 32.045219 3.412653 
L 32.002099 3.373818 
L 32.023865 3.377691 
L 32.02785 3.354871 
L 32.060519 3.394269 
L 32.053113 3.329082 
L 32.063903 3.336074 
L 32.065745 3.31645 
L 32.076459 3.322879 
L 32.088151 3.353894 
L 32.109955 3.333819 
L 32.113113 3.311864 
L 32.010332 3.251188 
L 31.980219 3.261488 
L 31.97052 3.240774 
L 31.982625 3.231714 
L 32.049579 3.244609 
L 32.084654 3.272315 
L 32.154616 3.288368 
L 32.14488 3.313856 
L 32.126609 3.327954 
L 32.11988 3.392127 
L 32.264691 3.481637 
L 32.275969 3.523592 
L 32.213488 3.528366 
L 32.17612 3.494269 
L 32.061797 3.464983 
L 31.953076 3.390548 
L 31.935934 3.396149 
z
" clip-path="url(#p8746e7b13c)" style="fill: #ffeadb; stroke: #000000; stroke-width: 0.5"/>
    <path d="M 337.320153 4.165167 
L 337.332785 4.165167 
L 337.342935 4.179227 
L 337.389401 4.209339 
L 337.399551 4.218926 
L 337.403235 4.224001 
L 337.402634 4.238023 
L 337.385942 4.26667 
L 337.375416 4.275918 
L 337.339777 4.322158 
L 337.321055 4.340391 
L 337.326243 4.330579 
L 337.342033 4.316444 
L 337.350378 4.295767 
L 337.372484 4.278399 
L 337.381055 4.254189 
L 337.388649 4.244414 
L 337.395265 4.2337 
L 337.395716 4.221971 
L 337.38692 4.210354 
L 337.370905 4.1987 
L 337.35301 4.189227 
L 337.338424 4.184076 
L 337.338198 4.187197 
L 337.338424 4.196708 
L 337.332785 4.196708 
L 337.332559 4.186106 
L 337.329852 4.177573 
L 337.325341 4.170731 
z
" clip-path="url(#p8746e7b13c)" style="fill: #ffeadb; stroke: #000000; stroke-width: 0.5"/>
    <path d="M 340.042917 6.30598 
L 340.047654 6.298386 
L 340.062316 6.2941 
L 340.080135 6.298386 
L 340.091188 6.318686 
L 340.109684 6.344025 
L 340.122766 6.370491 
L 340.11803 6.393573 
L 340.112165 6.387483 
L 340.103669 6.38222 
L 340.085925 6.374701 
L 340.085925 6.368386 
L 340.094797 6.37019 
L 340.11803 6.381017 
L 340.114872 6.364626 
L 340.106977 6.351844 
L 340.085925 6.330491 
L 340.069534 6.307935 
L 340.060361 6.299965 
L 340.048556 6.298386 
L 340.049684 6.302521 
L 340.050812 6.305153 
L 340.054346 6.311017 
z
" clip-path="url(#p8746e7b13c)" style="fill: #ffeadb; stroke: #000000; stroke-width: 0.5"/>
    <path d="M 338.680971 5.710119 
L 338.693603 5.729517 
L 338.693603 5.766886 
L 338.696159 5.776886 
L 338.706685 5.801622 
L 338.713753 5.840419 
L 338.713377 5.846584 
L 338.713302 5.847186 
L 338.712776 5.855156 
L 338.699919 5.868389 
L 338.691122 5.862223 
L 338.687287 5.856659 
L 338.689693 5.852148 
L 338.699919 5.849441 
L 338.697813 5.854705 
L 338.697513 5.855757 
L 338.698565 5.856735 
L 338.699919 5.862073 
L 338.713001 5.847562 
L 338.713152 5.847035 
L 338.713152 5.845607 
L 338.709618 5.827787 
L 338.693603 5.795307 
z
" clip-path="url(#p8746e7b13c)" style="fill: #ffeadb; stroke: #000000; stroke-width: 0.5"/>
    <path d="M 30.214516 1.543154 
L 30.217937 1.50571 
L 30.245193 1.477327 
L 30.27711 1.484282 
L 30.297786 1.527402 
L 30.330455 1.531349 
L 30.362372 1.582214 
L 30.349966 1.601274 
L 30.308125 1.614657 
L 30.267335 1.601274 
L 30.260005 1.582552 
L 30.320982 1.594958 
L 30.328012 1.565522 
L 30.283425 1.534432 
L 30.267335 1.49977 
L 30.229516 1.518642 
L 30.25414 1.563379 
z
" clip-path="url(#p8746e7b13c)" style="fill: #ffeadb; stroke: #000000; stroke-width: 0.5"/>
    <path d="M 337.320153 3.526336 
L 337.351356 3.521186 
L 337.362183 3.500434 
L 337.360228 3.472013 
L 337.352183 3.44378 
L 337.353311 3.442615 
L 337.353987 3.441337 
L 337.354439 3.440059 
L 337.354664 3.43863 
L 337.362784 3.469382 
L 337.364814 3.501524 
L 337.356469 3.525622 
L 337.332785 3.532088 
L 337.326018 3.53081 
L 337.323085 3.529532 
z
" clip-path="url(#p8746e7b13c)" style="fill: #ffeadb; stroke: #000000; stroke-width: 0.5"/>
    <path d="M 337.268048 3.326826 
L 337.269101 3.31645 
L 337.275567 3.330999 
L 337.301131 3.349383 
L 337.306995 3.358067 
L 337.311206 3.372503 
L 337.348123 3.422352 
L 337.351055 3.42848 
L 337.306995 3.380134 
L 337.293762 3.356225 
L 337.287898 3.348555 
L 337.272559 3.334495 
z
" clip-path="url(#p8746e7b13c)" style="fill: #ffeadb; stroke: #000000; stroke-width: 0.5"/>
    <path d="M 339.188788 6.54267 
L 339.196457 6.497106 
L 339.218863 6.48252 
L 339.194351 6.515302 
L 339.203073 6.535227 
L 339.231043 6.503422 
L 339.212547 6.43831 
L 339.231494 6.43831 
L 339.233148 6.52643 
L 339.212547 6.545602 
z
" clip-path="url(#p8746e7b13c)" style="fill: #ffeadb; stroke: #000000; stroke-width: 0.5"/>
    <path d="M 337.339777 3.875733 
L 337.407671 3.848627 
L 337.477821 3.840996 
L 337.461806 3.836034 
L 337.470904 3.830282 
L 337.488047 3.84171 
L 337.479926 3.858026 
L 337.402032 3.854793 
L 337.364739 3.872311 
z
" clip-path="url(#p8746e7b13c)" style="fill: #ffeadb; stroke: #000000; stroke-width: 0.5"/>
    <path d="M 16.232727 9.416937 
L 16.237351 9.413478 
L 16.250284 9.420847 
L 16.271411 9.442275 
L 16.27205 9.445433 
L 16.259908 9.431674 
L 16.246712 9.423554 
L 16.237652 9.421524 
z
" clip-path="url(#p8746e7b13c)" style="fill: #ffeadb; stroke: #000000; stroke-width: 0.5"/>
    <path d="M 337.098726 2.310066 
L 337.118275 2.317547 
L 337.171507 2.280217 
L 337.224966 2.272209 
L 337.21865 2.291119 
L 337.185643 2.284352 
L 337.117147 2.329013 
z
" clip-path="url(#p8746e7b13c)" style="fill: #ffeadb; stroke: #000000; stroke-width: 0.5"/>
    <path d="M 18.370458 9.266412 
L 18.397375 9.262803 
L 18.376774 9.274682 
L 18.395946 9.287991 
L 18.421472 9.280998 
L 18.394631 9.298592 
L 18.372713 9.286186 
z
" clip-path="url(#p8746e7b13c)" style="fill: #ffeadb; stroke: #000000; stroke-width: 0.5"/>
    <path d="M 338.915406 6.159665 
L 338.940669 6.172297 
L 338.960218 6.222672 
L 338.972849 6.279514 
L 338.951646 6.273123 
L 338.943225 6.207033 
z
" clip-path="url(#p8746e7b13c)" style="fill: #ffeadb; stroke: #000000; stroke-width: 0.5"/>
    <path d="M 337.889473 4.911778 
L 337.910224 4.908846 
L 337.921427 4.933808 
L 337.902781 4.988094 
L 337.892856 4.979146 
L 337.919172 4.930951 
z
" clip-path="url(#p8746e7b13c)" style="fill: #ffeadb; stroke: #000000; stroke-width: 0.5"/>
    <path d="M 19.420037 8.004465 
L 19.423308 7.994691 
L 19.427556 7.985819 
L 19.429699 8.003112 
L 19.425864 8.015292 
L 19.421052 8.017397 
z
" clip-path="url(#p8746e7b13c)" style="fill: #ffeadb; stroke: #000000; stroke-width: 0.5"/>
    <path d="M 340.814642 7.52101 
L 340.827424 7.52101 
L 340.852386 7.526799 
L 340.887273 7.563415 
L 340.865468 7.56537 
z
" clip-path="url(#p8746e7b13c)" style="fill: #ffeadb; stroke: #000000; stroke-width: 0.5"/>
    <path d="M 339.687431 6.792142 
L 339.723671 6.842894 
L 339.731491 6.862217 
L 339.718859 6.88748 
L 339.718859 6.839736 
z
" clip-path="url(#p8746e7b13c)" style="fill: #ffeadb; stroke: #000000; stroke-width: 0.5"/>
    <path d="M 338.07308 4.709975 
L 338.098343 4.69678 
L 338.176839 4.742231 
L 338.180899 4.760426 
L 338.098118 4.708171 
z
" clip-path="url(#p8746e7b13c)" style="fill: #ffeadb; stroke: #000000; stroke-width: 0.5"/>
    <path d="M 33.426525 10.293623 
L 33.458067 10.300691 
L 33.476262 10.293924 
L 33.49457 10.30836 
L 33.451488 10.317834 
z
" clip-path="url(#p8746e7b13c)" style="fill: #ffeadb; stroke: #000000; stroke-width: 0.5"/>
    <path d="M 340.466674 6.330491 
L 340.479305 6.342596 
L 340.512087 6.380566 
L 340.529831 6.43831 
z
" clip-path="url(#p8746e7b13c)" style="fill: #ffeadb; stroke: #000000; stroke-width: 0.5"/>
    <path d="M 338.605182 5.659067 
L 338.658641 5.691172 
L 338.681648 5.707036 
L 338.657212 5.703352 
z
" clip-path="url(#p8746e7b13c)" style="fill: #ffeadb; stroke: #000000; stroke-width: 0.5"/>
    <path d="M 337.282259 3.607802 
L 337.295116 3.614042 
L 337.313837 3.696636 
L 337.301131 3.690358 
z
" clip-path="url(#p8746e7b13c)" style="fill: #ffeadb; stroke: #000000; stroke-width: 0.5"/>
    <path d="M 334.11664 5.906358 
L 334.137467 5.894704 
L 334.146865 5.911546 
L 334.131678 5.919366 
z
" clip-path="url(#p8746e7b13c)" style="fill: #ffeadb; stroke: #000000; stroke-width: 0.5"/>
    <path d="M 37.227403 15.663212 
L 37.238305 15.630806 
L 37.263042 15.69434 
L 37.244621 15.70028 
z
" clip-path="url(#p8746e7b13c)" style="fill: #ffeadb; stroke: #000000; stroke-width: 0.5"/>
    <path d="M 19.266317 9.217239 
L 19.290414 9.22175 
L 19.287971 9.239795 
L 19.266617 9.236788 
z
" clip-path="url(#p8746e7b13c)" style="fill: #ffeadb; stroke: #000000; stroke-width: 0.5"/>
    <path d="M 340.076301 7.411537 
L 340.094797 7.430634 
L 340.084195 7.426574 
z
" clip-path="url(#p8746e7b13c)" style="fill: #ffeadb; stroke: #000000; stroke-width: 0.5"/>
    <path d="M 337.224966 2.246984 
L 337.294364 2.208563 
L 337.301131 2.221194 
z
" clip-path="url(#p8746e7b13c)" style="fill: #ffeadb; stroke: #000000; stroke-width: 0.5"/>
    <path d="M 34.278136 8.850399 
L 34.344113 8.83649 
L 34.332046 8.894535 
z
" clip-path="url(#p8746e7b13c)" style="fill: #ffeadb; stroke: #000000; stroke-width: 0.5"/>
    <path d="M 29.290274 0.760489 
L 29.29877 0.747632 
L 29.319372 0.756693 
z
" clip-path="url(#p8746e7b13c)" style="fill: #ffeadb; stroke: #000000; stroke-width: 0.5"/>
   </g>
  </g>
 </g>
 <defs>
  <clipPath id="p8746e7b13c">
   <rect x="0" y="-0" width="357.12" height="16.447912"/>
  </clipPath>
 </defs>
</svg>
