<?xml version="1.0" encoding="utf-8" standalone="no"?>
<!DOCTYPE svg PUBLIC "-//W3C//DTD SVG 1.1//EN"
  "http://www.w3.org/Graphics/SVG/1.1/DTD/svg11.dtd">
<svg xmlns:xlink="http://www.w3.org/1999/xlink" width="308.488228pt" height="266.112pt" viewBox="0 0 308.488228 266.112" xmlns="http://www.w3.org/2000/svg" version="1.1">
 <metadata>
  <rdf:RDF xmlns:dc="http://purl.org/dc/elements/1.1/" xmlns:cc="http://creativecommons.org/ns#" xmlns:rdf="http://www.w3.org/1999/02/22-rdf-syntax-ns#">
   <cc:Work>
    <dc:type rdf:resource="http://purl.org/dc/dcmitype/StillImage"/>
    <dc:date>2025-06-04T13:25:01.637320</dc:date>
    <dc:format>image/svg+xml</dc:format>
    <dc:creator>
     <cc:Agent>
      <dc:title>Matplotlib v3.10.3, https://matplotlib.org/</dc:title>
     </cc:Agent>
    </dc:creator>
   </cc:Work>
  </rdf:RDF>
 </metadata>
 <defs>
  <style type="text/css">*{stroke-linejoin: round; stroke-linecap: butt}</style>
 </defs>
 <g id="figure_1">
  <g id="patch_1">
   <path d="M 0 266.112 
L 308.488228 266.112 
L 308.488228 0 
L 0 0 
L 0 266.112 
z
" style="fill: none"/>
  </g>
  <g id="axes_1">
   <g id="PatchCollection_1">
    <defs>
     <path id="m84ae387cb7" d="M 14.022192 -199.850079 
L 18.143977 -201.826015 
L 22.099503 -203.636604 
L 24.359542 -204.057735 
L 28.422862 -209.123183 
L 30.032478 -210.706306 
L 31.123216 -212.660317 
L 31.41006 -213.965731 
L 30.966091 -215.204461 
L 30.962437 -216.838741 
L 28.512387 -223.044258 
L 28.700571 -224.197114 
L 31.300438 -227.486685 
L 32.2103 -228.111531 
L 34.196285 -228.089606 
L 35.164612 -228.416644 
L 36.967893 -230.311279 
L 37.346089 -232.314619 
L 37.744382 -232.677285 
L 39.063499 -232.466263 
L 40.875915 -233.706818 
L 42.070795 -235.551206 
L 47.535375 -237.770233 
L 52.161495 -239.648783 
L 53.611953 -240.521567 
L 54.284507 -241.363455 
L 54.222388 -242.107513 
L 52.265636 -244.412315 
L 52.382566 -249.081752 
L 53.24119 -254.016 
L 54.475971 -253.604462 
L 54.700394 -253.1513 
L 55.550611 -252.734101 
L 58.338634 -252.239941 
L 56.528865 -253.216034 
L 59.285238 -252.276623 
L 63.416921 -250.066921 
L 64.153488 -249.421704 
L 67.361585 -248.038485 
L 72.122731 -247.499007 
L 76.562923 -247.353705 
L 81.491652 -248.645421 
L 82.579183 -249.269935 
L 84.212003 -249.374233 
L 85.885105 -249.119599 
L 89.769347 -247.326373 
L 93.581659 -247.270269 
L 96.539401 -246.538553 
L 100.620769 -245.765484 
L 105.289053 -242.422159 
L 108.510096 -241.897065 
L 109.837932 -241.20078 
L 110.706059 -241.083938 
L 113.451716 -240.982112 
L 117.051114 -240.431843 
L 118.486845 -240.025437 
L 119.790224 -238.947921 
L 121.571221 -235.946982 
L 121.302201 -233.815684 
L 121.571221 -231.88651 
L 124.116119 -226.565099 
L 126.032345 -224.247501 
L 128.483733 -222.318327 
L 133.488651 -220.328012 
L 135.128622 -220.075153 
L 139.040241 -219.472041 
L 145.570083 -219.413777 
L 149.350746 -218.69735 
L 153.21197 -217.557253 
L 156.845895 -216.988284 
L 158.629769 -215.987013 
L 165.379719 -214.107471 
L 166.760783 -212.896883 
L 171.154292 -211.675503 
L 173.786945 -209.391713 
L 178.10277 -206.619515 
L 179.6018 -205.244925 
L 181.853222 -204.424918 
L 185.167775 -202.689237 
L 188.314011 -202.45906 
L 191.717758 -203.061837 
L 195.111435 -204.793921 
L 196.629167 -205.228381 
L 198.971221 -206.811569 
L 201.895912 -209.852068 
L 203.095711 -211.543871 
L 204.055263 -212.25886 
L 206.003138 -216.262506 
L 205.914578 -219.414411 
L 205.23636 -220.914964 
L 203.803506 -222.471539 
L 202.612339 -225.347318 
L 201.947702 -228.878381 
L 202.491496 -231.826089 
L 202.351951 -232.387866 
L 204.675303 -236.253406 
L 209.163761 -240.379334 
L 210.225454 -240.818111 
L 213.593467 -243.082158 
L 217.491864 -244.501669 
L 221.988953 -246.786895 
L 227.399875 -246.929238 
L 229.12445 -247.499007 
L 232.105246 -249.694321 
L 233.751014 -249.935288 
L 235.868646 -249.160602 
L 238.521499 -249.27609 
L 240.466437 -249.452638 
L 240.828967 -249.825237 
L 241.410165 -249.892134 
L 242.421506 -248.834755 
L 244.769315 -248.729018 
L 247.849375 -247.117054 
L 248.998823 -247.004847 
L 253.129067 -245.942432 
L 255.192031 -245.097252 
L 256.035056 -245.097252 
L 258.319566 -244.445562 
L 258.581392 -244.010381 
L 258.112406 -243.341427 
L 258.279284 -242.262472 
L 259.076273 -241.586327 
L 258.713744 -240.126141 
L 258.364162 -240.246983 
L 258.112406 -240.85048 
L 257.867843 -239.03999 
L 259.891964 -238.290476 
L 260.886806 -236.965952 
L 261.48882 -236.736778 
L 261.962122 -236.011719 
L 261.730506 -237.097868 
L 262.84255 -236.972711 
L 263.60789 -236.505163 
L 268.281928 -236.374248 
L 271.298689 -235.770753 
L 274.098221 -234.794659 
L 273.603339 -234.312004 
L 275.723848 -233.236645 
L 283.7743 -232.983451 
L 285.969616 -233.70779 
L 287.09173 -233.720737 
L 288.117458 -233.271892 
L 291.47517 -232.567692 
L 292.11535 -232.233934 
L 292.388686 -231.655613 
L 292.321071 -230.251532 
L 293.864698 -228.502905 
L 294.466036 -227.062138 
L 292.866628 -225.698934 
L 292.218031 -224.197114 
L 289.345936 -222.180984 
L 289.128519 -221.620085 
L 289.314877 -218.037274 
L 289.724132 -216.148122 
L 291.708289 -211.65819 
L 290.166274 -206.59457 
L 287.774688 -203.631123 
L 286.294792 -201.010245 
L 286.448263 -199.946912 
L 288.468961 -195.850705 
L 288.231446 -194.180799 
L 288.350204 -193.444961 
L 289.512196 -191.386352 
L 289.391612 -188.992026 
L 291.34471 -184.325784 
L 291.467121 -164.133713 
L 291.467121 -156.528844 
L 291.467121 -145.617094 
L 291.467121 -102.704478 
L 291.467121 -56.276387 
L 291.454332 -21.151663 
L 291.233261 -20.914173 
L 273.790582 -20.922394 
L 273.790582 -12.096 
L 219.202506 -39.051125 
L 189.018117 -53.957544 
L 184.267818 -56.30288 
L 132.436734 -81.897779 
L 114.667328 -73.959531 
L 101.167073 -67.253199 
L 90.266084 -76.140342 
L 88.192402 -77.21235 
L 61.439166 -83.181726 
L 56.865608 -91.716232 
L 54.337491 -96.430908 
L 53.882559 -96.973077 
L 52.571713 -97.482695 
L 38.992245 -101.544769 
L 33.89117 -100.080406 
L 31.236492 -101.907435 
L 30.052575 -104.970911 
L 27.421648 -106.379556 
L 27.200577 -106.851842 
L 26.774879 -115.250254 
L 16.048371 -129.073582 
L 15.635462 -130.055612 
L 16.642157 -131.877163 
L 17.400375 -132.647257 
L 17.488073 -133.301336 
L 23.731043 -135.982505 
L 24.801684 -138.608864 
L 24.558688 -139.474877 
L 24.984387 -142.227301 
L 23.550166 -143.342704 
L 21.708518 -149.90632 
L 22.326055 -152.224823 
L 23.480739 -153.685993 
L 22.991095 -154.818294 
L 24.21886 -155.693447 
L 25.419481 -159.218299 
L 25.501437 -160.068274 
L 22.691461 -167.154419 
L 23.581046 -173.360476 
L 24.005098 -176.318812 
L 23.561129 -182.374058 
L 20.760288 -190.855599 
L 18.673817 -194.28494 
L 15.4884 -198.182441 
z
" style="stroke: #000000; stroke-width: 0.5"/>
    </defs>
    <g clip-path="url(#p9270ce0f42)">
     <use xlink:href="#m84ae387cb7" x="0" y="266.112" style="fill: #ffeadb; stroke: #000000; stroke-width: 0.5"/>
    </g>
   </g>
  </g>
 </g>
 <defs>
  <clipPath id="p9270ce0f42">
   <rect x="0" y="-0" width="308.488228" height="266.112"/>
  </clipPath>
 </defs>
</svg>
