<?xml version="1.0" encoding="utf-8" standalone="no"?>
<!DOCTYPE svg PUBLIC "-//W3C//DTD SVG 1.1//EN"
  "http://www.w3.org/Graphics/SVG/1.1/DTD/svg11.dtd">
<svg xmlns:xlink="http://www.w3.org/1999/xlink" width="295.576114pt" height="266.112pt" viewBox="0 0 295.576114 266.112" xmlns="http://www.w3.org/2000/svg" version="1.1">
 <metadata>
  <rdf:RDF xmlns:dc="http://purl.org/dc/elements/1.1/" xmlns:cc="http://creativecommons.org/ns#" xmlns:rdf="http://www.w3.org/1999/02/22-rdf-syntax-ns#">
   <cc:Work>
    <dc:type rdf:resource="http://purl.org/dc/dcmitype/StillImage"/>
    <dc:date>2025-06-04T13:25:10.999427</dc:date>
    <dc:format>image/svg+xml</dc:format>
    <dc:creator>
     <cc:Agent>
      <dc:title>Matplotlib v3.10.3, https://matplotlib.org/</dc:title>
     </cc:Agent>
    </dc:creator>
   </cc:Work>
  </rdf:RDF>
 </metadata>
 <defs>
  <style type="text/css">*{stroke-linejoin: round; stroke-linecap: butt}</style>
 </defs>
 <g id="figure_1">
  <g id="patch_1">
   <path d="M 0 266.112 
L 295.576114 266.112 
L 295.576114 0 
L 0 0 
L 0 266.112 
z
" style="fill: none"/>
  </g>
  <g id="axes_1">
   <g id="PatchCollection_1">
    <defs>
     <path id="mcbb55f6f16" d="M 13.435278 -87.577023 
L 14.076135 -87.389773 
L 15.475249 -87.733136 
L 16.590332 -86.916811 
L 16.927802 -87.451209 
L 17.875412 -87.464674 
L 18.779261 -88.369785 
L 19.73192 -88.661388 
L 20.661858 -89.613209 
L 20.490177 -90.04409 
L 20.769579 -91.707038 
L 20.459039 -92.040301 
L 20.002065 -92.040301 
L 20.250329 -94.158538 
L 21.520261 -98.36219 
L 22.143024 -99.320741 
L 22.181737 -100.055433 
L 22.594039 -99.994419 
L 23.53246 -99.815586 
L 24.00879 -100.055433 
L 24.589475 -100.654633 
L 25.628816 -101.17767 
L 25.434413 -101.706598 
L 26.940827 -101.394375 
L 29.165944 -98.587732 
L 33.814788 -95.144019 
L 35.403676 -92.91806 
L 36.836032 -95.927522 
L 38.145518 -96.797708 
L 38.315516 -98.124867 
L 38.758183 -98.307909 
L 40.784744 -98.214462 
L 41.595122 -98.435407 
L 45.053142 -98.360507 
L 46.672327 -97.789501 
L 47.239546 -97.833262 
L 48.543983 -97.200821 
L 49.2063 -97.182306 
L 51.098996 -97.450347 
L 52.984959 -97.285819 
L 55.647272 -98.255732 
L 59.689764 -98.416472 
L 59.236998 -100.823368 
L 60.788016 -102.607081 
L 61.179347 -102.439607 
L 61.229841 -101.913203 
L 60.905836 -99.314008 
L 64.290583 -99.312982 
L 66.540626 -99.312084 
L 110.235545 -99.296073 
L 123.40098 -99.277821 
L 123.449261 -99.497307 
L 125.98124 -112.608324 
L 125.791887 -112.98198 
L 121.867636 -115.603477 
L 121.583185 -116.12357 
L 109.39702 -223.544633 
L 107.203313 -242.305194 
L 105.790242 -254.000852 
L 134.639755 -254.016 
L 213.222541 -202.779387 
L 231.833338 -190.611116 
L 232.38036 -188.878319 
L 231.813141 -185.630693 
L 231.964624 -184.700756 
L 234.278947 -184.614074 
L 235.374674 -183.380329 
L 238.562549 -182.399898 
L 239.934311 -181.181301 
L 240.181734 -179.143013 
L 242.119033 -177.624818 
L 243.371292 -177.47081 
L 243.963759 -176.444092 
L 245.003942 -176.820695 
L 246.89243 -176.142388 
L 248.360131 -177.146805 
L 249.003092 -177.129973 
L 250.886531 -175.603361 
L 252.253244 -173.590321 
L 254.116485 -172.928845 
L 261.138562 -171.719084 
L 265.255533 -169.746441 
L 265.5484 -169.315557 
L 265.265632 -165.402245 
L 266.265419 -162.707954 
L 266.105521 -162.335558 
L 265.159594 -161.68965 
L 264.858311 -160.481993 
L 264.286042 -159.998091 
L 263.690209 -158.884688 
L 264.277626 -157.948019 
L 267.441937 -155.985893 
L 274.88818 -157.37356 
L 282.026382 -158.700386 
L 282.053436 -150.608655 
L 282.088243 -139.695151 
L 282.140836 -123.745688 
L 281.620744 -123.532769 
L 281.524805 -123.246637 
L 281.593814 -121.352258 
L 281.267284 -120.712661 
L 281.299264 -114.303249 
L 281.167978 -113.922016 
L 279.84671 -113.07792 
L 279.289589 -112.386147 
L 277.83367 -108.929811 
L 278.030597 -107.266865 
L 276.835565 -105.976735 
L 276.248964 -102.982092 
L 275.182717 -102.081518 
L 273.290863 -101.52566 
L 272.018406 -100.162313 
L 270.592783 -99.319058 
L 270.276352 -97.006839 
L 262.564185 -98.187143 
L 262.185478 -98.044076 
L 262.02053 -96.764887 
L 234.846166 -95.861038 
L 233.858161 -95.474756 
L 228.621899 -90.909229 
L 225.688179 -90.738389 
L 224.074043 -90.260798 
L 221.545961 -91.137293 
L 218.913523 -90.646658 
L 216.76499 -91.176008 
L 216.719545 -89.792464 
L 209.306978 -92.310866 
L 206.228507 -91.284569 
L 205.692426 -92.471186 
L 205.013425 -92.540525 
L 201.440803 -92.519997 
L 200.601241 -92.1643 
L 196.173785 -88.279291 
L 194.975846 -87.66665 
L 191.17194 -86.600377 
L 185.526675 -83.036323 
L 183.246014 -82.767015 
L 181.127777 -82.834763 
L 180.638824 -82.622268 
L 180.209622 -78.191812 
L 179.206505 -77.557082 
L 178.117474 -77.499618 
L 174.311043 -79.267761 
L 173.072249 -79.531594 
L 172.185232 -79.319099 
L 170.862281 -78.57725 
L 169.57764 -77.264936 
L 166.897214 -75.656996 
L 166.46675 -74.965645 
L 166.660732 -74.894531 
L 166.024083 -72.783869 
L 165.477061 -71.693611 
L 166.011459 -69.283769 
L 165.437753 -69.070012 
L 164.756254 -68.841102 
L 163.994211 -69.053602 
L 163.206079 -68.552866 
L 162.966651 -69.195404 
L 162.268146 -69.701189 
L 161.116455 -69.662479 
L 159.956348 -70.348781 
L 159.632343 -70.034873 
L 160.075851 -69.392335 
L 159.681154 -67.501323 
L 160.256368 -63.439473 
L 157.000747 -62.999752 
L 157.148443 -61.681848 
L 156.985598 -61.42054 
L 156.587471 -61.400862 
L 155.429111 -61.513113 
L 154.585014 -61.918752 
L 151.299516 -64.324805 
L 149.769118 -64.842371 
L 148.482354 -64.969872 
L 148.279956 -65.128088 
L 149.345807 -65.84216 
L 148.735667 -66.189729 
L 148.582436 -66.638511 
L 148.325401 -66.797344 
L 148.053152 -66.496905 
L 148.482354 -66.324804 
L 148.396093 -66.172899 
L 146.322038 -64.903807 
L 145.316359 -63.201307 
L 144.673398 -63.11715 
L 144.131426 -62.690473 
L 143.816678 -62.158601 
L 144.274072 -61.816922 
L 144.196227 -61.531206 
L 142.694021 -61.416333 
L 142.30269 -60.598323 
L 144.415877 -57.388988 
L 144.546742 -55.531218 
L 144.022452 -54.25702 
L 143.179608 -53.983569 
L 142.013189 -54.420765 
L 140.457605 -54.066714 
L 140.117548 -54.024804 
L 140.018663 -53.179866 
L 141.139637 -52.11191 
L 141.713589 -51.081827 
L 140.66499 -49.475267 
L 141.405995 -47.393218 
L 140.922512 -47.299802 
L 140.48826 -47.730688 
L 140.069999 -47.60866 
L 139.982475 -46.829364 
L 138.484477 -45.598143 
L 138.89264 -44.820532 
L 137.660578 -44.30044 
L 137.389975 -43.552463 
L 136.38223 -43.346938 
L 136.094567 -42.992836 
L 135.62229 -42.493583 
L 134.880865 -42.325269 
L 134.222335 -42.598781 
L 133.526776 -42.3522 
L 132.487855 -42.469179 
L 131.658065 -42.071115 
L 130.279991 -42.048394 
L 129.001643 -41.468551 
L 127.253697 -39.738278 
L 126.742863 -39.87882 
L 125.711096 -39.457192 
L 125.019323 -39.593526 
L 125.698472 -38.983386 
L 126.290939 -38.979178 
L 127.058453 -38.45993 
L 127.163649 -37.492121 
L 126.72519 -36.159071 
L 127.925272 -35.480765 
L 128.179427 -32.976246 
L 127.443893 -32.454892 
L 127.453992 -30.197795 
L 126.739497 -29.347807 
L 126.319552 -28.080399 
L 125.381199 -27.642782 
L 123.758648 -27.437859 
L 123.500705 -26.882029 
L 123.562562 -25.615435 
L 123.932012 -25.702117 
L 124.708783 -23.571256 
L 123.874785 -20.958175 
L 123.98419 -20.406945 
L 124.234137 -20.312269 
L 123.959784 -19.904948 
L 124.111267 -19.388222 
L 123.22425 -16.744424 
L 122.060356 -17.207709 
L 118.604019 -16.548758 
L 117.186812 -15.759784 
L 116.931816 -15.190461 
L 117.000824 -14.298394 
L 116.810629 -14.157431 
L 116.051531 -14.419581 
L 115.189761 -12.907276 
L 113.733841 -12.897598 
L 112.503463 -13.330166 
L 111.788127 -13.968498 
L 111.540705 -13.918004 
L 111.529764 -14.742744 
L 111.7309 -14.962815 
L 112.091934 -14.876975 
L 112.056588 -15.221599 
L 112.45381 -15.659216 
L 112.212279 -15.85404 
L 112.508513 -16.658583 
L 112.18619 -17.123552 
L 112.350297 -17.813641 
L 111.193977 -18.187299 
L 111.681247 -18.938823 
L 111.562585 -19.553591 
L 112.119706 -20.068634 
L 111.432983 -20.524766 
L 111.280659 -21.64616 
L 109.884491 -21.075575 
L 108.495055 -20.988471 
L 108.351146 -20.053906 
L 108.947821 -19.463964 
L 108.889752 -19.083573 
L 108.186198 -18.8088 
L 106.694932 -19.092831 
L 105.701036 -19.666362 
L 105.124559 -20.449865 
L 104.551448 -20.46838 
L 104.229126 -19.714331 
L 104.089425 -17.767354 
L 104.325065 -17.171101 
L 104.899859 -16.861823 
L 104.566183 -15.773018 
L 104.04398 -15.379393 
L 102.712613 -15.890228 
L 101.398919 -15.41474 
L 99.794883 -15.431571 
L 99.210832 -13.931469 
L 99.788992 -13.251899 
L 99.825179 -12.836163 
L 99.287415 -12.243275 
L 98.503911 -12.096 
L 97.431748 -13.190464 
L 95.829395 -13.633973 
L 93.245769 -13.922211 
L 93.100177 -15.429888 
L 91.926184 -15.257787 
L 91.571882 -16.809645 
L 91.186442 -17.243055 
L 90.763131 -17.270827 
L 90.102918 -16.610614 
L 89.265974 -16.634178 
L 88.681081 -16.988479 
L 87.177192 -15.975647 
L 87.373278 -15.736641 
L 87.188553 -15.467759 
L 86.500568 -15.187095 
L 86.715169 -14.911059 
L 86.489628 -14.348047 
L 85.50583 -13.132817 
L 84.03392 -12.436416 
L 83.046756 -12.453247 
L 83.48774 -13.613775 
L 82.939035 -15.161006 
L 80.997528 -15.681939 
L 80.672681 -16.7743 
L 79.799971 -16.551283 
L 79.151119 -16.71076 
L 78.065491 -18.56769 
L 77.811336 -21.789648 
L 77.738961 -22.079569 
L 77.309759 -22.244939 
L 77.933364 -24.063155 
L 77.9098 -25.7463 
L 77.559706 -26.488987 
L 76.863726 -26.983831 
L 76.193835 -26.783116 
L 74.641976 -26.960268 
L 73.765899 -25.638158 
L 71.789046 -25.32383 
L 71.539941 -25.493829 
L 71.529 -26.036221 
L 72.558664 -27.261551 
L 72.70636 -28.087974 
L 73.462933 -28.414084 
L 73.892135 -29.532533 
L 74.755588 -29.903245 
L 74.856576 -30.624473 
L 76.255269 -30.583657 
L 76.743381 -30.899245 
L 76.835954 -31.320872 
L 76.071807 -31.401663 
L 75.93968 -31.645298 
L 76.766104 -32.087966 
L 75.912749 -32.616053 
L 74.286832 -32.995601 
L 74.093649 -33.531807 
L 73.928322 -34.082493 
L 73.510903 -33.759329 
L 72.182902 -34.185164 
L 71.04678 -36.677481 
L 70.221197 -36.456987 
L 69.080867 -36.815498 
L 69.88541 -41.166424 
L 69.527742 -42.592049 
L 67.861429 -43.124764 
L 68.123158 -44.791918 
L 67.78148 -45.437405 
L 67.019015 -45.440771 
L 66.686174 -46.047543 
L 67.167132 -48.025238 
L 66.693327 -48.696812 
L 66.140821 -48.977531 
L 64.193858 -49.966746 
L 62.263291 -50.450648 
L 61.803793 -50.264662 
L 61.262662 -50.488519 
L 60.108867 -50.092982 
L 59.96075 -49.635166 
L 60.939499 -48.842406 
L 61.069521 -48.421617 
L 61.558054 -48.212066 
L 61.107813 -46.780553 
L 60.727422 -46.402687 
L 59.445708 -46.534814 
L 58.195973 -45.758042 
L 56.363029 -45.157161 
L 55.59804 -44.568061 
L 55.416261 -43.495898 
L 54.818745 -42.799917 
L 53.912371 -42.820114 
L 53.016097 -43.283822 
L 52.118981 -43.372187 
L 49.327487 -44.788552 
L 46.271738 -45.660421 
L 45.960357 -45.933089 
L 45.242496 -45.497155 
L 45.037994 -45.675568 
L 44.552407 -45.097408 
L 44.096274 -45.319584 
L 43.049359 -44.351775 
L 41.975513 -44.308855 
L 41.919127 -43.247634 
L 41.081763 -42.666949 
L 41.196217 -42.307597 
L 40.311725 -41.85988 
L 39.639309 -40.74059 
L 38.722837 -40.60089 
L 37.152463 -42.757839 
L 37.198749 -43.948664 
L 36.145101 -44.640434 
L 35.4912 -45.645273 
L 34.801952 -45.96002 
L 33.170144 -45.683983 
L 32.836881 -44.820532 
L 31.426406 -43.648221 
L 31.01548 -42.729161 
L 29.54381 -42.325269 
L 28.300808 -43.043973 
L 27.352356 -44.143065 
L 26.355093 -44.578159 
L 25.752527 -45.506412 
L 26.78177 -47.100351 
L 26.73885 -48.485578 
L 27.693193 -48.64716 
L 27.696559 -48.96359 
L 27.869923 -50.206592 
L 27.663737 -50.488519 
L 27.499631 -50.195652 
L 27.231169 -51.006085 
L 27.02246 -50.664407 
L 26.403904 -51.237519 
L 26.89959 -51.681026 
L 26.908006 -52.767495 
L 26.499843 -53.34818 
L 26.89959 -53.985252 
L 27.472701 -54.302526 
L 27.370029 -55.487459 
L 26.978698 -55.992823 
L 27.261466 -56.988403 
L 27.064538 -57.34607 
L 27.460919 -57.30988 
L 27.76136 -57.582132 
L 27.614926 -58.358902 
L 27.478592 -58.500288 
L 27.320376 -58.03153 
L 26.877709 -58.002077 
L 27.133547 -58.82471 
L 26.547813 -59.561928 
L 26.689197 -59.89435 
L 25.340998 -60.492286 
L 25.251792 -61.325443 
L 24.701404 -62.206988 
L 24.995954 -62.85458 
L 24.156065 -63.87709 
L 24.037403 -64.547402 
L 23.534985 -64.462404 
L 23.439887 -64.926949 
L 22.557078 -64.865939 
L 21.951146 -65.312812 
L 21.537934 -64.911381 
L 21.399075 -64.262953 
L 20.626512 -63.666278 
L 19.365837 -64.895392 
L 19.521527 -66.246537 
L 17.489972 -67.863618 
L 16.146823 -70.143014 
L 17.536259 -70.904637 
L 18.340802 -72.17962 
L 18.340802 -73.477325 
L 17.324183 -74.716539 
L 17.776107 -77.662884 
L 17.015326 -79.271127 
L 15.789155 -80.014654 
L 15.853956 -80.740093 
L 14.125788 -81.328349 
L 13.886361 -83.416292 
L 15.049413 -85.409975 
L 14.645459 -85.639305 
L 14.800308 -86.239764 
L 14.108115 -86.410183 
z
" style="stroke: #000000; stroke-width: 0.5"/>
    </defs>
    <g clip-path="url(#pe2abb49564)">
     <use xlink:href="#mcbb55f6f16" x="0" y="266.112" style="fill: #ffeadb; stroke: #000000; stroke-width: 0.5"/>
    </g>
   </g>
  </g>
 </g>
 <defs>
  <clipPath id="pe2abb49564">
   <rect x="0" y="-0" width="295.576114" height="266.112"/>
  </clipPath>
 </defs>
</svg>
