<?xml version="1.0" encoding="utf-8" standalone="no"?>
<!DOCTYPE svg PUBLIC "-//W3C//DTD SVG 1.1//EN"
  "http://www.w3.org/Graphics/SVG/1.1/DTD/svg11.dtd">
<svg xmlns:xlink="http://www.w3.org/1999/xlink" width="357.12pt" height="118.314655pt" viewBox="0 0 357.12 118.314655" xmlns="http://www.w3.org/2000/svg" version="1.1">
 <metadata>
  <rdf:RDF xmlns:dc="http://purl.org/dc/elements/1.1/" xmlns:cc="http://creativecommons.org/ns#" xmlns:rdf="http://www.w3.org/1999/02/22-rdf-syntax-ns#">
   <cc:Work>
    <dc:type rdf:resource="http://purl.org/dc/dcmitype/StillImage"/>
    <dc:date>2025-06-04T13:25:02.599257</dc:date>
    <dc:format>image/svg+xml</dc:format>
    <dc:creator>
     <cc:Agent>
      <dc:title>Matplotlib v3.10.3, https://matplotlib.org/</dc:title>
     </cc:Agent>
    </dc:creator>
   </cc:Work>
  </rdf:RDF>
 </metadata>
 <defs>
  <style type="text/css">*{stroke-linejoin: round; stroke-linecap: butt}</style>
 </defs>
 <g id="figure_1">
  <g id="patch_1">
   <path d="M 0 118.314655 
L 357.12 118.314655 
L 357.12 -0 
L 0 -0 
L 0 118.314655 
z
" style="fill: none"/>
  </g>
  <g id="axes_1">
   <g id="PatchCollection_1">
    <path d="M 179.664261 95.761821 
L 180.852067 94.221518 
L 181.596341 92.5662 
L 181.899129 94.22279 
L 181.751099 94.984472 
L 182.386282 96.040868 
L 185.589111 97.908061 
L 186.267357 99.031071 
L 190.234558 98.872946 
L 190.962596 99.200632 
L 191.665065 98.800951 
L 192.270642 99.33386 
L 192.553244 98.749814 
L 192.440203 97.73379 
L 192.908516 97.207611 
L 193.134598 97.291047 
L 193.522167 98.640809 
L 193.913774 98.919374 
L 194.426495 98.974551 
L 194.797916 98.594382 
L 195.862385 98.227 
L 196.073664 98.523732 
L 195.161262 100.217328 
L 195.835471 100.011432 
L 196.330698 100.608934 
L 197.202729 100.453504 
L 199.479698 101.426463 
L 199.590047 102.232553 
L 198.672262 103.060175 
L 199.452783 102.98616 
L 200.08662 102.546781 
L 200.139104 101.356484 
L 200.580502 101.013324 
L 202.755196 101.694935 
L 204.725339 103.418811 
L 206.345593 104.335252 
L 206.95117 104.347361 
L 207.846078 103.953736 
L 209.630511 104.967069 
L 210.341055 104.630638 
L 209.381552 104.404554 
L 209.037046 103.738421 
L 208.314391 103.535217 
L 207.280873 103.840696 
L 206.610701 103.762644 
L 204.798008 102.598591 
L 204.111688 101.299964 
L 204.624409 99.284739 
L 205.941875 99.087591 
L 206.965973 100.110344 
L 207.555401 99.898391 
L 208.06274 100.204543 
L 208.420703 100.104961 
L 206.856969 99.575416 
L 206.614739 99.031071 
L 206.084522 98.794222 
L 205.586604 97.671887 
L 206.151809 97.383901 
L 205.869206 96.662593 
L 206.897341 94.716673 
L 207.403334 92.801703 
L 208.427432 92.825927 
L 207.998145 92.463925 
L 208.197313 91.857004 
L 209.561879 92.088468 
L 210.2482 91.266903 
L 209.898311 91.194234 
L 209.440764 91.81394 
L 208.471841 91.399457 
L 207.053445 91.543448 
L 207.054791 90.721882 
L 207.636145 90.29798 
L 207.968539 90.364593 
L 207.054791 89.74825 
L 207.652294 87.062181 
L 208.07216 86.731133 
L 210.042304 88.307649 
L 211.410907 87.784836 
L 212.157785 88.218832 
L 211.012572 86.877816 
L 210.688252 85.939844 
L 212.056856 86.105368 
L 212.618024 85.82815 
L 211.632952 85.542183 
L 210.991041 85.019369 
L 211.279026 82.695972 
L 212.759325 81.363705 
L 215.071283 80.001152 
L 218.229702 79.380776 
L 220.758322 79.29263 
L 232.561688 76.313191 
L 237.200406 74.732636 
L 238.431746 73.160153 
L 238.217775 72.792769 
L 239.751903 71.56143 
L 240.370937 70.535317 
L 241.661489 69.399521 
L 242.166136 68.157416 
L 243.54416 66.685192 
L 244.252012 64.951897 
L 249.255422 60.848779 
L 252.727396 56.341942 
L 253.478312 53.642411 
L 253.101508 51.303539 
L 253.587316 50.929428 
L 255.574422 51.582727 
L 257.064733 52.46717 
L 257.191204 52.805994 
L 257.668036 52.908964 
L 258.401228 54.895336 
L 258.281592 56.489475 
L 260.551241 56.568514 
L 261.265633 58.155817 
L 263.022559 59.805074 
L 263.307975 60.515619 
L 263.988185 60.594237 
L 264.767522 60.141334 
L 266.288597 58.690333 
L 267.120915 56.57621 
L 267.064516 56.287801 
L 266.548376 56.497592 
L 266.739836 55.905235 
L 267.438802 54.962846 
L 267.628509 53.863058 
L 266.936335 53.704541 
L 266.640666 53.243515 
L 266.404814 50.339376 
L 265.896961 48.788915 
L 267.758399 47.530943 
L 269.289728 47.327988 
L 269.464053 46.544806 
L 269.840998 46.168251 
L 270.404857 45.716084 
L 270.636034 47.299715 
L 270.586914 49.955686 
L 271.793519 54.400559 
L 275.869657 55.681508 
L 276.067909 55.077779 
L 274.866431 53.670783 
L 274.649379 53.020912 
L 274.652797 50.34023 
L 273.572663 47.217754 
L 272.571147 46.225209 
L 272.560711 45.846622 
L 273.276637 45.698592 
L 273.626526 45.000159 
L 274.089456 45.370236 
L 274.861903 45.471164 
L 275.170074 45.885645 
L 276.070365 45.941494 
L 277.114677 44.956724 
L 278.076843 43.903392 
L 279.353937 43.222454 
L 279.62712 41.528185 
L 280.151953 40.826389 
L 280.042949 40.605017 
L 278.804881 40.880891 
L 276.768797 39.373004 
L 276.753994 38.972651 
L 276.183406 39.24987 
L 276.63557 37.499753 
L 279.240896 35.401093 
L 280.145224 33.819864 
L 280.376689 34.19936 
L 279.806101 35.263829 
L 280.145224 35.739543 
L 280.382072 34.940182 
L 281.290437 35.580075 
L 282.75055 35.683023 
L 283.665644 35.514134 
L 284.17702 35.073409 
L 284.930627 33.69673 
L 285.533512 31.716494 
L 287.519804 30.405758 
L 287.778184 28.944299 
L 289.025672 26.589277 
L 288.767293 26.102125 
L 288.395872 26.231314 
L 288.432207 25.706481 
L 289.227531 25.361975 
L 290.361978 23.874947 
L 290.850477 23.730954 
L 291.500463 23.95098 
L 291.520649 23.237074 
L 290.584023 23.289558 
L 291.363199 22.714931 
L 291.971467 22.615348 
L 292.429014 21.520598 
L 295.000697 19.608994 
L 295.290028 18.392457 
L 297.246714 16.233914 
L 297.745979 13.304941 
L 298.214291 13.084913 
L 298.568217 11.667863 
L 299.023073 11.088529 
L 299.534449 10.81871 
L 300.438777 11.702179 
L 300.765788 13.07684 
L 300.200583 12.913333 
L 300.087543 13.529002 
L 300.775209 13.931376 
L 300.812889 14.923848 
L 299.553289 17.436993 
L 299.643453 18.01431 
L 300.313624 18.177815 
L 302.783032 16.088575 
L 302.953939 15.313437 
L 304.08435 14.059891 
L 303.700818 12.749828 
L 303.85423 12.21019 
L 304.593034 12.113298 
L 304.512291 11.383242 
L 305.198611 11.496285 
L 305.700567 11.209645 
L 307.458085 12.286898 
L 307.024762 14.278573 
L 307.713773 15.333622 
L 308.109417 17.275505 
L 309.247901 17.45987 
L 310.798178 18.74302 
L 312.041629 17.527829 
L 312.445347 18.866153 
L 313.192225 19.286021 
L 313.813951 19.170288 
L 314.714242 20.333668 
L 314.968584 20.128444 
L 315.239075 20.337033 
L 315.516295 21.350364 
L 315.263298 21.805221 
L 315.43286 22.246618 
L 315.171789 23.586962 
L 314.068293 23.617914 
L 313.143779 24.526279 
L 314.149037 26.050986 
L 314.149037 26.676749 
L 313.688798 27.138333 
L 314.267461 27.575694 
L 314.278226 28.249904 
L 313.462716 28.83193 
L 311.366075 29.539109 
L 310.96774 29.971088 
L 312.631057 29.403191 
L 316.019596 29.318411 
L 315.976533 28.71889 
L 317.834981 28.547309 
L 319.316626 27.007798 
L 320.031206 26.789118 
L 320.595066 27.364415 
L 321.02839 28.928822 
L 321.822368 30.047794 
L 321.339252 30.705182 
L 320.725601 30.95616 
L 318.448632 30.955486 
L 318.238699 31.358532 
L 319.095927 32.970712 
L 320.656969 32.455298 
L 321.05665 32.68138 
L 321.515542 32.550172 
L 321.969052 32.929667 
L 322.258383 32.673306 
L 322.411796 31.213865 
L 322.667484 31.019409 
L 324.088571 30.643951 
L 325.385851 31.199735 
L 325.792261 30.876761 
L 329.575097 33.054819 
L 329.046227 34.940855 
L 329.102747 35.636595 
L 329.684101 34.721502 
L 329.724473 34.102467 
L 330.518451 33.809772 
L 331.93281 35.274595 
L 332.982476 35.699844 
L 333.301413 36.427882 
L 333.51673 35.975718 
L 334.945891 36.810069 
L 335.225802 37.157266 
L 335.287706 37.507155 
L 334.994337 37.669315 
L 335.174664 37.816672 
L 335.898665 37.792449 
L 335.807156 37.251467 
L 336.022472 37.115548 
L 337.705976 37.556274 
L 339.419085 36.880046 
L 340.887273 38.634873 
L 340.7056 41.008735 
L 338.867338 42.577852 
L 331.021753 45.254502 
L 329.215788 44.803011 
L 328.010018 45.467125 
L 326.836544 44.023162 
L 325.659034 43.692113 
L 324.575724 44.318549 
L 324.568996 44.70006 
L 323.931121 44.54665 
L 323.340347 44.89923 
L 322.009424 46.279945 
L 321.983855 46.655403 
L 322.695744 47.132464 
L 323.37399 48.363804 
L 324.342914 49.375113 
L 325.267427 50.095753 
L 326.045257 50.243107 
L 326.55125 50.923372 
L 326.836544 51.042469 
L 327.104344 50.70133 
L 327.635906 50.929428 
L 327.847185 51.360059 
L 327.51479 51.987168 
L 327.964263 52.464905 
L 328.879357 52.059839 
L 329.667953 52.284573 
L 329.575097 52.51066 
L 330.430979 53.647797 
L 330.108005 53.935783 
L 329.544146 53.77362 
L 329.554911 54.299129 
L 328.961446 54.858951 
L 326.233659 55.142223 
L 325.594439 54.891918 
L 325.251279 55.264012 
L 322.411796 55.806343 
L 319.466001 57.047772 
L 317.970899 56.620504 
L 316.817612 55.806343 
L 316.58211 55.354176 
L 314.916101 54.752637 
L 314.314561 53.82543 
L 314.064256 53.855039 
L 313.233943 54.552797 
L 313.613437 54.887884 
L 314.02523 56.369529 
L 313.120902 57.448128 
L 313.586523 57.951431 
L 312.594723 58.229993 
L 310.433937 57.800758 
L 309.112824 56.578773 
L 307.772911 55.893008 
L 306.807286 55.02565 
L 305.939077 55.361056 
L 302.895219 55.420448 
L 301.281854 55.166651 
L 299.982959 55.411903 
L 298.448212 54.804756 
L 297.925236 55.249114 
L 296.858775 55.180322 
L 296.440052 55.394386 
L 295.315483 54.308697 
L 294.724144 55.101705 
L 294.850615 55.498211 
L 294.061024 55.623826 
L 293.481648 56.096813 
L 293.14667 55.997261 
L 292.603185 54.992326 
L 291.817012 54.530446 
L 290.463426 54.981217 
L 288.759481 54.604364 
L 288.497993 55.163233 
L 287.021354 56.391199 
L 286.573577 56.092541 
L 286.303544 55.435829 
L 284.676507 55.047018 
L 284.445782 54.543696 
L 284.102259 54.433884 
L 283.722844 55.17605 
L 283.661318 56.218155 
L 282.888817 57.139346 
L 282.258169 56.911615 
L 280.990038 57.916118 
L 280.712518 58.456611 
L 280.222664 60.921097 
L 279.75096 61.747862 
L 279.053659 62.182821 
L 279.045113 62.559669 
L 279.877432 63.224926 
L 279.145949 67.002405 
L 280.085938 70.291942 
L 279.817614 70.513691 
L 279.357873 70.370987 
L 278.703299 71.500255 
L 278.127341 73.992085 
L 278.693044 74.8056 
L 278.117087 75.571264 
L 277.817999 76.896651 
L 275.269772 77.639244 
L 274.146912 76.718054 
L 273.582918 77.725552 
L 272.174642 78.845848 
L 271.250034 80.247289 
L 271.873845 81.350495 
L 271.085963 82.181105 
L 271.33207 82.833112 
L 271.077418 83.878213 
L 271.325233 84.109794 
L 272.044753 83.890176 
L 272.656601 84.069628 
L 273.552155 85.51123 
L 273.329975 85.830828 
L 271.880682 86.24186 
L 269.696487 88.031258 
L 268.857333 88.090222 
L 268.710352 89.245554 
L 266.48514 89.854837 
L 266.059581 91.713456 
L 266.515903 93.346473 
L 267.515711 93.310584 
L 267.365312 95.554596 
L 266.225361 96.113889 
L 265.169154 96.289923 
L 264.755559 96.72232 
L 264.670105 99.002649 
L 263.933495 100.577131 
L 262.920015 101.608985 
L 262.894379 103.037342 
L 262.243222 103.377875 
L 259.806085 102.096069 
L 257.037049 103.212177 
L 256.475103 103.525281 
L 255.165954 102.778416 
L 252.11355 103.162105 
L 251.428212 103.608171 
L 250.435241 104.861349 
L 247.403347 106.715693 
L 245.743837 105.293744 
L 243.645096 105.618468 
L 242.42311 104.668223 
L 239.693721 104.060222 
L 238.543515 103.346256 
L 236.37983 103.605608 
L 237.473636 101.973016 
L 237.304438 101.370996 
L 236.627645 101.055671 
L 234.672466 100.842891 
L 233.788876 101.486786 
L 228.314717 101.091989 
L 227.125202 101.824755 
L 225.41613 102.147768 
L 223.206299 103.293276 
L 223.083246 103.706869 
L 223.541278 103.864105 
L 223.633567 104.200792 
L 222.071475 108.112004 
L 220.094078 108.262402 
L 219.048126 108.593108 
L 217.609087 110.338926 
L 216.612698 110.594432 
L 214.295196 109.978312 
L 212.909138 110.51667 
L 212.319508 111.166116 
L 211.805077 110.111619 
L 210.184877 110.354308 
L 207.265781 109.234866 
L 203.558803 110.185964 
L 202.020638 110.304745 
L 200.641416 111.311388 
L 200.306438 112.078762 
L 200.002223 111.892473 
L 199.106669 112.109525 
L 198.397404 112.593192 
L 197.606104 112.232578 
L 196.621678 112.936716 
L 195.835505 112.838444 
L 194.451156 111.976217 
L 193.483821 110.786702 
L 191.819184 110.573069 
L 191.704677 109.83304 
L 190.27931 107.594156 
L 188.319004 106.915653 
L 187.970353 106.28586 
L 186.862874 105.54156 
L 186.143355 103.95084 
L 184.86326 103.81027 
L 184.283884 102.872844 
L 183.750654 102.906169 
L 183.598546 102.269113 
L 181.807438 100.603623 
L 181.537405 99.942638 
L 181.539114 97.564038 
L 180.113748 97.214104 
z
" clip-path="url(#p7de617d0b1)" style="fill: #ffeadb; stroke: #000000; stroke-width: 0.5"/>
    <path d="M 24.204229 20.483717 
L 24.508686 18.875778 
L 24.864173 18.435693 
L 24.680448 17.53544 
L 24.858191 16.30277 
L 25.20086 16.090418 
L 25.393369 16.231805 
L 25.611038 16.401043 
L 26.629645 16.283971 
L 27.543144 18.574127 
L 28.344414 19.086948 
L 29.82561 19.310739 
L 32.528508 20.442572 
L 34.170072 19.641872 
L 34.235017 20.250728 
L 35.267297 20.621597 
L 35.421113 20.938201 
L 35.720808 22.859704 
L 35.874017 23.883789 
L 36.239759 23.697927 
L 37.148986 23.898315 
L 38.210319 23.289458 
L 38.742696 23.723563 
L 39.77583 23.649219 
L 40.095426 23.935915 
L 40.109953 24.674662 
L 39.519469 25.191229 
L 39.504087 25.572352 
L 40.194553 26.379461 
L 39.938192 28.820017 
L 39.81172 29.122951 
L 38.888821 29.478437 
L 38.101793 31.036684 
L 38.179661 31.553682 
L 38.612806 32.26978 
L 39.624577 32.600059 
L 40.656002 33.917753 
L 42.146313 33.064072 
L 42.753034 31.319963 
L 46.907095 29.571958 
L 48.215229 29.346411 
L 48.642497 30.011668 
L 49.121038 30.185566 
L 49.390217 31.391744 
L 49.647432 31.673741 
L 50.170784 31.648176 
L 50.654076 31.328508 
L 51.250542 31.939074 
L 51.872644 32.098446 
L 53.732115 30.124039 
L 54.092729 28.099643 
L 56.164125 26.229918 
L 56.380545 23.539189 
L 57.876992 24.531662 
L 58.264562 24.433423 
L 58.199967 24.109104 
L 57.930821 24.193211 
L 58.116532 23.934159 
L 58.471803 23.947616 
L 60.763575 24.870785 
L 61.453933 25.598823 
L 63.437534 29.494027 
L 64.13462 30.199188 
L 65.528792 31.151289 
L 66.23799 32.344949 
L 69.652098 34.884334 
L 71.30465 35.547778 
L 73.697351 38.027951 
L 79.027773 47.366618 
L 79.470517 51.774545 
L 79.173111 52.792585 
L 79.917298 55.806343 
L 79.116591 57.273858 
L 79.030464 58.075907 
L 78.388553 58.690233 
L 78.224374 59.23929 
L 78.890509 61.696583 
L 78.515051 61.466468 
L 78.23514 61.944871 
L 77.965995 64.13706 
L 77.678009 64.144462 
L 77.30928 64.86846 
L 78.111333 67.075453 
L 79.350747 68.573919 
L 79.116591 69.05636 
L 79.681796 68.94332 
L 78.786888 71.334678 
L 79.249818 74.036896 
L 78.894546 78.037738 
L 79.540495 79.869944 
L 82.296542 82.841985 
L 83.550759 83.333846 
L 84.360886 83.212057 
L 84.393184 83.626542 
L 85.168322 84.326992 
L 85.593571 85.263618 
L 85.559928 86.272912 
L 87.400882 88.321781 
L 87.974161 89.74825 
L 87.854392 90.761581 
L 90.109829 94.337177 
L 90.299576 96.083256 
L 90.711369 96.630294 
L 91.014157 96.471499 
L 91.474395 97.27086 
L 92.46485 99.932707 
L 93.101379 102.680679 
L 92.830888 104.404554 
L 92.206471 104.404554 
L 91.870039 104.754444 
L 91.123161 104.720801 
L 90.000825 104.274693 
L 89.90797 103.552712 
L 89.318542 103.060175 
L 89.227033 102.453252 
L 90.6858 101.460106 
L 90.082914 101.465489 
L 89.127449 102.106728 
L 88.446511 100.608934 
L 87.682139 99.765837 
L 87.754808 100.414476 
L 88.381916 101.404932 
L 88.406139 103.060175 
L 87.822094 103.536561 
L 85.593571 102.598591 
L 84.161719 103.060175 
L 83.243933 103.027205 
L 81.631753 104.634001 
L 81.046362 104.528363 
L 80.767797 104.160979 
L 80.778563 104.993983 
L 80.247001 106.006643 
L 79.229632 104.866141 
L 78.552731 102.742585 
L 77.782976 101.575839 
L 75.115746 100.384872 
L 72.322019 98.646865 
L 70.626403 98.117323 
L 68.99 96.495049 
L 68.474587 96.256183 
L 67.388586 96.478901 
L 66.737254 96.266949 
L 65.931164 94.919877 
L 64.392999 93.632688 
L 64.387616 93.196674 
L 63.256331 92.405157 
L 57.72358 90.045656 
L 56.01989 88.305632 
L 55.155934 87.962472 
L 54.981185 87.471537 
L 53.960929 86.957214 
L 52.94356 87.418798 
L 52.709403 86.022608 
L 51.918116 85.376658 
L 51.584376 84.419848 
L 50.561607 84.089505 
L 49.773029 83.570022 
L 47.603718 83.007507 
L 46.949695 82.542557 
L 45.236585 80.398146 
L 43.371409 79.892151 
L 43.654011 79.145271 
L 43.282591 79.095482 
L 43.316234 78.874781 
L 44.80057 77.367567 
L 44.67138 76.143631 
L 43.983714 75.348308 
L 43.557119 72.86544 
L 42.533021 71.715516 
L 41.903221 71.46454 
L 40.428305 69.569082 
L 39.305969 67.121208 
L 37.537685 66.008295 
L 36.758509 64.899415 
L 35.531207 64.399476 
L 35.999227 63.469458 
L 35.890516 63.277815 
L 35.077697 63.526773 
L 34.668597 63.397582 
L 34.017265 63.051733 
L 33.730625 62.542375 
L 33.779071 61.141475 
L 35.353571 61.016994 
L 35.901282 60.563485 
L 36.50955 60.5581 
L 36.345371 60.202827 
L 34.957928 60.516384 
L 34.764143 59.219105 
L 33.306721 58.138484 
L 32.559843 58.299301 
L 32.394319 57.962196 
L 32.273204 56.70865 
L 31.449619 55.592369 
L 32.773814 51.609023 
L 32.520817 51.709951 
L 31.977144 51.412546 
L 31.928698 50.76794 
L 32.301464 50.315778 
L 32.559843 50.467847 
L 33.115628 49.792291 
L 32.090185 49.859577 
L 31.930043 48.582483 
L 32.559843 48.210389 
L 32.22072 48.098019 
L 32.308192 47.758226 
L 31.627255 47.653259 
L 31.647441 46.742873 
L 31.195277 46.393657 
L 30.2748 46.446143 
L 30.620652 46.168251 
L 30.549328 45.872862 
L 30.064867 45.57882 
L 29.604628 45.83989 
L 29.401424 45.609775 
L 28.127021 42.939852 
L 28.781594 42.346514 
L 29.225134 41.18166 
L 29.027312 40.224849 
L 29.26416 39.537856 
L 28.386746 37.873192 
L 28.464798 36.077993 
L 27.958076 34.924935 
L 27.787898 33.266771 
L 28.322151 33.36501 
L 28.489021 33.103938 
L 28.127021 32.856325 
L 28.312731 30.923862 
L 27.872679 27.587806 
L 26.198595 24.146784 
L 25.385626 23.489348 
L 24.626787 22.275551 
z
" clip-path="url(#p7de617d0b1)" style="fill: #ffeadb; stroke: #000000; stroke-width: 0.5"/>
    <path d="M 16.232727 20.590321 
L 18.311315 20.854889 
L 19.02841 20.289431 
L 19.440358 20.276474 
L 19.487085 20.031423 
L 20.666314 21.344981 
L 20.455905 21.773277 
L 20.71476 22.31525 
L 19.878378 22.993279 
L 19.529366 22.42841 
L 19.210986 22.438122 
L 17.613615 23.473672 
L 17.453364 21.956386 
L 16.455537 21.801182 
z
" clip-path="url(#p7de617d0b1)" style="fill: #ffeadb; stroke: #000000; stroke-width: 0.5"/>
    <path d="M 325.481398 49.687999 
L 326.785407 49.687999 
L 327.298128 49.340129 
L 327.62514 49.39732 
L 328.190345 50.140161 
L 328.413736 49.861594 
L 328.838985 49.870342 
L 329.667952 50.366242 
L 329.266926 50.495434 
L 329.215788 50.929428 
L 328.816108 50.591653 
L 328.602137 50.926735 
z
" clip-path="url(#p7de617d0b1)" style="fill: #ffeadb; stroke: #000000; stroke-width: 0.5"/>
    <path d="M 300.765789 7.985956 
L 301.56515 6.508349 
L 302.582519 6.169227 
L 303.259419 5.379285 
L 303.591814 5.988899 
L 303.38188 6.631484 
L 303.076401 6.346861 
L 302.831478 6.461921 
L 302.921642 7.072208 
L 301.339068 7.467852 
L 301.647239 7.806303 
L 301.413083 8.058627 
z
" clip-path="url(#p7de617d0b1)" style="fill: #ffeadb; stroke: #000000; stroke-width: 0.5"/>
    <path d="M 304.148944 7.906558 
L 304.336 6.630811 
L 306.046419 5.594601 
L 307.288524 5.377939 
L 307.877952 5.765508 
L 307.554978 7.921363 
L 307.301981 8.232224 
L 307.015342 8.088904 
L 305.537734 8.489258 
L 304.851414 8.888939 
L 304.399249 9.566513 
z
" clip-path="url(#p7de617d0b1)" style="fill: #ffeadb; stroke: #000000; stroke-width: 0.5"/>
    <path d="M 208.942845 82.322532 
L 209.214682 80.97008 
L 209.78527 81.188083 
L 210.299337 82.40193 
L 210.312795 85.288512 
L 210.801293 87.475318 
L 210.78649 87.787528 
L 210.463516 87.623348 
L 210.114973 87.992751 
L 209.664154 87.098514 
L 209.168927 86.809857 
z
" clip-path="url(#p7de617d0b1)" style="fill: #ffeadb; stroke: #000000; stroke-width: 0.5"/>
    <path d="M 308.953187 16.966661 
L 309.086414 16.558907 
L 310.555947 16.246024 
L 310.480587 15.826158 
L 309.889813 15.795205 
L 309.829255 15.571817 
L 310.96774 15.119652 
L 311.662134 16.151151 
L 311.593502 16.660509 
L 310.54249 17.284924 
z
" clip-path="url(#p7de617d0b1)" style="fill: #ffeadb; stroke: #000000; stroke-width: 0.5"/>
    <path d="M 90.325145 81.09321 
L 90.895733 80.41833 
L 90.788075 79.653958 
L 91.06664 79.207176 
L 91.323674 79.302725 
L 91.926559 80.951912 
L 91.92656 81.968606 
L 91.420566 82.217565 
L 90.848633 82.147586 
z
" clip-path="url(#p7de617d0b1)" style="fill: #ffeadb; stroke: #000000; stroke-width: 0.5"/>
    <path d="M 25.066839 36.756912 
L 25.582252 36.991742 
L 25.980587 36.652618 
L 26.631919 36.586678 
L 27.222693 36.880046 
L 27.778478 37.427757 
L 26.87415 39.99002 
L 25.147583 39.893127 
L 25.342713 39.373004 
z
" clip-path="url(#p7de617d0b1)" style="fill: #ffeadb; stroke: #000000; stroke-width: 0.5"/>
    <path d="M 313.801839 57.109002 
L 314.819208 56.446234 
L 316.203961 56.791411 
L 316.738214 57.484464 
L 318.03684 57.871357 
L 318.215236 58.279126 
L 314.851241 58.167809 
z
" clip-path="url(#p7de617d0b1)" style="fill: #ffeadb; stroke: #000000; stroke-width: 0.5"/>
    <path d="M 272.776027 40.163618 
L 273.271254 38.632182 
L 274.140593 37.927694 
L 274.253634 38.290368 
L 274.43127 39.518343 
L 274.140593 39.824495 
L 273.518868 39.644168 
z
" clip-path="url(#p7de617d0b1)" style="fill: #ffeadb; stroke: #000000; stroke-width: 0.5"/>
    <path d="M 18.250259 24.096618 
L 18.565394 23.79867 
L 18.799397 23.286224 
L 19.403567 22.932087 
L 19.229098 24.644459 
L 18.884625 24.956692 
z
" clip-path="url(#p7de617d0b1)" style="fill: #ffeadb; stroke: #000000; stroke-width: 0.5"/>
    <path d="M 330.402719 52.679545 
L 331.761903 52.736065 
L 332.134669 52.841708 
L 332.255784 53.309346 
L 330.911403 53.650489 
z
" clip-path="url(#p7de617d0b1)" style="fill: #ffeadb; stroke: #000000; stroke-width: 0.5"/>
    <path d="M 322.489848 30.649333 
L 322.745536 30.257055 
L 323.382065 30.186403 
L 323.569121 30.576665 
L 322.881455 30.778523 
z
" clip-path="url(#p7de617d0b1)" style="fill: #ffeadb; stroke: #000000; stroke-width: 0.5"/>
    <path d="M 43.06862 77.982564 
L 43.694383 76.348851 
L 43.98506 76.23043 
L 44.219216 76.549367 
L 44.18019 77.257219 
z
" clip-path="url(#p7de617d0b1)" style="fill: #ffeadb; stroke: #000000; stroke-width: 0.5"/>
    <path d="M 42.554553 76.826588 
L 42.982494 76.474679 
L 43.119758 76.638184 
L 42.928665 76.906657 
z
" clip-path="url(#p7de617d0b1)" style="fill: #ffeadb; stroke: #000000; stroke-width: 0.5"/>
   </g>
  </g>
 </g>
 <defs>
  <clipPath id="p7de617d0b1">
   <rect x="0" y="-0" width="357.12" height="118.314655"/>
  </clipPath>
 </defs>
</svg>
