<?xml version="1.0" encoding="utf-8" standalone="no"?>
<!DOCTYPE svg PUBLIC "-//W3C//DTD SVG 1.1//EN"
  "http://www.w3.org/Graphics/SVG/1.1/DTD/svg11.dtd">
<svg xmlns:xlink="http://www.w3.org/1999/xlink" width="264.799941pt" height="266.112pt" viewBox="0 0 264.799941 266.112" xmlns="http://www.w3.org/2000/svg" version="1.1">
 <metadata>
  <rdf:RDF xmlns:dc="http://purl.org/dc/elements/1.1/" xmlns:cc="http://creativecommons.org/ns#" xmlns:rdf="http://www.w3.org/1999/02/22-rdf-syntax-ns#">
   <cc:Work>
    <dc:type rdf:resource="http://purl.org/dc/dcmitype/StillImage"/>
    <dc:date>2025-06-04T13:24:40.994996</dc:date>
    <dc:format>image/svg+xml</dc:format>
    <dc:creator>
     <cc:Agent>
      <dc:title>Matplotlib v3.10.3, https://matplotlib.org/</dc:title>
     </cc:Agent>
    </dc:creator>
   </cc:Work>
  </rdf:RDF>
 </metadata>
 <defs>
  <style type="text/css">*{stroke-linejoin: round; stroke-linecap: butt}</style>
 </defs>
 <g id="figure_1">
  <g id="patch_1">
   <path d="M 0 266.112 
L 264.799941 266.112 
L 264.799941 0 
L 0 0 
L 0 266.112 
z
" style="fill: none"/>
  </g>
  <g id="axes_1">
   <g id="PatchCollection_1">
    <path d="M 233.897511 141.363488 
L 234.141467 141.270505 
L 234.541894 141.40648 
L 234.914326 141.63844 
L 235.079296 141.831404 
L 235.71768 142.048363 
L 236.033123 142.270323 
L 235.918643 142.536276 
L 235.925142 142.515279 
L 235.93514 142.45829 
L 235.930641 142.376306 
L 235.894148 142.278322 
L 235.819662 142.185339 
L 235.707182 142.110353 
L 235.555209 142.046366 
L 235.183777 141.938383 
L 235.072297 141.890393 
L 234.997811 141.834405 
L 234.933322 141.759419 
L 234.830342 141.668432 
L 234.262445 141.363488 
L 234.110472 141.324496 
L 234.058981 141.393484 
L 234.061981 141.489468 
L 234.073479 141.537458 
L 234.030487 141.486467 
L 234.003491 141.436477 
L 233.967498 141.393484 
z
" clip-path="url(#pbd8cbc8731)" style="fill: #ffeadb; stroke: #000000; stroke-width: 0.5"/>
    <path d="M 121.663423 111.980833 
L 121.699416 112.190795 
L 121.7899 112.472744 
L 121.915377 112.719699 
L 122.052852 112.82668 
L 122.114841 112.970653 
L 122.223821 113.606538 
L 122.299807 113.750511 
L 122.335301 113.857492 
L 122.852707 114.421389 
L 123.136655 115.113264 
L 123.280129 115.268235 
L 123.034673 115.130261 
L 122.698735 114.428389 
L 122.409787 114.092449 
L 122.11934 113.48356 
L 121.95187 112.857674 
L 121.753407 112.583724 
z
" clip-path="url(#pbd8cbc8731)" style="fill: #ffeadb; stroke: #000000; stroke-width: 0.5"/>
    <path d="M 72.215916 130.884396 
L 72.288403 130.079541 
L 72.637839 129.740605 
L 73.683149 129.404665 
L 74.227051 129.350673 
L 75.299855 129.64462 
L 75.939739 130.210516 
L 76.039221 131.68625 
L 76.328168 132.029187 
L 77.808399 132.264145 
L 78.230322 133.133986 
L 78.140339 133.677886 
L 77.724414 133.957837 
L 76.672106 133.660889 
L 75.787267 132.104173 
L 75.49432 132.356128 
L 74.263044 132.624079 
L 72.844302 132.264145 
z
" clip-path="url(#pbd8cbc8731)" style="fill: #ffeadb; stroke: #000000; stroke-width: 0.5"/>
    <path d="M 187.426962 22.822049 
L 187.589933 22.376128 
L 187.971863 22.304144 
L 189.53208 22.562094 
L 190.293941 22.402124 
L 190.02699 22.822049 
L 190.437915 23.265969 
L 190.398922 23.721885 
L 189.951503 23.501926 
L 189.69255 23.952844 
L 189.188642 23.835866 
L 188.546759 24.12781 
L 188.383289 24.425756 
L 187.836888 24.097818 
z
" clip-path="url(#pbd8cbc8731)" style="fill: #ffeadb; stroke: #000000; stroke-width: 0.5"/>
    <path d="M 208.22218 169.821314 
L 208.273171 169.780321 
L 208.395149 169.73233 
L 208.462137 169.720332 
L 208.539123 169.725331 
L 208.820072 170.145255 
L 208.905056 170.675158 
L 208.634106 170.911116 
L 208.824071 170.715152 
L 208.850066 170.571177 
L 208.562619 169.84031 
L 208.514127 169.778321 
L 208.44714 169.752326 
z
" clip-path="url(#pbd8cbc8731)" style="fill: #ffeadb; stroke: #000000; stroke-width: 0.5"/>
    <path d="M 172.42869 127.563 
L 172.687643 127.517008 
L 172.879109 127.601991 
L 172.988589 127.793957 
L 172.991088 127.834951 
L 173.000086 127.992922 
L 173.004585 128.063909 
L 172.98159 128.020916 
L 172.98159 127.982923 
L 172.960594 127.802955 
L 172.912102 127.704974 
L 172.772628 127.608991 
L 172.605658 127.565999 
z
" clip-path="url(#pbd8cbc8731)" style="fill: #ffeadb; stroke: #000000; stroke-width: 0.5"/>
    <path d="M 114.251271 102.685524 
L 114.290764 102.678525 
L 114.401244 102.735514 
L 114.455734 102.75951 
L 114.503225 102.832497 
L 114.551216 102.963473 
L 114.53422 103.125444 
L 114.425739 103.486378 
L 114.47923 103.252421 
L 114.509724 102.97947 
L 114.483229 102.87049 
L 114.418241 102.781506 
L 114.371249 102.746513 
z
" clip-path="url(#pbd8cbc8731)" style="fill: #ffeadb; stroke: #000000; stroke-width: 0.5"/>
    <path d="M 230.536122 176.214151 
L 230.612608 176.103172 
L 230.702592 176.103172 
L 230.780078 176.186156 
L 230.819571 176.33113 
L 230.793075 176.322132 
L 230.782078 176.302135 
L 230.774079 176.280139 
L 230.755082 176.258143 
L 230.696093 176.214151 
L 230.6581 176.16416 
L 230.615108 176.151162 
z
" clip-path="url(#pbd8cbc8731)" style="fill: #ffeadb; stroke: #000000; stroke-width: 0.5"/>
    <path d="M 209.508447 127.66598 
L 209.54294 127.584994 
L 209.714909 127.368034 
L 209.970362 127.272053 
L 209.616927 127.577996 
L 209.568936 127.66498 
L 209.580933 127.688977 
L 209.631924 127.697974 
L 209.704911 127.722969 
L 209.778897 127.781959 
L 209.536942 127.77296 
L 209.511446 127.702973 
z
" clip-path="url(#pbd8cbc8731)" style="fill: #ffeadb; stroke: #000000; stroke-width: 0.5"/>
    <path d="M 200.791532 34.505924 
L 200.838523 34.343954 
L 202.731179 33.526102 
L 203.11011 33.588092 
L 203.623517 34.114996 
L 204.557847 34.275966 
L 204.92778 34.099996 
L 205.204729 34.080002 
L 204.245904 34.831863 
L 202.309256 34.865856 
L 202.159283 35.485747 
L 201.157465 35.177802 
z
" clip-path="url(#pbd8cbc8731)" style="fill: #ffeadb; stroke: #000000; stroke-width: 0.5"/>
    <path d="M 185.548304 155.397937 
L 185.629289 155.347947 
L 185.779262 155.412934 
L 185.926735 155.535912 
L 186.002222 155.669886 
L 185.977226 155.82086 
L 185.875245 155.923841 
L 185.728772 155.981829 
L 185.567301 156.007824 
L 185.758766 155.850856 
L 185.884243 155.718879 
L 185.84525 155.577904 
z
" clip-path="url(#pbd8cbc8731)" style="fill: #ffeadb; stroke: #000000; stroke-width: 0.5"/>
    <path d="M 12.036361 108.442477 
L 12.186334 108.406483 
L 12.255821 108.483469 
L 12.278317 108.616445 
L 12.289815 108.75042 
L 12.254321 108.825407 
L 12.177835 108.878398 
L 12.136843 108.872399 
L 12.20583 108.776416 
L 12.237325 108.64244 
L 12.219328 108.543458 
L 12.15234 108.47447 
z
" clip-path="url(#pbd8cbc8731)" style="fill: #ffeadb; stroke: #000000; stroke-width: 0.5"/>
    <path d="M 152.533309 123.159801 
L 152.666284 123.151802 
L 152.796261 123.198792 
L 152.914739 123.282777 
L 153.015221 123.390758 
L 152.947233 123.403755 
L 152.878246 123.395757 
L 152.807259 123.371762 
L 152.734772 123.336767 
L 152.624292 123.255783 
L 152.576301 123.21079 
z
" clip-path="url(#pbd8cbc8731)" style="fill: #ffeadb; stroke: #000000; stroke-width: 0.5"/>
    <path d="M 140.122566 120.02837 
L 140.133564 119.984377 
L 140.178555 119.888396 
L 140.507496 119.806409 
L 140.715958 119.972379 
L 140.826938 120.205337 
L 140.865931 120.325315 
L 140.719457 120.192339 
L 140.561486 119.96838 
L 140.37152 119.8634 
L 140.131064 120.08236 
z
" clip-path="url(#pbd8cbc8731)" style="fill: #ffeadb; stroke: #000000; stroke-width: 0.5"/>
    <path d="M 125.963141 94.901938 
L 126.094117 94.571 
L 126.384065 94.045093 
L 126.136109 94.662983 
L 126.07512 94.940933 
L 126.336573 94.878943 
L 126.810487 94.557 
L 126.681511 94.718972 
L 126.466049 94.880944 
L 126.222594 95.00392 
L 126.006133 95.051914 
z
" clip-path="url(#pbd8cbc8731)" style="fill: #ffeadb; stroke: #000000; stroke-width: 0.5"/>
    <path d="M 136.152288 114.925298 
L 136.228774 114.933296 
L 136.243271 114.956293 
L 136.236273 115.007282 
L 136.426738 114.941295 
L 136.624202 114.981287 
L 136.794171 115.077269 
L 136.907151 115.177251 
L 136.501724 115.039278 
L 136.257269 115.083269 
z
" clip-path="url(#pbd8cbc8731)" style="fill: #ffeadb; stroke: #000000; stroke-width: 0.5"/>
    <path d="M 68.459599 129.329679 
L 69.032495 129.082723 
L 69.178968 129.322679 
L 69.808854 129.238694 
L 69.949828 129.012735 
L 70.274269 128.986741 
L 70.410245 129.167707 
L 70.175287 129.710608 
L 69.708372 130.253509 
L 68.832531 129.857583 
z
" clip-path="url(#pbd8cbc8731)" style="fill: #ffeadb; stroke: #000000; stroke-width: 0.5"/>
    <path d="M 200.280625 151.962561 
L 200.426598 151.966562 
L 200.513083 152.040547 
L 200.513083 152.149526 
L 200.399103 152.264507 
L 200.435097 152.160525 
L 200.4126 152.104537 
L 200.400603 152.047545 
L 200.368609 151.996555 
z
" clip-path="url(#pbd8cbc8731)" style="fill: #ffeadb; stroke: #000000; stroke-width: 0.5"/>
    <path d="M 233.027669 176.562088 
L 233.238631 176.4941 
L 233.318616 176.577086 
L 233.272625 176.722058 
L 233.104655 176.844037 
L 233.213635 176.710061 
L 233.195638 176.630076 
L 233.113653 176.586084 
z
" clip-path="url(#pbd8cbc8731)" style="fill: #ffeadb; stroke: #000000; stroke-width: 0.5"/>
    <path d="M 181.765992 149.495012 
L 182.080935 149.318041 
L 182.400877 149.471013 
L 182.514856 149.724969 
L 182.207912 149.836949 
L 182.402376 149.605991 
L 182.262902 149.477015 
L 181.985452 149.44102 
z
" clip-path="url(#pbd8cbc8731)" style="fill: #ffeadb; stroke: #000000; stroke-width: 0.5"/>
    <path d="M 175.078208 150.352856 
L 175.248178 150.182884 
L 175.434643 150.230877 
L 175.553122 150.412845 
L 175.518128 150.642803 
L 175.477136 150.452837 
L 175.365657 150.336856 
L 175.218682 150.301866 
z
" clip-path="url(#pbd8cbc8731)" style="fill: #ffeadb; stroke: #000000; stroke-width: 0.5"/>
    <path d="M 49.412563 120.388304 
L 49.609028 120.064363 
L 50.19842 120.182342 
L 51.160246 121.543093 
L 50.565854 121.872034 
L 50.215418 121.830041 
L 50.078442 122.066 
L 49.619526 121.924025 
z
" clip-path="url(#pbd8cbc8731)" style="fill: #ffeadb; stroke: #000000; stroke-width: 0.5"/>
    <path d="M 206.620472 42.519466 
L 207.383333 42.693435 
L 207.585796 43.556278 
L 207.380334 43.941208 
L 206.782442 43.940208 
L 206.673962 43.520284 
L 206.856429 43.098361 
z
" clip-path="url(#pbd8cbc8731)" style="fill: #ffeadb; stroke: #000000; stroke-width: 0.5"/>
    <path d="M 205.228225 151.338676 
L 205.347703 151.316678 
L 205.443686 151.312681 
L 205.478679 151.339677 
L 205.417191 151.418659 
L 205.303712 151.400662 
L 205.261719 151.381668 
z
" clip-path="url(#pbd8cbc8731)" style="fill: #ffeadb; stroke: #000000; stroke-width: 0.5"/>
    <path d="M 188.685734 29.562823 
L 189.385606 29.002926 
L 189.691551 28.967932 
L 189.972499 29.248881 
L 190.293941 29.219884 
L 189.86152 30.350679 
L 189.493586 30.492655 
z
" clip-path="url(#pbd8cbc8731)" style="fill: #ffeadb; stroke: #000000; stroke-width: 0.5"/>
    <path d="M 188.517764 110.715063 
L 188.770718 110.475107 
L 189.09266 110.421117 
L 189.318618 110.511101 
L 189.280126 110.715063 
L 189.194641 110.524099 
L 188.874699 110.5101 
z
" clip-path="url(#pbd8cbc8731)" style="fill: #ffeadb; stroke: #000000; stroke-width: 0.5"/>
    <path d="M 181.693005 12.603907 
L 181.955958 12.25497 
L 182.363883 12.096 
L 182.790806 12.213978 
L 182.333389 12.422939 
L 182.126926 12.893855 
L 181.815983 13.215796 
z
" clip-path="url(#pbd8cbc8731)" style="fill: #ffeadb; stroke: #000000; stroke-width: 0.5"/>
    <path d="M 180.350749 133.781869 
L 181.021128 132.515099 
L 182.622836 131.68625 
L 182.959775 131.724241 
L 182.912783 132.230151 
L 182.294896 132.868035 
L 180.987134 133.828859 
z
" clip-path="url(#pbd8cbc8731)" style="fill: #ffeadb; stroke: #000000; stroke-width: 0.5"/>
    <path d="M 139.025765 118.960564 
L 139.05726 118.884577 
L 139.179737 118.92757 
L 139.320712 119.046548 
L 139.407696 119.192521 
L 139.306214 119.149529 
L 139.207232 119.095538 
z
" clip-path="url(#pbd8cbc8731)" style="fill: #ffeadb; stroke: #000000; stroke-width: 0.5"/>
    <path d="M 137.233091 253.698059 
L 137.321075 253.009186 
L 137.586028 252.910201 
L 138.004951 253.25414 
L 137.753996 253.506095 
L 137.750997 253.90802 
L 137.51504 254.016 
z
" clip-path="url(#pbd8cbc8731)" style="fill: #ffeadb; stroke: #000000; stroke-width: 0.5"/>
    <path d="M 48.851665 118.81459 
L 48.904156 118.303683 
L 49.684514 118.126716 
L 49.609028 118.294684 
L 50.100938 118.48065 
L 49.860982 118.722607 
L 49.799493 119.276507 
z
" clip-path="url(#pbd8cbc8731)" style="fill: #ffeadb; stroke: #000000; stroke-width: 0.5"/>
    <path d="M 201.145467 36.547553 
L 201.644377 35.907668 
L 201.907829 36.045644 
L 202.333251 36.328594 
L 201.742359 36.809504 
L 201.313437 37.463386 
z
" clip-path="url(#pbd8cbc8731)" style="fill: #ffeadb; stroke: #000000; stroke-width: 0.5"/>
    <path d="M 195.174554 23.709886 
L 195.586479 23.249969 
L 196.600294 23.568913 
L 196.673781 23.913849 
L 195.725453 24.12781 
L 195.342523 24.431754 
z
" clip-path="url(#pbd8cbc8731)" style="fill: #ffeadb; stroke: #000000; stroke-width: 0.5"/>
    <path d="M 117.972594 90.681708 
L 118.65947 90.567727 
L 118.941418 90.633714 
L 118.804443 90.933662 
L 118.853434 90.681708 
L 118.637474 90.651711 
z
" clip-path="url(#pbd8cbc8731)" style="fill: #ffeadb; stroke: #000000; stroke-width: 0.5"/>
    <path d="M 111.979684 112.591722 
L 112.161651 112.323771 
L 112.504589 112.225788 
L 112.77054 112.387759 
L 112.756543 112.994649 
L 112.106661 112.803684 
z
" clip-path="url(#pbd8cbc8731)" style="fill: #ffeadb; stroke: #000000; stroke-width: 0.5"/>
    <path d="M 73.615161 201.712514 
L 73.656154 201.451561 
L 74.144566 201.391571 
L 74.454009 201.483554 
L 74.371025 201.857485 
L 73.823623 201.915478 
z
" clip-path="url(#pbd8cbc8731)" style="fill: #ffeadb; stroke: #000000; stroke-width: 0.5"/>
    <path d="M 203.752993 183.127894 
L 204.002948 183.03791 
L 204.251903 183.061905 
L 204.505356 183.116896 
L 204.767809 183.127894 
z
" clip-path="url(#pbd8cbc8731)" style="fill: #ffeadb; stroke: #000000; stroke-width: 0.5"/>
    <path d="M 182.378881 180.519368 
L 182.609339 180.373395 
L 183.217728 181.107261 
L 182.887788 181.289228 
L 182.54685 181.179249 
z
" clip-path="url(#pbd8cbc8731)" style="fill: #ffeadb; stroke: #000000; stroke-width: 0.5"/>
    <path d="M 175.734089 88.450113 
L 175.857567 88.5141 
L 176.204004 88.753058 
L 176.143015 88.837042 
L 176.023037 88.760056 
z
" clip-path="url(#pbd8cbc8731)" style="fill: #ffeadb; stroke: #000000; stroke-width: 0.5"/>
    <path d="M 159.555532 112.323771 
L 159.648515 112.028824 
L 159.799987 111.719881 
L 159.977955 111.440932 
L 160.149923 111.22597 
z
" clip-path="url(#pbd8cbc8731)" style="fill: #ffeadb; stroke: #000000; stroke-width: 0.5"/>
    <path d="M 129.167558 91.865492 
L 130.684283 91.482559 
L 130.63929 91.674528 
L 129.167558 92.703338 
L 130.580801 91.560546 
z
" clip-path="url(#pbd8cbc8731)" style="fill: #ffeadb; stroke: #000000; stroke-width: 0.5"/>
    <path d="M 127.230411 108.022553 
L 127.761314 108.300502 
L 128.382201 109.230333 
L 128.49618 109.792231 
L 127.609842 108.267508 
z
" clip-path="url(#pbd8cbc8731)" style="fill: #ffeadb; stroke: #000000; stroke-width: 0.5"/>
    <path d="M 121.914877 127.495012 
L 121.921376 127.271053 
L 122.098344 127.986922 
L 121.999862 127.830951 
L 121.939873 127.674979 
z
" clip-path="url(#pbd8cbc8731)" style="fill: #ffeadb; stroke: #000000; stroke-width: 0.5"/>
    <path d="M 98.111706 99.557093 
L 98.357662 99.666073 
L 98.583121 99.828043 
L 98.995046 100.199976 
L 98.343164 99.692068 
z
" clip-path="url(#pbd8cbc8731)" style="fill: #ffeadb; stroke: #000000; stroke-width: 0.5"/>
    <path d="M 90.184648 97.751423 
L 91.253954 97.932388 
L 91.672378 98.216336 
L 91.785857 98.681253 
L 91.311943 98.156346 
z
" clip-path="url(#pbd8cbc8731)" style="fill: #ffeadb; stroke: #000000; stroke-width: 0.5"/>
    <path d="M 55.000547 120.700247 
L 55.419471 120.445295 
L 55.560445 120.35531 
L 55.75641 120.676252 
L 55.429469 121.074179 
z
" clip-path="url(#pbd8cbc8731)" style="fill: #ffeadb; stroke: #000000; stroke-width: 0.5"/>
    <path d="M 54.827078 120.108356 
L 55.059037 119.524461 
L 55.168017 119.69443 
L 55.397975 120.092359 
L 54.908064 120.406301 
z
" clip-path="url(#pbd8cbc8731)" style="fill: #ffeadb; stroke: #000000; stroke-width: 0.5"/>
    <path d="M 179.638379 108.942386 
L 179.712366 108.780415 
L 180.162284 108.728425 
L 179.826345 109.008374 
z
" clip-path="url(#pbd8cbc8731)" style="fill: #ffeadb; stroke: #000000; stroke-width: 0.5"/>
    <path d="M 158.205777 129.82459 
L 159.205095 130.64244 
L 158.968139 130.914389 
L 159.119111 130.672433 
z
" clip-path="url(#pbd8cbc8731)" style="fill: #ffeadb; stroke: #000000; stroke-width: 0.5"/>
    <path d="M 152.645288 133.763872 
L 152.889244 133.605901 
L 153.036217 133.94184 
L 152.882245 133.653891 
z
" clip-path="url(#pbd8cbc8731)" style="fill: #ffeadb; stroke: #000000; stroke-width: 0.5"/>
    <path d="M 147.011313 118.638621 
L 148.364067 118.621626 
L 149.031946 119.224515 
L 148.199097 118.668616 
z
" clip-path="url(#pbd8cbc8731)" style="fill: #ffeadb; stroke: #000000; stroke-width: 0.5"/>
    <path d="M 142.29917 116.527006 
L 143.187008 116.734969 
L 143.731909 117.624807 
L 143.349479 117.050911 
z
" clip-path="url(#pbd8cbc8731)" style="fill: #ffeadb; stroke: #000000; stroke-width: 0.5"/>
    <path d="M 123.859524 128.405846 
L 124.052489 128.525824 
L 124.222458 128.722789 
L 124.530902 129.238694 
z
" clip-path="url(#pbd8cbc8731)" style="fill: #ffeadb; stroke: #000000; stroke-width: 0.5"/>
    <path d="M 122.452779 104.263237 
L 123.60457 104.601175 
L 123.856024 104.643168 
L 123.82603 104.807138 
z
" clip-path="url(#pbd8cbc8731)" style="fill: #ffeadb; stroke: #000000; stroke-width: 0.5"/>
    <path d="M 117.527675 109.02437 
L 117.972594 109.318318 
L 118.165559 109.500284 
L 118.16156 109.620262 
z
" clip-path="url(#pbd8cbc8731)" style="fill: #ffeadb; stroke: #000000; stroke-width: 0.5"/>
    <path d="M 113.588392 91.773509 
L 114.072303 92.035462 
L 113.76336 92.535369 
L 113.977321 92.023462 
z
" clip-path="url(#pbd8cbc8731)" style="fill: #ffeadb; stroke: #000000; stroke-width: 0.5"/>
    <path d="M 88.915879 108.912391 
L 89.12834 108.567454 
L 89.523268 109.128352 
L 89.266315 109.366309 
z
" clip-path="url(#pbd8cbc8731)" style="fill: #ffeadb; stroke: #000000; stroke-width: 0.5"/>
    <path d="M 83.862798 96.912575 
L 84.478186 97.049547 
L 84.697146 97.208518 
L 84.632658 97.415483 
z
" clip-path="url(#pbd8cbc8731)" style="fill: #ffeadb; stroke: #000000; stroke-width: 0.5"/>
    <path d="M 50.612845 190.141619 
L 50.737822 189.899662 
L 51.118253 190.319586 
L 50.923288 191.029457 
z
" clip-path="url(#pbd8cbc8731)" style="fill: #ffeadb; stroke: #000000; stroke-width: 0.5"/>
    <path d="M 45.902702 116.868945 
L 46.232142 116.938932 
L 46.314127 117.456837 
L 45.946694 117.282869 
z
" clip-path="url(#pbd8cbc8731)" style="fill: #ffeadb; stroke: #000000; stroke-width: 0.5"/>
    <path d="M 39.966281 116.489013 
L 39.992777 116.419026 
L 40.198739 116.44702 
L 40.056265 116.539004 
z
" clip-path="url(#pbd8cbc8731)" style="fill: #ffeadb; stroke: #000000; stroke-width: 0.5"/>
    <path d="M 251.825251 198.440108 
L 252.76358 198.022183 
L 252.253173 198.70006 
z
" clip-path="url(#pbd8cbc8731)" style="fill: #ffeadb; stroke: #000000; stroke-width: 0.5"/>
    <path d="M 245.603382 178.407751 
L 246.105291 178.527729 
L 246.44223 178.91066 
z
" clip-path="url(#pbd8cbc8731)" style="fill: #ffeadb; stroke: #000000; stroke-width: 0.5"/>
    <path d="M 237.493857 185.132529 
L 237.767807 184.876575 
L 237.740812 185.008551 
z
" clip-path="url(#pbd8cbc8731)" style="fill: #ffeadb; stroke: #000000; stroke-width: 0.5"/>
    <path d="M 234.698365 178.214788 
L 234.967816 178.027822 
L 235.143284 178.177794 
z
" clip-path="url(#pbd8cbc8731)" style="fill: #ffeadb; stroke: #000000; stroke-width: 0.5"/>
    <path d="M 226.660827 138.837947 
L 227.365699 139.305864 
L 227.842612 140.012734 
z
" clip-path="url(#pbd8cbc8731)" style="fill: #ffeadb; stroke: #000000; stroke-width: 0.5"/>
    <path d="M 205.011764 144.902846 
L 205.357702 144.967833 
L 205.460682 145.135805 
z
" clip-path="url(#pbd8cbc8731)" style="fill: #ffeadb; stroke: #000000; stroke-width: 0.5"/>
    <path d="M 181.029126 139.684794 
L 182.192914 140.364673 
L 182.378881 140.691612 
z
" clip-path="url(#pbd8cbc8731)" style="fill: #ffeadb; stroke: #000000; stroke-width: 0.5"/>
    <path d="M 178.672555 136.306409 
L 179.267947 136.607353 
L 180.526218 138.244057 
z
" clip-path="url(#pbd8cbc8731)" style="fill: #ffeadb; stroke: #000000; stroke-width: 0.5"/>
    <path d="M 147.941644 128.566816 
L 148.40006 128.602811 
L 148.696006 128.894758 
z
" clip-path="url(#pbd8cbc8731)" style="fill: #ffeadb; stroke: #000000; stroke-width: 0.5"/>
    <path d="M 145.15815 118.126716 
L 146.759859 118.806592 
L 146.155469 118.7596 
z
" clip-path="url(#pbd8cbc8731)" style="fill: #ffeadb; stroke: #000000; stroke-width: 0.5"/>
    <path d="M 137.913968 116.107082 
L 138.295398 116.429025 
L 138.34039 116.868945 
z
" clip-path="url(#pbd8cbc8731)" style="fill: #ffeadb; stroke: #000000; stroke-width: 0.5"/>
    <path d="M 133.507769 107.679616 
L 133.868703 107.886578 
L 133.604751 107.98656 
z
" clip-path="url(#pbd8cbc8731)" style="fill: #ffeadb; stroke: #000000; stroke-width: 0.5"/>
    <path d="M 126.307079 109.624262 
L 126.503043 109.746239 
L 127.146426 110.386123 
z
" clip-path="url(#pbd8cbc8731)" style="fill: #ffeadb; stroke: #000000; stroke-width: 0.5"/>
    <path d="M 120.496635 111.737877 
L 121.449962 111.465926 
L 121.663423 111.644894 
z
" clip-path="url(#pbd8cbc8731)" style="fill: #ffeadb; stroke: #000000; stroke-width: 0.5"/>
    <path d="M 110.73941 108.435478 
L 110.940873 108.579452 
L 110.998862 108.8684 
z
" clip-path="url(#pbd8cbc8731)" style="fill: #ffeadb; stroke: #000000; stroke-width: 0.5"/>
    <path d="M 109.068714 101.566727 
L 109.292173 101.655711 
L 109.575621 102.04564 
z
" clip-path="url(#pbd8cbc8731)" style="fill: #ffeadb; stroke: #000000; stroke-width: 0.5"/>
    <path d="M 95.736138 207.705424 
L 96.674468 207.460467 
L 96.415515 207.705424 
z
" clip-path="url(#pbd8cbc8731)" style="fill: #ffeadb; stroke: #000000; stroke-width: 0.5"/>
    <path d="M 72.852301 123.285776 
L 72.892293 123.121807 
L 73.081259 123.061817 
z
" clip-path="url(#pbd8cbc8731)" style="fill: #ffeadb; stroke: #000000; stroke-width: 0.5"/>
    <path d="M 59.726187 131.496285 
L 59.874661 131.333313 
L 59.852665 131.610263 
z
" clip-path="url(#pbd8cbc8731)" style="fill: #ffeadb; stroke: #000000; stroke-width: 0.5"/>
    <path d="M 19.239551 120.502284 
L 19.444514 120.793231 
L 19.614483 121.213154 
z
" clip-path="url(#pbd8cbc8731)" style="fill: #ffeadb; stroke: #000000; stroke-width: 0.5"/>
   </g>
  </g>
 </g>
 <defs>
  <clipPath id="pbd8cbc8731">
   <rect x="0" y="-0" width="264.799941" height="266.112"/>
  </clipPath>
 </defs>
</svg>
