<?xml version="1.0" encoding="utf-8" standalone="no"?>
<!DOCTYPE svg PUBLIC "-//W3C//DTD SVG 1.1//EN"
  "http://www.w3.org/Graphics/SVG/1.1/DTD/svg11.dtd">
<svg xmlns:xlink="http://www.w3.org/1999/xlink" width="158.882722pt" height="266.112pt" viewBox="0 0 158.882722 266.112" xmlns="http://www.w3.org/2000/svg" version="1.1">
 <metadata>
  <rdf:RDF xmlns:dc="http://purl.org/dc/elements/1.1/" xmlns:cc="http://creativecommons.org/ns#" xmlns:rdf="http://www.w3.org/1999/02/22-rdf-syntax-ns#">
   <cc:Work>
    <dc:type rdf:resource="http://purl.org/dc/dcmitype/StillImage"/>
    <dc:date>2025-06-04T13:24:39.377501</dc:date>
    <dc:format>image/svg+xml</dc:format>
    <dc:creator>
     <cc:Agent>
      <dc:title>Matplotlib v3.10.3, https://matplotlib.org/</dc:title>
     </cc:Agent>
    </dc:creator>
   </cc:Work>
  </rdf:RDF>
 </metadata>
 <defs>
  <style type="text/css">*{stroke-linejoin: round; stroke-linecap: butt}</style>
 </defs>
 <g id="figure_1">
  <g id="patch_1">
   <path d="M 0 266.112 
L 158.882722 266.112 
L 158.882722 0 
L 0 0 
L 0 266.112 
z
" style="fill: none"/>
  </g>
  <g id="axes_1">
   <g id="PatchCollection_1">
    <path d="M 49.078486 81.38467 
L 49.470226 79.608458 
L 49.927661 78.932038 
L 50.791435 78.664389 
L 51.480021 78.732519 
L 51.621145 79.266599 
L 51.26347 80.676619 
L 52.285399 81.039161 
L 52.956953 81.707065 
L 53.478867 81.722273 
L 54.042145 82.07569 
L 54.511747 83.592769 
L 55.847555 83.93767 
L 56.582371 83.645691 
L 57.314754 83.758224 
L 57.201612 84.16578 
L 57.721093 83.544106 
L 58.161496 83.596418 
L 58.127432 83.331812 
L 57.610384 83.441912 
L 58.190694 82.800773 
L 58.741806 81.952207 
L 58.730625 81.293995 
L 58.493623 80.659587 
L 57.757591 80.057985 
L 57.201612 77.043901 
L 57.314754 76.278671 
L 56.858535 75.27864 
L 57.314754 75.248226 
L 57.252709 74.634458 
L 57.603084 73.773119 
L 57.508191 72.177569 
L 58.678993 70.684659 
L 59.219924 69.743794 
L 58.741806 66.386634 
L 58.83305 64.652395 
L 59.363481 63.668785 
L 58.741806 61.71982 
L 57.825719 61.422366 
L 57.721093 61.158974 
L 58.01064 59.338967 
L 58.896313 58.820092 
L 58.954708 58.342586 
L 58.580001 57.794514 
L 59.127463 56.947166 
L 59.101028 56.11127 
L 59.864713 54.454993 
L 59.757653 53.166631 
L 61.387874 49.666524 
L 61.25405 47.025929 
L 61.865992 46.476032 
L 63.05581 46.538078 
L 64.254145 46.133565 
L 64.375803 45.231468 
L 64.884335 44.892042 
L 65.450046 44.976593 
L 66.322336 46.047796 
L 66.888047 45.976018 
L 67.606787 45.466955 
L 68.771318 45.231468 
L 69.2762 44.918805 
L 70.231218 45.176721 
L 71.660704 46.232106 
L 76.530686 48.775982 
L 77.392026 49.833803 
L 77.166958 49.526008 
L 77.322681 49.004095 
L 81.067324 50.353283 
L 82.249843 50.25109 
L 83.220676 49.740126 
L 83.804637 48.854452 
L 84.412928 48.502253 
L 84.914161 46.77166 
L 86.147775 46.822761 
L 86.392309 47.903693 
L 87.370442 48.884867 
L 87.487234 49.494983 
L 86.943421 51.265114 
L 85.16721 53.024898 
L 85.371595 54.760965 
L 84.658678 58.454512 
L 84.965257 58.908295 
L 84.970123 60.218558 
L 85.389373 61.384245 
L 86.211038 63.095775 
L 86.383793 64.092157 
L 86.921523 64.086074 
L 87.319345 64.392654 
L 88.091876 64.188267 
L 88.461717 64.739378 
L 88.647854 64.902401 
L 88.576076 64.556891 
L 89.138137 65.104962 
L 89.261012 65.505826 
L 88.750047 65.362271 
L 88.860756 67.296637 
L 89.371721 67.769888 
L 90.118703 67.386663 
L 90.539641 67.838016 
L 89.698982 69.630651 
L 89.576107 71.04493 
L 88.94835 72.551059 
L 87.116176 75.972091 
L 86.286466 76.793286 
L 85.683041 77.926534 
L 85.882561 78.524483 
L 86.096679 78.217905 
L 85.49812 79.681454 
L 85.575982 80.065286 
L 86.096679 79.656514 
L 85.676958 80.890129 
L 85.279135 80.983198 
L 83.780305 82.441882 
L 83.51509 83.263075 
L 82.597786 83.961394 
L 82.505326 83.850077 
L 83.129433 82.674857 
L 83.841134 82.207689 
L 84.147713 81.320192 
L 84.611231 81.054976 
L 84.651379 80.528195 
L 83.936027 80.609099 
L 83.629448 81.583582 
L 83.384915 81.722273 
L 81.952997 82.345772 
L 80.658552 82.625586 
L 80.086758 83.074505 
L 78.926138 83.276457 
L 76.162061 85.6859 
L 75.974707 86.983386 
L 76.26912 87.799105 
L 77.125595 88.058238 
L 77.281318 88.359341 
L 76.567183 89.288204 
L 77.085448 89.491981 
L 76.256954 89.998079 
L 76.074467 90.534592 
L 75.089035 91.415399 
L 74.749608 92.83211 
L 74.052506 93.787736 
L 73.508693 93.726299 
L 73.348104 94.768302 
L 73.526942 95.394842 
L 74.349968 96.266809 
L 74.877349 96.646706 
L 75.276388 98.4363 
L 76.873762 101.275805 
L 76.567183 101.480191 
L 78.517366 103.39996 
L 78.534398 103.558724 
L 77.384727 103.702888 
L 76.857946 104.011295 
L 76.771569 104.903658 
L 77.58303 108.085019 
L 78.663356 109.411098 
L 78.617126 110.132529 
L 79.025898 110.63863 
L 78.617126 111.510921 
L 79.340993 112.438566 
L 81.676833 114.396654 
L 83.943327 115.254348 
L 86.096679 115.723338 
L 85.948256 115.040837 
L 85.371595 114.489726 
L 87.013983 114.771364 
L 87.060213 114.283512 
L 87.319346 114.08095 
L 85.748736 113.014617 
L 85.065017 111.816282 
L 85.371595 112.131987 
L 85.552866 111.577225 
L 86.282817 111.394127 
L 86.392309 110.582665 
L 86.571147 110.626463 
L 86.687939 112.281625 
L 86.880159 112.442823 
L 87.013983 112.225054 
L 87.263351 112.885337 
L 87.797462 112.361313 
L 87.582128 111.330864 
L 87.943452 111.408728 
L 87.831527 111.000563 
L 88.262197 110.908713 
L 88.104041 110.415996 
L 88.85224 109.469493 
L 89.074875 109.569862 
L 89.852272 109.142232 
L 90.392435 109.469493 
L 90.179532 109.153792 
L 90.520176 109.111817 
L 91.617534 109.469493 
L 91.66863 109.821087 
L 91.932629 109.672661 
L 92.261106 110.068054 
L 92.341401 109.877047 
L 92.954559 109.970725 
L 92.710025 109.599059 
L 92.792753 109.084443 
L 93.157728 109.153792 
L 93.418077 109.604534 
L 93.881595 109.358178 
L 94.627361 110.031554 
L 95.684571 110.360031 
L 96.129841 111.166625 
L 96.544696 111.307141 
L 97.761279 112.744534 
L 98.210198 112.858893 
L 98.075158 113.978757 
L 98.797807 114.489726 
L 98.9 115.798161 
L 98.483929 116.223963 
L 98.308741 116.986151 
L 98.32334 117.675955 
L 99.196847 118.478901 
L 100.788138 118.376708 
L 101.564318 118.070736 
L 102.286968 117.007444 
L 101.768704 115.723338 
L 102.445124 115.2215 
L 102.593547 114.591308 
L 102.250471 115.209333 
L 101.914694 115.30301 
L 101.086201 114.865648 
L 100.839234 114.433154 
L 101.379397 114.119273 
L 101.148247 113.978757 
L 101.451176 113.858316 
L 101.350199 113.306599 
L 102.277235 113.560864 
L 102.075283 113.255498 
L 102.593548 113.255498 
L 102.538801 112.836994 
L 102.992586 113.672789 
L 102.74197 113.733618 
L 102.757786 114.08095 
L 103.411091 113.766467 
L 103.196972 114.174021 
L 103.502335 114.174021 
L 103.81743 115.723338 
L 104.226202 114.897886 
L 104.721351 115.064559 
L 104.941552 115.50983 
L 105.633788 115.446567 
L 107.765242 116.048775 
L 108.217811 115.305445 
L 109.598633 116.751962 
L 111.502586 117.458796 
L 112.119393 118.371233 
L 112.012334 118.590215 
L 111.593829 118.172322 
L 111.400393 118.376708 
L 110.425909 118.172322 
L 109.498873 118.989258 
L 108.684979 118.653478 
L 107.545041 118.535472 
L 107.265226 118.756282 
L 106.371038 118.376708 
L 106.107039 118.466128 
L 105.451301 120.214354 
L 105.596075 120.853061 
L 105.962266 120.734444 
L 106.452298 121.358842 
L 107.553557 122.014899 
L 108.422197 123.146321 
L 108.692279 124.186501 
L 109.457509 124.663403 
L 109.860199 125.642749 
L 109.918595 125.384833 
L 110.369947 125.855654 
L 109.053604 125.92074 
L 108.783522 126.960919 
L 109.092534 127.617873 
L 108.72756 127.897077 
L 108.72756 128.314974 
L 109.503739 128.449409 
L 110.598665 127.137931 
L 111.561998 127.502373 
L 112.649824 128.07774 
L 113.747182 129.131909 
L 114.422385 128.097816 
L 115.287376 128.417167 
L 115.342122 128.682992 
L 115.181533 129.124611 
L 114.991747 129.029716 
L 114.815342 129.254784 
L 114.265446 130.523075 
L 114.663269 132.04867 
L 114.462532 134.09983 
L 113.849375 134.823087 
L 113.949135 135.348651 
L 113.747182 135.497076 
L 113.951568 135.895503 
L 113.349359 136.191742 
L 112.276333 136.049402 
L 111.531784 134.921628 
L 111.247103 134.96786 
L 110.713023 134.577944 
L 110.174077 133.516478 
L 110.166777 132.245757 
L 109.44291 131.793795 
L 110.116897 131.676395 
L 110.480656 131.181852 
L 111.133961 131.641723 
L 111.637627 131.54196 
L 111.912575 131.067493 
L 112.564663 131.072361 
L 112.966136 130.593025 
L 112.904089 129.942157 
L 111.910141 129.957364 
L 110.934442 129.650781 
L 110.12663 130.945835 
L 109.298137 131.293171 
L 108.987908 131.088785 
L 108.422197 131.58941 
L 108.217811 131.181852 
L 108.531689 130.920289 
L 107.895417 130.93732 
L 108.013425 131.293171 
L 107.703197 131.005447 
L 108.017075 130.307129 
L 107.571806 130.408105 
L 107.279826 130.973815 
L 106.78346 130.92637 
L 104.995919 129.656755 
L 104.175105 128.723139 
L 103.334446 128.614865 
L 102.213974 129.089328 
L 102.075283 128.97862 
L 101.749238 127.477357 
L 102.140978 126.304571 
L 101.95071 125.615559 
L 101.275988 125.100154 
L 100.432895 123.906685 
L 100.524139 123.49548 
L 100.101985 122.558711 
L 98.553274 121.7728 
L 97.160286 121.387752 
L 95.472886 120.213137 
L 94.808631 119.500222 
L 95.523982 118.887672 
L 94.429057 117.78484 
L 93.881595 117.559772 
L 94.093281 117.321321 
L 92.954558 116.836514 
L 92.775721 117.003793 
L 92.393714 116.924716 
L 92.39128 116.382121 
L 90.971052 115.322076 
L 90.655216 114.905795 
L 90.341338 115.305445 
L 89.498246 115.253131 
L 88.85224 114.897886 
L 88.917936 115.337072 
L 90.247661 117.015349 
L 90.290241 118.274515 
L 89.962981 118.202126 
L 89.887552 118.486199 
L 90.067607 119.526379 
L 92.137015 121.244802 
L 92.082268 121.489945 
L 91.107785 120.844546 
L 92.410746 122.690101 
L 92.685693 123.603759 
L 92.954558 125.855654 
L 91.421664 126.672589 
L 90.179533 125.698103 
L 90.392434 124.630554 
L 90.121137 123.771644 
L 88.537145 121.457096 
L 87.398423 120.420568 
L 86.494502 120.423608 
L 86.505451 120.214354 
L 85.529751 119.963741 
L 84.021189 117.604783 
L 83.524822 117.245285 
L 83.432362 117.536656 
L 82.471262 117.16438 
L 81.687782 116.540274 
L 80.045394 115.823707 
L 79.43467 115.091933 
L 78.51615 114.785961 
L 77.994235 115.43136 
L 77.201023 115.675893 
L 76.974738 115.917385 
L 76.516086 115.867505 
L 75.891979 116.146103 
L 75.070786 116.44599 
L 74.475582 117.027228 
L 74.159565 117.368766 
L 74.202145 118.794605 
L 74.618217 118.887672 
L 74.108468 119.453383 
L 73.282408 119.295837 
L 71.848057 120.378593 
L 70.05238 119.71434 
L 68.882027 120.019095 
L 68.26157 119.81471 
L 68.479338 118.478901 
L 68.274952 117.932048 
L 67.736006 117.599919 
L 67.395362 117.606611 
L 66.231092 118.915046 
L 65.997508 118.90653 
L 65.896532 118.557371 
L 66.27124 117.978276 
L 66.574169 117.887639 
L 66.619182 117.559772 
L 66.322336 117.245285 
L 66.369783 116.091962 
L 65.83692 115.636352 
L 63.88187 115.314566 
L 63.267496 115.409461 
L 63.2091 115.877238 
L 63.537577 116.486137 
L 62.631223 116.428349 
L 62.648255 117.682647 
L 62.120258 117.152218 
L 61.720002 114.785961 
L 62.220018 114.450185 
L 61.960886 114.057227 
L 61.9913 112.766433 
L 61.406123 112.336373 
L 61.661606 111.978698 
L 61.30393 111.715307 
L 61.720002 111.613114 
L 61.509533 111.330864 
L 61.6505 111.053792 
L 62.110525 110.294339 
L 63.391588 109.86184 
L 65.855168 107.464564 
L 66.575385 107.378189 
L 67.093935 106.921285 
L 67.282124 106.760297 
L 67.446459 106.341658 
L 67.383197 105.991281 
L 66.896295 104.938501 
L 66.427336 103.943985 
L 65.296757 102.944955 
L 62.654338 102.67974 
L 62.17987 102.432778 
L 62.018065 101.275805 
L 62.018065 101.888964 
L 61.609293 102.092133 
L 61.720002 100.857911 
L 61.486418 100.828103 
L 61.303931 101.785553 
L 60.993702 101.61888 
L 60.88421 101.960131 
L 60.792966 103.817854 
L 61.434105 104.633575 
L 61.668906 106.766243 
L 61.171323 107.728561 
L 60.077615 107.715788 
L 59.71264 108.030276 
L 58.441311 107.144601 
L 58.222325 105.044781 
L 57.610384 104.644524 
L 57.168764 104.684671 
L 56.515459 103.880511 
L 56.353654 103.416991 
L 56.806222 103.156644 
L 56.376768 102.857974 
L 56.953413 102.274265 
L 57.099419 101.981424 
L 55.85972 101.168748 
L 55.354839 103.002138 
L 54.640704 102.857974 
L 53.925354 102.306251 
L 54.231932 101.981424 
L 53.925354 102.092133 
L 53.577411 100.971049 
L 53.522665 98.441775 
L 52.767166 96.091336 
L 52.807314 95.347396 
L 51.059084 92.961676 
L 51.365663 92.613733 
L 51.26347 92.155081 
L 51.847429 92.262749 
L 52.190506 91.686089 
L 51.299967 90.449432 
L 51.529901 89.055228 
L 50.745205 88.266881 
L 51.077332 88.192669 
L 51.068116 87.394591 
L 51.214806 86.620844 
L 50.745205 85.397571 
L 50.163678 85.087949 
L 49.304771 85.696849 
L 49.080919 85.254621 
L 49.110117 83.544106 
L 49.416696 82.365237 
z
" clip-path="url(#p359d3465e3)" style="fill: #ffeadb; stroke: #000000; stroke-width: 0.5"/>
    <path d="M 81.118421 218.115237 
L 81.198244 216.662148 
L 81.634252 215.712486 
L 83.392215 214.368769 
L 83.11605 213.890045 
L 83.330169 212.205076 
L 83.790038 211.076694 
L 84.811968 210.167906 
L 84.326551 209.951965 
L 84.464025 208.499973 
L 84.072285 207.837545 
L 84.556485 206.786413 
L 86.392309 204.317966 
L 86.998168 203.872696 
L 89.177068 203.025954 
L 89.779276 203.094086 
L 89.948382 202.898216 
L 90.179532 203.000409 
L 92.173512 202.398199 
L 92.78302 201.566058 
L 92.972807 202.052691 
L 93.62003 202.294789 
L 95.41449 202.040525 
L 96.761248 201.601336 
L 97.783177 200.546558 
L 97.045928 199.919413 
L 96.953467 199.409057 
L 97.525261 198.897484 
L 97.461999 198.08298 
L 98.206548 196.69364 
L 98.586122 196.328668 
L 100.494941 195.915029 
L 101.19691 196.260536 
L 102.335632 196.045202 
L 103.13371 194.55124 
L 103.71767 194.594427 
L 104.10211 194.311572 
L 103.436639 193.415558 
L 103.515717 193.209345 
L 103.929355 193.153385 
L 104.880724 193.67408 
L 105.246915 193.573104 
L 105.379523 194.714261 
L 105.785861 194.769615 
L 106.268845 195.307951 
L 106.798059 193.994041 
L 107.042592 194.028106 
L 106.982979 194.28785 
L 108.379617 194.631533 
L 108.625367 195.011106 
L 108.922213 194.939328 
L 110.399145 197.900494 
L 110.778719 201.5618 
L 109.056037 203.13849 
L 107.815122 203.470618 
L 107.708063 203.862357 
L 107.604653 204.480992 
L 107.878263 204.49442 
L 112.063431 201.512527 
L 113.070761 201.182834 
L 115.495412 201.083682 
L 116.000294 200.838539 
L 116.634134 199.819044 
L 116.440149 199.174693 
L 117.338535 196.328668 
L 118.594049 194.933247 
L 119.553933 194.680195 
L 119.706006 195.307951 
L 120.389726 195.483139 
L 121.072229 196.125495 
L 122.356941 196.328668 
L 122.043062 197.229546 
L 122.145256 197.563497 
L 122.440885 196.907762 
L 123.174485 196.950338 
L 123.787643 196.542785 
L 123.787643 195.623655 
L 124.093005 195.104783 
L 123.68545 193.990394 
L 124.305907 193.053622 
L 124.200064 189.832112 
L 124.473796 189.071749 
L 124.798623 188.853981 
L 126.211077 189.159341 
L 127.871712 190.289548 
L 129.207521 191.604675 
L 130.278114 190.92643 
L 130.397339 189.656318 
L 130.134557 188.961037 
L 130.52137 187.846477 
L 130.744065 187.754188 
L 131.793977 189.065058 
L 134.072637 189.364337 
L 135.200409 188.833299 
L 135.560518 187.815017 
L 135.579984 186.243191 
L 134.43271 182.423546 
L 133.419332 178.615825 
L 134.346368 176.76905 
L 135.05807 177.412013 
L 136.285602 177.790373 
L 136.601914 179.38592 
L 137.098279 179.933382 
L 137.835529 180.0447 
L 137.722386 180.258211 
L 138.132375 180.462596 
L 138.744316 180.462596 
L 139.153088 180.870759 
L 140.168935 181.041083 
L 140.948765 181.640858 
L 141.441481 181.711419 
L 141.715213 182.299028 
L 142.020575 181.891475 
L 141.996243 182.283214 
L 141.234662 182.68955 
L 141.095972 183.018031 
L 141.766309 183.364148 
L 142.33567 183.125087 
L 142.375817 184.218188 
L 143.293121 185.394016 
L 143.759072 185.470663 
L 144.570533 185.163474 
L 145.416059 184.460896 
L 145.784683 184.721856 
L 145.317515 185.836851 
L 145.10218 187.681193 
L 145.671541 187.98777 
L 147.102243 189.725662 
L 147.591309 191.265245 
L 146.912456 192.535362 
L 145.927024 193.053622 
L 146.335796 193.573104 
L 146.232386 193.777489 
L 145.383211 193.731261 
L 144.496322 194.243441 
L 144.079034 194.944803 
L 144.795601 196.134011 
L 145.846729 196.225258 
L 146.018267 196.134011 
L 145.722637 195.716726 
L 147.959934 195.92111 
L 148.485498 196.656533 
L 148.580391 197.052535 
L 147.959934 197.210688 
L 147.911271 197.561674 
L 148.16432 197.563497 
L 148.222716 197.81168 
L 148.108357 198.107313 
L 147.397873 198.832393 
L 148.233665 199.642028 
L 147.489116 200.812993 
L 147.832193 201.22298 
L 149.293309 200.430375 
L 149.395502 202.592851 
L 149.047559 202.803322 
L 148.877238 203.339228 
L 149.200849 204.317966 
L 148.339508 205.017505 
L 148.159454 205.522386 
L 148.497664 206.513901 
L 149.227614 207.051021 
L 149.714247 207.80713 
L 151.140082 208.215294 
L 150.935697 209.606453 
L 151.525739 212.014072 
L 150.894333 212.601682 
L 150.843236 212.835875 
L 151.242275 213.142455 
L 150.935696 214.469139 
L 151.66078 214.831679 
L 151.093852 215.964318 
L 150.733744 216.1024 
L 150.248327 217.193676 
L 149.548792 217.980198 
L 149.176517 219.216245 
L 147.650922 218.969279 
L 147.270131 219.297756 
L 146.938004 220.566043 
L 147.558462 221.224825 
L 147.503715 222.161593 
L 147.043847 221.989448 
L 146.054765 220.177347 
L 145.609495 219.956537 
L 145.295617 220.089753 
L 145.305349 220.71386 
L 144.999987 220.40728 
L 144.937941 220.726024 
L 145.534067 221.872046 
L 146.232386 222.45844 
L 146.271316 222.785093 
L 145.846729 224.707902 
L 145.818748 226.909309 
L 145.419708 229.68616 
L 145.203156 229.631415 
L 145.051084 228.498775 
L 144.538902 228.146575 
L 144.487806 227.47867 
L 143.847883 226.234105 
L 143.662962 224.356309 
L 143.861265 222.749202 
L 143.609432 221.324585 
L 142.757824 220.962043 
L 142.178731 220.153016 
L 142.224961 218.876211 
L 141.743194 218.261591 
L 140.970664 217.458284 
L 140.193267 215.174756 
L 140.232198 213.947224 
L 139.896057 213.674238 
L 137.594645 215.014167 
L 137.297799 215.426588 
L 137.314831 217.039779 
L 137.030151 217.643204 
L 136.49972 218.15356 
L 135.10065 218.73752 
L 134.764873 219.284983 
L 134.66268 220.267373 
L 133.510576 221.783237 
L 133.167499 224.094745 
L 133.539774 225.116675 
L 133.974094 225.126407 
L 133.937596 224.713985 
L 135.468058 226.252961 
L 135.747872 226.073516 
L 136.295334 226.457349 
L 138.100744 232.259842 
L 137.453522 234.665028 
L 133.780657 239.926141 
L 133.270909 240.291116 
L 132.059011 240.144942 
L 131.786677 238.314168 
L 131.032396 237.986299 
L 130.780563 237.411464 
L 130.185654 236.934563 
L 130.601725 235.76056 
L 131.633388 234.230098 
L 131.613922 233.380923 
L 131.368173 232.65584 
L 131.06646 232.511066 
L 129.837711 232.293298 
L 129.155208 234.616972 
L 128.510419 235.986844 
L 126.561452 235.953388 
L 121.584411 234.034229 
L 121.287564 233.580443 
L 118.063496 231.936624 
L 115.947981 230.974522 
L 113.603625 227.917248 
L 113.020882 225.810734 
L 113.362741 225.656837 
L 113.08441 222.579806 
L 113.075628 221.964508 
L 112.783648 221.836157 
L 112.488018 222.168285 
L 112.012334 221.642112 
L 112.356627 218.736912 
L 112.968569 217.24903 
L 115.27521 215.58596 
L 115.80564 214.784842 
L 115.805641 214.172291 
L 116.216846 212.928943 
L 115.334823 212.835875 
L 115.029235 212.514463 
L 113.502648 209.959874 
L 111.196007 208.521872 
L 110.462285 208.453817 
L 109.451427 208.348507 
L 108.102236 206.870358 
L 106.767737 206.510133 
L 105.396555 206.479836 
L 104.226202 206.990803 
L 104.279731 207.512715 
L 105.02063 208.374058 
L 104.83936 209.050476 
L 104.226202 209.5511 
L 103.559514 209.709863 
L 103.443939 210.364993 
L 102.992586 210.164259 
L 102.863629 210.417917 
L 103.597228 211.613818 
L 104.330828 212.205076 
L 104.422072 212.861423 
L 104.021816 213.458158 
L 102.693307 212.684409 
L 101.859948 211.755548 
L 101.768704 211.193487 
L 101.223675 211.135699 
L 100.756507 211.655181 
L 100.323403 211.78049 
L 99.681047 211.299331 
L 99.486394 210.410614 
L 100.228509 210.164259 
L 100.37085 209.608888 
L 99.677397 209.083324 
L 99.513159 208.010905 
L 99.34162 207.887424 
L 99.020442 208.291936 
L 98.33064 209.177001 
L 98.381736 209.663635 
L 98.075157 209.913036 
L 98.17735 210.275578 
L 97.761279 211.082169 
L 97.677334 211.908839 
L 96.841542 211.704452 
L 96.341526 210.785323 
L 95.809879 211.23546 
L 95.732018 211.8547 
L 94.918124 212.102275 
L 94.699139 212.010423 
L 94.742936 211.703843 
L 94.374311 211.618684 
L 94.54585 210.963552 
L 95.013018 211.082169 
L 94.494753 208.938551 
L 94.808631 207.857616 
L 94.654125 207.629508 
L 93.677209 207.696418 
L 93.157728 207.185456 
L 92.362083 207.21891 
L 90.275642 208.569927 
L 89.264662 209.872278 
L 89.111372 210.321199 
L 89.888769 210.321806 
L 89.422818 211.379624 
L 89.261012 211.500067 
L 89.371721 210.887516 
L 89.206266 210.868662 
L 88.009148 211.901539 
L 87.831527 212.205076 
L 88.296262 213.116298 
L 88.198935 213.397936 
L 87.786513 214.010487 
L 87.116176 214.172291 
L 86.821763 214.567682 
L 86.269434 217.486264 
L 85.65506 218.333006 
L 84.938492 220.04474 
L 84.478624 220.470543 
L 83.196345 220.205327 
L 81.687782 219.284983 
z
" clip-path="url(#p359d3465e3)" style="fill: #ffeadb; stroke: #000000; stroke-width: 0.5"/>
    <path d="M 10.729351 198.367658 
L 11.206252 197.470431 
L 11.206252 196.542785 
L 11.91917 195.215491 
L 11.827926 194.900398 
L 12.067593 194.97704 
L 12.240347 194.441138 
L 13.155218 193.573104 
L 12.950832 193.573104 
L 13.258628 193.088905 
L 14.3937 192.462973 
L 15.652863 190.57058 
L 17.191841 189.193407 
L 17.682124 188.205539 
L 18.530082 187.851517 
L 18.787998 188.112472 
L 19.272198 187.90626 
L 19.711385 187.055867 
L 19.603109 186.808901 
L 20.835508 186.027857 
L 21.1871 185.325889 
L 22.674981 185.074055 
L 22.879367 185.583804 
L 23.644598 184.714553 
L 24.828333 183.941418 
L 24.828334 183.32035 
L 25.715223 182.76559 
L 26.065599 181.926147 
L 26.975603 181.302039 
L 27.806529 180.30505 
L 28.051062 179.418162 
L 28.547428 179.238106 
L 30.762826 177.497175 
L 32.817635 174.505597 
L 32.646097 174.179551 
L 33.632746 173.586468 
L 34.367562 172.166716 
L 34.441774 172.880242 
L 34.237388 173.087061 
L 34.484354 173.280498 
L 34.807965 173.389382 
L 35.275133 172.871726 
L 35.02695 171.298075 
L 36.153506 170.9331 
L 36.788563 170.987847 
L 37.158404 170.605231 
L 37.029446 169.903263 
L 37.682751 169.633181 
L 38.151136 169.494491 
L 38.28861 168.899582 
L 38.048943 168.779748 
L 37.547711 168.978659 
L 37.478365 168.619159 
L 37.810493 168.179364 
L 38.1925 168.035199 
L 38.857971 168.269392 
L 39.041675 167.801615 
L 39.376235 167.759643 
L 39.062357 167.146485 
L 39.580621 166.830782 
L 39.682814 168.218295 
L 40.066038 168.164766 
L 41.219359 166.865455 
L 41.938359 166.524811 
L 41.529587 165.810677 
L 42.128146 165.785129 
L 42.551517 165.300929 
L 42.894594 163.117162 
L 42.51867 162.570916 
L 42.141529 162.729072 
L 41.876314 162.586123 
L 41.759522 161.764929 
L 41.120816 161.402996 
L 41.63178 160.800788 
L 41.20111 160.424863 
L 41.248557 159.902949 
L 41.477274 159.923631 
L 41.529588 160.28009 
L 41.733974 160.075704 
L 42.141529 160.179113 
L 41.938359 160.475959 
L 42.141529 160.892639 
L 41.836166 160.892639 
L 41.938359 161.042279 
L 42.457841 160.994832 
L 42.353214 161.308711 
L 42.763203 161.811768 
L 42.967589 161.699843 
L 43.835013 162.725421 
L 44.040615 162.612279 
L 44.434788 163.246728 
L 44.770565 163.169475 
L 44.354494 162.221756 
L 44.609976 161.699843 
L 44.033316 161.25214 
L 43.09168 161.000307 
L 43.171975 160.179113 
L 42.635462 160.166948 
L 42.5649 159.159617 
L 42.65371 158.832356 
L 43.171975 159.1584 
L 42.675609 158.209466 
L 42.788751 157.634022 
L 43.421374 158.33234 
L 43.989519 158.33234 
L 44.241351 157.345691 
L 43.580747 156.383374 
L 43.960321 156.232517 
L 44.193905 155.771433 
L 44.142808 154.485505 
L 44.864242 153.823075 
L 45.022398 153.035336 
L 45.28518 152.844332 
L 45.599058 154.091331 
L 45.836292 154.333431 
L 46.039461 154.129046 
L 46.258446 154.666776 
L 46.168419 155.879709 
L 45.500515 157.416253 
L 46.179368 158.290368 
L 46.338741 158.943674 
L 46.141654 159.1584 
L 45.518764 158.995379 
L 45.32411 160.892639 
L 45.728016 161.866514 
L 46.652619 161.607382 
L 46.79131 161.797778 
L 46.613689 164.069746 
L 47.551674 164.0296 
L 47.774309 164.372676 
L 47.265777 164.372676 
L 47.689148 165.586218 
L 48.624701 166.369088 
L 48.394766 166.729198 
L 47.774309 166.933583 
L 46.201267 168.538865 
L 44.703653 168.464045 
L 43.10263 169.206161 
L 41.628131 170.803534 
L 41.080668 172.863818 
L 40.715693 173.279889 
L 38.857971 174.003148 
L 35.908973 174.542703 
L 35.08048 175.033594 
L 34.405276 175.106589 
L 34.051251 175.803693 
L 34.562216 177.287921 
L 34.460023 178.095733 
L 33.828616 177.957045 
L 33.739805 177.404715 
L 33.310351 177.47771 
L 33.540286 178.718018 
L 33.938109 178.654144 
L 34.138845 179.090292 
L 33.744672 179.126181 
L 33.279937 180.345196 
L 32.835884 180.550798 
L 32.381149 181.281159 
L 30.274977 184.382426 
L 29.272512 184.987676 
L 28.120408 186.333217 
L 25.65926 186.739557 
L 24.806435 187.178135 
L 24.521755 188.339363 
L 24.258973 188.384378 
L 23.704211 189.787707 
L 23.036307 190.751848 
L 21.492463 191.616838 
L 19.174871 193.703281 
L 17.858529 194.08346 
L 16.3378 194.138208 
L 16.225874 195.104783 
L 15.549454 196.44485 
L 15.259907 196.5513 
L 14.941162 196.339617 
L 13.039643 196.975888 
L 10.734217 198.963176 
z
" clip-path="url(#p359d3465e3)" style="fill: #ffeadb; stroke: #000000; stroke-width: 0.5"/>
    <path d="M 116.657249 136.251353 
L 116.915164 135.553036 
L 117.955343 136.096847 
L 118.619598 135.895503 
L 120.552748 136.411945 
L 122.681769 136.510488 
L 125.641716 136.24953 
L 125.915447 135.937477 
L 125.634416 135.38454 
L 126.404513 135.895503 
L 127.079717 135.607783 
L 128.218439 136.309752 
L 128.849845 136.040887 
L 129.108977 135.563379 
L 129.963019 135.581016 
L 131.545794 136.763538 
L 132.703981 138.252635 
L 132.154085 138.741701 
L 132.079874 139.112759 
L 132.397402 139.384664 
L 132.201532 139.707669 
L 132.806174 139.476518 
L 132.703981 139.895021 
L 133.317139 139.680903 
L 133.224679 139.96315 
L 133.937596 139.997216 
L 134.959526 140.506964 
L 135.524021 141.480229 
L 135.514288 141.645685 
L 135.266105 141.527676 
L 134.643215 141.732062 
L 135.061719 142.038033 
L 134.346368 142.344613 
L 134.314737 142.622602 
L 134.959526 142.660316 
L 134.857333 142.863484 
L 135.328151 143.372017 
L 134.141982 145.010754 
L 134.346368 146.760809 
L 134.857333 147.359367 
L 134.70891 147.569229 
L 134.312304 147.426888 
L 134.207678 147.954277 
L 134.677279 147.851476 
L 134.959526 148.691526 
L 134.937628 149.069275 
L 134.448561 149.414785 
L 134.638348 149.492646 
L 134.448561 150.027336 
L 134.809887 150.282817 
L 135.414528 151.82362 
L 135.266105 152.290789 
L 135.682176 152.290789 
L 135.828166 152.822436 
L 137.010685 153.664311 
L 136.970538 154.292067 
L 135.941309 155.164357 
L 135.774637 156.005625 
L 136.434025 156.345659 
L 136.908492 156.178988 
L 136.687074 155.899782 
L 136.879294 155.640041 
L 137.846478 156.293955 
L 139.132406 158.389519 
L 138.846509 158.832356 
L 138.234568 158.433316 
L 138.032615 157.427203 
L 137.217505 156.939352 
L 136.448624 157.404088 
L 135.906028 156.828643 
L 135.525237 156.995315 
L 135.368298 157.821375 
L 134.499658 157.250798 
L 133.825671 157.821375 
L 133.704012 157.429636 
L 133.419332 157.607865 
L 132.217348 156.936919 
L 131.599323 157.144955 
L 131.085925 157.761763 
L 130.750148 157.407737 
L 130.448436 155.771433 
L 130.054263 155.208155 
L 129.463003 154.955106 
L 127.492139 154.840747 
L 127.582166 152.801754 
L 126.550503 152.254291 
L 126.153897 151.669723 
L 125.795005 152.213536 
L 125.326621 152.101 
L 124.910549 151.56753 
L 125.532223 151.057172 
L 125.983576 150.968969 
L 125.837585 150.648402 
L 126.711092 150.648402 
L 127.145412 150.311408 
L 127.479973 149.832074 
L 127.428876 148.956133 
L 127.992154 148.29188 
L 128.306033 148.496265 
L 128.130845 147.844784 
L 127.531069 147.578353 
L 126.404513 148.088709 
L 125.869217 147.78943 
L 124.98841 146.535133 
L 124.399584 146.344129 
L 124.605187 146.241937 
L 124.399584 146.14826 
L 124.605187 145.731581 
L 124.910549 145.935966 
L 124.84607 145.631212 
L 124.41175 145.472448 
L 123.905651 145.698732 
L 123.92025 145.284485 
L 123.583257 145.322808 
L 123.429967 144.552711 
L 122.691501 143.778964 
L 121.039381 143.46326 
L 119.90066 142.761292 
L 118.615948 141.326332 
L 118.067488 139.887368 
z
" clip-path="url(#p359d3465e3)" style="fill: #ffeadb; stroke: #000000; stroke-width: 0.5"/>
    <path d="M 80.444434 147.670205 
L 80.969998 146.925049 
L 81.08679 145.811266 
L 82.086821 145.21149 
L 84.040654 146.695114 
L 86.048016 147.217028 
L 87.444653 148.076545 
L 88.428869 148.297963 
L 89.218432 149.344223 
L 91.482304 150.886428 
L 91.520207 150.972012 
L 91.561571 151.222627 
L 91.661331 151.44283 
L 91.932629 151.56753 
L 92.023873 151.542588 
L 92.216093 151.397815 
L 92.413179 151.308398 
L 92.410746 151.183698 
L 92.359649 151.046225 
L 92.341401 150.954979 
L 92.408313 150.711662 
L 92.50199 150.670299 
L 92.699076 150.797433 
L 92.885213 151.012767 
L 92.983757 151.063255 
L 93.157728 151.057172 
L 93.005655 150.871035 
L 93.02877 150.781009 
L 93.140696 150.726261 
L 93.259921 150.648402 
L 93.554334 150.319314 
L 93.593265 150.183667 
L 93.547034 150.136828 
L 93.51297 150.08573 
L 93.464307 150.027336 
L 93.921742 149.996313 
L 94.498403 150.019427 
L 95.042215 150.124053 
L 95.41084 150.333913 
L 95.537365 150.559591 
L 95.615226 150.79439 
L 95.707686 150.981745 
L 95.880441 151.057172 
L 96.086044 151.09002 
L 96.749082 151.363143 
L 95.99845 151.889315 
L 95.722285 152.21171 
L 95.727152 152.486659 
L 96.09456 152.625957 
L 96.498465 152.428871 
L 96.912104 152.136281 
L 97.30506 151.985426 
L 97.699233 151.8881 
L 98.239396 151.461078 
L 98.918249 151.254259 
L 100.024124 150.231721 
L 100.036289 151.130167 
L 99.403666 151.56753 
L 99.819738 151.781039 
L 99.677397 152.007323 
L 100.126316 151.985426 
L 100.192012 152.184337 
L 99.92193 152.847984 
L 99.976677 153.485472 
L 99.403666 154.230021 
L 99.275925 155.186256 
L 99.542357 156.44177 
L 99.196847 156.903463 
L 98.195599 156.7301 
L 98.002162 157.530612 
L 97.15542 158.127954 
L 97.16637 158.440008 
L 96.841542 158.637703 
L 96.655405 158.221022 
L 96.451019 158.739895 
L 95.932754 158.637703 
L 95.523982 158.944281 
L 95.523982 158.739895 
L 94.768484 159.195506 
L 94.290367 159.816572 
L 94.559232 161.03498 
L 94.012986 162.002163 
L 93.52027 162.321517 
L 92.892513 162.149978 
L 91.819487 162.738804 
L 91.447212 163.67679 
L 89.686936 163.849934 
L 87.013983 164.279607 
L 86.505451 164.586186 
L 86.016385 164.521099 
L 85.050418 165.246182 
L 84.151363 165.611157 
L 83.125783 167.231646 
L 82.361769 167.690298 
L 81.877569 167.646501 
L 81.578289 167.146485 
L 81.619653 166.517512 
L 82.403133 164.780231 
L 82.30094 163.505252 
L 81.687782 162.525903 
L 82.30094 160.586061 
L 83.303404 158.912651 
L 83.253524 154.681374 
L 83.617283 153.788403 
L 84.231657 149.336923 
L 83.89223 148.339327 
z
" clip-path="url(#p359d3465e3)" style="fill: #ffeadb; stroke: #000000; stroke-width: 0.5"/>
    <path d="M 117.022224 151.057172 
L 117.612267 150.935515 
L 119.152461 152.491525 
L 119.706006 153.414302 
L 119.84713 152.495174 
L 120.051516 152.537755 
L 120.679273 153.058452 
L 121.411656 154.396085 
L 121.944519 154.621761 
L 122.66352 154.647917 
L 123.656252 154.261044 
L 125.170898 152.699559 
L 126.700143 152.98424 
L 127.240306 153.472091 
L 127.112565 154.17345 
L 127.088233 155.030533 
L 127.767086 155.396725 
L 127.827916 155.76535 
L 128.101647 155.464853 
L 128.056633 156.21366 
L 127.889961 156.541529 
L 128.270752 159.648075 
L 127.66976 161.494848 
L 127.684359 162.841605 
L 129.27565 163.611702 
L 129.985644 164.821612 
L 130.37909 165.1081 
L 130.246483 166.163486 
L 130.448436 167.648326 
L 130.750148 168.16659 
L 130.948451 168.338737 
L 131.163787 168.167199 
L 131.463066 168.614901 
L 131.601757 169.631965 
L 131.364523 170.219574 
L 130.904654 170.319942 
L 129.583445 169.954359 
L 129.735518 171.34978 
L 129.226986 171.169726 
L 128.506769 170.127114 
L 128.101647 168.677555 
L 127.342499 168.421465 
L 127.17461 168.677555 
L 127.479973 171.136878 
L 128.108946 173.389382 
L 127.952007 173.819444 
L 125.72566 172.10467 
L 124.195198 171.851012 
L 123.979407 171.349897 
L 124.371603 169.253607 
L 124.054075 168.511492 
L 123.574741 168.210387 
L 123.54311 167.428733 
L 124.459197 164.268658 
L 124.495694 163.291133 
L 124.093005 161.699843 
L 122.869123 160.075704 
L 121.831377 159.142585 
L 120.743752 159.422398 
L 120.940838 160.197362 
L 120.219404 161.061136 
L 119.542984 160.586061 
L 119.20964 160.620733 
L 119.058784 160.141399 
L 118.448059 160.158431 
L 118.776537 159.1584 
L 118.334917 158.188175 
L 118.776537 157.250798 
L 118.572151 154.647917 
L 117.831251 154.259221 
L 117.747307 153.980015 
L 118.063619 153.567591 
L 117.531972 153.31211 
L 117.737575 153.206266 
L 117.182813 152.194678 
z
" clip-path="url(#p359d3465e3)" style="fill: #ffeadb; stroke: #000000; stroke-width: 0.5"/>
    <path d="M 57.314754 122.631706 
L 57.537389 121.98205 
L 58.413329 121.405389 
L 61.183489 121.603087 
L 63.048511 122.070253 
L 63.290611 121.94312 
L 64.010828 122.296537 
L 66.086072 121.72929 
L 66.414797 121.550163 
L 66.60945 121.725351 
L 66.935494 121.345777 
L 67.341833 121.345777 
L 67.375897 121.58788 
L 67.037687 121.754548 
L 68.081515 122.971744 
L 69.304182 123.055684 
L 69.552364 123.222968 
L 69.497619 123.712639 
L 69.789598 123.183427 
L 70.626608 122.682803 
L 70.935619 123.2327 
L 72.66925 124.630554 
L 73.304307 125.609905 
L 74.115768 125.921347 
L 74.202145 127.090486 
L 75.558636 127.169562 
L 75.946726 127.609964 
L 75.889546 127.918977 
L 74.997791 128.724356 
L 75.035505 130.569913 
L 74.822603 131.386237 
L 74.939395 132.735432 
L 75.545253 133.691666 
L 75.837234 135.085866 
L 74.877349 136.165585 
L 74.22526 136.425329 
L 74.311638 137.017802 
L 74.052506 137.121212 
L 73.845687 138.019659 
L 74.311638 138.864576 
L 73.424749 138.713112 
L 73.596287 139.895021 
L 72.983129 139.377975 
L 71.760463 140.201601 
L 71.384539 140.935809 
L 69.378393 140.466817 
L 69.074247 139.683338 
L 69.191039 139.282472 
L 69.413674 139.660221 
L 69.811497 139.588443 
L 69.497618 139.588443 
L 69.09128 139.059837 
L 68.98422 139.384664 
L 68.436758 138.999617 
L 66.429396 136.563408 
L 66.515773 134.998275 
L 65.504793 133.529857 
L 64.658051 133.31878 
L 64.171417 131.793795 
L 64.385536 131.248766 
L 64.066791 129.238359 
L 62.670153 126.943278 
L 61.346511 125.963928 
L 60.426774 125.827669 
L 60.597096 125.549071 
L 59.906077 124.766808 
L 59.494871 122.991815 
L 58.83305 122.988164 
L 58.052004 123.585506 
L 57.628633 123.340974 
z
" clip-path="url(#p359d3465e3)" style="fill: #ffeadb; stroke: #000000; stroke-width: 0.5"/>
    <path d="M 88.537145 176.471595 
L 89.72453 174.505597 
L 91.005592 174.309728 
L 92.239208 174.616305 
L 93.210041 174.325541 
L 94.323215 173.330378 
L 94.699139 173.085844 
L 94.991119 173.253733 
L 95.259984 173.116259 
L 95.677272 172.62111 
L 95.415706 170.713507 
L 95.626175 168.881941 
L 94.808631 166.422618 
L 94.946105 166.156186 
L 95.626175 165.861773 
L 96.381176 164.878722 
L 97.217466 163.023485 
L 96.86344 161.449227 
L 97.486331 160.567203 
L 98.890268 160.28009 
L 100.771106 159.226529 
L 101.462125 159.250252 
L 102.688441 159.974727 
L 103.411091 159.770342 
L 103.639809 160.371334 
L 104.240801 160.035557 
L 105.379523 160.370117 
L 105.750581 161.323918 
L 106.166652 161.699843 
L 106.111906 162.472981 
L 105.305311 163.942005 
L 104.83936 165.91287 
L 103.046039 168.254347 
L 101.91956 172.723303 
L 99.921931 176.101144 
L 100.126316 178.666921 
L 99.976677 179.393218 
L 99.615352 179.431541 
L 99.603185 179.827542 
L 100.230943 180.252736 
L 100.126316 180.656642 
L 99.987626 180.343979 
L 99.604402 180.809324 
L 100.418297 181.196195 
L 100.532655 181.789278 
L 101.338033 182.434069 
L 101.574051 183.116572 
L 102.379428 183.941418 
L 102.486488 184.548492 
L 102.042435 185.856927 
L 101.019288 187.462818 
L 99.78689 188.147144 
L 98.075157 188.543752 
L 97.436451 188.342408 
L 96.586059 187.255388 
L 95.972901 185.767507 
L 95.792847 184.499219 
L 95.259984 183.883019 
L 93.464307 183.524129 
L 91.555488 182.528963 
L 90.549374 181.030133 
L 90.053008 180.674283 
L 89.527444 179.275818 
L 89.261012 179.014256 
L 88.954433 179.228373 
L 89.063925 178.402314 
L 88.647854 178.615825 
L 88.75613 176.984385 
z
" clip-path="url(#p359d3465e3)" style="fill: #ffeadb; stroke: #000000; stroke-width: 0.5"/>
    <path d="M 99.92558 144.607456 
L 100.420729 144.049046 
L 100.46696 143.530781 
L 100.807603 142.227819 
L 101.046053 142.344613 
L 101.230974 141.983288 
L 101.722473 141.767344 
L 101.462125 141.323291 
L 101.982822 140.975956 
L 101.97309 140.702225 
L 100.839234 140.813541 
L 100.834368 140.255131 
L 101.297886 139.632239 
L 101.666511 137.890093 
L 101.202993 137.278152 
L 101.199343 135.3231 
L 102.907426 136.012296 
L 102.637344 136.046968 
L 102.900126 136.814634 
L 102.462156 137.228271 
L 102.458506 137.674758 
L 103.151959 137.176568 
L 103.356345 136.561585 
L 104.068046 136.470339 
L 104.987783 137.218538 
L 105.836958 137.397377 
L 106.686133 138.45702 
L 106.371038 138.975894 
L 107.100988 138.688171 
L 107.261577 139.016649 
L 107.867435 139.173587 
L 109.44291 141.425484 
L 109.462376 140.532512 
L 110.267754 141.221097 
L 110.878479 141.118904 
L 113.280014 144.654903 
L 113.349359 144.904912 
L 112.520866 144.098317 
L 113.451552 146.293033 
L 113.552528 148.29188 
L 113.348143 148.325943 
L 112.647391 147.262649 
L 110.888211 146.154952 
L 110.369947 145.518069 
L 108.684979 145.315508 
L 108.217811 144.904912 
L 108.3784 144.584951 
L 108.72756 144.505872 
L 108.53169 144.098317 
L 108.32852 144.293578 
L 107.436765 143.581269 
L 107.340655 143.187703 
L 107.604653 143.161547 
L 106.768861 143.037457 
L 106.605838 142.448631 
L 105.746931 141.4121 
L 104.834494 140.963181 
L 103.919623 141.221097 
L 103.031517 142.638417 
L 99.965727 145.452375 
z
" clip-path="url(#p359d3465e3)" style="fill: #ffeadb; stroke: #000000; stroke-width: 0.5"/>
    <path d="M 102.277236 181.482701 
L 103.038816 177.331113 
L 103.695772 175.651617 
L 103.71767 175.279954 
L 103.308898 174.978847 
L 103.364861 174.514112 
L 103.535182 174.349268 
L 103.71767 174.505597 
L 103.895291 173.561528 
L 105.172704 172.295065 
L 105.553494 171.276177 
L 106.268845 170.319942 
L 106.63017 169.141682 
L 108.389349 166.734064 
L 108.32852 165.91287 
L 109.206893 164.216953 
L 110.275053 162.870803 
L 111.550033 159.614619 
L 111.2982 158.739895 
L 111.706972 157.710058 
L 112.123043 158.016636 
L 111.911358 156.542746 
L 113.210669 155.029316 
L 113.644989 155.149758 
L 113.546446 155.684447 
L 113.144973 157.227683 
L 112.520866 158.016636 
L 112.783648 158.33234 
L 113.349359 158.221022 
L 113.327461 160.210745 
L 113.552529 160.994832 
L 112.838394 162.943799 
L 113.349359 165.300929 
L 113.034264 165.504098 
L 113.126724 166.88127 
L 112.674155 168.082038 
L 112.80798 168.429372 
L 112.421106 168.779748 
L 112.22402 168.48351 
L 112.123043 169.239617 
L 111.547845 169.498344 
L 110.878479 169.903263 
L 110.5646 170.411795 
L 109.44291 170.736622 
L 108.334603 171.778017 
L 107.985444 172.718436 
L 107.334572 173.171005 
L 106.982979 175.803693 
L 106.575424 176.101144 
L 104.746899 180.870759 
L 103.104512 182.707191 
L 102.476755 182.969975 
z
" clip-path="url(#p359d3465e3)" style="fill: #ffeadb; stroke: #000000; stroke-width: 0.5"/>
    <path d="M 109.553619 177.743534 
L 109.962392 176.471595 
L 110.824949 175.394919 
L 111.282384 175.391268 
L 111.502586 175.033594 
L 113.287313 174.431385 
L 113.652288 173.399723 
L 114.26058 173.146674 
L 114.265446 172.779265 
L 115.027027 172.067564 
L 117.480876 171.707456 
L 117.754607 171.864395 
L 117.8495 172.473295 
L 118.460225 171.851012 
L 118.793569 172.526216 
L 119.849563 173.186821 
L 120.302132 173.162489 
L 121.163473 173.615058 
L 121.262016 174.407052 
L 121.029649 174.309728 
L 120.842295 175.233115 
L 121.268099 175.950896 
L 120.747401 176.191781 
L 121.856925 177.084754 
L 121.440854 178.049505 
L 120.306998 178.003273 
L 120.218188 177.604842 
L 120.000419 177.585988 
L 118.948075 178.382239 
L 118.664611 179.228373 
L 116.926114 180.000902 
L 113.502649 180.170615 
L 111.593829 179.840315 
L 110.610831 179.429107 
L 110.642461 178.290996 
L 109.655812 178.009358 
z
" clip-path="url(#p359d3465e3)" style="fill: #ffeadb; stroke: #000000; stroke-width: 0.5"/>
    <path d="M 50.453225 141.730847 
L 50.745205 141.323291 
L 50.82185 140.460734 
L 51.570048 140.089676 
L 50.947158 140.201601 
L 51.011637 139.399265 
L 51.638177 139.492334 
L 51.772001 140.089676 
L 52.803664 140.293452 
L 53.925354 141.221097 
L 54.436318 141.323291 
L 54.139472 141.732062 
L 54.478899 141.735104 
L 55.661418 142.548998 
L 55.785509 142.304466 
L 56.078706 142.344613 
L 56.081139 140.946759 
L 56.478962 141.450424 
L 56.592104 142.253367 
L 57.011825 142.198622 
L 57.845184 143.016167 
L 57.886548 143.426763 
L 57.442495 143.876899 
L 57.925479 143.782613 
L 57.806254 144.215108 
L 57.405998 144.342851 
L 56.840287 144.172529 
L 56.283092 144.40368 
L 54.854823 143.782613 
L 54.742897 144.599549 
L 54.343858 144.710257 
L 53.960635 144.200509 
L 53.314629 144.293578 
L 52.492219 143.839184 
L 51.161277 141.118904 
L 50.643012 141.843989 
z
" clip-path="url(#p359d3465e3)" style="fill: #ffeadb; stroke: #000000; stroke-width: 0.5"/>
    <path d="M 134.857333 171.96233 
L 135.215009 171.590055 
L 135.163912 171.026169 
L 135.579984 171.136878 
L 135.283137 169.383782 
L 135.886563 169.176963 
L 135.886563 168.464045 
L 136.601913 168.57597 
L 137.010685 167.239554 
L 137.305098 167.298558 
L 137.715087 168.144084 
L 137.364711 170.077234 
L 137.010685 170.413011 
L 137.465687 170.913027 
L 137.291716 171.486038 
L 137.722387 171.54565 
L 137.594645 172.213554 
L 138.039915 173.085844 
L 137.672507 173.799979 
L 137.835529 174.505597 
L 137.665207 174.748912 
L 138.266199 175.701496 
L 137.934072 176.001992 
L 137.397559 175.77936 
L 137.314831 175.033594 
L 136.755203 174.791492 
L 136.704107 174.217874 
L 136.342781 174.227 
L 136.195575 173.976992 
L 136.397527 173.29023 
L 136.572715 173.470285 
L 136.704106 173.239134 
L 136.397527 172.779265 
L 135.266105 173.186821 
L 134.881665 172.497018 
z
" clip-path="url(#p359d3465e3)" style="fill: #ffeadb; stroke: #000000; stroke-width: 0.5"/>
    <path d="M 112.917472 119.263594 
L 113.831126 118.568321 
L 114.349391 117.61695 
L 114.333575 116.179558 
L 114.559859 115.710565 
L 114.265446 114.489726 
L 114.559859 114.165506 
L 114.389538 113.58641 
L 114.574459 113.153305 
L 114.765462 113.394191 
L 115.422417 112.978727 
L 115.752111 113.031647 
L 116.499093 113.985449 
L 116.816621 115.033538 
L 117.13415 115.723338 
L 117.45776 115.32491 
L 118.776537 116.223963 
L 118.358032 116.632128 
L 118.776537 117.347477 
L 118.358032 117.458796 
L 118.358032 118.636448 
L 118.637846 119.298271 
L 117.839767 119.413237 
L 117.531972 120.938223 
L 116.915165 120.243552 
L 116.289841 120.316547 
L 115.856737 120.57568 
L 115.334823 121.457096 
L 113.812877 120.303774 
L 113.236217 120.214354 
z
" clip-path="url(#p359d3465e3)" style="fill: #ffeadb; stroke: #000000; stroke-width: 0.5"/>
    <path d="M 79.914004 100.182096 
L 80.034445 99.193623 
L 80.300877 98.696649 
L 81.04056 99.008094 
L 81.28266 98.624871 
L 81.552741 98.594456 
L 82.706062 98.797626 
L 82.709712 99.215522 
L 83.494408 99.624902 
L 83.422629 99.939997 
L 83.100235 99.558598 
L 82.709711 99.522103 
L 82.519925 99.83598 
L 82.821637 100.377967 
L 82.152516 100.831754 
L 82.30094 101.785553 
L 82.760808 101.997238 
L 82.983443 103.522224 
L 82.691463 104.254 
L 81.735228 104.755843 
L 81.264411 104.294147 
L 81.373903 103.530133 
L 81.656151 103.474779 
L 81.640335 102.888995 
L 81.425 102.211967 
L 80.889703 101.820836 
L 80.797243 100.953412 
L 80.351973 100.339037 
z
" clip-path="url(#p359d3465e3)" style="fill: #ffeadb; stroke: #000000; stroke-width: 0.5"/>
    <path d="M 50.548119 144.904912 
L 51.11018 145.118421 
L 51.128429 144.782644 
L 51.529901 144.499789 
L 52.122377 145.269886 
L 53.20027 145.352614 
L 52.776899 145.567949 
L 53.10051 145.823432 
L 53.975233 146.310066 
L 53.478867 146.401309 
L 53.314629 146.965196 
L 53.925353 147.373968 
L 53.516581 147.782132 
L 53.733133 148.083843 
L 53.433854 148.574735 
L 52.236736 149.240814 
L 52.07858 148.189687 
L 52.497085 148.496265 
L 52.387592 148.088709 
L 52.803664 147.474335 
L 52.387592 147.271773 
L 52.121161 147.723735 
L 51.672241 147.578353 
L 51.26347 146.853877 
L 51.570048 146.649492 
L 50.854698 145.823432 
z
" clip-path="url(#p359d3465e3)" style="fill: #ffeadb; stroke: #000000; stroke-width: 0.5"/>
    <path d="M 50.029854 247.975055 
L 50.066352 246.917236 
L 51.874194 246.026697 
L 52.205105 245.541281 
L 53.270832 245.257209 
L 53.516582 244.997468 
L 54.02998 244.997468 
L 54.186919 244.533341 
L 55.538543 243.709715 
L 55.935149 243.782709 
L 56.022743 244.838704 
L 56.49721 244.884934 
L 55.967997 247.150212 
L 55.48988 246.829034 
L 55.457032 245.813187 
L 55.252646 246.12889 
L 54.90592 246.12889 
L 54.538511 245.610018 
L 54.231933 246.527321 
L 53.110243 246.468925 
L 52.803664 246.945826 
L 52.438689 246.978674 
L 52.044516 247.740255 
L 51.570048 247.557767 
L 51.11018 247.975055 
L 50.186793 248.139294 
z
" clip-path="url(#p359d3465e3)" style="fill: #ffeadb; stroke: #000000; stroke-width: 0.5"/>
    <path d="M 81.444465 139.695502 
L 81.494345 139.150474 
L 81.831339 138.252635 
L 82.304589 138.067106 
L 82.527224 137.618795 
L 82.567371 135.362641 
L 84.19881 134.62904 
L 84.352099 134.26224 
L 84.807101 134.394852 
L 84.965257 134.773208 
L 84.556485 134.874183 
L 84.658678 135.840149 
L 84.107566 138.447288 
L 83.174446 141.023403 
L 83.524822 141.639601 
L 83.330169 141.425484 
L 82.970061 141.789241 
L 82.811905 142.660316 
L 82.495593 142.30264 
L 82.505326 141.843989 
L 82.106286 141.809923 
L 82.016259 141.565391 
L 82.086821 140.813541 
L 82.437197 141.232046 
L 82.661048 140.570227 
z
" clip-path="url(#p359d3465e3)" style="fill: #ffeadb; stroke: #000000; stroke-width: 0.5"/>
    <path d="M 65.763924 234.502614 
L 66.26759 233.694802 
L 67.705591 233.059137 
L 68.31145 232.467878 
L 69.395425 232.497685 
L 70.356526 232.968502 
L 70.93562 233.935685 
L 71.734915 233.52813 
L 72.412552 233.828626 
L 73.384602 233.834709 
L 73.977078 234.11209 
L 73.950313 234.697266 
L 73.536674 234.818316 
L 73.50261 235.267236 
L 72.771444 235.365779 
L 72.052443 236.030033 
L 71.592574 235.833556 
L 71.453884 235.170518 
L 71.085259 234.78486 
L 70.512249 234.812842 
L 68.89176 235.591455 
L 68.424592 235.170518 
L 67.804134 235.0592 
L 66.694611 235.628561 
L 66.063204 235.114554 
z
" clip-path="url(#p359d3465e3)" style="fill: #ffeadb; stroke: #000000; stroke-width: 0.5"/>
    <path d="M 79.853174 122.539246 
L 80.516212 120.820213 
L 80.731547 120.775202 
L 81.27171 121.457096 
L 81.57829 121.132266 
L 82.1513 121.444323 
L 82.597786 121.040416 
L 82.931129 121.296509 
L 82.914098 121.661482 
L 83.304621 121.661482 
L 83.283939 122.01855 
L 84.352099 122.322694 
L 84.454292 122.58061 
L 84.147713 122.682803 
L 84.147713 123.044735 
L 84.556485 123.499132 
L 84.427527 123.942575 
L 83.220677 125.24371 
L 83.231626 125.825239 
L 82.527224 126.260167 
L 81.27171 125.24371 
L 80.609889 125.022901 
L 79.896971 124.162167 
z
" clip-path="url(#p359d3465e3)" style="fill: #ffeadb; stroke: #000000; stroke-width: 0.5"/>
    <path d="M 89.841322 166.597198 
L 90.355937 166.511429 
L 90.903399 165.91287 
L 90.512876 165.598992 
L 90.651567 165.04058 
L 91.218494 164.16829 
L 91.946011 163.889692 
L 92.104167 163.319722 
L 92.64798 162.730289 
L 93.259921 163.13906 
L 93.661393 163.744919 
L 93.648011 164.553947 
L 92.897379 166.557659 
L 92.1139 167.481046 
L 91.523857 167.648326 
L 91.677146 167.237729 
L 91.516557 167.249895 
L 90.651567 167.852104 
L 90.392434 167.035168 
z
" clip-path="url(#p359d3465e3)" style="fill: #ffeadb; stroke: #000000; stroke-width: 0.5"/>
    <path d="M 79.800861 224.274799 
L 80.225449 223.919557 
L 81.436045 223.81908 
L 82.109731 225.260923 
L 84.109594 225.148686 
L 83.364747 223.210043 
L 83.365126 222.860166 
L 83.75354 222.859912 
L 87.640523 224.900123 
L 87.432488 225.120932 
L 86.147776 225.380674 
L 85.449457 227.17635 
L 83.490758 227.732328 
L 82.064922 227.867369 
L 81.882435 227.274285 
L 80.836173 226.39652 
L 80.760745 225.325926 
L 79.855608 225.055844 
z
" clip-path="url(#p359d3465e3)" style="fill: #ffeadb; stroke: #000000; stroke-width: 0.5"/>
    <path d="M 141.918382 176.360887 
L 142.642249 176.147983 
L 142.125201 175.79639 
L 142.178731 175.590182 
L 143.094818 174.141232 
L 143.103334 173.596809 
L 143.495074 173.239134 
L 144.489022 175.588354 
L 144.08025 176.258695 
L 144.90631 176.67598 
L 145.091231 177.294007 
L 144.22259 177.725893 
L 143.049804 177.483791 
L 143.153214 177.790373 
L 142.33567 176.871243 
L 142.33567 176.564666 
z
" clip-path="url(#p359d3465e3)" style="fill: #ffeadb; stroke: #000000; stroke-width: 0.5"/>
    <path d="M 96.749082 127.609964 
L 97.413336 127.345967 
L 97.462 126.978556 
L 98.458381 127.661671 
L 99.973027 130.207371 
L 100.589835 130.672712 
L 101.494973 130.801062 
L 101.768704 131.293171 
L 101.863597 132.039544 
L 102.973121 133.21294 
L 103.196972 133.854687 
L 101.345333 131.774937 
L 100.348951 131.389888 
L 98.483929 129.446396 
L 97.188268 128.994438 
L 96.841542 128.620946 
z
" clip-path="url(#p359d3465e3)" style="fill: #ffeadb; stroke: #000000; stroke-width: 0.5"/>
    <path d="M 70.833427 180.462596 
L 70.872357 180.335464 
L 71.023213 180.01672 
L 71.088909 179.951634 
L 71.254364 179.88776 
L 71.340742 179.736906 
L 71.417386 179.564759 
L 71.546344 179.431541 
L 71.534179 179.528259 
L 71.51593 179.570233 
L 71.487949 179.595779 
L 71.453884 179.63593 
L 71.51958 179.693108 
L 71.524446 179.736295 
L 71.187452 180.187039 
L 71.023214 180.351277 
z
" clip-path="url(#p359d3465e3)" style="fill: #ffeadb; stroke: #000000; stroke-width: 0.5"/>
    <path d="M 48.487227 152.290789 
L 48.67458 152.02679 
L 49.304771 152.588851 
L 49.518889 151.781039 
L 49.927661 152.290789 
L 50.093116 152.108301 
L 50.231807 152.290789 
L 50.405778 151.83761 
L 50.129614 151.56753 
L 50.745205 151.465336 
L 50.784136 152.585808 
L 50.231807 153.516495 
L 50.048103 153.198968 
L 50.231807 152.801754 
L 49.672179 152.699559 
L 49.304771 153.098599 
z
" clip-path="url(#p359d3465e3)" style="fill: #ffeadb; stroke: #000000; stroke-width: 0.5"/>
    <path d="M 141.1641 179.818416 
L 141.510826 179.014256 
L 141.452431 177.711292 
L 141.715212 177.585988 
L 141.824705 177.90108 
L 142.020575 177.790373 
L 142.059506 178.686993 
L 142.280924 178.82021 
L 142.448812 178.95464 
L 142.18968 180.258817 
L 141.969478 180.564182 
L 141.633701 180.606763 
L 141.722512 180.371353 
L 141.306441 180.258211 
L 141.510827 180.0447 
z
" clip-path="url(#p359d3465e3)" style="fill: #ffeadb; stroke: #000000; stroke-width: 0.5"/>
    <path d="M 104.622808 186.299156 
L 105.053478 185.778457 
L 105.31626 185.93418 
L 106.024312 185.690861 
L 106.586373 185.252894 
L 106.763994 184.747402 
L 107.177633 184.681705 
L 108.101019 185.583804 
L 107.800523 186.086251 
L 108.013425 186.604516 
L 108.3784 186.842361 
L 108.092503 187.152589 
L 107.340655 187.233489 
L 107.031643 187.601506 
L 105.968349 187.363666 
z
" clip-path="url(#p359d3465e3)" style="fill: #ffeadb; stroke: #000000; stroke-width: 0.5"/>
    <path d="M 49.032256 166.052777 
L 49.672179 165.550328 
L 50.307235 164.591661 
L 50.632063 164.505283 
L 51.98612 165.096543 
L 52.898557 165.671986 
L 52.589545 165.810677 
L 52.493435 166.179301 
L 51.98612 166.117256 
L 51.874194 166.422618 
L 51.365663 165.810677 
L 51.458123 166.933583 
L 50.063919 167.416567 
L 49.569986 167.290651 
L 49.416696 166.117256 
z
" clip-path="url(#p359d3465e3)" style="fill: #ffeadb; stroke: #000000; stroke-width: 0.5"/>
    <path d="M 80.150021 42.054969 
L 80.25343 41.548871 
L 80.758312 41.060414 
L 80.444434 40.721595 
L 80.709649 40.007462 
L 81.169517 39.497713 
L 81.446899 39.605986 
L 81.831338 39.395521 
L 82.198747 39.803073 
L 82.466395 40.338372 
L 82.069789 40.494701 
L 80.622055 42.239889 
L 80.344674 42.203393 
z
" clip-path="url(#p359d3465e3)" style="fill: #ffeadb; stroke: #000000; stroke-width: 0.5"/>
    <path d="M 7.221942 205.200597 
L 7.309536 203.094086 
L 7.616115 203.612957 
L 7.833883 203.612351 
L 8.079633 203.094086 
L 9.016402 202.980944 
L 9.152659 203.156132 
L 9.251202 203.848367 
L 8.951923 204.123314 
L 9.179424 205.932373 
L 8.236572 206.684221 
L 8.393511 206.94153 
L 8.03097 207.006616 
z
" clip-path="url(#p359d3465e3)" style="fill: #ffeadb; stroke: #000000; stroke-width: 0.5"/>
    <path d="M 94.502052 213.230657 
L 94.644393 212.729425 
L 95.013017 212.529903 
L 95.829345 213.031136 
L 96.159039 212.426494 
L 97.15542 213.235523 
L 96.749082 213.142455 
L 96.841542 213.652811 
L 95.41084 214.264751 
L 95.217403 214.571331 
L 94.837829 214.561599 
L 94.596946 214.172291 
z
" clip-path="url(#p359d3465e3)" style="fill: #ffeadb; stroke: #000000; stroke-width: 0.5"/>
    <path d="M 53.96915 117.046374 
L 54.011731 116.405843 
L 54.280596 116.323722 
L 55.252646 116.947828 
L 56.283092 117.245285 
L 56.79284 118.024508 
L 56.508159 118.444229 
L 56.631035 118.636448 
L 56.997226 118.938162 
L 56.682131 119.202159 
L 55.772127 118.274515 
L 54.348724 117.660748 
z
" clip-path="url(#p359d3465e3)" style="fill: #ffeadb; stroke: #000000; stroke-width: 0.5"/>
    <path d="M 117.747307 149.006015 
L 118.969973 148.782162 
L 120.349579 148.913552 
L 120.839862 149.30286 
L 121.49195 150.750594 
L 121.817995 150.892325 
L 121.871524 151.209246 
L 121.634291 151.899047 
L 119.798467 151.874108 
L 119.594081 152.087619 
L 118.705975 151.003644 
z
" clip-path="url(#p359d3465e3)" style="fill: #ffeadb; stroke: #000000; stroke-width: 0.5"/>
    <path d="M 84.209759 101.7083 
L 84.454292 101.785553 
L 84.658678 101.582384 
L 84.811967 101.8622 
L 85.676958 101.785553 
L 85.575982 102.306251 
L 86.147776 102.398712 
L 86.471386 102.857974 
L 86.249969 103.317232 
L 85.065017 102.398712 
L 84.442126 102.262453 
z
" clip-path="url(#p359d3465e3)" style="fill: #ffeadb; stroke: #000000; stroke-width: 0.5"/>
    <path d="M 123.327774 148.808928 
L 123.481064 148.384948 
L 124.329022 148.934234 
L 124.714679 149.720756 
L 125.327837 150.129528 
L 124.959213 151.155107 
L 124.618569 150.541949 
L 124.305907 150.648402 
L 124.129503 149.757253 
L 123.599072 149.446416 
z
" clip-path="url(#p359d3465e3)" style="fill: #ffeadb; stroke: #000000; stroke-width: 0.5"/>
    <path d="M 129.358377 172.181315 
L 129.532349 171.647843 
L 130.904654 172.310881 
L 131.26598 173.586468 
L 131.88887 174.560951 
L 132.054326 175.057317 
L 131.740447 175.363898 
L 130.448436 173.586468 
L 129.65644 173.065162 
z
" clip-path="url(#p359d3465e3)" style="fill: #ffeadb; stroke: #000000; stroke-width: 0.5"/>
    <path d="M 122.043063 186.345384 
L 122.196352 185.799139 
L 123.119738 185.331364 
L 123.68545 185.491344 
L 124.251161 186.085034 
L 124.612486 186.727391 
L 124.506643 187.632531 
L 124.041909 187.914775 
L 122.575926 187.196994 
z
" clip-path="url(#p359d3465e3)" style="fill: #ffeadb; stroke: #000000; stroke-width: 0.5"/>
    <path d="M 106.587589 114.925871 
L 106.835773 115.125388 
L 107.085172 114.88329 
L 107.335788 115.025629 
L 107.180066 114.592525 
L 107.502461 114.851047 
L 107.568156 115.230015 
L 106.849155 115.686231 
L 106.596106 115.571266 
z
" clip-path="url(#p359d3465e3)" style="fill: #ffeadb; stroke: #000000; stroke-width: 0.5"/>
    <path d="M 88.953216 137.3037 
L 89.821857 136.848089 
L 92.078619 136.98009 
L 92.907112 138.201539 
L 92.64798 139.476518 
L 91.775689 140.089676 
L 90.903399 139.476518 
L 90.282942 138.578071 
L 89.085824 138.098129 
z
" clip-path="url(#p359d3465e3)" style="fill: #ffeadb; stroke: #000000; stroke-width: 0.5"/>
    <path d="M 29.218982 218.69798 
L 29.653303 218.357337 
L 30.459897 218.264877 
L 30.792024 218.445539 
L 30.868669 218.876211 
L 30.613187 218.770367 
L 30.766476 219.284983 
L 30.352838 219.397517 
L 29.486631 219.234493 
z
" clip-path="url(#p359d3465e3)" style="fill: #ffeadb; stroke: #000000; stroke-width: 0.5"/>
    <path d="M 137.704138 162.868979 
L 137.751585 162.085499 
L 138.078845 161.898146 
L 138.412189 162.042311 
L 138.846509 163.045384 
L 139.766246 163.13906 
L 139.839241 163.524109 
L 138.979117 163.65185 
z
" clip-path="url(#p359d3465e3)" style="fill: #ffeadb; stroke: #000000; stroke-width: 0.5"/>
    <path d="M 110.087699 124.121414 
L 110.26897 123.979681 
L 111.363895 124.341007 
L 110.888211 125.1768 
L 111.060966 125.71088 
L 110.637595 125.841053 
L 110.225174 125.233978 
L 110.301818 124.526534 
z
" clip-path="url(#p359d3465e3)" style="fill: #ffeadb; stroke: #000000; stroke-width: 0.5"/>
    <path d="M 81.485829 111.204948 
L 81.647635 110.894718 
L 82.091687 110.943991 
L 84.19516 112.790766 
L 85.211007 113.524364 
L 85.275486 114.219032 
L 84.663544 114.037156 
L 82.108719 112.187341 
z
" clip-path="url(#p359d3465e3)" style="fill: #ffeadb; stroke: #000000; stroke-width: 0.5"/>
    <path d="M 81.465147 19.334062 
L 81.468797 18.748885 
L 82.120885 17.742163 
L 82.775407 17.326091 
L 83.113617 17.691066 
L 82.162249 18.448389 
L 82.198747 19.119943 
L 81.71698 19.415573 
z
" clip-path="url(#p359d3465e3)" style="fill: #ffeadb; stroke: #000000; stroke-width: 0.5"/>
    <path d="M 72.924733 33.957999 
L 73.596287 33.549227 
L 74.72041 33.864933 
L 75.402913 33.69461 
L 75.545253 34.783452 
L 75.853049 35.349164 
L 75.129182 35.701972 
L 73.643734 35.042583 
z
" clip-path="url(#p359d3465e3)" style="fill: #ffeadb; stroke: #000000; stroke-width: 0.5"/>
    <path d="M 60.086131 229.922177 
L 60.536267 229.774971 
L 61.142125 228.507901 
L 61.522916 228.227477 
L 61.765016 228.991492 
L 61.36111 230.159411 
L 60.886643 230.354673 
L 60.125061 230.192259 
z
" clip-path="url(#p359d3465e3)" style="fill: #ffeadb; stroke: #000000; stroke-width: 0.5"/>
    <path d="M 11.919169 200.021605 
L 12.062726 199.370123 
L 12.134505 199.196152 
L 12.747663 199.196152 
L 13.194149 199.495431 
L 13.257411 200.746079 
L 13.003145 201.072732 
L 12.213583 201.265561 
z
" clip-path="url(#p359d3465e3)" style="fill: #ffeadb; stroke: #000000; stroke-width: 0.5"/>
    <path d="M 137.554498 217.920584 
L 138.178605 216.040963 
L 139.166471 216.949142 
L 139.306378 219.744852 
L 139.091043 220.554488 
L 138.620225 219.912739 
L 138.20537 218.189449 
z
" clip-path="url(#p359d3465e3)" style="fill: #ffeadb; stroke: #000000; stroke-width: 0.5"/>
    <path d="M 118.634196 163.899425 
L 119.039319 163.454155 
L 119.491888 163.454155 
L 120.311865 164.169506 
L 120.134244 164.531439 
L 119.440791 164.688378 
L 118.645146 164.431072 
z
" clip-path="url(#p359d3465e3)" style="fill: #ffeadb; stroke: #000000; stroke-width: 0.5"/>
    <path d="M 111.219122 124.959031 
L 112.781215 125.083123 
L 113.014799 125.286291 
L 113.241083 125.103805 
L 113.817744 125.380575 
L 112.907739 125.955412 
L 111.620594 125.619637 
z
" clip-path="url(#p359d3465e3)" style="fill: #ffeadb; stroke: #000000; stroke-width: 0.5"/>
    <path d="M 106.268845 134.559696 
L 106.508512 134.635732 
L 106.686133 133.946541 
L 108.53169 135.38454 
L 109.349234 138.609094 
L 109.39668 139.171155 
L 106.296826 134.896082 
z
" clip-path="url(#p359d3465e3)" style="fill: #ffeadb; stroke: #000000; stroke-width: 0.5"/>
    <path d="M 86.301065 135.691117 
L 86.809597 134.96786 
L 86.809597 135.172246 
L 87.282848 136.200257 
L 87.260949 136.731906 
L 86.809597 137.129729 
L 86.436106 136.581658 
z
" clip-path="url(#p359d3465e3)" style="fill: #ffeadb; stroke: #000000; stroke-width: 0.5"/>
    <path d="M 81.08679 31.252925 
L 81.882435 31.201829 
L 82.28999 30.94635 
L 82.597786 31.201829 
L 82.437197 31.906842 
L 82.045457 32.226194 
L 81.107471 31.553424 
z
" clip-path="url(#p359d3465e3)" style="fill: #ffeadb; stroke: #000000; stroke-width: 0.5"/>
    <path d="M 71.794527 41.433295 
L 73.486795 41.028172 
L 74.106035 40.989242 
L 74.822603 41.343269 
L 74.129151 41.728316 
L 72.442966 41.921756 
L 72.088941 41.867614 
z
" clip-path="url(#p359d3465e3)" style="fill: #ffeadb; stroke: #000000; stroke-width: 0.5"/>
    <path d="M 68.271303 140.463166 
L 68.575448 140.061693 
L 68.997603 140.230798 
L 69.413674 141.281928 
L 69.588862 141.833648 
L 69.0268 141.618313 
L 68.451357 140.920602 
z
" clip-path="url(#p359d3465e3)" style="fill: #ffeadb; stroke: #000000; stroke-width: 0.5"/>
    <path d="M 51.617495 80.01054 
L 51.646693 79.744717 
L 52.329197 79.185087 
L 52.814613 79.765397 
L 52.806097 80.410188 
L 52.913156 80.81531 
L 52.624826 80.985023 
z
" clip-path="url(#p359d3465e3)" style="fill: #ffeadb; stroke: #000000; stroke-width: 0.5"/>
    <path d="M 116.778907 165.095326 
L 117.426129 163.597712 
L 117.842201 163.49856 
L 118.204743 163.787499 
L 118.358032 164.53509 
L 117.022224 165.300929 
z
" clip-path="url(#p359d3465e3)" style="fill: #ffeadb; stroke: #000000; stroke-width: 0.5"/>
    <path d="M 111.544926 169.804877 
L 112.403171 169.274325 
L 112.668447 169.461578 
L 113.183394 169.274325 
L 112.169104 170.304219 
L 111.73218 170.444659 
z
" clip-path="url(#p359d3465e3)" style="fill: #ffeadb; stroke: #000000; stroke-width: 0.5"/>
    <path d="M 108.450179 180.233271 
L 110.155828 179.468041 
L 110.559734 179.7953 
L 110.199625 180.26855 
L 109.316386 180.814799 
L 108.788389 180.787425 
z
" clip-path="url(#p359d3465e3)" style="fill: #ffeadb; stroke: #000000; stroke-width: 0.5"/>
    <path d="M 108.115618 155.567047 
L 108.727559 154.8006 
L 109.553619 156.494692 
L 109.761655 156.960034 
L 108.72756 157.097508 
L 108.546289 156.866358 
z
" clip-path="url(#p359d3465e3)" style="fill: #ffeadb; stroke: #000000; stroke-width: 0.5"/>
    <path d="M 87.359492 103.876253 
L 87.735417 103.671867 
L 88.785328 103.474173 
L 88.90212 103.783182 
L 88.576076 104.071513 
L 87.403289 104.106796 
z
" clip-path="url(#p359d3465e3)" style="fill: #ffeadb; stroke: #000000; stroke-width: 0.5"/>
    <path d="M 79.435886 14.117962 
L 80.473632 12.096 
L 80.824008 12.45915 
L 80.793593 13.112455 
L 80.085542 14.179399 
L 79.690152 14.296191 
z
" clip-path="url(#p359d3465e3)" style="fill: #ffeadb; stroke: #000000; stroke-width: 0.5"/>
    <path d="M 79.289896 232.762899 
L 80.699916 233.42472 
L 81.169517 233.416812 
L 81.738878 233.230676 
L 81.780242 233.416812 
L 80.501613 233.885806 
z
" clip-path="url(#p359d3465e3)" style="fill: #ffeadb; stroke: #000000; stroke-width: 0.5"/>
    <path d="M 77.887176 130.404458 
L 77.97477 130.063814 
L 78.417606 130.06138 
L 78.502767 130.560181 
L 78.410307 130.774905 
L 78.130493 130.689136 
z
" clip-path="url(#p359d3465e3)" style="fill: #ffeadb; stroke: #000000; stroke-width: 0.5"/>
    <path d="M 67.942825 161.652396 
L 68.055967 161.199218 
L 68.962322 160.534963 
L 69.092496 160.730226 
L 68.983004 161.811768 
L 68.198307 161.866514 
z
" clip-path="url(#p359d3465e3)" style="fill: #ffeadb; stroke: #000000; stroke-width: 0.5"/>
    <path d="M 65.044924 240.8915 
L 65.054657 240.598911 
L 65.597253 240.2826 
L 66.252991 240.825804 
L 66.152015 241.416456 
L 65.450046 241.313046 
z
" clip-path="url(#p359d3465e3)" style="fill: #ffeadb; stroke: #000000; stroke-width: 0.5"/>
    <path d="M 55.769694 145.007105 
L 56.735661 144.700525 
L 56.993576 145.267454 
L 56.668749 145.476706 
L 56.891383 146.853877 
L 56.735661 146.970671 
z
" clip-path="url(#p359d3465e3)" style="fill: #ffeadb; stroke: #000000; stroke-width: 0.5"/>
    <path d="M 48.930063 248.211072 
L 49.281656 247.410561 
L 49.715976 247.059576 
L 49.927661 247.824199 
L 49.689211 248.007903 
L 49.36195 248.242704 
z
" clip-path="url(#p359d3465e3)" style="fill: #ffeadb; stroke: #000000; stroke-width: 0.5"/>
    <path d="M 44.290015 250.322453 
L 44.788814 250.4581 
L 45.005366 251.098023 
L 45.309511 252.393687 
L 44.606326 254.016 
L 44.698787 252.220929 
z
" clip-path="url(#p359d3465e3)" style="fill: #ffeadb; stroke: #000000; stroke-width: 0.5"/>
    <path d="M 10.59431 199.715634 
L 11.512831 198.890181 
L 11.512831 199.308077 
L 11.780479 199.220485 
L 11.827926 199.520982 
L 10.724485 200.103722 
z
" clip-path="url(#p359d3465e3)" style="fill: #ffeadb; stroke: #000000; stroke-width: 0.5"/>
    <path d="M 132.474047 243.073442 
L 133.11032 242.42257 
L 133.73686 242.508339 
L 133.73686 243.360556 
L 132.915666 243.38002 
z
" clip-path="url(#p359d3465e3)" style="fill: #ffeadb; stroke: #000000; stroke-width: 0.5"/>
    <path d="M 120.328897 172.447138 
L 121.601443 172.024376 
L 121.462752 172.714178 
L 120.91529 172.838878 
L 120.606278 173.212369 
z
" clip-path="url(#p359d3465e3)" style="fill: #ffeadb; stroke: #000000; stroke-width: 0.5"/>
    <path d="M 114.773978 143.567887 
L 115.000263 143.095852 
L 115.610987 143.008866 
L 115.95528 143.272257 
L 115.196132 143.63115 
z
" clip-path="url(#p359d3465e3)" style="fill: #ffeadb; stroke: #000000; stroke-width: 0.5"/>
    <path d="M 114.524578 137.185692 
L 115.168151 137.755051 
L 115.248445 138.140101 
L 115.048926 138.271491 
L 114.582974 137.682058 
z
" clip-path="url(#p359d3465e3)" style="fill: #ffeadb; stroke: #000000; stroke-width: 0.5"/>
    <path d="M 113.508731 126.123302 
L 114.603656 125.772926 
L 115.486896 126.089236 
L 115.654784 126.609932 
L 114.749647 126.49679 
z
" clip-path="url(#p359d3465e3)" style="fill: #ffeadb; stroke: #000000; stroke-width: 0.5"/>
    <path d="M 73.84812 146.611169 
L 74.042773 146.297899 
L 74.767857 146.213955 
L 75.544037 146.516885 
L 75.085385 146.797306 
z
" clip-path="url(#p359d3465e3)" style="fill: #ffeadb; stroke: #000000; stroke-width: 0.5"/>
    <path d="M 73.041525 142.508851 
L 73.755659 143.289898 
L 73.866368 144.005857 
L 73.424749 144.209633 
L 73.125469 143.814853 
z
" clip-path="url(#p359d3465e3)" style="fill: #ffeadb; stroke: #000000; stroke-width: 0.5"/>
    <path d="M 70.524415 38.272004 
L 70.833427 36.936194 
L 71.450234 38.36264 
L 71.55121 38.894287 
L 71.341958 39.301844 
z
" clip-path="url(#p359d3465e3)" style="fill: #ffeadb; stroke: #000000; stroke-width: 0.5"/>
    <path d="M 69.698354 236.803781 
L 70.114426 236.191231 
L 70.930753 236.599395 
L 71.135139 236.895632 
L 70.103477 237.095152 
z
" clip-path="url(#p359d3465e3)" style="fill: #ffeadb; stroke: #000000; stroke-width: 0.5"/>
    <path d="M 65.085071 118.985001 
L 66.332069 119.423575 
L 66.723808 119.533071 
L 66.529155 119.864589 
L 65.300406 119.472848 
z
" clip-path="url(#p359d3465e3)" style="fill: #ffeadb; stroke: #000000; stroke-width: 0.5"/>
    <path d="M 49.638114 250.037163 
L 50.377797 250.291432 
L 50.486073 250.763465 
L 50.292636 250.919188 
L 49.719626 250.666137 
z
" clip-path="url(#p359d3465e3)" style="fill: #ffeadb; stroke: #000000; stroke-width: 0.5"/>
    <path d="M 46.448233 158.48563 
L 46.448233 157.710058 
L 47.230496 158.127954 
L 47.46773 158.944281 
L 46.947032 159.046475 
z
" clip-path="url(#p359d3465e3)" style="fill: #ffeadb; stroke: #000000; stroke-width: 0.5"/>
    <path d="M 46.30346 157.01478 
L 46.34604 156.494692 
L 46.947032 156.178988 
L 47.234146 156.457585 
L 46.501763 157.097508 
z
" clip-path="url(#p359d3465e3)" style="fill: #ffeadb; stroke: #000000; stroke-width: 0.5"/>
    <path d="M 10.196488 201.323956 
L 10.389924 201.358021 
L 10.718402 201.378703 
L 10.958069 201.69623 
L 10.301114 201.677983 
z
" clip-path="url(#p359d3465e3)" style="fill: #ffeadb; stroke: #000000; stroke-width: 0.5"/>
    <path d="M 109.114433 123.241822 
L 110.21909 123.775295 
L 109.883313 124.012529 
L 109.560919 123.802058 
z
" clip-path="url(#p359d3465e3)" style="fill: #ffeadb; stroke: #000000; stroke-width: 0.5"/>
    <path d="M 80.261946 19.45572 
L 81.03326 19.939312 
L 80.675585 20.499548 
L 80.39942 20.540912 
z
" clip-path="url(#p359d3465e3)" style="fill: #ffeadb; stroke: #000000; stroke-width: 0.5"/>
    <path d="M 76.388345 224.476752 
L 76.89931 223.869675 
L 77.081798 224.091702 
L 76.894444 225.526662 
z
" clip-path="url(#p359d3465e3)" style="fill: #ffeadb; stroke: #000000; stroke-width: 0.5"/>
    <path d="M 66.048605 238.258206 
L 66.249341 237.520956 
L 66.624049 237.90783 
L 66.333285 238.404195 
z
" clip-path="url(#p359d3465e3)" style="fill: #ffeadb; stroke: #000000; stroke-width: 0.5"/>
    <path d="M 64.679949 238.888396 
L 64.800391 238.468674 
L 65.588737 238.347016 
L 65.92573 238.624397 
z
" clip-path="url(#p359d3465e3)" style="fill: #ffeadb; stroke: #000000; stroke-width: 0.5"/>
    <path d="M 49.925228 251.607163 
L 50.202609 251.545728 
L 50.602865 251.880285 
L 50.029854 251.801209 
z
" clip-path="url(#p359d3465e3)" style="fill: #ffeadb; stroke: #000000; stroke-width: 0.5"/>
    <path d="M 7.820501 202.480926 
L 8.5614 201.990646 
L 8.900827 202.731544 
L 8.338765 203.000409 
z
" clip-path="url(#p359d3465e3)" style="fill: #ffeadb; stroke: #000000; stroke-width: 0.5"/>
    <path d="M 68.329698 120.789192 
L 68.962322 120.74357 
L 69.004902 121.345777 
z
" clip-path="url(#p359d3465e3)" style="fill: #ffeadb; stroke: #000000; stroke-width: 0.5"/>
   </g>
  </g>
 </g>
 <defs>
  <clipPath id="p359d3465e3">
   <rect x="-0" y="-0" width="158.882722" height="266.112"/>
  </clipPath>
 </defs>
</svg>
