<?xml version="1.0" encoding="utf-8" standalone="no"?>
<!DOCTYPE svg PUBLIC "-//W3C//DTD SVG 1.1//EN"
  "http://www.w3.org/Graphics/SVG/1.1/DTD/svg11.dtd">
<svg xmlns:xlink="http://www.w3.org/1999/xlink" width="174.522348pt" height="266.112pt" viewBox="0 0 174.522348 266.112" xmlns="http://www.w3.org/2000/svg" version="1.1">
 <metadata>
  <rdf:RDF xmlns:dc="http://purl.org/dc/elements/1.1/" xmlns:cc="http://creativecommons.org/ns#" xmlns:rdf="http://www.w3.org/1999/02/22-rdf-syntax-ns#">
   <cc:Work>
    <dc:type rdf:resource="http://purl.org/dc/dcmitype/StillImage"/>
    <dc:date>2025-06-04T13:25:04.722094</dc:date>
    <dc:format>image/svg+xml</dc:format>
    <dc:creator>
     <cc:Agent>
      <dc:title>Matplotlib v3.10.3, https://matplotlib.org/</dc:title>
     </cc:Agent>
    </dc:creator>
   </cc:Work>
  </rdf:RDF>
 </metadata>
 <defs>
  <style type="text/css">*{stroke-linejoin: round; stroke-linecap: butt}</style>
 </defs>
 <g id="figure_1">
  <g id="patch_1">
   <path d="M 0 266.112 
L 174.522348 266.112 
L 174.522348 0 
L 0 0 
L 0 266.112 
z
" style="fill: none"/>
  </g>
  <g id="axes_1">
   <g id="PatchCollection_1">
    <path d="M 7.932834 35.577855 
L 34.362808 12.096 
L 41.848315 15.633692 
L 23.954872 34.372992 
L 98.194608 67.263064 
L 81.172785 107.587314 
L 37.157045 104.485474 
L 39.951302 113.739841 
L 63.381936 118.892534 
L 61.382366 164.010545 
L 85.300062 166.958583 
L 109.422866 181.724554 
L 100.758153 200.463951 
L 39.643667 237.429957 
L 24.262522 235.78934 
L 8.086655 204.181014 
L 41.848318 179.494312 
L 50.974448 154.679308 
L 15.238914 78.645184 
z
" clip-path="url(#p2d50f69584)" style="fill: #ffeadb; stroke: #000000; stroke-width: 0.5"/>
    <path d="M 106.397913 248.709524 
L 136.903858 222.920392 
L 164.846318 222.151398 
L 162.69293 231.098031 
L 153.720585 244.402724 
L 166.589514 248.709524 
L 151.900499 254.016 
z
" clip-path="url(#p2d50f69584)" style="fill: #ffeadb; stroke: #000000; stroke-width: 0.5"/>
   </g>
  </g>
 </g>
 <defs>
  <clipPath id="p2d50f69584">
   <rect x="0" y="-0" width="174.522348" height="266.112"/>
  </clipPath>
 </defs>
</svg>
