<?xml version="1.0" encoding="utf-8" standalone="no"?>
<!DOCTYPE svg PUBLIC "-//W3C//DTD SVG 1.1//EN"
  "http://www.w3.org/Graphics/SVG/1.1/DTD/svg11.dtd">
<svg xmlns:xlink="http://www.w3.org/1999/xlink" width="279.555863pt" height="266.112pt" viewBox="0 0 279.555863 266.112" xmlns="http://www.w3.org/2000/svg" version="1.1">
 <metadata>
  <rdf:RDF xmlns:dc="http://purl.org/dc/elements/1.1/" xmlns:cc="http://creativecommons.org/ns#" xmlns:rdf="http://www.w3.org/1999/02/22-rdf-syntax-ns#">
   <cc:Work>
    <dc:type rdf:resource="http://purl.org/dc/dcmitype/StillImage"/>
    <dc:date>2025-06-04T13:24:51.962853</dc:date>
    <dc:format>image/svg+xml</dc:format>
    <dc:creator>
     <cc:Agent>
      <dc:title>Matplotlib v3.10.3, https://matplotlib.org/</dc:title>
     </cc:Agent>
    </dc:creator>
   </cc:Work>
  </rdf:RDF>
 </metadata>
 <defs>
  <style type="text/css">*{stroke-linejoin: round; stroke-linecap: butt}</style>
 </defs>
 <g id="figure_1">
  <g id="patch_1">
   <path d="M 0 266.112 
L 279.555863 266.112 
L 279.555863 0 
L 0 0 
L 0 266.112 
z
" style="fill: none"/>
  </g>
  <g id="axes_1">
   <g id="PatchCollection_1">
    <defs>
     <path id="mccfae9d51f" d="M 12.707085 -232.018067 
L 13.341854 -234.576188 
L 16.515701 -235.226829 
L 14.420962 -236.902619 
L 16.515701 -238.159461 
L 16.166578 -239.111616 
L 21.460555 -238.657754 
L 21.111431 -240.314502 
L 25.212042 -241.092094 
L 25.281867 -242.913885 
L 27.662252 -244.49446 
L 31.318524 -242.358462 
L 36.701368 -241.968078 
L 38.408898 -242.196595 
L 40.549939 -244.695717 
L 45.499272 -245.405354 
L 47.086196 -247.036714 
L 50.095002 -248.099951 
L 52.894336 -250.007433 
L 52.170698 -251.581661 
L 54.487607 -252.943242 
L 62.015972 -254.016 
L 65.950705 -253.08458 
L 70.775789 -251.264275 
L 75.885643 -252.733427 
L 79.294395 -253.381232 
L 87.540049 -252.260864 
L 90.694854 -252.686161 
L 92.123085 -251.718138 
L 95.220759 -251.959347 
L 98.559646 -249.975693 
L 102.419044 -246.627285 
L 105.383417 -241.904603 
L 113.229167 -237.975379 
L 117.837593 -237.099399 
L 122.750708 -232.713142 
L 123.167477 -230.75504 
L 126.641844 -227.085909 
L 128.285898 -227.133519 
L 130.640892 -229.012435 
L 131.904083 -228.139625 
L 129.980732 -219.113206 
L 132.79276 -214.501606 
L 130.367941 -212.21961 
L 130.761498 -211.359498 
L 133.763957 -210.34704 
L 142.987157 -202.898022 
L 146.08726 -201.663975 
L 151.410547 -199.489309 
L 153.625892 -200.571591 
L 159.757764 -196.007599 
L 169.971204 -194.182638 
L 174.81354 -191.297884 
L 175.411178 -189.247305 
L 172.237331 -187.62547 
L 170.97414 -183.848592 
L 167.381345 -182.934524 
L 166.645013 -181.81099 
L 170.148939 -179.360773 
L 176.775931 -177.859534 
L 178.001038 -175.12052 
L 167.698729 -173.619279 
L 166.118154 -171.597545 
L 167.161586 -171.27298 
L 170.377455 -168.702986 
L 180.565505 -168.265002 
L 185.370709 -162.736158 
L 191.547015 -162.098215 
L 197.602715 -163.399488 
L 206.134017 -160.949286 
L 208.584333 -157.116885 
L 208.702913 -156.706664 
L 212.887964 -151.802264 
L 217.052051 -151.538837 
L 225.208838 -162.104572 
L 229.861696 -163.526445 
L 232.648335 -165.560889 
L 236.190348 -164.967377 
L 242.563434 -160.384347 
L 250.377443 -158.768843 
L 253.475119 -156.29643 
L 252.034192 -154.395294 
L 249.48242 -153.779572 
L 244.63278 -155.461699 
L 242.131791 -155.233196 
L 240.164005 -151.929217 
L 236.641033 -151.468997 
L 235.790442 -149.796378 
L 240.221135 -141.934775 
L 248.339834 -139.252869 
L 248.960166 -134.531534 
L 246.327615 -133.644679 
L 243.712365 -131.223035 
L 242.899859 -124.42782 
L 239.288023 -124.012058 
L 237.415454 -121.723716 
L 235.094809 -121.58405 
L 231.023324 -120.09235 
L 227.944694 -108.704593 
L 230.344121 -105.656108 
L 231.347057 -101.28889 
L 235.117587 -98.951356 
L 235.866615 -93.430449 
L 238.348564 -88.211059 
L 243.102988 -85.441885 
L 245.65476 -85.270494 
L 246.950928 -83.730531 
L 250.968694 -82.794843 
L 255.89359 -79.289374 
L 257.271041 -76.36627 
L 260.762271 -73.246371 
L 266.848778 -70.588561 
L 265.173918 -65.733867 
L 257.397993 -58.684755 
L 254.167017 -57.838929 
L 251.904421 -52.871979 
L 247.400376 -51.21829 
L 242.772907 -52.137121 
L 239.940659 -51.204434 
L 237.56145 -51.107201 
L 232.918222 -47.849191 
L 236.139567 -42.73301 
L 233.632226 -39.533759 
L 233.585959 -36.536974 
L 232.603901 -32.849651 
L 238.71673 -28.845838 
L 239.224546 -25.770381 
L 237.732837 -22.536226 
L 235.33341 -21.72373 
L 232.52138 -17.681828 
L 227.671742 -16.916933 
L 224.389985 -17.835764 
L 222.993492 -20.411338 
L 214.963814 -17.26586 
L 209.270035 -16.240417 
L 202.122274 -18.248364 
L 189.254823 -13.693588 
L 186.636326 -12.096 
L 179.707136 -12.79275 
L 176.687064 -17.186711 
L 176.756889 -18.667311 
L 182.983977 -21.412693 
L 183.079192 -25.257806 
L 189.141241 -31.516638 
L 190.18861 -36.006041 
L 192.52456 -37.434263 
L 190.773627 -39.394921 
L 187.281366 -39.849571 
L 183.720309 -38.951367 
L 179.77839 -41.898279 
L 174.514152 -42.639353 
L 168.936529 -43.056735 
L 168.841314 -44.03428 
L 170.147668 -49.364154 
L 161.065389 -52.116486 
L 159.338815 -53.611357 
L 157.948672 -58.830765 
L 154.146403 -58.630812 
L 151.72793 -64.092987 
L 144.66009 -65.480468 
L 139.689117 -67.609014 
L 135.147754 -69.553593 
L 135.236622 -72.110129 
L 136.753722 -72.432285 
L 133.376797 -75.028577 
L 130.907495 -75.104662 
L 124.610583 -71.960966 
L 120.744837 -71.24209 
L 122.096896 -66.682859 
L 124.743884 -65.827507 
L 123.1887 -62.293434 
L 121.557342 -60.443075 
L 120.275109 -59.519492 
L 118.186717 -59.667076 
L 116.225279 -57.558052 
L 112.905435 -57.018493 
L 111.864412 -56.013964 
L 111.343901 -54.295325 
L 114.008686 -52.172378 
L 112.899087 -50.210587 
L 104.856558 -48.485594 
L 105.364373 -52.387842 
L 104.348743 -53.37015 
L 97.353583 -56.483689 
L 91.597235 -57.462795 
L 87.106371 -60.361165 
L 86.986247 -60.448661 
L 79.294395 -66.079826 
L 75.796816 -64.634139 
L 71.677162 -64.608749 
L 68.979391 -65.762434 
L 66.053105 -69.255258 
L 64.275752 -68.709364 
L 60.225923 -69.417131 
L 55.875506 -72.523032 
L 45.09302 -82.682226 
L 34.035336 -87.00023 
L 32.987966 -90.383551 
L 34.225767 -91.807028 
L 35.584174 -91.807028 
L 37.748736 -95.236361 
L 40.706762 -95.215731 
L 43.512443 -96.477335 
L 47.454362 -92.2958 
L 48.749292 -94.162027 
L 51.815227 -93.52884 
L 51.554972 -96.977227 
L 53.389455 -98.832331 
L 50.583774 -105.892554 
L 37.031448 -117.575491 
L 36.847366 -120.041579 
L 38.980189 -121.263496 
L 44.623291 -118.860903 
L 56.144355 -119.482975 
L 60.238617 -122.694901 
L 59.013512 -124.345304 
L 57.86458 -123.666103 
L 53.931314 -126.102507 
L 50.831334 -129.886839 
L 49.409451 -129.296505 
L 44.483641 -132.245015 
L 43.207754 -135.599764 
L 41.106667 -137.342204 
L 37.551959 -137.129563 
L 30.759927 -139.500431 
L 28.811184 -144.007289 
L 30.912271 -146.962143 
L 30.207677 -152.335461 
L 33.260918 -153.56057 
L 33.794124 -155.880654 
L 42.395249 -165.579925 
L 45.359623 -173.505028 
L 44.153176 -175.524312 
L 41.278056 -176.536051 
L 34.625673 -176.291668 
L 33.705256 -177.469158 
L 27.42104 -174.485747 
L 23.199823 -173.666893 
L 21.701768 -176.694747 
L 23.358516 -177.354908 
L 26.322888 -176.126615 
L 30.315588 -179.043386 
L 29.509432 -180.417672 
L 27.586079 -180.512871 
L 27.28139 -187.136697 
L 24.983525 -190.34863 
L 30.683754 -190.888184 
L 29.712557 -193.944599 
L 31.064616 -194.173116 
L 34.790712 -191.922859 
L 38.675501 -192.103768 
L 39.837129 -192.944838 
L 40.916237 -192.148202 
L 46.422381 -192.460062 
L 47.276626 -194.395285 
L 44.528075 -197.166053 
L 32.18181 -199.425833 
L 28.297021 -201.565006 
L 27.878073 -203.415359 
L 22.450795 -204.405599 
L 20.749613 -206.176604 
L 24.526491 -207.855571 
L 22.980984 -209.463191 
L 22.006457 -211.019897 
L 23.329131 -212.493471 
L 26.970353 -212.114874 
L 28.754055 -213.343151 
L 23.339472 -216.767733 
L 18.648526 -215.018942 
L 16.306227 -217.116857 
L 16.845781 -219.951102 
L 20.292579 -222.991647 
L 17.150471 -225.314903 
L 16.096753 -228.898176 
z
" style="stroke: #000000; stroke-width: 0.5"/>
    </defs>
    <g clip-path="url(#p30a5aef41b)">
     <use xlink:href="#mccfae9d51f" x="0" y="266.112" style="fill: #ffeadb; stroke: #000000; stroke-width: 0.5"/>
    </g>
   </g>
  </g>
 </g>
 <defs>
  <clipPath id="p30a5aef41b">
   <rect x="0" y="-0" width="279.555863" height="266.112"/>
  </clipPath>
 </defs>
</svg>
