<?xml version="1.0" encoding="utf-8" standalone="no"?>
<!DOCTYPE svg PUBLIC "-//W3C//DTD SVG 1.1//EN"
  "http://www.w3.org/Graphics/SVG/1.1/DTD/svg11.dtd">
<svg xmlns:xlink="http://www.w3.org/1999/xlink" width="355.974456pt" height="266.112pt" viewBox="0 0 355.974456 266.112" xmlns="http://www.w3.org/2000/svg" version="1.1">
 <metadata>
  <rdf:RDF xmlns:dc="http://purl.org/dc/elements/1.1/" xmlns:cc="http://creativecommons.org/ns#" xmlns:rdf="http://www.w3.org/1999/02/22-rdf-syntax-ns#">
   <cc:Work>
    <dc:type rdf:resource="http://purl.org/dc/dcmitype/StillImage"/>
    <dc:date>2025-06-04T13:25:02.965321</dc:date>
    <dc:format>image/svg+xml</dc:format>
    <dc:creator>
     <cc:Agent>
      <dc:title>Matplotlib v3.10.3, https://matplotlib.org/</dc:title>
     </cc:Agent>
    </dc:creator>
   </cc:Work>
  </rdf:RDF>
 </metadata>
 <defs>
  <style type="text/css">*{stroke-linejoin: round; stroke-linecap: butt}</style>
 </defs>
 <g id="figure_1">
  <g id="patch_1">
   <path d="M 0 266.112 
L 355.974456 266.112 
L 355.974456 0 
L 0 0 
L 0 266.112 
z
" style="fill: none"/>
  </g>
  <g id="axes_1">
   <g id="PatchCollection_1">
    <path d="M 16.180657 73.629398 
L 17.009555 72.895516 
L 17.015806 72.647976 
L 17.48589 72.741742 
L 17.360868 72.276034 
L 17.648419 72.151636 
L 17.744686 71.207094 
L 17.962225 71.312111 
L 17.744686 71.1027 
L 18.366047 70.331311 
L 19.729608 67.263787 
L 19.34085 65.153451 
L 20.22638 62.818719 
L 20.328858 61.772658 
L 20.06135 61.529737 
L 20.536435 60.55519 
L 20.478925 59.306841 
L 21.351581 56.455705 
L 21.85417 56.151278 
L 21.709144 55.555547 
L 21.766655 55.331129 
L 22.061708 55.311752 
L 21.966583 54.596391 
L 34.116448 56.43923 
L 38.359425 57.081086 
L 39.173959 56.926276 
L 45.436177 52.400698 
L 49.30243 46.886722 
L 60.69319 44.720191 
L 61.023449 44.464558 
L 63.417827 39.553544 
L 68.546368 36.973395 
L 56.875914 25.474676 
L 52.847951 21.730671 
L 53.437571 21.579884 
L 65.167036 18.57944 
L 68.625348 17.70011 
L 83.633488 13.998166 
L 86.443865 12.096 
L 100.003538 13.995785 
L 106.073635 15.131843 
L 131.441654 28.046876 
L 142.318745 36.170943 
L 158.305222 47.494288 
L 172.030961 57.032658 
L 197.225912 59.029299 
L 198.299199 58.829486 
L 199.914029 58.528353 
L 213.756328 60.08041 
L 213.95385 60.364226 
L 215.545759 63.52352 
L 216.033209 65.660675 
L 217.233573 66.758233 
L 217.36139 67.165894 
L 229.108552 67.058743 
L 230.118875 67.789608 
L 230.261401 68.975444 
L 230.126377 69.31863 
L 229.773814 69.204859 
L 229.661294 69.414896 
L 230.216393 69.376141 
L 230.508945 68.994823 
L 230.686477 69.099839 
L 230.48269 70.463835 
L 231.960454 72.024114 
L 231.690406 73.091803 
L 232.478047 74.653956 
L 234.627181 75.254067 
L 234.51216 75.52724 
L 233.933307 75.644135 
L 233.884548 75.956065 
L 236.019929 78.023936 
L 235.894907 78.896592 
L 235.35231 79.531705 
L 235.634861 78.380247 
L 235.562348 78.158957 
L 234.827216 79.102878 
L 235.142273 78.263978 
L 234.942237 77.995181 
L 234.424644 79.67048 
L 234.617179 79.741744 
L 234.923484 79.312916 
L 234.984745 80.161817 
L 235.35231 79.846761 
L 235.642362 80.541883 
L 235.981173 80.161817 
L 235.934914 80.823809 
L 235.666117 80.885695 
L 235.876154 81.315148 
L 235.502337 81.148241 
L 235.23854 81.315148 
L 235.837397 81.420789 
L 236.296229 81.000719 
L 236.149953 81.68959 
L 236.506266 81.944637 
L 236.521269 81.374532 
L 237.338915 81.194502 
L 238.655401 81.994642 
L 238.805427 82.177801 
L 238.509124 82.364709 
L 238.727913 82.457228 
L 239.015465 82.328454 
L 238.929199 82.154673 
L 241.50591 82.350331 
L 242.51359 83.318004 
L 242.62736 83.832472 
L 242.318555 83.766211 
L 242.199783 83.4224 
L 241.877226 83.767462 
L 241.030825 83.687446 
L 240.617001 83.947493 
L 240.245684 83.681196 
L 239.66308 83.947493 
L 241.00332 84.65387 
L 241.513411 84.161906 
L 241.875976 84.366317 
L 241.350882 84.891413 
L 241.254615 85.635294 
L 242.106017 85.21272 
L 242.62736 85.425258 
L 242.778637 87.56439 
L 243.038684 87.531882 
L 243.126199 87.916327 
L 243.458759 87.74192 
L 243.52002 87.364352 
L 244.157633 87.590644 
L 243.928842 88.227007 
L 243.458759 88.257012 
L 243.58128 88.434544 
L 244.076369 88.685839 
L 244.506446 88.161996 
L 244.457687 88.531436 
L 245.879191 88.685839 
L 245.336594 88.040098 
L 245.756669 87.830686 
L 246.194247 88.056978 
L 246.611822 87.74192 
L 246.404285 88.580821 
L 246.580566 89.125919 
L 248.568421 91.366317 
L 251.216394 92.837206 
L 252.296587 92.900967 
L 252.770422 93.146637 
L 254.246936 94.894448 
L 255.619681 95.873373 
L 255.67219 96.267193 
L 254.607 95.500806 
L 253.549311 95.340778 
L 253.147989 94.698163 
L 252.92795 95.583321 
L 253.283013 96.123419 
L 253.241756 97.319882 
L 253.65558 98.488841 
L 254.080656 98.960175 
L 256.128522 99.88784 
L 256.51234 101.111183 
L 256.503589 102.783357 
L 256.28855 103.454728 
L 255.987247 103.627883 
L 255.859724 103.310952 
L 255.55967 103.533492 
L 255.357134 105.535099 
L 254.925807 104.501164 
L 254.315698 104.066712 
L 254.194426 103.418471 
L 253.508054 103.050905 
L 252.81418 103.94294 
L 253.345525 104.906237 
L 253.031719 105.158783 
L 253.031719 106.060193 
L 253.508054 106.018935 
L 253.555562 105.535099 
L 254.178173 105.882036 
L 254.21318 106.144583 
L 254.742024 106.248977 
L 255.147096 107.003487 
L 254.840792 107.397307 
L 255.003321 108.117435 
L 255.67219 109.425794 
L 256.983675 111.012327 
L 257.141203 111.742458 
L 256.668618 110.893557 
L 255.408393 110.184054 
L 255.469654 110.698522 
L 255.987247 111.113596 
L 256.197284 110.893557 
L 256.781138 111.999379 
L 258.531451 114.043494 
L 258.935273 114.365427 
L 258.74649 113.722812 
L 259.044043 113.57091 
L 259.486622 114.320419 
L 260.42929 114.733617 
L 261.179424 116.614579 
L 261.136917 117.68852 
L 261.620753 118.764963 
L 261.822039 120.607792 
L 261.984568 120.791575 
L 262.102089 120.495272 
L 262.49966 120.794075 
L 263.349812 121.757997 
L 263.653616 122.773178 
L 264.34499 123.268265 
L 264.512519 124.796667 
L 264.870083 125.499917 
L 265.262654 125.640564 
L 265.596463 125.342386 
L 266.720027 127.036055 
L 267.451201 127.791839 
L 268.223658 128.091137 
L 270.014677 128.207048 
L 270.813333 127.95975 
L 271.855035 127.198196 
L 272.677728 127.218971 
L 273.082801 127.555281 
L 273.255331 127.429013 
L 273.007787 127.92535 
L 273.19407 128.868018 
L 273.674156 128.639228 
L 274.508055 127.6403 
L 274.620575 127.113952 
L 276.203358 127.847836 
L 275.364458 128.290415 
L 274.620575 129.31685 
L 273.712913 129.931334 
L 273.255331 130.575823 
L 273.151563 131.492236 
L 272.827755 131.581625 
L 272.831505 132.084844 
L 273.847937 132.237997 
L 274.890624 131.843548 
L 275.907055 132.037332 
L 276.630935 132.691824 
L 277.294803 132.877484 
L 277.353414 134.849142 
L 277.666207 135.60969 
L 292.490549 153.11937 
L 331.616714 157.999027 
L 332.869475 156.729597 
L 339.627082 167.173242 
L 339.793799 167.861547 
L 339.219335 169.596148 
L 335.293419 181.412422 
L 329.666915 198.33429 
L 283.582289 213.693717 
L 239.801536 219.585982 
L 238.373325 220.083354 
L 224.94782 226.701633 
L 216.145942 237.234988 
L 214.132632 242.3413 
L 213.681089 242.921857 
L 209.575693 245.159616 
L 207.051417 245.143149 
L 206.641469 245.015128 
L 203.213444 240.438342 
L 202.64343 240.121579 
L 196.690829 240.909915 
L 182.983493 239.558711 
L 179.784109 237.939965 
L 175.948619 237.750871 
L 170.940154 237.718469 
L 169.64214 238.138439 
L 167.217595 237.919324 
L 164.25876 238.3512 
L 163.298151 238.132882 
L 162.320076 239.076025 
L 161.068903 238.701306 
L 160.067011 239.663504 
L 159.704997 239.715107 
L 159.381089 239.55633 
L 159.268356 238.918833 
L 156.870803 238.937888 
L 155.454407 237.615467 
L 154.511356 236.932515 
L 153.129985 236.402196 
L 151.989162 236.364091 
L 150.899949 236.940419 
L 148.96364 238.403599 
L 148.181657 239.345154 
L 149.059701 239.623016 
L 149.520158 240.173976 
L 149.46538 240.482006 
L 148.045107 241.130617 
L 147.465566 243.027225 
L 147.733902 244.204564 
L 147.37665 245.734395 
L 147.886329 246.895064 
L 148.895365 247.473018 
L 148.850908 247.833446 
L 148.234847 248.38917 
L 148.49866 249.193799 
L 148.411091 249.504588 
L 148.149107 249.552221 
L 146.951124 249.382327 
L 146.203278 251.47582 
L 145.199799 252.098232 
L 144.213785 252.350689 
L 144.081999 253.279543 
L 142.411957 254.016 
L 142.285685 253.25899 
L 142.495722 252.758275 
L 141.47804 251.30864 
L 141.610564 249.404551 
L 141.333015 249.339538 
L 141.096722 248.821946 
L 141.227996 248.490638 
L 140.050285 247.191656 
L 139.453929 246.859096 
L 139.130121 246.927859 
L 138.606277 246.226482 
L 138.820065 245.549488 
L 138.643784 244.285512 
L 138.159948 243.783546 
L 137.158519 243.599139 
L 136.594668 241.959469 
L 135.76327 241.549397 
L 136.183345 242.493316 
L 135.872039 242.6821 
L 135.859537 243.97108 
L 135.013135 237.526179 
L 132.447677 235.577081 
L 131.720047 234.334359 
L 131.101187 234.316853 
L 130.291042 233.329803 
L 129.965984 233.434822 
L 128.278182 231.74702 
L 127.945623 231.878296 
L 127.37052 231.495102 
L 127.020458 231.54636 
L 125.325155 229.594762 
L 125.270145 228.847127 
L 124.96134 228.753984 
L 124.922583 228.390171 
L 124.038675 227.516264 
L 124.09431 227.12859 
L 123.468573 226.311674 
L 123.539836 226.072883 
L 122.929727 225.967864 
L 123.119761 225.757827 
L 122.887219 225.487153 
L 122.49965 225.549041 
L 122.699686 224.807657 
L 122.174592 224.700137 
L 121.571984 221.703352 
L 120.385522 220.247467 
L 119.964197 219.961789 
L 119.649141 220.179953 
L 119.151552 219.89428 
L 118.150123 218.267115 
L 118.746479 216.174241 
L 117.551266 215.598511 
L 117.017421 214.602085 
L 117.632531 212.591725 
L 117.216206 212.186653 
L 115.974734 211.700314 
L 115.538406 210.80703 
L 115.475895 209.562435 
L 114.243175 208.352216 
L 113.963125 207.183882 
L 114.294434 206.621281 
L 114.070644 205.858023 
L 112.392845 205.229159 
L 111.240139 204.275238 
L 111.762732 204.389634 
L 111.817742 202.990633 
L 111.001346 201.689779 
L 109.606097 201.423479 
L 109.644854 201.958575 
L 108.229601 200.016976 
L 107.654498 199.641285 
L 107.769519 198.850518 
L 106.403024 198.114763 
L 105.604132 197.276488 
L 104.373912 196.870166 
L 103.123689 195.751216 
L 103.226207 195.528676 
L 102.089754 195.18549 
L 100.845782 193.974023 
L 100.251926 193.868379 
L 99.43428 194.167183 
L 98.069036 193.528319 
L 98.646639 194.282203 
L 95.872393 192.874452 
L 95.634851 192.408119 
L 94.127081 191.172898 
L 92.911864 189.542607 
L 93.331939 189.218799 
L 92.544299 188.751215 
L 92.281752 187.959823 
L 91.76791 187.414101 
L 91.969196 186.797116 
L 91.224063 186.596455 
L 91.536619 186.911511 
L 91.235315 186.820871 
L 90.696469 186.408297 
L 90.698969 185.75693 
L 91.224063 186.061985 
L 91.089039 185.554394 
L 90.513936 185.253715 
L 90.488932 185.538141 
L 89.721294 185.011797 
L 89.404988 184.630479 
L 89.431243 184.279166 
L 89.720044 184.487953 
L 89.615025 184.132265 
L 89.231207 183.948482 
L 88.759873 184.069128 
L 87.84846 181.934997 
L 86.873286 181.228621 
L 86.599487 180.327211 
L 86.809524 179.959644 
L 85.435529 178.061805 
L 86.823277 176.692812 
L 86.494468 175.525102 
L 86.636994 175.100026 
L 86.388199 174.591186 
L 86.035636 174.96 
L 85.613061 174.043588 
L 85.38427 172.277023 
L 85.870607 171.413118 
L 85.750585 171.225585 
L 85.55305 171.679415 
L 85.22049 171.759431 
L 83.420839 168.738049 
L 83.13901 167.445162 
L 83.160536 167.151532 
L 83.56749 167.009316 
L 83.983348 167.504065 
L 84.282603 167.507655 
L 84.877929 165.528942 
L 84.911685 165.217635 
L 84.596629 165.74273 
L 84.49161 165.517064 
L 84.815418 163.916153 
L 86.388199 161.343818 
L 85.960623 161.107528 
L 85.651536 161.851427 
L 85.274476 161.91834 
L 85.447475 159.13823 
L 83.975268 156.411687 
L 84.395343 155.758445 
L 83.357658 154.768895 
L 83.747727 156.064124 
L 82.69879 154.585112 
L 81.908791 153.047163 
L 82.35786 153.274248 
L 82.856318 154.29631 
L 83.442673 154.450089 
L 83.65271 154.166286 
L 82.565016 152.711026 
L 81.341047 152.440981 
L 81.116007 152.195937 
L 80.800951 151.543319 
L 81.18977 150.958214 
L 81.097254 149.877398 
L 80.917653 149.801285 
L 80.778767 150.035807 
L 79.762015 148.554036 
L 78.723505 145.731449 
L 78.052739 143.445863 
L 77.434099 143.534387 
L 77.980447 144.164499 
L 77.129272 143.829978 
L 77.116342 143.082988 
L 76.434644 142.272356 
L 75.786305 140.13128 
L 74.97091 139.669119 
L 74.445153 138.803248 
L 73.735165 138.558402 
L 72.809906 137.660709 
L 71.679982 137.182776 
L 70.048135 135.731618 
L 69.534917 135.777676 
L 67.838748 134.67744 
L 68.57234 134.267915 
L 68.421593 134.12896 
L 67.903416 134.332791 
L 68.032761 133.632164 
L 67.489336 133.870422 
L 67.574691 134.514813 
L 66.768172 134.51028 
L 63.856267 132.338791 
L 63.086536 132.48929 
L 63.123518 133.002398 
L 62.468774 133.023575 
L 61.853202 132.597265 
L 61.500073 132.699878 
L 60.066471 131.170131 
L 60.042665 130.343231 
L 60.459004 130.562322 
L 60.585803 130.321501 
L 59.350861 128.523705 
L 56.980445 125.479913 
L 56.957942 124.529741 
L 56.485357 124.682269 
L 56.215309 124.532243 
L 55.752726 123.738977 
L 56.832919 123.80649 
L 57.411773 123.428294 
L 57.434277 122.651906 
L 57.770587 122.001791 
L 57.333009 120.642798 
L 57.190483 118.757461 
L 55.087607 116.500808 
L 54.388733 115.003666 
L 54.658781 114.828009 
L 53.749868 113.850335 
L 52.490894 111.523669 
L 51.650743 111.113596 
L 50.664317 109.805862 
L 50.330508 109.782733 
L 50.45803 110.284698 
L 50.277998 110.379714 
L 48.896501 109.467676 
L 48.278891 107.944905 
L 48.950261 106.951602 
L 48.800234 105.745137 
L 47.948832 105.162533 
L 46.351047 104.821221 
L 45.983481 104.382393 
L 42.852922 98.433205 
L 41.637705 96.477232 
L 39.607342 94.504379 
L 38.598412 92.156459 
L 38.320862 92.225222 
L 36.753082 90.731204 
L 35.081533 88.542064 
L 35.23156 87.789429 
L 34.788981 87.106808 
L 31.340865 83.724954 
L 30.586981 82.364709 
L 30.429452 81.210131 
L 28.802912 78.787823 
L 28.141544 78.412754 
L 27.702715 77.262548 
L 26.517504 75.940437 
L 25.257278 75.218436 
L 26.229952 74.852742 
L 26.067423 74.526437 
L 25.229773 74.468301 
L 23.541972 73.525007 
L 23.046883 73.618773 
L 23.216914 73.839435 
L 22.711824 73.607521 
L 21.634131 74.154496 
L 20.596446 74.0501 
L 20.385158 74.268265 
L 20.326397 73.828187 
L 20.688962 73.629398 
L 20.236382 73.575638 
L 19.746294 74.268265 
L 19.545008 74.154496 
L 19.965083 73.629398 
L 19.222451 73.934452 
L 19.22245 73.735044 
L 18.556081 73.639399 
L 18.277282 73.209948 
L 18.058493 73.419361 
L 17.858457 73.285589 
L 17.744687 73.629398 
L 17.323361 73.839435 
L 17.648419 74.268265 
L 17.323361 74.268265 
L 17.137078 74.850868 
L 16.799517 74.897752 
L 16.694499 73.886946 
L 16.205661 73.91695 
z
" clip-path="url(#p4859729a15)" style="fill: #ffeadb; stroke: #000000; stroke-width: 0.5"/>
    <path d="M 126.551531 245.944189 
L 127.642281 246.524354 
L 128.133509 247.100236 
L 128.183165 247.652987 
L 128.82611 248.230026 
L 129.382978 248.174915 
L 129.566254 248.452528 
L 130.453107 248.360628 
L 130.820926 248.71869 
L 131.275905 248.524976 
L 130.843926 248.442603 
L 130.61735 248.103692 
L 131.018672 247.239164 
L 131.238711 247.206658 
L 131.882265 247.543284 
L 132.07386 248.282475 
L 133.147581 248.87608 
L 132.995767 249.703881 
L 133.174632 250.416408 
L 133.026531 250.751042 
L 132.677448 250.728082 
L 132.249432 250.230635 
L 131.407473 249.947276 
L 132.090542 249.57774 
L 131.990393 249.261043 
L 131.600786 249.060485 
L 130.755344 249.152415 
L 129.907478 249.520928 
L 127.877081 248.243258 
L 127.593987 247.451813 
L 126.875432 247.229786 
z
" clip-path="url(#p4859729a15)" style="fill: #ffeadb; stroke: #000000; stroke-width: 0.5"/>
    <path d="M 127.748088 246.016445 
L 128.561983 245.7689 
L 129.184594 245.045022 
L 129.068323 244.675581 
L 127.920618 244.391154 
L 128.145659 244.142985 
L 129.333371 244.768723 
L 129.420016 246.14258 
L 129.914104 246.264771 
L 130.055714 246.601346 
L 129.424637 246.610302 
L 129.243355 246.835341 
L 129.333371 247.096638 
L 130.213349 247.470798 
L 130.311718 248.024072 
L 129.037346 247.560619 
z
" clip-path="url(#p4859729a15)" style="fill: #ffeadb; stroke: #000000; stroke-width: 0.5"/>
    <path d="M 45.75344 111.864355 
L 45.783445 111.27175 
L 46.458566 110.652263 
L 46.136008 111.277375 
L 46.264781 111.547424 
L 47.468746 112.362569 
L 47.802556 112.348816 
L 47.907575 112.622616 
L 48.601449 112.657622 
L 48.363906 113.004559 
L 46.828632 112.2563 
L 46.241027 112.327563 
z
" clip-path="url(#p4859729a15)" style="fill: #ffeadb; stroke: #000000; stroke-width: 0.5"/>
    <path d="M 244.791496 85.864086 
L 245.522877 85.185838 
L 246.509303 85.320864 
L 248.404642 85.844082 
L 247.151918 85.770943 
L 246.509303 86.149761 
L 246.089228 85.939725 
L 246.334272 85.680929 
L 245.984209 85.406504 
L 245.31284 85.591535 
L 244.831504 86.264158 
z
" clip-path="url(#p4859729a15)" style="fill: #ffeadb; stroke: #000000; stroke-width: 0.5"/>
    <path d="M 52.648422 114.66173 
L 52.877212 114.110381 
L 53.458566 114.238529 
L 53.607343 114.539208 
L 53.739867 114.418561 
L 53.882392 115.003666 
L 54.119935 115.191824 
L 53.901145 115.161819 
L 53.949904 115.324348 
L 52.955977 114.552961 
z
" clip-path="url(#p4859729a15)" style="fill: #ffeadb; stroke: #000000; stroke-width: 0.5"/>
    <path d="M 50.036705 113.82408 
L 50.761835 114.38543 
L 52.174587 114.894897 
L 51.924542 115.015543 
L 51.999556 115.395611 
L 52.58091 115.023044 
L 52.877212 115.08243 
L 51.929543 115.903827 
L 50.376766 114.576714 
z
" clip-path="url(#p4859729a15)" style="fill: #ffeadb; stroke: #000000; stroke-width: 0.5"/>
    <path d="M 48.571443 113.090824 
L 48.726471 112.736386 
L 49.254065 112.767642 
L 50.014201 113.225223 
L 51.541974 114.332296 
L 51.613237 114.639226 
L 50.246743 113.801576 
L 49.156548 112.913917 
z
" clip-path="url(#p4859729a15)" style="fill: #ffeadb; stroke: #000000; stroke-width: 0.5"/>
    <path d="M 46.441063 109.130117 
L 47.183695 108.229955 
L 46.639848 109.216382 
L 47.291215 109.799611 
L 47.146189 110.477232 
L 47.495001 110.550995 
L 47.063674 110.716649 
L 46.468568 110.214686 
z
" clip-path="url(#p4859729a15)" style="fill: #ffeadb; stroke: #000000; stroke-width: 0.5"/>
    <path d="M 51.905789 112.302558 
L 52.154583 112.130652 
L 52.35962 112.338815 
L 52.329615 112.59261 
L 52.147082 112.558229 
L 52.289608 113.470267 
L 51.944546 113.011435 
z
" clip-path="url(#p4859729a15)" style="fill: #ffeadb; stroke: #000000; stroke-width: 0.5"/>
    <path d="M 50.811844 113.043941 
L 51.031883 112.693253 
L 51.419452 112.885162 
L 51.155655 113.26148 
z
" clip-path="url(#p4859729a15)" style="fill: #ffeadb; stroke: #000000; stroke-width: 0.5"/>
   </g>
  </g>
 </g>
 <defs>
  <clipPath id="p4859729a15">
   <rect x="0" y="-0" width="355.974456" height="266.112"/>
  </clipPath>
 </defs>
</svg>
