<?xml version="1.0" encoding="utf-8" standalone="no"?>
<!DOCTYPE svg PUBLIC "-//W3C//DTD SVG 1.1//EN"
  "http://www.w3.org/Graphics/SVG/1.1/DTD/svg11.dtd">
<svg xmlns:xlink="http://www.w3.org/1999/xlink" width="357.12pt" height="152.515227pt" viewBox="0 0 357.12 152.515227" xmlns="http://www.w3.org/2000/svg" version="1.1">
 <metadata>
  <rdf:RDF xmlns:dc="http://purl.org/dc/elements/1.1/" xmlns:cc="http://creativecommons.org/ns#" xmlns:rdf="http://www.w3.org/1999/02/22-rdf-syntax-ns#">
   <cc:Work>
    <dc:type rdf:resource="http://purl.org/dc/dcmitype/StillImage"/>
    <dc:date>2025-06-04T13:25:07.887318</dc:date>
    <dc:format>image/svg+xml</dc:format>
    <dc:creator>
     <cc:Agent>
      <dc:title>Matplotlib v3.10.3, https://matplotlib.org/</dc:title>
     </cc:Agent>
    </dc:creator>
   </cc:Work>
  </rdf:RDF>
 </metadata>
 <defs>
  <style type="text/css">*{stroke-linejoin: round; stroke-linecap: butt}</style>
 </defs>
 <g id="figure_1">
  <g id="patch_1">
   <path d="M 0 152.515227 
L 357.12 152.515227 
L 357.12 0 
L 0 0 
L 0 152.515227 
z
" style="fill: none"/>
  </g>
  <g id="axes_1">
   <g id="PatchCollection_1">
    <path d="M 87.999931 29.579966 
L 91.509334 30.893265 
L 92.923809 30.29415 
L 93.455476 31.087685 
L 94.407717 31.488418 
L 95.306394 31.077761 
L 95.669436 31.905021 
L 98.246437 34.499878 
L 101.10911 36.166298 
L 101.043644 37.078864 
L 102.745774 37.574818 
L 103.448051 38.638155 
L 103.787287 38.511193 
L 104.449888 39.026987 
L 105.453708 38.669895 
L 106.435706 38.840506 
L 106.126228 38.981361 
L 106.459512 39.415819 
L 107.334383 39.661812 
L 107.59625 40.173644 
L 108.012855 39.868132 
L 108.703229 40.673568 
L 109.496763 40.741018 
L 109.958997 40.340285 
L 110.792207 40.840209 
L 111.173103 40.558507 
L 111.881333 41.756744 
L 121.88581 48.926319 
L 120.963328 50.402297 
L 120.017039 50.382457 
L 119.82659 50.68003 
L 120.411822 51.358503 
L 121.070455 51.027205 
L 121.296612 51.229556 
L 122.225047 52.60832 
L 122.308368 53.453435 
L 123.30822 54.413611 
L 122.986839 54.699282 
L 121.471189 54.203321 
L 118.725562 51.790977 
L 118.431954 50.931976 
L 116.648487 49.705968 
L 114.619025 49.277464 
L 112.202714 47.843151 
L 109.778467 47.361075 
L 109.310283 46.494143 
L 108.369945 46.228311 
L 108.11403 45.696639 
L 107.060615 45.772028 
L 104.283246 43.851676 
L 103.604774 43.851676 
L 103.454003 43.171218 
L 101.605069 43.018462 
L 100.775826 41.840065 
L 100.093387 42.185256 
L 99.83152 41.328233 
L 97.597723 40.340285 
L 97.264438 38.987308 
L 96.103895 38.921842 
L 95.419472 37.84462 
L 94.996916 38.173941 
L 94.133948 36.672177 
L 93.342398 36.237718 
L 92.923808 36.34881 
L 91.241516 34.999802 
L 91.241516 32.910823 
L 88.081268 30.659173 
z
" clip-path="url(#p5cf3db6185)" style="fill: #ffeadb; stroke: #000000; stroke-width: 0.5"/>
    <path d="M 139.901014 49.289365 
L 140.394989 48.922357 
L 142.204246 49.3588 
L 142.86883 49.874594 
L 143.537383 49.49767 
L 142.769639 48.620815 
L 143.156487 48.351014 
L 143.936134 48.537495 
L 145.477573 49.942045 
L 145.947742 51.247411 
L 150.036425 55.707069 
L 150.179261 57.135428 
L 148.709239 57.861512 
L 148.812399 60.82536 
L 149.52658 61.716108 
L 150.673236 61.483993 
L 151.554059 62.221985 
L 151.554058 62.900451 
L 152.62533 63.168275 
L 153.797776 64.138367 
L 154.232235 64.745421 
L 153.914822 64.622421 
L 153.595425 65.090611 
L 154.383006 65.650047 
L 154.775806 67.399794 
L 155.68837 67.893764 
L 155.049575 68.740863 
L 155.743917 69.240787 
L 156.347003 69.191191 
L 156.410486 69.738733 
L 157.0592 69.905374 
L 156.069267 70.369595 
L 156.910412 72.416908 
L 156.581096 72.595457 
L 156.077202 72.08561 
L 155.904608 72.482374 
L 157.344872 74.1488 
L 158.112616 76.057243 
L 159.404093 77.775249 
L 159.533042 80.522859 
L 157.410338 79.523004 
L 156.077202 77.261433 
L 155.894689 76.275471 
L 154.482199 74.672533 
L 152.811809 73.831381 
L 152.228562 73.156877 
L 151.089842 73.002144 
L 151.220774 72.583549 
L 150.538336 71.819778 
L 149.459129 71.494427 
L 149.375808 70.738588 
L 146.894031 69.074145 
L 144.368609 64.066947 
L 143.97581 61.835138 
L 142.632754 59.301779 
L 142.479999 57.433008 
L 141.690433 55.715008 
L 143.287419 54.479076 
L 141.615047 51.705679 
L 140.204541 50.372541 
z
" clip-path="url(#p5cf3db6185)" style="fill: #ffeadb; stroke: #000000; stroke-width: 0.5"/>
    <path d="M 157.0592 97.639383 
L 157.168311 96.740707 
L 157.428193 94.792581 
L 159.767134 94.717195 
L 162.356038 95.855916 
L 166.41298 98.639236 
L 166.867278 98.460691 
L 168.033773 99.625202 
L 169.091157 99.652976 
L 170.485793 100.638942 
L 171.935976 100.31756 
L 173.602397 100.484202 
L 174.717312 101.406686 
L 175.925468 101.402718 
L 176.544424 100.656796 
L 177.260588 100.87105 
L 178.46676 102.144672 
L 180.069698 105.457676 
L 181.505995 106.612268 
L 181.609154 108.385816 
L 180.950521 108.988902 
L 181.115179 109.595954 
L 183.88858 109.703082 
L 184.037368 110.191105 
L 182.46617 110.337909 
L 179.53803 109.441216 
L 178.438986 110.004624 
L 177.193138 109.822113 
L 174.764924 108.504847 
L 173.745233 108.790519 
L 172.26926 108.322333 
L 171.852655 108.504847 
L 170.757578 107.493091 
L 170.602839 108.006904 
L 170.069188 107.616089 
L 169.424441 107.659732 
L 168.365074 106.388094 
L 167.42672 106.326596 
L 167.051775 105.588609 
L 165.897183 104.822849 
L 165.369483 104.965685 
L 164.081975 103.317119 
L 163.588 103.6385 
L 162.903577 103.497647 
L 163.403503 101.983982 
L 162.992849 101.06745 
L 162.068382 101.15077 
L 162.484988 100.470316 
L 162.068382 99.98626 
L 162.790498 98.918957 
L 162.570292 98.639236 
L 159.933776 97.788171 
L 158.499464 98.141294 
L 157.521433 97.919104 
z
" clip-path="url(#p5cf3db6185)" style="fill: #ffeadb; stroke: #000000; stroke-width: 0.5"/>
    <path d="M 58.085688 46.295761 
L 58.585614 45.696639 
L 59.680691 45.349471 
L 59.966362 45.76012 
L 60.329405 45.516112 
L 60.563497 43.899287 
L 61.936311 41.756744 
L 63.356736 40.493041 
L 64.856515 40.007003 
L 66.715369 41.123904 
L 67.36805 41.173499 
L 67.471209 44.799944 
L 68.320291 45.990249 
L 68.197293 46.861151 
L 70.403317 46.434624 
L 71.581715 47.164677 
L 71.859452 48.027647 
L 73.041817 49.208029 
L 73.041817 50.039251 
L 73.704418 50.705824 
L 74.204344 52.384145 
L 74.720141 52.717427 
L 74.083331 54.098183 
L 74.204344 55.199206 
L 72.041965 54.550496 
L 72.605374 55.20516 
L 72.375249 56.04829 
L 71.026241 53.866069 
L 69.05431 53.401855 
L 67.36805 52.384145 
L 66.68561 51.622351 
L 66.368198 48.874747 
L 66.816544 50.410228 
L 67.387888 50.568938 
L 67.596191 51.041091 
L 68.018748 50.455862 
L 66.003171 47.361075 
L 64.856516 47.541609 
L 64.348653 47.228158 
L 64.203834 47.541609 
L 61.011844 47.694365 
L 59.847333 49.208029 
L 58.167024 48.708098 
z
" clip-path="url(#p5cf3db6185)" style="fill: #ffeadb; stroke: #000000; stroke-width: 0.5"/>
    <path d="M 39.304724 7.61098 
L 40.118097 6.93251 
L 41.586134 7.117007 
L 42.403474 8.071233 
L 43.903253 8.202164 
L 47.247998 11.146174 
L 52.429775 13.413699 
L 52.905895 14.042573 
L 53.643882 14.104073 
L 55.540428 16.141472 
L 55.925291 18.710535 
L 57.169156 20.972109 
L 57.667098 20.626922 
L 58.180911 21.370858 
L 59.420808 21.791431 
L 59.984217 23.104729 
L 61.287597 23.644333 
L 62.025583 24.483497 
L 62.237854 24.078795 
L 63.465847 24.318837 
L 65.070769 23.930005 
L 65.400086 24.168066 
L 65.435795 25.651975 
L 64.146303 25.989227 
L 63.523378 27.147785 
L 63.372607 26.709358 
L 60.537707 26.161819 
L 60.111183 25.394074 
L 60.329404 24.81678 
L 59.347406 25.649991 
L 57.50244 24.81678 
L 55.488848 24.959616 
L 53.991053 23.152344 
L 52.961442 23.501497 
L 52.933669 22.751607 
L 50.842707 21.700175 
L 44.974524 14.104073 
L 42.760564 12.973286 
L 39.467399 10.110612 
z
" clip-path="url(#p5cf3db6185)" style="fill: #ffeadb; stroke: #000000; stroke-width: 0.5"/>
    <path d="M 115.793455 74.178556 
L 116.374718 72.565694 
L 118.642241 71.405152 
L 120.348339 72.240351 
L 124.266413 75.91838 
L 126.418873 75.65651 
L 126.795802 75.462098 
L 128.676477 75.928296 
L 129.581106 75.428372 
L 131.354654 75.761655 
L 131.85458 75.428372 
L 134.667658 75.428372 
L 135.955167 76.606769 
L 136.933197 76.946006 
L 138.014387 78.439829 
L 138.919015 78.320799 
L 141.055606 79.560699 
L 141.861042 80.665691 
L 142.142747 82.381713 
L 143.108875 82.318232 
L 144.882422 83.099858 
L 145.840614 86.508084 
L 141.454357 88.21022 
L 138.135401 87.043725 
L 136.288451 87.039756 
L 135.681397 86.293833 
L 133.544808 85.236451 
L 126.498226 85.448719 
L 122.986839 84.448864 
L 121.729088 84.718666 
L 118.99338 82.599934 
L 118.400213 81.189424 
L 117.820934 81.046591 
L 117.301169 79.378188 
L 116.029531 78.088692 
L 116.648487 77.261433 
L 116.148561 76.275471 
L 116.148561 74.505884 
z
" clip-path="url(#p5cf3db6185)" style="fill: #ffeadb; stroke: #000000; stroke-width: 0.5"/>
    <path d="M 124.895288 126.93864 
L 124.986544 126.387132 
L 125.815787 125.36149 
L 127.014023 126.192716 
L 127.861121 126.182796 
L 132.743338 129.170454 
L 135.338194 130.156416 
L 138.014387 132.062883 
L 139.928787 133.497196 
L 139.359426 133.895945 
L 138.359574 133.895945 
L 137.514461 134.719239 
L 136.695137 133.729303 
L 136.181323 133.895945 
L 135.127907 133.227395 
L 134.514902 131.59668 
L 132.703661 130.86663 
L 132.336652 129.551347 
L 131.354654 129.384706 
L 130.854727 130.051275 
L 129.842972 130.051275 
L 127.994038 129.220049 
L 128.192421 128.870892 
L 127.748042 128.557446 
L 126.31373 128.763766 
z
" clip-path="url(#p5cf3db6185)" style="fill: #ffeadb; stroke: #000000; stroke-width: 0.5"/>
    <path d="M 74.037702 57.62742 
L 74.537629 54.699282 
L 75.462095 55.111916 
L 75.719994 54.723084 
L 75.886636 55.048435 
L 75.886636 53.866069 
L 77.215806 53.203473 
L 77.307061 54.286641 
L 78.368413 53.866069 
L 79.487296 53.752992 
L 80.211395 54.286641 
L 80.046737 55.199206 
L 79.310734 55.262687 
L 78.564813 55.881649 
L 79.380169 56.214932 
L 79.880095 56.04829 
L 79.213527 56.714855 
L 79.767017 57.266367 
L 79.558714 57.835726 
L 77.922051 59.43668 
L 76.957907 59.692596 
L 75.934248 59.41684 
z
" clip-path="url(#p5cf3db6185)" style="fill: #ffeadb; stroke: #000000; stroke-width: 0.5"/>
    <path d="M 265.979871 108.072419 
L 267.169061 107.01689 
L 267.061901 107.857336 
L 267.659946 108.322941 
L 267.885886 106.994051 
L 269.027821 105.755565 
L 271.86691 105.860218 
L 272.650331 105.515926 
L 274.071721 106.126228 
L 275.480385 106.057961 
L 275.605862 106.662402 
L 275.242183 107.411753 
L 273.328941 108.434286 
L 272.058263 108.202303 
L 271.532412 108.596103 
L 270.396788 108.653908 
L 268.635399 110.916098 
L 268.110144 109.600389 
L 267.126827 110.160476 
L 266.399282 110.118545 
L 266.063826 109.541727 
z
" clip-path="url(#p5cf3db6185)" style="fill: #ffeadb; stroke: #000000; stroke-width: 0.5"/>
    <path d="M 40.344254 33.065564 
L 40.516847 31.970487 
L 42.145576 30.492532 
L 43.12559 30.492532 
L 45.803767 33.684519 
L 46.355273 33.476221 
L 47.902664 34.166595 
L 47.716184 35.297382 
L 45.391129 38.185842 
L 45.795831 39.326544 
L 45.307809 39.659834 
L 44.756303 39.338453 
L 44.307956 39.507079 
L 44.290101 38.160055 
L 43.141461 37.848589 
L 43.212879 36.237718 
L 42.145576 34.999802 
L 41.516701 34.809359 
L 41.264753 34.079305 
L 40.796568 34.166595 
z
" clip-path="url(#p5cf3db6185)" style="fill: #ffeadb; stroke: #000000; stroke-width: 0.5"/>
    <path d="M 102.358926 66.762978 
L 103.120718 66.745123 
L 103.0493 66.18965 
L 103.604774 66.245199 
L 103.604774 65.927787 
L 104.102717 66.078558 
L 103.604774 65.229474 
L 104.382437 65.364375 
L 104.61653 65.082672 
L 104.878396 65.876207 
L 105.243422 66.074588 
L 105.43387 65.804787 
L 106.116309 65.927787 
L 104.949814 67.893764 
L 103.787287 68.240939 
L 103.215942 67.705298 
L 102.938206 67.893764 
z
" clip-path="url(#p5cf3db6185)" style="fill: #ffeadb; stroke: #000000; stroke-width: 0.5"/>
    <path d="M 57.50244 54.782603 
L 60.33734 51.513244 
L 61.525657 51.052992 
L 62.337045 51.812801 
L 62.692151 53.128084 
L 61.769669 54.957183 
L 61.347112 55.048435 
L 60.845201 55.048435 
L 60.632932 56.812069 
L 61.644687 58.073787 
L 62.692152 58.559825 
L 62.311256 58.797886 
L 60.216326 57.960703 
L 60.180617 57.228672 
L 59.377164 56.06813 
z
" clip-path="url(#p5cf3db6185)" style="fill: #ffeadb; stroke: #000000; stroke-width: 0.5"/>
    <path d="M 29.268505 16.133537 
L 30.016411 15.532433 
L 29.863655 14.439341 
L 30.351679 14.213184 
L 29.369681 12.995111 
L 30.099732 12.106351 
L 30.613545 12.272992 
L 30.016411 12.544778 
L 29.780334 13.189523 
L 30.726623 13.64184 
L 31.113471 14.617887 
L 31.946682 14.937284 
L 30.946829 14.937284 
L 30.266374 16.282323 
L 30.099732 15.78438 
z
" clip-path="url(#p5cf3db6185)" style="fill: #ffeadb; stroke: #000000; stroke-width: 0.5"/>
    <path d="M 84.706765 30.734562 
L 85.817713 30.901204 
L 85.809777 30.434998 
L 86.21448 30.327875 
L 88.831158 31.488418 
L 89.575096 31.992311 
L 89.745705 32.654907 
L 88.9978 32.482319 
L 88.56334 31.821701 
L 88.307425 32.149037 
L 86.900886 31.488418 
L 87.248057 32.305754 
L 85.809777 32.154983 
L 85.742327 31.655059 
z
" clip-path="url(#p5cf3db6185)" style="fill: #ffeadb; stroke: #000000; stroke-width: 0.5"/>
    <path d="M 158.751411 73.619114 
L 160.405929 75.013747 
L 163.403504 80.106256 
L 164.081975 83.615659 
L 163.500711 84.686925 
L 162.016802 82.236889 
L 161.485134 82.183324 
L 161.056626 83.282369 
L 159.882196 81.699271 
L 159.677862 77.73954 
L 160.088515 76.7258 
L 159.737377 75.428372 
L 159.255305 75.595014 
z
" clip-path="url(#p5cf3db6185)" style="fill: #ffeadb; stroke: #000000; stroke-width: 0.5"/>
    <path d="M 127.664721 66.32852 
L 129.176403 65.927787 
L 129.337094 65.114413 
L 130.819018 65.431825 
L 131.172141 65.927787 
L 132.02519 65.586566 
L 133.084558 66.868123 
L 132.183897 68.574222 
L 131.299106 67.762833 
L 131.005499 68.240939 
L 130.307189 67.360115 
L 128.660606 67.574367 
L 128.093229 66.745123 
z
" clip-path="url(#p5cf3db6185)" style="fill: #ffeadb; stroke: #000000; stroke-width: 0.5"/>
    <path d="M 51.312876 40.493041 
L 52.651964 37.945796 
L 54.824263 37.344696 
L 56.758502 38.792895 
L 57.50244 41.006858 
L 57.466731 42.57805 
L 56.681133 44.292088 
L 56.169303 44.611486 
L 55.65549 44.034188 
L 55.155564 44.034188 
L 53.925586 44.135363 
L 52.6599 43.105752 
z
" clip-path="url(#p5cf3db6185)" style="fill: #ffeadb; stroke: #000000; stroke-width: 0.5"/>
    <path d="M 131.146351 69.334031 
L 131.929965 69.240787 
L 132.854433 68.574222 
L 133.413874 66.870107 
L 133.836431 66.911771 
L 134.49308 68.070329 
L 135.834153 68.574222 
L 134.667658 69.905374 
L 133.169862 69.262611 
L 132.425925 69.911328 
L 131.354654 70.072015 
z
" clip-path="url(#p5cf3db6185)" style="fill: #ffeadb; stroke: #000000; stroke-width: 0.5"/>
    <path d="M 290.703826 129.563559 
L 290.898285 128.912761 
L 291.637082 128.541616 
L 293.205807 128.478094 
L 294.80681 128.961998 
L 294.523065 129.745935 
L 294.52542 130.558119 
L 295.852323 130.465458 
L 295.99129 131.425337 
L 292.550962 131.5095 
z
" clip-path="url(#p5cf3db6185)" style="fill: #ffeadb; stroke: #000000; stroke-width: 0.5"/>
    <path d="M 114.470236 51.53903 
L 114.968179 50.481648 
L 116.860758 50.354686 
L 117.130559 52.407954 
L 118.146283 53.370114 
L 118.410132 53.786717 
L 117.445989 54.143809 
L 116.019611 52.905893 
L 115.481993 53.050717 
L 114.76186 52.465481 
z
" clip-path="url(#p5cf3db6185)" style="fill: #ffeadb; stroke: #000000; stroke-width: 0.5"/>
    <path d="M 283.64525 120.702223 
L 283.695619 120.152228 
L 284.80112 119.21687 
L 285.746734 119.996321 
L 285.584662 121.035228 
L 284.590074 121.708911 
L 284.200765 121.54617 
L 284.411517 120.481157 
L 283.785555 120.913799 
z
" clip-path="url(#p5cf3db6185)" style="fill: #ffeadb; stroke: #000000; stroke-width: 0.5"/>
    <path d="M 81.71911 27.298557 
L 83.082004 26.239189 
L 83.548206 26.132063 
L 83.548206 26.798632 
L 83.885457 26.649842 
L 83.714848 27.631843 
L 83.230792 27.298557 
L 83.052247 28.147637 
L 82.230939 27.316411 
z
" clip-path="url(#p5cf3db6185)" style="fill: #ffeadb; stroke: #000000; stroke-width: 0.5"/>
    <path d="M 83.460917 28.512664 
L 83.528367 27.994881 
L 85.734391 29.143523 
L 86.563634 28.941172 
L 87.581341 29.476806 
L 87.248058 30.29415 
L 85.885163 29.976737 
L 85.212643 29.246684 
z
" clip-path="url(#p5cf3db6185)" style="fill: #ffeadb; stroke: #000000; stroke-width: 0.5"/>
    <path d="M 64.197882 26.649842 
L 65.015222 26.132063 
L 67.51287 26.465346 
L 67.693399 27.631843 
L 67.02683 27.147785 
L 66.753061 27.649694 
L 65.999204 27.631843 
L 66.49913 27.147785 
z
" clip-path="url(#p5cf3db6185)" style="fill: #ffeadb; stroke: #000000; stroke-width: 0.5"/>
    <path d="M 63.632489 58.585611 
L 63.703908 58.210672 
L 65.519116 58.393184 
L 66.003171 57.861512 
L 67.608094 58.893108 
L 68.447256 59.643001 
L 68.42345 60.154825 
L 67.774736 60.388917 
z
" clip-path="url(#p5cf3db6185)" style="fill: #ffeadb; stroke: #000000; stroke-width: 0.5"/>
    <path d="M 53.155859 45.688707 
L 55.062323 45.95057 
L 55.65549 47.694365 
L 56.322059 49.208029 
L 55.615813 48.799357 
L 54.81236 47.061517 
L 53.824411 46.861151 
L 54.157695 46.529853 
z
" clip-path="url(#p5cf3db6185)" style="fill: #ffeadb; stroke: #000000; stroke-width: 0.5"/>
    <path d="M 41.205238 39.743155 
L 41.629779 39.507079 
L 42.296347 40.173644 
L 43.12559 42.760561 
L 43.242637 45.149104 
L 42.54631 45.849395 
L 41.352042 43.218829 
z
" clip-path="url(#p5cf3db6185)" style="fill: #ffeadb; stroke: #000000; stroke-width: 0.5"/>
    <path d="M 172.747365 82.921316 
L 173.033036 82.238873 
L 173.949568 82.103973 
L 173.602397 82.933216 
L 173.949568 86.111321 
L 173.27308 85.278108 
z
" clip-path="url(#p5cf3db6185)" style="fill: #ffeadb; stroke: #000000; stroke-width: 0.5"/>
    <path d="M 167.599313 95.383764 
L 167.924662 94.782662 
L 168.855081 95.891625 
L 168.896741 96.53042 
L 168.170658 96.776416 
L 168.176609 96.387584 
z
" clip-path="url(#p5cf3db6185)" style="fill: #ffeadb; stroke: #000000; stroke-width: 0.5"/>
    <path d="M 127.361195 65.697665 
L 127.549659 64.180031 
L 127.994038 63.916176 
L 128.493964 65.229474 
L 128.152745 65.084657 
L 127.664721 65.927787 
z
" clip-path="url(#p5cf3db6185)" style="fill: #ffeadb; stroke: #000000; stroke-width: 0.5"/>
    <path d="M 105.602496 68.740863 
L 106.116309 66.745123 
L 107.114178 65.927787 
L 106.651945 67.197443 
L 107.114178 67.227199 
L 107.044743 67.828298 
z
" clip-path="url(#p5cf3db6185)" style="fill: #ffeadb; stroke: #000000; stroke-width: 0.5"/>
    <path d="M 80.727192 60.103245 
L 82.058346 57.5441 
L 82.558272 59.873123 
L 83.238727 60.138955 
L 83.129616 60.555558 
L 81.544533 61.388772 
z
" clip-path="url(#p5cf3db6185)" style="fill: #ffeadb; stroke: #000000; stroke-width: 0.5"/>
    <path d="M 54.988922 44.863432 
L 56.683116 45.069745 
L 57.169156 45.516112 
L 57.667098 48.027647 
L 56.821985 47.541609 
L 56.270479 46.252112 
z
" clip-path="url(#p5cf3db6185)" style="fill: #ffeadb; stroke: #000000; stroke-width: 0.5"/>
    <path d="M 20.251976 18.79386 
L 21.763658 15.78438 
L 23.759396 17.115534 
L 25.009212 17.794004 
L 24.592606 19.031917 
L 21.763658 19.640956 
z
" clip-path="url(#p5cf3db6185)" style="fill: #ffeadb; stroke: #000000; stroke-width: 0.5"/>
    <path d="M 277.785459 97.327922 
L 277.815217 94.985013 
L 277.910441 96.300295 
L 278.154453 96.201103 
L 278.824989 96.399487 
z
" clip-path="url(#p5cf3db6185)" style="fill: #ffeadb; stroke: #000000; stroke-width: 0.5"/>
    <path d="M 69.145566 27.536618 
L 70.196998 25.969388 
L 71.526167 26.556602 
L 72.041964 28.147637 
L 70.113677 28.147637 
z
" clip-path="url(#p5cf3db6185)" style="fill: #ffeadb; stroke: #000000; stroke-width: 0.5"/>
    <path d="M 47.378932 43.089882 
L 47.482091 42.338011 
L 47.985985 42.338011 
L 48.735874 43.742562 
L 48.105015 43.71876 
z
" clip-path="url(#p5cf3db6185)" style="fill: #ffeadb; stroke: #000000; stroke-width: 0.5"/>
    <path d="M 16.232727 25.771006 
L 17.069906 24.483497 
L 17.752345 24.483497 
L 18.918839 25.483349 
L 18.412962 25.945582 
z
" clip-path="url(#p5cf3db6185)" style="fill: #ffeadb; stroke: #000000; stroke-width: 0.5"/>
    <path d="M 300.419029 86.533878 
L 300.786039 86.333512 
L 301.155031 86.962382 
L 300.603526 86.97429 
z
" clip-path="url(#p5cf3db6185)" style="fill: #ffeadb; stroke: #000000; stroke-width: 0.5"/>
    <path d="M 295.021015 129.366851 
L 296.008965 129.097049 
L 295.881999 129.688232 
L 295.052757 130.045324 
z
" clip-path="url(#p5cf3db6185)" style="fill: #ffeadb; stroke: #000000; stroke-width: 0.5"/>
    <path d="M 265.24564 99.807714 
L 265.471797 99.248273 
L 266.029255 99.662895 
L 265.791195 100.021969 
z
" clip-path="url(#p5cf3db6185)" style="fill: #ffeadb; stroke: #000000; stroke-width: 0.5"/>
    <path d="M 140.547744 38.279086 
L 140.930624 37.927941 
L 141.23415 38.332643 
L 141.359132 39.243224 
z
" clip-path="url(#p5cf3db6185)" style="fill: #ffeadb; stroke: #000000; stroke-width: 0.5"/>
    <path d="M 120.969279 68.538512 
L 121.65767 67.893764 
L 121.951277 68.911474 
L 121.56443 69.574076 
z
" clip-path="url(#p5cf3db6185)" style="fill: #ffeadb; stroke: #000000; stroke-width: 0.5"/>
    <path d="M 120.308662 121.034744 
L 120.975231 121.201389 
L 121.820344 121.375966 
L 122.157596 122.03063 
z
" clip-path="url(#p5cf3db6185)" style="fill: #ffeadb; stroke: #000000; stroke-width: 0.5"/>
    <path d="M 40.826326 36.555131 
L 41.522652 35.910382 
L 41.766663 36.535291 
L 41.264753 36.781284 
z
" clip-path="url(#p5cf3db6185)" style="fill: #ffeadb; stroke: #000000; stroke-width: 0.5"/>
    <path d="M 340.315929 145.582717 
L 340.555972 144.989548 
L 340.887273 145.360526 
z
" clip-path="url(#p5cf3db6185)" style="fill: #ffeadb; stroke: #000000; stroke-width: 0.5"/>
    <path d="M 192.405182 50.100755 
L 192.958672 50.215816 
L 192.496439 50.455862 
z
" clip-path="url(#p5cf3db6185)" style="fill: #ffeadb; stroke: #000000; stroke-width: 0.5"/>
   </g>
  </g>
 </g>
 <defs>
  <clipPath id="p5cf3db6185">
   <rect x="0" y="-0" width="357.12" height="152.515227"/>
  </clipPath>
 </defs>
</svg>
