<?xml version="1.0" encoding="utf-8" standalone="no"?>
<!DOCTYPE svg PUBLIC "-//W3C//DTD SVG 1.1//EN"
  "http://www.w3.org/Graphics/SVG/1.1/DTD/svg11.dtd">
<svg xmlns:xlink="http://www.w3.org/1999/xlink" width="225.222827pt" height="266.112pt" viewBox="0 0 225.222827 266.112" xmlns="http://www.w3.org/2000/svg" version="1.1">
 <metadata>
  <rdf:RDF xmlns:dc="http://purl.org/dc/elements/1.1/" xmlns:cc="http://creativecommons.org/ns#" xmlns:rdf="http://www.w3.org/1999/02/22-rdf-syntax-ns#">
   <cc:Work>
    <dc:type rdf:resource="http://purl.org/dc/dcmitype/StillImage"/>
    <dc:date>2025-06-04T13:25:11.578786</dc:date>
    <dc:format>image/svg+xml</dc:format>
    <dc:creator>
     <cc:Agent>
      <dc:title>Matplotlib v3.10.3, https://matplotlib.org/</dc:title>
     </cc:Agent>
    </dc:creator>
   </cc:Work>
  </rdf:RDF>
 </metadata>
 <defs>
  <style type="text/css">*{stroke-linejoin: round; stroke-linecap: butt}</style>
 </defs>
 <g id="figure_1">
  <g id="patch_1">
   <path d="M 0 266.112 
L 225.222827 266.112 
L 225.222827 0 
L 0 0 
L 0 266.112 
z
" style="fill: none"/>
  </g>
  <g id="axes_1">
   <g id="PatchCollection_1">
    <defs>
     <path id="m930c1c9394" d="M 10.237401 -141.91178 
L 13.568254 -153.438584 
L 27.837656 -169.703306 
L 49.44447 -199.180169 
L 62.06832 -228.418526 
L 95.535829 -253.857017 
L 109.304411 -254.016 
L 158.541424 -225.227385 
L 176.446118 -216.128551 
L 189.658232 -221.025469 
L 198.084731 -215.444895 
L 208.323722 -213.075939 
L 206.304542 -208.24263 
L 209.993123 -191.691713 
L 203.601703 -170.943443 
L 206.670221 -150.767544 
L 213.936089 -137.619024 
L 214.985426 -85.358838 
L 208.721198 -89.762877 
L 195.93836 -90.239834 
L 188.883085 -35.774838 
L 189.372048 -21.444644 
L 192.583657 -12.096 
L 124.631099 -12.922748 
L 81.277437 -24.968408 
L 65.470718 -30.522984 
L 55.748445 -42.558587 
L 39.952734 -55.357323 
L 35.850779 -64.531075 
L 36.725226 -77.457006 
L 28.648507 -86.694356 
L 25.988078 -93.723288 
L 25.206362 -95.788606 
L 18.473112 -90.732712 
L 13.242324 -90.144438 
L 10.666677 -104.294596 
z
" style="stroke: #000000; stroke-width: 0.5"/>
    </defs>
    <g clip-path="url(#pbf811a0501)">
     <use xlink:href="#m930c1c9394" x="0" y="266.112" style="fill: #ffeadb; stroke: #000000; stroke-width: 0.5"/>
    </g>
   </g>
  </g>
 </g>
 <defs>
  <clipPath id="pbf811a0501">
   <rect x="0" y="-0" width="225.222827" height="266.112"/>
  </clipPath>
 </defs>
</svg>
