<?xml version="1.0" encoding="utf-8" standalone="no"?>
<!DOCTYPE svg PUBLIC "-//W3C//DTD SVG 1.1//EN"
  "http://www.w3.org/Graphics/SVG/1.1/DTD/svg11.dtd">
<svg xmlns:xlink="http://www.w3.org/1999/xlink" width="357.12pt" height="117.086951pt" viewBox="0 0 357.12 117.086951" xmlns="http://www.w3.org/2000/svg" version="1.1">
 <metadata>
  <rdf:RDF xmlns:dc="http://purl.org/dc/elements/1.1/" xmlns:cc="http://creativecommons.org/ns#" xmlns:rdf="http://www.w3.org/1999/02/22-rdf-syntax-ns#">
   <cc:Work>
    <dc:type rdf:resource="http://purl.org/dc/dcmitype/StillImage"/>
    <dc:date>2025-06-04T13:24:58.553401</dc:date>
    <dc:format>image/svg+xml</dc:format>
    <dc:creator>
     <cc:Agent>
      <dc:title>Matplotlib v3.10.3, https://matplotlib.org/</dc:title>
     </cc:Agent>
    </dc:creator>
   </cc:Work>
  </rdf:RDF>
 </metadata>
 <defs>
  <style type="text/css">*{stroke-linejoin: round; stroke-linecap: butt}</style>
 </defs>
 <g id="figure_1">
  <g id="patch_1">
   <path d="M 0 117.086951 
L 357.12 117.086951 
L 357.12 0 
L 0 0 
L 0 117.086951 
z
" style="fill: none"/>
  </g>
  <g id="axes_1">
   <g id="PatchCollection_1">
    <path d="M 23.202282 49.826536 
L 23.820571 47.734292 
L 24.601713 46.86344 
L 24.717642 45.931867 
L 24.256685 45.058259 
L 24.57135 43.863084 
L 24.256685 43.669178 
L 24.531327 41.888147 
L 25.297289 40.764735 
L 26.202641 41.002113 
L 27.933298 40.030516 
L 28.20794 39.169328 
L 28.719961 38.865704 
L 28.862112 37.630505 
L 30.435437 37.303419 
L 34.418434 34.071202 
L 37.159332 34.027039 
L 38.7575 34.324452 
L 40.536461 33.244516 
L 42.554182 33.322492 
L 43.768678 32.974705 
L 44.475295 33.901448 
L 43.895648 34.027039 
L 44.627107 34.634977 
L 46.573061 35.454072 
L 48.605705 35.561627 
L 49.297398 35.30157 
L 50.569859 35.593463 
L 52.296377 35.480294 
L 53.886263 34.363786 
L 52.3295 34.251996 
L 51.624263 33.154809 
L 50.506374 32.500637 
L 51.791257 31.807132 
L 52.137664 32.175621 
L 55.35056 32.384708 
L 56.444987 32.869126 
L 56.145503 33.265218 
L 54.232671 34.133307 
L 54.308577 34.568732 
L 56.327678 34.605995 
L 57.760232 34.198172 
L 59.389653 34.143109 
L 64.117017 34.133307 
L 63.64226 34.479715 
L 65.110696 34.278909 
L 67.020768 34.721924 
L 68.952922 34.088454 
L 71.780767 34.721924 
L 73.395496 34.734345 
L 73.933738 34.5432 
L 74.347771 33.66959 
L 75.389754 33.553661 
L 73.933739 32.742846 
L 73.006305 32.742846 
L 72.486003 33.03681 
L 71.406757 32.929161 
L 68.990185 32.049341 
L 69.30347 31.5318 
L 71.085192 30.879698 
L 72.588132 29.980556 
L 77.59517 29.621729 
L 79.465219 28.910972 
L 80.085221 29.198502 
L 81.318706 28.553523 
L 82.315145 29.195274 
L 85.594286 28.627359 
L 87.52644 28.553523 
L 88.492517 28.76468 
L 88.749217 28.449324 
L 88.578084 28.059444 
L 85.969676 28.217466 
L 84.117569 27.62747 
L 80.090408 27.75375 
L 79.22646 28.084976 
L 78.401154 27.511541 
L 78.577808 27.215507 
L 78.169295 26.933274 
L 77.136973 27.165133 
L 77.47648 26.690375 
L 77.821508 26.690375 
L 77.121792 26.067946 
L 75.275205 25.412394 
L 73.296128 24.259311 
L 72.94834 23.438836 
L 73.877154 22.661835 
L 74.356052 21.566028 
L 73.991703 21.365221 
L 75.697519 20.003053 
L 76.750543 19.874013 
L 87.821784 21.429396 
L 92.580402 21.46942 
L 94.56914 20.301157 
L 97.058843 21.063568 
L 101.636683 21.895183 
L 102.464749 22.396163 
L 105.988945 22.558697 
L 108.273631 22.512092 
L 108.853277 22.291964 
L 110.658461 22.396163 
L 112.612235 21.399882 
L 113.53875 20.528874 
L 113.853415 19.201898 
L 113.455943 18.945199 
L 113.581533 18.589131 
L 114.725644 18.44836 
L 115.187981 17.986022 
L 117.912318 17.207639 
L 121.518545 15.399007 
L 124.364331 14.194861 
L 125.970779 13.790489 
L 128.162393 11.743096 
L 129.662573 11.585762 
L 130.184254 11.133777 
L 130.474078 11.364255 
L 132.76644 10.207033 
L 133.495138 10.196682 
L 134.084445 9.718473 
L 135.214755 9.772989 
L 137.237996 9.376896 
L 139.402008 9.001506 
L 146.157645 6.674641 
L 161.279033 7.673291 
L 163.232364 7.880168 
L 165.799368 7.417141 
L 167.140835 7.813922 
L 170.270924 7.838766 
L 172.690256 6.865098 
L 173.587328 5.822424 
L 173.692216 5.322134 
L 174.978478 5.428404 
L 175.326266 6.122599 
L 175.955596 6.502128 
L 176.841627 6.596666 
L 177.476477 6.248879 
L 178.241058 6.596666 
L 176.551804 6.880279 
L 176.13501 8.217606 
L 176.704996 9.111916 
L 178.125129 10.196682 
L 177.893271 10.312612 
L 178.38459 11.035789 
L 179.629449 11.827972 
L 181.373908 12.228203 
L 183.053976 13.07541 
L 185.083643 13.227404 
L 190.798677 11.469834 
L 190.32668 11.933551 
L 190.094822 12.996924 
L 190.417767 12.218544 
L 191.071939 11.600253 
L 192.177407 12.29169 
L 192.293337 12.05983 
L 193.811457 13.796699 
L 193.565798 15.572901 
L 193.811457 16.122874 
L 195.547635 17.870093 
L 197.159604 18.475271 
L 197.3611 19.059747 
L 198.230569 19.607651 
L 199.180084 19.878842 
L 200.314535 19.502073 
L 201.356518 18.744392 
L 202.043812 17.595451 
L 204.387239 17.744504 
L 208.233605 18.96176 
L 209.031308 19.83813 
L 209.163799 20.877352 
L 211.063494 21.466793 
L 213.566349 21.575688 
L 215.194879 22.116691 
L 217.389253 23.325667 
L 218.799726 23.100709 
L 219.346249 22.234001 
L 220.188116 21.575688 
L 220.61733 22.010422 
L 221.783523 21.876552 
L 221.805605 22.938547 
L 223.209176 23.692086 
L 223.681174 24.259311 
L 225.13857 24.12199 
L 227.385539 24.66568 
L 228.864866 24.950746 
L 230.322262 24.851379 
L 231.060621 25.348908 
L 232.05154 25.195716 
L 233.119745 25.36823 
L 234.596462 25.195716 
L 236.252594 24.36282 
L 236.945409 24.827227 
L 237.618903 24.723028 
L 238.739552 23.926015 
L 240.85388 23.317387 
L 243.11588 23.220089 
L 244.923072 22.727387 
L 245.819515 22.638372 
L 247.040913 23.100709 
L 249.703144 22.048376 
L 250.767209 22.242971 
L 253.092694 23.812156 
L 254.787469 23.665174 
L 257.597373 24.723028 
L 259.355633 24.259311 
L 260.819929 25.203306 
L 261.503083 25.301984 
L 265.340861 24.056158 
L 267.249861 23.100709 
L 268.340147 23.340848 
L 269.985238 22.562467 
L 270.998239 22.396163 
L 272.214115 21.270684 
L 273.39963 20.599261 
L 275.003317 20.72347 
L 277.05002 20.013403 
L 278.383206 19.113573 
L 279.712746 18.847149 
L 281.158607 17.95566 
L 283.260515 17.33668 
L 283.755974 16.301599 
L 285.156785 15.235464 
L 287.178391 15.837805 
L 288.240551 15.662531 
L 288.312413 16.101594 
L 289.230849 16.264597 
L 290.112477 16.802688 
L 291.486624 15.722126 
L 292.401555 15.382093 
L 293.616203 15.730013 
L 295.970132 15.478495 
L 296.494202 15.786975 
L 297.735141 15.77646 
L 300.933038 16.640623 
L 301.489509 16.457398 
L 302.365879 15.587164 
L 302.695394 14.623156 
L 303.232905 14.135189 
L 304.493704 13.979901 
L 307.189417 14.249824 
L 306.89671 14.898338 
L 306.283251 15.403126 
L 307.359433 15.942971 
L 308.004442 15.473235 
L 308.360247 15.985913 
L 309.525819 16.545036 
L 310.277745 17.4661 
L 312.344224 18.6492 
L 313.363443 18.885819 
L 312.909483 19.381844 
L 311.991924 19.736775 
L 313.160125 19.846321 
L 314.153928 21.028543 
L 315.713866 20.699029 
L 316.742724 20.781408 
L 317.663789 21.307229 
L 317.90479 21.70773 
L 317.711989 22.148544 
L 318.052021 23.568262 
L 319.831927 24.157184 
L 321.031678 25.083506 
L 321.427797 26.466417 
L 322.463666 27.977279 
L 322.611772 29.432053 
L 322.106107 30.153305 
L 322.23581 30.537155 
L 321.517186 31.179534 
L 321.30861 31.936718 
L 320.951928 31.81052 
L 321.079002 32.052398 
L 320.311302 32.282884 
L 319.731145 32.810458 
L 320.832998 33.942537 
L 320.320065 35.056594 
L 321.950321 36.837305 
L 321.657405 37.052964 
L 322.476811 38.042386 
L 321.30861 38.557691 
L 321.527703 39.046705 
L 325.711492 40.502355 
L 327.751681 40.768772 
L 328.97334 40.305172 
L 329.499162 40.536534 
L 332.103733 40.178975 
L 333.661687 40.74867 
L 336.057037 42.042137 
L 337.346177 43.780852 
L 337.57228 43.673936 
L 338.937664 44.424986 
L 340.337227 45.955127 
L 340.887273 47.02176 
L 338.165582 45.671186 
L 337.214721 44.789554 
L 334.994 46.028745 
L 334.97302 46.977356 
L 334.222795 48.361639 
L 334.066801 50.506991 
L 333.781104 50.844394 
L 332.203639 51.408776 
L 330.195 50.894346 
L 328.242448 51.085396 
L 327.453715 51.529714 
L 328.00542 52.149898 
L 328.603512 53.877071 
L 328.519381 54.48089 
L 330.366768 55.412469 
L 330.505234 55.829624 
L 330.082825 56.612658 
L 330.239694 57.281331 
L 329.562261 57.976289 
L 329.778724 58.473632 
L 330.691025 59.982301 
L 331.86536 60.526527 
L 331.418411 62.591256 
L 331.6191 63.313384 
L 331.344797 63.657356 
L 332.238693 64.278706 
L 332.11162 68.349881 
L 333.363953 68.649159 
L 334.138663 68.357769 
L 334.981731 69.094795 
L 334.608398 69.796765 
L 333.517317 70.601272 
L 333.316629 72.325092 
L 332.748741 72.655047 
L 332.862669 73.121714 
L 332.219414 73.492416 
L 331.060852 75.154893 
L 331.025798 76.031259 
L 330.678308 76.447528 
L 330.925892 76.947068 
L 332.615533 76.920775 
L 333.427927 77.202967 
L 334.05979 78.05918 
L 334.545299 78.120525 
L 334.603139 78.770356 
L 335.79062 78.574485 
L 337.311122 79.642342 
L 337.17616 80.022251 
L 336.448773 80.547196 
L 336.374282 81.061185 
L 337.163891 81.887166 
L 336.799322 84.207791 
L 336.904486 84.485598 
L 338.024487 84.794082 
L 338.422358 85.420686 
L 339.039323 85.346194 
L 339.435442 85.969731 
L 340.795568 86.827697 
L 340.742986 87.376743 
L 339.980544 88.139622 
L 340.194378 89.384505 
L 339.645771 88.955084 
L 337.551247 88.766665 
L 336.348868 89.354709 
L 334.908116 90.496621 
L 333.020415 91.071519 
L 332.242199 92.301064 
L 331.327269 92.168295 
L 330.254593 90.305571 
L 330.410586 89.600093 
L 331.413154 88.913895 
L 331.18705 87.77593 
L 330.32996 87.056868 
L 328.372227 86.470875 
L 327.038316 86.49161 
L 325.397752 87.977056 
L 323.969269 88.404726 
L 322.909738 87.879778 
L 320.320066 87.899935 
L 319.22285 87.485414 
L 318.376277 87.664193 
L 316.390511 86.637385 
L 315.740157 86.326853 
L 314.82698 86.556461 
L 312.189983 85.497368 
L 310.980593 85.681843 
L 309.175271 86.361908 
L 307.089511 85.909701 
L 306.870419 85.531985 
L 306.369135 85.433394 
L 305.420904 85.765975 
L 302.802311 89.304758 
L 299.342403 89.926103 
L 299.296832 89.206604 
L 298.970822 88.88848 
L 299.163624 87.7251 
L 298.236425 86.956961 
L 297.815767 87.135741 
L 297.0691 86.904818 
L 296.865782 86.281281 
L 294.182338 88.45643 
L 291.526549 89.174838 
L 284.461645 90.509766 
L 279.739765 90.68942 
L 274.569183 89.710517 
L 271.389714 90.087354 
L 268.282107 91.352394 
L 266.385643 91.7231 
L 263.799674 93.100778 
L 259.024137 95.065134 
L 255.38545 96.164103 
L 249.898531 97.008285 
L 245.559592 97.565418 
L 242.953269 96.859062 
L 237.744127 96.981754 
L 236.220996 96.13208 
L 234.426191 94.611176 
L 230.365094 93.45831 
L 228.671948 93.393459 
L 225.889931 94.589403 
L 222.391882 95.852114 
L 219.582241 96.334119 
L 217.345047 97.326657 
L 216.055729 97.994839 
L 212.592316 97.581193 
L 211.137542 97.830081 
L 210.261172 97.710019 
L 209.390061 98.236717 
L 208.736289 97.858124 
L 208.802893 96.766169 
L 207.891469 95.966043 
L 202.716719 94.721048 
L 202.382608 94.706701 
L 202.440449 95.121222 
L 201.762139 96.082601 
L 201.185487 98.233212 
L 201.118884 99.719533 
L 200.540479 100.626577 
L 200.905049 101.82808 
L 201.593876 102.416124 
L 201.327459 103.104951 
L 202.53354 103.565472 
L 202.796255 104.866454 
L 201.595628 105.051368 
L 199.674626 104.925171 
L 199.175095 105.35985 
L 197.857035 104.890115 
L 197.660728 105.050492 
L 197.904359 105.281854 
L 197.613404 105.918098 
L 197.602888 108.852183 
L 196.57403 108.737378 
L 196.237504 108.847801 
L 196.093779 109.449868 
L 194.870367 109.569054 
L 194.497034 110.061573 
L 194.165164 111.764817 
L 192.391994 111.032591 
L 191.598003 110.968617 
L 191.196625 109.990588 
L 190.027183 110.144941 
L 191.136804 108.733763 
L 191.114722 108.43635 
L 190.656526 107.260496 
L 188.115744 103.973073 
L 187.948751 103.318901 
L 189.978892 101.658629 
L 190.152786 101.14937 
L 191.365903 100.615956 
L 192.293336 99.631938 
L 194.738891 98.507149 
L 195.197087 97.594897 
L 194.901744 95.444685 
L 193.150385 93.535993 
L 191.875163 93.040534 
L 190.387027 93.945305 
L 188.231673 95.605468 
L 186.173929 95.782814 
L 185.55702 95.963607 
L 184.977374 96.541872 
L 184.861445 96.194085 
L 184.290079 96.867579 
L 184.399108 97.13118 
L 184.654429 96.849637 
L 185.033959 96.942796 
L 185.083643 96.668842 
L 185.325162 96.88966 
L 185.563921 96.315535 
L 185.846844 96.668842 
L 186.599003 96.541872 
L 185.130566 97.205706 
L 184.894568 97.77983 
L 186.368525 96.773731 
L 185.730914 97.299552 
L 185.147128 98.53199 
L 184.020958 98.787311 
L 182.882368 98.338775 
L 182.690532 98.599618 
L 183.577943 98.868048 
L 182.127447 98.63688 
L 180.440953 99.573973 
L 175.282103 96.960046 
L 173.441036 96.412833 
L 172.883472 96.541872 
L 173.010442 96.194085 
L 172.071967 95.499891 
L 170.09289 94.815357 
L 167.020766 95.731748 
L 164.655257 97.50795 
L 162.29803 98.795592 
L 160.628097 100.722226 
L 158.925041 101.731085 
L 158.934702 103.1733 
L 157.609796 103.612867 
L 156.918362 105.128226 
L 156.620258 105.131676 
L 156.781731 104.719023 
L 156.442224 103.824022 
L 155.427843 103.409989 
L 154.409322 104.215285 
L 154.64118 104.342254 
L 154.206446 104.838403 
L 153.25279 105.131676 
L 152.615179 105.668539 
L 152.326736 106.426219 
L 151.631161 105.484294 
L 151.167444 105.605054 
L 150.020573 106.587693 
L 149.652083 106.531798 
L 149.883942 106.29994 
L 148.426546 106.068081 
L 147.209289 106.426219 
L 146.197669 106.204712 
L 145.884384 106.507646 
L 144.257234 106.645657 
L 143.315999 106.426219 
L 142.928188 106.515237 
L 142.142906 107.345373 
L 139.653188 106.994825 
L 137.326323 108.289367 
L 135.069843 107.958142 
L 133.39301 107.156297 
L 132.403471 107.003105 
L 129.894431 105.732024 
L 128.568146 104.598264 
L 128.379071 103.868876 
L 126.954797 102.67232 
L 125.427016 100.505549 
L 124.015163 99.481507 
L 120.588351 98.752808 
L 119.228943 97.857808 
L 113.15784 95.731748 
L 113.119197 95.319785 
L 112.517469 95.037554 
L 105.714907 94.216388 
L 102.936746 94.342668 
L 101.421386 93.636743 
L 99.983311 94.536572 
L 99.442308 95.499891 
L 99.558238 97.236757 
L 99.21045 97.932333 
L 99.674167 98.63688 
L 99.442308 99.795481 
L 98.611482 100.444822 
L 97.82758 101.939483 
L 98.285776 102.583994 
L 98.158806 102.826202 
L 98.594921 102.952483 
L 97.695089 103.868876 
L 98.053918 103.868876 
L 96.538557 105.257266 
L 96.295658 104.099355 
L 95.892666 104.194583 
L 93.742455 103.511427 
L 92.467233 103.685323 
L 92.232614 104.436792 
L 92.000756 104.099355 
L 91.654349 104.679 
L 90.595804 104.361575 
L 90.369466 104.436792 
L 90.726915 104.563072 
L 89.582804 105.057151 
L 88.362787 105.035068 
L 86.89711 105.605054 
L 87.013039 105.732024 
L 86.430633 105.836223 
L 86.778421 105.952152 
L 86.040062 106.386886 
L 85.737818 106.426219 
L 85.969676 106.068081 
L 85.0174 105.991485 
L 84.222457 106.658078 
L 83.399912 105.732024 
L 83.62901 105.825872 
L 83.709056 105.579522 
L 82.715377 105.605054 
L 83.399912 105.373196 
L 81.205537 105.1717 
L 80.148373 104.679 
L 79.949637 104.839094 
L 79.800585 104.215285 
L 79.291325 104.274629 
L 78.748942 104.805281 
L 77.249527 103.77135 
L 76.798847 103.250586 
L 75.507064 102.699922 
L 75.273825 102.826202 
L 75.273825 102.353515 
L 74.45404 102.120277 
L 75.030926 101.773869 
L 74.926037 101.057593 
L 74.45404 100.720845 
L 74.927418 100.384098 
L 74.768705 99.377308 
L 73.064269 99.458046 
L 73.44518 99.228256 
L 73.167778 98.752808 
L 73.527986 98.163502 
L 73.766745 98.333256 
L 74.45404 97.826755 
L 74.356052 98.115198 
L 74.801828 97.994439 
L 74.45404 97.468617 
L 72.078871 96.412143 
L 71.784908 96.00915 
L 70.969263 96.668842 
L 71.085192 96.88966 
L 70.505546 97.0049 
L 70.275067 97.468617 
L 70.621475 98.057233 
L 70.920959 97.75361 
L 70.853333 97.363039 
L 71.152817 97.586615 
L 70.505546 98.289093 
L 70.609054 98.462297 
L 69.917619 98.53199 
L 69.743725 98.222156 
L 70.149477 97.932333 
L 69.222044 97.710826 
L 69.135097 97.262289 
L 68.518188 96.917952 
L 67.760507 96.793052 
L 67.136698 97.0049 
L 66.870337 96.568094 
L 66.432842 96.88966 
L 66.096095 96.310015 
L 66.212024 94.910584 
L 65.980166 95.268031 
L 65.626858 94.851927 
L 65.123118 94.785682 
L 64.754628 94.957506 
L 64.812593 95.373609 
L 64.117017 95.153482 
L 64.348876 94.910584 
L 63.595336 94.699426 
L 63.537371 94.342668 
L 63.76923 94.278494 
L 63.52633 93.765093 
L 63.258589 94.085278 
L 62.249729 94.259862 
L 63.065374 94.689764 
L 62.576815 95.36119 
L 61.202225 94.910584 
L 61.202226 95.268031 
L 60.578416 95.24319 
L 60.581176 94.943016 
L 61.202226 94.689764 
L 60.492849 94.301265 
L 60.222348 94.399942 
L 59.87456 94.958887 
L 60.081576 95.74555 
L 60.75507 96.156822 
L 60.865479 96.541872 
L 60.393481 96.354868 
L 60.042933 96.668842 
L 59.822116 96.541872 
L 59.822116 96.88966 
L 58.613139 97.342337 
L 57.751951 98.5037 
L 57.355859 98.7604 
L 56.907324 98.63688 
L 56.469829 99.172363 
L 56.095819 98.983977 
L 55.923305 99.220667 
L 55.48305 99.155801 
L 55.169766 98.53199 
L 56.444987 98.53199 
L 57.380701 97.826755 
L 57.148843 97.594897 
L 56.675465 97.932333 
L 56.899043 97.476896 
L 56.504332 97.038022 
L 56.36356 97.38167 
L 55.285695 97.069074 
L 56.570577 96.541872 
L 57.380702 96.425943 
L 57.318596 96.699205 
L 57.567016 96.715767 
L 57.834757 96.559815 
L 57.843038 96.310015 
L 57.255111 96.079537 
L 57.727109 95.605468 
L 58.074897 95.963607 
L 57.670525 95.13278 
L 56.661664 95.804893 
L 56.444987 95.605468 
L 54.464529 96.194085 
L 54.376202 95.960847 
L 53.422547 96.194085 
L 52.579299 95.847677 
L 51.102582 95.924963 
L 50.506375 96.425943 
L 50.284177 97.594897 
L 48.306479 97.13118 
L 46.918089 97.710826 
L 45.758797 97.468617 
L 45.584903 97.147741 
L 45.181911 97.236757 
L 44.936251 96.668842 
L 45.92855 96.721287 
L 46.526138 95.963607 
L 49.272556 95.771082 
L 49.474052 95.153482 
L 49.846682 95.073437 
L 50.623684 95.448827 
L 51.791257 95.499891 
L 52.45371 95.070675 
L 54.116742 94.974069 
L 56.327678 95.499891 
L 56.801055 95.037554 
L 56.531934 94.731169 
L 55.97989 94.689764 
L 56.277994 94.520011 
L 55.97989 94.216388 
L 56.801055 93.984531 
L 56.221409 93.290335 
L 56.570577 93.290335 
L 56.327678 93.047434 
L 56.907324 93.047434 
L 56.570577 92.827307 
L 58.527573 92.942546 
L 58.664203 93.290335 
L 58.527573 92.710689 
L 59.00233 92.827307 
L 59.463287 92.247661 
L 59.234189 92.121381 
L 59.463287 91.783943 
L 60.00981 91.991652 
L 60.042933 91.657665 
L 61.450645 91.274683 
L 61.028332 90.928967 
L 58.001751 91.182906 
L 57.680185 91.246392 
L 57.727109 91.552086 
L 55.633482 91.195328 
L 52.263254 91.657665 
L 52.137664 91.899873 
L 50.564339 91.699066 
L 49.69625 92.121381 
L 48.520396 91.848119 
L 48.433449 92.247661 
L 47.862084 91.939206 
L 46.918089 91.899873 
L 46.338443 91.320918 
L 45.822282 91.505852 
L 45.631827 91.320918 
L 45.402728 91.899873 
L 45.286799 91.320918 
L 44.475294 91.552086 
L 44.439412 92.028913 
L 44.000537 92.247661 
L 44.127507 92.479519 
L 43.365686 92.412585 
L 42.7819 90.742652 
L 42.957174 90.384514 
L 43.895649 89.920795 
L 43.318763 89.920795 
L 43.191792 89.688937 
L 44.359365 89.688937 
L 44.359365 89.10032 
L 44.707153 89.584741 
L 45.402728 89.216251 
L 45.457933 89.58543 
L 46.338443 89.688937 
L 46.458512 90.146444 
L 46.959492 90.222349 
L 48.662548 89.584741 
L 48.306479 89.584741 
L 47.853803 88.521365 
L 48.868184 88.419927 
L 48.662548 88.763574 
L 49.244954 88.405436 
L 48.883365 88.210839 
L 49.294638 87.473171 
L 49.129025 87.006003 
L 48.284397 87.162648 
L 47.630226 87.902384 
L 47.381806 87.825789 
L 47.68267 87.619463 
L 47.530858 87.245454 
L 46.764897 87.517334 
L 47.235514 86.240044 
L 46.918089 85.962641 
L 46.847703 86.438779 
L 46.468173 86.608534 
L 45.631826 86.311119 
L 45.630447 85.5907 
L 46.338443 85.163556 
L 45.744275 84.794402 
L 45.181911 84.921348 
L 44.773398 85.506514 
L 44.359365 85.500995 
L 44.504277 85.82808 
L 43.075863 86.090301 
L 42.137388 85.731474 
L 42.380288 85.037277 
L 42.739116 84.921348 
L 42.675631 83.706161 
L 41.916571 83.879365 
L 41.962115 82.55584 
L 42.452054 82.238412 
L 42.438252 81.669119 
L 39.097006 80.501548 
L 39.254339 80.153071 
L 41.059523 80.114424 
L 42.741877 79.565142 
L 43.253897 78.910972 
L 43.318762 77.953175 
L 42.924051 77.453574 
L 43.341996 76.724367 
L 43.561662 76.036203 
L 42.957173 75.037004 
L 41.295521 75.069437 
L 40.092066 74.493236 
L 39.850547 74.057123 
L 38.485618 73.725899 
L 37.50712 73.774203 
L 36.611429 74.148211 
L 36.107689 72.605936 
L 35.402452 71.911055 
L 35.104349 72.030434 
L 34.836608 71.156823 
L 32.7278 71.379713 
L 32.506982 72.479658 
L 32.275124 72.374081 
L 32.324808 72.833655 
L 32.033605 73.069655 
L 31.569887 72.374081 
L 31.387713 72.758438 
L 30.826008 72.332677 
L 30.750103 71.785461 
L 30.282245 71.881381 
L 29.023585 71.090578 
L 29.023585 71.437676 
L 28.559868 71.036756 
L 28.559868 70.395003 
L 27.947099 70.961539 
L 25.922478 70.188675 
L 25.992864 69.816045 
L 26.44416 69.970619 
L 26.791947 69.428237 
L 27.160437 69.353711 
L 26.843012 69.055605 
L 26.931339 68.560147 
L 27.160437 68.763713 
L 27.389535 68.427655 
L 27.273606 69.12185 
L 28.472921 69.432375 
L 28.443939 69.005924 
L 29.023585 69.12185 
L 30.014504 68.61052 
L 29.600471 67.606489 
L 30.238082 67.943929 
L 30.643834 67.490564 
L 29.418297 66.814305 
L 28.521225 67.128973 
L 28.791727 66.564506 
L 28.21208 65.753694 
L 27.861533 64.055468 
L 27.985743 63.611072 
L 28.965621 63.310896 
L 30.518244 63.764264 
L 32.633952 66.026954 
L 32.853389 66.900567 
L 31.917675 67.016492 
L 32.207499 67.136561 
L 31.917675 67.732082 
L 32.493181 67.958417 
L 33.35851 69.622833 
L 33.813946 69.308164 
L 33.433036 69.005924 
L 33.317106 68.300687 
L 33.85535 67.537483 
L 34.24454 67.490564 
L 34.948397 68.658132 
L 35.296184 68.531852 
L 35.427295 68.750602 
L 37.623049 68.427655 
L 39.128749 67.83697 
L 40.40535 68.010865 
L 41.687472 67.258705 
L 41.521859 67.041337 
L 39.280561 66.989581 
L 37.806604 67.457437 
L 37.970837 67.258705 
L 37.166233 66.443056 
L 35.759901 65.627411 
L 37.033742 66.21672 
L 36.107689 65.521835 
L 36.339547 64.70136 
L 36.091127 64.517804 
L 35.402452 64.70136 
L 35.528043 64.458459 
L 34.716538 64.353574 
L 34.822807 64.005782 
L 34.138272 63.764264 
L 34.716538 63.532408 
L 34.138272 62.606355 
L 35.819246 62.021184 
L 37.265601 62.375184 
L 37.159332 62.142636 
L 37.738978 62.027398 
L 37.801084 61.766554 
L 37.159333 60.984722 
L 37.845247 60.752865 
L 38.237198 61.16138 
L 38.202696 60.511344 
L 39.128749 60.058669 
L 39.471016 60.239467 
L 39.965095 59.79231 
L 39.602127 59.710883 
L 39.883669 59.255444 
L 39.602127 58.889715 
L 38.607068 59.236814 
L 38.264801 58.889715 
L 37.62305 58.889715 
L 36.63351 59.342393 
L 35.62051 58.719275 
L 35.4963 57.901556 
L 35.759901 57.501326 
L 35.402453 57.501326 
L 36.920573 56.659461 
L 35.913093 55.345596 
L 35.149379 54.990013 
L 34.455698 54.529258 
L 34.132751 53.415512 
L 32.275124 53.206426 
L 32.890653 52.488077 
L 33.031424 52.676461 
L 32.7278 52.837935 
L 33.317107 53.080143 
L 33.310206 52.684744 
L 35.759901 51.101068 
L 35.528042 50.521423 
L 36.37267 50.415844 
L 36.662493 49.877599 
L 37.712757 49.602267 
L 37.950135 48.360168 
L 37.094467 47.963386 
L 36.067666 48.430552 
L 35.643972 48.195247 
L 33.259015 48.53201 
L 29.690178 49.035041 
L 28.08511 49.710606 
L 26.804369 49.604337 
L 26.170898 49.976969 
L 25.874174 49.826536 
L 23.859214 50.086687 
z
" clip-path="url(#p408594385f)" style="fill: #ffeadb; stroke: #000000; stroke-width: 0.5"/>
    <path d="M 22.688881 28.39136 
L 23.84769 28.247201 
L 24.627659 27.141222 
L 25.539084 26.543539 
L 25.779209 25.663663 
L 26.000054 25.895024 
L 26.359366 25.305228 
L 27.099022 25.498905 
L 26.936017 25.200064 
L 28.033232 24.555056 
L 27.593295 24.113365 
L 28.18572 23.82504 
L 28.289132 23.428044 
L 27.456581 22.699781 
L 27.700212 22.014459 
L 27.325125 21.882127 
L 27.642371 21.368575 
L 27.388224 20.774396 
L 27.642371 20.074177 
L 27.37946 19.780593 
L 28.932388 19.450202 
L 31.104032 17.99017 
L 31.968132 18.37139 
L 32.656959 17.892894 
L 32.041747 13.56976 
L 31.719243 13.933455 
L 29.819274 12.958054 
L 30.019086 12.496645 
L 27.5968 11.863907 
L 27.307598 11.342906 
L 27.610822 10.566443 
L 28.311918 10.107224 
L 30.865659 9.97796 
L 31.319869 9.004537 
L 31.437052 8.568757 
L 31.151356 8.347912 
L 32.215269 7.549976 
L 34.112609 7.721308 
L 35.180904 7.278303 
L 35.839934 7.579775 
L 36.153197 7.417599 
L 37.866101 7.0614 
L 39.714609 5.591135 
L 41.850077 6.029475 
L 42.572206 5.375703 
L 43.537966 5.44143 
L 44.540532 6.023342 
L 45.632489 7.178397 
L 48.168703 8.673483 
L 48.445636 8.584094 
L 48.242318 8.282622 
L 49.134463 8.038115 
L 49.235245 7.78616 
L 50.554182 7.52982 
L 52.729331 7.89965 
L 52.671491 7.087253 
L 56.145503 7.462686 
L 56.623021 8.859357 
L 55.48029 8.90766 
L 55.386443 10.011748 
L 57.36 12.476624 
L 57.148843 12.754025 
L 57.509052 13.328152 
L 59.304065 14.795561 
L 62.378079 16.367843 
L 71.267366 19.435828 
L 73.231263 19.83813 
L 73.984803 19.653195 
L 74.672097 19.96579 
L 74.291187 20.702079 
L 73.511425 21.169936 
L 74.017925 21.748201 
L 73.534887 22.830898 
L 72.641956 23.429175 
L 72.69026 23.816986 
L 71.906357 23.795594 
L 69.80169 24.607099 
L 68.92256 24.306926 
L 66.464584 24.49186 
L 65.955324 24.329697 
L 66.096095 23.795594 
L 65.621337 23.554766 
L 65.568893 22.828827 
L 64.812593 22.512092 
L 65.40052 23.332568 
L 65.041691 24.133032 
L 63.243408 23.228369 
L 59.87456 22.512092 
L 58.824296 22.585239 
L 56.082018 23.265632 
L 54.864761 24.446317 
L 51.414487 23.74177 
L 47.791698 24.139242 
L 47.265877 24.375241 
L 46.901528 24.942465 
L 46.106584 26.817345 
L 44.512557 28.00976 
L 43.78524 28.983427 
L 41.916571 30.186193 
L 39.708395 30.532601 
L 38.927253 31.243357 
L 38.283905 31.400713 
L 37.403612 31.575273 
L 35.86755 32.382638 
L 34.822806 32.500637 
L 33.532404 33.190692 
L 33.379212 33.695812 
L 32.653274 34.130547 
L 32.145393 35.04487 
L 30.376093 35.997836 
L 29.176777 37.009456 
L 27.803568 37.526997 
L 28.316969 38.31159 
L 25.854853 39.814529 
L 24.614134 39.976692 
L 26.555949 37.007386 
L 26.470382 36.543669 
L 25.642316 35.880526 
L 25.874174 35.655568 
L 25.504305 35.455452 
L 25.658877 35.293979 
L 27.389535 34.721924 
L 29.283046 33.455673 
L 31.516063 32.444742 
L 32.506982 32.175621 
L 33.301925 32.252218 
L 34.37013 31.353766 
L 35.311365 31.368257 
L 36.00142 30.705804 
L 35.180075 29.732849 
L 32.275124 30.070264 
L 30.518244 30.763769 
L 29.484542 30.416671 
L 28.722721 30.669231 
L 28.270045 30.494648 
L 27.07487 30.720296 
L 23.93374 30.705804 
L 23.105674 30.280041 
z
" clip-path="url(#p408594385f)" style="fill: #ffeadb; stroke: #000000; stroke-width: 0.5"/>
    <path d="M 16.232727 38.775306 
L 16.621918 38.18738 
L 17.857117 37.408998 
L 20.687722 36.796919 
L 21.466104 37.164718 
L 21.317052 38.250175 
L 22.150638 38.090082 
L 22.150638 38.43787 
L 21.778009 38.593132 
L 17.974426 39.267316 
z
" clip-path="url(#p408594385f)" style="fill: #ffeadb; stroke: #000000; stroke-width: 0.5"/>
    <path d="M 47.828961 30.076474 
L 48.160188 29.716265 
L 48.306479 29.943984 
L 49.166288 29.666582 
L 50.053698 29.838405 
L 50.814139 29.840475 
L 51.32754 30.312473 
L 49.158007 31.132948 
L 47.991814 30.705804 
z
" clip-path="url(#p408594385f)" style="fill: #ffeadb; stroke: #000000; stroke-width: 0.5"/>
    <path d="M 48.772956 33.020249 
L 49.200791 32.343305 
L 49.763875 32.53514 
L 49.843922 33.116166 
L 50.037137 33.29282 
z
" clip-path="url(#p408594385f)" style="fill: #ffeadb; stroke: #000000; stroke-width: 0.5"/>
    <path d="M 21.570992 43.72714 
L 22.015387 43.540138 
L 22.970423 43.669178 
L 23.351333 43.714032 
L 23.214703 44.562796 
z
" clip-path="url(#p408594385f)" style="fill: #ffeadb; stroke: #000000; stroke-width: 0.5"/>
   </g>
  </g>
 </g>
 <defs>
  <clipPath id="p408594385f">
   <rect x="0" y="-0" width="357.12" height="117.086951"/>
  </clipPath>
 </defs>
</svg>
