<?xml version="1.0" encoding="utf-8" standalone="no"?>
<!DOCTYPE svg PUBLIC "-//W3C//DTD SVG 1.1//EN"
  "http://www.w3.org/Graphics/SVG/1.1/DTD/svg11.dtd">
<svg xmlns:xlink="http://www.w3.org/1999/xlink" width="275.642734pt" height="266.112pt" viewBox="0 0 275.642734 266.112" xmlns="http://www.w3.org/2000/svg" version="1.1">
 <metadata>
  <rdf:RDF xmlns:dc="http://purl.org/dc/elements/1.1/" xmlns:cc="http://creativecommons.org/ns#" xmlns:rdf="http://www.w3.org/1999/02/22-rdf-syntax-ns#">
   <cc:Work>
    <dc:type rdf:resource="http://purl.org/dc/dcmitype/StillImage"/>
    <dc:date>2025-06-04T13:24:53.678631</dc:date>
    <dc:format>image/svg+xml</dc:format>
    <dc:creator>
     <cc:Agent>
      <dc:title>Matplotlib v3.10.3, https://matplotlib.org/</dc:title>
     </cc:Agent>
    </dc:creator>
   </cc:Work>
  </rdf:RDF>
 </metadata>
 <defs>
  <style type="text/css">*{stroke-linejoin: round; stroke-linecap: butt}</style>
 </defs>
 <g id="figure_1">
  <g id="patch_1">
   <path d="M 0 266.112 
L 275.642734 266.112 
L 275.642734 0 
L 0 0 
L 0 266.112 
z
" style="fill: none"/>
  </g>
  <g id="axes_1">
   <g id="PatchCollection_1">
    <path d="M 12.529215 98.800459 
L 14.337497 93.182448 
L 14.401497 90.096497 
L 19.672744 90.029011 
L 21.802189 90.401371 
L 22.95651 88.385959 
L 24.380794 88.311491 
L 27.88565 86.091279 
L 28.977136 84.02467 
L 30.510801 82.749331 
L 31.777753 80.868486 
L 32.519228 78.402011 
L 34.837181 75.236932 
L 35.406196 74.873881 
L 36.410409 75.202025 
L 36.218591 73.310377 
L 37.475131 71.010623 
L 37.551931 69.877253 
L 38.376945 69.0022 
L 39.238032 68.957985 
L 42.209945 66.89603 
L 42.239036 66.295592 
L 41.559363 65.925038 
L 42.241363 64.945785 
L 43.850665 64.247607 
L 44.063609 63.777501 
L 45.284258 64.003239 
L 46.16629 63.028119 
L 46.042945 62.332268 
L 46.57356 60.775327 
L 45.342439 58.517888 
L 46.25574 57.236305 
L 46.405998 56.967928 
L 44.302153 57.303055 
L 43.212995 56.77477 
L 42.175036 56.874837 
L 41.99351 56.272078 
L 39.952501 55.175941 
L 38.813899 56.170428 
L 38.495636 55.271353 
L 37.74393 54.838488 
L 37.13186 53.7214 
L 37.881239 52.55777 
L 37.962693 51.636175 
L 39.584794 49.555604 
L 37.785821 50.270072 
L 37.098115 50.023383 
L 38.123274 48.398956 
L 39.258978 45.36886 
L 40.306245 43.953884 
L 40.741443 43.697884 
L 42.180854 43.872428 
L 43.01285 42.85309 
L 44.904914 43.514031 
L 46.606142 42.708798 
L 47.034358 39.297034 
L 47.809336 36.790573 
L 47.036686 35.466361 
L 46.209344 35.354652 
L 46.438579 33.448626 
L 45.763674 33.341572 
L 46.378071 32.727174 
L 46.205853 32.324557 
L 46.685269 31.258674 
L 46.378071 28.868575 
L 46.530506 25.794261 
L 45.995236 25.999062 
L 45.642656 25.722117 
L 44.455753 23.436746 
L 44.425498 21.572611 
L 42.058673 20.692904 
L 40.322536 19.585129 
L 40.306245 18.572769 
L 39.328795 16.252489 
L 38.339709 15.91271 
L 38.421163 15.074895 
L 38.018547 14.607116 
L 38.441475 13.920073 
L 42.198309 14.067191 
L 43.289794 12.978032 
L 45.316839 12.096 
L 46.471161 12.473016 
L 56.651636 12.473016 
L 72.542327 12.473016 
L 89.116992 12.473016 
L 91.930742 12.473016 
L 104.972716 12.473016 
L 109.596985 12.473016 
L 115.731628 12.473016 
L 117.888999 12.473016 
L 118.235761 13.259631 
L 119.071248 13.324794 
L 134.076269 21.701645 
L 145.953715 28.331057 
L 194.99363 55.710923 
L 199.962205 58.485301 
L 200.753272 61.777039 
L 201.204962 64.529203 
L 200.571947 64.75262 
L 200.525402 65.469415 
L 199.564243 65.788251 
L 198.619375 66.749408 
L 198.489048 67.501117 
L 199.136027 67.889767 
L 198.931228 69.011508 
L 200.490493 68.990564 
L 201.391143 69.321036 
L 202.801464 72.209167 
L 217.330285 82.66964 
L 234.768572 95.223749 
L 235.320152 95.474801 
L 235.342142 96.836339 
L 234.308618 97.53085 
L 235.340309 97.884526 
L 235.285334 99.251563 
L 234.130866 101.104205 
L 234.154688 99.070142 
L 233.757038 100.230113 
L 233.41253 100.64242 
L 232.923256 100.607601 
L 233.452845 102.714965 
L 233.231114 103.037483 
L 232.686864 103.011828 
L 232.340524 103.869433 
L 233.385043 103.556078 
L 233.691069 104.644576 
L 232.59524 105.749568 
L 231.385797 107.875255 
L 231.561716 108.040179 
L 232.155443 107.413468 
L 231.316162 110.51404 
L 230.05541 111.884742 
L 230.449395 112.962246 
L 230.147034 113.856501 
L 228.712195 116.363346 
L 227.975534 116.832463 
L 228.283392 116.971732 
L 228.116636 118.485369 
L 226.705619 120.851112 
L 226.452735 123.313978 
L 225.979847 124.172088 
L 225.501673 126.238632 
L 226.271319 127.94468 
L 227.292016 128.827938 
L 227.325 130.218799 
L 226.899863 131.032423 
L 227.431285 133.416491 
L 228.18627 133.891106 
L 228.875286 135.122541 
L 231.063279 135.96915 
L 231.28501 135.703439 
L 230.282638 135.183012 
L 231.396792 135.589826 
L 233.385043 137.656874 
L 235.26701 139.454547 
L 236.012833 141.464786 
L 236.419645 141.765313 
L 236.782478 141.376826 
L 236.787976 143.704088 
L 237.242433 144.129225 
L 237.090336 143.359579 
L 237.502647 143.385235 
L 238.470201 143.898332 
L 240.936732 144.316139 
L 242.873673 147.381895 
L 242.805871 150.183769 
L 242.468693 150.152617 
L 241.688052 151.510494 
L 241.23726 150.922262 
L 240.266041 151.61311 
L 239.807918 152.945331 
L 238.750572 153.632516 
L 238.803714 154.431481 
L 237.858149 154.484622 
L 238.455541 155.869985 
L 237.32123 157.620013 
L 236.663366 160.95148 
L 237.27725 164.501013 
L 236.164929 166.060456 
L 236.853945 165.908361 
L 237.345052 165.349452 
L 237.85815 163.876133 
L 238.475698 164.466194 
L 238.151348 165.122226 
L 239.382781 165.081908 
L 239.778598 165.358612 
L 240.463949 166.269363 
L 239.954517 167.832473 
L 240.31735 169.901353 
L 240.779138 169.58067 
L 240.707671 170.273355 
L 238.62413 174.695146 
L 238.151348 174.695146 
L 238.319937 176.23261 
L 237.997419 176.091508 
L 237.85815 176.694395 
L 237.090337 176.091508 
L 237.279083 176.683402 
L 236.88675 177.212802 
L 237.352382 178.796261 
L 237.301073 181.420383 
L 238.052393 182.186365 
L 238.62413 183.795293 
L 238.455541 186.115224 
L 240.364995 187.049794 
L 240.669188 188.173111 
L 241.477316 188.658715 
L 242.175494 190.124707 
L 242.94514 190.806399 
L 242.201149 190.822885 
L 240.595889 189.373392 
L 239.778598 189.569465 
L 239.228851 190.278636 
L 240.929402 190.278636 
L 240.555574 190.879696 
L 241.552448 191.169227 
L 241.702712 195.352804 
L 243.293313 194.65096 
L 244.973706 196.813296 
L 244.709827 198.376412 
L 245.111143 198.916994 
L 244.951716 200.85577 
L 244.346994 201.498969 
L 243.291481 201.67489 
L 243.252998 202.633285 
L 244.176573 202.466524 
L 244.345162 202.123849 
L 245.129468 202.570981 
L 245.111143 203.236172 
L 245.803824 203.934349 
L 246.260113 205.605581 
L 246.800698 206.158989 
L 246.511164 206.631774 
L 247.159866 207.570009 
L 247.28814 208.464266 
L 246.170321 209.329198 
L 247.416414 209.413495 
L 248.504913 211.106712 
L 248.492086 212.206209 
L 247.416414 212.349138 
L 248.270354 213.340518 
L 246.558809 213.994716 
L 246.78787 215.242642 
L 246.031052 216.050769 
L 246.610119 215.946317 
L 247.661968 214.6874 
L 250.504159 215.409398 
L 252.430105 218.077503 
L 252.462948 219.088477 
L 252.659166 220.049261 
L 253.005507 219.411555 
L 252.692151 218.220437 
L 253.009172 218.004203 
L 255.913668 218.861808 
L 256.045607 220.650318 
L 255.710261 221.179907 
L 256.606349 221.388811 
L 256.908709 220.818907 
L 258.220772 221.753476 
L 258.374701 221.124933 
L 259.003245 221.124933 
L 257.452959 220.525708 
L 258.220772 219.587474 
L 258.519467 219.682763 
L 258.836488 220.525708 
L 259.77289 221.124933 
L 260.848562 223.137006 
L 262.499634 223.082031 
L 262.604086 222.636736 
L 261.834441 222.101649 
L 262.609584 221.830441 
L 263.113518 222.851138 
L 262.246751 223.906652 
L 262.831315 223.906652 
L 262.554609 224.918186 
L 262.831315 225.764795 
L 261.75798 227.126821 
L 258.63945 228.830376 
L 256.621714 230.934221 
L 253.177367 233.338283 
L 250.426544 234.539149 
L 248.171428 236.072815 
L 241.70164 237.380736 
L 236.930754 241.062463 
L 235.839269 241.513951 
L 233.318844 240.736647 
L 231.845688 241.197444 
L 228.140687 241.367334 
L 225.066375 243.517725 
L 224.060998 243.366451 
L 222.690241 243.80165 
L 219.043422 246.901561 
L 215.787583 245.670442 
L 213.737266 243.831903 
L 212.69698 243.671325 
L 211.717203 243.980849 
L 210.558227 243.210526 
L 210.061198 243.362863 
L 206.564646 243.985503 
L 205.149671 244.776773 
L 203.872004 247.946504 
L 203.837095 249.605841 
L 200.027368 251.912155 
L 198.342431 252.096012 
L 196.785493 252.738335 
L 196.357277 253.552875 
L 195.58928 253.862403 
L 193.960197 253.552875 
L 193.115401 252.924515 
L 191.525882 253.317822 
L 188.630768 252.784881 
L 187.052885 251.758558 
L 186.170853 250.311 
L 185.405184 250.755507 
L 183.322285 250.93936 
L 182.430944 250.520454 
L 181.390658 250.506492 
L 179.542812 252.784881 
L 177.013079 253.834474 
L 175.211778 254.016 
L 174.378619 253.573819 
L 174.066766 252.924515 
L 171.43696 252.924515 
L 169.200462 253.552875 
L 168.348684 253.231712 
L 167.420107 253.387639 
L 166.959309 252.803498 
L 166.707965 250.622855 
L 163.424199 248.97748 
L 162.244277 248.905336 
L 162.255913 247.976756 
L 161.567044 247.367016 
L 159.014038 246.901561 
L 157.615354 248.283957 
L 156.070052 248.728461 
L 156.244597 249.221842 
L 155.376528 250.471581 
L 153.382065 251.218632 
L 152.402288 251.002196 
L 152.374361 251.388522 
L 151.636619 250.704307 
L 150.340334 250.909108 
L 149.942373 250.573982 
L 139.609331 250.506492 
L 139.520895 248.816899 
L 137.852249 246.045129 
L 135.91364 245.065353 
L 135.127026 245.363241 
L 134.484701 244.274084 
L 134.945499 243.841215 
L 134.296193 243.310597 
L 133.968049 242.156276 
L 131.873514 240.287485 
L 131.240499 237.955569 
L 131.800748 236.819884 
L 132.47162 235.40489 
L 132.676419 232.409705 
L 133.088344 232.016397 
L 132.47162 231.024984 
L 132.750892 230.05917 
L 131.868766 228.188519 
L 131.408062 228.090307 
L 130.950705 227.049624 
L 131.240499 225.9213 
L 130.612138 224.301525 
L 131.075263 221.604229 
L 129.704506 217.208032 
L 129.997741 216.286437 
L 129.704506 215.271751 
L 125.357182 209.87716 
L 125.047656 208.750766 
L 124.375077 208.508732 
L 119.655919 204.044285 
L 118.175253 203.307298 
L 117.00464 204.375515 
L 116.669514 204.941039 
L 117.088422 205.946416 
L 116.871986 207.431207 
L 115.903845 208.722834 
L 114.85425 207.63368 
L 111.912592 205.709036 
L 110.010373 206.312153 
L 107.969047 205.916157 
L 106.191019 206.616668 
L 105.25546 206.551501 
L 104.4735 206.176815 
L 103.814885 204.920095 
L 102.132275 203.640097 
L 99.928358 203.668022 
L 99.265089 204.06366 
L 97.710478 203.542351 
L 94.801401 201.140619 
L 93.588898 201.741051 
L 90.514586 200.205062 
L 89.793134 200.153859 
L 88.91343 198.992558 
L 84.518396 198.371176 
L 83.204657 196.339476 
L 82.387788 195.794896 
L 78.0649 195.569152 
L 76.131227 194.13831 
L 73.567467 193.590983 
L 72.415473 194.175124 
L 71.458968 193.947053 
L 71.000498 193.062692 
L 71.426386 191.037974 
L 68.070475 190.128015 
L 66.318047 190.74707 
L 65.48256 190.598121 
L 62.795737 188.256901 
L 62.473411 185.880767 
L 59.962296 184.302883 
L 59.026737 184.281939 
L 58.291322 183.260271 
L 56.210751 184.088774 
L 54.991265 183.115976 
L 53.034038 183.923535 
L 52.088007 183.916553 
L 50.163361 183.006594 
L 47.901263 180.828279 
L 46.468834 178.777962 
L 44.753642 174.409695 
L 42.566016 168.403031 
L 37.762548 160.948814 
L 36.140447 154.506953 
L 34.448528 150.885732 
L 29.863823 145.044306 
L 27.122469 143.085784 
L 24.960283 141.986285 
L 21.220373 138.949209 
L 19.574999 135.067336 
L 17.408319 132.03724 
L 16.021271 125.050802 
L 16.470433 123.621863 
L 18.879148 120.086754 
L 19.090929 118.345961 
L 18.66504 116.453899 
L 16.477414 111.305996 
L 15.560473 107.663832 
L 13.019231 102.484529 
z
" clip-path="url(#p1570885e8d)" style="fill: #ffeadb; stroke: #000000; stroke-width: 0.5"/>
    <path d="M 245.089153 112.111971 
L 245.125802 110.107227 
L 246.199641 110.195187 
L 245.419001 108.952759 
L 246.83185 108.79883 
L 246.031052 108.337042 
L 247.683958 108.39385 
L 248.06145 107.875255 
L 247.057246 107.889915 
L 246.031052 107.244879 
L 245.534448 107.303518 
L 245.111143 106.783092 
L 247.277145 107.10561 
L 247.196515 106.128893 
L 246.650434 106.324969 
L 246.699911 105.555324 
L 246.031052 105.580979 
L 246.254616 104.268916 
L 246.811693 104.298236 
L 246.650434 103.876763 
L 245.726859 103.484611 
L 246.199641 102.786432 
L 245.877123 102.940361 
L 245.814819 102.198204 
L 246.511165 102.324647 
L 246.599124 101.963645 
L 245.726859 101.248974 
L 245.880788 100.015706 
L 246.511164 100.941117 
L 247.031591 100.466498 
L 248.624025 101.604476 
L 248.975863 102.346633 
L 249.02534 101.522012 
L 249.292883 101.248974 
L 249.428488 101.71076 
L 249.613569 101.340598 
L 249.751006 100.171468 
L 250.055199 100.369382 
L 250.251275 102.209197 
L 249.292883 103.081463 
L 249.124294 104.785678 
L 249.360685 105.580979 
L 249.582417 104.939607 
L 249.868285 105.064216 
L 249.749536 106.590983 
L 249.751006 108.183113 
L 248.402294 111.646518 
L 248.06145 111.115097 
L 247.680293 112.220088 
L 246.892322 112.713027 
L 247.108556 112.1926 
L 246.3609 112.460143 
L 246.199641 112.1926 
z
" clip-path="url(#p1570885e8d)" style="fill: #ffeadb; stroke: #000000; stroke-width: 0.5"/>
    <path d="M 234.462547 128.558563 
L 235.270674 127.574516 
L 234.93385 125.759508 
L 234.827212 122.843029 
L 235.23036 123.150886 
L 236.782478 121.444839 
L 237.125154 119.069932 
L 237.535631 118.66312 
L 238.486693 120.585401 
L 238.455541 122.676271 
L 239.273728 125.012516 
L 239.547705 126.084702 
L 240.163421 126.238632 
L 240.212898 126.540992 
L 240.020487 127.757765 
L 240.31735 128.558563 
L 239.855563 129.328209 
L 240.181746 129.190772 
L 240.779138 129.777168 
L 240.944062 129.223757 
L 241.757687 129.421666 
L 241.702712 127.790749 
L 242.094865 128.30568 
L 242.714246 132.236369 
L 243.403262 133.506285 
L 243.300643 134.479338 
L 242.732571 135.155526 
L 241.926276 135.424901 
L 241.097991 135.183012 
L 240.247716 134.045035 
L 239.855563 131.789243 
L 239.349796 131.943171 
L 239.564197 133.418324 
L 238.935653 133.185599 
L 238.906333 132.40679 
L 237.414687 130.535819 
L 236.936407 130.559642 
L 237.090336 131.032423 
L 236.787976 130.82352 
L 236.837453 132.032962 
L 234.948156 129.975077 
z
" clip-path="url(#p1570885e8d)" style="fill: #ffeadb; stroke: #000000; stroke-width: 0.5"/>
    <path d="M 243.698293 168.811028 
L 244.480766 168.669926 
L 244.700665 168.123844 
L 246.082362 167.117802 
L 246.326083 165.972499 
L 248.812771 165.276155 
L 247.892862 164.982958 
L 249.501787 164.132678 
L 250.645261 161.878717 
L 250.989769 162.258045 
L 250.593951 164.501013 
L 249.014345 168.101851 
L 247.469556 168.13117 
L 246.83185 169.439568 
L 245.94126 169.787744 
L 244.656685 169.718106 
z
" clip-path="url(#p1570885e8d)" style="fill: #ffeadb; stroke: #000000; stroke-width: 0.5"/>
    <path d="M 246.301941 172.096426 
L 246.302033 171.141947 
L 247.185616 169.921959 
L 248.41728 169.868544 
L 248.524352 170.186812 
L 246.676715 172.122978 
z
" clip-path="url(#p1570885e8d)" style="fill: #ffeadb; stroke: #000000; stroke-width: 0.5"/>
    <path d="M 243.289822 111.632276 
L 243.434584 111.369877 
L 244.463725 112.41774 
L 245.162215 112.639761 
L 245.33402 113.203297 
L 244.332438 112.92925 
z
" clip-path="url(#p1570885e8d)" style="fill: #ffeadb; stroke: #000000; stroke-width: 0.5"/>
    <path d="M 235.305992 121.808114 
L 235.567964 119.805457 
L 235.832737 121.761749 
z
" clip-path="url(#p1570885e8d)" style="fill: #ffeadb; stroke: #000000; stroke-width: 0.5"/>
   </g>
  </g>
 </g>
 <defs>
  <clipPath id="p1570885e8d">
   <rect x="0" y="-0" width="275.642734" height="266.112"/>
  </clipPath>
 </defs>
</svg>
