<?xml version="1.0" encoding="utf-8" standalone="no"?>
<!DOCTYPE svg PUBLIC "-//W3C//DTD SVG 1.1//EN"
  "http://www.w3.org/Graphics/SVG/1.1/DTD/svg11.dtd">
<svg xmlns:xlink="http://www.w3.org/1999/xlink" width="357.12pt" height="29.691411pt" viewBox="0 0 357.12 29.691411" xmlns="http://www.w3.org/2000/svg" version="1.1">
 <metadata>
  <rdf:RDF xmlns:dc="http://purl.org/dc/elements/1.1/" xmlns:cc="http://creativecommons.org/ns#" xmlns:rdf="http://www.w3.org/1999/02/22-rdf-syntax-ns#">
   <cc:Work>
    <dc:type rdf:resource="http://purl.org/dc/dcmitype/StillImage"/>
    <dc:date>2025-06-04T13:24:42.182418</dc:date>
    <dc:format>image/svg+xml</dc:format>
    <dc:creator>
     <cc:Agent>
      <dc:title>Matplotlib v3.10.3, https://matplotlib.org/</dc:title>
     </cc:Agent>
    </dc:creator>
   </cc:Work>
  </rdf:RDF>
 </metadata>
 <defs>
  <style type="text/css">*{stroke-linejoin: round; stroke-linecap: butt}</style>
 </defs>
 <g id="figure_1">
  <g id="patch_1">
   <path d="M 0 29.691411 
L 357.12 29.691411 
L 357.12 0 
L 0 0 
L 0 29.691411 
z
" style="fill: none"/>
  </g>
  <g id="axes_1">
   <g id="PatchCollection_1">
    <path d="M 16.232727 1.366274 
L 16.236836 1.357481 
L 16.24367 1.351952 
L 16.252502 1.34961 
L 16.262869 1.350454 
L 16.256457 1.356905 
L 16.249161 1.361858 
L 16.241098 1.365084 
z
" clip-path="url(#p6f7c99780e)" style="fill: #ffeadb; stroke: #000000; stroke-width: 0.5"/>
    <path d="M 23.631012 12.193884 
L 23.632739 12.190198 
L 23.647215 12.184822 
L 23.656584 12.185667 
L 23.638384 12.195343 
L 23.633047 12.196187 
z
" clip-path="url(#p6f7c99780e)" style="fill: #ffeadb; stroke: #000000; stroke-width: 0.5"/>
    <path d="M 30.657304 22.418198 
L 30.69766 22.419503 
L 30.686141 22.436321 
L 30.666059 22.430677 
L 30.684259 22.421077 
z
" clip-path="url(#p6f7c99780e)" style="fill: #ffeadb; stroke: #000000; stroke-width: 0.5"/>
    <path d="M 340.856171 9.779855 
L 340.873911 9.775325 
L 340.870685 9.757124 
L 340.887273 9.777398 
z
" clip-path="url(#p6f7c99780e)" style="fill: #ffeadb; stroke: #000000; stroke-width: 0.5"/>
    <path d="M 112.829528 10.595526 
L 112.845885 10.597522 
L 112.847459 10.615492 
z
" clip-path="url(#p6f7c99780e)" style="fill: #ffeadb; stroke: #000000; stroke-width: 0.5"/>
    <path d="M 32.614099 28.329898 
L 32.633989 28.326442 
L 32.619014 28.341801 
z
" clip-path="url(#p6f7c99780e)" style="fill: #ffeadb; stroke: #000000; stroke-width: 0.5"/>
   </g>
  </g>
 </g>
 <defs>
  <clipPath id="p6f7c99780e">
   <rect x="0" y="-0" width="357.12" height="29.691411"/>
  </clipPath>
 </defs>
</svg>
