<?xml version="1.0" encoding="utf-8" standalone="no"?>
<!DOCTYPE svg PUBLIC "-//W3C//DTD SVG 1.1//EN"
  "http://www.w3.org/Graphics/SVG/1.1/DTD/svg11.dtd">
<svg xmlns:xlink="http://www.w3.org/1999/xlink" width="357.12pt" height="204.966736pt" viewBox="0 0 357.12 204.966736" xmlns="http://www.w3.org/2000/svg" version="1.1">
 <metadata>
  <rdf:RDF xmlns:dc="http://purl.org/dc/elements/1.1/" xmlns:cc="http://creativecommons.org/ns#" xmlns:rdf="http://www.w3.org/1999/02/22-rdf-syntax-ns#">
   <cc:Work>
    <dc:type rdf:resource="http://purl.org/dc/dcmitype/StillImage"/>
    <dc:date>2025-06-04T13:24:55.884704</dc:date>
    <dc:format>image/svg+xml</dc:format>
    <dc:creator>
     <cc:Agent>
      <dc:title>Matplotlib v3.10.3, https://matplotlib.org/</dc:title>
     </cc:Agent>
    </dc:creator>
   </cc:Work>
  </rdf:RDF>
 </metadata>
 <defs>
  <style type="text/css">*{stroke-linejoin: round; stroke-linecap: butt}</style>
 </defs>
 <g id="figure_1">
  <g id="patch_1">
   <path d="M 0 204.966736 
L 357.12 204.966736 
L 357.12 0 
L 0 0 
L 0 204.966736 
z
" style="fill: none"/>
  </g>
  <g id="axes_1">
   <g id="PatchCollection_1">
    <path d="M 17.975067 110.872542 
L 19.937678 110.794346 
L 20.188786 110.139041 
L 19.818732 109.121391 
L 20.743868 107.551964 
L 20.391435 109.029979 
L 22.417924 110.416582 
L 22.977411 111.800982 
L 23.301209 108.146694 
L 22.497221 106.045313 
L 22.417924 104.175216 
L 20.928895 102.03749 
L 21.312166 101.436152 
L 20.63153 100.472469 
L 20.776908 98.661845 
L 20.188786 98.462499 
L 21.536842 97.078099 
L 21.827599 95.3688 
L 23.655844 93.783954 
L 24.049908 92.72514 
L 24.199913 87.751845 
L 22.82983 80.358465 
L 25.772193 79.060938 
L 26.00438 77.424438 
L 27.741588 76.979647 
L 29.509567 75.88305 
L 30.82716 72.194631 
L 32.937825 72.493958 
L 33.399402 72.410035 
L 33.553684 71.862473 
L 33.088886 70.444837 
L 34.174291 69.465735 
L 34.25262 68.830716 
L 32.474849 67.812448 
L 31.576872 65.767523 
L 32.206296 63.072192 
L 31.733529 60.997897 
L 32.754593 57.65636 
L 35.256899 56.513605 
L 35.353411 55.970902 
L 34.542154 55.000193 
L 32.995172 54.510642 
L 34.372909 52.851763 
L 37.784395 50.273861 
L 39.703423 49.258457 
L 41.713381 49.325592 
L 44.147151 50.259936 
L 45.808663 51.463193 
L 48.30414 53.793101 
L 52.528268 53.759529 
L 52.726886 54.882702 
L 53.297563 55.162444 
L 53.935378 55.071528 
L 55.700561 53.37628 
L 57.90494 54.036477 
L 59.62816 52.374801 
L 61.320609 52.759445 
L 66.533631 51.998545 
L 70.805315 52.384591 
L 73.092219 51.644668 
L 81.916381 51.701756 
L 88.673937 52.03491 
L 94.31077 54.886898 
L 118.461034 57.267516 
L 128.948621 55.878587 
L 129.9529 56.436675 
L 135.992564 64.500284 
L 136.71483 64.725836 
L 141.162226 64.75485 
L 148.395316 60.812255 
L 149.190867 59.789401 
L 152.738015 50.792848 
L 168.245601 32.234662 
L 191.89932 20.574248 
L 194.415613 19.697954 
L 271.550711 9.31667 
L 271.742177 9.74718 
L 291.657281 55.261752 
L 293.825294 56.093991 
L 301.641671 73.01134 
L 299.786993 73.632503 
L 298.786965 73.396814 
L 295.165717 75.346209 
L 286.544328 78.29343 
L 280.052955 83.258324 
L 278.123385 86.044747 
L 278.202683 87.324519 
L 276.339194 90.835632 
L 277.178425 92.588985 
L 276.878857 93.703556 
L 278.202683 94.547191 
L 278.123385 98.059405 
L 278.757764 99.664076 
L 278.310615 100.789658 
L 273.40519 102.03749 
L 272.825879 102.546316 
L 269.777335 103.517708 
L 268.724441 104.161999 
L 268.486549 105.283177 
L 267.508548 104.779858 
L 265.601005 105.404325 
L 263.122962 106.871327 
L 263.371867 108.255728 
L 259.422417 108.890107 
L 257.900347 110.139041 
L 255.019208 111.248103 
L 254.331964 111.032238 
L 252.338516 112.003631 
L 239.784392 114.830255 
L 235.899726 115.882595 
L 232.992155 116.151325 
L 230.432611 117.183293 
L 227.692445 119.270358 
L 226.176984 119.69988 
L 222.855304 121.70655 
L 221.954398 121.531435 
L 219.128327 122.384981 
L 218.802327 121.518213 
L 216.430013 121.829899 
L 206.577312 124.57667 
L 197.1233 128.962257 
L 196.077015 129.684745 
L 195.852339 130.550407 
L 194.002066 130.181458 
L 193.039484 130.834558 
L 191.689226 132.722277 
L 190.935901 134.800527 
L 191.028414 135.742186 
L 187.869735 137.757659 
L 186.93799 140.013235 
L 185.451164 140.731314 
L 183.845392 142.68732 
L 182.307903 143.352536 
L 179.149224 143.28645 
L 176.550031 144.831654 
L 176.054423 144.244632 
L 173.016892 144.091538 
L 173.219541 144.4616 
L 168.970522 145.368008 
L 169.102684 144.711607 
L 167.662115 143.704969 
L 164.318408 142.982482 
L 161.998959 143.704969 
L 160.250012 145.570656 
L 159.016497 146.198426 
L 154.855586 147.586136 
L 148.5977 153.247086 
L 145.578005 154.472155 
L 134.410075 157.165696 
L 132.037761 158.707597 
L 128.238094 160.035823 
L 126.097064 159.665769 
L 123.804048 160.420196 
L 118.200366 160.405876 
L 116.076958 159.789118 
L 112.742061 160.588708 
L 104.733025 161.326611 
L 100.682249 162.34316 
L 96.036744 166.331155 
L 95.693122 167.335588 
L 93.569714 169.701293 
L 87.89995 171.256407 
L 85.353623 173.32695 
L 85.184014 173.637529 
L 84.25227 176.278577 
L 84.247865 178.040737 
L 83.142106 178.100212 
L 82.102429 177.492269 
L 82.146483 177.085867 
L 83.613485 176.914054 
L 83.811729 176.448186 
L 83.07162 175.423921 
L 82.609052 176.161832 
L 81.161874 176.093551 
L 80.408549 177.027498 
L 79.186048 176.917356 
L 79.192656 177.825973 
L 80.520887 177.78743 
L 80.300616 178.415198 
L 79.450372 178.910811 
L 76.846774 177.763197 
L 75.293867 178.582603 
L 75.062583 177.551735 
L 74.368731 176.919559 
L 72.121971 176.483429 
L 70.287118 177.085867 
L 66.819181 180.442692 
L 66.610803 180.118989 
L 63.432298 181.371232 
L 61.78027 181.380038 
L 60.769228 181.90869 
L 59.330861 181.371232 
L 60.736187 181.556258 
L 60.769228 180.789716 
L 59.749375 180.911967 
L 57.282345 182.109134 
L 54.141287 182.479187 
L 52.746974 181.001178 
L 45.028695 178.248898 
L 44.436167 178.329295 
L 42.893623 179.842091 
L 41.810542 180.244549 
L 41.039595 179.899826 
L 41.552826 177.732362 
L 41.334758 175.751023 
L 39.391972 173.130905 
L 38.986674 171.40289 
L 36.887496 167.828998 
L 35.264102 165.842153 
L 34.653953 163.915888 
L 35.248683 162.154824 
L 35.409481 157.347421 
L 36.517441 155.749363 
L 36.222675 153.603657 
L 34.83898 147.879094 
L 32.905103 145.778143 
L 31.113366 142.260394 
L 28.184607 131.290524 
L 27.426876 130.634114 
L 27.607498 130.180352 
L 28.085485 130.449086 
L 29.109743 132.566987 
L 28.907094 131.086769 
L 29.303581 129.971101 
L 28.184607 127.376312 
L 28.523823 126.578931 
L 27.490755 125.354225 
L 26.964308 123.180158 
L 25.37836 120.614007 
L 25.369549 119.752752 
L 26.10305 121.759414 
L 27.056822 122.570008 
L 27.237443 120.726346 
L 26.829943 118.860654 
L 25.283644 116.793414 
L 25.210954 114.221755 
L 21.312166 111.800982 
L 20.17557 111.666617 
L 19.633704 112.448577 
L 18.721784 112.299895 
z
" clip-path="url(#p5d7f8434d7)" style="fill: #ffeadb; stroke: #000000; stroke-width: 0.5"/>
    <path d="M 307.580165 184.113599 
L 307.740962 183.772177 
L 309.021704 183.917424 
L 309.736613 183.488026 
L 310.108871 182.479187 
L 309.915584 180.897988 
L 310.313753 180.744569 
L 311.919884 180.493173 
L 312.726264 179.393153 
L 316.918528 179.590922 
L 319.845512 181.893085 
L 322.097743 182.464152 
L 322.906814 181.146295 
L 326.482373 181.188246 
L 328.781204 179.750041 
L 329.494881 179.689461 
L 330.807489 180.667189 
L 331.554556 180.385543 
L 332.184384 181.001178 
L 333.301156 181.139944 
L 339.002562 183.953886 
L 340.232217 183.551445 
L 340.887273 183.773283 
L 338.644214 184.612619 
L 338.299405 185.546627 
L 337.153306 186.020212 
L 332.920087 186.93196 
L 332.184384 187.855995 
L 330.066059 189.156714 
L 327.550158 189.112925 
L 326.486362 189.738306 
L 325.450714 189.413306 
L 318.986704 190.535248 
L 314.682585 189.609546 
L 312.882076 187.397832 
z
" clip-path="url(#p5d7f8434d7)" style="fill: #ffeadb; stroke: #000000; stroke-width: 0.5"/>
    <path d="M 273.86502 192.292975 
L 275.335188 192.128534 
L 277.554639 193.07874 
L 279.957232 193.231065 
L 280.773978 193.570791 
L 282.674175 193.327514 
L 282.17483 194.022766 
L 282.64402 194.637112 
L 278.631806 194.42032 
L 278.202683 193.785677 
L 276.997803 193.988324 
L 276.524221 193.323111 
L 275.169557 193.290068 
z
" clip-path="url(#p5d7f8434d7)" style="fill: #ffeadb; stroke: #000000; stroke-width: 0.5"/>
    <path d="M 16.232727 109.496952 
L 16.589566 106.829476 
L 17.752594 105.386704 
L 18.347324 105.087136 
L 18.675528 105.406528 
L 17.201918 106.866922 
L 18.201946 106.63674 
L 18.461865 107.005692 
L 18.083 109.127999 
L 16.845079 110.188602 
z
" clip-path="url(#p5d7f8434d7)" style="fill: #ffeadb; stroke: #000000; stroke-width: 0.5"/>
    <path d="M 20.188786 144.176343 
L 22.039058 142.782037 
L 23.162439 143.906511 
L 22.620573 146.698447 
L 21.871653 146.678622 
L 22.237302 145.921991 
L 20.990571 145.361405 
z
" clip-path="url(#p5d7f8434d7)" style="fill: #ffeadb; stroke: #000000; stroke-width: 0.5"/>
    <path d="M 298.797552 194.261981 
L 299.303381 193.877226 
L 300.632766 193.931968 
L 301.440703 194.206032 
L 301.534372 195.030218 
L 300.728084 195.195143 
z
" clip-path="url(#p5d7f8434d7)" style="fill: #ffeadb; stroke: #000000; stroke-width: 0.5"/>
    <path d="M 20.096272 153.633663 
L 20.928895 151.499243 
L 22.6426 150.489304 
L 22.977411 150.760233 
L 21.871653 152.709626 
z
" clip-path="url(#p5d7f8434d7)" style="fill: #ffeadb; stroke: #000000; stroke-width: 0.5"/>
    <path d="M 39.087999 180.631117 
L 40.138689 180.429575 
L 40.680554 180.992364 
L 40.323716 181.556258 
z
" clip-path="url(#p5d7f8434d7)" style="fill: #ffeadb; stroke: #000000; stroke-width: 0.5"/>
    <path d="M 305.917786 195.383219 
L 306.961421 195.219876 
L 307.594337 195.650066 
z
" clip-path="url(#p5d7f8434d7)" style="fill: #ffeadb; stroke: #000000; stroke-width: 0.5"/>
   </g>
  </g>
 </g>
 <defs>
  <clipPath id="p5d7f8434d7">
   <rect x="0" y="0" width="357.12" height="204.966736"/>
  </clipPath>
 </defs>
</svg>
